<?xml version="1.0" encoding="utf-8"?>
<!-- Generator: Adobe Illustrator 16.0.0, SVG Export Plug-In . SVG Version: 6.00 Build 0)  -->
<!DOCTYPE svg PUBLIC "-//W3C//DTD SVG 1.1//EN" "http://www.w3.org/Graphics/SVG/1.1/DTD/svg11.dtd">
<svg version="1.1" id="Capa_1" xmlns="http://www.w3.org/2000/svg" xmlns:xlink="http://www.w3.org/1999/xlink" x="0px" y="0px"
	 width="480px" height="240px" viewBox="0 0 480 240" style="enable-background:new 0 0 480 240;" xml:space="preserve">
<style type="text/css">
<![CDATA[
	.adorno-a{clip-path:url(#SVGID_2_Adorno);fill:url(#SVGID_3_Adorno);opacity:0;
	transform: translate(0px, 50px);
		animation: marqueza-Color-Adorno 1s forwards 8s;
	}
	@keyframes marqueza-Color-Adorno{
		0%{opacity:0;transform: translate(0px, 50px);
		}100%{opacity:1;transform: translate(0px, 0px);
	}}

	.marqueza-FullColor{clip-path:url(#SVGID_2_);fill:url(#SVGID_3_);opacity:0;
		animation: marqueza-Color 1s forwards 3s;
	}
	@keyframes marqueza-Color{
		0%{opacity:0;
		}100%{opacity:1;
	}}

	.marqueza-Sombra{fill-rule:evenodd;clip-rule:evenodd;fill:#cb995e;opacity:0;
		animation: marqueza-Color 1s forwards 7.5s;
	}
	@keyframes marqueza-Color{
		0%{opacity:0;
		}100%{opacity:1;
	}}

	.marqueza-1B{fill:none;stroke:#FFF;stroke-width:1;opacity:0;stroke-dashoffset:0;stroke-dasharray:50px;
		animation: marqueza-1BL 1s forwards 5s;
	}
	@keyframes marqueza-1BL{0%{stroke-dashoffset:50px;opacity:0;
		}100%{stroke-dashoffset:0px;opacity:1;}}

	.marqueza-2E{fill:none;stroke:#FFF;stroke-width:1;opacity:0;stroke-dashoffset:0;stroke-dasharray:30px;
		animation: marqueza-2EL 1s forwards 5.2s;
	}
	@keyframes marqueza-2EL{0%{stroke-dashoffset:50px;opacity:0;
		}100%{stroke-dashoffset:0px;opacity:1;}}

	.marqueza-3A{fill:none;stroke:#FFF;stroke-width:1;opacity:0;stroke-dashoffset:0;stroke-dasharray:25px;
		animation: marqueza-3AL 1s forwards 5.4s;
	}
	@keyframes marqueza-3AL{0%{stroke-dashoffset:25px;opacity:0;
		}100%{stroke-dashoffset:0px;opacity:1;}}

	.marqueza-4U{fill:none;stroke:#FFF;stroke-width:1;opacity:0;stroke-dashoffset:0;
		animation: marqueza-4UL 1s forwards 5.6s;
		stroke-dasharray:30px;
	}
	@keyframes marqueza-4UL{0%{stroke-dashoffset:30px;opacity:0;
		}100%{stroke-dashoffset:0px;opacity:1;}}

	.marqueza-5T{fill:none;stroke:#FFF;stroke-width:1;opacity:0;stroke-dashoffset:0;stroke-dasharray:15px;
		animation: marqueza-5TL 1s forwards 5.8s;
	}
	@keyframes marqueza-5TL{0%{stroke-dashoffset:15px;opacity:0;
		}100%{stroke-dashoffset:0px;opacity:1;}}

	.marqueza-6Y{fill:none;stroke:#FFF;stroke-width:1;opacity:0;stroke-dashoffset:0;stroke-dasharray:15px;
		animation: marqueza-6YL 1s forwards 6s;
	}
	@keyframes marqueza-6YL{0%{stroke-dashoffset:15px;opacity:0;
		}100%{stroke-dashoffset:0px;opacity:1;}}

	.marqueza-7S{fill:none;stroke:#FFF;stroke-width:1;opacity:0;stroke-dashoffset:0;stroke-dasharray:30px;
		animation: marqueza-7SL 1s forwards 6.2s;
	}
	@keyframes marqueza-7SL{0%{stroke-dashoffset:30px;opacity:0;
		}100%{stroke-dashoffset:0px;opacity:1;}}

	.marqueza-8T{fill:none;stroke:#FFF;stroke-width:1;opacity:0;stroke-dashoffset:0;stroke-dasharray:15px;
		animation: marqueza-8TL 1s forwards 6.4s;
	}
	@keyframes marqueza-8TL{0%{stroke-dashoffset:15px;opacity:0;
		}100%{stroke-dashoffset:0px;opacity:1;}}

	.marqueza-9U{fill:none;stroke:#FFF;stroke-width:1;opacity:0;stroke-dashoffset:0;stroke-dasharray:30px;
		animation: marqueza-9UL 1s forwards 6.6s;
	}
	@keyframes marqueza-9UL{0%{stroke-dashoffset:30px;opacity:0;
		}100%{stroke-dashoffset:0px;opacity:1;}}

	.marqueza-10D{fill:none;stroke:#FFF;stroke-width:1;opacity:0;stroke-dashoffset:0;stroke-dasharray:40px;
		animation: marqueza-10DL 1s forwards 6.8s;
	}
	@keyframes marqueza-10DL{0%{stroke-dashoffset:40px;opacity:0;
		}100%{stroke-dashoffset:0px;opacity:1;}}

	.marqueza-11I{fill:none;stroke:#FFF;stroke-width:1;opacity:0;stroke-dashoffset:0;stroke-dasharray:15px;
		animation: marqueza-11IL 1s forwards 7s;
	}
	@keyframes marqueza-11IL{0%{stroke-dashoffset:15px;opacity:0;
		}100%{stroke-dashoffset:0px;opacity:1;}}

	.marqueza-12O{fill:none;stroke:#FFF;stroke-width:1;opacity:0;stroke-dashoffset:0;stroke-dasharray:35px;
		animation: marqueza-12OL 1s forwards 7.2s;
	}
	@keyframes marqueza-12OL{0%{stroke-dashoffset:35px;opacity:0;
		}100%{stroke-dashoffset:0px;opacity:1;}}

	.marqueza-A1{fill:none;stroke:#B47C3A;stroke-width:1.5;opacity:0;stroke-dashoffset:0;
		animation: marqueza-AdornoL 2s forwards 4s;
		stroke-dasharray:320px;
	}
	.marqueza-A2{fill:none;stroke:#B47C3A;stroke-width:1.5;opacity:0;stroke-dashoffset:0;
		animation: marqueza-AdornoL 2s forwards 4s;
		stroke-dasharray:320px;
	}
	.marqueza-AC{fill-rule:evenodd;clip-rule:evenodd;fill:#B47C3A;opacity:0;animation: marqueza-Color 1s forwards 5s;}
	@keyframes marqueza-AdornoL{0%{stroke-dashoffset:320px;opacity:0;
		}100%{stroke-dashoffset:0px;opacity:1;}}

	.marqueza-LogoL{fill:none;stroke:#B47C3A;stroke-width:0.5;opacity:1;stroke-dashoffset:0;
		animation: marqueza-LogoAniL 3s forwards;
		stroke-dasharray:1250px;
	}
	@keyframes marqueza-LogoAniL{0%{
			stroke-dashoffset:1250px;opacity:1;
		}50%{stroke-dashoffset:0px;opacity:1;
		}100%{stroke-dashoffset:0px;opacity:0;}}

	
	.margen{fill:#000;stroke:#000000;stroke-width:0.5669;stroke-miterlimit:22.9256;}
]]>
</style>
<rect class="margen" width="480" height="240"/>

<path class="marqueza-Sombra" d="M330,81c-1.4-0.9-6.5-7.6-3.3-9.4C329.3,70.3,331.7,77.6,330,81 M380.2,102.2c-3.5,13-10.4,11.2-10.7-0.3
	c0-0.6,0-1.9,0-2.6c0.4-3.9,1.4-8.5,3.4-12c1.8-3.2,3.5-5.1,8.5-4.8C386.3,84.7,380.9,100.8,380.2,102.2z M202.9,80.7
	c-2.9-1-4.1-3.5-5.4-6.5c-4-9.2,5.7-11.2,6.5-2.3C204.2,74.8,204,78.4,202.9,80.7z M242.3,118.1c0.2-1.1,0.3-2,0.5-3.1
	c0.5-2.8,0.4-2.3,1.4-3.4c2.4,7.2,4.6,17.3,0.5,25.1C238.9,147.9,242.2,118.7,242.3,118.1z M78.2,114.3l0.7,0.8
	c1.7-0.1,3.3,0.6,5.3,0.1c2.2-0.6,1.9-1.7,2.6-3.5c1.2-7,6.7-20.2,9.6-26c3-6.1,8.3-18.7,16.4-17.3c4.2,4.7,1.2,13.3-0.4,18.3
	c-1.2,4.1-5,13.6-5.3,16.6c5.4,2.8,8.2,1.9,10-3.2c2.1-6,13.8-39.2,22.7-37.6c4.1,7.9-11.1,41.4-9.7,57.3c3.8,18.4,21.5-4.5,25-10.9
	c1-1.3,0.3-0.4,0.9-1.1c1.2,1.9,1.6,3.7,2.9,5.3c0.8,1.1,1,1.2,2.3,2c3.1,2.1,6.4,1.9,9.1-1c1-1.1,2.7-3.7,3.3-5.7l1.1-3.1
	c0.6,0.9,0-0.8,0.7,1.4c0.2,0.7,0.1,1.1,0.2,1.7c0.7,7,7.6,13.1,15,4.2c4.5-5.4,9.8-16.6,11.6-23.8l4.2,0.7
	c-0.4,2.3-2.5,7.4-3.5,9.6c-1.2,5.2-2.9,9.2-3.4,15.1c-0.3,3-0.3,6.2,0.5,9.1c2.3,7.7,10.2,8,14.7,1.1c2.2-3.3,3.6-8.8,5.5-11.3
	c3.6,2.8,9.8,7.1,14.3-1.7l1.4-3.4c0.8,1.4,0.6-1.7,0.6,1.4c-0.1,6.3-4.6,16.8-2.8,25.8c2,9.6,10.5,9.5,14.1,0.3
	c2.8-7.4,1.8-17.6-0.9-24.7c-1.9-5-2.6-4-1.1-10.1c0.7-2.9,2.6-9.4,2.6-12l-1.9-1l-6.8-0.1c-1.5,4.1-1.2,10.2-2.8,14.5
	c-6.5,17.4-14.2,8.1-7.8-10.3c1-2.7,2.8-6.1,4.4-8.1c6.4-8.1,7.5-2.3,9.9-0.6c3.9-7.6-8.9-5.5-12.3-3.7
	c-7.3,3.8-11.7,12.5-12.7,20.4c-1.2,9.1,3.5,6.6-2.9,19.5c-6.1,12.3-11.8,4.3-4-20.2c1-3,4.4-8.8,3.8-11.6c-0.4-1.8-2-3.2-3.6-3.8
	c-2-0.7-3-0.2-5-0.6c-5.2-1.1,6.6-21.7-9.7-18.6c-4.4,2.4-4,6.1-2.5,13.1c0.4,1.9,1.4,4,2.5,5.6c1.4,2.1,2.2,3.3,4.1,3.7
	c-0.4,5.5-9.4,26.2-16.2,25.7c-3.9-4.7-1.3-18,0.5-24.6c0-0.1,0.5-1.4,0.5-1.5c1.1-2.5,2.5-5.1-1.3-6.1c-1-0.3-3.2-0.5-4.2-0.2
	c-2.4,0.7-0.4-0.4-1.9,1.7c-4.9-3.9-8.8-3.8-14,0c-11.1,8.2-6.2,17.4-10.4,24.6c-1.4,2.3-13.8,21.7-15.9,12.5
	c-0.6-2.6,1.2-10.2,1.8-12.8c3.4-13.2,8.8-27.8,8.4-41.5l-0.7-3.4c-4.8-6.1-8.3-5.2-13,0.3c-0.6,0.7-1,1-1.5,1.6
	c-0.9,1.1-1.4,2-2.5,3.5c-2,3.1-3.6,5.9-5.4,9.2c-1.6,3-2.8,6.9-4.9,9.4c0.9-7.6,5.1-17.3-2.5-21.8c-16.6-2-21.8,20.1-26.3,25.9
	c0.4-4.1,6.1-22.9,8.2-29.1c0,0,0.6-2,0.6-2c0.3-2.8,0-1.1-0.4-2C99,55.5,88,54.8,81,61c-3.5,3.2-7.9,10.3-6.7,17.8
	c5.5,0.7,4.9,0.3,5.3-4.3c0.5-6.1,4.5-15.4,12.3-15C91.7,68,75.4,110.3,78.2,114.3z M176.1,96.8c-4.1,19.8-13,17.7-12.1,2.5
	c0.1-2.6,0.5-4.8,1.2-7.2c3.3-11.5,14.3-13.3,12.3-2.7C177,91.8,176.5,94.5,176.1,96.8z M255.4,90.3c-1.4,6.9-6,25,3.1,26
	c5.8,0.6,11.2-8.2,13.6-12.7l3-5.3c0.1-0.1,0.2-0.2,0.3-0.4c-0.3,10.4,0.6,22.8,13.3,12c2.2-1.9,2.3-3.8,4-5.7
	c0.2,0.1,0.4,0.1,0.5,0.3c0,0.3,0.3,1,0.3,1.2c1.4,5.8,3.5,10.4,10.5,10.9c5.2,0.4,9-2.3,11.5-4.6c3.6-3.1,10.6-14,12.2-20.7
	l0.8-1.8c6.6,1.5,8.7,2.2,16.2,1.3l4.1-0.7c-0.9,7.1-10.8,14.5-15.7,19.3c-0.3,6.7,0.4,5.5,4.2,8.8c1.8,1.5,5.3,3.9,5.9,7.2
	c-7.2,3.7-11.6,5.1-16.5,11.5c-8.9,11.8-5.7,24.8,9.8,20.4c12.5-3.6,19.4-14.4,17.5-27.5l-1.7-5.7c3.7-2.4,7.5-8,9.4-12.5
	c1.1-2.1-0.3-0.8,1.5-1.3l0.8,1.8c5.8,11,14.3-1,17-6.7c1.4,11.6,8.5,16,16,6.3c2.5-3.2,4.2-6.7,6.1-10.2c0.7-1.4,1.1-2.4,1.7-3.9
	c1.1-2.5,2.6-5.7,3.2-8.4l-1.1-0.9c-2.7,5.6-8.3,24.6-16.2,24.3c-6.4-7.4,2.9-25.2,1.8-31.5c-1.2-0.4-3.3-1.1-5-1
	c-2.8,0.1-3.3,1.8-3.5,1.5c-0.1-0.1-0.3,0.2-0.4,0.3c-1.8-3.5-6-3.3-10-1.7c-14,5.6-11.2,25.5-12.3,27.4c-0.9,4-6.1,12.7-10,14.1
	c-2.8-3.2-6.7-7-10.4-8.9c0.5-2.1,1.8-2.6,3.4-3.9c1.5-1.3,2.1-1.9,3.7-3.8c1.2-1.4,2.4-2.7,3.4-4.1c3-4,7.2-11.1,4.8-16
	c-2.9-5.9-16.3,3.6-24.5-3.4c1.1-5.8,1.8-12.4-6-11.8c-2,1.9-3.3,3.6-3.5,7.4c-0.4,8.9,4.2,7.5,5,13.4l-5.1,9
	c-9.5,18.3-24.4,13.5-23,0.7c3.3-1.2,5.7-0.9,8.9-2.8c14-8.3,8.6-25.4-4.2-19.8c-5.8,2.6-8.2,8.2-10.4,14.9
	c-0.5,2.7-0.5,7.6-1.3,9.6c-0.4,0.9-1.4,2.1-2.1,2.9c-2.1,2.5-3.4,5.3-6.9,4.8c-0.5-3.9,0.1-7.5,0.7-11.1c0.5-3.1,2.3-8.4,2.1-11
	c-2.8-0.1-5-1.1-8.6-0.4l-2.8,5.5c-1,4.3-10.1,21.4-13.6,18.3c-2.7-2.4,4-23.9,4.8-30.6c-3.8-1-8.3-2.4-9.2,1
	c-0.1,0.5-0.1,0.6-0.2,1.1L255.4,90.3z M301.4,96.8c-1.5,0.5-0.6,0.2-2,0.3c0.4-5.7,7-19.8,14.1-13.7c1.2,4.4-0.6,7.2-2.9,9
	C308.6,94.1,304,96.1,301.4,96.8z M339.9,129.1c5.2-2.6,4.8-1.9,5.7,3.3c0.1,0.7,0.1,2.4,0,3.1c-0.1,1.8-0.3,3.2-0.7,4.9
	c-1.2,5.4-4.1,10.4-9.1,13.3C321,162.1,318.4,139.7,339.9,129.1z"/>

<g>
	<defs>
		<path id="SVGID_1_" d="M329,80c-1.4-0.9-6.5-7.6-3.3-9.4C328.3,69.3,330.7,76.6,329,80 M379.2,101.2c-3.5,13-10.4,11.2-10.7-0.3
			c0-0.6,0-1.9,0-2.6c0.4-3.9,1.4-8.5,3.4-12c1.8-3.2,3.5-5.1,8.5-4.8C385.3,83.7,379.9,99.8,379.2,101.2z M201.9,79.7
			c-2.9-1-4.1-3.5-5.4-6.5c-4-9.2,5.7-11.2,6.5-2.3C203.2,73.8,203,77.4,201.9,79.7z M241.3,117.1c0.2-1.1,0.3-2,0.5-3.1
			c0.5-2.8,0.4-2.3,1.4-3.4c2.4,7.2,4.6,17.3,0.5,25.1C237.9,146.9,241.2,117.7,241.3,117.1z M77.2,113.3l0.7,0.8
			c1.7-0.1,3.3,0.6,5.3,0.1c2.2-0.6,1.9-1.7,2.6-3.5c1.2-7,6.7-20.2,9.6-26c3-6.1,8.3-18.7,16.4-17.3c4.2,4.7,1.2,13.3-0.4,18.3
			c-1.2,4.1-5,13.6-5.3,16.6c5.4,2.8,8.2,1.9,10-3.2c2.1-6,13.8-39.2,22.7-37.6c4.1,7.9-11.1,41.4-9.7,57.3
			c3.8,18.4,21.5-4.5,25-10.9c1-1.3,0.3-0.4,0.9-1.1c1.2,1.9,1.6,3.7,2.9,5.3c0.8,1.1,1,1.2,2.3,2c3.1,2.1,6.4,1.9,9.1-1
			c1-1.1,2.7-3.7,3.3-5.7l1.1-3.1c0.6,0.9,0-0.8,0.7,1.4c0.2,0.7,0.1,1.1,0.2,1.7c0.7,7,7.6,13.1,15,4.2c4.5-5.4,9.8-16.6,11.6-23.8
			l4.2,0.7c-0.4,2.3-2.5,7.4-3.5,9.6c-1.2,5.2-2.9,9.2-3.4,15.1c-0.3,3-0.3,6.2,0.5,9.1c2.3,7.7,10.2,8,14.7,1.1
			c2.2-3.3,3.6-8.8,5.5-11.3c3.6,2.8,9.8,7.1,14.3-1.7l1.4-3.4c0.8,1.4,0.6-1.7,0.6,1.4c-0.1,6.3-4.6,16.8-2.8,25.8
			c2,9.6,10.5,9.5,14.1,0.3c2.8-7.4,1.8-17.6-0.9-24.7c-1.9-5-2.6-4-1.1-10.1c0.7-2.9,2.6-9.4,2.6-12l-1.9-1l-6.8-0.1
			c-1.5,4.1-1.2,10.2-2.8,14.5c-6.5,17.4-14.2,8.1-7.8-10.3c1-2.7,2.8-6.1,4.4-8.1c6.4-8.1,7.5-2.3,9.9-0.6
			c3.9-7.6-8.9-5.5-12.3-3.7c-7.3,3.8-11.7,12.5-12.7,20.4c-1.2,9.1,3.5,6.6-2.9,19.5c-6.1,12.3-11.8,4.3-4-20.2
			c1-3,4.4-8.8,3.8-11.6c-0.4-1.8-2-3.2-3.6-3.8c-2-0.7-3-0.2-5-0.6c-5.2-1.1,6.6-21.7-9.7-18.6c-4.4,2.4-4,6.1-2.5,13.1
			c0.4,1.9,1.4,4,2.5,5.6c1.4,2.1,2.2,3.3,4.1,3.7c-0.4,5.5-9.4,26.2-16.2,25.7c-3.9-4.7-1.3-18,0.5-24.6c0-0.1,0.5-1.4,0.5-1.5
			c1.1-2.5,2.5-5.1-1.3-6.1c-1-0.3-3.2-0.5-4.2-0.2c-2.4,0.7-0.4-0.4-1.9,1.7c-4.9-3.9-8.8-3.8-14,0c-11.1,8.2-6.2,17.4-10.4,24.6
			c-1.4,2.3-13.8,21.7-15.9,12.5c-0.6-2.6,1.2-10.2,1.8-12.8c3.4-13.2,8.8-27.8,8.4-41.5l-0.7-3.4c-4.8-6.1-8.3-5.2-13,0.3
			c-0.6,0.7-1,1-1.5,1.6c-0.9,1.1-1.4,2-2.5,3.5c-2,3.1-3.6,5.9-5.4,9.2c-1.6,3-2.8,6.9-4.9,9.4c0.9-7.6,5.1-17.3-2.5-21.8
			c-16.6-2-21.8,20.1-26.3,25.9c0.4-4.1,6.1-22.9,8.2-29.1c0,0,0.6-2,0.6-2c0.3-2.8,0-1.1-0.4-2C98,54.5,87,53.8,80,60
			c-3.5,3.2-7.9,10.3-6.7,17.8c5.5,0.7,4.9,0.3,5.3-4.3c0.5-6.1,4.5-15.4,12.3-15C90.7,67,74.4,109.3,77.2,113.3z M175.1,95.8
			c-4.1,19.8-13,17.7-12.1,2.5c0.1-2.6,0.5-4.8,1.2-7.2c3.3-11.5,14.3-13.3,12.3-2.7C176,90.8,175.5,93.5,175.1,95.8z M254.4,89.3
			c-1.4,6.9-6,25,3.1,26c5.8,0.6,11.2-8.2,13.6-12.7l3-5.3c0.1-0.1,0.2-0.2,0.3-0.4c-0.3,10.4,0.6,22.8,13.3,12
			c2.2-1.9,2.3-3.8,4-5.7c0.2,0.1,0.4,0.1,0.5,0.3c0,0.3,0.3,1,0.3,1.2c1.4,5.8,3.5,10.4,10.5,10.9c5.2,0.4,9-2.3,11.5-4.6
			c3.6-3.1,10.6-14,12.2-20.7l0.8-1.8c6.6,1.5,8.7,2.2,16.2,1.3l4.1-0.7c-0.9,7.1-10.8,14.5-15.7,19.3c-0.3,6.7,0.4,5.5,4.2,8.8
			c1.8,1.5,5.3,3.9,5.9,7.2c-7.2,3.7-11.6,5.1-16.5,11.5c-8.9,11.8-5.7,24.8,9.8,20.4c12.5-3.6,19.4-14.4,17.5-27.5l-1.7-5.7
			c3.7-2.4,7.5-8,9.4-12.5c1.1-2.1-0.3-0.8,1.5-1.3l0.8,1.8c5.8,11,14.3-1,17-6.7c1.4,11.6,8.5,16,16,6.3c2.5-3.2,4.2-6.7,6.1-10.2
			c0.7-1.4,1.1-2.4,1.7-3.9c1.1-2.5,2.6-5.7,3.2-8.4l-1.1-0.9c-2.7,5.6-8.3,24.6-16.2,24.3c-6.4-7.4,2.9-25.2,1.8-31.5
			c-1.2-0.4-3.3-1.1-5-1c-2.8,0.1-3.3,1.8-3.5,1.5c-0.1-0.1-0.3,0.2-0.4,0.3c-1.8-3.5-6-3.3-10-1.7c-14,5.6-11.2,25.5-12.3,27.4
			c-0.9,4-6.1,12.7-10,14.1c-2.8-3.2-6.7-7-10.4-8.9c0.5-2.1,1.8-2.6,3.4-3.9c1.5-1.3,2.1-1.9,3.7-3.8c1.2-1.4,2.4-2.7,3.4-4.1
			c3-4,7.2-11.1,4.8-16c-2.9-5.9-16.3,3.6-24.5-3.4c1.1-5.8,1.8-12.4-6-11.8c-2,1.9-3.3,3.6-3.5,7.4c-0.4,8.9,4.2,7.5,5,13.4l-5.1,9
			c-9.5,18.3-24.4,13.5-23,0.7c3.3-1.2,5.7-0.9,8.9-2.8c14-8.3,8.6-25.4-4.2-19.8c-5.8,2.6-8.2,8.2-10.4,14.9
			c-0.5,2.7-0.5,7.6-1.3,9.6c-0.4,0.9-1.4,2.1-2.1,2.9c-2.1,2.5-3.4,5.3-6.9,4.8c-0.5-3.9,0.1-7.5,0.7-11.1c0.5-3.1,2.3-8.4,2.1-11
			c-2.8-0.1-5-1.1-8.6-0.4l-2.8,5.5c-1,4.3-10.1,21.4-13.6,18.3c-2.7-2.4,4-23.9,4.8-30.6c-3.8-1-8.3-2.4-9.2,1
			c-0.1,0.5-0.1,0.6-0.2,1.1L254.4,89.3z M300.4,95.8c-1.5,0.5-0.6,0.2-2,0.3c0.4-5.7,7-19.8,14.1-13.7c1.2,4.4-0.6,7.2-2.9,9
			C307.6,93.1,303,95.1,300.4,95.8z M338.9,128.1c5.2-2.6,4.8-1.9,5.7,3.3c0.1,0.7,0.1,2.4,0,3.1c-0.1,1.8-0.3,3.2-0.7,4.9
			c-1.2,5.4-4.1,10.4-9.1,13.3C320,161.1,317.4,138.7,338.9,128.1z"/>
	</defs>
	<clipPath id="SVGID_2_">
		<use xlink:href="#SVGID_1_"  style="overflow:visible;"/>
	</clipPath>
	<linearGradient id="SVGID_3_" gradientUnits="userSpaceOnUse" x1="239.5684" y1="51.7998" x2="239.5684" y2="164.2798">
		<stop  offset="0" style="stop-color:#68421D"/>
		<stop  offset="0.43" style="stop-color:#D59647"/>
		<stop  offset="0.54" style="stop-color:#DAA563"/>
		<stop  offset="0.68" style="stop-color:#E0B580"/>
		<stop  offset="0.75" style="stop-color:#DAA563"/>
		<stop  offset="0.82" style="stop-color:#D59647"/>
		<stop  offset="0.9" style="stop-color:#9E6C32"/>
		<stop  offset="1" style="stop-color:#68421D"/>
	</linearGradient>
	<rect x="72.1" y="53.8" class="marqueza-FullColor" width="334.9" height="107.3"/>
</g>
<path class="marqueza-LogoL" d="M329,80c-1.4-0.9-6.5-7.6-3.3-9.4C328.3,69.3,330.7,76.6,329,80z M379.2,101.2c-3.5,13-10.4,11.2-10.7-0.3
	c0-0.6,0-1.9,0-2.6c0.4-3.9,1.4-8.5,3.4-12c1.8-3.2,3.5-5.1,8.5-4.8C385.3,83.7,379.9,99.8,379.2,101.2z M201.9,79.7
	c-2.9-1-4.1-3.5-5.4-6.5c-4-9.2,5.7-11.2,6.5-2.3C203.2,73.8,203,77.4,201.9,79.7z M241.3,117.1c0.2-1.1,0.3-2,0.5-3.1
	c0.5-2.8,0.4-2.3,1.4-3.4c2.4,7.2,4.6,17.3,0.5,25.1C237.9,146.9,241.2,117.7,241.3,117.1z M77.2,113.3l0.7,0.8
	c1.7-0.1,3.3,0.6,5.3,0.1c2.2-0.6,1.9-1.7,2.6-3.5c1.2-7,6.7-20.2,9.6-26c3-6.1,8.3-18.7,16.4-17.3c4.2,4.7,1.2,13.3-0.4,18.3
	c-1.2,4.1-5,13.6-5.3,16.6c5.4,2.8,8.2,1.9,10-3.2c2.1-6,13.8-39.2,22.7-37.6c4.1,7.9-11.1,41.4-9.7,57.3c3.8,18.4,21.5-4.5,25-10.9
	c1-1.3,0.3-0.4,0.9-1.1c1.2,1.9,1.6,3.7,2.9,5.3c0.8,1.1,1,1.2,2.3,2c3.1,2.1,6.4,1.9,9.1-1c1-1.1,2.7-3.7,3.3-5.7l1.1-3.1
	c0.6,0.9,0-0.8,0.7,1.4c0.2,0.7,0.1,1.1,0.2,1.7c0.7,7,7.6,13.1,15,4.2c4.5-5.4,9.8-16.6,11.6-23.8l4.2,0.7
	c-0.4,2.3-2.5,7.4-3.5,9.6c-1.2,5.2-2.9,9.2-3.4,15.1c-0.3,3-0.3,6.2,0.5,9.1c2.3,7.7,10.2,8,14.7,1.1c2.2-3.3,3.6-8.8,5.5-11.3
	c3.6,2.8,9.8,7.1,14.3-1.7l1.4-3.4c0.8,1.4,0.6-1.7,0.6,1.4c-0.1,6.3-4.6,16.8-2.8,25.8c2,9.6,10.5,9.5,14.1,0.3
	c2.8-7.4,1.8-17.6-0.9-24.7c-1.9-5-2.6-4-1.1-10.1c0.7-2.9,2.6-9.4,2.6-12l-1.9-1l-6.8-0.1c-1.5,4.1-1.2,10.2-2.8,14.5
	c-6.5,17.4-14.2,8.1-7.8-10.3c1-2.7,2.8-6.1,4.4-8.1c6.4-8.1,7.5-2.3,9.9-0.6c3.9-7.6-8.9-5.5-12.3-3.7
	c-7.3,3.8-11.7,12.5-12.7,20.4c-1.2,9.1,3.5,6.6-2.9,19.5c-6.1,12.3-11.8,4.3-4-20.2c1-3,4.4-8.8,3.8-11.6c-0.4-1.8-2-3.2-3.6-3.8
	c-2-0.7-3-0.2-5-0.6c-5.2-1.1,6.6-21.7-9.7-18.6c-4.4,2.4-4,6.1-2.5,13.1c0.4,1.9,1.4,4,2.5,5.6c1.4,2.1,2.2,3.3,4.1,3.7
	c-0.4,5.5-9.4,26.2-16.2,25.7c-3.9-4.7-1.3-18,0.5-24.6c0-0.1,0.5-1.4,0.5-1.5c1.1-2.5,2.5-5.1-1.3-6.1c-1-0.3-3.2-0.5-4.2-0.2
	c-2.4,0.7-0.4-0.4-1.9,1.7c-4.9-3.9-8.8-3.8-14,0c-11.1,8.2-6.2,17.4-10.4,24.6c-1.4,2.3-13.8,21.7-15.9,12.5
	c-0.6-2.6,1.2-10.2,1.8-12.8c3.4-13.2,8.8-27.8,8.4-41.5l-0.7-3.4c-4.8-6.1-8.3-5.2-13,0.3c-0.6,0.7-1,1-1.5,1.6
	c-0.9,1.1-1.4,2-2.5,3.5c-2,3.1-3.6,5.9-5.4,9.2c-1.6,3-2.8,6.9-4.9,9.4c0.9-7.6,5.1-17.3-2.5-21.8c-16.6-2-21.8,20.1-26.3,25.9
	c0.4-4.1,6.1-22.9,8.2-29.1c0,0,0.6-2,0.6-2c0.3-2.8,0-1.1-0.4-2C98,54.5,87,53.8,80,60c-3.5,3.2-7.9,10.3-6.7,17.8
	c5.5,0.7,4.9,0.3,5.3-4.3c0.5-6.1,4.5-15.4,12.3-15C90.7,67,74.4,109.3,77.2,113.3z M175.1,95.8c-4.1,19.8-13,17.7-12.1,2.5
	c0.1-2.6,0.5-4.8,1.2-7.2c3.3-11.5,14.3-13.3,12.3-2.7C176,90.8,175.5,93.5,175.1,95.8z M254.4,89.3c-1.4,6.9-6,25,3.1,26
	c5.8,0.6,11.2-8.2,13.6-12.7l3-5.3c0.1-0.1,0.2-0.2,0.3-0.4c-0.3,10.4,0.6,22.8,13.3,12c2.2-1.9,2.3-3.8,4-5.7
	c0.2,0.1,0.4,0.1,0.5,0.3c0,0.3,0.3,1,0.3,1.2c1.4,5.8,3.5,10.4,10.5,10.9c5.2,0.4,9-2.3,11.5-4.6c3.6-3.1,10.6-14,12.2-20.7
	l0.8-1.8c6.6,1.5,8.7,2.2,16.2,1.3l4.1-0.7c-0.9,7.1-10.8,14.5-15.7,19.3c-0.3,6.7,0.4,5.5,4.2,8.8c1.8,1.5,5.3,3.9,5.9,7.2
	c-7.2,3.7-11.6,5.1-16.5,11.5c-8.9,11.8-5.7,24.8,9.8,20.4c12.5-3.6,19.4-14.4,17.5-27.5l-1.7-5.7c3.7-2.4,7.5-8,9.4-12.5
	c1.1-2.1-0.3-0.8,1.5-1.3l0.8,1.8c5.8,11,14.3-1,17-6.7c1.4,11.6,8.5,16,16,6.3c2.5-3.2,4.2-6.7,6.1-10.2c0.7-1.4,1.1-2.4,1.7-3.9
	c1.1-2.5,2.6-5.7,3.2-8.4l-1.1-0.9c-2.7,5.6-8.3,24.6-16.2,24.3c-6.4-7.4,2.9-25.2,1.8-31.5c-1.2-0.4-3.3-1.1-5-1
	c-2.8,0.1-3.3,1.8-3.5,1.5c-0.1-0.1-0.3,0.2-0.4,0.3c-1.8-3.5-6-3.3-10-1.7c-14,5.6-11.2,25.5-12.3,27.4c-0.9,4-6.1,12.7-10,14.1
	c-2.8-3.2-6.7-7-10.4-8.9c0.5-2.1,1.8-2.6,3.4-3.9c1.5-1.3,2.1-1.9,3.7-3.8c1.2-1.4,2.4-2.7,3.4-4.1c3-4,7.2-11.1,4.8-16
	c-2.9-5.9-16.3,3.6-24.5-3.4c1.1-5.8,1.8-12.4-6-11.8c-2,1.9-3.3,3.6-3.5,7.4c-0.4,8.9,4.2,7.5,5,13.4l-5.1,9
	c-9.5,18.3-24.4,13.5-23,0.7c3.3-1.2,5.7-0.9,8.9-2.8c14-8.3,8.6-25.4-4.2-19.8c-5.8,2.6-8.2,8.2-10.4,14.9
	c-0.5,2.7-0.5,7.6-1.3,9.6c-0.4,0.9-1.4,2.1-2.1,2.9c-2.1,2.5-3.4,5.3-6.9,4.8c-0.5-3.9,0.1-7.5,0.7-11.1c0.5-3.1,2.3-8.4,2.1-11
	c-2.8-0.1-5-1.1-8.6-0.4l-2.8,5.5c-1,4.3-10.1,21.4-13.6,18.3c-2.7-2.4,4-23.9,4.8-30.6c-3.8-1-8.3-2.4-9.2,1
	c-0.1,0.5-0.1,0.6-0.2,1.1L254.4,89.3z M300.4,95.8c-1.5,0.5-0.6,0.2-2,0.3c0.4-5.7,7-19.8,14.1-13.7c1.2,4.4-0.6,7.2-2.9,9
	C307.6,93.1,303,95.1,300.4,95.8z M338.9,128.1c5.2-2.6,4.8-1.9,5.7,3.3c0.1,0.7,0.1,2.4,0,3.1c-0.1,1.8-0.3,3.2-0.7,4.9
	c-1.2,5.4-4.1,10.4-9.1,13.3C320,161.1,317.4,138.7,338.9,128.1z"/>
<path class="marqueza-1B" d="M161.9,135.2h4.6c4.3,0,4.7,5.9,0,5.8h-4.3h4.3c4.3,0.1,5.4,6,0,6h-4.6V135.2z"/>
<polyline class="marqueza-2E" points="181.5,146.9 174.3,146.9 174.3,135.2 181.4,135.2 "/>
<line class="marqueza-2E" x1="174.3" y1="140.7" x2="179.8" y2="140.7"/>
<polyline class="marqueza-3A" points="193.1,147.6 188.5,135.4 183.9,147.6 "/>
<line class="marqueza-3A" x1="185.8" y1="142.9" x2="191.3" y2="142.9"/>
<path class="marqueza-4U" d="M195.5,135.2v8.2c0,5.4,8.3,4.9,8.3-0.1v-8"/>
<polyline class="marqueza-6Y" points="218.4,134.9 222.4,141 226.6,134.8 "/>
<line class="marqueza-6Y" x1="222.4" y1="147.4" x2="222.4" y2="141"/>
<line class="marqueza-5T" x1="207" y1="135.1" x2="216.5" y2="135.1"/>
<line class="marqueza-5T" x1="211.7" y1="135.4" x2="211.7" y2="147.2"/>
<line class="marqueza-11I" x1="300.9" y1="135.4" x2="300.9" y2="147.2"/>
<line class="marqueza-8T" x1="261.9" y1="135.1" x2="271.5" y2="135.1"/>
<line class="marqueza-8T" x1="266.7" y1="135.4" x2="266.7" y2="147.2"/>
<path class="marqueza-10D" d="M287.6,135.2h4.1c6-0.3,6.1,11.5,0,11.8h-4.1V135.2z"/>
<ellipse class="marqueza-12O" cx="310.1" cy="141.1" rx="4.7" ry="6.2"/>
<path class="marqueza-9U" d="M282.8,135.2v8.2c0,4.8-8.4,5.2-8.4,0v-8.2"/>
<path class="marqueza-7S" d="M259,137.1c-3.1-5.5-11,1-3.5,3.9c8.8,2.5,0.2,10.5-3.9,3.5"/>
<path class="marqueza-A1" d="M0,33.3l137.5-0.3c15.5-49.1,64.5,11.4,85,11.5c7.7,0,14.1-4,16.8-13c3.8-12.7-9-21.6-16.3-15.4
	c-6,5.1-2.4,13.7,5.6,11.7"/>
<path class="marqueza-AC" d="M228.1,22c1.7,0,3.1,1.5,3.1,3.3c0,1.8-1.4,3.3-3.1,3.3s-3.1-1.5-3.1-3.3C225,23.5,226.4,22,228.1,22"/>
<path class="marqueza-A2" d="M480,33.3l-137.5-0.3c-15.5-49.1-64.5,11.4-85,11.5c-7.7,0-14.1-4-16.8-13c-3.8-12.7,9-21.6,16.3-15.4
	c6,5.1,2.4,13.7-5.6,11.7"/>
<path class="marqueza-AC" d="M251.9,22c-1.7,0-3.1,1.5-3.1,3.3c0,1.8,1.4,3.3,3.1,3.3s3.1-1.5,3.1-3.3C255,23.5,253.6,22,251.9,22"/>


<g>
	<defs>
		<path id="SVGID_1_Adorno" d="M168,198c-0.3,0-0.6,0-0.9-0.1c0-0.3-0.1-0.6-0.1-0.9C167.2,197.4,167.6,197.7,168,198 M308.3,190.9
			c0,0.3,0,0.6-0.1,0.9c-0.3,0-0.6,0.1-0.9,0.1C307.8,191.6,308.1,191.3,308.3,190.9z M265.2,218.4c-0.2,0.2-0.3,0.5-0.5,0.7
			c-0.3-0.1-0.5-0.2-0.8-0.3C264.3,218.8,264.7,218.7,265.2,218.4z M214,220.9c-0.3,0.2-0.7,0.3-1,0.5c-0.2-0.3-0.5-0.6-0.7-0.9
			C212.8,220.8,213.4,220.9,214,220.9z M174.8,189.6c-2.8,0.3-4.3,4-2.4,3.4C173.7,192.5,174.7,191.2,174.8,189.6z M172.4,192.2
			c0.2-0.5,0.6-0.9,1.1-1.2C173.2,191.5,172.8,192,172.4,192.2z M299.9,184.2c0.3,2.7,4,4.2,3.4,2.4
			C302.8,185.3,301.5,184.3,299.9,184.2z M302.5,186.6c-0.5-0.2-0.9-0.6-1.2-1.1C301.8,185.8,302.2,186.1,302.5,186.6z M261.2,208.5
			c-1.1,2.5,1.4,5.6,1.7,3.8C263.2,210.8,262.6,209.3,261.2,208.5z M262.3,211.8c-0.3-0.5-0.5-1-0.5-1.5
			C262.1,210.8,262.3,211.3,262.3,211.8z M215.5,210.5c-2.3,1.6-1.7,5.6-0.4,4.1C216,213.5,216.2,211.9,215.5,210.5z M214.7,213.9
			c0-0.5,0.1-1.1,0.3-1.6C215.1,212.9,214.9,213.4,214.7,213.9z M272.4,204.7c3.2-1.5,5.8-4.8,6.7-10.6c5.7,1.7,9.8,0.7,12.5-1.5
			c3.6,0.8,6.6,1.3,9.1,1.4c-3.8,1.5-7.4,5-9.8,11.9c-2.9,8.6-2.1,1.7-13.9,4.1c-2.7,0.4-5.3,1.6-7.2,3.5
			C270.8,211.1,271.6,208.2,272.4,204.7z M227,212.7c3.5,0.3,7.5-1.3,11.2-5.9c4.1,4.2,8.2,5.4,11.6,4.8c2.7,2.4,5.1,4.4,7.2,5.7
			c-4-0.6-9,0.7-14.5,5.5c-4.9,4.3-1.9,4.3-7.3,0.3c-5.7-4.2-10.9-5.1-14.9-4.2C222.4,217.4,224.6,215.3,227,212.7z M183.7,197.3
			c2.9,2,7.1,2.6,12.7,0.4c1.4,5.7,4.3,8.7,7.6,9.9c1.1,3.5,2.2,6.3,3.3,8.5c-3.2-2.5-8.2-3.8-15.3-2.4c-6.4,1.3-3.8,2.8-6.4-3.3
			c-2.8-6.4-6.8-9.8-10.7-11C177.2,199.1,180.2,198.3,183.7,197.3z M203.4,205.9c-2.7-1.5-5.1-4.5-6.2-9.9c-5.1,2.2-9,2-11.8,0.7
			c4-1.3,8.6-2.9,13.9-4.8C200.9,197.4,202.2,202,203.4,205.9z M248.5,210.5c-3.1,0.1-6.7-1.4-10.4-5.5c-3.3,4.4-6.7,6.2-9.8,6.4
			c2.8-3,6-6.7,9.6-11C242,204.3,245.5,207.7,248.5,210.5z M289.9,192.2c-2.7,1.6-6.5,2.1-11.8,0.3c-0.6,5.4-2.7,8.7-5.3,10.4
			c0.9-4,1.8-8.7,2.8-14.2C281.1,190.1,285.8,191.3,289.9,192.2z M182.6,196.4c-4.2,1-8.4,1.7-12.8,1.6c-0.7-0.3-1.3-0.6-1.9-1
			c-0.4-0.5-0.8-1.1-1.2-1.8c-0.4-4.3-0.2-8.5,0.5-12.7c3.3,3,8.4,3.7,12,2.2C178.1,188.4,179.2,193.4,182.6,196.4z M225.6,212.5
			c-3.1,3-6.5,5.7-10.3,7.8c-1.3,0.2-2.6,0-3.8-0.7c-2.6-3.5-4.6-7.4-6.2-11.5c4.4,1,9.2-0.9,11.5-4
			C217.7,207.8,221.2,211.5,225.6,212.5z M271.1,205.2c-1.2,4.1-2.7,8-5,11.7c-0.6,0.4-1.2,0.9-1.8,1.1c-0.7,0.1-1.4,0.1-2.2,0.1
			c-4-1.8-7.5-4.1-10.9-6.8c4.3-1.3,7.5-5.3,8-9.1C261.8,205,266.7,206.6,271.1,205.2z M306.8,176.5c1.1,4.1,1.7,8.3,1.7,12.6
			c-0.3,0.7-0.6,1.3-1,1.9c-0.5,0.4-1.2,0.8-1.8,1.1c-4.3,0.4-8.6,0.2-12.9-0.5c3.1-3.3,3.8-8.3,2.3-11.8
			C298.6,180.9,303.7,179.9,306.8,176.5z M188,178.5c-1.1,0-2.4,0.3-3.7,0.9c0.5-1.4,0.7-2.6,0.6-3.7c0.6,0.4,1.3,0.7,2.1,0.8
			C187.2,177.3,187.6,178,188,178.5z M288.6,171.2c0,1.1,0.3,2.3,0.9,3.6c-1.4-0.5-2.6-0.7-3.7-0.6c0.4-0.6,0.7-1.2,0.9-2
			C287.4,172,288,171.6,288.6,171.2z M258,191.6c-0.6,1-0.9,2.1-1.1,3.6c-0.9-1.1-1.9-1.9-3-2.3c0.6-0.3,1.2-0.8,1.8-1.3
			C256.6,191.7,257.4,191.7,258,191.6z M221.2,194.3c-1,0.6-1.9,1.4-2.7,2.6c-0.2-1.4-0.7-2.6-1.4-3.5c0.7,0,1.4-0.1,2.2-0.3
			C220,193.7,220.6,194,221.2,194.3z M212.4,177c6.8-2.4,15.1-0.6,20.2,4.4c-2.9-2.3-6.7-3.1-10.3-1.5
			C219.8,177,216,176.1,212.4,177z M266.2,176.5c-9.1-6.9-24.1-2.2-27.6,8.5c-0.7,1.4-1,2.5-1.2,3.3c-0.2-0.8-0.7-1.9-1.5-3.2
			c-4.4-10.5-19.7-13.8-28.2-6.2c-1.3,0.9-2.1,1.6-2.7,2.3c0.2-0.8,0.3-2,0.3-3.5c0.4-2.9-0.1-5.6-1.1-8.2h-1c0.5,1,0.9,2.1,1.2,3.2
			c-0.5-1.2-1.2-2.3-2-3.2h-1.8c4.7,3.8,5.6,12.7-0.4,17.9c1.6-1.2,2.5-2.1,3-2.8c-0.3,0.8-0.6,2.1-0.6,4
			c1.1-10.2,14.4-14.7,19.3-7.2c7.7-4.7,17.8,4.7,14.5,14.5c0.8-1.8,1.1-3.1,1.2-3.9c0.2,0.8,0.6,2.1,1.5,3.8
			c-4.2-9.4,5-19.8,13.1-15.7c4.3-7.8,17.8-4.7,19.9,5.5c-0.3-1.9-0.6-3.2-1-4c0.6,0.6,1.6,1.5,3.2,2.6c-5.1-3.7-6.1-10-4.1-14.6
			H269c-0.1,0.1-0.1,0.3-0.1,0.4c0-0.1,0.1-0.3,0.1-0.4h-0.8c-0.2,1.8-0.2,3.6,0.2,5.4c0.1,1.5,0.4,2.6,0.6,3.5
			C268.4,178,267.5,177.3,266.2,176.5z M241.6,181c4.7-5.5,12.8-8,19.8-6.1c-3.7-0.5-7.4,0.7-9.7,3.8
			C248,177.3,244.3,178.5,241.6,181z M272.5,183.9c4.8,2.4,0.6-1.5-0.3,2.4C272.4,185.5,272.5,184.7,272.5,183.9z M237.7,194.7
			c2.9,4.5,1.3-1-1.4,1.9C236.8,196.1,237.3,195.4,237.7,194.7z M202,187c0.3,5.3,1.6-0.2-2.2,0.9C200.6,187.7,201.4,187.4,202,187z
			 M211,169.7c0,0.1,0,0.2,0,0.2c0.2-0.1,0.3-0.2,0.5-0.2H211z M234.2,169.7c0.2,1.9,0.9,3.9,2.6,5.9c1.4-1.9,2.1-3.9,2.1-5.9h-1.3
			c0,2.9-1,5-2,0.8c-0.1-0.3-0.1-0.5-0.1-0.8H234.2z M215.2,173.6c0.5-0.1,1.1-0.2,1.8-0.3c5-0.8,8.4-1.1,14.4,3.8
			c-4.6-3.4-10.8-4.8-16.4-3.4L215.2,173.6z M267.3,169.7c-0.1,2.4-0.2,4.3,0.4,6.8c-2.9-2.2-5.1-2.7-9.1-4.6
			c-6-0.6-13.1,1.7-17.4,5.9c4.2-4.6,10.8-6.8,16.9-6c-7.8-1.3-10.5,0.6-14.4,3.8c-1.1,0.9-1.8,1.4-2.3,1.8
			c-0.8,1.6-1.6,3.3-2.7,5.2c-2.4,4.5-0.4,4.4-3.2,0.1c-1.1-1.6-2-3.1-2.8-4.4c-0.1-0.1-0.2-0.1-0.2-0.2l0.2,0.2
			c-4.5-3.7-11.8-5.6-17.9-4.4c-3.7,2.2-6,2.9-8.6,5.3c0.5-3.4-0.2-5.5-0.5-9.5h1c0.1,2.2,0.4,4.2,0.4,5.8c0,2.7-0.6,2.4,1.7,0.8
			c2.1-1.4,6.4-3.5,10.3-6.7h1.8c-1,0.9-2.2,1.8-3.6,2.7c-0.5,0.3-1,0.6-1.4,0.9c2.5-0.5,6.2-1.1,8.3-1.2c3.8,2,6.8,4.3,8.3,5.6
			c-1.9-3.3-3.3-5.9-4.2-8h0.6c2,5.3,5.6,9.6,7.5,12.6c1.4,2.3,0.7,2.4,1.9-0.1c1.2-2.5,4.5-7.1,6.1-12.6h0.5
			c-0.7,2-1.7,4.4-3.1,7.3c1.7-1.5,5.5-4.6,7.6-6c3.3-0.1,6.4,0.2,8.4,0.5c-0.5-0.2-1-0.5-1.5-0.8c-0.6-0.3-1.2-0.7-1.8-1h2.1
			c3.2,1.8,6.3,3,8.4,4.2c2.4,1.3,1.8,1.7,1.6-1c-0.1-0.8-0.1-2-0.1-3.2H267.3z M131.2,169.7c1,0.7,2.4,0.8,4.1,0H131.2z
			 M190.1,169.7c0,0.2,0,0.4-0.1,0.6c-0.3-0.4-1-0.5-1.4,0c-0.6,0.9,0.8,1.8,1.4,0.9c0.2-0.3,0.2-0.6,0-0.8c0.1-0.2,0.2-0.5,0.2-0.7
			H190.1z M280,169.7c-0.1,0.3-0.1,0.7,0.3,1c0.7,0.5,1.5-0.3,1.2-1H280z M300.1,169.7c0.1,2.3-1.8,4.1-4,3.7
			c0.4-0.4,0.3-1.2-0.4-1.4c-1.1-0.3-1.5,1.3-0.4,1.6c0.3,0.1,0.6,0,0.8-0.2c2.3,0.6,4.4-1.3,4.5-3.8H300.1z M333.2,169.7
			c0.6,0.3,1.4,0.3,2.1,0H333.2z M185.9,217.5c7.3-1.5,10.5,1.9,10.2,5c-0.6,6.4-8.9,2.2-5.9-0.7c0.1,0.5,0.6,0.9,1.2,0.6
			c1-0.5,0.2-1.9-0.8-1.4c-0.3,0.2-0.5,0.5-0.4,0.8c-2.9,2.3,2,7.7,5.8,3.7c2.2-2.3,1.5-6-1-7.9c-2-1.6-4.5-1.7-6.2-1.6
			c25.7-7.2,26.2,18.3,13.5,15.8c-4.6-1-4.8-7-0.1-7.6c-0.2,0.5,0.4,1.3,1,0.9c0.9-0.5,0.2-1.7-0.7-1.3c-0.1,0.1-0.2,0.2-0.3,0.3
			c-12-0.4,2.9,17.1,8.8,3.9c0.8-1.8,0.8-4.3-0.1-6.7c1.2,0.8,2.4,1.1,3.8,0.9c-3.1,3-3.8,7.6-1.1,11c6.1,7.9,14.4-1.7,7.9-4.8
			c0-0.1-0.1-0.3-0.2-0.4c-0.6-0.8-1.8,0.1-1.2,0.9c0.5,0.6,1.3,0.2,1.3-0.4c6.6,3.8-4.9,12.5-8.2,2.1c-2.1-6.7,8.4-17.1,23.9-4
			c-9-4.6-13.9,4.9-8.8,8c2.8,1.8,6.1-0.9,5.1-3.2c0.2-0.2,0.2-0.6-0.1-0.9c-0.7-0.9-2,0.1-1.3,1c0.4,0.5,1,0.4,1.3,0
			c0.6,2.5-3.5,4.4-5.3,1.5c-2.4-3.8,2.7-9.8,11-3.7c5.5-4.9,10-3.5,11.4-0.7c2.7,5.9-6.5,6.3-5.5,2.3c0.3,0.4,1,0.4,1.3-0.1
			c0.6-0.9-0.8-1.8-1.4-0.8c-0.2,0.3-0.2,0.6,0,0.9c-1.3,3.4,5.6,5.7,6.9,0.3c0.7-3.1-1.7-5.9-4.9-6.3c-2.6-0.3-4.7,0.7-6.2,1.6
			c18.6-18.9,32,3,19.7,7c-4.5,1.4-7.7-3.7-3.9-6.5c0.1,0.6,1,0.9,1.4,0.3c0.5-0.8-0.8-1.6-1.3-0.8c-0.1,0.1-0.1,0.3-0.1,0.4
			c-10.5,5.6,11.2,13.4,9.6-1c-0.2-2-1.5-4.1-3.5-5.8c1.5,0.2,2.8-0.3,3.9-1.2c-4.3,13.6,17.8,13.2,12.7,4c-0.7-1.3-2-2.1-3.8-1.9
			c-0.1-0.1-0.2-0.2-0.3-0.3c-0.9-0.4-1.5,1-0.6,1.3c0.7,0.3,1.2-0.5,1-1c7.6,0.1,2.1,13.2-6,5.9c-5.2-4.7-1.6-19,18.6-15.2
			c-10.1,0.4-9.6,11.1-3.6,11.2c3.4,0.1,4.9-3.8,2.7-5.3c0-0.3-0.1-0.6-0.5-0.7c-1-0.4-1.7,1.1-0.7,1.5c0.6,0.2,1-0.1,1.1-0.6
			c1.8,1.9-0.8,5.5-3.8,3.9c-4-2.1-2.6-9.8,7.7-8.6c2.3-7,6.9-8,9.5-6.2c5.3,3.8-2.5,8.7-3.6,4.6c0.5,0.1,1.1-0.1,1.1-0.7
			c0-1.1-1.6-1.1-1.7,0c0,0.4,0.2,0.6,0.5,0.7c0.6,3.6,7.8,2.2,6.1-3.1c-0.9-3-4.5-4.3-7.4-3.1c-2.4,1-3.7,3-4.5,4.5
			c6.5-25.5,29.2-13.2,20.6-3.6c-3.2,3.5-8.6,0.6-6.7-3.7c0.4,0.5,1.3,0.3,1.3-0.4c0-1-1.5-1-1.5,0c0,0.2,0,0.3,0.1,0.4
			c-6.3,10,16.5,6.1,7.8-5.6c-1.2-1.6-3.4-2.9-6-3.3c1.3-0.6,2.2-1.5,2.7-2.8c1.2,4.1,4.8,7.1,9.1,6.5c10-1.3,5.6-13.1-0.3-9.2
			c-0.1-0.1-0.3-0.1-0.4-0.1c-1,0.1-0.8,1.6,0.2,1.4c0.8-0.1,0.8-1,0.3-1.4c6.6-3.7,8.5,10.4-2.3,8.1c-7-1.5-10.8-15.7,8.4-22.3
			c-8.6,5.3-2.7,14.3,2.6,11.5c3-1.5,2.3-5.7-0.3-5.9c-0.1-0.3-0.4-0.4-0.8-0.4c-1.1,0.1-0.9,1.7,0.2,1.6c0.6-0.1,0.8-0.6,0.7-1.1
			c2.5,0.7,2.1,5.1-1.3,5.3c-4.6,0.2-7.2-7.2,2.3-11.2c-0.3-1.3-0.4-2.5-0.4-3.6h-1.3c0,0.3,0,0.5,0,0.7c-0.1-0.2-0.1-0.5-0.2-0.7
			H325c1,3.3,1.2,1.8-4,4c-6.5,2.8-9.9,6.7-11.1,10.6c-0.4-2.4-1.1-5.3-2.2-8.8c1.1-1.5,1.8-3.5,1.8-5.8h-1.4c-0.1,1.5-0.4,2.9-1,4
			c-0.4-1.3-0.9-2.6-1.4-4h-1.1c0.6,1.7,1.2,3.5,1.7,5.3c-3.2,4.4-10.1,5.1-13.5,2.2c-3-2.5-3.6-5.1-3-7.2c0.1-0.1,0.1-0.2,0.2-0.3
			h-1.4c-0.7,0.7-1.7,1.3-3,1.6c-0.2,1.5-0.8,2.7-1.7,3.4c-0.6,0.3-1.2,0.6-1.6,1c-1.5,0.5-3.2,0.3-4.4-0.8
			c-1.8-1.7-1.3-4.2,0.2-5.2h-0.5c-1.1,0.8-1.7,2.3-1.2,4c0.6,2.2,2.7,3.3,4.9,3.2c-2.3,3.2-1.7,8.2,2.6,9.1c3.3,0.8,5.9-2,5-4.6
			c0.2-0.2,0.2-0.5,0.1-0.8c-0.4-1-1.9-0.5-1.6,0.6c0.3,0.7,1,0.7,1.4,0.2c0.7,2.5-1.9,4.9-4.8,4c-4.6-1.3-3.9-6.5-0.9-9
			c0.6-0.2,1.1-0.5,1.6-1c2.1-0.8,4.7-0.4,7.5,2.3c3.2,3.1,3.2,9.9-1,13.5c-3.3-0.6-6.6-1.4-9.9-2.4c-8.1-2.3-6.3-3-7.6,4.8
			c-0.5,3.3-1.2,6.6-2,9.9c-5.1,2.2-11.3-0.6-12.8-4.8c-1.3-3.6-0.5-6.2,1-7.7c0.6-0.3,1.1-0.6,1.6-1.1c3.6-1.7,8.7,0,7.9,4.6
			c-0.4,2.9-3.7,4.3-5.7,2.6c0.5-0.2,0.9-0.9,0.4-1.4c-0.8-0.8-1.9,0.4-1.2,1.2c0.2,0.2,0.5,0.3,0.7,0.2c2,2,5.6,0.8,6.3-2.5
			c0.9-4.2-3.5-6.8-7.3-6.2c1-1.9,0.8-4.3-0.9-5.8c-2.4-2-5.7-0.7-5.8,1.8c-0.2,0.1-0.4,0.4-0.3,0.8c0.1,1.1,1.8,0.9,1.6-0.2
			c-0.1-0.7-0.8-0.8-1.2-0.6c0.4-3,5.1-3.1,6.2,0.2c0.5,1.5,0,3.2-1.1,4.3c-0.6,0.3-1.1,0.6-1.6,1.1c-1.1,0.4-2.4,0.5-3.9,0
			c-0.9,1.2-2.1,1.9-3.2,2.2c-0.7-0.1-1.3-0.1-1.9,0.1c-1.6-0.3-2.9-1.3-3.4-2.9c-1-3.3,2.9-5.8,5-3.6c-0.5,0.1-1,0.6-0.6,1.2
			c0.5,1,2,0.2,1.5-0.8c-0.2-0.3-0.5-0.5-0.7-0.4c-1.5-2-5-1.2-5.8,1.8c-0.6,2.1,0.7,4.2,2.6,5.2c-3.6,1.6-5.6,6.2-2.4,9.2
			c2.4,2.3,6.1,1.2,6.6-1.5c0.2-0.1,0.4-0.3,0.5-0.6c0.2-1.1-1.4-1.3-1.6-0.3c-0.1,0.7,0.6,1.1,1.1,0.9c-0.7,2.5-4.1,3.3-6.2,1.1
			c-3.3-3.4-0.1-7.6,3.8-8.2c0.6,0.1,1.3,0.1,1.9,0c2.2,0.3,4.3,2,5.3,5.7c1.2,4.3-2.3,10.1-7.7,11.2c-2.6-2.2-5-4.5-7.4-6.9
			c-5.9-6-3.9-5.8-9,0.4c-2.2,2.6-4.4,5.2-6.7,7.5c-5.5-0.6-9.5-6.1-8.7-10.4c0.7-3.8,2.7-5.6,4.8-6.1c0.7,0.1,1.3,0,1.9-0.1
			c3.9,0.3,7.5,4.3,4.5,7.9c-1.9,2.3-5.4,1.9-6.3-0.6c0.5,0.1,1.2-0.3,1-1c-0.3-1-1.9-0.6-1.6,0.4c0.1,0.3,0.3,0.5,0.5,0.6
			c0.7,2.7,4.5,3.4,6.7,1c2.9-3.2,0.5-7.6-3.2-8.9c1.9-1.2,2.9-3.4,2.1-5.4c-1.1-2.9-4.6-3.4-5.9-1.3c-0.3,0-0.5,0.2-0.7,0.5
			c-0.4,1,1.1,1.6,1.5,0.6c0.3-0.6-0.2-1.1-0.8-1.1c1.9-2.4,6-0.2,5.3,3.2c-0.4,1.6-1.6,2.7-3.1,3.2c-0.6-0.1-1.3,0-2,0.1
			c-1.1-0.2-2.3-0.8-3.3-1.9c-1.4,0.6-2.7,0.6-3.9,0.3c-0.5-0.4-1.1-0.7-1.7-0.9c-1.2-1-1.8-2.6-1.5-4.2c0.8-3.4,5.5-3.6,6.2-0.7
			c-0.5-0.2-1.1,0-1.2,0.7c0,1.1,1.6,1.1,1.6,0.1c0-0.4-0.2-0.6-0.4-0.7c-0.3-2.5-3.7-3.5-5.9-1.3c-1.6,1.6-1.6,4-0.4,5.8
			c-3.9-0.3-8,2.6-6.8,6.8c0.9,3.2,4.7,4.1,6.5,1.9c0.2,0,0.5,0,0.7-0.3c0.7-0.8-0.6-1.9-1.3-1c-0.5,0.6-0.1,1.2,0.5,1.3
			c-1.9,1.9-5.2,0.8-5.9-2.1c-1.2-4.5,3.8-6.6,7.5-5.3c0.5,0.4,1,0.7,1.7,0.9c1.7,1.4,2.7,3.8,1.7,7.6c-1.1,4.3-7.1,7.6-12.4,5.9
			c-1.1-3.1-2.1-6.4-2.9-9.6c-2.1-8.1-0.5-6.9-8-4.1c-3.2,1.2-6.4,2.3-9.7,3.2c-4.5-3.2-5.2-9.9-2.2-13.3c2.5-2.9,5.2-3.5,7.3-3
			c0.5,0.4,1.1,0.6,1.7,0.8c3.2,2.2,4.3,7.4-0.1,9c-2.8,1.1-5.6-1-5.1-3.6c0.4,0.4,1.2,0.3,1.4-0.4c0.3-1-1.3-1.5-1.6-0.4
			c-0.1,0.3,0,0.6,0.2,0.7c-0.7,2.7,2.2,5.2,5.3,4.1c4.2-1.3,4.3-6.4,1.7-9.3c2.2-0.1,4.2-1.5,4.6-3.6c0.5-3-2.2-5.2-4.5-4
			c-0.2-0.1-0.6-0.1-0.9,0.1c-0.9,0.7,0.1,1.9,1,1.3c0.5-0.4,0.4-1.1-0.1-1.3c2.8-1.1,5.3,2.8,3,5.4c-1.1,1.2-2.8,1.6-4.3,1.2
			c-0.5-0.4-1.1-0.7-1.8-0.9c-0.9-0.7-1.6-1.8-1.9-3.3c-1.5-0.2-2.7-0.8-3.5-1.6c-0.3-0.6-0.6-1.1-1-1.6c-0.3-0.8-0.4-1.7-0.1-2.6
			h-0.9c-0.1,0.5-0.2,1-0.1,1.5c-3.2-2.2-8.3-1.7-9.3,2.5c-0.8,3.2,2,5.8,4.7,4.9c0.2,0.1,0.5,0.2,0.8,0.1c1-0.4,0.5-1.9-0.6-1.5
			c-0.7,0.2-0.7,1-0.2,1.4c-2.6,0.7-5-1.9-4.1-4.7c1.3-4.5,6.6-3.9,9.1-0.9c0.2,0.6,0.5,1.1,1,1.6c0.8,2,0.4,4.7-2.3,7.4
			c-3.2,3.2-10.1,3.1-13.7-1c0.6-3.3,1.5-6.5,2.4-9.8c0.2-0.6,0.3-1.1,0.5-1.5h-1.2c-1,3.8-1.9,7.1-2.5,10.1
			c-1.5-2.4-2-5.7-0.8-10.1h-1.3c-1.5,5.3-0.5,9.3,1.7,11.9c-0.8,3.6-1.3,6.5-1.4,9c-1.5-3.7-5.1-7.3-12-9.6
			c-8.1-2.6-2.7-2.2-3.7-11.3h-1.4c0.2,2.4,0.1,5.2-0.5,8.5c-0.4-10-11.3-9.5-11.4-3.5c-0.1,3.3,3.8,4.8,5.4,2.7
			c0.3,0,0.6-0.1,0.8-0.5c0.4-1-1.1-1.6-1.5-0.6c-0.3,0.6,0.2,1,0.6,1.1c-1.9,1.8-5.6-0.8-4-3.7c2.1-4,10-2.5,8.7,7.6
			c7.1,2.3,8.1,6.8,6.3,9.4c-3.8,5.3-8.8-2.4-4.7-3.5c-0.1,0.5,0.1,1.1,0.8,1.1c1.1,0,1.1-1.6,0-1.6c-0.4,0-0.6,0.2-0.8,0.4
			c-3.7,0.6-2.2,7.7,3.2,6c3.1-0.9,4.3-4.4,3.1-7.3c-1-2.4-3-3.7-4.5-4.4c25.9,6.4,13.4,28.8,3.7,20.3c-3.5-3.1-0.6-8.5,3.8-6.6
			c-0.5,0.4-0.3,1.3,0.4,1.3c1,0,1-1.4,0-1.5c-0.2,0-0.3,0-0.4,0.1c-10.2-6.2-6.2,16.2,5.7,7.7c1.6-1.2,2.9-3.3,3.3-5.9
			c0.6,1.3,1.5,2.2,2.9,2.6c-4.2,1.1-7.2,4.7-6.6,9c1.3,9.8,13.3,5.6,9.3-0.3c0.1-0.1,0.1-0.3,0.1-0.4c-0.1-1-1.6-0.8-1.5,0.2
			c0.1,0.8,1.1,0.8,1.4,0.3c3.8,6.5-10.6,8.4-8.2-2.2c1.6-6.9,15.9-10.6,22.7,8.3c-5.4-8.4-14.6-2.6-11.7,2.6c1.6,2.9,5.7,2.3,6-0.3
			c0.3-0.1,0.4-0.4,0.4-0.8c-0.1-1.1-1.8-0.9-1.6,0.2c0.1,0.6,0.7,0.8,1.1,0.7c-0.7,2.5-5.2,2.1-5.3-1.3
			C174.4,210.7,181.9,208.1,185.9,217.5z"/>
	</defs>
	<clipPath id="SVGID_2_Adorno">
		<use xlink:href="#SVGID_1_Adorno"  style="overflow:visible;"/>
	</clipPath>
	<linearGradient id="SVGID_3_Adorno" gradientUnits="userSpaceOnUse" x1="233.2227" y1="218.46" x2="233.2227" y2="162.71">
		<stop  offset="0" style="stop-color:#DEAF74"/>
		<stop  offset="3.000000e-002" style="stop-color:#D29446"/>
		<stop  offset="0.61" style="stop-color:#B57D3A"/>
		<stop  offset="1" style="stop-color:#000000"/>
	</linearGradient>
	<rect x="131.2" y="168.2" class="adorno-a" width="204" height="72.9"/>
</g>
</svg>
