<?xml version="1.0" encoding="utf-8"?>
<!-- Generator: Adobe Illustrator 16.0.0, SVG Export Plug-In . SVG Version: 6.00 Build 0)  -->
<!DOCTYPE svg PUBLIC "-//W3C//DTD SVG 1.1//EN" "http://www.w3.org/Graphics/SVG/1.1/DTD/svg11.dtd">
<svg version="1.1" id="Capa_1" xmlns="http://www.w3.org/2000/svg" xmlns:xlink="http://www.w3.org/1999/xlink" x="0px" y="0px"
	 width="330px" height="1200px" viewBox="0 0 330 1200" style="enable-background:new 0 0 330 1200;" xml:space="preserve">
<style type="text/css">
<![CDATA[
	.st0{clip-path:url(#SVGID_9_);fill:url(#SVGID_10_);}
	.st1{clip-path:url(#SVGID_12_);fill:url(#SVGID_13_);}
	.st2{clip-path:url(#SVGID_15_);fill:url(#SVGID_17_);}
	.st3{filter:url(#Adobe_OpacityMaskFilter);}
	.st4{clip-path:url(#SVGID_7_);fill-rule:evenodd;clip-rule:evenodd;}
	.st5{clip-path:url(#SVGID_7_);fill-rule:evenodd;clip-rule:evenodd;fill:#E30286;}
	.st6{clip-path:url(#SVGID_7_);fill-rule:evenodd;clip-rule:evenodd;fill:#E5E5E5;}
	.st7{clip-path:url(#SVGID_2_);}
	.st8{clip-path:url(#SVGID_7_);}
	.st9{clip-path:url(#SVGID_15_);mask:url(#SVGID_16_);fill:url(#SVGID_18_);}
	.st10{clip-path:url(#SVGID_4_);fill:url(#SVGID_5_);}
	.st11{clip-path:url(#SVGID_2_);fill:none;stroke:#E5E5E5;stroke-width:0.5669;stroke-miterlimit:22.9256;}
	.st12{clip-path:url(#SVGID_20_);fill:url(#SVGID_21_);}
	.st13{clip-path:url(#SVGID_23_);fill:url(#SVGID_24_);}
]]>
</style>
<g>
	<defs>
		<rect id="SVGID_1_" width="332.9" height="1200"/>
	</defs>
	<clipPath id="SVGID_2_">
		<use xlink:href="#SVGID_1_"  style="overflow:visible;"/>
	</clipPath>
	<g class="st7">
		<defs>
			<rect id="SVGID_3_" x="0" width="332.9" height="1200"/>
		</defs>
		<clipPath id="SVGID_4_">
			<use xlink:href="#SVGID_3_"  style="overflow:visible;"/>
		</clipPath>
		<linearGradient id="SVGID_5_" gradientUnits="userSpaceOnUse" x1="-2.441406e-003" y1="600" x2="332.8965" y2="600">
			<stop  offset="0" style="stop-color:#E5E5E5"/>
			<stop  offset="0.2" style="stop-color:#FFFFFF"/>
			<stop  offset="0.5" style="stop-color:#E5E5E5"/>
			<stop  offset="0.77" style="stop-color:#FFFFFF"/>
			<stop  offset="1" style="stop-color:#E5E5E5"/>
		</linearGradient>
		<rect x="0" class="st10" width="332.9" height="1200"/>
	</g>
	<g class="st7">
		<defs>
			<rect id="SVGID_6_" x="0" width="332.9" height="1200"/>
		</defs>
		<clipPath id="SVGID_7_">
			<use xlink:href="#SVGID_6_"  style="overflow:visible;"/>
		</clipPath>
		<g class="st8">
			<defs>
				<path id="SVGID_8_" d="M392.1,150v368.7l-198.9-99.4l-18.5,9.2c-60.2,30.1-310,108.3-690.5,78.7C-57.1,488,307,408.3,392.1,150"
					/>
			</defs>
			<clipPath id="SVGID_9_">
				<use xlink:href="#SVGID_8_"  style="overflow:visible;"/>
			</clipPath>
			<linearGradient id="SVGID_10_" gradientUnits="userSpaceOnUse" x1="-373.061" y1="220.6938" x2="364.8185" y2="511.6981">
				<stop  offset="0" style="stop-color:#C18648"/>
				<stop  offset="0.2" style="stop-color:#F4E5A2"/>
				<stop  offset="0.5" style="stop-color:#D38E57"/>
				<stop  offset="0.8" style="stop-color:#F8DF9F"/>
				<stop  offset="1" style="stop-color:#B9824A"/>
			</linearGradient>
			<rect x="-515.8" y="150" class="st0" width="907.9" height="386.9"/>
		</g>
		<g class="st8">
			<defs>
				<path id="SVGID_11_" d="M-49.2,178.1c63,148,163.6,198.3,269.2,243.9l172.1,74.3v11.9C214.8,485.4-20.1,406.8-49.2,178.1"/>
			</defs>
			<clipPath id="SVGID_12_">
				<use xlink:href="#SVGID_11_"  style="overflow:visible;"/>
			</clipPath>
			<linearGradient id="SVGID_13_" gradientUnits="userSpaceOnUse" x1="14.0083" y1="228.7832" x2="372.0716" y2="488.8349">
				<stop  offset="0" style="stop-color:#C18648"/>
				<stop  offset="0.2" style="stop-color:#F4E5A2"/>
				<stop  offset="0.5" style="stop-color:#D38E57"/>
				<stop  offset="0.8" style="stop-color:#F8DF9F"/>
				<stop  offset="1" style="stop-color:#B9824A"/>
			</linearGradient>
			<rect x="-49.2" y="178.1" class="st1" width="441.3" height="330.1"/>
		</g>
		<g class="st8">
			<defs>
				<path id="SVGID_14_" d="M392.1,600V150C354.2,265.8,313,349.3,210.8,406.2C298.3,425.7,367.5,527,392.1,600"/>
			</defs>
			<clipPath id="SVGID_15_">
				<use xlink:href="#SVGID_14_"  style="overflow:visible;"/>
			</clipPath>
			<defs>
				<filter id="Adobe_OpacityMaskFilter" filterUnits="userSpaceOnUse" x="210.8" y="150" width="181.3" height="450">
					<feColorMatrix  type="matrix" values="1 0 0 0 0  0 1 0 0 0  0 0 1 0 0  0 0 0 1 0"/>
				</filter>
			</defs>
			<mask maskUnits="userSpaceOnUse" x="210.8" y="150" width="181.3" height="450" id="SVGID_16_">
				<g class="st3">
					
						<linearGradient id="SVGID_17_" gradientUnits="userSpaceOnUse" x1="137.8462" y1="519" x2="341.9576" y2="519" gradientTransform="matrix(1 0 0 1 50.1582 -144)">
						<stop  offset="0" style="stop-color:#3F3F3F"/>
						<stop  offset="1" style="stop-color:#000000"/>
					</linearGradient>
					<rect x="210.8" y="150" class="st2" width="181.3" height="450"/>
				</g>
			</mask>
			<linearGradient id="SVGID_18_" gradientUnits="userSpaceOnUse" x1="188.0146" y1="375.0005" x2="392.1261" y2="375.0005">
				<stop  offset="0" style="stop-color:#000000"/>
				<stop  offset="1" style="stop-color:#000000"/>
			</linearGradient>
			<rect x="210.8" y="150" class="st9" width="181.3" height="450"/>
		</g>
		<path class="st6" d="M150.1,439.2C91.2,462.1-33,496.4-210.1,509c153.4-10.9,279.8-38.6,341.7-53.7c9.3-2.3,17.1-1.1,22.9,1.4
			c67.8,29.3,135.6,50,146.8,143.3h19.7C308.2,493.5,219.6,459,150.1,439.2"/>
		<path class="st5" d="M392.1,1050V681.3l-198.9,99.4l-18.5-9.2c-60.2-30.1-310-108.3-690.5-78.7C-57.1,712,307,791.7,392.1,1050"/>
		<path class="st5" d="M-49.2,1021.9c63-148,163.6-198.3,269.2-243.9l172.1-74.3v-11.9C214.8,714.6-20.1,793.2-49.2,1021.9"/>
		<g class="st8">
			<defs>
				<path id="SVGID_19_" d="M392.1,600v450C354.2,934.2,313,850.7,210.8,793.8C298.3,774.3,367.5,673,392.1,600"/>
			</defs>
			<clipPath id="SVGID_20_">
				<use xlink:href="#SVGID_19_"  style="overflow:visible;"/>
			</clipPath>
			<linearGradient id="SVGID_21_" gradientUnits="userSpaceOnUse" x1="229.2676" y1="650.9668" x2="375.7011" y2="1003.9091">
				<stop  offset="0" style="stop-color:#C18648"/>
				<stop  offset="0.2" style="stop-color:#F4E5A2"/>
				<stop  offset="0.5" style="stop-color:#D38E57"/>
				<stop  offset="0.8" style="stop-color:#F8DF9F"/>
				<stop  offset="1" style="stop-color:#B9824A"/>
			</linearGradient>
			<rect x="210.8" y="600" class="st12" width="181.3" height="450"/>
		</g>
		<path class="st6" d="M150.1,760.8C91.2,737.9-33,703.6-210.1,691c153.4,10.9,279.8,38.6,341.7,53.7c9.3,2.3,17.1,1.1,22.9-1.4
			c67.8-29.3,135.6-50,146.8-143.3h19.7C308.2,706.5,219.6,741,150.1,760.8"/>
		<path class="st4" d="M392.1,496.3c-62-61.5-172.7-102.5-298.9-102.5c-30.3,0-59.8,2.4-87.9,6.8C174.5,410.9,308.4,495,321.1,600
			h71.1V496.3z"/>
		<path class="st4" d="M392.1,703.7c-62,61.5-172.7,102.5-298.9,102.5c-30.3,0-59.8-2.4-87.9-6.8C174.5,789.1,308.4,705,321.1,600
			h71.1V703.7z"/>
	</g>
	<rect x="0" class="st11" width="332.9" height="1200"/>
	<g class="st7">
		<path d="M23.1,606.5c1.7,1.1,3.7,1.7,5.7,1.7s3.7-0.5,4.8-1.4s1.7-2.1,1.7-3.6c0-0.8-0.2-1.5-0.7-2.1c-0.5-0.6-1.1-1.1-1.9-1.4
			c-0.8-0.4-2.4-0.9-4.8-1.5s-4-1.2-4.9-1.6c-0.9-0.4-1.6-1-2.1-1.7c-0.5-0.7-0.8-1.5-0.8-2.3c0-1.7,0.6-3.1,1.7-4.1s3-1.5,5.4-1.5
			c2.5,0,4.7,0.9,6.8,2.6c0.3,0.3,0.5,0.2,0.5-0.3v-1.5c0-0.3,0.2-0.5,0.5-0.5s0.5,0.2,0.5,0.5v5.9c0,0.3-0.2,0.5-0.5,0.5
			s-0.5-0.2-0.5-0.5v-2.2c-1.1-1.3-2.6-2.3-4.3-3c-0.9-0.4-1.9-0.6-3-0.6c-2.1,0-3.7,0.4-4.7,1.3s-1.5,1.9-1.5,3.2
			c0,0.8,0.2,1.5,0.7,2.1c0.5,0.6,1.1,1.1,1.9,1.4c0.8,0.4,2.4,0.9,4.8,1.5c2.4,0.6,4,1.2,4.9,1.6c0.9,0.4,1.6,1,2.1,1.7
			c0.5,0.7,0.8,1.5,0.8,2.4c0,1.8-0.7,3.3-2,4.4s-3.2,1.6-5.8,1.6c-2.6,0-4.9-0.9-7-2.6c-0.3-0.3-0.5-0.2-0.5,0.3v1.5
			c0,0.3-0.2,0.5-0.5,0.5c-0.3,0-0.5-0.2-0.5-0.5v-5.9c0-0.3,0.2-0.5,0.5-0.5c0.3,0,0.5,0.2,0.5,0.5v2.3
			C21.7,605.5,22.3,606,23.1,606.5z"/>
		<path d="M51.9,606.7c0.3-0.2,0.6-0.5,0.8-0.6c0.2-0.2,0.3-0.2,0.4-0.2c0.1,0.1,0.2,0.2,0.4,0.3c0.2,0.2,0.1,0.4-0.1,0.6
			c-0.7,0.6-1.6,1.2-2.6,1.6c-1,0.5-2.2,0.7-3.7,0.7c-2.2,0-4-0.8-5.3-2.3c-1.3-1.5-2-3.4-2-5.8c0-2.3,0.7-4.3,2-5.8
			c1.3-1.5,3.1-2.2,5.3-2.2c2.2,0,3.9,0.7,5.3,2c1.4,1.4,2.1,3,2.1,4.9v0.5c0,0.6-0.3,0.9-0.9,0.9H41.1c-0.4,0-0.5,0.2-0.5,0.5
			c0.1,1.8,0.7,3.3,1.9,4.5c1.1,1.2,2.6,1.8,4.6,1.8C49,608.2,50.6,607.7,51.9,606.7z M40.7,600.1c0,0.2,0.1,0.4,0.4,0.4h11.8
			c0.3,0,0.5-0.2,0.5-0.5c0-1.6-0.6-3.1-1.8-4.2c-1.2-1.2-2.7-1.8-4.6-1.8c-1.9,0-3.4,0.6-4.5,1.9S40.7,598.7,40.7,600.1z
			 M46.6,590.5l2.8-3.9c0.1-0.2,0.2-0.3,0.3-0.3s0.2,0.1,0.3,0.2c0.2,0.1,0.2,0.2,0.2,0.3c0,0.1,0,0.2-0.1,0.3l-2.8,3.9
			c-0.1,0.1-0.2,0.2-0.3,0.2c-0.1,0-0.2,0-0.3-0.1c-0.1-0.1-0.2-0.2-0.2-0.3C46.5,590.7,46.5,590.6,46.6,590.5z"/>
		<path d="M65.5,608.4c0-0.3,0.2-0.5,0.5-0.5h2.2c0.3,0,0.5-0.2,0.5-0.5v-12.6c0-0.3-0.2-0.5-0.5-0.5H66c-0.3,0-0.5-0.2-0.5-0.5
			s0.2-0.5,0.5-0.5h3.1c0.3,0,0.5,0.2,0.5,0.5v13.6c0,0.3,0.2,0.5,0.5,0.5h2.2c0.3,0,0.5,0.2,0.5,0.5c0,0.3-0.2,0.5-0.5,0.5H66
			C65.7,608.8,65.5,608.7,65.5,608.4z M68.1,590.6c-0.2-0.2-0.4-0.5-0.4-0.9c0-0.3,0.1-0.6,0.4-0.9c0.2-0.2,0.5-0.4,0.9-0.4
			c0.4,0,0.6,0.1,0.9,0.4c0.2,0.2,0.4,0.5,0.4,0.9c0,0.3-0.1,0.6-0.4,0.9c-0.2,0.2-0.5,0.4-0.9,0.4C68.6,591,68.3,590.8,68.1,590.6z
			"/>
		<path d="M74.9,607.9H77c0.3,0,0.5-0.2,0.5-0.5v-12.6c0-0.3-0.2-0.5-0.5-0.5h-2.2c-0.3,0-0.5-0.2-0.5-0.5s0.2-0.5,0.5-0.5H78
			c0.3,0,0.5,0.2,0.5,0.5v1.7c0,0.2,0,0.3,0.1,0.4c0.1,0.1,0.2,0,0.4-0.1c1.7-1.9,3.5-2.8,5.5-2.8c2,0,3.5,0.5,4.6,1.6
			c1.1,1.1,1.6,2.6,1.6,4.6v8.2c0,0.3,0.2,0.5,0.5,0.5h2.2c0.3,0,0.5,0.2,0.5,0.5c0,0.3-0.2,0.5-0.5,0.5h-5.9
			c-0.3,0-0.5-0.2-0.5-0.5c0-0.3,0.2-0.5,0.5-0.5h1.9c0.3,0,0.5-0.2,0.5-0.5v-8.2c0-1.7-0.5-3.1-1.4-3.9c-0.9-0.9-2.2-1.3-3.7-1.3
			s-3.1,0.7-4.5,2.1c-0.6,0.6-1.2,1.3-1.6,2.1v9.2c0,0.3,0.2,0.5,0.5,0.5h1.9c0.3,0,0.5,0.2,0.5,0.5c0,0.3-0.2,0.5-0.5,0.5h-5.9
			c-0.3,0-0.5-0.2-0.5-0.5C74.4,608.1,74.5,607.9,74.9,607.9z"/>
		<path d="M103.1,608.2c1.8,0,3.2-0.3,4.2-0.9c1-0.6,1.4-1.4,1.4-2.4c0-1.4-1-2.3-3-2.7c-0.9-0.2-2-0.4-3.3-0.6
			c-1.3-0.2-2.2-0.4-2.8-0.5c-1.2-0.3-2.2-0.8-2.8-1.4s-0.9-1.4-0.9-2.5s0.6-2,1.7-2.8c1.1-0.8,2.7-1.2,4.6-1.2c2,0,3.8,0.8,5.3,2.3
			c0.2,0.2,0.3,0.2,0.4,0.1c0.1-0.1,0.1-0.3,0.1-0.4v-1.2c0-0.3,0.2-0.5,0.5-0.5c0.3,0,0.5,0.2,0.5,0.5v4.9c0,0.3-0.2,0.5-0.5,0.5
			c-0.3,0-0.5-0.2-0.5-0.5v-1.5c-0.9-1.2-2-2.1-3.4-2.7c-0.7-0.3-1.5-0.5-2.5-0.5c-1.7,0-3,0.3-3.9,0.9c-0.9,0.6-1.4,1.4-1.4,2.3
			c0,0.9,0.4,1.6,1.2,2.1s2,0.9,3.7,1.1c0.7,0.1,1.4,0.2,2.1,0.3c0.7,0.1,1.4,0.2,2,0.3c1.2,0.3,2.1,0.7,2.8,1.2
			c0.7,0.6,1,1.4,1,2.5c0,1.1-0.5,2.1-1.6,2.9c-1.1,0.8-2.7,1.2-4.9,1.2c-1.7,0-3.3-0.5-4.7-1.5c-0.4-0.3-0.7-0.5-1-0.8
			c-0.2-0.2-0.4-0.3-0.4-0.2c-0.1,0.1-0.1,0.3-0.1,0.4v1.2c0,0.3-0.2,0.5-0.5,0.5s-0.5-0.2-0.5-0.5v-4.9c0-0.3,0.2-0.5,0.5-0.5
			s0.5,0.2,0.5,0.5v1.5c0.8,1.2,2,2.1,3.5,2.7C101.1,608.1,102,608.2,103.1,608.2z"/>
		<path d="M116.4,608.8c-0.3,0-0.5,0.2-0.5,0.5v4.3c0,0.3,0.2,0.5,0.5,0.5h2.5c0.3,0,0.5,0.2,0.5,0.5c0,0.3-0.2,0.5-0.5,0.5h-6.5
			c-0.3,0-0.5-0.2-0.5-0.5c0-0.3,0.2-0.5,0.5-0.5h2.2c0.3,0,0.5-0.2,0.5-0.5v-18.8c0-0.3-0.2-0.5-0.5-0.5h-2.2
			c-0.3,0-0.5-0.2-0.5-0.5s0.2-0.5,0.5-0.5h3.1c0.3,0,0.5,0.2,0.5,0.5v1.7c0,0.2,0,0.3,0.1,0.4c0.1,0.1,0.2,0,0.4-0.1
			c0.5-0.7,1.3-1.3,2.3-1.9c1-0.6,2.1-0.9,3.5-0.9c2.1,0,3.7,0.7,5,2.2c1.2,1.4,1.9,3.4,1.9,5.8c0,2.4-0.7,4.3-2.2,5.7
			c-1.5,1.3-3.5,2-6.2,2H116.4z M120.6,607.9c2.4,0,4.2-0.6,5.5-1.7c1.3-1.2,1.9-2.8,1.9-5.1c0-2.2-0.5-4-1.6-5.2
			c-1.1-1.2-2.5-1.8-4.2-1.8s-3.3,0.7-4.7,2.1c-0.6,0.6-1.1,1.3-1.6,2.1v9.2c0,0.3,0.2,0.5,0.5,0.5H120.6z"/>
	</g>
	<g class="st7">
		<path d="M131.5,608.4c0-0.3,0.2-0.5,0.5-0.5h2.2c0.3,0,0.5-0.2,0.5-0.5v-12.6c0-0.3-0.2-0.5-0.5-0.5H132c-0.3,0-0.5-0.2-0.5-0.5
			s0.2-0.5,0.5-0.5h3.1c0.3,0,0.5,0.2,0.5,0.5v13.6c0,0.3,0.2,0.5,0.5,0.5h2.2c0.3,0,0.5,0.2,0.5,0.5c0,0.3-0.2,0.5-0.5,0.5H132
			C131.7,608.8,131.5,608.7,131.5,608.4z M134.1,590.6c-0.2-0.2-0.4-0.5-0.4-0.9c0-0.3,0.1-0.6,0.4-0.9c0.2-0.2,0.5-0.4,0.9-0.4
			c0.4,0,0.6,0.1,0.9,0.4c0.2,0.2,0.4,0.5,0.4,0.9c0,0.3-0.1,0.6-0.4,0.9c-0.2,0.2-0.5,0.4-0.9,0.4
			C134.6,591,134.3,590.8,134.1,590.6z"/>
		<path d="M152.2,594c-2.6,0-4.8,1-6.5,3.1c-0.5,0.6-0.9,1.2-1.2,1.7v8.6c0,0.3,0.2,0.5,0.5,0.5h2.5c0.3,0,0.5,0.2,0.5,0.5
			c0,0.3-0.2,0.5-0.5,0.5h-6.5c-0.3,0-0.5-0.2-0.5-0.5c0-0.3,0.2-0.5,0.5-0.5h2.2c0.3,0,0.5-0.2,0.5-0.5v-12.6
			c0-0.3-0.2-0.5-0.5-0.5h-2.2c-0.3,0-0.5-0.2-0.5-0.5s0.2-0.5,0.5-0.5h3.1c0.3,0,0.5,0.2,0.5,0.5v2.4c0,0.5,0.2,0.5,0.7,0
			c0.8-0.9,1.8-1.6,3-2.3c1.2-0.6,2.6-1,4.1-1h1.5c0.3,0,0.5,0.2,0.5,0.5v3.9c0,0.3-0.2,0.5-0.5,0.5c-0.3,0-0.5-0.2-0.5-0.5v-2.9
			c0-0.3-0.2-0.5-0.5-0.5H152.2z"/>
		<path d="M163.3,593.1c1.7,0,3.1,0.5,4.2,1.5c1.1,1,1.6,2.2,1.6,3.6v9.2c0,0.3,0.2,0.5,0.5,0.5h2.2c0.3,0,0.5,0.2,0.5,0.5
			c0,0.3-0.2,0.5-0.5,0.5h-3.1c-0.3,0-0.5-0.2-0.5-0.5v-1.7c0-0.2,0-0.3-0.1-0.4s-0.2,0-0.4,0.1c-0.6,0.7-1.3,1.3-2.3,1.9
			c-1,0.6-2,0.9-3.1,0.9c-1.9,0-3.4-0.4-4.4-1.3c-1-0.9-1.5-2-1.5-3.3c0-1.4,0.6-2.5,1.7-3.3c1.1-0.9,2.6-1.3,4.5-1.3h5.1
			c0.3,0,0.5-0.2,0.5-0.5v-1.2c0-1.2-0.5-2.2-1.4-3c-0.9-0.8-2-1.2-3.4-1.2c-1.3,0-2.4,0.2-3.3,0.5c-0.8,0.4-1.4,0.7-1.8,0.9
			c-0.3,0.3-0.6,0.3-0.8,0c-0.2-0.2-0.2-0.5,0.1-0.6C159.1,593.7,161,593.1,163.3,593.1z M168.1,601.3c0-0.3-0.2-0.5-0.5-0.5h-5.1
			c-1.8,0-3.1,0.3-4,1c-0.9,0.7-1.3,1.6-1.3,2.7c0,1.1,0.4,2,1.2,2.7c0.8,0.7,2,1,3.6,1c2,0,3.8-1,5.3-3c0.3-0.3,0.5-0.7,0.7-1.1
			V601.3z"/>
		<path d="M187.4,588.7c0-0.3-0.2-0.5-0.5-0.5h-2.5c-0.3,0-0.5-0.2-0.5-0.5s0.2-0.5,0.5-0.5h3.4c0.3,0,0.5,0.2,0.5,0.5v19.7
			c0,0.3,0.2,0.5,0.5,0.5h2.2c0.3,0,0.5,0.2,0.5,0.5c0,0.3-0.2,0.5-0.5,0.5h-3.1c-0.3,0-0.5-0.2-0.5-0.5v-1.7c0-0.2,0-0.3-0.1-0.4
			s-0.2,0-0.4,0.1c-0.5,0.7-1.3,1.3-2.3,1.9c-1,0.6-2.1,0.9-3.2,0.9c-2.2,0-3.9-0.7-5.2-2.1c-1.2-1.4-1.9-3.4-1.9-5.8
			c0-2.5,0.7-4.4,2.2-5.7c1.5-1.3,3.5-2,6.2-2h4.2c0.3,0,0.5-0.2,0.5-0.5V588.7z M187.4,594.8c0-0.3-0.2-0.5-0.5-0.5h-4.2
			c-2.4,0-4.2,0.6-5.5,1.7c-1.3,1.2-2,2.8-2,5.1c0,2.2,0.5,4,1.6,5.2s2.5,1.9,4.2,1.9s3.3-0.7,4.7-2.1c0.6-0.6,1.1-1.3,1.6-2.1
			V594.8z"/>
		<path d="M196.1,606.9c-1.4-1.5-2.1-3.4-2.1-5.8c0-2.4,0.7-4.3,2.1-5.8c1.4-1.5,3.2-2.2,5.5-2.2c2.3,0,4.1,0.7,5.5,2.2
			c1.4,1.5,2.1,3.4,2.1,5.8c0,2.4-0.7,4.3-2.1,5.8c-1.4,1.5-3.2,2.2-5.5,2.2C199.4,609.1,197.5,608.4,196.1,606.9z M201.6,594
			c-2,0-3.6,0.6-4.8,1.9c-1.2,1.3-1.8,3-1.8,5.2c0,2.1,0.6,3.9,1.8,5.1c1.2,1.3,2.8,1.9,4.9,1.9c2,0,3.7-0.6,4.9-1.9
			c1.2-1.3,1.8-3,1.8-5.1c0-2.1-0.6-3.9-1.8-5.2C205.3,594.7,203.6,594,201.6,594z"/>
	</g>
	<g class="st7">
		<path d="M223.5,594c-2.6,0-4.8,1-6.5,3.1c-0.5,0.6-0.9,1.2-1.2,1.7v8.6c0,0.3,0.2,0.5,0.5,0.5h2.5c0.3,0,0.5,0.2,0.5,0.5
			c0,0.3-0.2,0.5-0.5,0.5h-6.5c-0.3,0-0.5-0.2-0.5-0.5c0-0.3,0.2-0.5,0.5-0.5h2.2c0.3,0,0.5-0.2,0.5-0.5v-12.6
			c0-0.3-0.2-0.5-0.5-0.5h-2.2c-0.3,0-0.5-0.2-0.5-0.5s0.2-0.5,0.5-0.5h3.1c0.3,0,0.5,0.2,0.5,0.5v2.4c0,0.5,0.2,0.5,0.7,0
			c0.8-0.9,1.8-1.6,3-2.3c1.2-0.6,2.6-1,4.1-1h1.5c0.3,0,0.5,0.2,0.5,0.5v3.9c0,0.3-0.2,0.5-0.5,0.5c-0.3,0-0.5-0.2-0.5-0.5v-2.9
			c0-0.3-0.2-0.5-0.5-0.5H223.5z"/>
		<path d="M234.6,593.1c1.7,0,3.1,0.5,4.2,1.5c1.1,1,1.6,2.2,1.6,3.6v9.2c0,0.3,0.2,0.5,0.5,0.5h2.2c0.3,0,0.5,0.2,0.5,0.5
			c0,0.3-0.2,0.5-0.5,0.5h-3.1c-0.3,0-0.5-0.2-0.5-0.5v-1.7c0-0.2,0-0.3-0.1-0.4c-0.1-0.1-0.2,0-0.4,0.1c-0.6,0.7-1.3,1.3-2.3,1.9
			c-1,0.6-2,0.9-3.1,0.9c-1.9,0-3.4-0.4-4.4-1.3c-1-0.9-1.5-2-1.5-3.3c0-1.4,0.6-2.5,1.7-3.3s2.6-1.3,4.5-1.3h5.1
			c0.3,0,0.5-0.2,0.5-0.5v-1.2c0-1.2-0.5-2.2-1.4-3c-0.9-0.8-2-1.2-3.4-1.2s-2.4,0.2-3.3,0.5c-0.9,0.4-1.4,0.7-1.8,0.9
			c-0.3,0.3-0.6,0.3-0.8,0c-0.2-0.2-0.2-0.5,0.1-0.6C230.5,593.7,232.3,593.1,234.6,593.1z M239.5,601.3c0-0.3-0.2-0.5-0.5-0.5h-5.1
			c-1.8,0-3.1,0.3-4,1c-0.9,0.7-1.3,1.6-1.3,2.7c0,1.1,0.4,2,1.2,2.7s2,1,3.6,1c2,0,3.8-1,5.3-3c0.3-0.3,0.5-0.7,0.7-1.1V601.3z"/>
		<path d="M246.8,608.7c-0.3-0.3-0.4-0.7-0.4-1.1s0.1-0.8,0.4-1.1c0.3-0.3,0.7-0.4,1.1-0.4c0.5,0,0.9,0.1,1.1,0.4
			c0.3,0.3,0.4,0.7,0.4,1.1s-0.1,0.8-0.4,1.1c-0.3,0.3-0.7,0.4-1.1,0.4C247.4,609.1,247.1,609,246.8,608.7z"/>
	</g>
	<g class="st7">
		<defs>
			<path id="SVGID_22_" d="M60,45.8c-0.5,0-1-0.1-1.4-0.1c-0.1-0.5-0.2-0.9-0.2-1.4C58.8,44.9,59.3,45.4,60,45.8z M289,34.4
				c0,0.5-0.1,0.9-0.1,1.4c-0.5,0.1-0.9,0.2-1.4,0.2C288.1,35.5,288.6,35,289,34.4z M218.6,78.9c-0.3,0.4-0.5,0.8-0.8,1.2
				c-0.4-0.2-0.9-0.3-1.3-0.5C217.2,79.5,217.9,79.3,218.6,78.9z M135.1,82.9c-0.5,0.3-1.1,0.5-1.6,0.8c-0.4-0.5-0.8-1-1.2-1.4
				C133.2,82.6,134.1,82.8,135.1,82.9z M71.1,32.3c-4.5,0.5-7,6.4-4,5.4C69.3,37,71,34.9,71.1,32.3z M67.1,36.5
				c0.4-0.8,1-1.5,1.8-1.9C68.5,35.4,67.9,36.1,67.1,36.5z M275.2,23.5c0.5,4.4,6.6,6.8,5.6,3.9C280,25.3,277.9,23.6,275.2,23.5z
				 M279.5,27.4c-0.8-0.4-1.5-1-1.9-1.7C278.4,26,279.1,26.6,279.5,27.4z M212.2,62.8c-1.8,4.1,2.2,9.1,2.8,6.1
				C215.4,66.6,214.4,64.1,212.2,62.8z M213.9,68.2c-0.5-0.7-0.8-1.6-0.8-2.5C213.6,66.5,213.9,67.3,213.9,68.2z M137.5,66
				c-3.7,2.7-2.8,9-0.7,6.6C138.3,70.9,138.7,68.3,137.5,66z M136.2,71.6c-0.1-0.9,0.1-1.8,0.6-2.5
				C136.8,69.9,136.6,70.8,136.2,71.6z M230.4,56.7c5.2-2.4,9.5-7.7,10.9-17.1c9.2,2.7,16,1.1,20.5-2.5c5.9,1.2,10.8,2,14.9,2.3
				c-6.1,2.4-12.1,8.2-15.9,19.2c-4.7,14-3.4,2.7-22.7,6.6c-4.4,0.7-8.6,2.6-11.8,5.6C227.7,67,229.1,62.4,230.4,56.7z M156.4,69.6
				c5.7,0.4,12.2-2.1,18.2-9.5c6.6,6.8,13.3,8.7,19,7.8c4.5,3.9,8.3,7,11.7,9.2c-6.5-0.9-14.7,1.1-23.6,8.8c-8,7-3.1,6.9-11.8,0.5
				c-9.3-6.7-17.7-8.2-24.3-6.8C148.7,77.3,152.3,73.9,156.4,69.6z M85.6,44.7c4.7,3.2,11.6,4.2,20.7,0.7
				c2.2,9.1,7.1,14.1,12.4,16.1c1.9,5.6,3.6,10.2,5.4,13.7c-5.2-4-13.3-6.2-25-3.9C88.7,73.4,93,75.8,88.6,66
				C84,55.6,77.5,50.2,71.1,48.2C75.1,47.6,79.9,46.4,85.6,44.7z M117.8,58.6c-4.5-2.4-8.3-7.3-10.1-16c-8.2,3.5-14.6,3.3-19.2,1.1
				c6.5-2,14-4.6,22.7-7.7C113.7,44.8,115.8,52.3,117.8,58.6z M191.4,66c-5.1,0.1-11-2.3-16.9-8.9c-5.3,7.1-11,10-16,10.3
				c4.6-4.9,9.7-10.8,15.7-17.8C180.7,56,186.4,61.5,191.4,66z M258.9,36.5c-4.3,2.6-10.7,3.4-19.2,0.5c-1,8.7-4.4,14-8.6,16.8
				c1.4-6.5,2.9-14.1,4.5-23C244.5,33,252.3,35,258.9,36.5z M83.8,43.3C77,44.9,70,46,62.9,45.9c-1.1-0.4-2.2-0.9-3.1-1.6
				c-0.7-0.8-1.4-1.9-1.9-2.9c-0.7-6.9-0.3-13.7,0.9-20.5c5.4,4.9,13.7,6,19.6,3.6C76.5,30.3,78.3,38.4,83.8,43.3z M154.1,69.3
				c-5.1,4.8-10.6,9.1-16.9,12.5c-2.1,0.3-4.2,0-6.2-1.2c-4.3-5.7-7.5-12-10-18.6c7.2,1.6,15-1.5,18.8-6.4
				C141.1,61.6,146.8,67.7,154.1,69.3z M228.2,57.5c-1.9,6.6-4.5,13-8.1,19c-0.9,0.7-1.9,1.4-2.9,1.8c-1.1,0.2-2.3,0.2-3.5,0.1
				c-6.5-2.8-12.3-6.6-17.8-11c7.1-2.1,12.2-8.6,13-14.8C213.1,57.2,221.2,59.7,228.2,57.5z M286.4,11.1c1.7,6.7,2.8,13.4,2.7,20.4
				c-0.4,1.1-0.9,2.1-1.6,3c-0.8,0.7-1.9,1.3-3,1.8c-7.1,0.7-14.1,0.3-21-0.8c5-5.3,6.1-13.4,3.7-19.1
				C273.2,18.2,281.4,16.5,286.4,11.1z M92.7,14.3c-1.8,0-3.8,0.4-6,1.5c0.8-2.2,1.1-4.2,1-6c1,0.6,2.1,1.1,3.4,1.4
				C91.4,12.4,92,13.4,92.7,14.3z M256.8,2.5c0,1.8,0.5,3.7,1.5,5.9c-2.3-0.8-4.3-1.1-6.1-0.9c0.6-0.9,1.1-2,1.4-3.3
				C254.8,3.7,255.9,3.2,256.8,2.5z M207,35.5c-0.9,1.5-1.5,3.5-1.7,5.8c-1.5-1.8-3.2-3-4.8-3.8c1-0.5,2-1.2,2.9-2.2
				C204.6,35.6,205.8,35.7,207,35.5z M146.9,39.9c-1.6,0.9-3.1,2.3-4.5,4.2c-0.4-2.3-1.2-4.2-2.2-5.6c1.1,0,2.3-0.1,3.6-0.5
				C144.8,38.8,145.8,39.4,146.9,39.9z M132.4,11.8c11.1-4,24.6-1,33,7.1c-4.8-3.6-11-5-16.8-2.4C144.5,11.8,138.3,10.5,132.4,11.8z
				 M220.2,11.1c-14.9-11.2-39.3-3.6-45,13.8c-1.1,2.2-1.7,4-2,5.4c-0.4-1.3-1.1-3-2.4-5.1c-7.2-17-32.2-22.3-46-10
				c-2.1,1.4-3.5,2.7-4.4,3.7c0.3-1.3,0.6-3.2,0.5-5.6c0.6-4.6-0.1-9.1-1.9-13.3h-1.7c0.8,1.7,1.5,3.4,2,5.2
				c-0.8-1.9-1.9-3.7-3.3-5.2h-2.9c7.7,6.2,9.1,20.5-0.7,28.9c2.5-1.9,4.1-3.5,4.9-4.6c-0.4,1.3-0.9,3.4-1,6.5
				c1.9-16.5,23.4-23.7,31.6-11.6c12.5-7.6,29.1,7.6,23.6,23.5c1.2-2.9,1.7-5,1.9-6.4c0.3,1.4,1,3.4,2.5,6.2
				c-6.8-15.2,8.1-32,21.4-25.5c7-12.7,29.1-7.6,32.5,8.9c-0.4-3.1-1.1-5.2-1.6-6.4c0.9,1,2.6,2.5,5.3,4.2
				c-8.3-5.9-10-16.3-6.7-23.7h-2c-0.1,0.2-0.2,0.5-0.2,0.7c0-0.2,0.1-0.5,0.1-0.7h-1.3c-0.4,2.9-0.3,5.8,0.4,8.8
				c0.2,2.5,0.6,4.3,1.1,5.6C223.9,13.4,222.4,12.3,220.2,11.1z M180,18.3c7.6-8.8,20.8-12.9,32.2-9.9c-6-0.8-12,1.1-15.8,6.1
				C190.6,12.4,184.5,14.3,180,18.3z M230.5,23c7.9,3.9,1-2.5-0.5,3.8C230.5,25.6,230.6,24.3,230.5,23z M173.7,40.5
				c4.8,7.2,2.1-1.6-2.3,3.1C172.3,42.7,173.1,41.7,173.7,40.5z M115.6,28c0.5,8.6,2.7-0.4-3.6,1.5C113.2,29.2,114.4,28.7,115.6,28z
				 M130.2,0c0,0.1,0,0.3,0.1,0.4c0.3-0.1,0.6-0.3,0.8-0.4H130.2z M168.1,0c0.3,3,1.5,6.4,4.3,9.5c2.3-3.1,3.4-6.4,3.4-9.5h-2.2
				c0.1,4.7-1.7,8.1-3.3,1.3c-0.1-0.4-0.2-0.8-0.2-1.3H168.1z M137,6.4c0.8-0.1,1.8-0.3,2.9-0.4c8.2-1.3,13.6-1.8,23.5,6.2
				c-7.4-5.5-17.5-7.7-26.8-5.5L137,6.4z M222.1,0c-0.1,4-0.3,7,0.7,11.1c-4.7-3.5-8.3-4.3-14.8-7.4c-9.7-1-21.4,2.7-28.4,9.6
				c6.9-7.4,17.6-11,27.6-9.8c-12.7-2.2-17.1,1-23.5,6.1c-1.7,1.4-3,2.3-3.7,2.9c-1.2,2.6-2.7,5.4-4.4,8.4c-3.9,7.3-0.7,7.2-5.3,0.2
				c-1.7-2.6-3.2-5-4.6-7.2c-0.1-0.1-0.3-0.2-0.4-0.3l0.3,0.2c-7.4-6-19.3-9-29.1-7.1c-6.1,3.5-9.7,4.7-14.1,8.6
				C123,9.8,122,6.4,121.5,0h1.6c0.2,3.6,0.6,6.8,0.6,9.4c0,4.4-1,3.9,2.7,1.4C129.9,8.5,137,5.2,143.3,0h2.9
				c-1.6,1.4-3.6,2.9-5.9,4.4c-0.8,0.5-1.6,1-2.3,1.4c4-0.8,10.1-1.7,13.6-1.9c6.1,3.2,11.1,6.9,13.5,9c-3.2-5.3-5.3-9.6-6.8-12.9
				h0.9c3.2,8.6,9.2,15.5,12.2,20.5c2.3,3.8,1.1,3.9,3-0.1c2-4.1,7.4-11.5,10-20.3h0.8c-1.1,3.2-2.7,7.1-5,11.9
				c2.8-2.4,8.9-7.5,12.4-9.7c5.4-0.2,10.4,0.3,13.8,0.8c-0.8-0.4-1.6-0.8-2.5-1.3c-1-0.6-2-1.1-2.9-1.7h3.5
				c5.2,2.9,10.3,4.9,13.8,6.8c3.9,2.2,2.9,2.8,2.6-1.6c-0.1-1.4-0.1-3.2-0.1-5.2H222.1z M0,0c1.7,1.1,3.9,1.3,6.7,0H0z M96,0
				c0,0.3-0.1,0.7-0.2,1c-0.5-0.6-1.6-0.9-2.2,0.1c-1,1.5,1.3,2.9,2.3,1.4c0.3-0.5,0.3-1,0-1.4c0.2-0.4,0.3-0.8,0.3-1.1H96z
				 M242.7,0c-0.2,0.5-0.1,1.2,0.5,1.6c1.2,0.8,2.4-0.6,2-1.6H242.7z M275.6,0c0.2,3.6-2.9,6.7-6.5,6c0.6-0.6,0.6-1.9-0.6-2.2
				c-1.7-0.4-2.4,2.1-0.7,2.5c0.5,0.1,0.9,0,1.2-0.3c3.7,1,7.2-2.1,7.3-6.1H275.6z M329.5,0c1,0.5,2.3,0.4,3.4,0H329.5z M89.3,77.3
				c11.9-2.4,17.1,3,16.6,8.1c-1,10.4-14.5,3.6-9.6-1.2c0.2,0.8,1,1.4,2,0.9c1.6-0.8,0.3-3.1-1.3-2.3c-0.6,0.3-0.7,0.8-0.7,1.2
				c-4.7,3.7,3.2,12.5,9.5,5.9c3.6-3.7,2.5-9.7-1.7-12.7c-3.3-2.5-7.3-2.8-10.1-2.6c42-11.6,42.8,29.7,22.1,25.5
				c-7.6-1.6-7.9-11.4-0.2-12.2c-0.4,0.9,0.6,2.1,1.7,1.5c1.4-0.7,0.2-2.8-1.2-2.1c-0.2,0.1-0.4,0.3-0.5,0.5
				c-19.5-0.6,4.7,27.7,14.4,6.3c1.3-3,1.3-7-0.2-10.9c1.9,1.3,3.9,1.8,6.2,1.4c-5,4.9-6.2,12.3-1.9,17.8c10,12.7,23.4-2.8,12.9-7.8
				c0-0.2-0.1-0.4-0.3-0.7c-1-1.3-2.9,0.2-1.9,1.4c0.8,1,2.2,0.3,2.2-0.7c10.7,6.2-8,20.2-13.4,3.4c-3.5-10.8,13.7-27.6,38.9-6.5
				c-14.6-7.5-22.8,7.9-14.3,12.9c4.6,2.8,10-1.4,8.3-5.2c0.3-0.4,0.3-0.9-0.1-1.4c-1.1-1.4-3.2,0.2-2.2,1.6
				c0.6,0.8,1.6,0.6,2.1,0.1c1,4.1-5.7,7.1-8.6,2.5c-3.9-6.2,4.5-15.8,18-5.9c9.1-7.9,16.4-5.7,18.6-1.1c4.4,9.5-10.7,10.2-8.9,3.6
				c0.5,0.6,1.6,0.7,2.2-0.2c0.9-1.5-1.4-2.9-2.3-1.4c-0.3,0.5-0.3,1,0,1.4c-2.2,5.5,9.2,9.3,11.3,0.5c1.2-5-2.8-9.6-8-10.2
				c-4.2-0.5-7.7,1.2-10.1,2.7c30.4-30.5,52.2,4.8,32.2,11.3c-7.4,2.3-12.6-6-6.4-10.5c0.1,1,1.6,1.5,2.2,0.5
				c0.8-1.3-1.2-2.6-2.1-1.2c-0.1,0.2-0.2,0.4-0.2,0.6c-17.2,9,18.3,21.7,15.7-1.6c-0.4-3.2-2.4-6.7-5.7-9.3c2.4,0.2,4.5-0.4,6.3-2
				c-7.1,21.9,29,21.4,20.8,6.5c-1.1-2-3.2-3.3-6.2-3.1c-0.1-0.2-0.3-0.3-0.6-0.4c-1.5-0.6-2.4,1.5-1,2.2c1.2,0.5,2-0.8,1.6-1.6
				c12.5,0.1,3.4,21.4-9.9,9.5c-8.5-7.6-2.6-30.7,30.4-24.6c-16.5,0.7-15.7,18-5.8,18.2c5.5,0.2,8-6.1,4.5-8.6
				c0-0.5-0.2-0.9-0.8-1.2c-1.6-0.7-2.7,1.7-1.1,2.4c0.9,0.4,1.7-0.2,1.9-1c3,3-1.3,8.9-6.1,6.3c-6.6-3.4-4.2-15.9,12.5-13.9
				c3.8-11.3,11.3-12.9,15.5-10c8.7,6.1-4,14-5.9,7.5c0.8,0.2,1.8-0.2,1.8-1.2c0-1.7-2.7-1.8-2.7-0.1c0,0.6,0.3,1,0.7,1.2
				c0.9,5.8,12.7,3.5,10-5.1c-1.5-4.9-7.4-6.9-12.1-5c-3.9,1.6-6.1,4.8-7.3,7.2c10.7-41.3,47.7-21.3,33.7-5.9c-5.2,5.6-14,1-10.9-6
				c0.6,0.8,2.1,0.5,2.2-0.7c0-1.6-2.4-1.6-2.4-0.1c0,0.3,0.1,0.5,0.2,0.7c-10.3,16.2,26.9,9.9,12.8-9c-2-2.6-5.5-4.6-9.7-5.3
				c2.1-0.9,3.6-2.4,4.4-4.6c1.9,6.7,7.8,11.4,14.9,10.5c16.3-2.1,9.2-21.2-0.5-14.8c-0.2-0.1-0.4-0.1-0.7-0.1
				c-1.6,0.2-1.3,2.5,0.3,2.3c1.3-0.1,1.4-1.7,0.5-2.2c10.8-6,13.9,16.8-3.7,13c-11.4-2.5-17.6-25.4,13.7-36.1
				c-14,8.6-4.4,23.2,4.3,18.6c4.9-2.5,3.8-9.2-0.5-9.6c-0.2-0.4-0.7-0.7-1.3-0.6c-1.8,0.2-1.5,2.8,0.3,2.6c1-0.1,1.4-1,1.1-1.8
				c4.1,1.2,3.5,8.3-2.1,8.5c-7.5,0.3-11.8-11.7,3.7-18.2c-0.5-2.2-0.7-4.1-0.6-5.8h-2.2c0,0.4,0,0.8,0,1.2
				c-0.1-0.4-0.2-0.8-0.3-1.2h-2.1c1.6,5.3,2,2.9-6.5,6.4c-10.6,4.5-16.2,10.9-18.2,17.1c-0.6-3.9-1.9-8.6-3.6-14.2
				c1.8-2.5,2.9-5.6,2.9-9.3h-2.2c-0.1,2.5-0.7,4.6-1.6,6.5c-0.7-2.1-1.4-4.2-2.2-6.5H283c1,2.8,1.9,5.7,2.7,8.5
				c-5.3,7.1-16.5,8.2-22.1,3.6c-4.9-4-5.9-8.2-4.9-11.6c0.1-0.2,0.2-0.3,0.3-0.5h-2.3c-1.2,1.2-2.8,2.1-5,2.6
				c-0.3,2.4-1.3,4.3-2.7,5.6c-1,0.4-1.9,1-2.7,1.6c-2.4,0.9-5.2,0.5-7.2-1.3c-3-2.7-2.1-6.8,0.3-8.5h-0.9c-1.7,1.3-2.7,3.7-2,6.4
				c0.9,3.5,4.4,5.4,8,5.2c-3.7,5.1-2.8,13.2,4.2,14.8c5.3,1.3,9.7-3.2,8.1-7.4c0.2-0.3,0.3-0.7,0.2-1.2c-0.6-1.6-3.1-0.7-2.5,0.9
				c0.4,1.1,1.7,1.1,2.3,0.4c1.2,4.1-3.1,7.9-7.8,6.5c-7.5-2.1-6.4-10.5-1.4-14.6c0.9-0.4,1.9-0.9,2.7-1.5c3.4-1.3,7.7-0.6,12.3,3.7
				c5.3,5,5.1,16-1.7,21.8c-5.4-1-10.8-2.3-16.2-3.8c-13.2-3.7-10.3-4.9-12.4,7.7c-0.9,5.4-1.9,10.7-3.3,15.9
				c-8.2,3.6-18.5-0.9-21-7.7c-2.1-5.9-0.9-10,1.7-12.4c1-0.4,1.8-1,2.6-1.7c5.8-2.7,14.1,0,12.9,7.4c-0.7,4.8-6.1,6.9-9.4,4.2
				c0.9-0.3,1.5-1.4,0.6-2.2c-1.3-1.2-3.2,0.6-1.9,1.9c0.4,0.4,0.8,0.5,1.2,0.4c3.2,3.2,9.2,1.2,10.3-4c1.5-6.9-5.6-11.1-12-10
				c1.7-3.1,1.4-7-1.5-9.3c-3.9-3.2-9.3-1.1-9.5,3c-0.4,0.2-0.6,0.7-0.6,1.3c0.2,1.7,2.9,1.4,2.7-0.3c-0.1-1.1-1.2-1.4-2-1
				c0.7-4.8,8.3-5.1,10.1,0.3c0.8,2.5,0,5.1-1.8,6.9c-1,0.4-1.9,1-2.7,1.7c-1.8,0.7-3.9,0.8-6.3,0c-1.5,1.9-3.4,3.1-5.2,3.5
				c-1.1-0.1-2.1-0.1-3.1,0.1c-2.5-0.4-4.7-2.1-5.6-4.6c-1.7-5.4,4.7-9.4,8.1-5.9c-0.8,0.1-1.6,1-1.1,1.9c0.8,1.5,3.2,0.3,2.4-1.2
				c-0.3-0.5-0.7-0.7-1.2-0.7c-2.5-3.2-8.1-1.9-9.5,2.9c-1,3.5,1.1,6.8,4.3,8.5c-5.8,2.6-9.2,10.1-3.9,14.9c4,3.7,10,1.9,10.8-2.5
				c0.4-0.1,0.7-0.5,0.8-1c0.3-1.7-2.3-2.2-2.7-0.5c-0.2,1.2,0.9,1.7,1.8,1.5c-1.1,4.1-6.7,5.3-10.1,1.8c-5.4-5.4-0.2-12.3,6.2-13.3
				c1,0.2,2.1,0.2,3.1,0c3.6,0.5,7,3.2,8.7,9.2c2,7-3.8,16.4-12.6,18c-4.2-3.5-8.2-7.3-12.1-11.2c-9.6-9.6-6.4-9.3-14.7,0.6
				c-3.5,4.2-7.2,8.4-11,12.2c-9-0.9-15.6-9.8-14.2-16.9c1.2-6.1,4.3-9.1,7.8-9.9c1.1,0.1,2.1,0,3.1-0.2c6.4,0.5,12.3,6.9,7.4,12.7
				c-3.1,3.8-8.8,3-10.2-1c0.9,0.2,2-0.5,1.7-1.6c-0.5-1.7-3.1-1-2.6,0.7c0.1,0.5,0.5,0.8,0.9,0.9c1.2,4.3,7.4,5.6,11,1.5
				c4.8-5.2,0.8-12.3-5.3-14.5c3-1.9,4.8-5.4,3.5-8.8c-1.8-4.6-7.5-5.5-9.7-2.1c-0.5,0-0.9,0.3-1.1,0.8c-0.7,1.6,1.8,2.6,2.5,1
				c0.4-1-0.4-1.8-1.2-1.8c3.1-3.8,9.8-0.3,8.6,5.2c-0.6,2.5-2.6,4.4-5.1,5.1c-1-0.1-2.1-0.1-3.2,0.2c-1.9-0.3-3.8-1.2-5.5-3.1
				c-2.3,0.9-4.5,1-6.3,0.5c-0.9-0.6-1.8-1.1-2.8-1.5c-2-1.6-3-4.1-2.5-6.7c1.3-5.5,8.9-5.9,10.1-1.1c-0.8-0.3-1.9,0.1-1.9,1.1
				c-0.1,1.7,2.6,1.8,2.7,0.1c0-0.6-0.3-1-0.7-1.2c-0.5-4-6.1-5.6-9.7-2.1c-2.6,2.5-2.6,6.4-0.6,9.4c-6.4-0.5-13.1,4.3-11,10.9
				c1.5,5.1,7.7,6.6,10.6,3.1c0.4,0.1,0.8-0.1,1.2-0.5c1.1-1.3-0.9-3-2.1-1.7c-0.8,0.9-0.1,2,0.8,2.2c-3,3-8.5,1.4-9.7-3.3
				c-1.9-7.3,6.1-10.7,12.2-8.5c0.8,0.6,1.7,1.1,2.7,1.5c2.8,2.2,4.4,6.2,2.8,12.2c-1.8,7-11.6,12.4-20.2,9.5
				c-1.8-5.1-3.3-10.3-4.7-15.6c-3.4-13-0.8-11.2-13.1-6.6c-5.2,1.9-10.5,3.7-15.8,5.2C79.1,37.4,78,26.5,82.8,21
				c4.1-4.7,8.4-5.7,11.9-4.8c0.9,0.6,1.8,1,2.8,1.3c5.3,3.6,7.1,11.9-0.1,14.6c-4.6,1.8-9.2-1.7-8.4-5.8c0.7,0.6,2,0.5,2.3-0.6
				c0.5-1.7-2.1-2.4-2.6-0.7c-0.1,0.5,0,0.9,0.3,1.2c-1.2,4.3,3.5,8.4,8.7,6.7c6.8-2.2,7-10.3,2.8-15.1c3.6-0.2,6.9-2.4,7.5-5.9
				c0.9-4.9-3.7-8.4-7.3-6.5c-0.4-0.2-0.9-0.2-1.4,0.2c-1.4,1.1,0.2,3.1,1.6,2.1c0.9-0.7,0.6-1.7-0.1-2.2c4.6-1.8,8.7,4.5,4.8,8.7
				c-1.8,1.9-4.5,2.5-7,1.9c-0.9-0.6-1.8-1.1-2.9-1.4c-1.5-1.1-2.6-2.9-3.2-5.3c-2.5-0.3-4.4-1.3-5.7-2.7c-0.4-1-1-1.8-1.7-2.6
				C84.7,2.8,84.6,1.4,85,0h-1.5c-0.2,0.8-0.3,1.6-0.2,2.4C78-1.2,69.7-0.3,68.1,6.5c-1.3,5.2,3.3,9.4,7.6,7.9
				c0.3,0.2,0.8,0.3,1.3,0.2c1.7-0.6,0.8-3.1-0.9-2.5c-1.1,0.4-1.1,1.7-0.4,2.3c-4.2,1.1-8.1-3-6.7-7.6C71-0.5,79.7,0.5,83.8,5.3
				c0.4,0.9,0.9,1.8,1.6,2.6c1.3,3.3,0.7,7.5-3.8,12c-5.2,5.2-16.4,5-22.3-1.6c1-5.3,2.4-10.6,3.9-15.8c0.3-0.9,0.5-1.7,0.7-2.5H62
				c-1.6,6.1-3,11.5-4.1,16.4c-2.4-3.8-3.3-9.2-1.3-16.4h-2.1c-2.4,8.6-0.8,15,2.8,19.2c-1.3,5.8-2.1,10.6-2.3,14.5
				c-2.4-6-8.4-11.9-19.7-15.5C22,14,30.8,14.7,29.1,0h-2.3c0.4,3.9,0.2,8.4-0.9,13.7C25.3-2.4,7.5-1.6,7.3,8
				c-0.2,5.3,6.2,7.8,8.8,4.4c0.5,0,1-0.2,1.2-0.8c0.7-1.6-1.8-2.6-2.5-1c-0.4,0.9,0.2,1.7,1,1.8c-3.1,2.9-9.1-1.2-6.5-6
				c3.5-6.4,16.3-4.1,14.2,12.2c11.6,3.7,13.3,11,10.2,15.1c-6.2,8.5-14.4-3.9-7.7-5.7c-0.2,0.8,0.2,1.7,1.2,1.7
				c1.8,0,1.9-2.6,0.1-2.6c-0.6,0-1,0.3-1.2,0.7c-6,0.9-3.6,12.4,5.2,9.8c5-1.5,7.1-7.2,5.1-11.9c-1.6-3.8-4.9-6-7.4-7.2
				c42.3,10.4,21.8,46.5,6,32.9c-5.7-5.1-1-13.7,6.1-10.7c-0.8,0.6-0.6,2.1,0.7,2.1c1.6,0,1.7-2.3,0.1-2.4c-0.3,0-0.5,0.1-0.7,0.2
				c-16.6-10-10.1,26.3,9.2,12.5c2.6-1.9,4.7-5.4,5.4-9.5c1,2.1,2.5,3.5,4.7,4.3c-6.8,1.8-11.7,7.6-10.7,14.5
				c2.2,15.9,21.7,9,15.2-0.4c0.1-0.2,0.1-0.4,0.1-0.7c-0.2-1.5-2.6-1.3-2.4,0.3c0.1,1.2,1.7,1.3,2.2,0.5
				c6.1,10.6-17.3,13.6-13.4-3.6c2.5-11.1,26-17.2,37,13.4c-8.8-13.6-23.8-4.3-19,4.2c2.6,4.7,9.4,3.7,9.8-0.5
				c0.4-0.2,0.7-0.7,0.7-1.3c-0.2-1.7-2.9-1.4-2.7,0.3c0.1,1,1.1,1.3,1.8,1.1c-1.2,4-8.5,3.4-8.7-2C70.4,66.4,82.6,62.2,89.3,77.3z"
				/>
		</defs>
		<clipPath id="SVGID_23_">
			<use xlink:href="#SVGID_22_"  style="overflow:visible;"/>
		</clipPath>
		<linearGradient id="SVGID_24_" gradientUnits="userSpaceOnUse" x1="166.4473" y1="74.04" x2="166.4473" y2="-8.0434">
			<stop  offset="0" style="stop-color:#DDAE74"/>
			<stop  offset="3.000000e-002" style="stop-color:#D19346"/>
			<stop  offset="0.61" style="stop-color:#B47D3A"/>
			<stop  offset="1" style="stop-color:#000000"/>
		</linearGradient>
		<rect x="0" y="-2.4" class="st13" width="332.9" height="117.9"/>
	</g>
</g>
</svg>
