<?xml version="1.0" encoding="utf-8"?>
<!-- Generator: Adobe Illustrator 16.0.0, SVG Export Plug-In . SVG Version: 6.00 Build 0)  -->
<!DOCTYPE svg PUBLIC "-//W3C//DTD SVG 1.1//EN" "http://www.w3.org/Graphics/SVG/1.1/DTD/svg11.dtd">
<svg version="1.1" id="Capa_1" xmlns="http://www.w3.org/2000/svg" xmlns:xlink="http://www.w3.org/1999/xlink" x="0px" y="0px"
	 width="330px" height="75px" viewBox="0 0 330 75" style="enable-background:new 0 0 330 75;" xml:space="preserve">
<style type="text/css">
<![CDATA[
	.st0{fill:none;stroke:#FFFFFF;stroke-width:0.75;stroke-linecap:round;stroke-linejoin:round;stroke-miterlimit:22.9256;}
	.st1{fill-rule:evenodd;clip-rule:evenodd;fill:#FFFFFF;}
]]>
</style>
<path class="st0" d="M330,3.9L287,4c-4.8,15.4-20.2-3.6-26.6-3.6c-2.4,0-4.4,1.2-5.3,4.1c-1.2,4,2.8,6.8,5.1,4.8
	c1.9-1.6,0.8-4.3-1.7-3.7"/>
<path class="st1" d="M258.7,7.5c-0.5,0-1-0.5-1-1c0-0.6,0.4-1,1-1c0.5,0,1,0.5,1,1C259.7,7,259.3,7.5,258.7,7.5"/>
<path class="st0" d="M0,3.9L223,4c4.8,15.4,20.2-3.6,26.6-3.6c2.4,0,4.4,1.2,5.3,4.1c1.2,4-2.8,6.8-5.1,4.8
	c-1.9-1.6-0.8-4.3,1.7-3.7"/>
<path class="st1" d="M251.3,7.5c0.5,0,1-0.5,1-1c0-0.6-0.4-1-1-1c-0.5,0-1,0.5-1,1C250.3,7,250.7,7.5,251.3,7.5"/>
<path class="st1" d="M115.7,53.2c-0.2,0-0.4,0-0.7,0c0,0.2-0.1,0.4-0.1,0.6C115.1,53.6,115.3,53.3,115.7,53.2z M221.8,58.5
	c0-0.2,0-0.4,0-0.7c-0.2,0-0.4-0.1-0.7-0.1C221.4,58,221.6,58.2,221.8,58.5z M189.2,37.7c-0.1-0.2-0.2-0.4-0.4-0.5
	c-0.2,0.1-0.4,0.2-0.6,0.2C188.5,37.4,188.8,37.5,189.2,37.7z M150.5,35.8c-0.2-0.1-0.5-0.2-0.8-0.4c-0.2,0.2-0.4,0.4-0.5,0.7
	C149.6,35.9,150,35.8,150.5,35.8z M120.8,59.5c-2.1-0.2-3.2-3-1.8-2.5C120,57.3,120.8,58.3,120.8,59.5z M119,57.5
	c0.2,0.4,0.5,0.7,0.8,0.9C119.6,58,119.3,57.7,119,57.5z M215.4,63.6c0.2-2.1,3.1-3.2,2.6-1.8C217.6,62.8,216.6,63.5,215.4,63.6z
	 M217.4,61.8c-0.4,0.2-0.7,0.5-0.9,0.8C216.9,62.4,217.2,62.1,217.4,61.8z M186.2,45.2c-0.8-1.9,1-4.3,1.3-2.8
	C187.7,43.4,187.2,44.6,186.2,45.2z M187,42.7c-0.2,0.3-0.4,0.7-0.4,1.1C186.9,43.5,187,43.1,187,42.7z M151.6,43.7
	c-1.7-1.2-1.3-4.2-0.3-3.1C152,41.4,152.1,42.7,151.6,43.7z M151,41.1c0,0.4,0.1,0.8,0.3,1.2C151.3,41.9,151.2,41.5,151,41.1z
	 M194.6,48.1c2.4,1.1,4.4,3.6,5.1,8c4.3-1.2,7.4-0.5,9.5,1.2c2.7-0.6,5-0.9,6.9-1.1c-2.8-1.1-5.6-3.8-7.4-9
	c-2.2-6.5-1.6-1.3-10.5-3.1c-2.1-0.3-4-1.2-5.5-2.6C193.4,43.2,194,45.4,194.6,48.1z M160.3,42c2.7-0.2,5.7,1,8.5,4.4
	c3.1-3.2,6.2-4.1,8.8-3.7c2.1-1.8,3.9-3.3,5.4-4.3c-3,0.4-6.8-0.5-10.9-4.1c-3.7-3.3-1.4-3.2-5.5-0.2c-4.3,3.1-8.2,3.8-11.3,3.2
	C156.8,38.4,158.4,40,160.3,42z M127.5,53.7c2.2-1.5,5.4-2,9.6-0.3c1-4.3,3.3-6.6,5.8-7.5c0.9-2.6,1.7-4.8,2.5-6.4
	c-2.4,1.9-6.2,2.9-11.6,1.8c-4.9-1-2.9-2.1-4.9,2.5c-2.1,4.9-5.2,7.4-8.1,8.3C122.7,52.3,124.9,52.9,127.5,53.7z M142.5,47.2
	c-2.1,1.1-3.9,3.4-4.7,7.5c-3.8-1.7-6.8-1.5-8.9-0.5c3,0.9,6.5,2.2,10.5,3.6C140.5,53.6,141.5,50.1,142.5,47.2z M176.6,43.7
	c-2.4-0.1-5.1,1.1-7.8,4.2c-2.5-3.3-5.1-4.7-7.4-4.8c2.1,2.3,4.5,5.1,7.3,8.3C171.6,48.4,174.3,45.8,176.6,43.7z M207.8,57.5
	c-2-1.2-4.9-1.6-8.9-0.3c-0.5-4.1-2-6.6-4-7.8c0.7,3,1.3,6.6,2.1,10.8C201.2,59.1,204.8,58.2,207.8,57.5z M126.7,54.3
	c-3.2-0.8-6.4-1.3-9.7-1.2c-0.5,0.2-1,0.4-1.4,0.7c-0.3,0.4-0.6,0.9-0.9,1.4c-0.3,3.2-0.1,6.4,0.4,9.6c2.5-2.3,6.4-2.8,9.1-1.7
	C123.3,60.4,124.1,56.6,126.7,54.3z M159.3,42.2c-2.4-2.3-4.9-4.3-7.8-5.9c-1-0.1-1.9,0-2.9,0.5c-2,2.7-3.5,5.6-4.7,8.7
	c3.3-0.7,6.9,0.7,8.7,3C153.3,45.8,155.9,42.9,159.3,42.2z M193.6,47.7c-0.9-3.1-2.1-6.1-3.8-8.9c-0.4-0.3-0.9-0.6-1.4-0.8
	c-0.5-0.1-1.1-0.1-1.6-0.1c-3,1.3-5.7,3.1-8.2,5.1c3.3,1,5.6,4,6,6.9C186.6,47.8,190.4,46.7,193.6,47.7z M220.6,69.4
	c0.8-3.1,1.3-6.3,1.2-9.5c-0.2-0.5-0.4-1-0.7-1.4c-0.4-0.3-0.9-0.6-1.4-0.9c-3.3-0.3-6.5-0.1-9.7,0.4c2.3,2.5,2.8,6.3,1.7,8.9
	C214.5,66.1,218.3,66.9,220.6,69.4z M130.8,67.9c-0.8,0-1.8-0.2-2.8-0.7c0.4,1,0.5,2,0.4,2.8c0.4-0.3,1-0.5,1.6-0.6
	C130.2,68.8,130.5,68.3,130.8,67.9z M206.9,73.4c0-0.8,0.2-1.8,0.7-2.7c-1,0.4-2,0.5-2.8,0.4c0.3,0.4,0.5,0.9,0.7,1.5
	C206,72.8,206.4,73.1,206.9,73.4z M183.8,58c-0.4-0.7-0.7-1.6-0.8-2.7c-0.7,0.8-1.5,1.4-2.2,1.8c0.5,0.2,0.9,0.6,1.3,1
	C182.7,57.9,183.3,57.9,183.8,58z M155.9,55.9c-0.7-0.4-1.4-1.1-2.1-2c-0.2,1.1-0.6,2-1,2.6c0.5,0,1.1,0,1.7,0.2
	C155,56.4,155.5,56.1,155.9,55.9z M149.2,69c5.2,1.8,11.4,0.5,15.3-3.3c-2.2,1.7-5.1,2.3-7.8,1.1C154.8,69,152,69.7,149.2,69z
	 M189.9,69.4c-6.9,5.3-18.2,1.7-20.8-6.5c-0.5-1-0.8-1.9-0.9-2.5c-0.2,0.6-0.5,1.4-1.1,2.4c-3.3,8-14.9,10.4-21.3,4.7
	c-1-0.7-1.6-1.2-2.1-1.7c0.1,0.6,0.3,1.5,0.3,2.6c0.3,2.2,0,4.3-0.9,6.2h-0.8c0.4-0.8,0.7-1.6,0.9-2.4c-0.4,0.9-0.9,1.7-1.5,2.4
	h-1.3c3.6-2.9,4.2-9.6-0.3-13.5c1.2,0.9,1.9,1.6,2.3,2.1c-0.2-0.6-0.4-1.6-0.5-3.1c0.9,7.7,10.9,11.1,14.6,5.4
	c5.8,3.5,13.5-3.6,10.9-11c0.6,1.4,0.8,2.3,0.9,3c0.1-0.6,0.4-1.6,1.1-2.9c-3.2,7.1,3.8,15,9.9,11.9c3.2,5.9,13.5,3.5,15.1-4.1
	c-0.2,1.4-0.5,2.4-0.7,3c0.4-0.5,1.2-1.2,2.5-1.9c-3.8,2.8-4.6,7.6-3.1,11.1h-0.9c0-0.1-0.1-0.2-0.1-0.3c0,0.1,0,0.2,0.1,0.3h-0.6
	c-0.2-1.3-0.1-2.7,0.2-4.1c0.1-1.1,0.3-2,0.5-2.6C191.6,68.3,190.9,68.8,189.9,69.4z M171.3,66c3.5,4.1,9.6,6,14.9,4.7
	c-2.8,0.4-5.6-0.5-7.3-2.8C176.2,68.8,173.4,67.9,171.3,66z M194.7,63.8c3.6-1.8,0.5,1.2-0.2-1.8C194.7,62.6,194.7,63.2,194.7,63.8z
	 M168.4,55.6c2.2-3.4,1,0.8-1.1-1.4C167.7,54.6,168.1,55.1,168.4,55.6z M141.4,61.5c0.2-4,1.2,0.2-1.7-0.7
	C140.3,60.9,140.9,61.2,141.4,61.5z M148.2,74.6c0-0.1,0-0.1,0-0.2c0.1,0.1,0.3,0.1,0.4,0.2H148.2z M165.7,74.6c0.1-1.4,0.7-3,2-4.4
	c1.1,1.4,1.6,3,1.6,4.4h-1c0-2.2-0.8-3.8-1.5-0.6c0,0.2-0.1,0.4-0.1,0.6H165.7z M151.3,71.6c0.4,0.1,0.8,0.1,1.4,0.2
	c3.8,0.6,6.3,0.9,10.9-2.9c-3.5,2.6-8.1,3.6-12.4,2.6L151.3,71.6z M190.8,74.6c-0.1-1.9-0.1-3.3,0.3-5.2c-2.2,1.7-3.9,2-6.9,3.4
	c-4.5,0.5-9.9-1.3-13.2-4.5c3.2,3.5,8.2,5.2,12.8,4.6c-5.9,1-7.9-0.4-10.9-2.8c-0.8-0.6-1.4-1.1-1.7-1.3c-0.6-1.2-1.2-2.5-2-3.9
	c-1.8-3.4-0.3-3.3-2.4-0.1c-0.8,1.2-1.5,2.3-2.1,3.4c-0.1,0-0.1,0.1-0.2,0.1l0.1-0.1c-3.4,2.8-8.9,4.2-13.5,3.3
	c-2.8-1.6-4.5-2.2-6.5-4c0.3,2.6-0.1,4.2-0.4,7.2h0.8c0.1-1.7,0.3-3.2,0.3-4.4c0-2.1-0.5-1.8,1.2-0.6c1.6,1.1,4.9,2.6,7.8,5h1.4
	c-0.8-0.6-1.7-1.3-2.8-2.1c-0.4-0.2-0.7-0.5-1.1-0.7c1.9,0.3,4.7,0.8,6.3,0.9c2.8-1.5,5.2-3.2,6.3-4.2c-1.5,2.5-2.5,4.5-3.2,6h0.4
	c1.5-4,4.2-7.2,5.7-9.6c1.1-1.8,0.5-1.8,1.4,0.1c0.9,1.9,3.4,5.4,4.6,9.5h0.4c-0.5-1.5-1.3-3.3-2.3-5.5c1.3,1.1,4.1,3.5,5.8,4.5
	c2.5,0.1,4.8-0.1,6.4-0.4c-0.4,0.2-0.8,0.4-1.2,0.6c-0.5,0.3-0.9,0.5-1.4,0.8h1.6c2.4-1.4,4.8-2.3,6.4-3.2c1.8-1,1.4-1.3,1.2,0.7
	c0,0.6,0,1.5,0,2.4H190.8z M87.8,74.6c0.8-0.5,1.8-0.6,3.1,0H87.8z M132.3,74.6c0-0.2,0-0.3-0.1-0.5c-0.2,0.3-0.8,0.4-1,0
	c-0.4-0.7,0.6-1.3,1.1-0.7c0.1,0.2,0.1,0.5,0,0.6C132.4,74.2,132.4,74.4,132.3,74.6L132.3,74.6z M200.4,74.6
	c-0.1-0.2-0.1-0.5,0.2-0.7c0.6-0.4,1.1,0.3,0.9,0.7H200.4z M215.6,74.6c0.1-1.7-1.3-3.1-3-2.8c0.3,0.3,0.3,0.9-0.3,1
	c-0.8,0.2-1.1-1-0.3-1.2c0.2-0.1,0.4,0,0.6,0.1c1.7-0.5,3.4,1,3.4,2.8H215.6z M240.6,74.6c0.5-0.2,1-0.2,1.6,0H240.6z M129.2,38.4
	c5.5,1.1,7.9-1.4,7.7-3.8c-0.5-4.9-6.7-1.7-4.4,0.6c0.1-0.4,0.5-0.7,0.9-0.4c0.7,0.4,0.1,1.5-0.6,1.1c-0.3-0.1-0.3-0.4-0.3-0.6
	c-2.2-1.7,1.5-5.8,4.4-2.8c1.7,1.7,1.1,4.5-0.8,6c-1.5,1.2-3.4,1.3-4.7,1.2c19.5,5.4,19.8-13.9,10.2-11.9c-3.5,0.8-3.6,5.3-0.1,5.7
	c-0.2-0.4,0.3-1,0.8-0.7c0.7,0.4,0.1,1.3-0.5,1c-0.1-0.1-0.2-0.1-0.2-0.2c-9.1,0.3,2.2-13,6.7-2.9c0.6,1.4,0.6,3.3-0.1,5.1
	c0.9-0.6,1.8-0.8,2.9-0.7c-2.3-2.3-2.9-5.8-0.9-8.3c4.6-5.9,10.9,1.3,6,3.7c0,0.1,0,0.2-0.1,0.3c-0.4,0.6-1.3-0.1-0.9-0.7
	c0.4-0.5,1-0.1,1,0.3c5-2.9-3.7-9.4-6.2-1.6c-1.6,5.1,6.4,12.9,18,3c-6.8,3.5-10.6-3.7-6.6-6c2.2-1.3,4.6,0.6,3.8,2.4
	c0.1,0.2,0.1,0.4,0,0.7c-0.5,0.7-1.5-0.1-1-0.7c0.3-0.4,0.7-0.3,1,0c0.5-1.9-2.6-3.3-4-1.2c-1.8,2.9,2.1,7.4,8.3,2.8
	c4.2,3.7,7.6,2.7,8.6,0.5c2.1-4.4-4.9-4.8-4.1-1.7c0.3-0.3,0.7-0.3,1,0.1c0.4,0.7-0.6,1.3-1.1,0.6c-0.2-0.2-0.1-0.5,0-0.7
	c-1-2.6,4.3-4.3,5.2-0.2c0.6,2.3-1.3,4.5-3.7,4.8c-1.9,0.3-3.6-0.5-4.7-1.2c14.1,14.3,24.2-2.2,14.9-5.3c-3.4-1.1-5.9,2.8-3,4.9
	c0.1-0.4,0.7-0.7,1-0.2c0.4,0.6-0.6,1.2-1,0.6c-0.1-0.1-0.1-0.2-0.1-0.3c-8-4.2,8.5-10.1,7.3,0.7c-0.2,1.5-1.1,3.1-2.6,4.4
	c1.1-0.1,2.1,0.2,2.9,0.9c-3.3-10.3,13.4-10,9.6-3.1c-0.5,1-1.5,1.6-2.9,1.5c-0.1,0.1-0.1,0.2-0.3,0.2c-0.7,0.3-1.1-0.7-0.4-1
	c0.5-0.2,0.9,0.4,0.7,0.8c5.8,0,1.6-10-4.6-4.4c-3.9,3.5-1.2,14.4,14.1,11.5c-7.7-0.3-7.3-8.4-2.7-8.5c2.5-0.1,3.7,2.8,2.1,4
	c0,0.2-0.1,0.4-0.4,0.6c-0.8,0.3-1.3-0.8-0.5-1.1c0.4-0.2,0.8,0.1,0.9,0.5c1.4-1.4-0.6-4.2-2.8-3c-3.1,1.6-2,7.4,5.8,6.5
	c1.8,5.3,5.2,6.1,7.2,4.7c4-2.8-1.9-6.6-2.7-3.5c0.4-0.1,0.8,0.1,0.8,0.6c0,0.8-1.2,0.8-1.3,0c0-0.3,0.1-0.5,0.3-0.6
	c0.4-2.7,5.9-1.7,4.6,2.4c-0.7,2.3-3.4,3.2-5.6,2.3c-1.8-0.7-2.8-2.2-3.4-3.4c4.9,19.3,22.1,10,15.6,2.7c-2.4-2.6-6.5-0.4-5.1,2.8
	c0.3-0.4,1-0.3,1,0.3c0,0.7-1.1,0.8-1.1,0c0-0.1,0-0.2,0.1-0.3c-4.8-7.6,12.5-4.6,5.9,4.2c-0.9,1.2-2.6,2.2-4.5,2.5
	c1,0.4,1.7,1.1,2,2.1c0.9-3.1,3.6-5.3,6.9-4.9c7.6,1,4.3,9.9-0.2,6.9c-0.1,0-0.2,0.1-0.3,0c-0.7-0.1-0.6-1.2,0.1-1.1
	c0.6,0.1,0.6,0.8,0.2,1c5,2.8,6.4-7.9-1.7-6.1c-5.3,1.2-8.2,11.9,6.4,16.9c-6.5-4-2-10.8,2-8.7c2.2,1.2,1.8,4.3-0.2,4.5
	c-0.1,0.2-0.3,0.3-0.6,0.3c-0.8-0.1-0.7-1.3,0.1-1.2c0.5,0.1,0.6,0.5,0.5,0.8c1.9-0.5,1.6-3.9-1-4c-3.5-0.1-5.5,5.5,1.7,8.5
	c-0.2,1-0.3,1.9-0.3,2.7h-1c0-0.2,0-0.4,0-0.5c-0.1,0.2-0.1,0.4-0.2,0.5h-1c0.8-2.5,0.9-1.3-3-3c-4.9-2.1-7.5-5.1-8.4-8
	c-0.3,1.8-0.9,4-1.7,6.6c0.8,1.2,1.3,2.6,1.4,4.4h-1c0-1.2-0.3-2.2-0.8-3c-0.3,1-0.7,2-1,3H219c0.5-1.3,0.9-2.6,1.3-4
	c-2.5-3.3-7.6-3.9-10.2-1.7c-2.3,1.9-2.7,3.8-2.3,5.4c0.1,0.1,0.1,0.2,0.2,0.2h-1.1c-0.5-0.6-1.3-1-2.3-1.2c-0.1-1.1-0.6-2-1.3-2.6
	c-0.5-0.2-0.9-0.4-1.2-0.8c-1.1-0.4-2.4-0.2-3.3,0.6c-1.4,1.3-1,3.2,0.1,4h-0.4c-0.8-0.6-1.3-1.7-0.9-3c0.4-1.6,2-2.5,3.7-2.4
	c-1.7-2.4-1.3-6.2,1.9-6.9c2.5-0.6,4.5,1.5,3.7,3.5c0.1,0.1,0.2,0.3,0.1,0.6c-0.3,0.8-1.5,0.3-1.2-0.4c0.2-0.5,0.8-0.5,1.1-0.2
	c0.5-1.9-1.4-3.7-3.6-3.1c-3.5,1-3,4.9-0.7,6.8c0.4,0.2,0.9,0.4,1.2,0.7c1.6,0.6,3.6,0.3,5.7-1.7c2.5-2.4,2.4-7.5-0.8-10.2
	c-2.5,0.5-5,1.1-7.5,1.8c-6.1,1.7-4.8,2.3-5.8-3.6c-0.4-2.5-0.9-5-1.5-7.5c-3.8-1.7-8.6,0.4-9.7,3.6c-1,2.7-0.4,4.7,0.8,5.8
	c0.5,0.2,0.9,0.5,1.2,0.8c2.7,1.3,6.6,0,6-3.5c-0.3-2.2-2.8-3.2-4.3-1.9c0.4,0.1,0.7,0.6,0.3,1c-0.6,0.6-1.5-0.3-0.9-0.9
	c0.2-0.2,0.4-0.2,0.6-0.2c1.5-1.5,4.3-0.6,4.8,1.9c0.7,3.2-2.6,5.2-5.6,4.7c0.8,1.5,0.6,3.3-0.7,4.4c-1.8,1.5-4.3,0.5-4.4-1.4
	c-0.2-0.1-0.3-0.3-0.3-0.6c0.1-0.8,1.3-0.7,1.2,0.2c-0.1,0.5-0.6,0.6-0.9,0.5c0.3,2.2,3.9,2.4,4.7-0.1c0.3-1.2,0-2.4-0.8-3.2
	c-0.4-0.2-0.9-0.5-1.2-0.8c-0.8-0.3-1.8-0.4-2.9,0c-0.7-0.9-1.6-1.4-2.4-1.6c-0.5,0.1-1,0-1.5,0c-1.2,0.2-2.2,1-2.6,2.2
	c-0.8,2.5,2.2,4.4,3.8,2.8c-0.4-0.1-0.7-0.4-0.5-0.9c0.4-0.7,1.5-0.2,1.1,0.6c-0.1,0.2-0.3,0.3-0.6,0.3c-1.2,1.5-3.8,0.9-4.4-1.3
	c-0.5-1.6,0.5-3.2,2-4c-2.7-1.2-4.2-4.7-1.8-6.9c1.8-1.7,4.6-0.9,5,1.2c0.2,0.1,0.3,0.2,0.4,0.5c0.1,0.8-1.1,1-1.2,0.2
	c-0.1-0.5,0.4-0.8,0.8-0.7c-0.5-1.9-3.1-2.5-4.7-0.9c-2.5,2.5-0.1,5.7,2.9,6.2c0.5-0.1,1-0.1,1.4,0c1.7-0.3,3.3-1.5,4-4.3
	c0.9-3.3-1.7-7.7-5.9-8.4c-1.9,1.6-3.8,3.4-5.6,5.2c-4.4,4.5-3,4.4-6.8-0.3c-1.6-2-3.3-3.9-5.1-5.7c-4.2,0.4-7.2,4.6-6.6,7.9
	c0.5,2.9,2,4.2,3.6,4.6c0.5,0,1,0,1.4,0.1c3-0.2,5.7-3.2,3.4-6c-1.4-1.8-4.1-1.4-4.7,0.5c0.4-0.1,0.9,0.2,0.8,0.8
	c-0.2,0.8-1.4,0.5-1.2-0.3c0.1-0.2,0.2-0.4,0.4-0.4c0.5-2,3.4-2.6,5.1-0.7c2.2,2.4,0.4,5.8-2.4,6.8c1.4,0.9,2.2,2.5,1.6,4.1
	c-0.8,2.2-3.5,2.6-4.5,1c-0.2,0-0.4-0.1-0.5-0.4c-0.3-0.7,0.8-1.2,1.2-0.5c0.2,0.5-0.2,0.8-0.6,0.8c1.4,1.8,4.5,0.2,4-2.4
	c-0.3-1.2-1.2-2.1-2.4-2.4c-0.5,0-1,0-1.5-0.1c-0.9,0.1-1.8,0.6-2.5,1.4c-1.1-0.4-2.1-0.5-2.9-0.2c-0.4,0.3-0.8,0.5-1.3,0.7
	c-0.9,0.8-1.4,1.9-1.1,3.2c0.6,2.6,4.1,2.7,4.7,0.5c-0.4,0.1-0.9,0-0.9-0.5c0-0.8,1.2-0.9,1.2-0.1c0,0.3-0.1,0.5-0.3,0.6
	c-0.2,1.9-2.8,2.6-4.5,1c-1.2-1.2-1.2-3-0.3-4.4c-3,0.3-6.1-2-5.1-5.1c0.7-2.4,3.6-3.1,4.9-1.5c0.2,0,0.4,0,0.5,0.2
	c0.5,0.6-0.4,1.4-1,0.8c-0.4-0.4,0-0.9,0.4-1c-1.4-1.4-4-0.6-4.5,1.6c-0.9,3.4,2.9,5,5.7,4c0.4-0.3,0.8-0.5,1.3-0.7
	c1.3-1,2.1-2.9,1.3-5.7c-0.9-3.3-5.4-5.8-9.3-4.4c-0.9,2.4-1.6,4.8-2.2,7.3c-1.6,6.1-0.4,5.2-6.1,3.1c-2.4-0.9-4.9-1.8-7.3-2.4
	c-3.4,2.4-3.9,7.5-1.7,10.1c1.9,2.2,3.9,2.7,5.5,2.2c0.4-0.3,0.9-0.5,1.3-0.6c2.5-1.7,3.3-5.6-0.1-6.8c-2.1-0.8-4.2,0.8-3.9,2.7
	c0.3-0.3,0.9-0.3,1,0.3c0.2,0.8-1,1.1-1.2,0.3c-0.1-0.2,0-0.4,0.1-0.6c-0.6-2,1.6-3.9,4-3.1c3.2,1,3.2,4.8,1.3,7.1
	c1.7,0.1,3.2,1.1,3.5,2.8c0.4,2.3-1.7,3.9-3.4,3c-0.2,0.1-0.4,0.1-0.6-0.1c-0.7-0.5,0.1-1.5,0.8-1c0.4,0.3,0.3,0.8-0.1,1
	c2.1,0.8,4-2.1,2.2-4.1c-0.8-0.9-2.1-1.2-3.3-0.9c-0.4,0.3-0.8,0.5-1.3,0.7c-0.7,0.5-1.2,1.4-1.5,2.5c-1.1,0.1-2,0.6-2.6,1.2
	c-0.2,0.5-0.5,0.9-0.8,1.2c-0.2,0.6-0.3,1.3-0.1,1.9h-0.7c-0.1-0.4-0.1-0.8-0.1-1.1c-2.4,1.7-6.3,1.3-7-1.9
	c-0.6-2.4,1.5-4.4,3.5-3.7c0.1-0.1,0.3-0.2,0.6-0.1c0.8,0.3,0.3,1.4-0.4,1.2c-0.5-0.2-0.5-0.8-0.2-1.1c-1.9-0.5-3.8,1.4-3.1,3.6
	c1,3.4,5,2.9,6.9,0.7c0.2-0.4,0.4-0.9,0.7-1.2c0.6-1.5,0.3-3.5-1.8-5.6c-2.4-2.4-7.6-2.3-10.3,0.8c0.5,2.5,1.1,4.9,1.8,7.4
	c0.1,0.4,0.2,0.8,0.3,1.2h-0.9c-0.8-2.8-1.4-5.4-1.9-7.7c-1.1,1.8-1.5,4.3-0.6,7.7h-1c-1.1-4-0.4-7,1.3-9c-0.6-2.7-1-4.9-1.1-6.8
	c-1.1,2.8-3.9,5.5-9.1,7.3c-6.1,2-2,1.6-2.8,8.5h-1.1c0.2-1.8,0.1-3.9-0.4-6.4c-0.3,7.5-8.5,7.2-8.6,2.6c-0.1-2.5,2.9-3.6,4.1-2
	c0.2,0,0.5,0.1,0.6,0.4c0.3,0.7-0.8,1.2-1.1,0.5c-0.2-0.4,0.1-0.8,0.5-0.8c-1.4-1.4-4.2,0.6-3,2.8c1.6,3,7.5,1.9,6.6-5.7
	c5.4-1.7,6.1-5.1,4.7-7.1c-2.9-4-6.7,1.8-3.6,2.7c-0.1-0.3,0.1-0.8,0.6-0.8c0.8,0,0.9,1.2,0,1.2c-0.3,0-0.5-0.1-0.6-0.3
	c-2.8-0.4-1.7-5.8,2.4-4.6c2.3,0.7,3.3,3.4,2.4,5.5c-0.7,1.8-2.3,2.8-3.4,3.4c19.6-4.9,10.1-21.8,2.8-15.4c-2.7,2.4-0.5,6.4,2.8,5
	c-0.4-0.3-0.3-1,0.3-1c0.7,0,0.8,1.1,0,1.1c-0.1,0-0.2,0-0.3-0.1c-7.7,4.7-4.7-12.3,4.3-5.8c1.2,0.9,2.2,2.5,2.5,4.4
	c0.4-1,1.2-1.6,2.2-2c-3.2-0.9-5.4-3.6-5-6.8c1-7.4,10.1-4.2,7.1,0.2c0,0.1,0.1,0.2,0.1,0.3c-0.1,0.7-1.2,0.6-1.1-0.1
	c0.1-0.6,0.8-0.6,1-0.2c2.8-4.9-8-6.3-6.2,1.7c1.2,5.2,12.1,8,17.2-6.3c-4.1,6.4-11,2-8.8-2c1.2-2.2,4.3-1.7,4.6,0.2
	c0.2,0.1,0.3,0.3,0.3,0.6c-0.1,0.8-1.3,0.7-1.2-0.1c0.1-0.5,0.5-0.6,0.8-0.5c-0.6-1.9-4-1.6-4,0.9C120.5,43.5,126.2,45.5,129.2,38.4
	z"/>
</svg>
