<?xml version="1.0" encoding="utf-8"?>
<!-- Generator: Adobe Illustrator 16.0.0, SVG Export Plug-In . SVG Version: 6.00 Build 0)  -->
<!DOCTYPE svg PUBLIC "-//W3C//DTD SVG 1.1//EN" "http://www.w3.org/Graphics/SVG/1.1/DTD/svg11.dtd">
<svg version="1.1" id="Capa_1" xmlns="http://www.w3.org/2000/svg" xmlns:xlink="http://www.w3.org/1999/xlink" x="0px" y="0px"
	 width="330px" height="100px" viewBox="0 0 330 100" style="enable-background:new 0 0 330 100;" xml:space="preserve">
<style type="text/css">
<![CDATA[
	.st0{fill:none;stroke:#FFFFFF;stroke-width:0.5;stroke-linecap:round;stroke-linejoin:round;stroke-miterlimit:22.9256;}
	.st1{fill:none;stroke:#FFFFFF;stroke-width:0.75;stroke-linecap:round;stroke-linejoin:round;stroke-miterlimit:22.9256;}
	.st2{fill-rule:evenodd;clip-rule:evenodd;fill:#FFFFFF;}
]]>
</style>
<path class="st0" d="M46.9,49.9h1.6c1.6,0,1.7,2.1,0,2.1H47h1.6c1.6,0,1.9,2.2,0,2.2h-1.6V49.9z"/>
<polyline class="st0" points="54,54.2 51.4,54.2 51.4,49.9 54,49.9 "/>
<line class="st0" x1="51.4" y1="51.9" x2="53.4" y2="51.9"/>
<polyline class="st0" points="58.1,54.4 56.5,50 54.8,54.4 "/>
<line class="st0" x1="55.5" y1="52.7" x2="57.5" y2="52.7"/>
<path class="st0" d="M59,49.9v2.9c0,1.9,3,1.8,3,0v-2.9"/>
<polyline class="st0" points="67.2,49.8 68.7,52 70.2,49.8 "/>
<line class="st0" x1="68.7" y1="54.3" x2="68.7" y2="52"/>
<line class="st0" x1="63.1" y1="49.9" x2="66.6" y2="49.9"/>
<line class="st0" x1="64.8" y1="50" x2="64.8" y2="54.2"/>
<line class="st0" x1="96.9" y1="50" x2="96.9" y2="54.2"/>
<line class="st0" x1="82.9" y1="49.9" x2="86.3" y2="49.9"/>
<line class="st0" x1="84.6" y1="50" x2="84.6" y2="54.2"/>
<path class="st0" d="M92.1,49.9h1.5c2.2-0.1,2.2,4.1,0,4.2h-1.5V49.9z"/>
<ellipse class="st0" cx="100.2" cy="52.1" rx="1.7" ry="2.2"/>
<path class="st0" d="M90.4,49.9v2.9c0,1.7-3,1.9-3,0v-2.9"/>
<path class="st0" d="M81.8,50.6c-1.1-2-4,0.3-1.3,1.4c3.2,0.9,0.1,3.8-1.4,1.3"/>
<path class="st2" d="M107,30.1c-0.5-0.3-2.3-2.7-1.2-3.4C106.7,26.3,107.6,28.9,107,30.1z M125,37.7c-1.3,4.7-3.7,4-3.8-0.1
	c0-0.2,0-0.7,0-0.9c0.2-1.4,0.5-3.1,1.2-4.3c0.7-1.1,1.3-1.8,3.1-1.7C127.2,31.4,125.3,37.2,125,37.7z M61.3,30
	c-1-0.4-1.5-1.2-1.9-2.3c-1.4-3.3,2.1-4,2.3-0.8C61.8,27.9,61.7,29.2,61.3,30z M75.5,43.4c0.1-0.4,0.1-0.7,0.2-1.1
	c0.2-1,0.2-0.8,0.5-1.2c0.9,2.6,1.7,6.2,0.2,9C74.2,54.1,75.4,43.7,75.5,43.4z M16.5,42.1l0.2,0.3c0.6,0,1.2,0.2,1.9,0
	c0.8-0.2,0.7-0.6,0.9-1.2c0.4-2.5,2.4-7.3,3.4-9.4c1.1-2.2,3-6.7,5.9-6.2c1.5,1.7,0.4,4.8-0.1,6.6c-0.4,1.5-1.8,4.9-1.9,6
	c1.9,1,3,0.7,3.6-1.1c0.8-2.1,5-14.1,8.2-13.5c1.5,2.8-4,14.9-3.5,20.6c1.4,6.6,7.7-1.6,9-3.9c0.3-0.5,0.1-0.2,0.3-0.4
	c0.4,0.7,0.6,1.3,1,1.9c0.3,0.4,0.3,0.4,0.8,0.7c1.1,0.8,2.3,0.7,3.3-0.4c0.4-0.4,1-1.3,1.2-2.1l0.4-1.1c0.2,0.3,0-0.3,0.3,0.5
	c0.1,0.3,0,0.4,0.1,0.6c0.3,2.5,2.7,4.7,5.4,1.5c1.6-1.9,3.5-6,4.2-8.5l1.5,0.2c-0.2,0.8-0.9,2.7-1.2,3.4c-0.4,1.9-1,3.3-1.2,5.4
	c-0.1,1.1-0.1,2.2,0.2,3.3c0.8,2.8,3.7,2.9,5.3,0.4c0.8-1.2,1.3-3.2,2-4.1c1.3,1,3.5,2.5,5.1-0.6l0.5-1.2c0.3,0.5,0.2-0.6,0.2,0.5
	c0,2.3-1.7,6-1,9.3c0.7,3.4,3.8,3.4,5.1,0.1c1-2.7,0.7-6.3-0.3-8.9c-0.7-1.8-0.9-1.4-0.4-3.6c0.3-1.1,0.9-3.4,0.9-4.3L77,32.5
	l-2.4-0.1c-0.5,1.5-0.4,3.7-1,5.2c-2.3,6.2-5.1,2.9-2.8-3.7c0.3-1,1-2.2,1.6-2.9c2.3-2.9,2.7-0.8,3.6-0.2c1.4-2.7-3.2-2-4.4-1.3
	c-2.6,1.4-4.2,4.5-4.6,7.3c-0.4,3.3,1.3,2.4-1,7c-2.2,4.4-4.2,1.5-1.4-7.2c0.3-1.1,1.6-3.2,1.4-4.2c-0.1-0.6-0.7-1.2-1.3-1.4
	c-0.7-0.3-1.1-0.1-1.8-0.2c-1.9-0.4,2.4-7.8-3.5-6.7c-1.6,0.9-1.4,2.2-0.9,4.7c0.2,0.7,0.5,1.4,0.9,2c0.5,0.7,0.8,1.2,1.5,1.3
	c-0.1,2-3.4,9.4-5.8,9.2c-1.4-1.7-0.5-6.5,0.2-8.8c0,0,0.2-0.5,0.2-0.5c0.4-0.9,0.9-1.8-0.4-2.2c-0.4-0.1-1.2-0.2-1.5-0.1
	c-0.8,0.2-0.2-0.2-0.7,0.6c-1.8-1.4-3.2-1.3-5,0c-4,2.9-2.2,6.3-3.7,8.8c-0.5,0.8-5,7.8-5.7,4.5c-0.2-0.9,0.4-3.7,0.7-4.6
	c1.2-4.8,3.2-10,3-14.9l-0.2-1.2c-1.7-2.2-3-1.9-4.7,0.1c-0.2,0.2-0.4,0.4-0.5,0.6c-0.3,0.4-0.5,0.7-0.9,1.2
	c-0.7,1.1-1.3,2.1-1.9,3.3c-0.6,1.1-1,2.5-1.8,3.4c0.3-2.7,1.8-6.2-0.9-7.8c-6-0.7-7.8,7.2-9.4,9.3c0.2-1.5,2.2-8.2,2.9-10.5
	c0,0,0.2-0.7,0.2-0.7c0.1-1,0-0.4-0.2-0.7C24,21,20,20.7,17.5,22.9c-1.3,1.1-2.8,3.7-2.4,6.4c2,0.3,1.8,0.1,1.9-1.5
	c0.2-2.2,1.6-5.5,4.4-5.4C21.3,25.4,15.5,40.6,16.5,42.1z M51.7,35.8c-1.5,7.1-4.7,6.4-4.4,0.9c0.1-0.9,0.2-1.7,0.4-2.6
	c1.2-4.1,5.1-4.8,4.4-1C52,34,51.8,34.9,51.7,35.8z M80.2,33.5c-0.5,2.5-2.2,9,1.1,9.3c2.1,0.2,4-3,4.9-4.5l1.1-1.9
	c0,0,0.1-0.1,0.1-0.1c-0.1,3.7,0.2,8.2,4.8,4.3c0.8-0.7,0.8-1.4,1.4-2c0.1,0.1,0.2,0,0.2,0.1c0,0.1,0.1,0.4,0.1,0.4
	c0.5,2.1,1.2,3.7,3.8,3.9c1.9,0.1,3.2-0.8,4.1-1.6c1.3-1.1,3.8-5,4.4-7.4l0.3-0.6c2.4,0.5,3.1,0.8,5.8,0.5l1.5-0.2
	c-0.3,2.6-3.9,5.2-5.7,6.9c-0.1,2.4,0.1,2,1.5,3.1c0.6,0.5,1.9,1.4,2.1,2.6c-2.6,1.3-4.2,1.8-5.9,4.1c-3.2,4.2-2,8.9,3.5,7.3
	c4.5-1.3,7-5.2,6.3-9.9l-0.6-2c1.3-0.9,2.7-2.9,3.4-4.5c0.4-0.8-0.1-0.3,0.6-0.5l0.3,0.7c2.1,3.9,5.1-0.3,6.1-2.4
	c0.5,4.2,3.1,5.7,5.8,2.3c0.9-1.1,1.5-2.4,2.2-3.7c0.3-0.5,0.4-0.9,0.6-1.4c0.4-0.9,0.9-2,1.1-3l-0.4-0.3c-1,2-3,8.8-5.8,8.7
	c-2.3-2.7,1-9.1,0.6-11.3c-0.4-0.1-1.2-0.4-1.8-0.4c-1,0-1.2,0.6-1.2,0.5c0,0-0.1,0.1-0.2,0.1c-0.7-1.2-2.1-1.2-3.6-0.6
	c-5,2-4,9.2-4.4,9.9c-0.3,1.4-2.2,4.6-3.6,5.1c-1-1.2-2.4-2.5-3.7-3.2c0.2-0.8,0.7-0.9,1.2-1.4c0.5-0.5,0.7-0.7,1.3-1.4
	c0.4-0.5,0.9-1,1.2-1.5c1.1-1.4,2.6-4,1.7-5.8c-1-2.1-5.8,1.3-8.8-1.2c0.4-2.1,0.6-4.4-2.1-4.2c-0.7,0.7-1.2,1.3-1.2,2.7
	c-0.1,3.2,1.5,2.7,1.8,4.8l-1.8,3.2c-3.4,6.6-8.7,4.8-8.3,0.3c1.2-0.4,2-0.3,3.2-1c5-3,3.1-9.1-1.5-7.1c-2.1,0.9-3,2.9-3.7,5.4
	c-0.2,1-0.2,2.7-0.5,3.4c-0.1,0.3-0.5,0.8-0.7,1.1c-0.8,0.9-1.2,1.9-2.5,1.7c-0.2-1.4,0-2.7,0.3-4c0.2-1.1,0.8-3,0.8-4
	c-1,0-1.8-0.4-3.1-0.1l-1,2c-0.3,1.5-3.6,7.7-4.9,6.6c-1-0.8,1.4-8.6,1.7-11c-1.4-0.4-3-0.9-3.3,0.4c0,0.2,0,0.2-0.1,0.4L80.2,33.5z
	 M96.7,35.8c-0.6,0.2-0.2,0.1-0.7,0.1c0.2-2.1,2.5-7.1,5.1-4.9c0.4,1.6-0.2,2.6-1,3.2C99.3,34.8,97.6,35.5,96.7,35.8z M110.6,47.4
	c1.9-0.9,1.7-0.7,2,1.2c0,0.3,0,0.8,0,1.1c0,0.6-0.1,1.1-0.3,1.8c-0.4,2-1.5,3.7-3.3,4.8C103.8,59.2,102.8,51.2,110.6,47.4z"/>
<path class="st1" d="M0,7.2l43-0.1c4.8-15.4,20.2,3.6,26.6,3.6c2.4,0,4.4-1.2,5.3-4.1c1.2-4-2.8-6.8-5.1-4.8
	c-1.9,1.6-0.8,4.3,1.7,3.7"/>
<path class="st2" d="M71.3,3.7c0.5,0,1,0.5,1,1c0,0.6-0.4,1-1,1s-1-0.5-1-1C70.3,4.1,70.7,3.7,71.3,3.7"/>
<path class="st1" d="M330,7.2L107,7.1c-4.8-15.4-20.2,3.6-26.6,3.6c-2.4,0-4.4-1.2-5.3-4.1c-1.2-4,2.8-6.8,5.1-4.8
	c1.9,1.6,0.8,4.3-1.7,3.7"/>
<path class="st2" d="M78.7,3.7c-0.5,0-1,0.5-1,1c0,0.6,0.4,1,1,1c0.5,0,1-0.5,1-1C79.7,4.1,79.3,3.7,78.7,3.7"/>
<path class="st2" d="M43.1,80.3c-0.1,0-0.3,0-0.4,0c0-0.1,0-0.3-0.1-0.4C42.7,80,42.9,80.1,43.1,80.3z M111.8,76.8
	c0,0.1,0,0.3,0,0.4c-0.1,0-0.3,0-0.4,0.1C111.5,77.2,111.6,77,111.8,76.8z M90.6,90.3c-0.1,0.1-0.2,0.2-0.2,0.3
	c-0.1,0-0.3-0.1-0.4-0.1C90.2,90.5,90.4,90.4,90.6,90.3z M65.6,91.5c-0.2,0.1-0.3,0.2-0.5,0.2c-0.1-0.1-0.2-0.3-0.4-0.4
	C65,91.4,65.3,91.5,65.6,91.5z M46.4,76.2c-1.4,0.2-2.1,1.9-1.2,1.6C45.9,77.6,46.4,77,46.4,76.2z M45.2,77.5
	c0.1-0.2,0.3-0.4,0.5-0.6C45.7,77.1,45.5,77.3,45.2,77.5z M107.6,73.5c0.2,1.3,2,2.1,1.7,1.2C109.1,74.1,108.4,73.6,107.6,73.5z
	 M108.9,74.7c-0.2-0.1-0.4-0.3-0.6-0.5C108.6,74.3,108.8,74.5,108.9,74.7z M88.7,85.4c-0.5,1.2,0.7,2.8,0.9,1.8
	C89.7,86.6,89.4,85.8,88.7,85.4z M89.2,87.1c-0.2-0.2-0.2-0.5-0.2-0.7C89.2,86.5,89.2,86.8,89.2,87.1z M66.3,86.4
	c-1.1,0.8-0.8,2.7-0.2,2C66.6,87.9,66.7,87.1,66.3,86.4z M65.9,88.1c0-0.3,0-0.5,0.2-0.8C66.1,87.6,66.1,87.8,65.9,88.1z M94.2,83.6
	c1.6-0.7,2.9-2.3,3.3-5.2c2.8,0.8,4.8,0.3,6.1-0.7c1.8,0.4,3.2,0.6,4.5,0.7c-1.8,0.7-3.6,2.5-4.8,5.8c-1.4,4.2-1,0.8-6.8,2
	c-1.3,0.2-2.6,0.8-3.5,1.7C93.4,86.7,93.8,85.3,94.2,83.6z M72,87.5c1.7,0.1,3.7-0.6,5.5-2.9c2,2.1,4,2.6,5.7,2.4
	c1.3,1.2,2.5,2.1,3.5,2.8c-2-0.3-4.4,0.3-7.1,2.7c-2.4,2.1-0.9,2.1-3.6,0.2c-2.8-2-5.3-2.5-7.3-2.1C69.7,89.8,70.8,88.8,72,87.5z
	 M50.8,79.9c1.4,1,3.5,1.3,6.2,0.2c0.7,2.8,2.1,4.3,3.7,4.9c0.6,1.7,1.1,3.1,1.6,4.2c-1.5-1.2-4-1.9-7.5-1.2
	c-3.1,0.6-1.9,1.4-3.2-1.6c-1.4-3.1-3.3-4.8-5.3-5.4C47.6,80.8,49.1,80.5,50.8,79.9z M60.4,84.2c-1.3-0.7-2.5-2.2-3-4.8
	c-2.5,1.1-4.4,1-5.7,0.3c1.9-0.6,4.2-1.4,6.8-2.3C59.2,80,59.8,82.2,60.4,84.2z M82.5,86.4c-1.5,0-3.3-0.7-5.1-2.7
	c-1.6,2.1-3.3,3-4.8,3.1c1.4-1.5,2.9-3.3,4.7-5.4C79.3,83.4,81,85,82.5,86.4z M102.7,77.4c-1.3,0.8-3.2,1-5.8,0.2
	c-0.3,2.6-1.3,4.2-2.6,5.1c0.4-2,0.9-4.3,1.4-7C98.4,76.4,100.7,77,102.7,77.4z M50.2,79.5c-2.1,0.5-4.1,0.8-6.3,0.8
	c-0.3-0.1-0.7-0.3-0.9-0.5c-0.2-0.2-0.4-0.6-0.6-0.9c-0.2-2.1-0.1-4.1,0.3-6.2c1.6,1.5,4.1,1.8,5.9,1.1C48.1,75.6,48.6,78,50.2,79.5
	z M71.3,87.4c-1.5,1.5-3.2,2.8-5.1,3.8c-0.6,0.1-1.3,0-1.8-0.4c-1.3-1.7-2.2-3.6-3-5.6c2.2,0.5,4.5-0.5,5.6-1.9
	C67.4,85.1,69.1,86.9,71.3,87.4z M93.5,83.8c-0.6,2-1.3,3.9-2.4,5.7c-0.3,0.2-0.6,0.4-0.9,0.5c-0.3,0.1-0.7,0.1-1.1,0
	c-1.9-0.9-3.7-2-5.3-3.3c2.1-0.6,3.6-2.6,3.9-4.5C89,83.7,91.4,84.5,93.5,83.8z M111,69.8c0.5,2,0.8,4.1,0.8,6.2
	c-0.1,0.3-0.3,0.6-0.5,0.9c-0.2,0.2-0.6,0.4-0.9,0.6c-2.1,0.2-4.2,0.1-6.3-0.3c1.5-1.6,1.8-4,1.1-5.8C107,71.9,109.5,71.4,111,69.8z
	 M52.9,70.7c-0.5,0-1.2,0.1-1.8,0.4c0.3-0.7,0.3-1.3,0.3-1.8c0.3,0.2,0.6,0.3,1,0.4C52.5,70.2,52.7,70.5,52.9,70.7z M102.1,67.2
	c0,0.5,0.1,1.1,0.4,1.8c-0.7-0.2-1.3-0.3-1.8-0.3c0.2-0.3,0.3-0.6,0.4-1C101.5,67.5,101.8,67.4,102.1,67.2z M87.2,77.2
	c-0.3,0.5-0.5,1-0.5,1.8c-0.5-0.5-1-0.9-1.4-1.1c0.3-0.2,0.6-0.4,0.9-0.7C86.5,77.2,86.8,77.2,87.2,77.2z M69.1,78.5
	c-0.5,0.3-0.9,0.7-1.3,1.3c-0.1-0.7-0.4-1.3-0.7-1.7c0.3,0,0.7,0,1.1-0.1C68.5,78.2,68.8,78.3,69.1,78.5z M64.8,70
	c3.3-1.2,7.4-0.3,9.9,2.2c-1.4-1.1-3.3-1.5-5-0.7C68.4,70,66.6,69.6,64.8,70z M91.1,69.8c-4.5-3.4-11.8-1.1-13.5,4.2
	c-0.3,0.7-0.5,1.2-0.6,1.6c-0.1-0.4-0.3-0.9-0.7-1.6c-2.1-5.1-9.7-6.8-13.8-3c-0.6,0.4-1,0.8-1.3,1.1c0.1-0.4,0.2-1,0.2-1.7
	c0.2-1.4,0-2.8-0.6-4h-0.5c0.3,0.5,0.5,1,0.6,1.6c-0.2-0.6-0.6-1.1-1-1.6h-0.9c2.3,1.9,2.7,6.2-0.2,8.7c0.8-0.6,1.2-1.1,1.5-1.4
	c-0.1,0.4-0.3,1-0.3,2c0.6-5,7-7.2,9.5-3.5c3.8-2.3,8.7,2.3,7.1,7.1c0.4-0.9,0.5-1.5,0.6-1.9c0.1,0.4,0.3,1,0.7,1.9
	c-2-4.6,2.4-9.7,6.4-7.7c2.1-3.8,8.7-2.3,9.7,2.7c-0.1-0.9-0.3-1.6-0.5-1.9c0.3,0.3,0.8,0.8,1.6,1.3c-2.5-1.8-3-4.9-2-7.2h-0.6
	c0,0.1,0,0.1-0.1,0.2c0-0.1,0-0.1,0-0.2h-0.4c-0.1,0.9-0.1,1.8,0.1,2.7c0.1,0.7,0.2,1.3,0.3,1.7C92.2,70.5,91.8,70.1,91.1,69.8z
	 M79.1,72c2.3-2.7,6.2-3.9,9.7-3c-1.8-0.3-3.6,0.3-4.7,1.8C82.2,70.2,80.4,70.7,79.1,72z M94.2,73.4c2.4,1.2,0.3-0.7-0.1,1.2
	C94.2,74.2,94.2,73.8,94.2,73.4z M77.2,78.7c1.4,2.2,0.6-0.5-0.7,0.9C76.8,79.3,77,79,77.2,78.7z M59.8,74.9
	c0.1,2.6,0.8-0.1-1.1,0.5C59.1,75.2,59.4,75.1,59.8,74.9z M64.1,66.4c0,0,0,0.1,0,0.1c0.1,0,0.2-0.1,0.3-0.1H64.1z M75.5,66.4
	c0.1,0.9,0.4,1.9,1.3,2.9c0.7-0.9,1-1.9,1-2.9h-0.7c0,1.4-0.5,2.4-1,0.4c0-0.1-0.1-0.3-0.1-0.4H75.5z M66.2,68.4
	c0.2,0,0.5-0.1,0.9-0.1c2.5-0.4,4.1-0.6,7,1.9c-2.2-1.7-5.3-2.3-8-1.7L66.2,68.4z M91.7,66.4c0,1.2-0.1,2.1,0.2,3.3
	c-1.4-1.1-2.5-1.3-4.4-2.2c-2.9-0.3-6.4,0.8-8.5,2.9c2.1-2.2,5.3-3.3,8.3-3c-3.8-0.7-5.1,0.3-7.1,1.8c-0.5,0.4-0.9,0.7-1.1,0.9
	c-0.4,0.8-0.8,1.6-1.3,2.5c-1.2,2.2-0.2,2.2-1.6,0.1c-0.5-0.8-1-1.5-1.4-2.2c0,0-0.1-0.1-0.1-0.1l0.1,0.1c-2.2-1.8-5.8-2.7-8.7-2.1
	c-1.8,1.1-2.9,1.4-4.2,2.6c0.2-1.7-0.1-2.7-0.2-4.7H62c0.1,1.1,0.2,2.1,0.2,2.8c0,1.3-0.3,1.2,0.8,0.4c1-0.7,3.2-1.7,5-3.3h0.9
	c-0.5,0.4-1.1,0.9-1.8,1.3c-0.2,0.2-0.5,0.3-0.7,0.4c1.2-0.2,3-0.5,4.1-0.6c1.8,1,3.3,2.1,4,2.7c-1-1.6-1.6-2.9-2-3.9h0.3
	c1,2.6,2.7,4.7,3.7,6.2c0.7,1.1,0.3,1.2,0.9,0c0.6-1.2,2.2-3.5,3-6.1h0.2c-0.3,1-0.8,2.1-1.5,3.6c0.8-0.7,2.7-2.3,3.7-2.9
	c1.6-0.1,3.1,0.1,4.1,0.2c-0.2-0.1-0.5-0.2-0.8-0.4c-0.3-0.2-0.6-0.3-0.9-0.5h1c1.5,0.9,3.1,1.5,4.1,2.1c1.2,0.7,0.9,0.9,0.8-0.5
	c0-0.4,0-1,0-1.6H91.7z M25.1,66.4c0.5,0.3,1.2,0.4,2,0H25.1z M53.9,66.4c0,0.1,0,0.2-0.1,0.3c-0.2-0.2-0.5-0.3-0.7,0
	c-0.3,0.4,0.4,0.9,0.7,0.4c0.1-0.2,0.1-0.3,0-0.4C53.9,66.7,53.9,66.5,53.9,66.4L53.9,66.4z M97.9,66.4c-0.1,0.2,0,0.4,0.2,0.5
	c0.4,0.2,0.7-0.2,0.6-0.5H97.9z M107.7,66.4c0.1,1.1-0.9,2-1.9,1.8c0.2-0.2,0.2-0.6-0.2-0.7c-0.5-0.1-0.7,0.6-0.2,0.8
	c0.2,0,0.3,0,0.4-0.1c1.1,0.3,2.2-0.6,2.2-1.8H107.7z M123.9,66.4c0.3,0.2,0.7,0.1,1,0H123.9z M51.9,89.8c3.6-0.7,5.1,0.9,5,2.4
	c-0.3,3.1-4.3,1.1-2.9-0.4c0.1,0.2,0.3,0.4,0.6,0.3c0.5-0.3,0.1-1-0.4-0.7C54,91.6,54,91.7,54,91.8c-1.4,1.1,1,3.8,2.8,1.8
	c1.1-1.1,0.7-2.9-0.5-3.9c-1-0.8-2.2-0.8-3-0.8c12.6-3.5,12.8,9,6.6,7.7c-2.3-0.5-2.4-3.4,0-3.7c-0.1,0.3,0.2,0.6,0.5,0.5
	c0.4-0.2,0.1-0.9-0.3-0.6c-0.1,0-0.1,0.1-0.1,0.1c-5.9-0.2,1.4,8.4,4.3,1.9c0.4-0.9,0.4-2.1,0-3.3c0.6,0.4,1.2,0.5,1.9,0.4
	c-1.5,1.5-1.9,3.7-0.6,5.4c3,3.8,7-0.9,3.9-2.4c0-0.1,0-0.1-0.1-0.2c-0.3-0.4-0.9,0-0.6,0.4c0.2,0.3,0.6,0.1,0.7-0.2
	c3.2,1.9-2.4,6.1-4,1c-1-3.3,4.1-8.3,11.7-2c-4.4-2.3-6.8,2.4-4.3,3.9c1.4,0.9,3-0.4,2.5-1.6c0.1-0.1,0.1-0.3,0-0.4
	c-0.3-0.4-1,0.1-0.6,0.5c0.2,0.2,0.5,0.2,0.6,0c0.3,1.2-1.7,2.1-2.6,0.8c-1.2-1.9,1.3-4.8,5.4-1.8c2.7-2.4,4.9-1.7,5.6-0.3
	c1.3,2.9-3.2,3.1-2.7,1.1c0.2,0.2,0.5,0.2,0.6-0.1c0.3-0.5-0.4-0.9-0.7-0.4c-0.1,0.2-0.1,0.3,0,0.4c-0.6,1.7,2.8,2.8,3.4,0.1
	c0.4-1.5-0.8-2.9-2.4-3.1c-1.3-0.2-2.3,0.3-3,0.8c9.1-9.2,15.7,1.5,9.6,3.4c-2.2,0.7-3.8-1.8-1.9-3.2c0,0.3,0.5,0.5,0.7,0.1
	c0.3-0.4-0.4-0.8-0.6-0.4c0,0.1-0.1,0.1-0.1,0.2c-5.2,2.7,5.5,6.6,4.7-0.5c-0.1-1-0.7-2-1.7-2.8c0.7,0.1,1.3-0.1,1.9-0.6
	c-2.1,6.6,8.7,6.5,6.2,2c-0.3-0.6-1-1-1.9-0.9c0-0.1-0.1-0.1-0.2-0.1c-0.4-0.2-0.7,0.5-0.3,0.7c0.4,0.1,0.6-0.2,0.5-0.5
	c3.7,0,1,6.5-3,2.9c-2.5-2.3-0.8-9.3,9.1-7.4c-5,0.2-4.7,5.4-1.7,5.5c1.6,0.1,2.4-1.8,1.3-2.6c0-0.1-0.1-0.3-0.2-0.4
	c-0.5-0.2-0.8,0.5-0.3,0.7c0.3,0.1,0.5-0.1,0.6-0.3c0.9,0.9-0.4,2.7-1.8,1.9c-2-1-1.3-4.8,3.8-4.2c1.1-3.4,3.4-3.9,4.6-3
	c2.6,1.8-1.2,4.2-1.8,2.3c0.2,0.1,0.5,0,0.5-0.4c0-0.5-0.8-0.5-0.8,0c0,0.2,0.1,0.3,0.2,0.4c0.3,1.8,3.8,1.1,3-1.5
	c-0.5-1.5-2.2-2.1-3.6-1.5c-1.2,0.5-1.8,1.4-2.2,2.2c3.2-12.5,14.3-6.4,10.1-1.8c-1.6,1.7-4.2,0.3-3.3-1.8c0.2,0.2,0.6,0.2,0.7-0.2
	c0-0.5-0.7-0.5-0.7,0c0,0.1,0,0.1,0,0.2c-3.1,4.9,8.1,3,3.8-2.7c-0.6-0.8-1.7-1.4-2.9-1.6c0.6-0.3,1.1-0.7,1.3-1.4
	c0.6,2,2.3,3.5,4.5,3.2c4.9-0.6,2.8-6.4-0.1-4.5c-0.1,0-0.1,0-0.2,0c-0.5,0.1-0.4,0.8,0.1,0.7c0.4,0,0.4-0.5,0.2-0.7
	c3.3-1.8,4.2,5.1-1.1,3.9c-3.4-0.7-5.3-7.7,4.1-10.9c-4.2,2.6-1.3,7,1.3,5.6c1.5-0.8,1.1-2.8-0.2-2.9c-0.1-0.1-0.2-0.2-0.4-0.2
	c-0.5,0.1-0.4,0.9,0.1,0.8c0.3,0,0.4-0.3,0.3-0.5c1.2,0.4,1,2.5-0.6,2.6c-2.2,0.1-3.5-3.5,1.1-5.5c-0.1-0.6-0.2-1.2-0.2-1.7h-0.7
	c0,0.1,0,0.2,0,0.4c0-0.1-0.1-0.2-0.1-0.4h-0.6c0.5,1.6,0.6,0.9-1.9,1.9c-3.2,1.4-4.9,3.3-5.5,5.2c-0.2-1.2-0.6-2.6-1.1-4.3
	c0.5-0.8,0.9-1.7,0.9-2.8h-0.7c0,0.7-0.2,1.4-0.5,2c-0.2-0.6-0.4-1.3-0.7-2h-0.5c0.3,0.9,0.6,1.7,0.8,2.6c-1.6,2.2-4.9,2.5-6.6,1.1
	c-1.5-1.2-1.8-2.5-1.5-3.5c0,0,0.1-0.1,0.1-0.1h-0.7c-0.3,0.4-0.8,0.6-1.5,0.8c-0.1,0.7-0.4,1.3-0.8,1.7c-0.3,0.1-0.6,0.3-0.8,0.5
	c-0.7,0.3-1.6,0.1-2.2-0.4c-0.9-0.8-0.6-2,0.1-2.6h-0.3c-0.5,0.4-0.8,1.1-0.6,1.9c0.3,1.1,1.3,1.6,2.4,1.6c-1.1,1.6-0.8,4,1.3,4.5
	c1.6,0.4,2.9-1,2.4-2.2c0.1-0.1,0.1-0.2,0-0.4c-0.2-0.5-0.9-0.2-0.8,0.3c0.1,0.3,0.5,0.3,0.7,0.1c0.3,1.2-0.9,2.4-2.3,2
	c-2.2-0.6-1.9-3.2-0.4-4.4c0.3-0.1,0.6-0.3,0.8-0.5c1-0.4,2.3-0.2,3.7,1.1c1.6,1.5,1.5,4.8-0.5,6.6c-1.6-0.3-3.2-0.7-4.9-1.2
	c-4-1.1-3.1-1.5-3.7,2.3c-0.3,1.6-0.6,3.2-1,4.8c-2.5,1.1-5.5-0.3-6.3-2.3c-0.6-1.8-0.3-3,0.5-3.8c0.3-0.1,0.6-0.3,0.8-0.5
	c1.7-0.8,4.2,0,3.9,2.2c-0.2,1.4-1.8,2.1-2.8,1.3c0.3-0.1,0.4-0.4,0.2-0.7c-0.4-0.4-0.9,0.2-0.6,0.6c0.1,0.1,0.2,0.1,0.4,0.1
	c1,1,2.8,0.4,3.1-1.2c0.4-2.1-1.7-3.3-3.6-3c0.5-1,0.4-2.1-0.4-2.8c-1.2-1-2.8-0.3-2.8,0.9c-0.1,0.1-0.2,0.2-0.2,0.4
	c0.1,0.5,0.9,0.4,0.8-0.1c0-0.3-0.4-0.4-0.6-0.3c0.2-1.5,2.5-1.5,3,0.1c0.2,0.8,0,1.5-0.5,2.1c-0.3,0.1-0.6,0.3-0.8,0.5
	c-0.5,0.2-1.2,0.2-1.9,0c-0.5,0.6-1,0.9-1.6,1.1c-0.3,0-0.6,0-0.9,0c-0.8-0.1-1.4-0.6-1.7-1.4c-0.5-1.6,1.4-2.8,2.4-1.8
	c-0.3,0-0.5,0.3-0.3,0.6c0.2,0.5,1,0.1,0.7-0.4c-0.1-0.2-0.2-0.2-0.4-0.2c-0.7-1-2.4-0.6-2.8,0.9c-0.3,1,0.3,2.1,1.3,2.6
	c-1.7,0.8-2.7,3.1-1.2,4.5c1.2,1.1,3,0.6,3.2-0.7c0.1,0,0.2-0.1,0.2-0.3c0.1-0.5-0.7-0.7-0.8-0.1c-0.1,0.4,0.3,0.5,0.5,0.4
	c-0.3,1.2-2,1.6-3,0.6c-1.6-1.6,0-3.7,1.9-4c0.3,0,0.6,0,0.9,0c1.1,0.2,2.1,1,2.6,2.8c0.6,2.1-1.1,5-3.8,5.5
	c-1.3-1.1-2.5-2.2-3.6-3.4c-2.9-2.9-1.9-2.8-4.4,0.2c-1.1,1.3-2.1,2.5-3.3,3.7c-2.7-0.3-4.7-3-4.3-5.1c0.3-1.9,1.3-2.7,2.4-3
	c0.3,0,0.6,0,0.9-0.1c1.9,0.2,3.7,2.1,2.2,3.9c-0.9,1.1-2.6,0.9-3.1-0.3c0.3,0.1,0.6-0.1,0.5-0.5c-0.1-0.5-0.9-0.3-0.8,0.2
	c0,0.2,0.1,0.2,0.3,0.3c0.3,1.3,2.2,1.7,3.3,0.5c1.4-1.6,0.2-3.7-1.6-4.4c0.9-0.6,1.4-1.6,1.1-2.7c-0.5-1.4-2.2-1.7-2.9-0.6
	c-0.1,0-0.3,0.1-0.3,0.2c-0.2,0.5,0.5,0.8,0.7,0.3c0.1-0.3-0.1-0.5-0.4-0.5c0.9-1.2,2.9-0.1,2.6,1.6c-0.2,0.8-0.8,1.3-1.5,1.5
	c-0.3,0-0.6,0-1,0.1c-0.6-0.1-1.1-0.4-1.6-0.9c-0.7,0.3-1.3,0.3-1.9,0.1c-0.3-0.2-0.5-0.3-0.8-0.4c-0.6-0.5-0.9-1.3-0.7-2
	c0.4-1.7,2.7-1.8,3-0.3c-0.2-0.1-0.6,0-0.6,0.3c0,0.5,0.8,0.6,0.8,0c0-0.2-0.1-0.3-0.2-0.4c-0.2-1.2-1.8-1.7-2.9-0.6
	c-0.8,0.8-0.8,1.9-0.2,2.8c-1.9-0.2-3.9,1.3-3.3,3.3c0.5,1.5,2.3,2,3.2,0.9c0.1,0,0.2,0,0.3-0.1c0.3-0.4-0.3-0.9-0.6-0.5
	c-0.2,0.3,0,0.6,0.2,0.6c-0.9,0.9-2.6,0.4-2.9-1c-0.6-2.2,1.8-3.2,3.7-2.6c0.2,0.2,0.5,0.3,0.8,0.5c0.8,0.7,1.3,1.9,0.9,3.7
	c-0.6,2.1-3.5,3.7-6,2.9c-0.6-1.5-1-3.1-1.4-4.7c-1-3.9-0.2-3.4-3.9-2c-1.6,0.6-3.1,1.1-4.7,1.6c-2.2-1.6-2.5-4.9-1.1-6.5
	c1.2-1.4,2.5-1.7,3.6-1.4c0.3,0.2,0.6,0.3,0.8,0.4c1.6,1.1,2.1,3.6,0,4.4c-1.4,0.5-2.7-0.5-2.5-1.8c0.2,0.2,0.6,0.2,0.7-0.2
	c0.1-0.5-0.6-0.7-0.8-0.2c0,0.2,0,0.3,0.1,0.4c-0.4,1.3,1.1,2.5,2.6,2c2-0.7,2.1-3.1,0.9-4.6c1.1-0.1,2.1-0.7,2.3-1.8
	c0.3-1.5-1.1-2.5-2.2-2c-0.1-0.1-0.3-0.1-0.4,0c-0.4,0.3,0.1,0.9,0.5,0.6c0.3-0.2,0.2-0.5,0-0.7c1.4-0.5,2.6,1.4,1.4,2.6
	c-0.5,0.6-1.4,0.8-2.1,0.6c-0.3-0.2-0.5-0.3-0.9-0.4c-0.4-0.3-0.8-0.9-0.9-1.6c-0.7-0.1-1.3-0.4-1.7-0.8c-0.1-0.3-0.3-0.6-0.5-0.8
	c-0.2-0.4-0.2-0.8-0.1-1.3h-0.5c-0.1,0.2-0.1,0.5-0.1,0.7c-1.6-1.1-4.1-0.8-4.5,1.2c-0.4,1.6,1,2.9,2.3,2.4c0.1,0.1,0.2,0.1,0.4,0
	c0.5-0.2,0.2-0.9-0.3-0.7c-0.3,0.1-0.3,0.5-0.1,0.7c-1.2,0.3-2.4-0.9-2-2.3c0.6-2.2,3.2-1.9,4.5-0.4c0.1,0.3,0.3,0.5,0.5,0.8
	c0.4,1,0.2,2.3-1.1,3.6C48,74,44.7,74,42.9,71.9c0.3-1.6,0.7-3.2,1.2-4.8c0.1-0.3,0.2-0.5,0.2-0.7h-0.6c-0.5,1.8-0.9,3.5-1.2,4.9
	c-0.7-1.2-1-2.8-0.4-4.9h-0.6c-0.7,2.6-0.2,4.5,0.8,5.8c-0.4,1.7-0.6,3.2-0.7,4.4c-0.7-1.8-2.5-3.6-5.9-4.7c-4-1.3-1.3-1.1-1.8-5.5
	h-0.7c0.1,1.2,0,2.6-0.3,4.1c-0.2-4.9-5.5-4.6-5.6-1.7c-0.1,1.6,1.9,2.4,2.6,1.3c0.1,0,0.3-0.1,0.4-0.2c0.2-0.5-0.5-0.8-0.7-0.3
	c-0.1,0.3,0.1,0.5,0.3,0.5c-0.9,0.9-2.7-0.4-1.9-1.8c1-1.9,4.9-1.2,4.3,3.7c3.5,1.1,4,3.3,3.1,4.6c-1.9,2.6-4.3-1.2-2.3-1.7
	c-0.1,0.2,0.1,0.5,0.4,0.5c0.5,0,0.6-0.8,0-0.8c-0.2,0-0.3,0.1-0.4,0.2c-1.8,0.3-1.1,3.7,1.6,2.9c1.5-0.4,2.1-2.2,1.5-3.6
	c-0.5-1.1-1.5-1.8-2.2-2.2c12.7,3.1,6.5,14.1,1.8,9.9c-1.7-1.5-0.3-4.1,1.8-3.2c-0.2,0.2-0.2,0.6,0.2,0.6c0.5,0,0.5-0.7,0-0.7
	c-0.1,0-0.1,0-0.2,0c-5-3-3,8,2.8,3.8c0.8-0.6,1.4-1.6,1.6-2.9c0.3,0.6,0.7,1.1,1.4,1.3c-2.1,0.6-3.5,2.3-3.2,4.4
	c0.7,4.8,6.5,2.7,4.6-0.1c0-0.1,0-0.1,0-0.2c-0.1-0.5-0.8-0.4-0.7,0.1c0,0.4,0.5,0.4,0.7,0.1c1.8,3.2-5.2,4.1-4-1.1
	c0.8-3.4,7.8-5.2,11.1,4c-2.6-4.1-7.1-1.3-5.7,1.3c0.8,1.4,2.8,1.1,2.9-0.1c0.1-0.1,0.2-0.2,0.2-0.4c-0.1-0.5-0.9-0.4-0.8,0.1
	c0,0.3,0.3,0.4,0.5,0.3c-0.4,1.2-2.6,1-2.6-0.6C46.2,86.5,49.9,85.2,51.9,89.8z"/>
</svg>
