<?xml version="1.0" encoding="utf-8"?>
<!-- Generator: Adobe Illustrator 16.0.0, SVG Export Plug-In . SVG Version: 6.00 Build 0)  -->
<!DOCTYPE svg PUBLIC "-//W3C//DTD SVG 1.1//EN" "http://www.w3.org/Graphics/SVG/1.1/DTD/svg11.dtd">
<svg version="1.1" id="Capa_1" xmlns="http://www.w3.org/2000/svg" xmlns:xlink="http://www.w3.org/1999/xlink" x="0px" y="0px"
	 width="150px" height="35px" viewBox="0 0 150 35" style="enable-background:new 0 0 150 35;" xml:space="preserve">
<style type="text/css">
<![CDATA[
	.st0{fill:#FFFFFF;}
	.st1{fill-rule:evenodd;clip-rule:evenodd;fill:#FFFFFF;}
]]>
</style>
<path class="st1" d="M117.4,26L115,35l9.2-2.4c11.1,6,25.5-1.7,25.5-15.1c0-9.5-7.7-17.3-17.3-17.3C119,0.2,110.9,14.7,117.4,26
	 M128.1,10.2l1.3,3.2c0.1,0.2,0.2,0.5,0,0.8c-0.4,0.7-1.7,1.7-1.3,2.4c0.3,0.4,1.1,1.8,2.4,3c1.6,1.5,3,1.9,3.5,2.1
	c0.4,0.2,0.7,0.2,0.9-0.1c0.3-0.3,1.1-1.3,1.4-1.7c0.3-0.4,0.6-0.4,1-0.2l2.9,1.4c0.4,0.2,0.7,0.3,0.8,0.5c0.1,0.2,0.1,1-0.3,2
	c-0.4,1-2.1,2-2.9,2.1c-5.5,0.4-14.3-6.6-14.3-12.1c0-1.3,1-4.1,2.7-4.1C127.1,9.4,127.7,9.3,128.1,10.2z"/>
<path class="st1" d="M17.7,0.4C8.1,0.4,0.3,8.1,0.3,17.7c0,8.6,6.3,15.8,14.6,17.1V22.7h-4.4v-5H15v-3.8c0-4.3,2.6-6.7,6.6-6.7
	c1.9,0,3.9,0.3,3.9,0.3v4.3h-2.2c-2.2,0-2.8,1.3-2.8,2.7v3.2h4.8l-0.8,5h-4v12.1C28.7,33.5,35,26.3,35,17.7
	C35,8.1,27.2,0.4,17.7,0.4"/>
<path class="st0" d="M74.9,14.6c1.7,0,3.1,1.4,3.1,3.1c0,1.7-1.4,3.1-3.1,3.1c-1.7,0-3.1-1.4-3.1-3.1C71.8,16,73.2,14.6,74.9,14.6"
	/>
<path class="st0" d="M78.7,10.1H71c-1.1,0-2.1,0.4-2.8,1c-0.6,0.6-1,1.6-1,2.8v7.7c0,1.1,0.4,2.1,1.1,2.8c0.7,0.6,1.6,1,2.8,1h7.7
	c1.1,0,2.1-0.4,2.8-1c0.7-0.6,1.1-1.6,1.1-2.8v-7.8c0-1.1-0.4-2-1-2.8C80.9,10.4,79.9,10.1,78.7,10.1 M74.9,22.5
	c-2.6,0-4.8-2.2-4.8-4.8c0-2.6,2.2-4.8,4.8-4.8c2.6,0,4.9,2.1,4.9,4.8C79.7,20.3,77.5,22.5,74.9,22.5z M79.8,13.9
	c-0.6,0-1.1-0.5-1.1-1.1s0.5-1.1,1.1-1.1c0.6,0,1.1,0.5,1.1,1.1S80.5,13.9,79.8,13.9z"/>
<path class="st0" d="M75,0.2c-9.6,0-17.3,7.7-17.3,17.3c0,9.6,7.8,17.3,17.3,17.3c9.6,0,17.3-7.8,17.3-17.3C92.4,8,84.6,0.2,75,0.2
	 M84.2,21.7c0,1.6-0.6,3-1.6,4c-1,1-2.4,1.4-4,1.4H71c-1.6,0-3-0.5-4-1.4c-1.1-1-1.6-2.4-1.6-4v-7.7c0-3.2,2.2-5.5,5.5-5.5h7.8
	c1.6,0,3,0.6,4,1.6c1,1,1.5,2.3,1.5,4V21.7z"/>
</svg>
