<?xml version="1.0" encoding="utf-8"?>
<!-- Generator: Adobe Illustrator 16.0.0, SVG Export Plug-In . SVG Version: 6.00 Build 0)  -->
<!DOCTYPE svg PUBLIC "-//W3C//DTD SVG 1.1//EN" "http://www.w3.org/Graphics/SVG/1.1/DTD/svg11.dtd">
<svg version="1.1" id="Capa_1" xmlns="http://www.w3.org/2000/svg" xmlns:xlink="http://www.w3.org/1999/xlink" x="0px" y="0px"
	 width="80px" height="100px" viewBox="0 0 80 100" style="enable-background:new 0 0 80 100;" xml:space="preserve">
<style type="text/css">
<![CDATA[
	.st0{fill-rule:evenodd;clip-rule:evenodd;}
	.st1{fill:none;stroke:#000000;stroke-width:0.216;stroke-linecap:round;stroke-linejoin:round;stroke-miterlimit:22.9256;}
	.st2{fill:none;stroke:#000000;stroke-width:0.2156;stroke-linecap:round;stroke-linejoin:round;stroke-miterlimit:22.9256;}
]]>
</style>
<g>
	<path d="M2.3,87.7c0-0.1,0.1-0.2,0.2-0.2h1c0.1,0,0.2-0.1,0.2-0.2v-8.9c0-0.1-0.1-0.2-0.2-0.2h-1c-0.1,0-0.2-0.1-0.2-0.2
		c0-0.1,0.1-0.2,0.2-0.2h6.9c0.1,0,0.2,0.1,0.2,0.2v2c0,0.1-0.1,0.2-0.2,0.2s-0.2-0.1-0.2-0.2v-1.6c0-0.1-0.1-0.2-0.2-0.2H4.4
		c-0.1,0-0.2,0.1-0.2,0.2v3.9c0,0.1,0.1,0.2,0.2,0.2h3.3c0.1,0,0.2-0.1,0.2-0.2v-0.7c0-0.1,0.1-0.2,0.2-0.2s0.2,0.1,0.2,0.2v2.3
		c0,0.1-0.1,0.2-0.2,0.2S7.8,84,7.8,83.9v-0.7c0-0.1-0.1-0.2-0.2-0.2H4.4c-0.1,0-0.2,0.1-0.2,0.2v4.1c0,0.1,0.1,0.2,0.2,0.2h4.7
		c0.1,0,0.2-0.1,0.2-0.2v-1.6c0-0.1,0.1-0.2,0.2-0.2s0.2,0.1,0.2,0.2v2c0,0.1-0.1,0.2-0.2,0.2h-7C2.3,87.9,2.3,87.8,2.3,87.7z"/>
	<path d="M14.7,87.6c0.8,0,1.5-0.1,1.9-0.4s0.7-0.7,0.7-1.2c0-0.6-0.5-1.1-1.4-1.3c-0.4-0.1-0.9-0.2-1.5-0.3c-0.6-0.1-1-0.2-1.3-0.2
		c-0.6-0.2-1-0.4-1.3-0.6s-0.4-0.7-0.4-1.2c0-0.5,0.3-1,0.8-1.3c0.5-0.4,1.2-0.6,2.2-0.6s1.8,0.4,2.5,1.1c0.1,0.1,0.1,0.1,0.2,0.1
		c0-0.1,0.1-0.1,0.1-0.2v-0.6c0-0.1,0.1-0.2,0.2-0.2c0.1,0,0.2,0.1,0.2,0.2v2.3c0,0.1-0.1,0.2-0.2,0.2c-0.1,0-0.2-0.1-0.2-0.2v-0.7
		c-0.4-0.6-0.9-1-1.6-1.3c-0.3-0.2-0.7-0.2-1.1-0.2c-0.8,0-1.4,0.1-1.8,0.4c-0.4,0.3-0.6,0.6-0.6,1.1s0.2,0.8,0.6,1
		c0.4,0.2,0.9,0.4,1.7,0.5c0.3,0.1,0.7,0.1,1,0.2c0.3,0,0.6,0.1,0.9,0.2c0.6,0.1,1,0.3,1.3,0.6c0.3,0.3,0.5,0.7,0.5,1.2
		c0,0.5-0.3,1-0.8,1.4c-0.5,0.4-1.3,0.6-2.3,0.6c-0.8,0-1.5-0.2-2.2-0.7c-0.2-0.1-0.3-0.3-0.5-0.4c-0.1-0.1-0.2-0.1-0.2-0.1
		c0,0.1,0,0.1,0,0.2v0.6c0,0.1-0.1,0.2-0.2,0.2s-0.2-0.1-0.2-0.2v-2.3c0-0.1,0.1-0.2,0.2-0.2s0.2,0.1,0.2,0.2v0.7
		c0.4,0.6,0.9,1,1.6,1.3C13.8,87.5,14.2,87.6,14.7,87.6z"/>
	<path d="M25.2,82.4c-0.8-1-1.7-1.5-2.8-1.5c-0.8,0-1.4,0.3-2,0.9c-0.5,0.6-0.8,1.5-0.8,2.5s0.3,1.8,0.8,2.4
		c0.6,0.6,1.3,0.9,2.2,0.9c0.9,0,1.6-0.2,2.2-0.7c0.2-0.1,0.3-0.2,0.4-0.3c0.1-0.1,0.2-0.1,0.2-0.1s0.1,0.1,0.1,0.1s0.1,0.1,0.1,0.2
		s0,0.1-0.1,0.2c-0.3,0.3-0.7,0.5-1.2,0.7c-0.5,0.2-1,0.3-1.7,0.3c-1,0-1.9-0.4-2.5-1.1c-0.6-0.7-0.9-1.6-0.9-2.7s0.3-2,0.9-2.7
		c0.6-0.7,1.4-1.1,2.3-1.1c0.9,0,1.8,0.4,2.5,1.1c0.2,0.1,0.2,0.1,0.2-0.1v-0.6c0-0.1,0.1-0.2,0.2-0.2c0.1,0,0.2,0.1,0.2,0.2v2.3
		c0,0.1-0.1,0.2-0.2,0.2c-0.1,0-0.2-0.1-0.2-0.2V82.4z"/>
	<path d="M26.9,80.6h1.5c0.1,0,0.2,0.1,0.2,0.2v4.3c0,0.8,0.2,1.4,0.6,1.9c0.4,0.4,1,0.6,1.7,0.6s1.4-0.3,2.1-1
		c0.3-0.3,0.5-0.6,0.8-1v-4.4c0-0.1-0.1-0.2-0.2-0.2h-1c-0.1,0-0.2-0.1-0.2-0.2c0-0.1,0.1-0.2,0.2-0.2H34c0.1,0,0.2,0.1,0.2,0.2v6.4
		c0,0.1,0.1,0.2,0.2,0.2h1c0.1,0,0.2,0.1,0.2,0.2c0,0.1-0.1,0.2-0.2,0.2H34c-0.1,0-0.2-0.1-0.2-0.2v-0.8c0-0.1,0-0.2-0.1-0.2
		c0,0-0.1,0-0.2,0.1C32.8,87.6,31.9,88,31,88c-0.9,0-1.6-0.3-2.1-0.8c-0.5-0.5-0.7-1.2-0.7-2.2v-3.9c0-0.1-0.1-0.2-0.2-0.2h-1
		c-0.1,0-0.2-0.1-0.2-0.2C26.7,80.6,26.7,80.6,26.9,80.6z"/>
	<path d="M36.2,87.7c0-0.1,0.1-0.2,0.2-0.2h1c0.1,0,0.2-0.1,0.2-0.2v-8.9c0-0.1-0.1-0.2-0.2-0.2h-1c-0.1,0-0.2-0.1-0.2-0.2
		c0-0.1,0.1-0.2,0.2-0.2h1.5c0.1,0,0.2,0.1,0.2,0.2v9.3c0,0.1,0.1,0.2,0.2,0.2h1c0.1,0,0.2,0.1,0.2,0.2c0,0.1-0.1,0.2-0.2,0.2h-2.9
		C36.3,87.9,36.2,87.8,36.2,87.7z"/>
	<path d="M42.2,87.9c-0.1,0-0.2,0.1-0.2,0.2v2c0,0.1,0.1,0.2,0.2,0.2h1.2c0.1,0,0.2,0.1,0.2,0.2c0,0.1-0.1,0.2-0.2,0.2h-3
		c-0.1,0-0.2-0.1-0.2-0.2c0-0.1,0.1-0.2,0.2-0.2h1c0.1,0,0.2-0.1,0.2-0.2v-8.9c0-0.1-0.1-0.2-0.2-0.2h-1c-0.1,0-0.2-0.1-0.2-0.2
		c0-0.1,0.1-0.2,0.2-0.2h1.5c0.1,0,0.2,0.1,0.2,0.2v0.8c0,0.1,0,0.2,0.1,0.2c0,0,0.1,0,0.2-0.1c0.2-0.3,0.6-0.6,1.1-0.9
		c0.5-0.3,1-0.4,1.6-0.4c1,0,1.7,0.3,2.3,1c0.6,0.7,0.9,1.6,0.9,2.8s-0.3,2.1-1,2.7c-0.7,0.6-1.7,0.9-2.9,0.9H42.2z M44.2,87.4
		c1.1,0,2-0.3,2.6-0.8s0.9-1.3,0.9-2.4c0-1.1-0.3-1.9-0.8-2.5s-1.2-0.9-2-0.9s-1.5,0.3-2.2,1c-0.3,0.3-0.5,0.6-0.7,1v4.4
		c0,0.1,0.1,0.2,0.2,0.2H44.2z"/>
	<path d="M49.4,87.7c0-0.1,0.1-0.2,0.2-0.2h1c0.1,0,0.2-0.1,0.2-0.2v-6c0-0.1-0.1-0.2-0.2-0.2h-1c-0.1,0-0.2-0.1-0.2-0.2
		c0-0.1,0.1-0.2,0.2-0.2h1.5c0.1,0,0.2,0.1,0.2,0.2v6.4c0,0.1,0.1,0.2,0.2,0.2h1c0.1,0,0.2,0.1,0.2,0.2c0,0.1-0.1,0.2-0.2,0.2h-2.9
		C49.5,87.9,49.4,87.8,49.4,87.7z M50.6,79.2c-0.1-0.1-0.2-0.3-0.2-0.4c0-0.2,0.1-0.3,0.2-0.4c0.1-0.1,0.2-0.2,0.4-0.2
		c0.2,0,0.3,0.1,0.4,0.2c0.1,0.1,0.2,0.3,0.2,0.4c0,0.2-0.1,0.3-0.2,0.4s-0.2,0.2-0.4,0.2C50.8,79.4,50.7,79.4,50.6,79.2z"/>
	<path d="M59.8,78.3c0-0.1-0.1-0.2-0.2-0.2h-1.2c-0.1,0-0.2-0.1-0.2-0.2c0-0.1,0.1-0.2,0.2-0.2H60c0.1,0,0.2,0.1,0.2,0.2v9.3
		c0,0.1,0.1,0.2,0.2,0.2h1c0.1,0,0.2,0.1,0.2,0.2c0,0.1-0.1,0.2-0.2,0.2H60c-0.1,0-0.2-0.1-0.2-0.2v-0.8c0-0.1,0-0.2-0.1-0.2
		s-0.1,0-0.2,0.1c-0.2,0.3-0.6,0.6-1.1,0.9c-0.5,0.3-1,0.4-1.5,0.4c-1,0-1.8-0.3-2.4-1c-0.6-0.7-0.9-1.6-0.9-2.8s0.3-2.1,1-2.7
		c0.7-0.6,1.7-1,2.9-1h2c0.1,0,0.2-0.1,0.2-0.2V78.3z M59.8,81.2c0-0.1-0.1-0.2-0.2-0.2h-2c-1.1,0-2,0.3-2.6,0.8s-0.9,1.3-0.9,2.4
		c0,1.1,0.3,1.9,0.8,2.5c0.5,0.6,1.2,0.9,2,0.9s1.5-0.3,2.2-1c0.3-0.3,0.5-0.6,0.7-1V81.2z"/>
	<path d="M66,80.4c0.8,0,1.5,0.2,2,0.7c0.5,0.5,0.7,1,0.7,1.7v4.4c0,0.1,0.1,0.2,0.2,0.2h1c0.1,0,0.2,0.1,0.2,0.2
		c0,0.1-0.1,0.2-0.2,0.2h-1.5c-0.1,0-0.2-0.1-0.2-0.2v-0.8c0-0.1,0-0.2-0.1-0.2c0,0-0.1,0-0.2,0.1c-0.3,0.3-0.6,0.6-1.1,0.9
		C66.5,87.9,66,88,65.5,88c-0.9,0-1.6-0.2-2-0.6c-0.5-0.4-0.7-0.9-0.7-1.6s0.3-1.2,0.8-1.6c0.5-0.4,1.2-0.6,2.1-0.6H68
		c0.1,0,0.2-0.1,0.2-0.2v-0.6c0-0.6-0.2-1-0.6-1.4c-0.4-0.4-0.9-0.6-1.6-0.6c-0.6,0-1.1,0.1-1.5,0.3c-0.4,0.2-0.7,0.3-0.8,0.4
		c-0.2,0.1-0.3,0.1-0.4,0c-0.1-0.1-0.1-0.2,0-0.3C64.1,80.7,64.9,80.4,66,80.4z M68.3,84.3c0-0.1-0.1-0.2-0.2-0.2h-2.4
		c-0.8,0-1.5,0.2-1.9,0.5s-0.6,0.8-0.6,1.3c0,0.5,0.2,0.9,0.6,1.3c0.4,0.3,0.9,0.5,1.7,0.5c0.9,0,1.8-0.5,2.5-1.4
		c0.1-0.2,0.2-0.3,0.3-0.5V84.3z"/>
	<path d="M74.7,87.6c0.8,0,1.5-0.1,1.9-0.4c0.4-0.3,0.7-0.7,0.7-1.2c0-0.6-0.5-1.1-1.4-1.3c-0.4-0.1-0.9-0.2-1.5-0.3
		c-0.6-0.1-1-0.2-1.3-0.2c-0.6-0.2-1-0.4-1.3-0.6c-0.3-0.3-0.4-0.7-0.4-1.2c0-0.5,0.3-1,0.8-1.3c0.5-0.4,1.2-0.6,2.2-0.6
		s1.8,0.4,2.5,1.1c0.1,0.1,0.1,0.1,0.2,0.1c0-0.1,0.1-0.1,0.1-0.2v-0.6c0-0.1,0.1-0.2,0.2-0.2c0.1,0,0.2,0.1,0.2,0.2v2.3
		c0,0.1-0.1,0.2-0.2,0.2c-0.1,0-0.2-0.1-0.2-0.2v-0.7c-0.4-0.6-0.9-1-1.6-1.3c-0.3-0.2-0.7-0.2-1.1-0.2c-0.8,0-1.4,0.1-1.8,0.4
		c-0.4,0.3-0.6,0.6-0.6,1.1s0.2,0.8,0.6,1c0.4,0.2,0.9,0.4,1.7,0.5c0.3,0.1,0.7,0.1,1,0.2c0.3,0,0.6,0.1,0.9,0.2
		c0.6,0.1,1,0.3,1.3,0.6s0.5,0.7,0.5,1.2c0,0.5-0.3,1-0.8,1.4c-0.5,0.4-1.3,0.6-2.3,0.6c-0.8,0-1.5-0.2-2.2-0.7
		c-0.2-0.1-0.3-0.3-0.5-0.4c-0.1-0.1-0.2-0.1-0.2-0.1c0,0.1,0,0.1,0,0.2v0.6c0,0.1-0.1,0.2-0.2,0.2c-0.1,0-0.2-0.1-0.2-0.2v-2.3
		c0-0.1,0.1-0.2,0.2-0.2c0.1,0,0.2,0.1,0.2,0.2v0.7c0.4,0.6,0.9,1,1.6,1.3C73.7,87.5,74.2,87.6,74.7,87.6z"/>
</g>
<polyline class="st0" points="55.1,13.4 55.1,13.4 55.1,13.4 "/>
<polyline class="st0" points="56.3,8.2 56.3,8.2 56.3,8.2 "/>
<line class="st0" x1="56.6" y1="8.5" x2="56.6" y2="8.5"/>
<polyline class="st0" points="56.6,8.5 56.6,8.5 56.6,8.5 56.6,8.5 "/>
<polyline class="st0" points="56.6,7.8 56.6,7.8 56.6,7.8 "/>
<polyline class="st0" points="56.6,7.8 56.6,7.8 56.6,7.8 "/>
<polyline class="st0" points="57.7,9.4 57.7,9.4 57.7,9.4 "/>
<line class="st0" x1="54" y1="9.8" x2="54" y2="9.8"/>
<polyline class="st0" points="54.4,12.5 54.4,12.5 54.4,12.5 "/>
<polyline class="st0" points="54.3,12 54.3,12 54.3,12 "/>
<polyline class="st0" points="57.1,12.7 57.1,12.7 57.1,12.7 57.1,12.7 "/>
<polyline class="st0" points="57.8,13.2 57.8,13.2 57.8,13.2 "/>
<polyline class="st0" points="54.8,6.6 54.8,6.6 54.8,6.6 54.8,6.6 54.8,6.6 "/>
<polyline class="st0" points="54.6,6.8 54.6,6.8 54.6,6.8 "/>
<polyline class="st0" points="54.7,7.1 54.7,7.1 54.7,7.1 "/>
<polyline class="st0" points="56.6,18.9 56.6,18.9 56.6,18.9 "/>
<path class="st0" d="M59,22.4C59,22.4,59,22.4,59,22.4C59,22.4,59,22.4,59,22.4"/>
<path class="st0" d="M59.3,20.6C59.3,20.6,59.3,20.6,59.3,20.6C59.3,20.6,59.3,20.6,59.3,20.6"/>
<polyline class="st0" points="57.6,36.8 57.6,36.8 57.6,36.8 "/>
<path class="st0" d="M54.7,41C54.7,41,54.7,41,54.7,41C54.7,41,54.7,41,54.7,41C54.7,41,54.7,41,54.7,41"/>
<path class="st0" d="M54.5,47.3C54.5,47.3,54.5,47.3,54.5,47.3C54.5,47.3,54.5,47.3,54.5,47.3"/>
<path class="st0" d="M54.4,43.3C54.4,43.3,54.4,43.3,54.4,43.3C54.4,43.3,54.4,43.3,54.4,43.3"/>
<polyline class="st0" points="63.8,29.9 63.8,29.8 63.8,29.9 63.8,29.9 "/>
<polyline class="st0" points="63.3,31 63.3,31 63.3,31 63.3,31 63.3,31 "/>
<path class="st0" d="M63.2,31.2L63.2,31.2z"/>
<path class="st0" d="M62.9,30.1L62.9,30.1z"/>
<polyline class="st0" points="62.8,31 62.8,31 62.8,31 "/>
<polyline class="st0" points="64.5,30.6 64.5,30.6 64.5,30.6 "/>
<polyline class="st0" points="63.8,31.1 63.8,31.1 63.8,31.1 63.8,31.1 "/>
<polyline class="st0" points="64.2,30.2 64.1,30.2 64.2,30.2 64.2,30.2 "/>
<polyline class="st0" points="64.3,30.1 64.3,30.1 64.3,30.1 "/>
<polyline class="st0" points="63.9,31.4 63.9,31.4 63.9,31.4 63.9,31.4 "/>
<polyline class="st0" points="63.8,31.4 63.8,31.4 63.8,31.4 "/>
<polyline class="st0" points="63.7,31.3 63.7,31.3 63.7,31.3 63.7,31.3 "/>
<polyline class="st0" points="64.6,31.2 64.6,31.2 64.6,31.2 "/>
<path class="st0" d="M65,30.9c-0.1-0.2-0.4-0.2-0.6-0.2c0,0,0-0.1,0.1-0.1l0,0c0,0,0,0,0,0c0,0,0,0,0,0c0.1-0.1,0.2-0.4,0.1-0.5
	c-0.2-0.1-0.5-0.1-0.7,0.1c0.1-0.8-0.6-0.8-0.9-0.2c-0.7-0.6-0.7-0.3-0.7,0.5c0,0.3,0.4,0.5,0.7,0.6c0.5,0-0.2,2.4-0.2,2.9
	c-0.1-0.6-0.2-1.2-0.4-1.8l0,0c0,0,0,0,0,0c0,0,0,0,0,0c0,0,0,0,0,0c0,0,0-0.1,0-0.1c0,0,0,0,0,0c0,0,0,0,0,0c0,0,0,0,0,0
	c0.1-0.1,0-0.3-0.1-0.4c0,0,0,0,0,0c0,0,0,0,0,0c0,0,0,0,0,0c-0.1-0.2-0.2-0.2-0.3,0c-0.1,0.2,0,0.4,0.2,0.5c0.7,2,0,4.1-0.7,6
	c0.1-2.4,0.1-4.7-0.2-7.1c0.2-0.6,0.3-1.3,0.6-1.9c0,0,0,0,0,0c0,0,0-0.1,0.1-0.1c0,0,0,0,0,0c0,0,0,0,0,0l0,0c0,0,0-0.1,0.1-0.1v0
	c0,0,0,0,0,0c0,0,0,0,0,0c0.3-0.4,0.5-0.8,0.7-1.3c0,0,0.1,0,0.1,0l0,0c0,0,0,0,0,0c0,0,0,0,0,0c0.2-0.1,0.2-0.4,0.1-0.5v0
	c0,0,0,0,0,0c0,0,0,0,0,0c0,0,0,0,0,0c0,0,0,0,0,0c0,0,0,0,0,0l0,0c-0.1-0.1-0.2,0.1-0.2,0.2c0,0,0,0,0,0c0,0.1,0,0.2,0,0.2
	c0,0,0,0,0,0c0,0,0,0,0,0l0,0c0,0,0,0,0,0.1c-0.1,0.3-0.3,0.7-0.4,1c0,0,0,0,0,0c0,0-0.1,0.1-0.1,0.1c0,0,0,0,0,0
	c-0.1,0.1-0.1,0.2-0.2,0.2c0,0,0,0,0,0c0,0,0,0,0,0c0,0,0,0,0,0c0,0,0,0.1-0.1,0.1l0,0c0,0,0,0,0,0c0.1-0.2,0.1-0.4,0.2-0.7
	c0,0,0,0,0,0c0-0.1,0-0.1,0-0.2l0,0c0,0,0,0,0,0c0,0,0,0,0,0c0,0,0,0,0,0c0.2-0.9,0.3-1.7,0.3-2.6c0,0,0,0,0,0
	c0.2-0.3,0.4-0.5,0.2-0.8c0,0,0,0,0,0c0-0.1-0.1,0-0.2,0c-0.2,0.1-0.4,0.3-0.3,0.6c0,0,0,0,0,0c0,0.1,0.1,0.1,0.1,0.2c0,0,0,0,0,0
	c0,0,0,0,0,0c0,0,0,0,0,0c0,0,0,0.1,0.1,0.1c0,0.5-0.1,1.1-0.1,1.6c0,0,0,0,0,0c0,0.1-0.1,0.3-0.1,0.4c0-0.1,0-0.2-0.1-0.3l0,0
	c-0.1-0.4,0-0.8-0.1-1.1c0.1-0.1,0.1-0.7-0.1-0.5c0-0.1-0.1-0.2-0.2,0c0,0,0,0,0,0c-0.1,0.2-0.1,0.6,0.2,0.6
	c0.1,0.4,0.1,0.8,0.1,1.2l0,0c0,0.1,0,0.2,0.1,0.3c0,0,0,0,0,0c0,0,0,0,0,0v0c0,0,0,0,0,0c0,0,0,0,0,0c0,0.1,0,0.2,0,0.2
	c0,0,0,0,0,0l0,0c0,0.1,0,0.1,0,0.2c0,0,0,0,0,0c0,0,0,0,0,0l0,0c-0.2,0.9-0.4,1.7-0.7,2.5c0.1-1-0.4-2.3,0-3.2c0,0,0,0,0,0
	c0.1-0.1,0.2-0.2,0.2-0.4c0,0,0,0,0,0c0-0.2,0-0.4-0.1-0.6c0,0,0,0,0,0c0,0,0,0,0,0c0,0,0,0,0,0c0-0.1-0.1-0.2-0.1-0.2c0,0,0,0,0,0
	c0,0,0,0,0,0c0,0,0,0,0,0c0,0.1-0.1,0.1-0.1,0.2c-0.1-0.1-0.2-0.4-0.3-0.2c-0.2,0.2-0.4,0.6-0.2,0.9c0,0,0,0,0,0
	c0.1,0.2,0.3,0.3,0.4,0.5c0,0,0,0,0,0c0,0,0,0,0,0.1l0,0c0,0,0,0,0,0c0,0,0,0,0,0c0,0,0,0,0,0c0,0,0,0,0,0c0,0,0,0,0,0
	c0,0.7,0,1.4,0.1,2.1c0,0,0-0.1,0-0.1c0,0,0,0,0,0c-0.1-0.2-0.1-0.3-0.2-0.5c0,0,0,0,0,0c0,0,0-0.1,0-0.1c0,0,0,0,0,0
	c0,0,0-0.1,0-0.1c0,0,0,0,0,0c0-0.1,0-0.1-0.1-0.2c0,0,0,0,0,0c0-0.1-0.2-0.3-0.1-0.4c0,0,0,0,0,0c0.1-0.2,0-0.3-0.1-0.5
	c0,0,0,0,0,0c-0.2-0.2-0.4,0.6,0,0.6c0.1,0.2,0.1,0.3,0.2,0.5c0,0,0,0,0,0c0,0.1,0,0.1,0.1,0.2c0,0,0,0,0,0c0,0,0,0,0,0c0,0,0,0,0,0
	c0.1,0.2,0.1,0.3,0.2,0.5c0,0,0,0,0,0c0,0.1,0.1,0.2,0.1,0.3c0,0,0,0,0,0c0.1,1.1,0.1,2.3,0.2,3.4c0-0.1-0.1-0.2-0.1-0.3
	c0,0,0,0,0,0c0,0,0,0,0,0c0,0,0,0,0,0c0,0,0-0.1,0-0.1c0,0,0,0,0,0c-0.1-0.3-0.2-0.6-0.3-0.9c0,0,0,0,0,0c-0.1-0.3-0.2-0.6-0.3-0.8
	c0,0,0-0.1,0-0.1c0,0,0,0,0,0c0.2-0.4-0.2-0.7-0.5-0.8c-0.1,0-0.1,0-0.1,0.1c0,0,0,0,0,0c0,0,0,0.1,0,0.1c0,0,0,0,0,0c0,0,0,0,0,0
	l0,0c0,0.1,0,0.2,0,0.3c0,0,0,0,0,0c0,0.3,0.3,0.4,0.5,0.4c0,0.1,0.1,0.2,0.1,0.3c0,0,0,0,0,0c0,0.1,0,0.1,0,0.2c0,0,0,0,0,0
	c0,0,0,0,0,0l0,0c0,0,0,0,0,0v0c0,0,0,0,0,0.1c0,0,0,0,0,0c0,0,0,0,0,0v0c0,0,0,0,0,0c0,0,0,0,0,0c0.1,0.2,0.1,0.5,0.2,0.7l0,0
	c0.1,0.4,0.2,0.7,0.3,1.1c0,0,0,0,0,0c0,0.1,0.1,0.2,0.1,0.3c0,0,0,0,0,0c0,0.1,0,0.2,0.1,0.3c-0.1,1.6,0,3.3-0.1,4.9
	c-0.7,1.8-1.5,3.6-2.5,5.2c-0.7,1.1-1.4,2.1-2,3.3c0.6-2.4,0.9-4.8,1.3-7.2c0.6-1.2,1.2-2.4,1.7-3.7c0,0,0,0,0,0
	c0-0.1,0.1-0.1,0.1-0.1c0.1,0,0.1-0.1,0.2-0.2c0,0,0,0,0,0c0-0.1,0.1-0.5-0.1-0.4c0,0,0,0,0,0c-0.3,0.1-0.4,0.3-0.3,0.6v0
	c0,0,0,0,0,0c0,0,0,0,0,0c0,0,0,0.1,0,0.1c0,0,0,0,0,0c-0.4,1.2-1.1,2.4-1.7,3.6c0.4-3,0.6-5.9,0.5-8.9c-0.4-2.2,0.5-3,0.9-5.1
	c0.1-0.1,0.2-0.3,0.2-0.4c0,0,0,0,0,0c-0.1-0.8-0.8,0.1-0.3,0.4c0,0,0,0,0,0c0,0,0,0,0.1,0.1c-0.2,0.9-0.5,1.8-0.9,2.6
	c0-1.3,0-2.6-0.1-3.9c0.3-0.5,0.3-1.2,0.5-1.7c0,0,0,0,0,0c0,0,0,0,0,0c0,0,0,0,0,0c0.2-0.3,0.3-0.6,0.5-0.8l0,0c0,0,0,0,0,0
	c0,0,0,0,0,0c0,0,0,0,0,0l0,0c0,0,0,0,0-0.1c0,0,0,0,0,0c0.1-0.2,0.2-0.5,0.3-0.7c0,0,0,0,0,0c0,0,0,0,0,0c0,0,0,0,0,0c0,0,0,0,0,0
	c0,0,0,0,0,0c0,0,0-0.1,0-0.1v0c0,0,0,0,0,0v0c0.1-0.1,0.1-0.3,0.2-0.4l0,0c0.2-0.3,0.3-0.7,0.4-1c0,0,0,0,0,0c0,0,0,0,0,0
	c0,0,0.1-0.1,0.1-0.1c0,0,0,0,0,0c0.2-0.1,0.2-0.8-0.1-0.5c0,0,0,0,0,0c0,0,0,0,0,0l0,0c0,0,0,0,0,0l0,0c-0.2,0.1-0.3,0.3-0.2,0.5v0
	c0,0,0,0.1,0.1,0.1c0,0,0,0,0,0c0,0,0,0,0,0c0,0,0,0,0,0c0,0,0,0,0,0.1c-0.1,0.5-0.4,0.9-0.6,1.3c0,0,0,0,0,0c0,0.1-0.1,0.1-0.1,0.2
	c0,0,0,0,0,0c0,0,0,0,0,0l0,0c0,0,0,0,0,0c0,0,0,0,0,0c0,0.1-0.1,0.2-0.1,0.3l0,0c-0.1,0.2-0.2,0.3-0.2,0.5c0,0,0,0,0,0
	c0,0,0,0.1-0.1,0.1l0,0c0,0,0,0,0,0c0,0,0,0,0,0c-0.1,0.2-0.2,0.4-0.3,0.6c0-0.2,0.1-0.4,0.1-0.6c0,0,0,0,0,0c0-0.1,0-0.2,0-0.3
	c0,0,0,0,0,0c0.1-0.4,0.2-0.9,0.2-1.3l0,0c0,0,0,0,0,0v0c0.3-1.4,1.3-2.6,1.7-4c0.1-0.1,0.3-0.3,0.2-0.5l0,0c0,0,0-0.1,0-0.1
	c0,0,0,0,0,0c0,0,0-0.1-0.1-0.1c-0.2,0.1-0.4,0.3-0.3,0.5c0,0,0,0,0,0c0,0,0,0,0,0.1l0,0c0,0,0,0,0,0c0,0,0,0,0,0c0,0,0,0.1,0.1,0.1
	c0,0,0,0,0,0c0,0,0,0,0,0.1c-0.4,1.1-1.1,2.1-1.5,3.3c0.4-1.5,0.4-3.1,0.6-4.6c0.4-0.3,0.7,0.1,1.2-0.6c0,0,0,0,0,0c0,0,0,0,0,0
	c0,0,0,0,0,0c0,0,0,0,0,0c0,0,0,0,0,0c0,0,0,0,0,0c0,0,0,0,0,0c0.1-0.1-0.1-0.1-0.2-0.1c0,0,0,0,0,0c-0.1,0-0.1,0-0.2,0c0,0,0,0,0,0
	c0,0,0,0,0,0c0,0,0,0,0-0.1c0,0,0,0,0,0c0,0,0,0,0,0c0,0,0,0,0,0c0-0.2,0.1-0.4,0-0.6c-0.2-0.1-0.4,0.1-0.5,0.3
	c0-0.2-0.1-0.4-0.2-0.6c0,0,0,0,0,0c0-0.2-0.2-0.2-0.3,0c0,0,0,0,0,0c-0.1,0.2-0.2,0.4-0.3,0.6c0-0.1-0.1-0.2-0.1-0.2c0,0,0,0,0,0
	c0-0.1-0.1-0.1-0.2-0.2c0,0,0,0,0,0c-0.2-0.2-0.3,0.4-0.2,0.5v0c0,0,0,0,0,0c0,0,0,0,0,0c0,0.2,0.1,0.4,0.3,0.5c0,0,0,0,0,0
	c0.1,0.1,0.2,0.1,0.2,0.2c0,0,0,0,0,0c0.1,0.1,0.2,0.1,0.2,0.2c0,0,0,0,0,0c0,0,0,0,0,0c0,0.7-0.2,1.4-0.2,2c0-0.1,0-0.1-0.1-0.2
	c0,0,0,0,0,0c0-0.1-0.1-0.2-0.1-0.4c0,0,0,0,0,0c0,0,0,0,0,0l0,0c-0.1-0.2-0.1-0.5-0.2-0.7c0,0,0-0.1,0-0.1c0,0,0,0,0,0c0,0,0,0,0,0
	c0,0,0,0,0,0c0.1-0.1,0-0.3-0.1-0.4c0,0,0,0,0,0c0,0,0,0,0,0l0,0c0,0,0,0,0,0l0,0c0,0,0,0,0,0v0c0,0,0,0,0,0c0,0,0,0,0,0
	c0,0,0,0,0,0c0,0,0,0,0,0c-0.1-0.2-0.2,0.1-0.2,0.2c0,0,0,0,0,0s0,0,0,0c0,0.1,0.1,0.2,0.2,0.3c0.1,0.2,0.1,0.5,0.2,0.7l0,0
	c0,0,0,0,0,0c0,0,0,0,0,0c0,0.1,0.1,0.2,0.1,0.3c0,0,0,0,0,0c0,0,0,0,0,0c0,0,0,0,0,0c0,0,0,0,0,0c0,0,0,0,0,0c0,0,0,0.1,0,0.1
	c0,0,0,0,0,0c0,0,0,0,0,0c0,0,0,0,0,0c0.3,1-0.3,2.1-0.4,3.1c0,0,0,0,0,0c0,0,0,0,0,0c0,0,0,0,0,0c0,0,0,0.1,0,0.1v0
	c0,0.1,0,0.1,0,0.2c0,0,0,0,0,0c0,0,0,0.1,0,0.1c0,0,0,0,0,0c0,0.2-0.1,0.4-0.1,0.5c-0.1-0.9-0.1-1.9-0.2-2.8c0,0,0,0,0,0
	c0,0,0-0.1,0-0.1c0,0,0,0,0,0c0,0,0,0,0,0c0-0.1,0.1-0.1,0.1-0.2c0,0,0,0,0,0c0,0,0,0,0,0v0c0,0,0,0,0,0c0,0,0,0,0,0
	c0-0.1,0-0.2,0-0.3c0,0,0,0,0,0c0-0.2-0.1-0.2-0.2,0c0,0,0,0,0,0l0,0c-0.2-0.3-0.4,0.5,0,0.7c0,0,0,0,0,0c0,0,0,0,0,0
	c0,1.3,0.3,2.5,0.2,3.8c0,0,0,0,0,0c0,0,0,0,0,0l0,0c0,0,0,0.1,0,0.1c0,0,0,0,0,0c0,0.1,0,0.3-0.1,0.4c0,0,0,0,0,0
	c-0.1,0.6-0.2,1.2-0.4,1.7c-0.1-3.2-1.4-6.3-1.2-9.4c0,0,0,0,0,0c0,0,0,0,0,0l0,0c0,0,0,0,0,0v0c0,0,0,0,0,0c0,0,0,0,0,0
	c0,0,0-0.1,0-0.1l0,0c0,0,0-0.1,0.1-0.1c0,0,0,0,0,0c0.2-0.4,0.3-0.8,0.5-1.2c0.2-0.1,0.2-0.4,0.1-0.6c0,0,0-0.1-0.1,0l0,0
	c-0.2,0.1-0.4,0.5-0.1,0.7c-0.1,0.4-0.3,0.8-0.5,1.1c0-0.7,0-1.3,0-2c0.2-0.1,0.2-0.6,0-0.7c-0.4,0-0.4,0.6-0.1,0.7
	c0,1,0,2.1-0.1,3.1c-0.2-0.7-0.5-1.4-0.6-2.1c-0.1,0-0.1-0.1,0-0.1c0-0.6,0.1-1.3,0.2-1.9c0-0.1,0-0.1,0.1-0.2c0,0,0,0,0,0
	c0.2-0.6,0.6-1.1,0.7-1.8c0,0,0.1,0,0.1,0c0,0,0,0,0,0c0,0,0,0,0,0c0,0,0,0,0,0c0.3,0,0.4-0.4,0.3-0.6v0c0,0,0,0,0,0
	c-0.1-0.1-0.1-0.3-0.1-0.3c-0.3,0.1-0.6,0.5-0.3,0.8c0,0,0,0,0,0c0,0,0,0,0,0c0,0,0,0,0,0c0,0,0,0,0,0c0,0.1-0.1,0.3-0.1,0.4
	c0,0,0,0,0,0c-0.2,0.3-0.3,0.7-0.5,1c0.1-0.9,0.3-1.8,0.1-2.7c0,0,0,0,0,0l0,0c0.4-0.3,0.1-0.7-0.2-0.9h0c0,0,0,0,0,0l0,0
	c-0.2-0.3-0.3,0.2-0.2,0.4c0,0,0,0,0,0c0,0,0,0,0,0c0,0.2,0.1,0.4,0.3,0.5c0.2,1.6-0.4,3.1-0.4,4.7c-0.2-0.6-0.4-1.2-0.6-1.8
	c0.9-0.2,0.8-1.1,0.8-1.9c0,0,0,0,0,0c0-0.1,0-0.1,0-0.2c0,0,0,0,0,0c0-0.2-0.2-0.1-0.3,0c-0.2,0-0.4,0.2-0.4,0.4c0,0,0,0,0,0
	c0,0,0,0.1,0,0.1c0-0.1-0.1-0.1-0.2-0.2c0,0,0,0,0,0c0,0,0,0,0,0c0,0,0,0,0,0c0,0,0,0,0,0l0,0c0,0,0-0.1,0-0.1c0,0,0,0,0,0
	c0,0,0,0,0,0c0-0.1,0-0.2,0-0.3c0,0,0,0,0,0c0,0,0-0.1,0-0.1c0,0,0,0,0,0c0,0,0,0,0-0.1l0,0l0,0c0,0,0,0,0,0c0,0,0,0,0,0
	c0,0,0,0,0,0c0,0,0,0,0-0.1c0,0,0,0,0,0c0-0.4-0.1-0.8-0.2-1.1c0,0,0,0,0,0c0,0,0,0,0,0c0,0,0,0,0,0c-0.1-0.3-0.2-0.6-0.3-0.8
	c0,0,0,0,0,0c0-0.1,0.1-0.2,0.1-0.3c0,0,0,0,0,0s0,0,0,0l0,0c0,0,0,0,0,0c0,0,0,0,0,0c0.1-0.3-0.2-0.4-0.3-0.6
	c-0.1-0.1-0.2,0.3-0.2,0.3c0,0,0,0,0,0c-0.1,0.2,0,0.3,0.1,0.4c0,0,0,0,0,0c0,0,0.1,0.1,0.1,0.1c0,0,0,0,0,0c0,0,0,0,0,0
	C55,7.5,55.1,7.8,55.1,8l0,0v0l0,0c0,0,0,0,0,0c0,0,0,0,0,0c0.1,0.5,0.2,1,0.3,1.4c0,0,0,0,0,0c0,0,0,0,0,0c0,0,0,0,0,0
	c0,0,0,0.1,0,0.1c0,0,0,0,0,0c0,0,0,0,0,0l0,0c0,0,0,0,0,0l0,0c0,0,0,0,0,0c0,0,0,0,0,0c0,0,0,0,0,0l0,0c0,0.1,0,0.1,0,0.2
	c-0.1-0.2-0.3-0.2-0.4-0.3c0,0,0,0,0,0c-0.4-0.4-0.5,0.6-0.5,0.8c0,0,0,0,0,0c0,0,0,0,0,0c0,0,0,0,0,0c0,0,0,0,0,0c0,0,0,0,0,0
	c-0.1,0-0.1-0.1-0.2-0.1c0-0.1-0.1-0.2-0.1-0.3c0,0,0,0,0,0C54.1,9.7,54,9.5,54,9.2c0.1-0.2,0.2-0.5-0.1-0.6c0,0,0,0,0,0
	c0,0-0.1-0.1-0.1-0.1c0,0,0,0,0,0c0,0,0,0,0,0c0,0,0,0,0,0c-0.1-0.2-0.2,0-0.3,0.1c-0.1,0.3,0,0.5,0.3,0.6c0,0,0,0,0,0
	C53.9,9.4,54,9.5,54,9.7c0,0,0,0,0,0c0,0,0,0,0,0c0,0,0,0,0,0c0,0,0,0,0,0c0,0,0,0,0,0c0,0,0,0,0,0c0,0,0,0,0,0c0,0,0,0,0,0
	c0,0.2,0.1,0.3,0.2,0.5c-0.8,0-0.4,0.3-0.2,0.8c-0.1,0-0.2,0-0.3,0c0,0,0,0,0,0c-0.1,0-0.2,0.1-0.3,0.1c-0.1,0-0.1,0.1,0,0.1l0,0
	c0.4,0.5,0.9,0.7,1.5,0.6c0.6,1.1,1.4,2.1,1.6,3.3c-0.3-0.4-0.6-0.8-0.8-1.2c0,0,0,0,0,0c-0.1-0.1-0.1-0.2-0.2-0.3c0,0,0,0,0,0
	c-0.2-0.4-0.5-0.8-0.7-1.2c0.1-0.2,0-0.4-0.1-0.5l0,0c0,0-0.2-0.2-0.2-0.1l0,0c0,0,0,0,0,0c-0.2-0.1-0.2,0.1-0.2,0.2c0,0,0,0,0,0
	c-0.1,0.3,0.2,0.6,0.5,0.5c0.1,0.2,0.3,0.5,0.4,0.7c0,0,0,0,0,0c0,0,0,0,0,0c0,0,0,0,0,0c0.4,0.8,0.9,1.5,1.5,2.3
	c0.5,1.4,0.5,3,0.9,4.5c-0.3-0.4-0.6-0.8-0.9-1.2c0,0,0,0,0,0c0,0,0,0,0,0l0,0c-0.1-0.1-0.2-0.3-0.3-0.4c0,0,0,0,0,0
	c0-0.1-0.1-0.2-0.1-0.3c0,0,0,0,0,0c0-0.1-0.1-0.2-0.1-0.3c0,0,0,0,0,0C56,17.6,56,17.5,56,17.3c0,0,0,0,0,0c0-0.2-0.1-0.5-0.1-0.7
	c0.1-0.1,0.2-0.2,0.2-0.3c0-0.2-0.2-0.8-0.4-0.4c0,0,0,0,0,0c0,0,0,0,0,0c0,0,0,0,0,0c0,0,0,0,0,0c0,0,0,0,0,0c0,0,0,0,0,0
	c-0.2-0.2-0.2,0.2-0.2,0.4c0,0.1,0.1,0.2,0.2,0.3l0,0c0,0,0,0,0,0c0,0,0,0,0,0c0,0,0,0,0,0c0,0,0,0,0,0c0,0,0,0,0,0v0c0,0,0,0,0,0
	c0,0,0,0,0,0c0,0,0,0,0,0c0,0,0,0,0,0c0,0,0,0,0,0c0,0.2,0.1,0.4,0.1,0.6l0,0c0,0.3,0.1,0.7,0.2,1c-0.1-0.1-0.2-0.3-0.3-0.4
	c0,0,0,0,0,0c-0.2-0.4-0.5-0.7-0.7-1c0,0,0,0,0,0c-0.1-0.2-0.2-0.3-0.3-0.5c0-0.1,0.1-0.3,0.1-0.4c0,0,0,0,0,0c0,0,0,0,0,0v0
	c0.1-0.2,0-0.4-0.1-0.6l0,0c0,0,0,0,0,0l0,0c0,0-0.1-0.1-0.1-0.1l0,0c0,0,0,0,0,0c0,0,0,0,0,0c-0.1-0.1-0.4-0.4-0.4,0c0,0,0,0,0,0
	c0,0,0,0,0,0c0,0,0,0,0,0c0,0,0,0.1,0,0.1c0,0,0,0-0.1,0c0,0,0,0,0,0c0,0,0,0,0,0c-0.1,0-0.3-0.1-0.2,0v0c0,0,0,0,0,0c0,0,0,0,0,0
	c0,0,0,0,0,0c0,0,0,0,0,0c0,0.5,0.2,1,0.7,1.2l0,0c0,0,0,0,0,0c0,0,0,0,0,0c0,0,0.1,0,0.1,0.1c0,0,0,0,0,0c0,0,0,0,0,0
	c0,0.1,0.1,0.1,0.1,0.2c0.1,0.1,0.1,0.2,0.2,0.4c0,0,0,0,0,0c0.1,0.2,0.3,0.5,0.5,0.7c-0.1-0.1-0.2-0.1-0.2-0.2c0,0,0,0,0,0
	c0,0,0,0,0,0l0,0c0,0-0.1-0.1-0.1-0.1c0,0,0,0,0,0c-0.1,0-0.1-0.1-0.2-0.1c0,0,0,0,0,0c-0.2-0.1-0.4-0.3-0.5-0.4c0,0,0,0,0,0
	c-0.1-0.2-0.1-0.3-0.3-0.4c0,0,0,0,0,0c0,0-0.1,0-0.1-0.1h0c-0.1,0-0.1,0-0.2,0h0c0,0,0,0,0,0l0,0c-0.3-0.1-0.1,0.3,0,0.4l0,0
	c0.1,0,0.2,0.1,0.2,0.1c0,0,0,0,0,0c0,0,0,0,0,0l0,0c0.1,0,0.1,0,0.2,0.1c0.3,0.3,0.7,0.6,1.1,0.8c0,0,0,0,0,0
	c0.5,0.4,0.8,0.9,1.1,1.3c-0.2-0.1-0.4-0.2-0.6-0.4c0,0,0,0,0,0c-0.1-0.1-0.2-0.1-0.3-0.2c0,0,0,0,0,0c-0.2-0.1-0.3-0.2-0.5-0.2
	c-0.1-0.1-0.1-0.3-0.2-0.3v0c0,0,0,0,0,0l0,0c-0.1-0.1-0.3-0.2-0.4,0c0,0.1,0.1,0.3,0.2,0.4c0,0,0,0,0,0c0,0,0,0,0,0c0,0,0,0,0,0
	c0.1,0,0.2,0,0.3,0.1c0.1,0,0.2,0.1,0.2,0.1c0,0,0,0,0,0c0,0,0.1,0.1,0.1,0.1c0,0,0,0,0,0c0.9,0.5,1.5,0.9,2,1.8c0,0,0,0,0,0
	c0.4,1.5,0.5,3.2,0.7,4.8c-0.5-1.1-1-2.1-1.6-3.1c0,0,0,0,0,0c0,0,0,0,0,0c0,0,0,0,0,0c0,0,0,0,0,0c0.1-0.2-0.1-0.5-0.4-0.6
	c-0.2,0.1-0.2,0.6,0.1,0.7l0,0c0.1,0,0.1,0,0.2,0c0,0,0,0,0,0c0,0,0,0,0,0c1.4,2.6,2,3.7,1.7,6.7c0,2.9,0.2,5.9-0.2,8.8c0,0,0,0,0,0
	c0,0.1,0,0.1,0,0.2c0-0.1,0-0.1,0-0.2c0,0,0,0,0,0c0-0.2-0.1-0.5-0.1-0.7c0,0,0,0,0,0c0-0.1,0-0.1,0-0.2c0,0,0,0,0,0
	c-0.3-1.5-0.8-2.9-1.2-4.4c0,0,0,0,0,0c0,0,0,0,0,0v0c0.1-0.9,0-1.8,0-2.7c0,0,0,0,0,0c0,0,0,0,0,0c0,0,0,0,0,0c0,0,0,0,0,0
	c0,0,0,0,0,0c0.1-0.6,0.4-1.2,0.5-1.8c0,0,0,0,0,0c0,0,0,0,0,0c0.2-0.1,0.4-0.6,0.1-0.6c-0.2,0.1-0.2,0.4-0.2,0.6c0,0.1,0,0.1,0,0.2
	l0,0c-0.1,0.5-0.3,1-0.5,1.4c0-0.5-0.1-0.9-0.1-1.4c0,0,0,0,0,0c0-1.2-0.5-2.4-0.4-3.5c0.1-0.2,0-0.8-0.3-0.8l0,0c0,0,0,0,0,0v0
	c0,0,0,0,0,0c0,0,0,0,0,0c0,0-0.1,0.1-0.1,0.1l0,0c0,0,0,0,0,0l0,0c0,0-0.1,0.1-0.1,0.1l0,0c0,0,0,0,0,0c0,0,0,0,0,0c0,0,0,0,0,0h0
	c-0.2,0.3,0.1,0.6,0.3,0.7c0.2,1,0.3,1.9,0.4,2.9c-0.1-0.2-0.2-0.3-0.2-0.5c0,0,0,0,0,0c-0.2-0.5-0.4-0.9-0.6-1.4c0,0,0,0,0,0
	c0,0,0,0,0,0c0,0,0,0,0,0c0,0,0,0,0,0c0,0,0,0,0,0v0c0,0,0,0,0,0c0,0,0,0,0,0c0,0,0,0,0,0c0,0,0,0,0,0c0.1-0.2,0-0.5-0.2-0.6
	c0,0-0.1-0.2-0.2-0.1c-0.3-0.1-0.2,0.7,0,0.7c0,0,0,0,0,0c0,0,0.1,0,0.1,0.1c0,0,0,0,0,0c0,0,0.1,0,0.1,0c0.2,0.3,0.3,0.7,0.5,1.1
	c0,0,0,0,0,0c0,0,0,0,0,0.1c0,0,0,0,0,0c0,0,0,0,0,0v0c0,0,0,0,0,0c0,0,0,0,0,0c0,0,0,0.1,0,0.1c0,0,0,0,0,0
	c0.1,0.2,0.2,0.5,0.3,0.7c0,0,0,0,0,0c0,0.1,0,0.1,0.1,0.2c0,1.3,0.1,2.5,0.1,3.8c0,0,0,0,0,0c0,0,0,0,0,0c0,0,0,0,0,0
	c0,0.2,0,0.3,0,0.5c-0.6-1.9-1.4-3.7-1.9-5.6c0,0,0-0.1,0-0.1c0,0,0,0,0,0c0.2-0.3,0.1-0.6-0.1-0.8c0,0,0,0,0,0c0,0,0,0,0,0
	c0,0,0,0,0,0c0-0.1-0.1-0.1-0.2-0.2c0,0,0,0,0,0c-0.1-0.1-0.1-0.4-0.2-0.2c0,0,0,0,0,0c0,0,0,0.1-0.1,0.1c0,0,0,0,0,0c0,0,0,0,0,0
	l0,0c0,0,0,0,0,0c0,0,0,0,0,0c0,0,0-0.1,0-0.1c0,0,0,0,0,0c0,0,0,0,0,0c0,0,0,0,0,0c0,0,0,0,0,0c0,0,0,0,0,0c0,0,0-0.1,0-0.1
	c0,0,0,0,0,0c0,0,0-0.1,0-0.1c0,0,0,0,0,0c0-0.1,0-0.1-0.1-0.2c0,0,0,0,0,0v0c0,0,0,0,0,0l0,0c0.1-0.2-0.1-0.5-0.3-0.5
	c-0.1,0-0.1,0.1-0.1,0.2c-0.1,0.2,0.1,0.4,0.2,0.4h0c0,0,0,0,0,0l0,0c0,0,0,0,0,0h0c0,0,0,0,0,0c0,0,0,0,0,0c0,0,0.1,0,0.1,0
	c0,0,0,0,0,0.1c0,0,0,0,0,0c0,0,0,0,0,0.1c0,0,0,0,0,0c0,0,0,0.1,0,0.1c0,0,0,0,0,0c0,0,0,0,0,0c0,0,0,0,0,0c0,0.1,0,0.1,0.1,0.2
	c0,0,0,0,0,0c0,0,0,0.1,0.1,0.1c0,0,0,0,0,0c0,0,0,0,0,0c0,0,0,0,0,0c0,0,0,0,0,0l0,0c0,0,0,0,0,0v0c0,0,0,0,0,0v0c0,0,0,0,0,0
	c0,0,0,0,0,0s0,0,0,0l0,0c0,0.1,0,0.2,0,0.2c-0.1-0.1-0.1-0.1-0.2-0.2c0,0,0,0,0,0c0,0,0,0,0,0c0,0,0,0,0,0c0,0,0,0,0,0l0,0
	c-0.1-0.1-0.3-0.2-0.5-0.1c-0.1,0.3,0,0.7,0,1c-0.1,0-0.2,0-0.3,0c0,0,0,0,0,0c0,0-0.1,0-0.1,0c0,0,0,0,0,0c-0.1,0-0.5,0.1-0.5,0.3
	c0.1,0.1,0.3,0.2,0.4,0.3c0.4,0.5,0.7,0.3,1.2,0.1c0.4,0.1,0.4,0.7,0.6,1c0.4,0.8,0.8,1.5,1,2.3c-0.6-0.6-1.2-1.2-1.8-1.9
	c0,0,0,0,0,0c0,0,0,0,0,0c0,0,0,0,0,0c0,0,0,0,0,0l0,0v0c0,0,0,0,0,0c0,0,0,0,0,0c0,0,0,0,0,0c0,0,0-0.1,0-0.1c0,0,0,0,0,0
	c0,0,0,0,0,0l0,0c0,0,0-0.1,0-0.1c0,0,0,0,0,0c0-0.1-0.5-0.5-0.4-0.2c-0.3,0-0.2,0.3-0.1,0.4c0.1,0.2,0.3,0.2,0.5,0.2
	c0.6,0.6,1.2,1.3,1.8,1.9c0,0,0,0,0,0c0,0,0,0,0,0c0,0,0,0,0,0c0,0,0,0,0,0.1c0,0,0,0,0,0c0,0,0,0.1,0.1,0.1c0,0,0,0,0,0
	c0.6,1.5,1,3.1,1.4,4.6c-0.1-0.1-0.1-0.2-0.2-0.3c0,0,0,0,0,0c-0.2-0.4-0.5-0.7-0.7-1.1c0,0,0,0,0,0c-0.4-0.6-0.9-1.3-1.4-1.9
	c0.3-0.3-0.2-0.8-0.5-0.8c-0.2,0-0.2,0.1-0.2,0.2c0,0.3,0.3,0.8,0.6,0.6c0.2,0.2,0.3,0.4,0.5,0.6c0,0,0,0,0,0c0,0.1,0.1,0.1,0.1,0.2
	c0,0,0,0,0,0c0.3,0.4,0.6,0.8,0.8,1.2c-0.2-0.2-0.4-0.3-0.6-0.5c0,0,0,0,0,0c-0.2-0.2-0.5-0.3-0.7-0.5v0c0-0.2-0.3-0.5-0.5-0.3
	c0,0.2,0.3,0.4,0.5,0.4c0.2,0.1,0.4,0.3,0.6,0.4c0,0,0,0,0,0c0,0,0,0,0.1,0.1c0,0,0,0,0,0c0,0,0,0,0,0c0,0,0,0,0,0
	c0,0,0.1,0,0.1,0.1c0,0,0,0,0,0c0,0,0,0,0,0c0,0,0,0,0,0c0.1,0.1,0.3,0.2,0.4,0.3c0,0,0,0,0,0c0,0,0,0,0,0c0,0,0,0,0,0
	c0.1,0.1,0.2,0.2,0.3,0.3c0,0,0,0,0,0c0.2,0.1,0.3,0.3,0.4,0.5c0,0,0,0,0,0c0.4,0.6,0.7,1.2,0.8,1.9c0,0,0,0,0,0c0,0,0,0,0,0
	c0.6,2.1,0.2,4.2-0.1,6.3c-0.6,3.8-1.7,7.5-3.1,11.2c0-0.3,0-0.6,0-0.9c0,0,0,0,0,0c0-0.1,0-0.2,0-0.3c0,0,0,0,0,0
	c0.3-2.3,0.3-4.6,0.3-6.9c0.2-0.5,0.3-1.1,0.5-1.6c0,0,0,0,0,0c0.2-0.6,0.3-1.2,0.5-1.9c0,0,0,0,0,0c0,0,0-0.1,0-0.1c0,0,0,0,0,0
	c0-0.1,0-0.2,0.1-0.3c0.1-0.1,0.2-0.1,0.2-0.3c0-0.1,0.1-0.6-0.2-0.4c0,0,0,0,0,0c0,0,0,0,0,0c0-0.1-0.1,0-0.1,0c0,0,0,0,0,0
	c0,0-0.1,0.1-0.1,0.1c0,0,0,0,0,0c0,0,0,0,0,0c0,0,0,0,0,0c-0.2,0.2,0,0.4,0.1,0.6c0,0,0,0,0,0l0,0v0c0,0,0,0,0,0c0,0,0,0,0,0
	c-0.2,1.1-0.6,2.2-1,3.2c-0.1-1-0.2-2.1,0-3.2c0,0,0,0,0,0c0,0,0,0,0,0v0c0-0.1,0-0.1,0.1-0.2c0,0,0,0,0,0c0,0,0,0,0,0c0,0,0,0,0,0
	c0.1-0.2,0.1-0.4,0.2-0.5c0,0,0,0,0,0c0.2-0.3,0.4-0.5,0.6-0.8c0,0,0,0,0,0c0,0,0,0,0-0.1c0,0,0,0,0,0c0-0.1,0.1-0.1,0.1-0.2
	c0,0,0,0,0,0c0,0,0,0,0,0c0,0,0,0,0,0c0.1-0.1,0.2-0.3,0.3-0.5c0,0,0,0,0,0c0,0,0,0,0,0c0.2,0,0.3-0.4,0.2-0.5
	c-0.2,0-0.4,0.2-0.4,0.4v0c0,0.1,0,0.1,0.1,0.2c-0.1,0.1-0.2,0.2-0.2,0.3c0,0,0,0,0,0c0,0-0.1,0.1-0.1,0.1l0,0c0,0,0,0,0,0
	c0,0,0,0,0,0c-0.2,0.3-0.5,0.6-0.7,0.9c0.2-0.6,0.3-1.2,0.4-1.9c0.6-0.1,0.9-0.5,0.7-1.1c0,0,0,0,0,0c0,0,0,0,0,0c0,0,0,0,0,0
	c0,0,0-0.1,0-0.1c0,0,0,0,0,0c0,0,0,0,0,0c0,0,0,0,0,0c0-0.1,0-0.2,0-0.2l0,0c0-0.1-0.1-0.2-0.2-0.1c0,0,0,0,0,0c0,0,0,0,0,0
	c0,0,0,0,0,0c-0.1,0-0.2,0.1-0.2,0.2c0.1-0.3,0.1-0.6,0.1-0.9c0.1-0.1,0.2-0.2,0.2-0.4c0-0.1-0.2-0.5-0.3-0.3c0,0,0,0,0,0
	c0,0,0,0,0,0c0,0,0,0,0,0c0,0,0,0,0,0l0,0c0,0,0,0,0,0c0,0,0,0,0,0c0,0,0,0,0,0c0,0,0,0,0,0c-0.1,0.2-0.1,0.4,0,0.6
	c0,0.3-0.1,0.7-0.1,1c-0.2-0.7-0.4-0.8-0.8-0.1c0,0,0,0,0,0c0,0,0,0,0,0c-0.1-0.1-0.2-0.2-0.3-0.3c0,0,0,0,0,0c0,0,0,0,0,0l0,0
	C54.2,38,54.1,37.8,54,38c0,0,0,0,0,0c0,0-0.1,0.1-0.1,0.2c0,0,0,0,0,0c-0.1,0.1-0.1,0.2-0.1,0.3v0c0,0,0,0,0,0l0,0
	c0,0.1,0,0.2,0,0.3c-0.2-0.1-0.4-0.2-0.6-0.2c-0.1,0,0,0.2,0,0.3c0,0,0,0,0,0c0.1,0.9,0.7,0.9,1.4,1.1c0,0,0,0,0,0
	c0,0,0.1,0,0.1,0.1c0,0.4-0.1,0.8-0.1,1.1l0,0c0,0,0,0,0,0v0c0,0.6,0,1.1,0,1.7c0,0,0,0,0,0c0,0,0,0.1,0,0.1c0,0,0,0,0,0
	c0,0.1,0,0.3,0,0.4c0,0,0,0,0,0c0,0.1,0,0.1,0,0.2c-0.1-0.3-0.2-0.7-0.3-1c0,0,0,0,0,0c0-0.1-0.1-0.3-0.1-0.4c0,0,0,0,0,0
	c-0.1-0.4-0.3-0.8-0.4-1.2c0,0,0,0,0,0c0,0,0,0,0,0c0,0,0,0,0,0c0.1-0.3,0-0.7-0.3-0.8c-0.3,0.3-0.3,0.7,0.1,0.8c0,0,0,0,0,0
	c0.1,0,0.1,0.1,0.1,0.1c0.1,0.5,0.3,1,0.5,1.6c0,0,0,0,0,0c0,0,0,0,0,0c0,0,0,0,0,0c0.6,1.5,0.5,3.1,0.5,4.6c0,0,0,0,0,0
	c0,0,0,0.1,0,0.1c0,0,0,0,0,0c0,0,0,0,0,0c0,0,0,0,0,0c0,0.1,0,0.2,0,0.4c-0.2-0.8-0.4-1.6-0.8-2.3c0,0,0,0,0,0c0,0,0,0,0,0
	c0,0,0,0,0,0c0,0,0,0,0,0c0,0,0,0,0,0c0,0,0,0,0,0c0,0,0,0,0,0s0,0,0,0c0,0,0,0,0,0c0,0,0,0,0,0c0,0,0,0,0,0c0-0.1-0.1-0.2-0.1-0.3
	c0,0,0,0,0,0c0,0,0,0,0,0l0,0c-0.1-0.3-0.2-0.5-0.3-0.8c0,0,0,0,0,0c0,0,0,0,0,0c0,0,0,0,0,0c0,0,0,0,0,0c0.1-0.2,0.1-0.5,0-0.7
	c0-0.1-0.3-0.5-0.4-0.2c0,0,0,0,0,0c0,0,0,0,0,0v0c0,0,0,0,0,0c-0.1-0.1-0.2-0.1-0.3-0.1c0,0,0,0,0,0c-0.2-0.1-0.2,0.1-0.2,0.2
	c-0.1,0.4,0.2,0.8,0.6,0.8l0,0c0,0,0,0,0,0c0,0,0,0,0,0c0,0,0,0,0,0c0.2,0.4,0.3,0.9,0.5,1.3c0,0,0,0,0,0c0,0,0,0,0,0c0,0,0,0,0,0
	c1.2,2.8,0.8,4.9,0.5,7.8c0,0,0,0,0,0c0.2,2.1-0.8,3.9-2,5.6c-0.6,0.8-1.2,1.3-0.9,1.5c0.2,0.1,0.7-0.5,1-0.9c1.6-2.2,2.5-5,3.3-7.6
	c0.1-0.1,0.1-0.2,0.2-0.3c0,0,0,0,0,0c0,0,0,0,0,0c0,0,0,0,0,0c0,0,0,0,0-0.1c0,0,0,0,0,0c0-0.1,0.1-0.1,0.1-0.2c0,0,0,0,0,0
	c1-1.4,1.9-2.8,2.9-4.1c0.3-0.1,1.1-1,0.5-1.1c-0.3,0.1-0.6,0.5-0.5,0.9c-1,1.3-1.8,2.6-2.8,3.8c0.2-0.5,0.4-1.1,0.6-1.6
	c0,0,0,0,0,0c0,0,0,0,0,0c0,0,0,0,0,0c0,0,0,0,0,0c0.1-0.2,0.1-0.3,0.2-0.5c0,0,0,0,0,0c0.1-0.2,0.1-0.3,0.2-0.5v0
	c0.8-1.9,2.3-3.5,3.1-5.5c0.8-0.7,1.5-1.5,2.2-2.4c0,0,0,0,0,0c0,0,0,0,0,0c0,0,0,0,0,0c0,0,0,0,0,0c0,0,0,0,0,0
	c0-0.1,0.1-0.1,0.1-0.2l0,0c0,0,0,0,0,0c0,0,0,0,0,0c0,0,0.1-0.1,0.1-0.1c0,0,0,0,0,0c0.3-0.4,0.5-0.9,0.7-1.4
	c0.4,0.1,0.6-0.3,0.4-0.7c0,0,0,0,0,0c0,0,0,0,0,0c0,0,0,0,0,0c0-0.1,0-0.1,0-0.2l0,0c-0.1-0.4-0.6,0.3-0.5,0.5
	c-0.1,1.5-1.8,2.8-2.8,3.9c0.9-1.8,1.6-3.6,2.1-5.5c0.2-1.4,0.9-2.7,1.7-3.9c0.3,0,0.5-0.2,0.6-0.5c-0.3-0.4-0.8,0-0.6,0.5
	c-0.4,0.6-0.8,1.3-1.2,1.9c0.3-1.2,0.4-2.5,0.6-3.8c0,0,0,0,0,0c0,0,0,0,0,0c0.1,0,0.2,0.1,0.3,0.2h0c0.2,0,0.5,0.2,0.7,0.1l0,0
	c0.1,0,0.1-0.1,0.2-0.2c0,0,0,0,0,0c0,0,0,0,0,0c0,0,0,0,0,0c0,0,0.1-0.1,0.1-0.1c0,0,0,0,0,0c0,0,0,0,0,0l0,0c0,0,0,0,0.1-0.1
	c0,0,0,0,0,0C64.9,31,65,31,65,30.9 M62.3,31.6C62.3,31.6,62.3,31.6,62.3,31.6S62.3,31.6,62.3,31.6z M62.3,31.6c0,0,0.1,0.1,0.1,0.1
	l0,0c0,0,0,0,0,0c0,0,0,0,0,0v0l0,0c0,0.1,0,0.1,0,0.2c0,0,0,0,0,0c0,0,0,0.1,0,0.1c0,0,0,0,0,0c-0.1-0.1-0.1-0.1-0.1-0.2
	c0,0,0,0,0,0C62.3,31.8,62.3,31.7,62.3,31.6C62.3,31.6,62.3,31.6,62.3,31.6z M62.2,32c0,0,0-0.1,0-0.1C62.2,31.9,62.2,32,62.2,32
	C62.3,32,62.2,32,62.2,32z M63,27.7C63,27.8,63,27.8,63,27.7C63,27.8,63,27.8,63,27.7z M63.1,27.5c0,0.1,0,0.1-0.1,0.1c0,0,0,0,0,0
	c0,0,0,0,0,0C63.1,27.6,63.1,27.6,63.1,27.5C63.1,27.5,63.1,27.5,63.1,27.5L63.1,27.5C63.1,27.5,63.1,27.5,63.1,27.5
	C63.1,27.5,63.1,27.5,63.1,27.5z M63,27.3L63,27.3L63,27.3z M62.9,27.5C62.9,27.5,62.9,27.5,62.9,27.5C63,27.4,63,27.4,62.9,27.5
	C63,27.4,63,27.4,62.9,27.5C63,27.4,63,27.4,62.9,27.5c0-0.1,0.1-0.2,0.1-0.2c0,0,0,0,0,0.1c0,0,0,0,0,0c0,0,0,0.1,0,0.2
	c0,0,0,0,0,0c0,0,0,0,0,0c0,0,0,0,0,0c0,0,0,0.1-0.1,0.1c0,0,0,0,0,0c0,0,0,0,0,0v0c0,0,0,0,0,0c0,0,0,0,0,0c0,0,0,0,0,0
	c0,0,0,0,0,0v0C62.9,27.6,62.9,27.6,62.9,27.5C62.9,27.6,62.9,27.5,62.9,27.5C62.9,27.5,62.9,27.5,62.9,27.5
	C62.9,27.5,62.9,27.5,62.9,27.5C62.9,27.5,62.9,27.5,62.9,27.5z M62.1,26.2L62.1,26.2L62.1,26.2z M62.1,25.7L62.1,25.7L62.1,25.7
	L62.1,25.7z M62.1,25.7C62.1,25.7,62.1,25.7,62.1,25.7C62.1,25.7,62.1,25.7,62.1,25.7z M62,25.7C62.1,25.7,62.1,25.7,62,25.7
	C62.1,25.7,62.1,25.7,62,25.7L62,25.7c0.1,0,0.1,0.1,0.1,0.2c0,0,0,0,0,0c0,0.1,0,0.1,0,0.2C62,26,62,25.9,62,25.7z M61.9,26.1
	c-0.1-0.1-0.1-0.3,0-0.4c0,0,0,0.1,0,0.1C61.9,25.9,61.9,26,61.9,26.1C62,26.1,61.9,26.1,61.9,26.1z M62,26.2
	C62,26.2,62,26.2,62,26.2S62,26.2,62,26.2z M62,26.2L62,26.2L62,26.2C62,26.2,62,26.2,62,26.2z M62.9,25.1c0,0.1-0.1,0.2-0.1,0.3
	l0,0c0,0-0.1,0.1-0.1,0.1c0,0,0,0,0,0c0,0,0-0.1,0-0.1c0,0,0,0,0,0c0-0.1,0-0.1,0-0.2c0,0,0,0,0,0c0,0,0,0,0,0c0,0,0,0,0,0
	c0,0,0,0,0,0c0,0,0,0,0,0c0-0.1,0.1-0.2,0.2-0.3C62.8,24.9,62.8,25,62.9,25.1z M62.5,25.5c-0.1-0.2-0.1-0.4,0.1-0.5
	C62.5,25.1,62.5,25.3,62.5,25.5C62.5,25.5,62.5,25.5,62.5,25.5z M61.5,26.4L61.5,26.4L61.5,26.4L61.5,26.4z M61.5,26.4
	C61.5,26.4,61.5,26.4,61.5,26.4C61.5,26.4,61.5,26.4,61.5,26.4z M61.4,26.6c0-0.1,0.1-0.1,0.1-0.2c0,0,0,0,0,0c0,0,0,0,0,0v0
	c0,0,0,0,0,0c0,0,0,0,0,0s0,0,0,0c0,0,0,0.1,0,0.1c0,0,0,0,0,0c0,0,0,0,0,0l0,0c0,0,0,0.1,0,0.1c0,0,0,0,0,0c0,0,0,0,0,0l0,0
	c0.1,0.2,0,0.5-0.1,0.6c0,0,0,0,0,0c0,0,0,0,0,0c0,0,0,0,0,0c0,0-0.1,0.1-0.1,0.1c0-0.1,0-0.1,0-0.2c0,0,0,0,0,0c0,0,0,0,0,0
	c0,0,0,0,0,0c0-0.1,0-0.3,0-0.4C61.4,26.8,61.4,26.7,61.4,26.6z M61.4,26.7C61.4,26.7,61.4,26.7,61.4,26.7
	C61.4,26.7,61.4,26.7,61.4,26.7z M61.1,26.4C61.1,26.4,61.1,26.4,61.1,26.4L61.1,26.4c0.2,0.3,0.3,0.6,0.2,0.9c0,0,0,0,0,0
	c0,0,0,0,0,0c0,0,0,0,0,0c0,0.1,0,0.1,0,0.2c0,0,0,0,0,0c0,0,0,0,0,0c0,0,0,0,0,0c0,0,0,0,0,0.1c0,0,0,0,0,0
	c-0.1-0.2-0.3-0.4-0.3-0.7c0,0,0,0,0,0c0,0,0,0,0,0c0,0,0,0,0,0c0-0.1,0-0.1,0-0.2c0,0,0,0,0,0c0,0,0-0.1,0-0.1v0
	C61,26.5,61.1,26.4,61.1,26.4z M61.2,27.6c-0.1,0-0.2-0.2-0.3-0.3c0,0,0,0,0,0c-0.1-0.2-0.1-0.5,0-0.6c0,0,0,0,0,0c0,0,0,0,0,0
	C60.7,27,61,27.3,61.2,27.6C61.2,27.6,61.2,27.6,61.2,27.6z M60.7,28.3c0.1,0.1,0.1,0.2,0.1,0.3C60.7,28.5,60.6,28.4,60.7,28.3
	L60.7,28.3C60.7,28.3,60.7,28.3,60.7,28.3C60.7,28.3,60.7,28.3,60.7,28.3C60.7,28.3,60.7,28.3,60.7,28.3L60.7,28.3L60.7,28.3
	C60.7,28.2,60.7,28.2,60.7,28.3L60.7,28.3C60.7,28.2,60.7,28.2,60.7,28.3L60.7,28.3C60.7,28.2,60.7,28.2,60.7,28.3
	C60.7,28.2,60.7,28.2,60.7,28.3C60.7,28.2,60.7,28.2,60.7,28.3L60.7,28.3C60.7,28.2,60.7,28.2,60.7,28.3
	C60.7,28.2,60.7,28.2,60.7,28.3C60.7,28.2,60.7,28.3,60.7,28.3z M60.6,28.4L60.6,28.4z M60.6,28.6c-0.1,0-0.1-0.2-0.1-0.2
	C60.6,28.4,60.6,28.5,60.6,28.6C60.6,28.5,60.6,28.5,60.6,28.6C60.6,28.6,60.7,28.6,60.6,28.6C60.7,28.6,60.7,28.6,60.6,28.6z
	 M60.3,30.7c0.3,0.1,0.4,0.4,0.4,0.6c-0.1-0.1-0.2-0.2-0.3-0.4c0,0,0,0,0,0c0,0,0,0,0,0c0,0,0,0,0,0c0,0,0,0,0,0l0,0
	C60.3,30.8,60.3,30.7,60.3,30.7C60.2,30.7,60.3,30.7,60.3,30.7z M60.5,31.3c-0.3,0-0.4-0.3-0.3-0.5l0,0c0,0,0-0.1,0-0.1
	c0,0.1,0,0.2,0.1,0.2c0,0,0,0,0,0c0,0,0,0,0,0l0,0C60.3,31.1,60.4,31.2,60.5,31.3C60.5,31.3,60.5,31.3,60.5,31.3z M60.2,36.2
	c0,0.1,0,0.1,0,0.2c0,0,0,0,0,0c0,0.1-0.1,0.2-0.2,0.2c0-0.2,0-0.4,0.2-0.5C60.2,36.1,60.2,36.2,60.2,36.2z M59.9,36.4
	c0-0.1,0-0.3,0.1-0.3c0,0.1-0.1,0.1-0.1,0.2c0,0,0,0,0,0C59.9,36.3,59.9,36.3,59.9,36.4c0-0.1,0-0.1,0-0.1
	C59.9,36.4,59.9,36.4,59.9,36.4C59.9,36.5,59.9,36.5,59.9,36.4z M59.7,25.8c0,0.1,0,0.2-0.1,0.3c0,0,0,0,0,0c0,0,0,0.1-0.1,0.1
	c-0.1-0.1-0.1-0.4,0-0.5C59.6,25.7,59.7,25.8,59.7,25.8z M59.4,26.1C59.4,26.1,59.4,26.1,59.4,26.1c-0.1-0.1-0.1-0.2,0-0.3
	C59.4,26,59.4,26.1,59.4,26.1L59.4,26.1C59.4,26.1,59.4,26.1,59.4,26.1C59.4,26.1,59.4,26.1,59.4,26.1z M58.9,28.4
	C58.9,28.4,58.9,28.4,58.9,28.4C58.9,28.4,58.9,28.4,58.9,28.4z M60.7,19.5C60.7,19.5,60.7,19.5,60.7,19.5
	C60.7,19.5,60.7,19.5,60.7,19.5z M60.7,19.5L60.7,19.5z M60.7,19.5C60.7,19.5,60.7,19.5,60.7,19.5C60.7,19.5,60.7,19.5,60.7,19.5z
	 M60.6,20C60.6,20,60.6,20,60.6,20C60.6,20,60.6,20,60.6,20L60.6,20z M60.7,19.6C60.7,19.6,60.7,19.6,60.7,19.6
	C60.7,19.6,60.7,19.6,60.7,19.6C60.7,19.7,60.7,19.7,60.7,19.6L60.7,19.6C60.7,19.7,60.7,19.7,60.7,19.6L60.7,19.6
	c0,0.1-0.1,0.2-0.1,0.3c0,0,0,0,0,0c0,0,0,0.1-0.1,0.1c0-0.2,0-0.3,0.1-0.5c0,0,0,0,0,0c0,0,0,0,0,0c0,0,0,0,0,0c0,0,0,0,0,0
	c0,0,0,0,0,0c0,0,0,0,0,0c0,0,0,0,0,0c0,0,0,0,0,0c0,0,0,0,0,0c0,0,0,0,0,0v0c0,0,0,0,0,0c0,0,0,0,0,0s0,0,0,0c0,0,0,0,0,0
	C60.7,19.5,60.7,19.6,60.7,19.6C60.7,19.6,60.7,19.6,60.7,19.6C60.7,19.6,60.7,19.6,60.7,19.6z M60.5,20
	C60.5,19.9,60.5,19.9,60.5,20C60.5,19.9,60.5,19.9,60.5,20c0-0.1-0.1-0.1,0-0.2c0,0,0,0,0,0c0-0.1,0-0.1,0.1-0.1
	C60.5,19.7,60.5,19.8,60.5,20C60.5,20,60.5,20,60.5,20C60.5,19.9,60.5,19.9,60.5,20L60.5,20z M60.5,20L60.5,20z M60.2,21
	C60.2,21,60.2,21,60.2,21C60.2,21,60.2,21,60.2,21z M61.3,16.5C61.3,16.5,61.3,16.5,61.3,16.5c0,0.1-0.1,0.2-0.2,0.3c0,0,0,0,0,0
	c0,0,0,0,0,0c0,0,0,0,0,0c0,0,0,0,0,0c0,0,0,0,0,0s0,0,0,0c0,0,0-0.1,0-0.1c0,0,0,0,0,0c0,0,0,0,0,0c0,0,0,0,0,0c0,0,0,0,0,0
	c0,0,0,0,0,0c0-0.1,0.1-0.3,0.1-0.4v0c0,0,0,0,0,0C61.3,16.4,61.3,16.5,61.3,16.5z M61.2,16.3L61.2,16.3L61.2,16.3
	C61.2,16.3,61.2,16.3,61.2,16.3S61.2,16.3,61.2,16.3z M61,16.9C61,16.9,61,16.8,61,16.9C61,16.8,61,16.8,61,16.9
	C61,16.8,61,16.8,61,16.9C61,16.8,61,16.8,61,16.9c0-0.1-0.1-0.1-0.1-0.1c0,0,0,0,0,0c0-0.1,0-0.1,0-0.2c0,0,0,0,0,0c0,0,0,0,0,0
	c0,0,0,0,0,0c0-0.1,0.1-0.1,0.1-0.1c0,0,0,0,0,0c0,0,0,0,0,0l0,0c0,0,0,0,0,0c-0.1,0.1-0.1,0.2-0.1,0.4l0,0C61,16.8,61,16.8,61,16.9
	L61,16.9C61,16.8,61,16.8,61,16.9C61,16.9,61,16.9,61,16.9C61.1,16.9,61.1,16.9,61,16.9C61.1,16.9,61,16.9,61,16.9z M61.3,15
	L61.3,15L61.3,15L61.3,15z M59.3,16.2c0,0,0-0.1-0.1-0.1c0,0,0,0,0,0c0,0,0,0,0,0c0,0,0,0,0,0c0-0.1,0-0.1,0-0.2c0,0,0,0,0,0
	c0,0,0,0,0,0c0,0,0,0,0,0c0,0,0,0,0,0c0,0,0,0,0,0c0,0,0,0,0,0c0,0,0,0,0,0c0,0,0,0,0,0c0,0,0,0,0,0v0c0,0,0,0,0,0l0,0c0,0,0,0,0,0
	c0,0,0,0,0,0c0,0.1,0.1,0.1,0.1,0.2l0,0c0,0,0,0,0,0v0C59.4,16.2,59.3,16.2,59.3,16.2C59.3,16.2,59.3,16.2,59.3,16.2z M58.9,18.4
	L58.9,18.4L58.9,18.4z M59,17.9C59,17.9,59,17.9,59,17.9S59,17.9,59,17.9z M59,17.9C59,17.9,59,17.9,59,17.9
	c0.1,0.1,0.1,0.3-0.1,0.5c0-0.1,0-0.2,0-0.3v0c0,0,0,0,0,0c0,0,0,0,0,0C58.9,18.1,58.9,18,59,17.9z M58.8,18L58.8,18L58.8,18
	L58.8,18C58.8,18,58.8,18,58.8,18C58.8,18,58.8,18,58.8,18C58.8,18,58.8,18,58.8,18C58.8,18,58.8,18,58.8,18z M58.8,17.9L58.8,17.9z
	 M58.8,18.4C58.8,18.4,58.8,18.4,58.8,18.4C58.8,18.4,58.8,18.4,58.8,18.4c-0.1-0.1,0-0.3,0-0.4l0,0c0,0,0,0,0,0l0,0l0,0
	c0,0,0,0,0,0.1c0,0,0,0.1,0,0.1c0,0,0,0,0,0c0,0,0,0,0,0C58.8,18.2,58.8,18.3,58.8,18.4C58.8,18.4,58.8,18.4,58.8,18.4z M60.2,15.4
	C60.2,15.4,60.2,15.4,60.2,15.4C60.2,15.4,60.2,15.4,60.2,15.4z M60.2,15.4C60.2,15.4,60.2,15.4,60.2,15.4L60.2,15.4L60.2,15.4z
	 M61,15c0.1,0,0.2,0,0.3,0c0,0,0,0,0,0c0,0,0,0,0,0c0,0,0,0,0,0c0,0,0,0,0,0c0,0,0,0,0,0l0,0c0,0,0,0,0,0l0,0c0,0,0,0,0,0l0,0
	c0,0,0,0,0,0c0,0,0,0,0,0c-0.1,0.1-0.2,0.2-0.3,0.3c0,0,0,0,0,0s0,0,0,0c0,0,0,0,0,0c-0.2,0.1-0.5,0-0.7,0.1l0,0c0,0,0-0.1,0-0.1
	c0.2-0.1,0.4-0.1,0.5-0.2c0,0,0,0,0,0C60.8,15.1,60.9,15.1,61,15C60.9,15.1,60.9,15,61,15z M61,14.7C61,14.7,61,14.7,61,14.7
	C61,14.7,61,14.7,61,14.7z M60.9,14.4L60.9,14.4L60.9,14.4z M60.4,15c0.1-0.1,0.1-0.2,0.1-0.3c0.1-0.1,0.2-0.4,0.4-0.3
	c0,0.1,0,0.1,0,0.2c0,0,0,0,0,0c0,0.1,0,0.1,0,0.2c0,0,0,0,0,0c0,0,0,0,0,0c0,0,0,0,0,0c0,0,0,0,0,0.1c0,0,0,0,0,0
	c0,0.1-0.1,0.2-0.1,0.2h0c-0.1,0.1-0.3,0.1-0.5,0.2C60.3,15.2,60.3,15.1,60.4,15z M59.9,14.6c0.1-0.2,0.2-0.4,0.3-0.6
	c0.1,0.3,0.3,0.6,0.2,0.9c0,0,0,0,0,0c0,0,0,0,0,0c0,0,0,0,0,0c0,0,0,0,0,0c0,0,0,0,0,0c-0.1,0.1-0.2,0.3-0.3,0.4c0,0,0,0,0,0
	c0,0,0-0.1-0.1-0.1c0,0,0,0,0,0C59.9,15,59.8,14.8,59.9,14.6z M59.4,14.2L59.4,14.2z M59.9,15.3C59.9,15.3,59.9,15.3,59.9,15.3
	c-0.1-0.1-0.3-0.2-0.4-0.3l0,0c-0.1-0.1-0.1-0.2-0.2-0.3c0,0,0,0,0,0c0,0,0,0,0,0c0,0,0,0,0,0c0-0.2,0-0.4,0.1-0.5
	c0,0,0.1,0.1,0.1,0.1c0,0,0,0,0,0c0,0,0,0,0.1,0.1c0,0,0,0,0,0c0,0.1,0.1,0.1,0.1,0.2v0c0,0,0,0,0,0c0,0,0,0,0,0
	c0.1,0.3,0.2,0.5,0.3,0.8C60,15.3,59.9,15.3,59.9,15.3z M57.9,13.5c0,0.1,0,0.2-0.1,0.3c0-0.1,0-0.3,0.1-0.4
	C57.9,13.4,57.9,13.5,57.9,13.5z M57.7,13.7c0-0.1,0-0.2,0.1-0.3C57.7,13.5,57.7,13.6,57.7,13.7C57.7,13.7,57.7,13.7,57.7,13.7z
	 M57.3,12.6L57.3,12.6C57.3,12.6,57.3,12.6,57.3,12.6C57.3,12.6,57.3,12.6,57.3,12.6z M57.3,12.4L57.3,12.4L57.3,12.4z M57.3,12.5
	c0,0.1,0,0.3-0.1,0.4c0,0-0.1-0.1-0.1-0.2c0,0,0,0,0,0c0,0,0-0.1,0-0.1l0,0c0,0,0,0,0,0c0,0,0,0,0,0C57.1,12.6,57.2,12.5,57.3,12.5
	C57.2,12.5,57.2,12.5,57.3,12.5z M57,12.8C57,12.8,57,12.8,57,12.8C57,12.8,57,12.8,57,12.8c-0.1-0.2,0-0.3,0.1-0.4c0,0,0,0,0,0
	c0,0,0,0,0,0C57.1,12.6,57,12.7,57,12.8C57,12.9,57,12.9,57,12.8z M57.4,9.4c0,0,0.1-0.1,0.1-0.1c0,0.2,0,0.4-0.2,0.5
	C57.4,9.7,57.3,9.5,57.4,9.4z M57.6,9.4c0.1,0.2,0,0.5-0.3,0.6c0,0,0,0,0,0C57.6,9.8,57.7,9.6,57.6,9.4C57.6,9.4,57.6,9.4,57.6,9.4z
	 M57.3,9.8C57.3,9.8,57.3,9.8,57.3,9.8C57.3,9.8,57.3,9.8,57.3,9.8C57.3,9.8,57.3,9.8,57.3,9.8C57.3,9.8,57.3,9.8,57.3,9.8
	C57.3,9.8,57.3,9.8,57.3,9.8C57.3,9.8,57.3,9.8,57.3,9.8C57.3,9.8,57.3,9.8,57.3,9.8z M56.6,8c0.1,0.1,0.3,0.3,0.2,0.5
	c0-0.2-0.2-0.4-0.3-0.6C56.6,7.9,56.6,7.9,56.6,8z M56.6,8.6C56.6,8.6,56.6,8.6,56.6,8.6C56.6,8.5,56.6,8.5,56.6,8.6
	C56.6,8.5,56.6,8.5,56.6,8.6C56.6,8.5,56.6,8.5,56.6,8.6c-0.1-0.1-0.2-0.2-0.2-0.2v0c0-0.2,0-0.3,0-0.5c0.1,0.1,0.1,0.3,0.2,0.4v0
	C56.7,8.4,56.7,8.5,56.6,8.6C56.7,8.6,56.7,8.6,56.6,8.6z M54.8,6.8c0-0.1,0-0.1,0-0.2l0,0c0,0,0,0,0,0l0,0c0,0.1,0.1,0.1,0.1,0.2
	c0,0,0,0,0,0c0,0,0,0,0,0v0c0,0,0,0,0,0c0,0,0,0,0,0c0,0.1,0.1,0.3,0,0.4c0,0,0,0,0,0c0,0,0,0,0,0C54.8,7.1,54.8,6.9,54.8,6.8z
	 M54.8,6.6L54.8,6.6C54.8,6.6,54.8,6.6,54.8,6.6C54.8,6.6,54.8,6.6,54.8,6.6z M55,7.3L55,7.3L55,7.3z M55,6.7
	c0.1,0.1,0.1,0.2,0.1,0.3c0,0,0,0,0,0c0,0,0,0,0,0v0c0,0,0,0,0,0C55,7.1,55,7.2,55,7.2C55,7.1,55,6.9,55,6.7L55,6.7
	C55,6.8,55,6.7,55,6.7C55,6.7,55,6.7,55,6.7C54.9,6.7,54.9,6.7,55,6.7C54.9,6.7,55,6.7,55,6.7z M54.7,7c0-0.1,0-0.1,0-0.2
	c0,0,0,0,0,0c0,0,0,0,0,0c0,0,0,0,0,0c0,0,0,0,0,0c0,0.1,0,0.2,0.1,0.3C54.7,7.1,54.7,7.1,54.7,7c0,0.1,0,0.1,0,0.1
	C54.7,7,54.7,7,54.7,7z M54.9,7.3L54.9,7.3L54.9,7.3z M54.9,7.3L54.9,7.3L54.9,7.3z M54.9,7.3C54.9,7.3,54.9,7.3,54.9,7.3
	C54.9,7.3,54.9,7.3,54.9,7.3 M53.9,8.7C53.9,8.7,53.9,8.7,53.9,8.7C53.9,8.7,53.9,8.7,53.9,8.7C53.9,8.7,53.9,8.7,53.9,8.7
	C53.9,8.7,53.9,8.7,53.9,8.7L53.9,8.7C53.9,8.7,53.9,8.7,53.9,8.7L53.9,8.7C53.9,8.7,53.9,8.7,53.9,8.7C53.9,8.7,53.9,8.7,53.9,8.7
	C54,8.7,54,8.8,54,8.8c0,0,0,0,0,0c0,0,0,0,0,0c0,0,0,0,0,0C54,8.9,54,9,54,9c0,0,0,0,0,0c0,0,0,0,0,0.1c0,0,0,0,0,0l0,0h0l0,0
	C54,8.9,53.9,8.8,53.9,8.7C53.8,8.6,53.9,8.7,53.9,8.7z M53.6,8.5L53.6,8.5z M53.7,9c-0.1-0.1-0.1-0.2-0.1-0.3c0,0,0,0,0,0
	c0,0,0,0,0,0c0,0,0,0,0,0c0-0.1,0-0.1,0.1-0.2c0,0,0,0,0,0c0,0,0,0,0,0c0.1,0.2,0.2,0.3,0.2,0.5c0,0,0,0,0,0l0,0c0,0,0,0,0,0
	c0,0,0,0,0,0h0C53.8,9.1,53.7,9.1,53.7,9z M53.3,11.2L53.3,11.2z M53.3,11.1L53.3,11.1z M56.3,10.9C56.3,10.9,56.3,10.9,56.3,10.9
	C56.3,10.9,56.3,10.9,56.3,10.9z M55.9,10.2c0-0.1,0-0.1,0.1-0.2c0,0,0,0,0,0c0.1-0.2,0.2-0.3,0.4-0.3c0,0.1,0,0.1,0,0.2
	c0,0,0,0,0,0v0c0,0,0,0,0,0c0,0.2,0,0.4,0,0.6c0,0,0,0,0,0c0,0.4-0.1,0.8-0.5,1c0,0,0,0,0,0c0,0,0,0,0,0c0,0,0,0,0,0
	c0,0-0.1,0.1-0.1,0.1C56,11.1,55.8,10.6,55.9,10.2z M54.9,9.4L54.9,9.4L54.9,9.4L54.9,9.4z M54.9,9.4L54.9,9.4L54.9,9.4z M54.7,10
	c0-0.2,0.1-0.4,0.2-0.5c0.3,0.2,0.5,0.5,0.7,0.8c0,0,0,0,0,0c0,0,0,0,0,0c0,0,0,0,0,0c0.1,0.1,0.1,0.3,0.1,0.4v0
	c0,0.3,0,0.6-0.3,0.9c0,0,0,0,0,0h0c-0.1-0.1-0.2-0.1-0.3-0.2c0,0,0,0,0,0c0,0-0.1-0.1-0.1-0.1l0,0c-0.1-0.1-0.2-0.1-0.2-0.2
	c0,0,0,0,0,0c0,0,0,0,0,0c0,0,0,0,0,0c0,0,0,0,0,0l0,0c0,0,0,0,0,0c0,0,0,0,0,0c0-0.1-0.1-0.2-0.1-0.2c0,0,0,0,0,0
	c-0.1-0.2,0-0.3,0-0.5c0,0,0,0,0,0c0,0,0,0,0,0c0,0,0,0,0,0C54.7,10.1,54.7,10,54.7,10z M54.5,10.4L54.5,10.4L54.5,10.4z M54,10.6
	c-0.1-0.1-0.1-0.1-0.2-0.2c0,0,0.1,0,0.1,0c0,0,0,0,0,0c0,0,0,0,0,0c0,0,0,0,0,0c0.2,0,0.3,0,0.5,0c0,0,0,0,0,0c0.1,0,0.1,0,0.1,0.1
	l0,0c0,0,0,0,0,0l0,0c0,0,0,0,0,0c0,0.5,0.3,1,0.8,1.2c0,0,0,0,0,0c0,0,0,0,0,0c-0.1,0-0.1,0-0.2,0c0,0,0,0,0,0c0,0,0,0,0,0
	c0,0,0,0,0,0c-0.4,0-0.7-0.2-0.9-0.5v0c0,0,0,0,0,0c0,0,0,0,0,0C54.1,10.9,54.1,10.7,54,10.6z M53.4,11.2
	C53.4,11.2,53.4,11.2,53.4,11.2C53.4,11.2,53.4,11.2,53.4,11.2z M54.7,11.8c-0.1,0-0.2,0-0.3,0l0,0c0,0,0,0,0,0c0,0,0,0,0,0
	c-0.3-0.1-0.6-0.3-0.9-0.5c0,0,0,0,0,0c0,0-0.1-0.1-0.1-0.1c0.1,0,0.1,0,0.2-0.1c0,0,0,0,0,0c0.1,0,0.3-0.1,0.4,0c0,0,0,0,0,0
	c0.1,0,0.1,0.1,0.1,0.1c0,0,0,0,0,0C54.3,11.5,54.5,11.7,54.7,11.8c0.1,0,0.1,0,0.1,0C54.8,11.8,54.7,11.8,54.7,11.8z M55.8,13.2
	c-0.2-0.3-0.4-0.6-0.5-0.9c0,0,0,0,0,0c0,0,0,0,0,0l0,0c0,0,0,0,0,0c0,0,0,0,0,0c0,0,0-0.1-0.1-0.1c0,0,0,0,0,0
	c-0.1-0.1-0.2-0.3-0.2-0.4c0.1,0,0.3-0.1,0.4-0.1c0.2,0.6,0.4,1.2,0.6,1.8C55.9,13.4,55.9,13.3,55.8,13.2z M54.4,12.1
	C54.5,12.1,54.5,12.1,54.4,12.1C54.5,12.1,54.5,12.1,54.4,12.1c0.2,0.2,0.2,0.3,0.2,0.5v0c0,0,0,0,0,0c-0.1,0-0.2-0.2-0.2-0.3
	c0,0,0,0,0,0c0,0,0,0,0-0.1c0,0,0,0,0,0C54.4,12.1,54.4,12.1,54.4,12.1C54.4,12,54.4,12,54.4,12.1z M54.4,12
	C54.4,12,54.4,11.9,54.4,12C54.4,11.9,54.4,12,54.4,12z M54.4,12.2C54.4,12.2,54.4,12.2,54.4,12.2C54.4,12.2,54.4,12.2,54.4,12.2z
	 M54.4,12L54.4,12L54.4,12z M54.3,12.1L54.3,12.1L54.3,12.1z M54.3,12.1L54.3,12.1C54.3,12.1,54.3,12.1,54.3,12.1
	C54.3,12.1,54.3,12.1,54.3,12.1z M54.5,12.6c-0.2,0-0.2-0.3-0.2-0.5c0,0,0.1,0,0.1,0C54.4,12.2,54.3,12.5,54.5,12.6
	C54.5,12.6,54.5,12.6,54.5,12.6z M55.8,15.8C55.8,15.8,55.8,15.8,55.8,15.8L55.8,15.8C55.8,15.8,55.8,15.8,55.8,15.8z M55.8,15.8
	C55.8,15.8,55.8,15.8,55.8,15.8C55.8,15.8,55.8,15.8,55.8,15.8z M55.8,15.8L55.8,15.8C55.8,15.8,55.8,15.8,55.8,15.8
	S55.8,15.8,55.8,15.8z M55.8,15.8L55.8,15.8L55.8,15.8z M55.8,15.8C55.8,15.8,55.8,15.8,55.8,15.8C55.8,15.8,55.8,15.8,55.8,15.8z
	 M55.7,15.9c0.2-0.3,0.3,0.5,0.1,0.6c-0.1-0.1-0.1-0.2-0.2-0.3c0,0,0,0,0,0c0,0,0,0,0,0c0,0,0,0,0,0c0,0,0-0.1,0-0.1c0,0,0,0,0,0
	c0,0,0,0,0,0l0,0C55.7,16,55.7,15.9,55.7,15.9z M55.6,15.9C55.6,15.9,55.6,15.9,55.6,15.9C55.6,15.9,55.6,15.9,55.6,15.9z
	 M55.6,15.9C55.6,15.9,55.6,15.9,55.6,15.9S55.6,15.9,55.6,15.9 M55.5,15.8C55.5,15.8,55.5,15.8,55.5,15.8S55.5,15.8,55.5,15.8z
	 M55.7,16.5C55.7,16.5,55.7,16.5,55.7,16.5c-0.1-0.1-0.2-0.1-0.2-0.3c0,0,0,0,0,0c0,0,0,0,0,0c0,0,0,0,0,0c0,0,0-0.1,0-0.1v0
	c0,0,0,0,0,0c0,0,0,0,0,0c0-0.1,0-0.2,0-0.2c0,0,0,0,0,0l0,0c0,0,0,0,0,0c0,0,0,0,0,0c0,0,0,0,0,0c0,0,0,0,0,0c0,0,0,0,0,0
	c0,0,0,0,0,0C55.5,16.1,55.6,16.3,55.7,16.5C55.7,16.5,55.7,16.5,55.7,16.5z M53.9,15.2C53.9,15.2,53.9,15.2,53.9,15.2
	C53.9,15.2,53.9,15.2,53.9,15.2z M54.3,15.1c0.1,0,0.2,0.1,0.3,0.2c0,0,0,0,0,0c0,0,0,0,0,0c0,0,0,0,0,0c0.1,0.1,0.1,0.1,0.2,0.2
	c0,0,0,0,0,0c0,0.1,0.1,0.1,0.1,0.2v0c0,0,0,0,0,0c0,0,0,0,0,0c0,0.2-0.1,0.4-0.2,0.6c0,0-0.1-0.1-0.1-0.1c0,0,0,0,0,0c0,0,0,0,0,0
	c0,0,0,0,0,0c0,0,0,0,0,0c0,0,0,0,0,0c0,0,0,0,0,0v0c0,0,0-0.1-0.1-0.1l0,0c-0.1-0.2-0.2-0.5-0.2-0.7c0,0,0,0,0,0c0,0,0,0,0,0
	c0,0,0,0,0,0C54.3,15.3,54.3,15.3,54.3,15.1C54.3,15.2,54.3,15.2,54.3,15.1C54.3,15.2,54.3,15.2,54.3,15.1
	C54.3,15.2,54.3,15.2,54.3,15.1C54.3,15.1,54.3,15.1,54.3,15.1C54.3,15.1,54.3,15.1,54.3,15.1z M54.3,15C54.3,15,54.3,15,54.3,15
	C54.3,15,54.3,15,54.3,15z M54.2,15.1C54.2,15.1,54.2,15.1,54.2,15.1C54.2,15.1,54.2,15.1,54.2,15.1z M54.4,16.3
	C54.4,16.3,54.4,16.3,54.4,16.3C54.4,16.3,54.4,16.3,54.4,16.3C54.4,16.3,54.4,16.3,54.4,16.3C54.4,16.3,54.4,16.3,54.4,16.3
	c-0.4-0.2-0.5-0.6-0.5-1c0,0,0.1,0,0.1,0c0,0,0,0,0,0c0.1,0,0.1,0,0.2,0.1C54.1,15.7,54.3,16,54.4,16.3
	C54.4,16.3,54.4,16.3,54.4,16.3z M54.3,17C54.3,17,54.3,17,54.3,17L54.3,17C54.3,16.9,54.3,16.9,54.3,17
	C54.3,16.9,54.3,16.9,54.3,17c-0.2,0-0.2-0.1-0.3-0.1c0,0,0,0,0,0c0,0,0,0,0,0c0,0,0,0,0,0c-0.1,0-0.1-0.1-0.1-0.2c0,0,0.1,0,0.1,0
	c0,0,0,0,0,0c0,0,0,0,0,0l0,0c0,0,0.1,0,0.1,0c0,0,0,0,0,0c0,0,0.1,0,0.1,0.1c0,0,0,0,0,0c0,0,0,0,0.1,0c0,0,0,0,0,0
	C54.3,16.8,54.4,16.9,54.3,17C54.4,17,54.4,17,54.3,17z M54.7,18.1L54.7,18.1z M55,18.4c0,0-0.1,0-0.1,0l0,0v0v0l0,0c0,0,0,0,0,0
	l0,0l0,0c-0.1,0-0.1-0.2-0.2-0.3c0,0,0.1,0,0.1,0c0,0,0,0,0,0c0,0,0,0,0,0c0,0,0,0,0,0c0.1,0,0.1,0,0.2,0.1c0,0,0,0,0,0
	c0.1,0.1,0.1,0.1,0.1,0.2C55.1,18.4,55.1,18.4,55,18.4C55.1,18.4,55.1,18.4,55,18.4z M56.3,21.6L56.3,21.6
	C56.3,21.6,56.3,21.6,56.3,21.6C56.3,21.6,56.3,21.6,56.3,21.6z M56.3,21.6c0.1,0.1,0.2,0.2,0.2,0.3v0c0,0,0,0,0,0c0,0,0,0,0,0
	c0,0,0,0.1,0,0.1c0,0,0,0,0,0c0,0,0,0,0,0c0,0,0,0,0,0c0,0,0,0,0,0C56.4,21.9,56.3,21.8,56.3,21.6C56.3,21.6,56.3,21.6,56.3,21.6z
	 M56.3,21.6L56.3,21.6C56.3,21.6,56.3,21.6,56.3,21.6C56.3,21.6,56.3,21.6,56.3,21.6z M56.5,22.1c-0.2,0-0.2-0.2-0.2-0.3
	C56.3,21.9,56.4,22,56.5,22.1C56.5,22.1,56.5,22.1,56.5,22.1z M57.4,27.3L57.4,27.3L57.4,27.3z M57.4,27.3L57.4,27.3L57.4,27.3z
	 M57.4,27.3L57.4,27.3L57.4,27.3z M57.3,27.4c0-0.1,0.1-0.1,0.1-0.2c0,0.1,0,0.2-0.1,0.3v0c0,0,0,0,0,0c0,0,0,0,0,0
	c0,0,0,0.1-0.1,0.1C57.2,27.6,57.2,27.5,57.3,27.4z M56,23.9c0,0,0.1,0.1,0.1,0.1l0,0v0l0,0c0,0,0,0,0,0c0,0,0,0,0,0
	c0.1,0.2,0.1,0.4,0,0.6C56,24.4,55.8,24.2,56,23.9C55.9,23.9,55.9,23.9,56,23.9C55.9,23.9,55.9,23.9,56,23.9
	C55.9,23.9,55.9,23.9,56,23.9C55.9,23.9,55.9,23.9,56,23.9C55.9,23.9,55.9,23.9,56,23.9C55.9,23.9,55.9,23.9,56,23.9
	C56,23.8,56,23.8,56,23.9z M55.9,23.8L55.9,23.8L55.9,23.8z M55.9,23.8C55.9,23.8,55.9,23.8,55.9,23.8
	C55.9,23.8,55.9,23.8,55.9,23.8z M55.9,24.5c-0.1-0.1-0.2-0.3-0.1-0.5c0,0,0,0,0,0c0,0,0,0,0,0c0,0.2,0.1,0.4,0.2,0.6
	C56,24.6,55.9,24.6,55.9,24.5z M56,24.6C56,24.6,56,24.6,56,24.6C56,24.6,56,24.6,56,24.6z M55.5,25.7L55.5,25.7L55.5,25.7z
	 M55.4,25.1c0.2,0.2,0.2,0.4,0.2,0.6c0,0,0,0,0,0c0,0,0,0,0,0l0,0c-0.1,0-0.1-0.1-0.2-0.2c0,0,0,0,0,0c0,0,0,0,0,0c0,0,0,0,0,0
	C55.3,25.3,55.4,25.2,55.4,25.1C55.4,25.1,55.4,25.1,55.4,25.1z M55.2,25C55.2,25,55.2,25,55.2,25C55.2,25,55.2,25,55.2,25z
	 M55.4,25.7C55.4,25.7,55.4,25.7,55.4,25.7C55.4,25.7,55.4,25.7,55.4,25.7c-0.1-0.1-0.2-0.2-0.2-0.3c0,0,0,0,0,0c0,0,0,0,0,0
	c0,0,0,0,0,0c0-0.1,0-0.2,0-0.3c0,0,0,0,0.1,0h0l0,0c0,0,0,0,0,0c0,0,0,0,0,0v0c0,0,0,0,0,0C55.3,25.3,55.3,25.6,55.4,25.7
	C55.5,25.7,55.5,25.7,55.4,25.7z M53.7,24.5c0.1,0,0.1,0.1,0.2,0.2c0,0,0,0,0,0c0,0.1,0,0.1,0,0.2c-0.1,0-0.1-0.1-0.1-0.2
	c0,0,0,0,0,0C53.7,24.6,53.7,24.5,53.7,24.5C53.7,24.5,53.7,24.5,53.7,24.5C53.7,24.5,53.7,24.5,53.7,24.5
	C53.7,24.5,53.7,24.5,53.7,24.5z M53.8,24.9C53.8,24.9,53.8,24.9,53.8,24.9L53.8,24.9C53.8,24.9,53.8,24.9,53.8,24.9L53.8,24.9
	C53.8,24.9,53.8,24.9,53.8,24.9L53.8,24.9c-0.2,0-0.3-0.2-0.2-0.3C53.6,24.7,53.7,24.8,53.8,24.9L53.8,24.9L53.8,24.9L53.8,24.9
	C53.8,24.9,53.8,24.9,53.8,24.9z M54.4,26.8C54.4,26.8,54.4,26.8,54.4,26.8C54.4,26.9,54.4,26.9,54.4,26.8c-0.1,0.1-0.1,0.2-0.1,0.2
	c0-0.2,0.1-0.4,0.1-0.7c0-0.2-0.2-0.4-0.2-0.6c0,0,0,0,0,0c0-0.1,0-0.1,0-0.2c0,0,0,0,0,0c0,0,0-0.1,0.1-0.1c0,0,0,0,0,0
	c0,0,0,0,0,0c0,0.2,0.2,0.3,0.3,0.4l0,0c0,0,0,0,0,0c0,0,0,0,0,0c0,0.1,0.1,0.1,0.1,0.2c0,0,0,0,0,0c0,0,0,0,0,0c0,0,0,0,0,0
	c0.1,0.1,0,0.3-0.1,0.4c0,0,0,0,0,0c0,0,0,0,0,0c0,0,0,0,0,0C54.6,26.6,54.5,26.7,54.4,26.8z M54.2,25.9L54.2,25.9z M53.5,25.8
	C53.5,25.8,53.5,25.8,53.5,25.8c0-0.1,0-0.2,0-0.3c0,0,0,0,0,0c0,0,0,0,0,0c0.1,0,0.2,0,0.2,0.1c0,0,0,0,0,0c0,0,0,0,0,0
	c0,0,0,0,0,0c0.5,0.3,0.5,0.8,0.4,1.3c-0.1-0.1-0.2-0.1-0.3-0.2c0,0,0,0,0,0c0,0,0,0-0.1,0c0,0,0,0,0,0c-0.2-0.1-0.3-0.3-0.3-0.5
	c0,0,0,0,0,0c0,0,0,0,0,0c0,0,0,0,0,0C53.5,26.1,53.5,26,53.5,25.8z M54.1,27.1c-0.1,0-0.2,0-0.3,0.1c0,0,0,0,0,0
	c-0.5,0.2-0.8-0.2-1.1-0.5c0,0,0.1,0,0.1,0c0,0,0,0,0,0C53.5,26.3,53.6,26.9,54.1,27.1C54.2,27,54.2,27.1,54.1,27.1
	C54.2,27.1,54.1,27.1,54.1,27.1z M54.6,27.6C54.6,27.6,54.7,27.6,54.6,27.6c-0.1-0.2-0.4-0.5-0.1-0.7c0,0,0,0,0,0
	c0-0.1,0.1-0.1,0.1-0.2c0.2,0.5,0.3,1,0.4,1.5c0,0,0,0,0,0c0,0.1,0,0.2,0,0.3c0,0,0,0,0,0c0,0,0,0.1,0,0.1
	C54.9,28.2,54.8,27.9,54.6,27.6z M53.9,28.6C53.9,28.5,53.9,28.5,53.9,28.6C53.9,28.5,53.9,28.5,53.9,28.6z M53.9,28.6L53.9,28.6
	C53.9,28.6,53.9,28.6,53.9,28.6C53.9,28.6,53.9,28.6,53.9,28.6z M53.6,28.1c0.1,0.1,0.2,0.2,0.3,0.3c0,0,0,0,0,0c0,0,0,0,0,0
	c0,0,0,0,0,0c0,0,0,0,0,0c0,0,0,0,0,0c0,0,0,0.1,0,0.1c0,0,0,0,0,0c0,0,0,0,0,0c0,0,0,0,0,0c0,0,0,0,0,0c-0.1,0-0.2-0.1-0.2-0.2
	c0,0,0,0,0,0c0,0,0,0,0,0c0,0,0,0,0,0C53.6,28.3,53.6,28.2,53.6,28.1C53.6,28.1,53.6,28.1,53.6,28.1z M53.5,28.2
	C53.5,28.2,53.5,28.2,53.5,28.2C53.5,28.2,53.5,28.2,53.5,28.2C53.5,28.2,53.5,28.2,53.5,28.2z M53.4,28.2
	C53.4,28.2,53.4,28.2,53.4,28.2C53.4,28.2,53.4,28.2,53.4,28.2z M53.7,28.6C53.6,28.6,53.6,28.6,53.7,28.6L53.7,28.6
	C53.6,28.6,53.6,28.6,53.7,28.6C53.6,28.6,53.6,28.6,53.7,28.6c-0.2-0.1-0.3-0.2-0.3-0.4c0,0,0,0,0,0c0,0,0,0,0,0c0,0,0,0,0,0
	c0,0,0,0,0,0c0,0,0,0,0.1,0c0,0,0,0,0,0c0,0,0,0,0,0c0,0,0,0,0,0c0,0,0,0,0,0l0,0h0C53.5,28.4,53.6,28.5,53.7,28.6
	C53.7,28.6,53.7,28.6,53.7,28.6z M55.1,32L55.1,32L55.1,32L55.1,32z M54.4,31.5L54.4,31.5z M54.9,32.1L54.9,32.1L54.9,32.1z
	 M54.6,31.5c0.2,0.1,0.5,0.4,0.3,0.6C54.6,32,54.6,31.7,54.6,31.5C54.6,31.5,54.6,31.5,54.6,31.5z M54.5,31.5
	C54.5,31.5,54.5,31.5,54.5,31.5C54.5,31.5,54.5,31.5,54.5,31.5z M54.7,32.2c-0.2-0.1-0.3-0.4-0.4-0.6c0,0,0,0,0,0c0,0,0-0.1,0-0.1
	c0,0,0.1,0,0.1,0c0,0,0,0,0,0c0,0,0,0,0,0C54.4,31.8,54.6,32,54.7,32.2C54.8,32.2,54.8,32.2,54.7,32.2z M55,33.2L55,33.2z
	 M54.6,32.9L54.6,32.9C54.6,32.9,54.6,32.9,54.6,32.9C54.6,32.9,54.6,32.9,54.6,32.9z M54.9,33.2c-0.1-0.1-0.2-0.2-0.3-0.3
	c0,0,0.1,0,0.1,0c0,0,0,0,0,0C54.8,32.9,54.9,33.1,54.9,33.2C54.9,33.2,54.9,33.2,54.9,33.2z M56,40.3L56,40.3L56,40.3z M56.1,40.2
	L56.1,40.2C56.1,40.2,56.1,40.2,56.1,40.2L56.1,40.2L56.1,40.2z M56.1,40.2L56.1,40.2L56.1,40.2L56.1,40.2z M56.2,39.9
	C56.2,39.9,56.2,39.9,56.2,39.9c0,0.1,0,0.1-0.1,0.2c0,0,0,0,0,0c0,0-0.1,0.1-0.1,0.1C56,40,56.1,39.9,56.2,39.9
	C56.2,39.9,56.2,39.9,56.2,39.9z M56,40C56,40,56,40,56,40C56,40,56,40,56,40C55.9,40.1,55.9,40.1,56,40z M56,40.1L56,40.1L56,40.1
	L56,40.1z M53.4,40.8C53.4,40.8,53.4,40.8,53.4,40.8C53.4,40.8,53.4,40.8,53.4,40.8C53.4,40.8,53.4,40.8,53.4,40.8z M53.5,40.8
	L53.5,40.8z M53.3,40.2c0.1,0.1,0.1,0.1,0.1,0.2v0c0.1,0.1,0,0.3,0,0.4c0,0-0.1-0.1-0.1-0.1c0,0,0,0,0,0
	C53.2,40.5,53.3,40.4,53.3,40.2C53.3,40.2,53.3,40.2,53.3,40.2C53.3,40.2,53.3,40.2,53.3,40.2C53.3,40.2,53.3,40.2,53.3,40.2z
	 M53.3,40.8C53.3,40.8,53.2,40.8,53.3,40.8C53.2,40.7,53.2,40.7,53.3,40.8C53.2,40.7,53.2,40.7,53.3,40.8L53.3,40.8
	c-0.2-0.1-0.3-0.3-0.2-0.4c0,0.1,0,0.1,0,0.2v0C53.2,40.6,53.2,40.7,53.3,40.8C53.3,40.8,53.3,40.8,53.3,40.8z M54.7,42.6
	C54.7,42.6,54.7,42.6,54.7,42.6C54.7,42.6,54.7,42.6,54.7,42.6z M55.7,36.9L55.7,36.9z M55.6,36.9C55.6,36.9,55.6,36.9,55.6,36.9
	S55.6,36.9,55.6,36.9C55.6,36.9,55.6,36.9,55.6,36.9z M55.6,36.9C55.6,36.9,55.6,36.9,55.6,36.9C55.6,36.9,55.6,36.9,55.6,36.9z
	 M55.6,37.4c0-0.1-0.1-0.2,0-0.3v0c0,0,0,0,0-0.1l0,0c0,0,0-0.1,0.1-0.1c0,0,0,0,0,0c0,0,0,0,0,0c0,0,0,0,0,0c0,0,0,0,0,0
	c0,0,0.1,0.1,0.1,0.1c0,0,0,0,0,0C55.8,37.2,55.8,37.4,55.6,37.4C55.6,37.5,55.6,37.5,55.6,37.4C55.6,37.5,55.6,37.5,55.6,37.4
	C55.6,37.5,55.6,37.5,55.6,37.4L55.6,37.4C55.6,37.5,55.6,37.5,55.6,37.4z M55.4,39.2c0.2-0.3,0-0.7,0.5-0.9c0,0.1,0,0.2,0,0.3v0
	c0,0,0,0,0,0c0,0,0,0,0,0c0,0.1,0,0.1,0,0.2c0,0,0,0,0,0c0,0,0,0,0,0c0,0,0,0,0,0s0,0,0,0l0,0c0,0,0,0,0,0c0,0,0,0,0,0
	c0.1,0.4-0.2,0.7-0.6,0.8l0,0c-0.1,0-0.3,0.1-0.4,0.1c0,0,0,0,0,0c0,0-0.1,0-0.1,0c0,0,0,0,0.1-0.1c0,0,0,0,0,0c0,0,0,0,0,0
	c0,0,0,0,0,0c0,0,0,0,0-0.1v0C55.1,39.5,55.2,39.4,55.4,39.2C55.3,39.3,55.3,39.3,55.4,39.2C55.3,39.3,55.3,39.3,55.4,39.2
	C55.3,39.3,55.3,39.3,55.4,39.2C55.3,39.3,55.3,39.3,55.4,39.2C55.3,39.3,55.3,39.3,55.4,39.2C55.4,39.3,55.4,39.2,55.4,39.2z
	 M54.7,38.6c0.1-0.2,0.2-0.3,0.3-0.4c0,0,0,0,0,0c0,0,0,0,0,0c0,0,0,0,0,0c0,0,0,0,0,0c0.1,0.1,0.2,0.2,0.2,0.3v0c0,0,0,0,0,0
	c0,0,0,0,0,0c0,0,0,0,0,0c0,0,0,0,0,0c0,0,0,0,0,0l0,0l0,0c0,0,0,0,0,0c0,0,0,0,0,0c0.1,0.2,0.2,0.5-0.1,0.7c0,0,0,0,0,0
	c-0.1,0.1-0.1,0.2-0.2,0.2c0,0,0,0,0,0c-0.1,0.1-0.2,0.2-0.2,0.2c0,0,0,0,0,0c0,0-0.1,0.1-0.1,0.1c0,0,0,0,0,0c0,0,0-0.1,0-0.1
	c0,0,0,0,0,0c0,0,0,0,0,0c0,0,0,0,0,0c0-0.1-0.1-0.3-0.1-0.4c0,0,0,0,0,0c0-0.1,0-0.2,0-0.3c0,0,0,0,0,0c0,0,0,0,0,0c0,0,0,0,0,0
	C54.6,38.8,54.7,38.7,54.7,38.6z M54.1,38L54.1,38z M54.1,38L54.1,38C54.1,38,54.1,38,54.1,38C54.1,38,54.1,38,54.1,38z M54.1,38
	C54.1,38,54.1,38,54.1,38L54.1,38z M54.1,38C54.1,38,54.1,38,54.1,38C54.1,38,54.1,38,54.1,38 M54.1,38L54.1,38L54.1,38z M54.1,38
	C54.1,38,54.1,38,54.1,38C54.1,38,54.1,38,54.1,38z M53.9,38.3c0-0.1,0.1-0.3,0.2-0.3c0.1,0.2,0.4,0.3,0.5,0.6c0,0,0,0,0,0
	c0,0,0,0,0,0c-0.2,0.4-0.2,0.8,0,1.2c-0.2-0.2-0.4-0.4-0.6-0.6c0,0,0,0,0,0c0,0,0,0,0,0c0,0,0,0,0,0C53.9,38.9,53.8,38.6,53.9,38.3z
	 M54.5,39.8c-0.8-0.1-1.3-0.3-1.3-1.2c0,0,0.1,0,0.1,0h0c0.2,0,0.3,0.1,0.4,0.2c0,0,0,0,0,0c0,0,0,0,0,0c0,0,0,0,0,0
	c0.1,0.1,0.1,0.3,0.2,0.5c0,0,0,0,0,0c0.1,0.1,0.1,0.2,0.2,0.3c0,0,0,0,0,0C54.2,39.6,54.3,39.6,54.5,39.8
	C54.4,39.7,54.4,39.7,54.5,39.8C54.4,39.7,54.4,39.7,54.5,39.8C54.4,39.7,54.4,39.7,54.5,39.8C54.5,39.7,54.5,39.8,54.5,39.8
	C54.5,39.8,54.5,39.8,54.5,39.8z M54.8,40.5c0-0.2,0-0.4,0-0.5c0.1,0,0.3,0,0.4-0.1c-0.2,0.8-0.3,1.5-0.5,2.3c0-0.4,0-0.7,0-1.1
	c0,0,0,0,0,0c0,0,0,0,0,0c0,0,0,0,0,0C54.8,40.8,54.8,40.7,54.8,40.5z M52.9,43.5C52.9,43.5,52.9,43.5,52.9,43.5
	C52.9,43.5,52.9,43.5,52.9,43.5c0-0.1,0-0.2,0-0.2c0.2,0.2,0.3,0.6,0.2,0.8c-0.1-0.1-0.1-0.2-0.2-0.3c0,0,0,0,0,0c0,0,0,0,0,0l0,0
	c0,0,0-0.1,0-0.1l0,0C52.9,43.7,52.9,43.6,52.9,43.5C52.9,43.5,52.9,43.5,52.9,43.5C52.9,43.5,52.9,43.5,52.9,43.5
	C52.9,43.5,52.9,43.5,52.9,43.5z M52.9,43.3L52.9,43.3z M52.6,43.3L52.6,43.3C52.6,43.3,52.6,43.3,52.6,43.3
	C52.6,43.3,52.6,43.3,52.6,43.3z M52.6,43.3L52.6,43.3z M53,44.2c-0.4-0.1-0.5-0.4-0.4-0.7c0,0,0,0,0,0c0,0,0,0,0,0c0,0,0,0,0,0
	c0,0,0-0.1,0-0.1c0.1,0,0.1,0,0.2,0.1l0,0c0,0,0,0,0,0C52.8,43.7,52.8,43.9,53,44.2C53,44.1,53,44.1,53,44.2
	C53,44.1,53,44.1,53,44.2C53,44.1,53,44.1,53,44.2c0,0,0.1,0,0.1,0C53,44.2,53,44.2,53,44.2z M53.1,44.2L53.1,44.2L53.1,44.2
	L53.1,44.2z M55.9,42.3C55.9,42.3,55.9,42.3,55.9,42.3C55.9,42.3,55.9,42.3,55.9,42.3z M56,41.7C56.1,41.7,56.1,41.7,56,41.7
	C56.1,41.8,56.1,41.8,56,41.7C56.1,41.8,56.1,41.8,56,41.7C56.1,41.8,56.1,41.8,56,41.7c0.1,0.1,0.1,0.2,0,0.3c0,0,0,0,0,0
	c0,0.1-0.1,0.2-0.2,0.2l0,0c0,0,0,0,0,0l0,0c0,0,0,0,0,0c0,0,0,0,0,0c0,0,0,0,0,0c0,0,0-0.1,0-0.1c0,0,0-0.1,0-0.1c0,0,0,0,0,0
	C55.9,41.9,55.9,41.8,56,41.7z M55.9,41.7L55.9,41.7L55.9,41.7z M55.9,41.7L55.9,41.7L55.9,41.7z M55.8,42.3
	c-0.1-0.1-0.2-0.3-0.1-0.4l0,0c0,0,0,0,0,0c0,0,0,0,0,0c0,0,0-0.1,0.1-0.1l0,0c0,0,0,0,0,0c0,0,0,0,0,0c0,0,0,0,0,0c0,0,0,0,0,0
	C55.7,41.9,55.8,42.1,55.8,42.3C55.8,42.3,55.8,42.3,55.8,42.3z M58.9,46.8c0.1-0.2,0.3-0.3,0.4-0.3c0,0.3-0.2,0.5-0.5,0.6
	c0,0,0-0.1,0-0.1c0,0,0,0,0,0c0,0,0,0,0,0c0,0,0,0,0,0c0,0,0,0,0,0c0,0,0,0,0,0C58.9,46.9,58.9,46.8,58.9,46.8z M57,48.2
	C57,48.2,57,48.2,57,48.2C57,48.2,57,48.2,57,48.2z M63.5,38.2C63.5,38.2,63.5,38.2,63.5,38.2c0,0.1,0,0.2,0,0.3c0,0,0,0,0,0
	c0,0,0,0,0,0c0,0,0,0,0,0c0,0.1-0.1,0.2-0.3,0.2c0.1-0.1,0.2-0.2,0.2-0.3c0,0,0,0,0,0C63.5,38.3,63.5,38.2,63.5,38.2
	C63.5,38.2,63.5,38.2,63.5,38.2z M63.1,38.5c0-0.1,0-0.1,0-0.2c0,0,0,0,0,0c0-0.2,0.1-0.3,0.3-0.4c0,0.1,0,0.2,0,0.2c0,0,0,0,0,0
	c0,0,0,0,0,0c0,0,0,0,0,0C63.4,38.4,63.3,38.5,63.1,38.5C63.2,38.6,63.2,38.6,63.1,38.5C63.2,38.6,63.2,38.6,63.1,38.5
	C63.2,38.6,63.2,38.6,63.1,38.5c0.1,0.1,0,0.1,0,0.1C63.2,38.6,63.1,38.6,63.1,38.5C63.1,38.5,63.1,38.5,63.1,38.5
	C63.1,38.5,63.1,38.5,63.1,38.5C63.1,38.5,63.1,38.5,63.1,38.5z M64.1,32.9C64.1,32.9,64.1,32.9,64.1,32.9
	C64.1,32.9,64.1,32.9,64.1,32.9z M64.6,32.6c-0.1,0.2-0.2,0.4-0.4,0.3c0,0,0,0,0,0c0,0,0,0,0,0c0,0,0,0,0-0.1c0,0,0,0,0,0
	C64.3,32.7,64.4,32.6,64.6,32.6L64.6,32.6z M64.1,32.8C64.1,32.8,64.1,32.8,64.1,32.8C64.1,32.8,64.1,32.8,64.1,32.8
	c0-0.1,0.1-0.2,0.2-0.3c0,0,0,0,0,0c0,0,0,0,0,0c0,0,0,0,0,0c0,0,0,0,0,0c0,0,0,0,0,0c0,0,0.1,0,0.1,0
	C64.3,32.6,64.2,32.7,64.1,32.8L64.1,32.8C64.1,32.9,64.1,32.9,64.1,32.8L64.1,32.8c0,0.1,0,0.1,0,0.1
	C64.1,32.9,64.1,32.8,64.1,32.8C64.1,32.8,64.1,32.8,64.1,32.8C64.1,32.8,64.1,32.8,64.1,32.8z M64.5,30.2L64.5,30.2L64.5,30.2
	L64.5,30.2z M64.5,30.2L64.5,30.2C64.5,30.2,64.5,30.2,64.5,30.2S64.5,30.2,64.5,30.2z M63.9,30.4c0.1-0.1,0.1-0.1,0.2-0.2l0,0
	c0,0,0,0,0,0c0,0,0,0,0,0c0.1,0,0.2,0,0.4,0c-0.1,0.3-0.2,0.6-0.4,0.8c0,0,0,0,0,0c0,0,0,0,0,0c0,0,0,0,0,0
	c-0.1,0.1-0.2,0.1-0.4,0.1c0,0,0,0,0,0c0,0,0,0,0,0c0,0,0,0,0,0c0,0-0.1,0-0.2,0c0,0,0,0,0,0c0,0-0.1,0-0.1,0c0,0,0,0,0,0
	c0,0,0,0,0,0C63.7,30.9,63.8,30.6,63.9,30.4z M63.1,30.1c0.1-0.3,0.6-0.8,0.7-0.2c0,0,0,0,0,0c0,0,0,0,0,0l0,0c0.1,0.2,0,0.3,0,0.5
	c0,0,0,0,0,0c0,0,0,0,0,0c0,0,0,0,0,0c-0.1,0.3-0.2,0.5-0.4,0.7c0,0,0,0,0,0c0,0,0,0,0,0c0,0,0,0,0,0l0,0c0,0,0,0,0,0c0,0,0,0,0,0
	C63.3,30.7,63,30.4,63.1,30.1z M62.9,30.1C62.9,30.1,62.9,30.1,62.9,30.1S62.9,30.1,62.9,30.1L62.9,30.1L62.9,30.1z M63.1,31
	c-0.4-0.1-0.8-0.3-0.7-0.8c-0.1-0.8,0.3-0.3,0.5,0c0,0.1,0,0.2,0.1,0.4v0C63.1,30.7,63.2,30.9,63.1,31C63.2,31,63.2,31,63.1,31z
	 M63.2,31.2C63.2,31.2,63.2,31.2,63.2,31.2C63.2,31.2,63.2,31.2,63.2,31.2C63.2,31.2,63.2,31.2,63.2,31.2z M64.9,30.9
	c-0.1,0.1-0.2,0.2-0.3,0.3c0,0,0,0,0,0c-0.2,0.3-0.4,0.2-0.7,0.1c0,0,0,0,0,0c0,0,0,0,0,0c0,0,0,0,0,0c-0.1,0-0.2,0-0.3-0.1
	c0,0,0,0,0,0c0,0,0,0,0,0c0,0,0,0,0,0c0,0-0.1-0.1-0.1-0.1c0.3,0,0.6-0.1,0.8-0.3C64.5,30.8,64.8,30.8,64.9,30.9
	C64.9,30.9,64.9,30.9,64.9,30.9z"/>
<polyline class="st0" points="64.6,31.2 64.6,31.2 64.6,31.2 64.6,31.2 "/>
<polyline class="st0" points="63.8,31.4 63.8,31.4 63.8,31.4 "/>
<polyline class="st0" points="64.7,31.2 64.8,31.2 64.7,31.2 "/>
<polyline class="st0" points="64.7,31.3 64.7,31.3 64.7,31.3 "/>
<polyline class="st0" points="54.5,10.3 54.5,10.3 54.5,10.3 "/>
<polyline class="st0" points="54.7,10.2 54.7,10.2 54.7,10.2 54.7,10.2 "/>
<polyline class="st0" points="55.6,10.2 55.6,10.2 55.6,10.2 55.6,10.2 "/>
<polyline class="st0" points="54.1,11.2 54.1,11.2 54.2,11.2 54.1,11.2 "/>
<polyline class="st0" points="54.2,11.2 54.2,11.2 54.2,11.2 "/>
<polyline class="st0" points="54.2,11.1 54.2,11.1 54.2,11.1 54.2,11.1 "/>
<polyline class="st0" points="56.3,9.8 56.3,9.8 56.3,9.8 56.3,9.8 "/>
<polyline class="st0" points="55.8,11.5 55.8,11.5 55.8,11.5 55.8,11.5 "/>
<polyline class="st0" points="54,9.8 54,9.8 54,9.8 "/>
<polyline class="st0" points="55.5,9.8 55.5,9.8 55.5,9.8 "/>
<polyline class="st0" points="55.5,9.8 55.5,9.8 55.5,9.8 55.5,9.8 "/>
<polyline class="st0" points="54.9,6.5 54.9,6.5 54.9,6.5 "/>
<polyline class="st0" points="55.1,7 55.1,7 55.1,7 55.1,7 "/>
<polyline class="st0" points="53.8,8.5 53.8,8.5 53.8,8.5 "/>
<polyline class="st0" points="54,8.8 54,8.8 54,8.8 54,8.8 "/>
<polyline class="st0" points="53.9,8.7 53.9,8.7 53.9,8.7 53.9,8.7 "/>
<line class="st0" x1="60.4" y1="14.9" x2="60.4" y2="14.9"/>
<path class="st0" d="M60,14C60,14,60,14,60,14C60,14,60,14,60,14"/>
<polyline class="st0" points="60.3,15.3 60.3,15.3 60.3,15.3 "/>
<line class="st0" x1="60.9" y1="14.8" x2="60.9" y2="14.8"/>
<path class="st0" d="M60.5,14.7C60.5,14.7,60.5,14.7,60.5,14.7C60.5,14.7,60.5,14.7,60.5,14.7"/>
<path class="st0" d="M61,14.7C61,14.7,61,14.7,61,14.7C61,14.7,61,14.7,61,14.7"/>
<polyline class="st0" points="60.3,15.3 60.4,15.3 60.3,15.3 "/>
<polyline class="st0" points="59.3,14.6 59.3,14.6 59.3,14.6 "/>
<line class="st0" x1="59.7" y1="14.6" x2="59.7" y2="14.6"/>
<path class="st0" d="M59.3,14.7L59.3,14.7z"/>
<polyline class="st0" points="61.3,15.1 61.3,15.1 61.3,15.1 "/>
<path class="st0" d="M60.9,15.4L60.9,15.4L60.9,15.4z"/>
<polyline class="st0" points="55.6,16 55.6,16 55.6,16 55.6,16 "/>
<polyline class="st0" points="55.6,16 55.6,16 55.6,16 55.6,16 "/>
<polyline class="st0" points="55.6,16.1 55.6,16.1 55.6,16.1 55.6,16.1 "/>
<polyline class="st0" points="55.5,16.2 55.5,16.2 55.5,16.2 55.5,16.2 "/>
<polyline class="st0" points="55.6,15.8 55.6,15.8 55.6,15.8 "/>
<polyline class="st0" points="55.7,16.6 55.7,16.6 55.7,16.6 "/>
<polyline class="st0" points="55.5,16.1 55.5,16.1 55.5,16.1 55.5,16.1 "/>
<polyline class="st0" points="54.1,17 54.1,17 54.1,17 "/>
<polyline class="st0" points="54.9,18.4 54.9,18.4 54.9,18.4 "/>
<polyline class="st0" points="54.9,18.1 54.9,18.1 54.9,18.1 "/>
<polyline class="st0" points="59.5,17 59.5,17 59.5,17 "/>
<polyline class="st0" points="59.7,17.5 59.7,17.5 59.7,17.5 "/>
<polyline class="st0" points="59.3,15.8 59.3,15.8 59.3,15.8 "/>
<polyline class="st0" points="59.4,16.2 59.4,16.2 59.4,16.2 "/>
<polyline class="st0" points="59.3,15.8 59.3,15.8 59.3,15.8 "/>
<polyline class="st0" points="59.2,16.1 59.2,16.1 59.2,16.1 "/>
<polyline class="st0" points="59.2,15.8 59.2,15.8 59.2,15.8 59.2,15.8 "/>
<polyline class="st0" points="59.2,15.9 59.2,15.9 59.2,15.9 59.2,15.9 "/>
<polyline class="st0" points="59.4,16.1 59.4,16.1 59.4,16.1 59.4,16.1 "/>
<polyline class="st0" points="58.7,18.4 58.7,18.4 58.7,18.4 "/>
<polyline class="st0" points="58.7,17.9 58.7,17.9 58.7,17.9 "/>
<path class="st0" d="M58.8,18L58.8,18z"/>
<polyline class="st0" points="58.8,17.9 58.8,17.9 58.8,17.9 58.8,17.9 "/>
<polyline class="st0" points="61.2,16.9 61.2,16.9 61.2,16.9 "/>
<path class="st0" d="M61.1,16.9C61.1,16.9,61.1,16.9,61.1,16.9L61.1,16.9z"/>
<polyline class="st0" points="61,16.8 61,16.8 61,16.8 61,16.8 "/>
<polyline class="st0" points="61.1,16.8 61.1,16.8 61.1,16.8 61.1,16.8 "/>
<polyline class="st0" points="61.2,16.3 61.2,16.3 61.2,16.3 "/>
<line class="st0" x1="61" y1="16.6" x2="61" y2="16.6"/>
<polyline class="st0" points="61.2,16.3 61.2,16.3 61.2,16.3 61.2,16.3 "/>
<polyline class="st0" points="61.1,16.4 61.1,16.4 61.1,16.4 61.1,16.4 "/>
<polyline class="st0" points="62.2,28.1 62.2,28.1 62.2,28.1 "/>
<polyline class="st0" points="62.6,25.2 62.6,25.2 62.6,25.2 "/>
<polyline class="st0" points="62.6,25.7 62.6,25.7 62.6,25.7 62.6,25.7 "/>
<polyline class="st0" points="62.9,25.2 62.9,25.2 62.9,25.2 "/>
<polyline class="st0" points="62.6,25.2 62.6,25.2 62.6,25.2 "/>
<polyline class="st0" points="62.5,25.4 62.5,25.4 62.5,25.4 "/>
<polyline class="st0" points="60.7,28.2 60.7,28.2 60.7,28.2 60.7,28.2 "/>
<polyline class="st0" points="60.6,28.4 60.6,28.4 60.6,28.4 "/>
<polyline class="st0" points="60.7,28.3 60.7,28.3 60.7,28.3 60.7,28.3 "/>
<polyline class="st0" points="60.5,28.2 60.5,28.2 60.5,28.2 "/>
<polyline class="st0" points="64.1,32.9 64.1,32.9 64.1,32.9 64.1,32.9 "/>
<polyline class="st0" points="64,33 64,32.9 64,33 "/>
<polyline class="st0" points="64.4,32.6 64.4,32.6 64.4,32.5 64.4,32.6 "/>
<polyline class="st0" points="64.1,32.8 64.1,32.8 64.1,32.8 "/>
<polyline class="st0" points="64,33 64,33 64,33 "/>
<polyline class="st0" points="62.4,31.8 62.4,31.8 62.4,31.8 62.4,31.8 "/>
<polyline class="st0" points="62.5,32 62.5,32 62.5,32 "/>
<polyline class="st0" points="62.5,32 62.5,32 62.5,32 "/>
<path class="st0" d="M61,32.8C61,32.8,61,32.8,61,32.8C61,32.8,61,32.8,61,32.8"/>
<polyline class="st0" points="60.8,31.9 60.8,31.9 60.8,31.9 "/>
<polyline class="st0" points="61.3,33.2 61.3,33.2 61.3,33.2 "/>
<polyline class="st0" points="60.8,31.9 60.8,31.9 60.8,31.9 "/>
<polyline class="st0" points="60.1,30.7 60.1,30.7 60.1,30.7 "/>
<polyline class="st0" points="60.3,30.9 60.3,30.9 60.3,30.9 60.3,30.9 "/>
<polyline class="st0" points="62.2,27.7 62.2,27.7 62.2,27.7 "/>
<polyline class="st0" points="56.6,31.7 56.6,31.7 56.6,31.7 "/>
<polyline class="st0" points="56.2,23.9 56.2,23.9 56.2,23.9 "/>
<polyline class="st0" points="56.2,23.9 56.2,23.9 56.2,23.9 "/>
<polyline class="st0" points="56.1,24 56.1,24 56.1,24 56.1,24 "/>
<polyline class="st0" points="55.9,23.8 55.9,23.8 55.9,23.8 55.9,23.8 "/>
<polyline class="st0" points="55.9,23.8 55.9,23.8 55.9,23.8 "/>
<polyline class="st0" points="55.8,23.9 55.8,23.9 55.8,23.9 "/>
<polyline class="st0" points="53.6,26.3 53.6,26.3 53.6,26.3 53.6,26.3 "/>
<polyline class="st0" points="53.6,25.6 53.6,25.6 53.6,25.6 "/>
<polyline class="st0" points="54.4,26.3 54.4,26.3 54.4,26.3 "/>
<polyline class="st0" points="53.8,25.6 53.8,25.6 53.8,25.6 53.8,25.6 "/>
<polyline class="st0" points="52.8,26.6 52.8,26.6 52.8,26.6 "/>
<polyline class="st0" points="54.7,26.5 54.8,26.5 54.7,26.5 "/>
<polyline class="st0" points="54.6,26.5 54.6,26.5 54.6,26.5 54.6,26.5 "/>
<polyline class="st0" points="54.7,26 54.7,26 54.7,26.1 54.7,26 "/>
<polyline class="st0" points="54.8,26.5 54.8,26.5 54.8,26.5 "/>
<polyline class="st0" points="54.6,25.7 54.6,25.7 54.6,25.7 "/>
<path class="st0" d="M56,26.9L56,26.9z"/>
<polyline class="st0" points="56,26.9 56,26.9 56,26.9 "/>
<polyline class="st0" points="55.4,25.4 55.4,25.5 55.4,25.4 55.4,25.4 "/>
<polyline class="st0" points="55.6,25.7 55.6,25.7 55.6,25.7 "/>
<polyline class="st0" points="55.6,25.7 55.6,25.7 55.6,25.7 "/>
<polyline class="st0" points="55.6,25.7 55.6,25.7 55.6,25.7 "/>
<polyline class="st0" points="55.6,25.7 55.6,25.7 55.6,25.7 "/>
<path class="st0" d="M55.6,25.7C55.6,25.7,55.6,25.7,55.6,25.7C55.6,25.7,55.6,25.7,55.6,25.7z"/>
<polyline class="st0" points="55.3,25.1 55.3,25.1 55.3,25.1 55.3,25.1 "/>
<polyline class="st0" points="55.2,25.4 55.2,25.4 55.2,25.4 55.2,25.4 "/>
<polyline class="st0" points="56.7,29.7 56.7,29.7 56.7,29.7 "/>
<polyline class="st0" points="57.3,27.6 57.3,27.6 57.3,27.6 57.3,27.6 "/>
<polyline class="st0" points="57.3,27.6 57.3,27.6 57.3,27.6 "/>
<polyline class="st0" points="53.9,28.5 53.9,28.5 53.9,28.5 "/>
<polyline class="st0" points="53.9,28.6 53.9,28.6 53.9,28.6 53.9,28.6 53.9,28.6 53.9,28.6 53.9,28.6 53.9,28.6 53.9,28.6 "/>
<polyline class="st0" points="53.6,28.4 53.6,28.4 53.6,28.4 53.6,28.4 "/>
<polyline class="st0" points="53.9,28.5 53.9,28.5 53.9,28.5 53.9,28.5 "/>
<polyline class="st0" points="53.4,28.2 53.4,28.2 53.4,28.2 53.4,28.2 "/>
<polyline class="st0" points="53.6,28.6 53.6,28.6 53.6,28.6 53.6,28.6 "/>
<polyline class="st0" points="53.4,28.2 53.4,28.2 53.4,28.2 53.4,28.2 "/>
<polyline class="st0" points="57.2,35.3 57.2,35.3 57.2,35.3 "/>
<polyline class="st0" points="54.5,31.5 54.5,31.5 54.5,31.5 "/>
<polyline class="st0" points="54.3,31.4 54.3,31.4 54.3,31.4 "/>
<polyline class="st0" points="54.3,31.9 54.3,31.9 54.3,31.9 "/>
<polyline class="st0" points="54.4,31.4 54.4,31.4 54.4,31.4 "/>
<polyline class="st0" points="56.5,34.5 56.5,34.5 56.5,34.5 "/>
<polyline class="st0" points="56.2,34.1 56.2,34.1 56.2,34.1 "/>
<polyline class="st0" points="55.8,33.8 55.8,33.8 55.8,33.8 "/>
<polyline class="st0" points="62.2,29 62.2,29 62.2,29 "/>
<polyline class="st0" points="63.1,27.5 63.1,27.5 63.1,27.5 63.1,27.5 "/>
<path class="st0" d="M63,27.6L63,27.6z"/>
<polyline class="st0" points="63,27.6 63,27.6 63,27.6 "/>
<polyline class="st0" points="63,27.4 63,27.4 63,27.4 63,27.4 "/>
<polyline class="st0" points="62.9,27.5 62.9,27.5 62.9,27.5 "/>
<polyline class="st0" points="62.9,27.6 62.9,27.6 62.9,27.6 62.9,27.6 "/>
<polyline class="st0" points="56.6,21.9 56.6,21.9 56.6,21.9 56.6,21.9 "/>
<polyline class="st0" points="59.9,36.3 59.9,36.3 59.9,36.3 59.9,36.3 "/>
<polyline class="st0" points="60,36.7 60,36.7 60,36.7 "/>
<path class="st0" d="M60,36.7L60,36.7z"/>
<polyline class="st0" points="60,36.7 60,36.7 60,36.7 "/>
<polyline class="st0" points="59.8,36.6 59.8,36.6 59.8,36.6 "/>
<polyline class="st0" points="55.3,39.3 55.3,39.3 55.3,39.3 55.3,39.3 55.3,39.3 55.3,39.3 55.3,39.3 "/>
<polyline class="st0" points="55.3,39.3 55.3,39.3 55.3,39.3 "/>
<path class="st0" d="M55.1,38.1L55.1,38.1z"/>
<polyline class="st0" points="55.3,38.4 55.3,38.4 55.3,38.4 55.3,38.4 "/>
<polyline class="st0" points="54.6,38.4 54.6,38.4 54.6,38.4 "/>
<polyline class="st0" points="54.4,39.7 54.4,39.7 54.4,39.7 54.4,39.7 "/>
<polyline class="st0" points="54,39.1 54,39.1 54,39.1 54,39.1 "/>
<polyline class="st0" points="56,38.9 56,38.9 56,38.9 "/>
<polyline class="st0" points="55.9,38.3 55.9,38.3 55.9,38.3 "/>
<polyline class="st0" points="55.9,38.3 55.9,38.3 55.9,38.3 "/>
<path class="st0" d="M56,38.6C56,38.6,56,38.6,56,38.6L56,38.6z"/>
<polyline class="st0" points="56,38.9 56,38.9 56,38.9 "/>
<polyline class="st0" points="56,38.9 56,38.9 56,38.9 "/>
<polyline class="st0" points="56,38.6 56,38.6 56,38.6 "/>
<polygon class="st0" points="56,38.9 56,38.9 56,38.9 "/>
<polyline class="st0" points="55.9,38.3 55.9,38.3 55.9,38.3 55.9,38.3 "/>
<polyline class="st0" points="53.3,38.6 53.2,38.6 53.3,38.6 "/>
<polyline class="st0" points="53.2,38.5 53.2,38.5 53.2,38.5 "/>
<polyline class="st0" points="56.2,41.7 56.2,41.7 56.2,41.7 "/>
<polyline class="st0" points="56.1,41.8 56.1,41.8 56.1,41.8 56.1,41.8 "/>
<polyline class="st0" points="55.9,42.2 55.9,42.2 55.9,42.2 55.9,42.2 "/>
<path class="st0" d="M56.2,41.7L56.2,41.7L56.2,41.7z"/>
<polyline class="st0" points="56.2,41.7 56.2,41.7 56.2,41.7 "/>
<polyline class="st0" points="55.8,42.4 55.8,42.4 55.8,42.4 55.8,42.4 55.8,42.4 55.8,42.4 55.8,42.4 "/>
<path class="st0" d="M55.3,44.5C55.3,44.5,55.3,44.5,55.3,44.5C55.3,44.5,55.3,44.5,55.3,44.5"/>
<polyline class="st0" points="54,42.1 54,42.1 54,42.1 "/>
<path class="st0" d="M54.4,44.1C54.4,44.1,54.4,44.1,54.4,44.1C54.4,44.1,54.4,44.1,54.4,44.1"/>
<polyline class="st0" points="53.1,40.5 53.1,40.5 53.1,40.5 "/>
<polyline class="st0" points="53.1,40.5 53.1,40.5 53.1,40.5 "/>
<polyline class="st0" points="53.2,40.7 53.2,40.7 53.2,40.7 53.2,40.7 "/>
<polyline class="st0" points="53.6,45.4 53.6,45.4 53.6,45.4 "/>
<path class="st0" d="M53.5,45C53.5,45,53.5,45,53.5,45C53.5,45,53.5,45,53.5,45"/>
<polyline class="st0" points="53.7,45.4 53.7,45.4 53.7,45.4 "/>
<polyline class="st0" points="52.9,43.9 52.9,43.9 52.9,43.9 52.9,43.9 "/>
<polyline class="st0" points="53,44.1 53,44.1 53,44.1 53,44.1 "/>
<polyline class="st0" points="52.6,43.4 52.6,43.4 52.6,43.4 52.6,43.4 "/>
<polyline class="st0" points="56.9,48.3 56.9,48.4 56.9,48.3 "/>
<path class="st0" d="M56.5,49.3C56.5,49.3,56.5,49.3,56.5,49.3C56.5,49.3,56.5,49.3,56.5,49.3"/>
<polyline class="st0" points="55.6,36.9 55.6,36.9 55.6,36.9 "/>
<path class="st0" d="M55.6,37.5C55.6,37.5,55.6,37.5,55.6,37.5C55.6,37.5,55.6,37.5,55.6,37.5z"/>
<polyline class="st0" points="55.6,37 55.6,37 55.6,37 "/>
<polyline class="st0" points="55.6,40.7 55.6,40.7 55.6,40.7 "/>
<polyline class="st0" points="55.8,40.7 55.8,40.7 55.8,40.7 "/>
<polyline class="st0" points="55.6,41 55.6,41.1 55.6,41 "/>
<polyline class="st0" points="55.6,40.7 55.6,40.7 55.6,40.7 "/>
<polyline class="st0" points="56.3,40 56.3,40 56.3,40 "/>
<polyline class="st0" points="54.8,42.3 54.8,42.3 54.8,42.3 "/>
<path class="st0" d="M55.8,51.7C55.8,51.7,55.8,51.7,55.8,51.7C55.8,51.7,55.8,51.7,55.8,51.7"/>
<polyline class="st0" points="55.7,51.7 55.7,51.7 55.7,51.7 "/>
<polyline class="st0" points="58.9,47 58.9,47 58.9,47 "/>
<path class="st0" d="M58.8,47C58.8,47,58.8,47,58.8,47C58.8,47,58.8,47,58.8,47"/>
<polyline class="st0" points="58.9,47 58.9,47 58.9,47 58.9,47 "/>
<path class="st0" d="M62.5,40.1C62.5,40.1,62.5,40.1,62.5,40.1C62.5,40.1,62.5,40.1,62.5,40.1"/>
<polyline class="st0" points="62.2,40.5 62.2,40.5 62.2,40.5 "/>
<polyline class="st0" points="63,38.5 63,38.5 63,38.5 "/>
<polyline class="st0" points="63.1,38.5 63.1,38.5 63.1,38.5 "/>
<polyline class="st0" points="63.4,38.2 63.4,38.2 63.4,38.2 63.4,38.2 "/>
<polyline class="st0" points="63.5,38.5 63.5,38.5 63.5,38.5 63.5,38.5 "/>
<polyline class="st0" points="59.8,25.9 59.8,25.9 59.8,25.9 "/>
<polyline class="st0" points="59.8,25.9 59.8,25.9 59.8,25.9 "/>
<polyline class="st0" points="59.4,26.1 59.4,26.1 59.4,26.1 "/>
<polyline class="st0" points="63,27.8 63,27.8 63,27.8 "/>
<polyline class="st0" points="63.1,27.5 63.1,27.5 63.1,27.5 "/>
<polyline class="st0" points="63.1,27.8 63.1,27.8 63.1,27.8 "/>
<polyline class="st0" points="54.2,25.5 54.2,25.5 54.2,25.5 "/>
<polyline class="st0" points="54.1,25.3 54,25.3 54.1,25.3 "/>
<line class="st0" x1="54.2" y1="25.5" x2="54.2" y2="25.5"/>
<path class="st0" d="M55,28.2C55,28.2,55,28.2,55,28.2C55,28.2,55,28.2,55,28.2"/>
<polyline class="st0" points="55.3,28.8 55.3,28.8 55.3,28.8 "/>
<polyline class="st0" points="53.8,24.4 53.8,24.4 53.8,24.4 "/>
<polyline class="st0" points="53.7,24.7 53.7,24.7 53.7,24.7 "/>
<polyline class="st0" points="53.9,24.6 53.9,24.6 53.9,24.6 "/>
<polyline class="st0" points="54,24.9 54,24.9 54,24.9 "/>
<polyline class="st0" points="53.8,24.9 53.8,24.9 53.8,24.9 53.8,24.9 "/>
<polyline class="st0" points="53.8,24.9 53.8,24.9 53.8,24.9 53.8,24.9 53.8,24.9 53.8,24.9 53.8,24.9 "/>
<polyline class="st0" points="53.8,24.9 53.8,24.9 53.8,24.9 "/>
<polyline class="st0" points="59.1,23.3 59.1,23.3 59.1,23.3 "/>
<polyline class="st0" points="60.2,21.1 60.2,21.1 60.2,21.1 "/>
<polyline class="st0" points="60.4,20.6 60.4,20.6 60.4,20.6 "/>
<polyline class="st0" points="59.4,22.5 59.4,22.6 59.4,22.5 "/>
<polyline class="st0" points="59.5,22.5 59.5,22.5 59.5,22.5 "/>
<polyline class="st0" points="59.4,22.5 59.4,22.5 59.4,22.5 "/>
<polyline class="st0" points="60,21.6 60,21.6 60,21.6 "/>
<polyline class="st0" points="60.7,20 60.7,20 60.7,20 "/>
<polyline class="st0" points="60.6,19.9 60.6,19.9 60.6,19.9 "/>
<polyline class="st0" points="60.6,19.9 60.6,19.9 60.6,19.9 60.6,19.9 "/>
<polyline class="st0" points="60.7,19.6 60.7,19.6 60.7,19.6 "/>
<polyline class="st0" points="60.7,20 60.7,20 60.7,20 "/>
<path class="st0" d="M60.7,19.5C60.7,19.5,60.7,19.5,60.7,19.5C60.7,19.5,60.7,19.5,60.7,19.5z"/>
<polyline class="st0" points="60.5,19.9 60.5,19.9 60.5,19.9 "/>
<polyline class="st0" points="60.4,20 60.4,20 60.4,20 "/>
<polyline class="st0" points="60.5,20.1 60.5,20.1 60.5,20.1 "/>
<polyline class="st0" points="60.4,19.9 60.4,19.9 60.4,19.9 60.4,19.9 "/>
<polyline class="st0" points="60.6,19.4 60.6,19.4 60.6,19.4 "/>
<polyline class="st0" points="54.6,15.2 54.6,15.2 54.6,15.2 "/>
<polyline class="st0" points="54.8,15.7 54.8,15.7 54.8,15.7 54.8,15.7 "/>
<polyline class="st0" points="54.3,15.4 54.3,15.4 54.3,15.4 54.3,15.4 "/>
<polyline class="st0" points="54.6,15.2 54.6,15.2 54.6,15.2 "/>
<polyline class="st0" points="54.5,16.2 54.5,16.2 54.5,16.2 54.5,16.2 "/>
<polyline class="st0" points="54.5,16.2 54.5,16.2 54.5,16.2 54.5,16.2 "/>
<polyline class="st0" points="54.4,16.3 54.4,16.3 54.4,16.3 54.4,16.3 "/>
<polyline class="st0" points="54.5,16.4 54.5,16.4 54.5,16.4 54.5,16.4 "/>
<polyline class="st0" points="61.3,27.5 61.3,27.5 61.3,27.5 61.3,27.5 "/>
<polyline class="st0" points="61.4,27.3 61.4,27.3 61.4,27.3 61.4,27.3 "/>
<polyline class="st0" points="60.9,26.9 60.9,26.9 60.9,26.9 60.9,26.9 "/>
<polyline class="st0" points="61.4,26.9 61.4,26.9 61.4,26.9 "/>
<path class="st0" d="M61.3,27.5C61.3,27.5,61.3,27.5,61.3,27.5C61.3,27.5,61.3,27.5,61.3,27.5"/>
<polyline class="st0" points="61.2,26.3 61.2,26.4 61.2,26.3 "/>
<polyline class="st0" points="61.2,27.9 61.2,27.9 61.2,27.9 "/>
<polyline class="st0" points="61.6,26.6 61.6,26.5 61.6,26.6 "/>
<polyline class="st0" points="61.6,26.5 61.6,26.5 61.6,26.5 "/>
<polyline class="st0" points="61.6,26.7 61.6,26.7 61.6,26.7 61.6,26.7 "/>
<path class="st0" d="M34.7,61.2v-0.2c-5.2,0-10.1-3.2-12.4-8.1l-0.1,0.1c1.1,2.4,2.9,4.4,5,5.9C29.4,60.5,32,61.2,34.7,61.2"/>
<path class="st0" d="M20.9,20c1.5-4.5,5.1-8,9.9-9.4l0-0.2c-2.3,0.7-4.5,1.9-6.2,3.6c-1.7,1.7-3,3.7-3.8,5.9L20.9,20z"/>
<path class="st0" d="M37.2,66.4c-2.8,0-5.6-0.6-8.2-1.7c-2.5-1.1-4.7-2.6-6.7-4.5c-1.9-1.9-3.4-4.2-4.5-6.7
	c-1.1-2.6-1.6-5.4-1.6-8.2V26.1c0-2.8,0.6-5.6,1.6-8.2c1.1-2.5,2.6-4.8,4.5-6.7c1.9-1.9,4.2-3.5,6.7-4.5C31.6,5.6,34.4,5,37.2,5
	c2.5,0,5,0.4,7.3,1.3c2.3,0.8,4.3,2.1,6.2,3.6c0.1,0.1,0.1,0.2,0,0.2c-0.1,0.1-0.2,0.1-0.2,0c-3.7-3.1-8.4-4.9-13.3-4.9
	c-11.4,0-20.7,9.3-20.7,20.8v19.1c0,11.5,9.3,20.8,20.7,20.8c4,0,7.8-1.1,11.2-3.3c0.1,0,0.2,0,0.2,0c0,0.1,0,0.2,0,0.2
	C45.1,65.2,41.2,66.4,37.2,66.4"/>
<path class="st1" d="M44.7,26.9c0.1,0,0.1,0.1,0.2,0.1c1.1,1.4,1.7,2.9,1.9,4.6c0,0.3,0.1,0.5,0.1,0.8v20.7
	c-5.9,3.2-13.2,3.2-19.2,0.1l0-7.5v-0.4V45v-0.4v-0.4v-0.4v-0.4v-0.4v-0.4v-0.4v-0.4c0-3.1,0-6.2,0-9.3c0-0.8,0.1-1.5,0.3-2.3
	c0-0.1,0.1-0.2-0.1-0.1c0.4-0.4,0.4-0.9,0.6-1.3c0.4-0.8,0.8-1.5,1.3-2.2c0,0,0.1-0.1,0.1-0.1c0.1,0.1,0.1,0.2,0.1,0.2
	c-0.1,0.3-0.1,0.2,0,0.4c0.1,0,0.1-0.1,0.2-0.1c-0.4,0.3-0.2,0.6-0.3,1c0,0.7,0,1.4,0,2c0,1.7,0.1,3.4,0.1,5.1
	c0,0.9,0.1,1.8,0.1,2.7c0,1,0.2,1.9,0.6,2.8c0.1,0.2,0.2,0.3,0.2,0.5c0,0.1,0.1,0.2,0.2,0.3c0,0,0.1,0.1,0.1,0.1
	c0.4,0.9,1.1,1.6,1.9,2.1c1,0.8,2.2,1.2,3.5,1.3c1.5,0.1,2.9-0.1,4.2-0.8c1.4-0.8,2.5-1.9,3.2-3.4c0.4-0.8,0.6-1.7,0.6-2.6
	c0.1-1.4,0.1-2.8,0.1-4.1c0-1.5,0.1-3,0.1-4.4c0-0.7,0.1-1.5,0-2.2C44.8,27.6,44.8,27.2,44.7,26.9z"/>
<path class="st2" d="M44.2,28.5c0,1.8-0.1,3.6-0.1,5.3c0,0.8,0,1.7-0.1,2.5c0,0.9,0,1.9-0.1,2.8c-0.1,0.7-0.3,1.4-0.6,2
	c-0.1,0.2-0.2,0.2-0.3,0.1c-1.4-0.9-2.7-1.9-3.9-3.1c-1.5-1.4-2.7-3-3.7-4.8c-1-1.7-1.7-3.5-2.2-5.4c-0.5-1.9-1-3.8-1.5-5.7
	c-0.1-0.2,0-0.4,0-0.6c0.6-1.6,1.4-3.1,2.4-4.5c0.4-0.5,0.9-1,1.3-1.5c0.4-0.4,0.7-0.7,1.2-1c0.2-0.1,0.4-0.2,0.7-0.2h0.1
	c0.4,0,0.7,0.1,1,0.4c1.5,1.1,2.6,2.6,3.4,4.2c1.1,2,1.8,4.1,2.1,6.3C44.1,26.5,44.2,27.6,44.2,28.5z"/>
<path class="st0" d="M31.3,23.2c0.1,0.3,0.1,0.5,0.2,0.8c0.1,0.3,0.2,0.7,0.3,1c0.1,0.2,0.1,0.4,0.1,0.6c0.3,1.3,0.6,2.6,1,3.8
	c0.3,1.2,0.8,2.3,1.4,3.3c0.4,0.8,0.9,1.6,1.4,2.3c0.8,1.1,1.6,2.2,2.6,3.2c1,1,2,1.9,3.2,2.7c0.4,0.3,0.9,0.6,1.3,0.9
	c0.1,0.1,0.1,0.1,0.1,0.2c-1.1,1.5-2.5,2.5-4.4,2.8c-2.1,0.3-4.1-0.2-5.7-1.7c-1.2-1.1-1.9-2.6-2.1-4.2c0-0.3,0-0.6,0-0.9
	c0-0.8,0-1.6-0.1-2.5c-0.1-2-0.1-4.1-0.2-6.1c0-0.6,0-1.1,0-1.7c0-1.2,0.3-2.4,0.5-3.6C31,23.8,31.1,23.5,31.3,23.2
	C31.2,23.2,31.3,23.2,31.3,23.2 M40,41.8c0-0.3,0-0.7,0-1c0-0.1,0-0.2-0.1-0.3c-0.4-0.3-0.9-0.7-1.3-1c-0.2-0.1-0.3-0.1-0.5,0
	c-0.4,0.3-0.8,0.7-1.2,1c-0.1,0.1-0.2,0.2-0.2,0.3c0,0.7,0,1.4,0,2.1c0,0.1,0.1,0.2,0.1,0.3c0.4,0.3,0.9,0.7,1.3,1
	c0.2,0.1,0.3,0.1,0.5,0c0.4-0.3,0.8-0.7,1.2-1C40,43.1,40,43,40,42.8C40,42.5,40,42.1,40,41.8z M34.1,34.7L34.1,34.7
	c0-0.2,0-0.5,0-0.7c0-0.2-0.1-0.3-0.2-0.5c-0.3-0.2-0.6-0.4-0.8-0.7c-0.2-0.1-0.3-0.1-0.5,0c-0.3,0.2-0.6,0.5-0.9,0.7
	c-0.1,0.1-0.2,0.2-0.2,0.4c0,0.5,0,1,0,1.5c0,0.1,0,0.2,0.1,0.3c0.3,0.2,0.6,0.5,0.9,0.7c0.2,0.1,0.4,0.1,0.5,0
	c0.3-0.2,0.6-0.5,0.9-0.7c0.1-0.1,0.2-0.2,0.2-0.3C34.1,35.2,34.1,34.9,34.1,34.7z M33.8,38.9L33.8,38.9c0-0.2,0-0.5,0-0.7
	c0-0.1-0.1-0.3-0.2-0.3c-0.3-0.2-0.6-0.4-0.8-0.7c-0.2-0.1-0.3-0.2-0.5,0c-0.3,0.3-0.6,0.5-1,0.8c-0.1,0.1-0.1,0.2-0.1,0.3
	c0,0.5,0,0.9,0,1.4c0,0.1,0,0.2,0.2,0.3c0.3,0.2,0.6,0.5,0.9,0.7c0.1,0.1,0.2,0.1,0.4,0c0.2-0.2,0.5-0.4,0.7-0.6
	c0.3-0.2,0.4-0.4,0.4-0.8C33.8,39.2,33.8,39.1,33.8,38.9z M36.8,38.4c0-0.2,0-0.5,0-0.7c0-0.1,0-0.2-0.1-0.3
	c-0.3-0.2-0.6-0.5-0.9-0.7c-0.1-0.1-0.3-0.1-0.4,0c-0.3,0.2-0.6,0.5-0.9,0.7c-0.1,0.1-0.1,0.2-0.1,0.3c0,0.5,0,0.9,0,1.4
	c0,0.1,0.1,0.2,0.2,0.3c0.3,0.2,0.6,0.4,0.8,0.7c0.2,0.1,0.3,0.1,0.5,0c0.3-0.2,0.5-0.4,0.8-0.6c0.1-0.1,0.2-0.2,0.2-0.4
	C36.8,38.8,36.8,38.6,36.8,38.4z M35.7,42.1c0-0.2,0-0.4,0-0.5c0-0.2-0.1-0.3-0.2-0.4c-0.2-0.1-0.4-0.3-0.6-0.4
	c-0.3-0.2-0.4-0.2-0.7,0c-0.1,0.1-0.1,0.1-0.2,0.1c-0.6,0.4-0.6,0.4-0.6,1.2c0,0,0,0.1,0,0.1c0,0.9-0.1,0.7,0.6,1.3
	c0.5,0.4,0.5,0.4,1,0C35.6,43.1,35.9,42.7,35.7,42.1z M32.7,30.6c0-0.1,0-0.2,0-0.3c0-0.2-0.1-0.4-0.3-0.5c-0.2-0.1-0.3-0.2-0.4-0.3
	c-0.1-0.1-0.3-0.1-0.4,0c-0.2,0.1-0.3,0.3-0.5,0.4c-0.1,0.1-0.2,0.2-0.2,0.3c0,0.3,0,0.6,0,0.9c0,0.1,0,0.2,0.1,0.3
	c0.1,0.1,0.3,0.2,0.4,0.3c0.3,0.2,0.3,0.2,0.6,0C32.5,31.5,32.9,31.2,32.7,30.6z"/>
<path class="st0" d="M39.4,41.8c0,0.2,0,0.4,0,0.6c0,0.2,0,0.3-0.2,0.5c-0.3,0.2-0.5,0.4-0.8,0.6c-0.1,0.1-0.2,0.1-0.2,0
	c-0.3-0.2-0.5-0.4-0.8-0.6c-0.1-0.1-0.1-0.2-0.1-0.3c0-0.5,0-1,0-1.5c0-0.2,0.1-0.2,0.2-0.3c0.2-0.2,0.5-0.4,0.7-0.6
	c0.1-0.1,0.2-0.1,0.3,0c0.2,0.2,0.5,0.4,0.8,0.6c0.1,0.1,0.2,0.2,0.2,0.4C39.4,41.4,39.4,41.6,39.4,41.8"/>
<path class="st0" d="M33.5,34.7c0.2,0.6-0.2,0.8-0.5,1.1c-0.1,0.1-0.2,0.1-0.3,0c-0.1-0.1-0.2-0.2-0.3-0.3c-0.2-0.1-0.3-0.3-0.2-0.5
	c0-0.3,0-0.5,0-0.8c0-0.2,0-0.3,0.2-0.4c0.2-0.1,0.3-0.2,0.4-0.3c0.1-0.1,0.2-0.1,0.3,0c0,0,0.1,0.1,0.1,0.1
	C33.5,33.8,33.6,34.2,33.5,34.7"/>
<path class="st0" d="M33.2,38.9C33.2,38.9,33.2,38.9,33.2,38.9c0.1,0.6-0.2,0.8-0.6,1.1c-0.1,0-0.1,0-0.2,0c0,0,0,0-0.1,0
	c-0.5-0.2-0.5-0.6-0.5-1.1c0-0.4,0.1-0.7,0.4-0.9c0.3-0.2,0.2-0.2,0.5,0C33.2,38.2,33.3,38.5,33.2,38.9"/>
<path class="st0" d="M36.2,38.4C36.2,38.4,36.2,38.4,36.2,38.4c0.1,0.6-0.2,0.8-0.6,1.1c-0.1,0.1-0.1,0.1-0.2,0c0,0,0,0,0,0
	c-0.5-0.4-0.5-0.4-0.6-1c0-0.5,0.2-0.8,0.6-1c0.1-0.1,0.2-0.1,0.2,0c0,0,0,0,0,0C36.1,37.6,36.4,37.9,36.2,38.4"/>
<path class="st0" d="M34.1,42.1c0-0.1,0-0.1,0-0.1c-0.1-0.4,0.2-0.5,0.4-0.7c0,0,0.1,0,0.1,0c0.1,0,0.5,0.4,0.5,0.5
	c0,0.2,0,0.5,0,0.7c0,0.1-0.1,0.2-0.2,0.3c-0.3,0.2-0.3,0.2-0.6,0C34.1,42.6,34.1,42.4,34.1,42.1"/>
<path class="st0" d="M31.5,30.6c0-0.1,0-0.2,0-0.3c0.1-0.2,0.3-0.3,0.5-0.1c0.2,0.2,0.1,0.7,0,0.8c-0.1,0.1-0.1,0.2-0.2,0.1
	c-0.1-0.1-0.3-0.1-0.3-0.3C31.5,30.8,31.5,30.7,31.5,30.6"/>
<path class="st0" d="M75.3,95C75.3,95,75.4,95,75.3,95C75.4,95,75.3,95,75.3,95C75.3,95,75.3,95,75.3,95"/>
</svg>
