<?xml version="1.0" encoding="utf-8"?>
<!-- Generator: Adobe Illustrator 16.0.0, SVG Export Plug-In . SVG Version: 6.00 Build 0)  -->
<!DOCTYPE svg PUBLIC "-//W3C//DTD SVG 1.1//EN" "http://www.w3.org/Graphics/SVG/1.1/DTD/svg11.dtd">
<svg version="1.1" id="Capa_1" xmlns="http://www.w3.org/2000/svg" xmlns:xlink="http://www.w3.org/1999/xlink" x="0px" y="0px"
	 width="122.4px" height="122.4px" viewBox="0 0 122.4 122.4" style="enable-background:new 0 0 122.4 122.4;" xml:space="preserve"
	>
<style type="text/css">
<![CDATA[
	.st0{fill-rule:evenodd;clip-rule:evenodd;}
]]>
</style>
<path class="st0" d="M83.4,112.7h1.4c0.2,0,0.3-0.1,0.3-0.3v-12.1c0-0.2-0.1-0.3-0.3-0.3h-1.4c-0.2,0-0.3-0.1-0.3-0.3
	c0-0.2,0.1-0.3,0.3-0.3h2c0.2,0,0.3,0.1,0.3,0.3v5.1c0,0.1,0,0.2,0.1,0.3s0.1,0,0.2-0.1c1.1-1.2,2.2-1.8,3.5-1.8
	c1.3,0,2.2,0.3,2.9,1s1,1.7,1,2.9v5.2c0,0.2,0.1,0.3,0.3,0.3h1.4c0.2,0,0.3,0.1,0.3,0.3c0,0.2-0.1,0.3-0.3,0.3h-3.8
	c-0.2,0-0.3-0.1-0.3-0.3c0-0.2,0.1-0.3,0.3-0.3h1.2c0.2,0,0.3-0.1,0.3-0.3v-5.2c0-1.1-0.3-2-0.9-2.5c-0.6-0.6-1.4-0.8-2.4-0.8
	s-2,0.4-2.8,1.3c-0.4,0.4-0.7,0.8-1,1.3v5.9c0,0.2,0.1,0.3,0.3,0.3h1.2c0.2,0,0.3,0.1,0.3,0.3c0,0.2-0.1,0.3-0.3,0.3h-3.8
	c-0.2,0-0.3-0.1-0.3-0.3C83.1,112.8,83.2,112.7,83.4,112.7 M81,105.9c-1.1-1.4-2.3-2.1-3.8-2.1c-1.1,0-2,0.4-2.7,1.3
	c-0.7,0.9-1.1,2-1.1,3.3c0,1.4,0.4,2.4,1.1,3.3c0.8,0.8,1.7,1.2,3,1.2c1.2,0,2.2-0.3,3-1c0.2-0.2,0.4-0.3,0.5-0.4
	c0.1-0.1,0.2-0.1,0.3-0.1c0.1,0,0.1,0.1,0.2,0.2c0.1,0.1,0.1,0.1,0.1,0.2s-0.1,0.1-0.2,0.3c-0.4,0.4-1,0.7-1.6,1
	c-0.6,0.3-1.4,0.4-2.4,0.4c-1.4,0-2.5-0.5-3.4-1.4c-0.9-1-1.3-2.2-1.3-3.7c0-1.5,0.4-2.8,1.2-3.7c0.8-1,1.9-1.4,3.2-1.4
	c1.3,0,2.4,0.5,3.4,1.5c0.2,0.2,0.3,0.1,0.3-0.2v-0.8c0-0.2,0.1-0.3,0.3-0.3c0.2,0,0.3,0.1,0.3,0.3v3.2c0,0.2-0.1,0.3-0.3,0.3
	c-0.2,0-0.3-0.1-0.3-0.3V105.9z M59.8,112.7h1.4c0.2,0,0.3-0.1,0.3-0.3v-8.1c0-0.2-0.1-0.3-0.3-0.3h-1.4c-0.2,0-0.3-0.1-0.3-0.3
	c0-0.2,0.1-0.3,0.3-0.3h2c0.2,0,0.3,0.1,0.3,0.3v1.1c0,0.1,0,0.2,0.1,0.3s0.1,0,0.2-0.1c1.1-1.2,2.2-1.8,3.5-1.8
	c1.3,0,2.2,0.3,2.9,1s1,1.7,1,2.9v5.2c0,0.2,0.1,0.3,0.3,0.3h1.4c0.2,0,0.3,0.1,0.3,0.3c0,0.2-0.1,0.3-0.3,0.3h-3.8
	c-0.2,0-0.3-0.1-0.3-0.3c0-0.2,0.1-0.3,0.3-0.3h1.2c0.2,0,0.3-0.1,0.3-0.3v-5.2c0-1.1-0.3-2-0.9-2.5c-0.6-0.6-1.4-0.8-2.4-0.8
	s-2,0.4-2.8,1.3c-0.4,0.4-0.7,0.8-1,1.3v5.9c0,0.2,0.1,0.3,0.3,0.3h1.2c0.2,0,0.3,0.1,0.3,0.3c0,0.2-0.1,0.3-0.3,0.3h-3.8
	c-0.2,0-0.3-0.1-0.3-0.3C59.5,112.8,59.6,112.7,59.8,112.7z M49.2,107.7c0,0.2,0.1,0.2,0.3,0.2H57c0.2,0,0.3-0.1,0.3-0.3
	c0-1.1-0.4-2-1.2-2.7s-1.7-1.1-2.9-1.1c-1.2,0-2.1,0.4-2.9,1.2C49.6,105.9,49.2,106.8,49.2,107.7z M56.3,111.9
	c0.2-0.2,0.4-0.3,0.5-0.4c0.1-0.1,0.2-0.1,0.3-0.1c0.1,0,0.1,0.1,0.2,0.2c0.1,0.1,0.1,0.2-0.1,0.4c-0.5,0.4-1,0.8-1.6,1.1
	s-1.4,0.4-2.4,0.4c-1.4,0-2.5-0.5-3.4-1.4c-0.9-1-1.3-2.2-1.3-3.7s0.4-2.7,1.3-3.7c0.9-1,2-1.4,3.3-1.4c1.4,0,2.5,0.4,3.4,1.3
	s1.3,1.9,1.3,3.1v0.3c0,0.4-0.2,0.6-0.6,0.6h-7.8c-0.2,0-0.3,0.1-0.3,0.3c0.1,1.1,0.5,2.1,1.2,2.9c0.7,0.8,1.7,1.2,2.9,1.2
	S55.5,112.6,56.3,111.9z M45.7,103.8c-1.7,0-3,0.7-4.2,2c-0.3,0.4-0.6,0.7-0.8,1.1v5.5c0,0.2,0.1,0.3,0.3,0.3h1.6
	c0.2,0,0.3,0.1,0.3,0.3c0,0.2-0.1,0.3-0.3,0.3h-4.2c-0.2,0-0.3-0.1-0.3-0.3c0-0.2,0.1-0.3,0.3-0.3h1.4c0.2,0,0.3-0.1,0.3-0.3v-8.1
	c0-0.2-0.1-0.3-0.3-0.3h-1.4c-0.2,0-0.3-0.1-0.3-0.3c0-0.2,0.1-0.3,0.3-0.3h2c0.2,0,0.3,0.1,0.3,0.3v1.6c0,0.3,0.1,0.3,0.4,0
	c0.5-0.6,1.1-1,1.9-1.5c0.8-0.4,1.7-0.6,2.6-0.6h1c0.2,0,0.3,0.1,0.3,0.3v2.5c0,0.2-0.1,0.3-0.3,0.3c-0.2,0-0.3-0.1-0.3-0.3v-1.9
	c0-0.2-0.1-0.3-0.3-0.3H45.7z M27.3,112.7h1.4c0.2,0,0.3-0.1,0.3-0.3v-12.1c0-0.2-0.1-0.3-0.3-0.3h-1.4c-0.2,0-0.3-0.1-0.3-0.3
	c0-0.2,0.1-0.3,0.3-0.3h9.4c0.2,0,0.3,0.1,0.3,0.3v2.8c0,0.2-0.1,0.3-0.3,0.3s-0.3-0.1-0.3-0.3v-2.2c0-0.2-0.1-0.3-0.3-0.3h-6.2
	c-0.2,0-0.3,0.1-0.3,0.3v5.3c0,0.2,0.1,0.3,0.3,0.3h4.6c0.2,0,0.3-0.1,0.3-0.3v-1c0-0.2,0.1-0.3,0.3-0.3c0.2,0,0.3,0.1,0.3,0.3v3.2
	c0,0.2-0.1,0.3-0.3,0.3c-0.2,0-0.3-0.1-0.3-0.3v-1c0-0.2-0.1-0.3-0.3-0.3h-4.6c-0.2,0-0.3,0.1-0.3,0.3v5.5c0,0.2,0.1,0.3,0.3,0.3
	h1.6c0.2,0,0.3,0.1,0.3,0.3c0,0.2-0.1,0.3-0.3,0.3h-4.2c-0.2,0-0.3-0.1-0.3-0.3C27.1,112.8,27.1,112.7,27.3,112.7z"/>
<path class="st0" d="M71,52.1c-0.2,0.8-0.4,1.6-0.6,2.4c-0.5,1.5-1.3,3-2.3,4.3c-1,1.4-2.4,2.5-3.6,3.7c-1.2,1.2-2.5,2.4-3.7,3.6
	c-1.7,1.6-3.4,3.3-5.1,4.9c-1.5,1.4-3,2.9-4.4,4.4c-1,1-2,1.9-2.9,2.9c-0.1,0.1-0.1,0.1-0.2,0.1c-0.1-0.1,0-0.1,0.1-0.2
	c2.2-2.2,4.4-4.4,6.5-6.6c1.8-1.8,3.6-3.6,5.3-5.5c1.3-1.3,2.5-2.6,3.7-3.9c1.2-1.3,2.5-2.5,3.5-3.9c1.2-1.6,2-3.5,2.4-5.5
	c0-0.1,0-0.2,0-0.3c-0.3,0.2-0.5,0.5-0.7,0.8c-1.1,1.2-2.1,2.5-3.2,3.7c-0.9,1-2,1.5-3.4,1.6c-3.4,0.3-6.4-2.3-6.8-5.6
	c-0.2-2,0.5-3.6,2-4.9c1.2-1,2.4-2.1,3.6-3.1c2.2-1.8,4.4-3.6,6.8-5.1c0.8-0.5,1.6-0.9,2.5-1.2c0.5-0.1,0.9-0.2,1.4-0.2
	c1.5,0,2.8,0.7,3.5,2.2c0.5,1.2,0.4,2.4-0.1,3.6c-0.1,0.3-0.1,0.5,0,0.7c0.7,1.6,1.7,2.9,2.9,4.1c0.8,0.8,1.8,1.4,2.9,1.8
	c1.2,0.5,2.4,0.9,3.4,1.6c1.4,0.9,2.3,2.2,2.9,3.7c0.4,0.8,0.6,1.7,0.6,2.6c0,0.4-0.1,0.8-0.2,1.2c-0.1,0.3,0,0.4,0.2,0.6
	c2.2,2.2,4.4,4.4,6.6,6.6c0,0,0.1,0.1,0.1,0.1c0.3,0.4,0.6,0.6,1.1,0.3c0.3-0.1,0.5,0,0.7,0.2c3.1,3.1,6.2,6.3,9.4,9.4
	c0.3,0.3,0.4,0.6,0.2,1c-0.3,0.8-0.8,1.5-1.4,2.1c-0.7,0.7-1.3,1.3-2.2,1.8c-0.2,0.1-0.3,0.2-0.5,0.2c-0.4,0.1-0.7,0.1-1-0.3
	c-2.3-2.4-4.7-4.7-7-7.1c-0.7-0.7-1.5-1.5-2.2-2.2c-0.3-0.3-0.3-0.7-0.2-1.1c0.1-0.2,0.1-0.4-0.1-0.5c-1.5-1.5-3-3-4.6-4.6
	c-0.9-0.9-1.7-1.7-2.6-2.6c-0.1-0.1-0.3-0.2-0.5-0.1c-1.6,0.5-3.1,0.3-4.6-0.5c-2-1-3.4-2.5-4.7-4.3c-1.1-1.5-1.9-3.1-2.5-4.8
	C71.5,53.8,71.3,53,71,52.1z M74.1,43.6c-0.2,1-0.3,1.9-0.2,2.9c0,0.1,0,0.2-0.1,0.3c-0.1,0.1-0.2-0.1-0.2-0.2
	c-0.9-1.5-1.4-2.6-1.9-4.3c0-0.1,0-0.2-0.1-0.2c-0.1,0-0.1,0.1-0.2,0.2c-0.6,1.4-0.8,3-0.8,4.5c0,1.7,0.3,3.4,0.8,5.1
	c0.9,3.2,2.4,6.2,4.7,8.7c1.2,1.3,2.6,2.4,4.3,2.9c0.9,0.3,1.9,0.4,2.8,0.1c0.2,0,0.3-0.1,0.2-0.3c-0.1-0.4,0-0.7,0.2-1
	c0.5-0.9,1.3-1.6,2.2-2.2c0.1-0.1,0.2-0.2,0.2-0.3c0-0.7-0.1-1.5-0.3-2.2c-0.1-0.5-0.3-1-0.6-1.4c-0.4-0.5-1-1-1.5-1.4
	c-1.1-0.8-2.2-1.4-3.4-1.8c-1.8-0.7-3.2-1.7-4.2-3.4c-0.1-0.2-0.2-0.4-0.2-0.5c0.1,0,0.1,0.1,0.1,0.1c0.4,0.6,0.9,1.2,1.4,1.7
	c0.9,0.8,2,1.3,3.2,1.7c1.2,0.5,2.4,1,3.5,1.7c1.3,0.8,2.2,1.8,2.5,3.4c0.1,0.6,0.2,1.2,0.3,1.9c0,0.1,0,0.3,0.2,0.3
	c0.1,0,0.1-0.2,0.1-0.3c0.1-0.7,0.1-1.3-0.1-2c-0.5-1.9-1.6-3.4-3.3-4.5c-0.8-0.5-1.6-0.8-2.5-1.1c-2.6-1-4.6-2.7-5.9-5.2
	C74.8,45.8,74.5,44.7,74.1,43.6z M87.2,62.3C87.3,62.3,87.3,62.3,87.2,62.3c0.2,0,0.3,0.1,0.4,0.2c1.1,1.1,2.2,2.2,3.3,3.3
	c0.7,0.7,1.4,1.4,2.1,2.1c0.3,0.3,0.5,0.5,0.8,0.8c0.3,0.3,0.4-0.1,0.6-0.2c0.2-0.1,0-0.2-0.1-0.3c-0.6-0.6-1.2-1.2-1.8-1.9
	c-1.8-1.8-3.7-3.7-5.5-5.5c-0.2-0.2-0.5-0.3-0.8-0.1c-0.8,0.5-1.5,1.1-2,1.9c-0.2,0.2-0.3,0.5,0,0.8c0.5,0.5,1.1,1.1,1.6,1.6
	c1.2,1.2,2.4,2.4,3.6,3.6c0.8,0.8,1.5,1.5,2.3,2.3c0.1,0.1,0.2,0.1,0.3,0c0.3-0.5,0.7-0.9,1.1-1.3c0.1-0.1,0.2-0.2,0-0.4
	c-0.3-0.3-0.6-0.7-0.9-1c-1.4-1.6-2.7-3.2-4.1-4.8C87.9,63,87.6,62.7,87.2,62.3z M57.6,55.5c0.2,1.8,3.7,2.4,5,2.2
	c2.5-0.3,5.8-5.1,7.4-7.1c0.5-0.6,0.3-1.8-0.1-1.3C66.9,53,63.8,59.3,57.6,55.5z M95.8,68.9c-0.1-0.1-0.1,0-0.2,0
	c-1.3,0.8-2.4,1.8-3.2,3.2c-0.1,0.2,0,0.3,0.1,0.5c2.8,2.8,5.6,5.5,8.3,8.3c0.1,0.1,0.2,0.3,0.3,0.1c0.2-0.2,0-0.2-0.1-0.3
	c-0.6-0.6-1.2-1.2-1.8-1.8c-2.1-2.1-4.2-4.2-6.3-6.3c-0.2-0.2-0.3-0.4-0.1-0.7c0.1-0.1,0.1-0.2,0.1-0.2c0.5-0.7,1-1.3,1.7-1.9
	C95.1,69.4,95.4,69.2,95.8,68.9z"/>
<path class="st0" d="M35.1,65.9c5.2-5.7,16.2-19.3,22.6-22.4c1.5-0.7,3-1.1,4.7-1.2c1.1-0.1-3.1,2.9-3.4,3c-1.9,0.6-3.7,1.9-5.1,3.3
	C47.1,55,32.4,68.8,35.1,65.9z"/>
<path class="st0" d="M84.5,57.3c-0.4-0.6-1-1.1-1.7-1.5c-1-0.5-2-1-3-1.3c-2.4-0.7-4-2.3-4.9-4.6c-0.1-0.3-0.3-0.6-0.3-1
	c0.1,0,0.2,0.1,0.2,0.2c0.5,0.9,1.1,1.8,1.8,2.5c0.9,1,2,1.6,3.2,2c1.2,0.4,2.3,0.9,3.3,1.6C83.8,55.9,84.3,56.5,84.5,57.3z"/>
<path class="st0" d="M17.2,47.9c0.3-2.2,0.6-4.4,1.2-6.4c0.4-1.5,1.2-3,1.7-4.5c0.3-1,0.7-1.9,1.1-2.8c0.4-1.2,1-2.2,1.7-3.2
	c0-0.1,0-0.1,0.1-0.1c1-1.4,1.9-3,3-4.2c0,0,0,0,0,0c0,0,0,0,0,0c-0.1,0.2-0.2,0.5-0.3,0.7c-0.5,1.3-1.3,2.6-1.9,3.9l0,0
	c0,0,0,0,0,0c0,0,0,0,0,0c-1.2,2.7-2.1,5.6-1.9,8.7c-0.1,4-0.3,7.9-0.5,11.9c-0.5,5.9-1,10.2,1.6,15.6c0,0,0,0,0,0
	c1.4,2.7,3.4,5,5.4,7.1c1.1,1.2,2.7,1.8,4.1,2.3h0c1,0.3,2,0.1,2.9,0.7c-7.7-8.4-11.4-21.9-9.5-34.5c0.3-2,0.9-4.2,1.3-6.3
	c0.1-0.7,0.2-1.5,0.4-2.2c0.5-3.1-0.8-6.2,0.1-9.3c0.5-2.4,1.9-4.4,3-6.2c1.1-1.6,2.1-3.1,3.2-4.7c0.7-1.2,1.2-2.4,1.7-3.6
	c0.2-0.7,0.3-1.4,0.7-2c0,0,0,0,0,0c0,0,0-0.1,0-0.1l0,0c0,0,0,0,0,0h0c0,0,0,0,0,0c0,0,0,0,0,0c0-0.1,0.1-0.1,0.1-0.2
	c-0.1,0.7-0.1,1.5-0.2,2.2c0,0,0,0,0,0c-0.2,2.5-0.9,4.8-2.2,6.7c-0.7,1.2-1.3,2.6-1.9,3.8c-0.4,0.6-0.5,1.5-0.8,2.2
	c-0.4,0.9-0.8,1.8-1.1,2.9c-0.6,2.3-1.2,4.5-1.6,6.9c1.4-3.6,3.3-6.6,5.4-9.5c1.4-3,2.9-5.8,4.6-8.6c0.5-2.9,1.4-5.8,2.6-8.3
	c0,0,0,0,0,0c-0.5-1.3,0.8-3.5,1.9-2.4c0.2,0.3,0.1,0.7,0,1c-0.3,0.8-1,1.2-1.7,1.5c-1,2.3-1.7,4.8-2.2,7.3l0,0l0,0.2
	c1.1-1.7,2.3-3.5,3.7-4.9c0.4-1.9,3-7,4.8-5.2c1.3,2.2-2.8,5.7-4.4,5.3c-0.6,0.7-1.2,1.4-1.7,2.2c0,0,0,0,0,0c0,0,0.1,0,0.1,0
	c1.2-0.2,2.4-0.5,3.5-1c0.5-0.2,1.1-0.5,1.6-0.9c0.1-0.2,0.2-0.4,0.2-0.7c0.2-0.9,1.2-1.9,1.8-1c0,0.1,0,0.2,0,0.3
	c0,0.1,0,0.1,0,0.1c-0.3,1-1.2,1.4-1.9,1.3c-0.9,0.8-2.1,1.2-3.2,1.7c0.2,0,0.3,0,0.5,0h0c0,0,0.1,0,0.1,0c0.5-0.1,1.1-0.2,1.6-0.3
	c0.2-0.4,0.6-0.7,1-0.5c0.2,0.1,0.2,0.5,0.1,0.7c-0.1,0.1-0.2,0.3-0.3,0.3c-0.4,0.2-0.7-0.3-1.1-0.3c0,0,0,0,0,0
	c-0.6,0.1-1.3,0.3-1.9,0.3c0,0,0,0,0,0c-0.1,0-0.2,0-0.3,0c-0.2,0-0.4,0-0.6,0c-0.6,0.1-1.1,0.1-1.7,0.3c-2.1,3.1-3.9,6.4-5.7,9.8
	c4.9-5.3,11.4-8.9,18-8.9c-0.1-2.6,1.7-6.7,3.6-7.9c0.5-0.3,1.1-0.6,1.8-0.5c0.9,0.2,1.6,1.8,1,2.8c0.6,0.1,1.1,0.9,0.7,1.6
	c0.9,0.3,1.2,1.7,0.5,2.4c0.7,0.4,0.3,1.4-0.2,1.8c0.7,0.4,1.1,1.5,0.5,2.2c-0.1,0.2-0.3,0.2-0.4,0.4c0.5,0.8,0,2-0.7,2.3
	c0.4,1.5-1,2.9-2.2,2.5c-2.1-0.7-4.3-4-4.4-6.8c-0.5,0-1.1-0.1-1.6-0.1l0,0c-1.7,0.2-3.7,0.7-5.2,1.3l0,0c-4.6,1.7-8.9,4.9-12.3,9.3
	l0,0c0,0,0,0,0,0c0,0,0,0,0,0c-1.8,2.3-3.2,4.7-4.5,7.5l0,0c0,0,0,0,0,0c0,0,0,0,0,0c0,0,0,0,0,0c-1.9,4.3-3.1,9.1-3.5,14.1
	c1.1-3.5,2.9-6.7,5-9.2c1.5-2.7,3.3-5.2,5.4-7.1l0,0c0.6-0.9,0.9-2.1,1.5-3c0.5-0.9,1.7-1.3,1.8,0.1c0.8,0.7,0.3,2.2-0.5,2.7
	C38.7,30,37.8,30,37,29.8c-1.2,1.2-2.5,2.6-3.5,4.2c-0.2,0.3-0.5,0.7-0.7,1c2.2-2.3,5.1-3.5,7.9-3.9c0.6-1.3,0.7-2.8,1.1-4.2
	c0.5-1.3,1.2-2.3,2.2-2.7c0.9-0.3,1.8,0.5,1.7,1.7c0,0,0,0,0,0c0.9,0.4,1.6,2.1,1,3.2c0.3,0.2,0.5,0.4,0.6,0.8
	c0.1,0.1,0.1,0.2,0.1,0.3c0.2,0.7-0.2,1.5-0.7,1.9c0.6,0.4,0.8,1.4,0.4,2c-0.6,1.3-2,1.4-3,0.8c-1.2-0.6-2.2-2.4-3.2-3.3
	c-1,0.2-2,0.5-3,0.8l0,0c-0.9,0.4-1.8,0.8-2.7,1.4c1.6,0.1,3.3,0.5,4.8,1.4c0.1,0,0.4,0.1,0.5,0.1c0.6,0.1,1.3,0.2,1.8,0.8
	c0.6,0.7,0.3,1.9-0.6,1.8c-0.8-0.2-1.6-1-1.9-2c-0.5-1.3-3.3-1.7-4.4-1.7v0c-0.3,0-0.6,0.1-0.9,0.2c-2.9,2.3-5.2,5.7-6.9,9.4l0,0
	c-0.9,2-1.6,4.2-1.6,6.5l0,0c0.1,12.3,5.8,24.3,14.3,30.3l0,0l0,0c0,0,0,0,0,0v0c0,0,0.1,0.1,0.1,0.1l0,0c1.4,1,2.8,1.8,4.2,2.5
	c-1-1.1-2-2.1-3-3.3c-0.9-1.2-1.7-2.6-2.6-3.7c-2-2.4-2.3-4.2-2.8-7.5c-0.4-3.3,0.6-6.6-0.1-9.9c-0.9-3-3.1-5.4-3.2-8.8
	c0-0.9,0.1-1.9,0.1-2.8c0-0.7-0.1-1.4-0.2-2.1c0,0,0,0,0,0c0,0,0,0,0,0c0,0,0,0,0,0c0,0,0,0,0,0c0,0,0,0,0,0c0,0,0,0,0,0
	c0-0.1,0-0.2,0-0.3c0,0,0,0,0,0c0,0,0-0.1,0-0.1c0,0,0,0,0,0c0,0,0,0,0-0.1c0,0,0,0,0,0c0,0,0,0,0,0c0.4,1.1,0.6,2.2,0.8,3.4
	c0.4,1.1,0.8,2.2,1.4,3.1c1,1.6,2.2,3.2,3.1,4.8c1.8,2.8,2.1,6.4,2,9.9l0,0C40.3,72.5,42,80.1,46.9,84c2.1,0.7,4.3,1.2,6.5,1.3
	c1.7,0.1,3.5-0.2,5.2-0.3c0.2,0,0.4,0.1,0.6,0.2c0.3,0.2,0.1,0.6-0.1,0.8c-0.2,0.2-0.4,0.2-0.6,0.3c-1.4,0.3-2.4,0.3-3.9,0.4
	c-5.2,0.1-10.3-1.5-14.9-5l0,0c-0.7-0.5-1.4-0.9-2.2-1.3c-0.6-0.4-1.2-0.9-1.9-1c-0.7-0.2-1.4,0-2.1,0c-2.2,0-4.4,1-6.5,0.1
	c-2.7-1.2-4.6-4.3-6.5-6.8c-1.9-2.2-2.4-5-3.1-8C16,59,16.6,53.5,17.2,47.9 M22.5,32.8c0.1-0.2,0.1-0.3,0.2-0.5
	c-0.1,0.2-0.2,0.4-0.2,0.6L22.5,32.8z M41.9,5.7c0.3-0.3,0.6-0.6,0.7-1.1c-0.4,0.5-0.9,0.9-1.2,1.5c0,0,0.1,0,0.1,0c0,0,0,0,0,0
	C41.7,5.9,41.8,5.8,41.9,5.7z M41.5,5.4c-0.1,0.2-0.2,0.5-0.3,0.7c0.4-0.6,0.9-1.1,1.4-1.7C42.1,4.6,41.8,5,41.5,5.4z M42.4,4.1
	L42.4,4.1c0,0-0.1,0-0.2,0v0c-0.7,0.1-1.2,1.1-1.2,2c0.1-0.3,0.2-0.7,0.4-0.9c0.3-0.4,0.7-0.7,1.1-0.9C42.5,4.2,42.4,4.2,42.4,4.1z
	 M42.8,4.8c0,0,0-0.1,0-0.1c0,0,0,0,0,0s0,0,0,0c0,0,0-0.1,0-0.1c-0.2,0.7-0.7,1.1-1.2,1.6c0.4-0.1,0.7-0.5,1-0.9
	C42.7,5.1,42.7,5,42.8,4.8z M45.8,5C45.8,5,45.8,5,45.8,5c-0.7,0.5-1.1,1.2-1.5,2c0.4-0.6,0.9-1.1,1.4-1.5c0.3-0.4,0.6-0.8,1-1
	C46.4,4.5,46.1,4.7,45.8,5C45.8,5,45.8,5,45.8,5z M46.6,4.8c-1,1-2,2.1-2.7,3.4c0.7-0.7,1.4-1.5,2.1-2.3c0,0,0,0,0,0
	c0.2-0.2,0.4-0.5,0.5-0.7c0,0,0,0,0,0c0.1-0.2,0.3-0.4,0.4-0.6C46.8,4.6,46.7,4.7,46.6,4.8z M46.7,5.1c-0.8,1.1-1.7,2.1-2.5,3
	c1.2-0.6,2.1-1.9,2.7-3.3C46.8,5,46.8,5.1,46.7,5.1z M46.9,4c-0.8-0.4-1.6,0.6-2.1,1.3l0,0c-0.7,1-1.4,2.1-1.9,3.4
	c1.1-1.7,1.9-4,3.8-4.5l0,0C46.8,4.1,46.9,4.1,46.9,4C46.9,4.1,46.9,4,46.9,4z M46.5,6.8L46.5,6.8c0.2-0.3,0.4-0.6,0.6-0.9
	c0,0,0,0,0,0l0,0c0.2-0.4,0.3-1,0.2-1.5c-0.4,1.3-1,2.4-1.8,3.2c-0.5,0.6-1.2,0.9-1.8,1.2c0.2,0,0.4,0,0.6-0.1c0,0,0,0,0,0
	C45.1,8.4,45.9,7.6,46.5,6.8z M48.3,8.2c-0.6-0.1-0.9,0.6-1.2,1.1c0.2-0.1,0.3-0.2,0.5-0.3l0,0C47.9,8.8,48.1,8.5,48.3,8.2
	C48.3,8.2,48.3,8.2,48.3,8.2z M47.3,9.5c0.4-0.1,0.8-0.5,1-0.9c0,0,0,0,0,0c0-0.1,0.1-0.2,0.1-0.3c-0.4,0.6-0.8,1-1.4,1.3
	C47.1,9.6,47.2,9.6,47.3,9.5z M46.9,9.2c0.4-0.5,0.7-1.3,1.4-1.2C47.6,7.5,47,8.5,46.9,9.2L46.9,9.2z M46.5,10.9
	c-0.2-0.1-0.3-0.1-0.5,0l0,0c0,0,0,0,0,0l0,0c-0.1,0.1-0.2,0.1-0.2,0.2C46.1,11,46.3,10.9,46.5,10.9C46.6,10.9,46.5,10.9,46.5,10.9z
	 M46.6,11.2c-0.2-0.1-0.5,0-0.7,0.2c0.2,0,0.3,0,0.5-0.1l0,0C46.5,11.2,46.6,11.2,46.6,11.2z M46.1,11.6c0.1,0,0.2,0.1,0.3,0
	c0,0,0,0,0,0c0.1-0.1,0.1-0.1,0.2-0.2c-0.2,0.1-0.5,0.1-0.7,0.1C46,11.5,46,11.6,46.1,11.6z M59.3,5.7c-0.1-0.1-0.1-0.2-0.2-0.3h0
	c-0.1-0.1-0.2-0.2-0.3-0.2c0,0,0,0,0,0s0,0,0,0C58.6,5.1,58.5,5,58.3,5c-1-0.1-1.9,0.7-2.6,1.5l0,0c-0.4,0.6-0.7,1.1-1,1.8l0,0v0
	l0,0l0,0c0,0,0,0,0,0l0,0l0,0c0.8-1.1,1.9-1.9,3-2.5c0.4-0.3,1-0.4,1.5-0.3l0,0C59.1,5.7,59.2,5.7,59.3,5.7L59.3,5.7z M59.5,6.5
	c0-0.2,0-0.3-0.1-0.5v0c-0.1-0.1-0.2-0.1-0.3-0.2v0c-0.5-0.2-1.1,0-1.6,0.3c-1.4,0.7-2.8,2.1-3.4,3.9c0.2-0.3,0.4-0.6,0.6-0.9
	c0.3-0.3,0.6-0.7,1-1c0.3-0.4,0.6-0.6,1-0.8c0.5-0.4,1-0.7,1.5-0.8C58.7,6.5,59.1,6.4,59.5,6.5C59.5,6.6,59.5,6.5,59.5,6.5z
	 M59.4,6.8c-0.6-0.1-1.2,0-1.8,0.3c-1,0.6-1.9,1.3-2.7,2.3c0,0,0,0,0,0c0,0,0,0,0,0c0,0,0,0,0,0c-0.6,0.7-1,1.6-1.2,2.6
	c0.3-0.9,1-1.3,1.5-2c1.1-1.2,2.4-2.4,3.9-2.5l0,0C59.4,7.3,59.5,7,59.4,6.8L59.4,6.8z M59.9,8.1c-0.1-0.1-0.3-0.2-0.4-0.3h0
	c-0.8-0.2-1.7,0.3-2.4,0.8c-1,0.8-1.9,1.8-2.6,2.9c1.1-1.1,2.4-1.9,3.7-2.6c0.3-0.1,0.6-0.3,0.9-0.5c0.3-0.1,0.6-0.2,0.8-0.2
	C59.9,8.2,59.9,8.2,59.9,8.1z M60,8.5c0,0-0.1,0-0.1,0c0,0,0,0,0,0l0,0c-2,0.6-4,2-5.5,3.8C55.9,11.5,59.3,10.6,60,8.5
	C60,8.5,60,8.5,60,8.5z M60.4,9.7c-0.1-0.1-0.2-0.1-0.2-0.2c0,0-0.1-0.1-0.1-0.1c-0.1,0.2-0.2,0.3-0.3,0.4
	C59.9,9.8,60.2,9.7,60.4,9.7L60.4,9.7z M60.8,10.4c0-0.1,0-0.2-0.1-0.2l0,0c0-0.1-0.1-0.2-0.1-0.2c-0.8-0.1-1.5,0.4-2.1,1
	c0.3-0.2,0.5-0.2,0.8-0.3c0.4-0.1,0.8-0.3,1.2-0.2C60.7,10.5,60.7,10.5,60.8,10.4L60.8,10.4z M60.7,11c0-0.1,0.1-0.2,0.1-0.3
	c-0.9,0-1.7,0.3-2.6,0.6c0.7-0.1,1.5-0.1,2.2,0.1l0,0C60.6,11.3,60.7,11.1,60.7,11z M60.8,12.2c0,0,0-0.1,0-0.1c0,0,0,0,0,0
	c-0.1-0.3-0.4-0.4-0.6-0.5c0,0,0,0,0,0c-0.7-0.2-1.3-0.2-2-0.1c-1.4,0.1-2.8,1-4.1,1.6C56.3,12.8,58.6,12.1,60.8,12.2z M56,13.7
	c1,0.1,1.9-0.1,2.9-0.4c0,0,0,0,0,0l0,0c0,0,0,0,0,0l0,0c0.7-0.3,1.3-0.5,1.9-0.9c-2.1,0-4.2,0.7-6.3,1.1C55,13.5,55.5,13.6,56,13.7
	z M60.5,12.9c0.1-0.1,0.1-0.2,0.2-0.3c-1.2,0.8-2.5,1.4-3.9,1.5c1.1,0.5,2.2,0,3.2-0.7c0.1-0.1,0.2-0.1,0.3-0.2
	C60.4,13,60.5,12.9,60.5,12.9z M60.7,14.1c-0.2-0.2-0.4-0.4-0.6-0.5c-0.2,0.2-0.5,0.3-0.8,0.5C59.8,14,60.3,14.1,60.7,14.1
	C60.7,14.2,60.7,14.1,60.7,14.1z M60.9,14.7c0-0.1,0-0.2,0-0.3c0,0,0,0,0-0.1c-0.7-0.2-1.4,0-2.2,0c0,0,0,0,0,0
	C59.4,14.5,60.2,14.6,60.9,14.7C60.9,14.8,60.9,14.7,60.9,14.7z M60.5,15.6c0.2-0.2,0.3-0.4,0.4-0.7c-0.6,0-1.2,0-1.7-0.1
	c0.4,0.2,0.8,0.5,1.2,0.9C60.4,15.7,60.5,15.7,60.5,15.6z M60.4,16.5c0-0.5-0.4-0.7-0.6-0.9l0,0c-0.5-0.3-0.9-0.6-1.4-0.7l0,0
	c-0.7-0.3-1.5-0.3-2.3-0.4c-0.4-0.1-0.9-0.1-1.3-0.2c1.1,0.7,2.4,1,3.5,1.6c0.7,0.3,1.3,0.7,2,0.9l0,0c0,0,0.1,0,0.1,0l0,0
	C60.4,16.6,60.4,16.6,60.4,16.5z M60.2,17.4C60.3,17.4,60.3,17.4,60.2,17.4C60.3,17.4,60.3,17.4,60.2,17.4c0.1-0.2,0.2-0.3,0.2-0.4
	c-0.5-0.1-1-0.3-1.5-0.5c-0.7-0.3-1.5-0.5-2.2-0.8l0,0c-0.8-0.2-1.6-0.6-2.4-1.1c1.5,1.4,3.2,2.7,5.1,2.9c0.1,0,0.3,0,0.4,0
	C60,17.5,60.1,17.5,60.2,17.4z M59.9,17.9c0.1,0,0.2-0.1,0.2-0.2c-1.5,0.1-2.9-0.5-4.2-1.4l0,0c-0.5-0.3-0.8-0.6-1.3-1
	c0.6,0.9,1.3,1.6,2.1,2c0.7,0.4,1.5,0.8,2.2,0.7c0.1,0,0.2,0,0.3,0l0,0C59.6,18,59.7,18,59.9,17.9z M59.5,19.1
	C59.5,19.1,59.6,19.1,59.5,19.1C59.5,19.1,59.5,19.1,59.5,19.1z M59.5,19.2C59.5,19.2,59.5,19.2,59.5,19.2c0.1,0,0.1-0.1,0.1-0.1v0
	c0-0.1,0-0.3,0-0.4l0,0c0-0.1,0-0.3-0.1-0.4c-0.6,0.1-1.1,0-1.6-0.2c-0.8-0.1-1.4-0.6-2-1.1c-0.4-0.3-0.8-0.7-1.1-1.1
	C55.9,17.8,57.7,18.8,59.5,19.2z M58.3,20.3L58.3,20.3c0.1,0,0.2,0.1,0.3,0.1c0.3-0.2,0.6-0.5,0.8-0.9c0,0,0,0,0,0
	c-1.7-0.3-3.4-1.1-4.6-2.7C55.7,18.4,56.8,19.8,58.3,20.3L58.3,20.3C58.3,20.3,58.3,20.3,58.3,20.3z M55.6,19c0.6,0.7,1.2,1.3,2,1.5
	v0c0.1,0,0.2,0,0.2,0.1v0c0.2,0,0.3,0,0.5,0c-0.8-0.1-1.6-0.8-2.2-1.4c0-0.1-0.1-0.1-0.1-0.2c-1-1.1-1.6-2.6-2.3-4.1
	C54,16.4,54.7,17.8,55.6,19z M53.3,14.1C53.3,14,53.3,14,53.3,14.1C53.3,14,53.3,14,53.3,14.1z M46.5,15.2L46.5,15.2
	C46.5,15.2,46.5,15.2,46.5,15.2C46.5,15.2,46.5,15.2,46.5,15.2z M28.7,27.1c0,0.5-0.1,1,0,1.4c0.5-2.1,1.1-4.2,2.1-6.1
	c0.5-1.1,0.9-2.4,1.5-3.4c1.3-2.3,2.8-4.5,3.2-7.4c-1,3.7-3.1,6.5-4.8,9.7C29.8,23.1,28.8,25,28.7,27.1z M28.1,31.2
	c0.3-1.3,0.2-2.7,0.3-4c0.2-2.1,1.1-3.9,1.9-5.6c1.3-2.5,2.9-4.9,4.1-7.5l0,0c0.2-0.5,0.4-1,0.6-1.6c-0.6,1.6-1.6,2.9-2.5,4.3
	c-1.4,2-2.7,4-3.8,6.2C27.4,25.6,27.5,28.3,28.1,31.2z M39.7,26.6c0-0.1-0.1-0.2-0.1-0.2c0,0,0,0,0,0c-0.9,0.5-1.5,1.5-2,2.5
	C38.2,28,38.9,27.2,39.7,26.6C39.7,26.6,39.7,26.6,39.7,26.6z M39.7,26.8c-0.6,0.6-1.2,1.2-1.8,1.9c0.1-0.1,0.2-0.2,0.3-0.2
	c0.1-0.1,0.3-0.2,0.4-0.3v0C39,27.9,39.6,27.4,39.7,26.8C39.7,26.8,39.7,26.8,39.7,26.8z M40,27.2c0-0.1-0.1-0.1-0.1-0.2
	c-0.3,1-1.2,1.7-2.1,2c-0.1,0.1-0.2,0.2-0.3,0.3c0.9-0.3,1.9-0.7,2.5-1.7l0,0C40,27.5,40.1,27.4,40,27.2
	C40.1,27.2,40.1,27.2,40,27.2z M37.4,29.5c0.2,0,0.4,0.1,0.6,0.1v0c0.3,0,0.6-0.1,0.9-0.2l0,0c0,0,0,0,0,0v0h0l0,0
	c0.7-0.2,1.4-1,1.3-2C39.6,28.7,38.4,29.3,37.4,29.5C37.3,29.5,37.3,29.5,37.4,29.5z M37.2,29.2L37.2,29.2c0.6-1.1,1.2-2.4,2.2-2.9
	c-0.1,0-0.1-0.1-0.2-0.1c-0.6-0.1-1,0.6-1.3,1.2C37.6,27.9,37.5,28.6,37.2,29.2C37.2,29.2,37.2,29.2,37.2,29.2z M45.5,25.3
	c-0.1-0.3-0.2-0.5-0.4-0.6c0,0,0,0,0,0c0,0,0,0,0,0c0,0,0,0,0,0c-0.1-0.1-0.3-0.2-0.4-0.2c-0.1,0-0.1,0-0.2,0
	c-1.4,0.2-2.3,2-2.7,3.6C42.5,26.4,43.9,25,45.5,25.3C45.5,25.3,45.5,25.3,45.5,25.3z M46.4,26.8c-0.2-0.5-0.7-0.5-1.1-0.5l0,0
	c-1,0-1.9,0.9-2.4,1.9C43.8,27.1,45.2,26.4,46.4,26.8L46.4,26.8z M46.8,27.8c0-0.3-0.1-0.5-0.2-0.8c-0.1,0-0.1,0-0.2-0.1v0
	c-1.5-0.3-3.1,0.9-4,2.5C43.6,28.3,45.2,27.1,46.8,27.8C46.8,27.8,46.8,27.8,46.8,27.8z M46.8,28c-1-0.5-2.3,0.2-3.2,0.9
	c0,0,0,0,0,0l0,0l0,0c-0.6,0.4-1.1,1-1.6,1.6c1.4-1.1,3-2.4,4.7-1.5C46.7,28.7,46.7,28.3,46.8,28z M47.2,30.2c0-0.2,0-0.3-0.1-0.4
	c0,0,0,0,0,0c-0.1-0.2-0.2-0.4-0.4-0.5c-0.2-0.1-0.4-0.2-0.5-0.3c-1.3-0.4-2.5,0.4-3.5,1.3C44.1,29.9,45.9,29.3,47.2,30.2
	C47.2,30.2,47.2,30.2,47.2,30.2z M47.2,30.5c-0.2-0.1-0.4-0.2-0.6-0.3v0c-0.3-0.1-0.7-0.1-1.1-0.1v0c-1.2,0-2.5,0.3-3.5,1
	C43.8,31,45.5,30.6,47.2,30.5L47.2,30.5z M47.2,30.7c-1.6,0.2-3.2,0.6-4.8,0.7c0.7,0.1,1.4,0.3,2,0.2C45.4,31.6,46.4,31.4,47.2,30.7
	z M46.9,31.7c0.1-0.1,0.2-0.3,0.3-0.4c0,0,0-0.1,0-0.1c0-0.1,0-0.1,0-0.2c0,0,0,0,0,0l0,0c-1.4,1.1-3.2,1-4.8,0.7
	C43.8,32.3,45.5,32.8,46.9,31.7z M47.1,33.2c-0.1-0.4-0.3-0.7-0.7-0.8c-1.4,0.7-3,0.4-4.3-0.3c1.1,0.9,2.6,1.2,3.9,1.2
	C46.3,33.2,46.7,33.2,47.1,33.2C47.1,33.2,47.1,33.2,47.1,33.2z M47,33.9c0.1-0.2,0.1-0.3,0.1-0.5c-1.3,0.2-2.7,0.2-3.9-0.3
	c0.1,0,0.1,0.1,0.2,0.1l0,0c0.8,0.6,1.8,0.9,2.7,0.9l0,0C46.4,34,46.7,34,47,33.9z M43.3,33.1C43.3,33.1,43.3,33.1,43.3,33.1
	C43.3,33.1,43.3,33.1,43.3,33.1L43.3,33.1z M42.4,33c1,1.5,3.3,3.2,4.5,1.1c-1.8,0.8-3.7-0.5-5.1-1.9C42,32.5,42.2,32.7,42.4,33z
	 M41.3,30.7c0.7-0.9,1-2.3,1.7-3.3c0.7-0.8,1.4-1.4,2.4-1.4c0-0.1,0.1-0.1,0.1-0.1c0,0,0-0.1,0-0.1c0,0,0,0,0,0c0-0.1,0-0.1,0-0.2
	c-0.7-0.1-1.3,0.1-1.9,0.5l0,0c-0.2,0.2-0.5,0.4-0.7,0.7l0,0C42,27.8,41.8,29.3,41.3,30.7C41.3,30.7,41.3,30.7,41.3,30.7z
	 M40.8,35.9c0.4,0.2,0.9,0.4,1.3,0.7c0,0-0.1-0.1-0.1-0.1c0,0,0,0,0,0C41.7,36.1,41.2,36,40.8,35.9C40.8,35.9,40.8,35.9,40.8,35.9z
	 M42,36.8c-0.2-0.3-0.6-0.5-0.9-0.6c0,0,0,0,0,0c-0.2-0.1-0.4-0.1-0.6-0.1c0.5,0.6,1.1,1.1,1.8,1.3c0,0,0,0,0,0
	C42.2,37.2,42.1,37,42,36.8z M42.4,36.9c0,0.1,0.1,0.2,0.1,0.3c0.1-0.8-0.5-1.3-1.1-1.5v0c-0.4-0.1-0.7-0.2-1.1-0.2
	C41.1,35.7,42,35.9,42.4,36.9z M42.3,37.5c-0.7-0.1-1.3-0.5-1.8-1.2c0.4,0.5,0.8,1,1.3,1.2c0,0,0,0,0,0c0,0,0,0,0,0c0,0,0,0,0,0
	c0.1,0,0.2,0,0.3,0c0,0,0,0,0,0c0,0,0.1,0,0.1,0C42.2,37.6,42.3,37.6,42.3,37.5z M40.8,37.3c0.3,0.2,0.7,0.5,1,0.5c0,0,0,0,0,0v0
	c0,0,0,0,0,0c0,0,0,0,0,0c0,0,0,0,0,0c0,0,0,0,0.1,0c-0.1,0-0.1,0-0.2-0.1c0,0,0,0,0,0c-0.6-0.1-1-0.6-1.4-1.2c0,0,0,0,0,0
	c0,0,0,0,0,0c0.1,0.2,0.3,0.4,0.4,0.6C40.7,37.2,40.8,37.2,40.8,37.3z M26,50.2L26,50.2C26,50.3,26,50.3,26,50.2
	C26,50.3,26,50.3,26,50.2z M39.9,66.4c0-2.9,0-6-1.1-8.6c-0.6-1.4-1.5-2.6-2.3-3.8c1.9,3.7,3,8.5,3.5,12.8
	C39.9,66.7,39.9,66.5,39.9,66.4z M40.2,73.3c-0.8-3.8-0.6-8.1-1.6-11.8l0,0c-0.5-2.3-1.2-4.6-2.2-6.7c-0.7-1.6-1.7-3-2.4-4.7
	c0.3,1.3,1,2.4,1.5,3.6c0.7,1.5,1.5,3.2,2,4.8c1,2.9,1.1,6.2,1.3,9.3c0.2,2.1,0.7,4,1.4,5.8C40.2,73.6,40.2,73.5,40.2,73.3z
	 M41.7,78.7c-0.6-1.2-1.1-2.5-1.6-3.8c-0.6-1.7-1.3-3.4-1.6-5.2c-0.4-2.5-0.3-5-0.7-7.5c-0.4-2.9-1.5-5.6-2.7-8.1l0,0
	c-0.7-1.4-1.4-3-1.7-4.6c0,4,2.5,6,3.3,9.5c0.4,2.7-0.1,5.2-0.1,7.9c0.1,2.2,0.4,4.5,1.2,6.6c0.5,1.1,1.3,1.9,2,2.8
	c0.7,0.8,1.3,1.8,1.9,2.7C41.8,78.8,41.8,78.7,41.7,78.7z M40.5,80.7C40.4,80.7,40.4,80.6,40.5,80.7C40.4,80.6,40.4,80.7,40.5,80.7z
	 M33.5,78.3l0.1,0C33.6,78.3,33.5,78.3,33.5,78.3C33.5,78.3,33.5,78.3,33.5,78.3z M20.4,55.1c0.5-6,0.7-11.8,0.9-17.7
	C21.2,38,21,38.6,21,39.2c-0.2,2.1-0.2,4.3-0.3,6.4C20.6,48.8,20.5,52,20.4,55.1L20.4,55.1z M28.8,75.9c-0.9-0.6-1.5-1.4-2.3-2.2
	c-0.9-1-1.8-2.1-2.6-3.3c-1.9-2.6-3.1-6-3.5-9.5c-0.1,2.7,0.7,4.9,1.6,7.3C23.2,71.9,25.8,74.6,28.8,75.9L28.8,75.9z M29.1,76.7
	c-0.8-0.5-1.7-0.8-2.5-1.4c-2.2-1.5-4-4.1-4.9-7c-0.6-1.7-1.3-3.3-1.4-5.1c-0.3-3.4-0.1-6.9-0.1-10.3c0.1-4.5,0.4-9.1,0.7-13.6
	c-1,3.4-0.7,7.1-1,10.6c-0.1,1.9-0.4,3.9-0.6,5.8c-0.1,2.3,0.1,4.7,0.3,6.9c0.3,4.4,1.5,7.7,4.1,10.7c0,0,0,0,0,0c0,0,0,0,0,0
	c1,1.3,2.3,2.4,3.7,2.8l0,0c0,0,0,0,0,0c0,0,0,0,0,0c0.6,0.2,1.2,0.4,1.8,0.6L29.1,76.7z M31.4,77.2C31.4,77.3,31.4,77.3,31.4,77.2
	c0.1,0.1,0.2,0.1,0.2,0.1C31.5,77.3,31.4,77.3,31.4,77.2z M22.5,74c3.3,4.3,4.7,5.5,9.5,4.4c-2.5-0.3-5.2-0.7-7.5-2.3
	c-0.8-0.7-1.4-1.6-2.2-2.3C22.4,73.9,22.5,74,22.5,74z M21.1,71.2c0.7,1.4,1.8,2.2,2.7,3.3c1.6,2,3.9,2.6,6,3
	c-1.6-0.6-3.2-0.9-4.6-2.1c-2.3-2.2-4.4-5.2-5.3-8.7c-0.7-3.2-0.8-6.6-0.9-9.9c0-2.4,0.5-4.6,0.6-7c0.1-1.4,0.2-2.8,0.2-4.2
	c0.1-1.7,0.4-3.2,0.6-4.9c0.2-0.7,0.4-1.4,0.5-2.2l0,0l0.1-0.4c-0.2,1-0.7,1.9-0.9,2.9c-0.5,2.8-0.8,5.5-1.1,8.4
	c-0.6,5.1-1.1,10.3,0.1,15.4l0,0c0,0,0,0,0,0c0,0,0,0,0,0l0,0C19.5,67,19.9,69.4,21.1,71.2z M17.4,53c-0.3,3.8-0.3,7.6,0.6,11.3
	c0.6,2.3,1.2,5.2,2.6,7.1c-1.1-1.6-1.5-3.5-1.9-5.6l0,0c0,0,0,0,0,0v0l0,0c0,0,0,0,0,0c0,0,0,0,0,0c0,0,0,0,0,0c0-0.1,0-0.2-0.1-0.3
	c0,0,0,0,0,0c0,0,0,0,0,0c0,0,0,0,0,0c0,0,0,0,0,0c0,0,0,0,0,0l0,0c-0.9-3.7-1.1-7.4-0.8-11.3c0.3-2.3,0.5-4.7,0.8-7
	c0.3-2.1,0.5-4.3,0.9-6.4c0.4-1.5,0.9-3,1.4-4.5c-0.6,1.7-1.3,3.4-1.9,5.1C18,44.9,17.6,49.2,17.4,53z"/>
</svg>
