<?xml version="1.0" encoding="utf-8"?>
<!-- Generator: Adobe Illustrator 16.0.0, SVG Export Plug-In . SVG Version: 6.00 Build 0)  -->
<!DOCTYPE svg PUBLIC "-//W3C//DTD SVG 1.1//EN" "http://www.w3.org/Graphics/SVG/1.1/DTD/svg11.dtd">
<svg version="1.1" id="Capa_1" xmlns="http://www.w3.org/2000/svg" xmlns:xlink="http://www.w3.org/1999/xlink" x="0px" y="0px"
	 width="500px" height="500px" viewBox="0 0 500 500" style="enable-background:new 0 0 500 500;" xml:space="preserve">
<style type="text/css">
<![CDATA[
	.esculpidaFnd{fill-rule:evenodd;clip-rule:evenodd;fill:#000;opacity:0;}

	.esculpidaUniaLine1{fill:none;stroke:#FFF;stroke-width:2;stroke-dashoffset:0;opacity:0;
		animation: esculpidaAniUnia1 1s forwards,
			esculpidaAniUniaL0 0.2s forwards 2s;
		stroke-dasharray:660px;}
	@keyframes esculpidaAniUnia1{0%{stroke-dashoffset:660px;opacity:1;
		}100%{stroke-dashoffset:0px;opacity:1;}}

	.esculpidaUniaLine2{fill:none;stroke:#FFF;stroke-width:2;stroke-dashoffset:0;opacity:0;
		animation: esculpidaAniUnia2 1s forwards 0.5s,
			esculpidaAniUniaL0 0.2s forwards 2s;
		stroke-dasharray:300px;}
	@keyframes esculpidaAniUnia2{0%{stroke-dashoffset:300px;opacity:1;
		}100%{stroke-dashoffset:0px;opacity:1;}}

	.esculpidaUniaLine3{fill:none;stroke:#FFF;stroke-width:2;stroke-dashoffset:0;opacity:0;
		animation: esculpidaAniUnia3 1s forwards,
			esculpidaAniUniaL0 0.2s forwards 2s;
		stroke-dasharray:350px;}
	@keyframes esculpidaAniUnia3{0%{stroke-dashoffset:350px;opacity:1;
		}100%{stroke-dashoffset:0px;opacity:1;}}

	@keyframes esculpidaAniUniaL0{
		0%{opacity:1;		
		}100%{opacity:0;}}

	.esculpidaAd1{fill:none;stroke:#FFF;stroke-width:3;stroke-dashoffset:0;opacity:0;
		animation: esculpidaAniAd1 1s forwards 0.5s;
		stroke-dasharray:625px;}
	@keyframes esculpidaAniAd1{0%{stroke-dashoffset:625px;opacity:1;
		}100%{stroke-dashoffset:0px;opacity:1;}}

	.esculpidaAd2{fill:none;stroke:#FFF;stroke-width:3;stroke-dashoffset:0;opacity:0;
		animation: esculpidaAniAd2 0.3s forwards 1.2s;
		stroke-dasharray:80px;}
	@keyframes esculpidaAniAd2{0%{stroke-dashoffset:80px;opacity:1;
		}100%{stroke-dashoffset:0px;opacity:1;}}


	.esculpidaFlor{fill-rule:evenodd;clip-rule:evenodd;fill:#FFF;opacity:0;
		animation: esculpidaAniFlor 1s forwards linear 3s;
	}
	@keyframes esculpidaAniFlor{
		0%{opacity:0;
		}85%{opacity:0.5;
		}100%{opacity:1;}}

	.esculpidaUniaColor{fill-rule:evenodd;clip-rule:evenodd;fill:#FFF;opacity:0;
		animation: esculpidaAniUniaColor 0.5s forwards linear 2s;
	}
	@keyframes esculpidaAniUniaColor{
		0%{opacity:0;
		}85%{opacity:0.5;
		}100%{opacity:1;}}

	.esculpidaFndTxt{fill-rule:evenodd;clip-rule:evenodd;fill:#FFF;opacity:0;
		transform: translateX(200%);
		animation: esculpidaAniFndTxt 2s forwards 1.5s;
	}
	@keyframes esculpidaAniFndTxt{
		0%{opacity:1;transform: translateX(200%)
		}50%{opacity:1;transform: translateX(-10%)
		}100%{opacity:0.5;transform: translateX(0%)
	}}

	.esculpidaTxt{fill:#000;opacity:0;
		transform: translateX(-200%);
		animation: esculpidaAniTxt 1.5s forwards 1.5s;
	}
	@keyframes esculpidaAniTxt{
		0%{opacity:1;transform: translateX(-200%)
		}75%{opacity:1;transform: translateX(10%)
		}100%{opacity:1;transform: translateX(0%)
	}}
]]>
</style>
<rect x="-0.2" class="esculpidaFnd" width="500.2" height="503.1"/>
<g id="unaLineas">
	<path class="esculpidaUniaLine1" d="M187.7,162.7c0-8.3,4-18.7,10.8-28.1v62.9l0,0.3c4.9,55.7,81.5,55.7,86.5,0l0-0.3v-60.5
		c5.8,8.8,9.2,18.1,9.2,25.8v117.2c-33.5,17.4-72.9,17.4-106.4,0V162.7z"/>
	<path class="esculpidaUniaLine2" d="M210.6,146.8l4.9,4.3v6.2l-4.9,4.3l-4.9-4.3v-6.2L210.6,146.8z M216,165.6l6.9,6v9.6l-6.9,6l-6.9-6v-9.6
		L216,165.6z M214.7,190.5l6.4,5.5v8.6l-6.4,5.5l-6.4-5.5V196L214.7,190.5z M231.5,187.4l6.4,5.5v8.6l-6.4,5.5l-6.4-5.5v-8.6
		L231.5,187.4z M226.3,209l6,5.2v8l-6,5.2l-6-5.2v-8L226.3,209z M247,203.1l9,7.2v12.5l-9,7.2l-4.8-3.9l-4.1-3.3v-12.5L247,203.1z
		 M272.7,216.8c-17.6,27.6-64.8,21.1-68.4-19.7v-65.6c1.4-5.6,2.9-10.9,4.3-15.8c0.4,1.8,0.8,3.5,1.2,5.3c0.2,0.5,0.3,1,0.5,1.5
		c0.3,0.8,0.3,1.9,0.5,2.9c3.8,15.6,9.1,31.7,15,43.6c1.8,3.4,3.8,6.6,6,9.8c1.7,2.5,3.4,4.9,5.3,7.3
		C246.9,197.7,260.4,208.6,272.7,216.8z"/>
	<path class="esculpidaUniaLine3" d="M279.1,131.5v65.6c-0.6,6.6-2.3,12.4-4.9,17.2l-1-0.7c-0.1,0-0.2-0.1-0.3-0.2c-8-4.9-15.3-10.5-22-17.1
		c-2.9-2.8-5.6-5.7-8.2-8.8c-3.9-4.3-7.3-8.6-10-13c-1.8-2.8-3.5-6.1-5.2-9.7c-4.1-8-7.3-16.5-9.5-25.3c-2.5-8-4.6-16.3-6.3-24.2
		l-1.3-5C231.6,44.3,259.1,51.3,279.1,131.5z"/>
</g>
<g id="unacolor">
	<path class="esculpidaUniaColor" d="M187.7,162.7c0-8.3,4-18.7,10.8-28.1v62.9l0,0.3c4.9,55.7,81.5,55.7,86.5,0l0-0.3v-60.5
		c5.8,8.8,9.2,18.1,9.2,25.8v117.2c-33.5,17.4-72.9,17.4-106.4,0V162.7z"/>
	<path class="esculpidaUniaColor" d="M210.6,146.8l4.9,4.3v6.2l-4.9,4.3l-4.9-4.3v-6.2L210.6,146.8z M216,165.6l6.9,6v9.6l-6.9,6l-6.9-6v-9.6
		L216,165.6z M214.7,190.5l6.4,5.5v8.6l-6.4,5.5l-6.4-5.5V196L214.7,190.5z M231.5,187.4l6.4,5.5v8.6l-6.4,5.5l-6.4-5.5v-8.6
		L231.5,187.4z M226.3,209l6,5.2v8l-6,5.2l-6-5.2v-8L226.3,209z M247,203.1l9,7.2v12.5l-9,7.2l-4.8-3.9l-4.1-3.3v-12.5L247,203.1z
		 M272.7,216.8c-17.6,27.6-64.8,21.1-68.4-19.7v-65.6c1.4-5.6,2.9-10.9,4.3-15.8c0.4,1.8,0.8,3.5,1.2,5.3c0.2,0.5,0.3,1,0.5,1.5
		c0.3,0.8,0.3,1.9,0.5,2.9c3.8,15.6,9.1,31.7,15,43.6c1.8,3.4,3.8,6.6,6,9.8c1.7,2.5,3.4,4.9,5.3,7.3
		C246.9,197.7,260.4,208.6,272.7,216.8z"/>
	<path class="esculpidaUniaColor" d="M279.1,131.5v65.6c-0.6,6.6-2.3,12.4-4.9,17.2l-1-0.7c-0.1,0-0.2-0.1-0.3-0.2c-8-4.9-15.3-10.5-22-17.1
		c-2.9-2.8-5.6-5.7-8.2-8.8c-3.9-4.3-7.3-8.6-10-13c-1.8-2.8-3.5-6.1-5.2-9.7c-4.1-8-7.3-16.5-9.5-25.3c-2.5-8-4.6-16.3-6.3-24.2
		l-1.3-5C231.6,44.3,259.1,51.3,279.1,131.5z"/>
	<polygon class="esculpidaUniaColor" points="247,206.8 250,209.2 253,211.7 253,216.5 253,221.3 250,223.7 247,226.1 244,223.7 241,221.3 
		241,216.5 241,211.7 244,209.2 	"/>
	<polygon class="esculpidaUniaColor" points="231.5,191.3 233.3,192.8 235,194.3 235,197.2 235,200.2 233.3,201.7 231.5,203.2 229.8,201.7 
		228.1,200.2 228.1,197.2 228.1,194.3 229.8,192.8 	"/>
	<polygon class="esculpidaUniaColor" points="214.7,194.4 216.4,195.8 218.1,197.3 218.1,200.3 218.1,203.2 216.4,204.7 214.7,206.2 213,204.7 
		211.3,203.2 211.3,200.3 211.3,197.3 213,195.8 	"/>
	<polygon class="esculpidaUniaColor" points="216,169.5 218,171.2 220,173 220,176.4 220,179.9 218,181.6 216,183.4 214,181.6 212,179.9 212,176.4 
		212,173 214,171.2 	"/>
	<polygon class="esculpidaUniaColor" points="210.6,150.7 211.6,151.6 212.6,152.4 212.6,154.2 212.6,155.9 211.6,156.8 210.6,157.6 209.6,156.8 
		208.6,155.9 208.6,154.2 208.6,152.4 209.6,151.6 	"/>
	<polygon class="esculpidaUniaColor" points="226.3,212.9 227.9,214.3 229.4,215.6 229.4,218.3 229.4,220.9 227.9,222.3 226.3,223.6 224.8,222.3 
		223.2,220.9 223.2,218.3 223.2,215.6 224.8,214.3 	"/>
</g>
<path id="flor" class="esculpidaFlor" d="M386.9,157.8c-0.7-0.8-2.2-1.1-3.3-0.9c0.1-0.2,0.2-0.4,0.3-0.6c0,0,0,0,0,0c0,0,0,0,0-0.1
	c0,0,0,0,0,0c0.4-0.8,1.2-2.1,0.6-2.9c-1.1-0.3-2.7-0.4-3.7,0.4c0.4-4.6-3.2-4.7-5-0.9c-3.8-3.6-4.1-1.5-3.9,2.6
	c0.3,1.8,2.3,2.7,3.8,3.3c3,0.1-0.9,13.3-1,16.1c-0.5-3.4-1-6.8-2-10c0,0,0,0,0,0c0,0,0,0,0-0.1c0,0,0,0,0,0c0,0,0-0.1,0-0.1
	c0.1-0.2,0.1-0.3,0.2-0.5c0,0,0,0,0,0.1c0,0,0-0.1,0.1-0.1c0,0,0,0,0,0c0.3-0.7,0.1-1.5-0.3-2.1c0,0,0,0,0,0c0-0.1-0.1-0.1-0.1-0.2
	c0,0,0,0,0,0.1c-0.8-1.1-0.9-1.1-1.5,0.1c-0.7,1.2,0.1,2.5,1.3,2.9c4.1,11.3-0.3,22.8-3.9,33.6c0.4-13.2,0.4-26.4-0.8-39.6
	c1.1-3.5,1.8-7.3,3.5-10.5c0,0,0,0,0,0c0.1-0.1,0.2-0.3,0.3-0.4c0,0,0,0,0,0c0,0,0,0,0-0.1c0,0,0,0,0,0c0.1-0.2,0.2-0.3,0.3-0.5
	c0,0,0,0,0,0c0,0,0-0.1,0.1-0.1c0,0,0,0,0,0c1.6-2.1,3-4.5,3.7-7c0.2,0,0.4,0,0.6-0.1c0,0,0,0,0,0c0,0,0,0,0.1,0c0,0,0,0,0,0
	c1.2-0.5,1.1-2.2,0.3-3c0,0,0,0,0,0c0,0,0,0,0-0.1c0,0,0,0,0,0c0,0-0.1-0.1-0.1-0.1c0,0,0,0,0,0c0,0,0,0,0,0h0
	c-0.6-0.4-1,0.7-1.2,1.1c0,0,0,0,0-0.1c-0.2,0.4-0.2,0.9-0.1,1.3c0,0,0,0,0,0c0,0,0,0.1,0,0.1c0,0,0,0,0,0c0,0.1,0,0.2,0.1,0.3
	c-0.4,1.9-1.4,3.7-2.5,5.3c0,0,0,0,0-0.1c-0.2,0.2-0.3,0.5-0.5,0.7c0,0,0,0,0-0.1c-0.3,0.5-0.7,0.9-1,1.3c0,0,0,0,0,0c0,0,0,0,0,0.1
	c0,0,0,0,0,0c-0.1,0.2-0.2,0.3-0.4,0.5c0,0,0,0,0,0c0,0,0,0,0,0c0.3-1.2,0.6-2.4,0.9-3.7c0,0,0,0,0,0c0.1-0.3,0.1-0.6,0.2-1
	c0,0,0,0,0,0c0,0,0,0,0-0.1c0,0,0,0,0,0.1c0,0,0-0.1,0-0.1v0c1-4.8,1.7-9.6,1.7-14.5c0-0.1,0-0.1,0-0.1v0c1-1.4,2.2-2.8,1.3-4.7
	c0,0,0,0,0,0c-0.2-0.4-0.8-0.1-1.1,0c-1.3,0.4-2.1,1.8-1.5,3.1c0,0,0,0,0,0c0.1,0.4,0.3,0.8,0.5,1.1c0,0,0,0,0,0c0,0,0,0.1,0.1,0.1
	c0,0,0,0,0,0c0.1,0.1,0.2,0.3,0.3,0.4c0.1,3-0.4,6.1-0.8,9.1c0,0,0,0,0-0.1c-0.2,0.8-0.4,1.6-0.5,2.4c-0.2-0.6-0.2-1.3-0.4-1.9
	c0,0,0,0,0,0c-0.3-2.1-0.1-4.3-0.7-6.3c0.5-0.6,0.5-4.1-0.7-3.1c-0.1-0.3-0.8-0.9-0.9-0.3c0,0,0,0,0,0c-0.6,1.3-0.5,3.2,1.2,3.4
	c0.5,2.1,0.4,4.4,0.7,6.5c0,0,0,0,0,0c0.2,0.6,0.2,1.2,0.4,1.7c0,0,0,0,0,0c0,0,0,0,0,0.1c0,0,0,0,0,0c0,0,0,0,0,0c0,0,0,0,0,0
	c0.1,0.4,0.2,0.9,0.2,1.3c0,0,0,0,0,0c0,0,0,0,0,0c0,0.4-0.1,0.8-0.2,1.2c0,0,0,0,0,0c0,0,0,0.1,0,0.1c0,0,0,0,0,0
	c-1,4.8-2.4,9.4-4,14c0.3-5.7-2.4-13.1,0.2-18.1c0,0,0,0,0,0c0.5-0.6,1-1.2,1-2c0,0,0,0,0,0.1c0.2-1.1-0.2-2.2-0.6-3.2c0,0,0,0,0,0
	c0,0,0,0,0-0.1c0,0,0,0,0,0c-0.1-0.4-0.3-1.3-0.8-0.9c0,0,0,0,0,0c-0.1,0-0.1,0.1-0.2,0.2c0,0,0,0,0,0c-0.3,0.4-0.5,0.8-0.7,1.3
	c-0.3-0.5-1-2.3-1.6-1.4c-1.3,1.4-2.5,3.3-1.4,5.1c0,0,0,0,0-0.1c0.4,1.2,1.4,1.8,2.2,2.7c0,0,0,0,0,0c0.1,0.1,0.2,0.2,0.2,0.4
	c0,0,0,0,0,0c0,0.1,0,0.1,0.1,0.2c0,0.1,0,0.1,0,0.2c0,0,0,0,0,0c0,0,0,0,0,0.1c0,0,0,0,0,0c0.1,3.9,0.1,7.8,0.5,11.6
	c-0.1-0.2-0.2-0.3-0.2-0.5c0,0,0,0,0,0.1c-0.3-0.9-0.7-1.8-1-2.7c0,0,0,0,0,0c0-0.2-0.1-0.3-0.1-0.5c0,0,0,0,0,0.1
	c-0.1-0.2-0.2-0.4-0.2-0.6c0,0,0,0,0,0.1c-0.1-0.3-0.2-0.6-0.3-0.9c0,0,0,0,0,0.1c-0.2-0.8-0.9-1.6-0.7-2.4c0,0,0,0,0,0
	c0.3-0.9,0-1.9-0.7-2.5c0,0,0,0,0,0c-1-1.3-2.5,3.5,0.3,3.1c0.3,0.9,0.7,1.7,1,2.5c0,0,0,0,0-0.1c0.1,0.3,0.2,0.6,0.3,0.9
	c0,0,0,0,0-0.1c0,0.1,0,0.1,0.1,0.2c0,0,0,0,0-0.1c0.3,0.9,0.7,1.9,1.1,2.8c0,0,0,0,0-0.1c0.2,0.6,0.5,1.1,0.7,1.7c0,0,0,0,0,0
	c0.4,6.3,0.8,12.8,0.9,19.1c-0.2-0.6-0.5-1.2-0.7-1.8c0,0,0,0,0,0c0,0,0-0.1,0-0.1c0,0,0,0,0,0c-0.1-0.2-0.1-0.3-0.2-0.5
	c0,0,0,0,0,0.1c-0.5-1.8-1.2-3.4-1.7-5.2c0,0,0,0.1,0,0.1c-0.5-1.5-0.9-3.1-1.6-4.5c0.1-0.1,0.1-0.3,0.1-0.4c0,0,0,0,0,0
	c0.9-2.1-1-4-2.9-4.4c-0.4-0.3-0.7-0.1-0.6,0.4c0,0,0,0,0,0c0,0.1,0,0.3,0,0.4c0,0,0,0,0,0c0,0,0,0,0,0.1c0,0,0,0,0,0
	c-0.1,0.5-0.2,1.1-0.1,1.6c0,0,0,0,0,0c-0.1,1.7,1.5,2.4,2.9,2.4c0.3,0.5,0.4,1,0.6,1.5c0,0,0-0.1,0-0.1c0.1,0.3,0.2,0.6,0.3,0.9
	c0,0,0,0,0,0c0,0,0,0,0,0c0,0,0,0,0,0c0,0,0,0,0,0c0,0,0,0,0,0c0,0.1,0.1,0.2,0.1,0.3c0,0,0,0,0,0c0,0,0,0.1,0,0.1c0,0,0,0,0,0
	c0,0,0,0.1,0,0.1c0,0,0,0,0-0.1c0.3,1.3,0.7,2.7,1.1,4c0,0,0,0,0,0c0.6,2,1.1,4,1.8,5.9c0,0,0-0.1,0-0.1c0.2,0.6,0.4,1.1,0.5,1.7
	c0,0,0-0.1,0-0.1c0.2,0.5,0.2,1.1,0.5,1.5c-0.4,9.2,0.1,18.4-0.7,27.5c-3.9,10-8.5,19.8-13.7,29.3c-3.8,6-8,11.7-11,18.1
	c3.3-13.2,5-26.9,7.4-40.1c3.4-6.8,6.9-13.5,9.3-20.7c0,0,0,0,0,0c0-0.4,0.5-0.3,0.7-0.5c0.5-0.2,0.8-0.7,1-1.2c0,0,0,0,0,0
	c0.2-0.7,0.5-2.9-0.8-2.4c0,0,0,0,0.1,0c-1.8,0.3-2.2,1.6-1.5,3.2c0,0,0,0,0,0c0,0,0,0,0,0c0,0,0,0,0,0c0,0.2,0.1,0.4,0.1,0.7
	c0,0,0,0,0-0.1c-2.2,6.9-6.1,13.5-9.2,20.1c2-16.5,3.6-33.1,3-49.8c-2.1-12.5,2.9-16.9,5-28.2c0.6-0.7,1.1-1.5,1-2.4c0,0,0,0,0,0
	c-0.3-4.4-4.4,0.4-1.8,2.1c0,0,0,0,0,0c0.1,0.1,0.3,0.2,0.4,0.3c-1,5-2.9,9.9-5,14.6c0.2-7.2,0.2-14.5-0.7-21.7
	c1.5-3,1.9-6.5,3.1-9.6c0,0,0,0,0,0c0,0,0,0,0-0.1c0,0,0,0,0,0c1.1-1.4,1.8-3.1,2.6-4.7c0,0,0,0,0,0c0,0,0,0,0-0.1c0,0,0,0,0,0
	c0-0.1,0-0.1,0.1-0.2v0c0.1-0.1,0.1-0.3,0.2-0.4c0,0,0,0,0,0.1c0.6-1.3,1.3-2.6,1.8-3.9c0,0,0,0,0,0c0,0,0-0.1,0.1-0.1c0,0,0,0,0,0
	c0,0,0-0.1,0-0.1c0,0,0,0,0,0c0.1-0.2,0.2-0.4,0.2-0.5c0,0,0,0,0,0c0,0,0,0,0-0.1c0,0,0,0,0,0c0.4-0.8,0.7-1.6,1.1-2.4c0,0,0,0,0,0
	c0.8-1.9,1.9-3.7,2.4-5.7c0,0,0.1,0,0.1-0.1c0,0,0,0,0,0c0.2-0.2,0.4-0.5,0.6-0.7c0,0,0,0,0,0c0.9-0.5,1-4.2-0.5-3c0,0,0,0,0,0
	c-0.1,0-0.1,0.1-0.2,0.1c0,0,0,0,0,0c0,0,0,0-0.1,0l0,0c-0.9,0.5-1.6,1.7-1.1,2.7c0,0,0,0,0,0c0.1,0.3,0.2,0.5,0.4,0.7c0,0,0,0,0,0
	c0,0,0,0,0,0.1c0,0,0,0,0,0c0.1,0.1,0.1,0.3,0.2,0.3c-0.8,2.6-2.2,4.9-3.3,7.3c0,0,0,0,0-0.1c-0.2,0.4-0.4,0.8-0.5,1.1c0,0,0,0,0,0
	c0,0,0,0.1,0,0.1c0,0,0,0,0,0c0,0,0,0.1-0.1,0.1c0,0,0-0.1,0-0.1c-0.3,0.6-0.5,1.2-0.8,1.8c0,0,0,0,0,0c-0.4,0.8-0.9,1.7-1.2,2.6
	c0,0,0,0,0,0c-0.1,0.3-0.2,0.5-0.3,0.8c0,0,0,0,0,0c0,0,0,0,0,0.1c0,0,0,0,0,0c-0.6,1.2-1.1,2.3-1.8,3.4c0.3-1.1,0.4-2.2,0.6-3.3
	c0,0,0,0,0,0c0.1-0.5,0.2-1,0.2-1.5c0,0.1,0,0.1,0,0.2c0.5-2.4,0.9-4.7,1.2-7.1c0,0,0,0,0,0c0-0.1,0-0.1,0-0.2c0,0,0,0,0,0
	c1.8-7.9,7.2-14.7,9.5-22.5c0.7-0.8,1.6-1.7,1.3-2.9c0,0,0,0,0,0c0-0.2-0.1-0.5-0.1-0.7c0,0,0,0,0,0.1c-0.1-0.3-0.2-0.7-0.5-0.6l0,0
	c-1.2,0.3-2.5,1.5-1.9,2.9c0,0,0,0,0-0.1c0,0.1,0.1,0.2,0.1,0.4c0,0,0,0,0,0c0,0.1,0.1,0.1,0.1,0.2c0,0,0,0,0-0.1
	c0.1,0.3,0.3,0.5,0.5,0.7c0,0,0,0,0,0c0.1,0.1,0.2,0.2,0.2,0.3c-2.1,6.3-6,11.9-8.4,18.1c2.1-8.4,2.4-17.1,3.3-25.7
	c2-1.7,4,0.6,6.6-3.2c0,0,0,0,0,0c0,0,0.1-0.1,0.1-0.1c0,0,0,0,0,0c0,0,0-0.1,0.1-0.1c0,0,0,0,0,0c0,0,0,0,0.1-0.1c0,0,0,0,0,0
	c0.8-0.7-0.8-0.8-1.2-0.7c0,0,0,0,0.1,0c-0.4,0-0.7,0-1,0c0,0,0,0,0.1,0c-0.1,0-0.1,0-0.2,0c0-0.1,0.1-0.2,0.1-0.3c0,0,0,0,0,0
	c0,0,0-0.1,0-0.1c0,0,0,0,0,0.1c-0.1-1,0.4-2.1,0.1-3.1c-1.2-0.5-2.1,0.6-2.6,1.5c-0.2-1.1-0.6-2.2-1.1-3.2c0,0,0,0,0,0.1
	c-0.1-0.8-1-0.9-1.4-0.2c0,0,0,0,0,0c-0.7,0.9-1.2,2.1-1.6,3.1c-0.2-0.4-0.4-0.9-0.7-1.2c0,0,0,0,0,0c-0.3-0.4-0.7-0.7-1-1.1
	c0,0,0,0,0,0.1c-0.9-1.4-1.5,2.2-1.2,2.7c0,0,0,0,0,0c0,0,0,0,0,0.1c0,0,0,0,0,0c-0.1,1.3,0.7,2.2,1.7,2.8c0,0,0,0,0,0
	c0.4,0.4,0.9,0.5,1.4,0.9c0,0,0,0,0,0c0.4,0.4,1,0.6,1.2,1.1c0,0,0,0,0,0c0,0.1,0.1,0.2,0.1,0.2c-0.3,3.8-1,7.6-1.4,11.4
	c-0.1-0.4-0.2-0.7-0.4-1.1c0,0,0,0,0,0.1c-0.3-0.7-0.5-1.3-0.7-2c0,0,0,0,0,0c0,0,0-0.1,0-0.1c0,0,0,0,0,0c-0.5-1.2-0.8-2.5-1.2-3.8
	c0.1-0.2,0.1-0.3,0.2-0.5c0,0,0,0,0,0c0,0,0,0,0-0.1c0,0,0,0,0,0c0.5-0.7,0.1-1.6-0.4-2.2c0,0,0,0,0,0c0,0,0,0,0,0c0,0,0,0,0,0
	c0,0,0,0-0.1-0.1c0,0,0,0,0,0c0,0,0,0,0,0c0,0,0,0,0,0c0,0-0.1-0.1-0.1-0.1c0,0,0,0,0,0c0,0,0,0,0,0c0,0,0,0,0,0
	c-0.7-1.2-1.2,0.7-1,1.4c0,0,0,0,0,0c0,0,0,0,0,0c0,0.8,0.6,1.3,1,1.8c0.5,1.2,0.7,2.6,1.2,3.8c0,0,0,0,0,0c0,0,0,0,0,0.1
	c0,0,0,0,0,0c0.2,0.5,0.3,1.1,0.5,1.6c0,0,0,0,0,0c0,0,0,0.1,0,0.1c0,0,0,0,0,0c0,0.1,0.1,0.1,0.1,0.2c0,0,0,0,0-0.1
	c0.1,0.2,0.1,0.4,0.2,0.6c0,0,0,0,0,0c0,0,0,0,0,0.1c0,0,0,0,0,0c1.5,5.7-1.4,11.6-2.2,17.3c0,0,0,0,0,0c0,0.1,0,0.1,0,0.2
	c0,0,0,0,0,0c0,0.2-0.1,0.4-0.1,0.6c0,0,0,0,0,0c-0.1,0.3-0.1,0.6-0.2,0.9c0-0.1,0-0.1,0-0.2c0,0.2-0.1,0.4-0.1,0.6
	c0-0.1,0-0.1,0-0.2c-0.2,1-0.3,2-0.5,3c-0.4-5.2-0.6-10.4-1.3-15.6c0,0,0,0,0,0.1c0-0.2,0-0.4,0-0.6c0.1-0.1,0.1-0.2,0.2-0.3
	c0,0,0,0,0,0c0.2-0.4,0.5-0.7,0.7-1.2c0,0,0,0,0,0c0,0,0-0.1,0-0.1c0,0,0,0,0,0c0,0,0-0.1,0-0.1c0,0,0,0,0,0c0.2-0.6,0.3-1.2,0-1.7
	c0,0,0,0,0,0c0-0.9-0.7-1.2-1.1-0.3c0-0.1-0.1-0.1-0.1-0.2c0,0,0,0,0,0c-0.9-1.6-2,3-0.3,3.7c0,0,0,0,0,0c0.1,0,0.1,0.1,0.2,0.1
	c0.1,7,1.6,14.2,0.9,21.1c0,0,0,0,0,0c0,0.1,0,0.1,0,0.2c0,0,0,0,0,0c0,0.2-0.1,0.4-0.1,0.7c0-0.1,0-0.1,0-0.2
	c-0.1,0.8-0.3,1.6-0.4,2.5c0,0,0,0,0,0c-0.7,3.3-1.2,6.6-2.4,9.8c-0.7-17.7-8.1-34.9-6.9-52.5c0,0,0,0,0,0.1c0,0,0,0,0,0l0,0
	c0,0,0,0,0-0.1c0,0,0,0,0,0c0-0.1,0-0.1,0.1-0.2c0,0,0,0,0,0.1c0-0.1,0.1-0.3,0.2-0.4c0,0,0,0,0,0c0.1-0.2,0.2-0.4,0.3-0.6
	c0,0,0,0,0,0.1c1-2.1,1.8-4.3,2.5-6.5c1.2-0.7,1.1-2.4,0.7-3.5c0.1-0.2-0.2-0.4-0.4-0.2c0,0,0,0,0,0c-1.1,0.8-2.3,2.8-0.8,3.7
	c-0.6,2.2-1.7,4.2-2.6,6.3c-0.1-3.7,0-7.4-0.1-11.1c1-0.5,1-3.6,0.1-3.8c-2.4,0-2.4,3.1-0.5,4.1c0,5.8,0.1,11.7-0.5,17.5
	c-1.1-4-2.7-7.9-3.5-11.9c-0.4,0.1-0.6-0.5-0.1-0.4c-0.2-3.6,0.6-7.3,0.9-10.9c0.2-0.3,0.2-0.8,0.3-1.1c0,0,0,0.1,0,0.1
	c1.1-3.4,3.5-6.3,4.2-9.9c0.1,0,0.3,0,0.4-0.1c0,0,0,0-0.1,0c0,0,0.1,0,0.1,0c0,0,0,0-0.1,0c1.7-0.2,2.2-2.2,1.6-3.6c0,0,0,0,0,0
	c0,0,0,0,0,0c-0.3-0.4-0.3-1.5-0.8-1.4c-1.6,0.7-3.1,2.8-1.8,4.4c0,0,0,0,0-0.1c0,0.1,0.1,0.1,0.1,0.2c0,0,0,0,0,0
	c0,0.1,0.1,0.2,0.2,0.2c-0.1,0.8-0.5,1.6-0.8,2.4c0,0,0,0,0,0c-0.8,1.9-1.9,3.8-2.7,5.7c0.7-5,1.6-10.1,0.8-15.2
	c0,0,0.1-0.1,0.1-0.1c0,0,0,0,0,0c2.3-1.6,0.4-4.1-1.3-5.2c0,0,0,0,0,0c0,0,0,0,0,0c0,0,0,0,0,0c-1.1-1.6-1.4,1.2-1.3,2.1
	c0,0,0,0,0,0.1c0,0,0,0,0,0c-0.1,1.3,0.8,2.4,1.9,2.9c1.2,8.7-2.2,17.5-2.3,26.2c-1.1-3.3-2-6.7-3.4-9.9c5-1.3,4.4-6.2,4.3-10.4
	c0,0,0,0.1,0,0.1c0-0.4,0-0.7,0-1.1c0,0,0,0,0,0c0-0.9-0.9-0.3-1.4-0.2c-1.2,0.2-2,1.3-2.4,2.4c0,0,0-0.1,0-0.1
	c0,0.2-0.1,0.4-0.2,0.6c-0.2-0.4-0.6-0.6-0.9-1c0,0,0,0,0,0c0,0,0,0,0,0c0,0,0,0,0,0c0,0,0,0,0,0c0,0,0,0,0,0c0-0.2,0-0.3-0.1-0.5
	l0,0c0,0,0,0,0,0c0,0,0,0,0,0c-0.1-0.5-0.1-1-0.2-1.4c0,0,0,0,0,0c0-0.2-0.1-0.4-0.1-0.6c0,0,0,0,0,0.1c0-0.1,0-0.2,0-0.3
	c0,0,0,0,0,0c0,0,0,0,0,0c0,0,0,0,0,0c0,0,0,0,0-0.1c0,0,0,0,0,0.1c0-0.1,0-0.3-0.1-0.4c0,0,0,0,0,0.1c-0.2-2.1-0.6-4.2-1.2-6.3
	c0,0,0,0,0,0.1c0-0.1,0-0.2-0.1-0.2c0,0,0,0,0,0.1c-0.4-1.6-0.9-3.1-1.6-4.6c0,0,0-0.1,0-0.1c0.2-0.5,0.7-0.9,0.8-1.4c0,0,0,0,0,0
	c0,0,0,0,0,0l0,0c0,0,0,0,0,0c0,0,0,0,0,0c0,0,0,0,0,0c0,0,0,0,0,0c0.5-1.5-0.9-2.5-1.8-3.4c-0.6-0.3-0.9,1.4-1.1,1.9c0,0,0,0,0-0.1
	c-0.3,0.9,0,1.9,0.7,2.4c0,0,0,0,0,0c0.2,0.2,0.4,0.4,0.6,0.6c0,0,0,0,0,0c0.1,0.1,0.1,0.1,0.2,0.2c0.6,1.1,1,2.3,1.3,3.5v0
	c0,0,0,0,0,0c0,0,0,0,0,0l0,0c0,0,0,0,0,0.1c0,0,0,0,0,0c0.6,2.7,1.1,5.3,1.5,8c0,0,0,0,0-0.1c0,0,0,0.1,0,0.1c0,0,0,0,0-0.1
	c0,0.2,0,0.3,0.1,0.5c0,0,0,0,0-0.1c0,0.1,0,0.1,0,0.2c0,0,0,0,0,0c0,0,0,0,0,0.1c0,0,0,0,0,0c0,0,0,0,0,0c0,0,0,0,0,0c0,0,0,0,0,0
	c0,0,0,0,0,0c0.1,0.4,0.1,0.8,0.2,1.1c-0.6-0.8-1.6-1.2-2.3-1.9c0,0,0,0,0.1,0.1c-2-2.1-2.8,3.2-2.8,4.5c0,0.1,0,0.2,0,0.2
	c0,0,0,0,0,0c0,0,0,0.1,0,0.1c0,0,0,0,0,0c0,0,0,0.1,0,0.1c-0.3-0.2-0.7-0.4-1.2-0.4c-0.2-0.5-0.4-1.1-0.7-1.6c0,0,0,0,0.1,0
	c-0.5-1.3-1.1-2.6-1.1-4c0.4-1.2,0.8-2.6-0.5-3.5c0,0,0,0,0,0c-0.2-0.2-0.5-0.4-0.8-0.6c0,0,0,0,0,0c0,0,0,0-0.1-0.1c0,0,0,0,0,0
	c-0.5-0.8-1.4-0.2-1.5,0.5c-0.5,1.4,0.3,3,1.7,3.6c0,0,0,0,0,0c0.6,0.8,0.8,1.9,1.1,2.8c0,0,0,0,0-0.1c0,0.1,0,0.1,0,0.2
	c0,0,0,0,0-0.1c0,0.1,0,0.1,0,0.2c0,0,0,0,0,0c0,0,0,0,0,0c0,0,0,0,0,0.1c0,0,0,0,0,0c0.2,0.9,0.6,1.7,1,2.6c-4.7-0.1-2.2,1.7-1,4.3
	c-0.6-0.1-1.2-0.2-1.8,0c0,0,0,0,0.1,0c-0.7,0-1.3,0.4-1.9,0.6c-0.7,0-0.6,0.4-0.1,0.8c0,0,0,0,0,0c2,2.6,5.3,4,8.5,3.6
	c3.3,6.2,7.7,11.5,8.7,18.6c-1.7-2-3.3-4.2-4.7-6.5c0,0,0,0,0,0.1c-0.3-0.6-0.6-1.1-1-1.7c0,0,0,0,0,0.1c-1.2-2.4-2.8-4.4-4.1-6.7
	c0.4-1-0.1-2.1-0.8-2.8l0,0c-0.2-0.3-1.1-1.3-1.2-0.6v0c0,0,0,0.1,0,0.1c-0.9-0.5-0.8,0.4-0.8,1.1c0,0,0,0,0-0.1
	c-0.3,1.5,1,3.2,2.6,2.6c0.8,1.3,1.7,2.6,2.5,4c0,0,0,0,0,0c0,0,0,0,0,0.1c0,0,0,0,0,0c2,4.7,5.3,8.6,8.2,12.6c2.9,8,3,16.7,5,24.9
	c-1.4-2.3-3.2-4.4-4.7-6.7c0,0,0,0,0,0c0,0,0-0.1-0.1-0.1l0,0c-0.5-0.8-1.1-1.5-1.6-2.3c0,0,0,0,0,0c-0.2-0.6-0.4-1.2-0.6-1.8
	c0,0,0,0,0,0.1c-0.2-0.6-0.4-1.3-0.6-1.9c0,0,0,0,0,0c-0.3-1-0.7-2.1-0.7-3.2c0,0,0,0,0,0.1c-0.1-1.3-0.6-2.5-0.8-3.8
	c0.5-0.6,1.1-1.1,1.1-1.9c0.2-1.2-1.1-4.5-2.2-2.2c0,0,0,0,0,0c0,0,0,0,0,0c-0.1-0.1-0.1-0.1-0.2-0.2c0,0,0,0,0,0c0,0,0,0,0,0
	c0,0,0,0,0,0c-1.2-1.1-1.3,1.4-1.3,2.1c0.1,0.8,0.8,1.3,1.3,1.7c0,0,0,0,0,0c0.1,0.1,0.2,0.2,0.3,0.2c0,0,0,0,0,0
	c0,0,0.1,0.1,0.1,0.1c0,0,0,0,0,0c0,0,0,0,0,0c0,0,0,0,0,0c0,0,0.1,0.1,0.1,0.1c0,0,0,0,0,0c0.1,0.1,0.1,0.1,0.2,0.2c0,0,0,0,0,0
	c0,0,0.1,0,0.1,0.1c0.2,1.2,0.6,2.3,0.7,3.5c0,0,0,0,0,0c0.2,1.9,0.7,3.8,1.3,5.7c-0.7-0.7-1.3-1.4-1.8-2.3c0,0,0,0.1,0.1,0.1
	c-1.3-2-2.7-3.8-4-5.7c0,0,0,0.1,0.1,0.1c-0.6-0.9-1.2-1.9-1.9-2.8c0.2-0.8,0.5-1.6,0.6-2.5c0,0,0,0,0,0c0,0,0,0,0-0.1c0,0,0,0,0,0
	c0.4-1.2,0-2.5-0.8-3.4c0,0,0,0,0,0c0,0,0,0,0,0c0,0,0,0,0,0c-0.2-0.3-0.5-0.5-0.8-0.6l0,0c0,0,0,0,0,0c0,0,0,0,0,0
	c-0.7-0.5-2.5-2-2.2-0.1c0,0,0,0,0,0c0,0,0,0,0,0.1c0,0,0,0,0,0c0,0.1,0,0.3,0,0.4c-0.1,0-0.2-0.1-0.4-0.1c0,0,0,0,0.1,0
	c-0.1,0-0.1,0-0.2-0.1c-0.4,0-1.5-0.8-1.4,0c0,0,0,0,0,0c0,0,0,0,0,0c0,0,0,0,0,0c0,0,0,0.1,0,0.1c0,0,0,0,0-0.1
	c-0.1,2.7,1,5.8,3.9,6.5c0,0,0,0,0,0c0.1,0,0.2,0.1,0.2,0.1c0,0,0,0,0,0c0.2,0.1,0.4,0.3,0.5,0.4c0,0,0,0,0,0
	c0.1,0.1,0.2,0.2,0.3,0.2c0.3,0.4,0.5,0.8,0.8,1.2v0c0.4,0.7,0.8,1.4,1.3,2.1c0,0,0-0.1-0.1-0.1c0.8,1.3,1.7,2.5,2.6,3.8
	c-0.5-0.3-0.9-0.7-1.4-0.9c0,0,0,0,0,0c0,0-0.1,0-0.1-0.1c0,0,0,0,0,0c-0.3-0.2-0.5-0.3-0.8-0.5c0,0,0,0,0,0
	c-0.3-0.2-0.6-0.3-0.9-0.5c0,0,0,0,0,0c-0.9-0.8-2-1.5-2.8-2.4c0,0,0,0,0,0c-0.3-0.8-0.5-1.8-1.4-2.2c0,0,0,0,0,0
	c-0.2-0.1-0.4-0.2-0.6-0.3c0,0,0,0,0,0c-0.3-0.1-0.7-0.2-1-0.1c0,0,0,0,0,0c0,0,0,0,0,0c0,0,0,0,0,0c-1.6-0.3-0.6,1.7,0.2,2.1
	c0,0,0,0,0,0c0.4,0.3,0.9,0.4,1.4,0.5c0,0,0,0-0.1,0c0.1,0,0.1,0,0.2,0c0,0,0,0,0,0c0.4,0.1,0.7,0.2,1.1,0.3
	c1.9,1.6,3.9,3.2,6.1,4.5c0,0,0,0-0.1,0c2.5,2,4.3,4.8,6.1,7.4c-1.1-0.8-2.3-1.3-3.5-2c0,0,0,0,0.1,0c-0.5-0.3-1-0.6-1.5-0.9
	c0,0,0,0,0.1,0c-0.9-0.5-1.8-1-2.8-1.4c-0.4-0.6-0.3-1.5-1-1.9c0,0,0,0,0,0c0,0,0,0,0,0c0,0,0,0,0,0c-0.5-0.5-1.8-0.9-2.2-0.2
	c0.1,0.8,0.4,1.8,1.2,2c0,0,0,0-0.1,0c0,0,0.1,0,0.1,0c0,0,0,0-0.1,0c0.5,0.2,1,0.2,1.5,0.3c0.4,0.3,0.9,0.3,1.3,0.6c0,0,0,0-0.1,0
	c0.3,0.2,0.5,0.3,0.8,0.4c0,0,0,0,0,0c5.1,2.9,8.1,4.8,11.1,10.1c0,0,0,0,0,0c2.4,8.6,2.6,17.7,3.9,26.5c-2.6-6-5.7-11.8-8.8-17.5
	c0,0,0-0.1,0-0.1c0,0,0,0,0,0c0-0.1,0.1-0.2,0.1-0.3c0,0,0,0,0,0c0.5-1.2-0.7-3-2-3.1c-1,0.4-1,3.5,0.6,3.6c0,0,0,0,0,0
	c0.3,0.1,0.6,0.1,0.9,0.1c0,0,0,0-0.1,0c0,0,0.1,0,0.1,0c7.7,14.5,11.1,20.6,9.7,37.5c0.2,16.4,1.2,32.8-1,49.1c0-0.1,0-0.2,0-0.3
	c-0.1,0.4-0.1,0.8-0.1,1.2c-0.1-0.3-0.1-0.6-0.2-0.9c0,0,0,0,0,0c-0.3-1.3-0.5-2.6-0.8-3.9c0,0,0,0,0,0c-0.1-0.4-0.2-0.8-0.3-1.2
	c0,0.1,0,0.1,0,0.2c-1.8-8.2-4.3-16.3-6.6-24.3c0,0,0,0,0,0c0-0.1,0-0.1,0-0.2c0,0,0,0,0,0c0.3-5.1-0.3-10.2-0.1-15.3c0,0,0,0,0,0
	c0,0,0-0.1,0-0.1c0,0,0,0,0,0c0-0.1,0-0.1,0-0.2c0,0,0,0.1,0,0.1c0.6-3.5,2.4-6.6,2.9-10.2c0,0,0,0,0,0.1c0-0.1,0-0.2,0.1-0.3
	c1.1-0.6,2.3-3.1,0.7-3.6c-1,0.7-1.4,2.1-1.1,3.2c-0.1,0.3-0.1,0.6-0.2,1c0,0,0,0,0,0c-0.5,2.8-1.8,5.3-2.5,8.1
	c-0.1-2.6-0.6-5.1-0.5-7.7c0,0,0,0.1,0,0.1c0.2-6.5-2.5-13.1-2.3-19.4c0.7-1.3,0.3-4.4-1.5-4.4l0,0c0,0,0,0,0,0c0,0,0,0,0,0
	c0,0,0,0,0,0c0,0,0,0,0,0c-0.2,0.2-0.3,0.4-0.5,0.6c0,0,0,0,0,0c0,0,0,0,0,0c0,0,0,0,0,0c-0.2,0.2-0.4,0.5-0.5,0.7c0,0,0,0,0,0
	c0,0,0,0,0,0c0,0,0,0,0,0c0,0,0,0,0,0c0,0,0,0,0,0c-1,1.5,0.3,3.3,1.8,3.9c1.1,5.3,1.9,10.7,2.3,16.1c-0.4-1-0.9-1.9-1.3-2.9
	c0,0,0,0,0,0.1c-1.1-2.6-2.1-5.2-3.4-7.7c0-0.1,0-0.1,0-0.2c0,0,0,0,0,0c0,0,0-0.1,0-0.1c0,0,0,0,0,0c0,0,0,0,0-0.1c0,0,0,0,0,0
	c0,0,0,0,0-0.1c0,0,0,0,0,0c0,0,0,0,0,0c0,0,0,0,0,0c0.3-1.2,0-2.5-0.9-3.5c-0.2-0.3-0.8-0.9-1-0.3c-1.6-0.7-1.1,3.7,0.2,4
	c0,0,0,0,0,0c0.2,0.2,0.4,0.2,0.6,0.3c0,0,0,0-0.1,0c0.2,0.1,0.5,0.2,0.8,0.2c1,1.9,1.8,4,2.6,6c0,0,0,0,0,0
	c0.1,0.1,0.1,0.3,0.2,0.4c0,0,0,0,0,0c0,0,0,0,0,0.1c0,0,0,0,0,0c0,0,0,0,0,0.1c0,0,0,0,0,0c0.1,0.1,0.1,0.3,0.2,0.4c0,0,0,0,0,0
	c0.4,1.3,1.2,2.5,1.7,3.8c0,0,0,0,0-0.1c0.1,0.3,0.2,0.6,0.4,0.8c0.2,7,0.3,14.1,0.7,21.1c0,0,0,0,0,0c0,0,0,0.1,0,0.1c0,0,0,0,0,0
	c0,1-0.1,1.9-0.1,2.9c-3.5-10.5-7.9-20.4-10.4-31.2c0.1-0.1,0.2-0.3,0.2-0.5c0,0,0,0,0,0c0.9-1.5,0.6-3.2-0.6-4.4c0,0,0,0,0,0
	c0,0,0,0,0,0c0,0,0,0,0,0c-0.3-0.4-0.7-0.8-0.9-1.3c0,0,0,0,0,0c-0.3-0.4-0.7-2-1.2-1c0,0,0,0,0-0.1c-0.1,0.2-0.2,0.5-0.3,0.7
	c0,0,0,0,0,0c0,0,0,0,0-0.1c0,0,0,0,0,0c0,0,0-0.1,0-0.1c0,0,0,0,0,0c-0.1-0.2-0.2-0.4-0.3-0.6c0,0,0,0,0,0.1c0,0,0-0.1-0.1-0.1
	c0,0,0,0,0,0.1c0-0.1-0.1-0.1-0.1-0.2c0,0,0,0,0,0c-0.1-0.2-0.2-0.5-0.3-0.7c0,0,0,0,0,0c-0.1-0.2-0.2-0.4-0.3-0.6c0,0,0,0,0,0
	c-0.1-0.3-0.3-0.6-0.4-0.9c0,0,0-0.1,0-0.1c0,0,0,0,0,0c0,0,0,0,0-0.1c0,0,0,0,0,0c0.3-1.2-0.4-2.9-1.7-2.8
	c-0.5-0.1-0.5,0.6-0.7,0.9c-0.6,1,0.4,2,1.3,2.2c0,0,0,0,0,0c0,0,0,0,0.1,0c0,0,0,0,0,0c0,0,0.1,0,0.1,0c0,0,0,0,0,0c0,0,0,0,0.1,0
	c0,0,0,0,0,0c0.2,0,0.4,0.1,0.6,0.1c0.1,0.1,0.1,0.2,0.1,0.3c0,0,0,0,0,0c0.1,0.1,0.1,0.3,0.2,0.4c0,0,0,0,0-0.1
	c0.1,0.1,0.1,0.3,0.2,0.4c0,0,0,0,0,0c0,0,0,0.1,0.1,0.1c0,0,0,0,0,0c0.1,0.3,0.2,0.6,0.4,0.9c0,0,0,0,0-0.1
	c0.1,0.2,0.2,0.4,0.3,0.6c0,0,0,0,0-0.1c0,0,0,0,0,0.1c0,0,0,0,0,0c0,0,0,0,0,0.1c0,0,0,0,0,0c0,0.1,0.1,0.1,0.1,0.2c0,0,0,0,0,0
	c0,0,0.1,0.1,0.1,0.1c0,0,0,0,0,0c0,0.1,0,0.2,0.1,0.2c0,0,0,0,0,0c0,0,0,0,0,0l0,0c0,0,0,0,0,0v0c0,0.4-0.1,0.8,0,1.3
	c-0.3-0.3-0.6-0.6-1-0.9c0,0,0,0,0,0c0,0,0,0,0,0c0,0,0,0,0,0c0,0-0.1,0-0.1-0.1c0,0,0,0,0,0c-0.7-0.5-1.9-0.9-2.8-0.7
	c-0.5,1.7-0.2,3.7,0.1,5.5c-0.5-0.1-1.1-0.2-1.6-0.2c0,0,0,0,0.1,0c-0.2,0-0.4,0-0.6,0c0,0,0,0,0,0c-0.8,0.2-2.9,0.6-2.9,1.4
	c0.7,0.5,1.5,1,2,1.7c2,2.6,4.1,1.4,6.6,0.8c2,0.7,2.3,4.1,3.5,5.8c2,4.2,4.2,8.4,5.6,12.9c-3.3-3.6-7-6.9-10.2-10.5c0,0,0,0,0,0
	c0,0,0,0,0-0.1c0,0,0,0,0,0c0,0,0,0,0,0c0,0,0,0,0,0c0,0,0,0,0,0c0,0,0,0,0,0c0,0,0-0.1,0-0.1c0,0,0,0,0,0.1c-0.1-0.2,0-0.5-0.1-0.7
	c0,0,0,0,0,0c0,0,0,0,0-0.1c0,0,0,0,0,0c0-0.2-0.1-0.4-0.2-0.6c0,0,0,0,0,0c0-0.8-2.8-3-2.5-1.3c-1.5-0.2-0.9,1.4-0.4,2.2
	c0.6,0.9,1.9,1,2.9,1c3.4,3.6,6.6,7.4,10.1,10.8c0,0,0,0,0,0c0.1,0.1,0.1,0.2,0.2,0.2c0,0,0,0-0.1-0.1c0.1,0.1,0.2,0.2,0.2,0.3
	c0,0,0,0,0-0.1c0.1,0.1,0.2,0.3,0.3,0.4c0,0,0,0,0,0c3.4,8.3,5.8,17,8,25.8c-0.3-0.5-0.7-1-1-1.5c0,0,0,0,0.1,0.1
	c-1.1-2.2-2.8-4-4.1-6.1c0,0,0,0,0,0c-2.4-3.6-4.9-7.1-7.6-10.4c1.4-1.8-1.2-4.5-3-4.4c-0.9-0.1-1,0.4-0.9,1.2
	c0,1.8,1.6,4.3,3.6,3.5c0.9,1.1,1.9,2.2,2.7,3.5c0,0,0,0,0,0c0.2,0.3,0.4,0.6,0.6,1c0,0,0,0,0,0c1.5,2.2,3.1,4.3,4.5,6.6
	c-1-1-2.2-1.8-3.3-2.7c0,0,0,0,0,0c-1.2-1.2-2.9-1.9-4.1-3c0,0,0,0,0,0c-0.1-1.3-1.7-2.7-2.8-1.9c0.1,1.2,1.4,2.3,2.6,2.4
	c1.2,0.8,2.5,1.5,3.6,2.4c0,0,0,0,0,0c0.1,0.1,0.3,0.2,0.4,0.3c0,0,0,0,0,0c0.1,0,0.1,0.1,0.2,0.1c0,0,0,0,0,0
	c0.1,0.1,0.3,0.2,0.4,0.3c0,0,0,0,0,0c0,0,0.1,0.1,0.1,0.1c0,0,0,0,0,0c0.7,0.6,1.4,1.1,2.1,1.7c0,0,0,0,0,0c0,0,0,0,0,0
	c0,0,0,0,0,0c0.6,0.4,1,1,1.5,1.5c0,0,0,0,0,0c0.9,0.7,1.4,1.7,2.1,2.7c0,0,0,0,0,0c2.3,3.2,3.7,6.6,4.3,10.5c0,0.1,0,0.1,0,0.2
	c0-0.1,0-0.1,0-0.2c3.6,11.6,1,23.5-0.6,35.3c-3.2,21.4-9.5,42-17.1,62.2c0.1-1.7,0.1-3.4,0.2-5.1c0,0.1,0,0.2,0,0.2
	c0-0.7,0.1-1.3,0.1-1.9c0,0.1,0,0.2,0,0.2c1.5-12.9,1.6-25.8,1.8-38.7c1-2.9,1.7-6,2.9-8.8c0,0,0,0.1,0,0.1
	c1.3-3.3,1.9-6.9,2.9-10.3c0,0,0,0,0,0.1c0-0.2,0.1-0.3,0.2-0.5c0,0,0,0,0,0.1c0.2-0.6,0.2-1.2,0.5-1.7c0.4-0.5,1-0.8,1.2-1.5
	c0.3-0.8,0.5-3.4-0.9-2.4c0,0,0,0,0,0c0,0,0,0,0,0c-0.1-0.4-0.6-0.3-0.8-0.1c0,0,0,0,0,0c-0.3,0.2-0.5,0.5-0.7,0.7c0,0,0,0,0,0
	c-0.1,0.1-0.1,0.1-0.2,0.2c0,0,0,0,0,0c-1,1.1-0.2,2.4,0.5,3.3c0,0,0,0,0,0c0,0,0,0,0,0c0,0,0,0,0,0c0,0,0,0,0,0c0,0,0,0,0,0
	c-1.2,6.1-3.5,12.1-5.7,17.9c-0.3-5.8-0.8-11.9,0.1-17.6c0,0,0,0,0,0.1c0-0.1,0-0.1,0-0.2c0,0,0,0,0,0c0.1-0.3,0.2-0.6,0.3-0.9
	c0,0,0,0,0,0c0,0,0,0,0-0.1c0,0,0,0,0,0c0.3-1.1,0.7-2.1,1.3-3c0,0,0,0,0,0c1-1.5,2.3-2.7,3.1-4.3c0,0,0,0,0,0
	c0.1-0.1,0.1-0.2,0.2-0.3c0,0,0,0.1,0,0.1c0.2-0.3,0.4-0.6,0.5-0.9c0,0,0,0,0,0c0,0,0,0,0-0.1c0,0,0,0,0,0c0.5-0.8,1-1.7,1.4-2.5
	c0.1,0,0.1-0.1,0.2-0.2c0,0,0,0,0,0c0.9-0.2,1.9-2.3,1-2.9c-1,0.1-2.3,0.9-2.1,2.1c0,0,0,0,0,0c0.1,0.3,0.2,0.7,0.4,1
	c-0.3,0.7-0.8,1.2-1.2,1.9c0,0,0,0,0-0.1c-0.2,0.3-0.3,0.5-0.5,0.8c0,0,0,0,0,0c0,0.1-0.1,0.1-0.1,0.2c0,0,0,0,0-0.1
	c-1,1.9-2.8,3.3-3.7,5.1c1-3.4,1.6-6.9,2.1-10.5c3.6-0.4,4.9-3,4-6.3c0,0,0,0,0,0c0,0,0-0.1,0-0.1c0,0,0,0,0,0.1
	c0-0.2,0-0.3-0.1-0.5c0,0,0,0,0,0c0,0,0,0,0-0.1c0,0,0,0,0,0c0-0.4-0.2-0.8-0.2-1.3c0,0,0,0,0,0c0-0.6-0.4-0.9-0.9-0.5c0,0,0,0,0,0
	c-0.1,0-0.1,0.1-0.2,0.1c0,0,0,0,0,0c-0.5,0.3-1,0.7-1.4,1.1c0.3-1.6,0.4-3.3,0.6-4.9c0.5-0.6,1.2-1.3,1-2.2c0.1-0.7-1-2.8-1.6-1.6
	c0,0,0,0,0-0.1c0,0,0,0.1-0.1,0.1c0,0,0,0,0,0c0,0,0,0,0,0c0,0,0,0,0,0c0,0,0,0,0,0c0,0,0,0,0,0c0,0.1-0.1,0.1-0.1,0.2c0,0,0,0,0,0
	c-0.8,1.1-0.6,2.5,0.3,3.5c-0.2,1.9-0.4,3.7-0.8,5.6c-1.1-3.9-2.5-4.3-4.7-0.8c0,0,0,0,0,0c0,0,0,0,0,0c-0.4-0.7-1-1.3-1.6-1.8
	c0,0,0,0,0,0c0,0-0.1-0.1-0.1-0.1c0,0,0,0,0,0c-0.6-0.5-1.2-1.8-1.9-0.7c0,0,0,0,0,0c-0.2,0.3-0.4,0.5-0.5,0.8c0,0,0,0,0,0
	c-0.3,0.5-0.6,1.1-0.7,1.8c0,0,0,0,0,0c0,0,0,0.1,0,0.1c0,0,0,0,0,0c-0.1,0.5-0.2,1-0.2,1.5c-1-0.8-2.3-1-3.5-1.1
	c-0.6,0.2-0.3,1.1-0.3,1.6c0,0,0,0,0-0.1c0.8,4.9,3.9,5.1,8,6c0,0,0,0,0,0c0.2,0.1,0.4,0.2,0.6,0.4c-0.2,2.1-0.5,4.3-0.6,6.4
	c0,0,0,0,0,0c0,0,0,0,0,0.1c0,0,0,0,0,0c-0.2,3.2-0.1,6.4-0.2,9.6c0-0.1,0-0.1,0-0.2c0,0.2,0,0.4,0,0.6c0-0.1,0-0.1,0-0.2
	c0,0.7-0.1,1.5-0.1,2.2c0-0.1,0-0.1,0-0.2c0,0.4,0,0.7-0.1,1.1c-0.6-1.9-1.2-3.8-1.9-5.6c0,0,0,0.1,0,0.1c-0.3-0.7-0.5-1.5-0.8-2.2
	c0,0,0,0,0,0c-0.8-2.2-1.9-4.4-2.3-6.7c0,0,0,0,0,0c0,0,0-0.1,0-0.2c0,0,0,0.1,0,0.1c0.6-1.4,0-4.1-1.7-4.3
	c-1.6,1.6-1.9,3.9,0.6,4.7c0,0,0,0-0.1,0c0.3,0.1,0.4,0.5,0.7,0.7c0.7,3,1.8,5.8,2.8,8.7c0,0,0,0,0,0c0,0.1,0.1,0.2,0.1,0.3
	c0,0,0-0.1-0.1-0.1c3.6,8.1,2.7,17.2,2.8,25.8c0-0.1,0-0.1,0-0.2c0,0.3,0,0.5,0,0.7c0,0,0,0,0,0c0,0.1,0,0.1,0,0.2c0,0,0,0,0-0.1
	c0,0.7-0.1,1.4-0.1,2.1c-1.1-4.4-2.5-8.7-4.4-12.9c0,0,0,0,0,0c0,0,0-0.1,0-0.1c0,0,0,0,0,0c0-0.1,0-0.1-0.1-0.2c0,0,0,0,0,0
	c0,0,0-0.1,0-0.1c0,0,0,0,0,0c0,0,0,0,0,0c0,0,0,0,0,0c0,0,0-0.1,0-0.1c0,0,0,0,0,0c-0.2-0.6-0.4-1.1-0.7-1.7c0,0,0,0,0,0
	c0,0,0-0.1,0-0.1v0c-0.6-1.4-1.1-2.8-1.6-4.2c0.1,0,0.1-0.1,0.1-0.2c0,0,0,0,0,0c0-0.1,0.1-0.1,0.1-0.2c0,0,0,0.1,0,0.1
	c0.5-1.3,0.7-2.8-0.1-4c-0.3-0.7-1.8-3-2.1-1.3c0,0,0,0,0-0.1c0,0.1,0,0.1,0,0.2c0,0,0,0,0,0c0,0.1,0,0.1,0,0.2
	c-0.4-0.3-0.9-0.4-1.4-0.5c0,0,0,0,0,0c-1-0.4-0.8,0.7-0.9,1.3c-0.8,2.4,1.2,4.3,3.5,4.5c0,0,0,0,0,0c0.1,0,0.1,0,0.2,0
	c0,0,0,0-0.1,0c0.1,0,0.2,0,0.2,0c0.9,2.4,1.6,4.9,2.6,7.3c0,0,0,0,0-0.1c0,0.1,0.1,0.2,0.1,0.2c0,0,0,0,0-0.1
	c6.7,15.7,4.4,27.5,2.9,43.7c0-0.1,0-0.2,0-0.2c0.9,11.7-4.6,21.8-11.1,31.1c-3.2,4.6-6.6,7-4.8,8.3c0.9,0.7,3.9-2.6,5.4-4.8
	c9.2-12.5,13.9-27.7,18.5-42.6c0.5-0.4,0.7-1,1.1-1.6c0,0,0,0,0,0c0-0.1,0.1-0.1,0.1-0.2c0,0,0,0,0,0c0.1-0.1,0.2-0.3,0.2-0.4l0,0
	c0.2-0.3,0.3-0.6,0.5-0.9c0,0-0.1,0.1-0.1,0.1c5.5-7.6,10.8-15.4,16.5-22.9c1.7-0.3,5.9-5.7,2.6-6.1c-1.9,0.7-3.3,2.7-2.9,4.8
	c-5.5,7-10.3,14.5-15.9,21.3c1.2-3,2-6.1,3.2-9.1c0,0,0,0.1,0,0.1c0,0,0-0.1,0-0.1l0,0c0,0,0-0.1,0.1-0.1c0,0,0,0,0,0
	c0.4-0.9,0.7-1.9,1.1-2.8c0,0,0,0.1,0,0.1c0.4-0.9,0.7-1.8,1-2.7c0,0,0,0,0,0c4.7-10.8,12.8-19.6,17.3-30.5
	c4.2-4.1,8.4-8.5,12.1-13.2c0,0,0,0,0,0c0-0.1,0.1-0.1,0.1-0.2c0,0,0,0,0,0c0,0,0.1-0.1,0.1-0.1c0,0,0,0,0,0c0.3-0.3,0.5-0.7,0.8-1
	c0,0,0,0,0,0c0,0,0.1-0.1,0.1-0.1c0,0,0,0,0,0c0.2-0.2,0.3-0.4,0.5-0.6c0,0-0.1,0.1-0.1,0.1c1.8-2.2,2.8-5,4-7.6
	c2.1,0.3,3.1-1.9,2.5-3.7c0,0,0,0,0,0c0-0.1,0-0.2,0-0.2c0,0,0,0,0,0c-0.1-0.4-0.2-0.8-0.3-1.1l0,0c-0.3-2-3.3,1.9-3,2.9
	c-0.5,8.5-10.2,15.6-15.5,22c4.9-9.9,9-20.1,11.9-30.7c1.2-8.1,5.2-14.9,9.7-21.5c1.5-0.1,3-1,3.1-2.6c-1.4-2-4.4,0.3-3.6,2.6
	c-2.4,3.5-4.6,7.1-6.7,10.8c1.5-6.9,2.4-13.9,3.3-20.9c0.1,0,0.2,0,0.2,0.1c0,0,0,0,0,0c0.7,0.2,1.2,0.8,1.9,0.9c0,0,0,0,0,0
	c1.3,0.2,2.7,1.3,3.9,0.4c0,0,0,0,0,0c0.4-0.2,0.6-0.5,0.9-0.8c0,0,0,0,0,0c0,0,0,0,0.1-0.1c0,0,0,0,0,0c0.2-0.2,0.3-0.4,0.5-0.6
	c0,0,0,0,0,0c0,0,0,0,0.1-0.1v0c0.1-0.1,0.2-0.2,0.4-0.4c0,0,0,0,0,0C386.2,158.7,387.1,158.4,386.9,157.8 M372,161.6
	C372,161.6,372,161.6,372,161.6C372,161.6,372,161.6,372,161.6z M371.9,161.9c0.2,0.2,0.4,0.5,0.5,0.8c0,0,0,0,0,0c0,0,0,0,0,0.1
	c0,0,0,0,0,0c0,0,0,0,0,0c0,0,0,0,0,0c0.1,0.3,0.2,0.7,0.1,1c0,0,0,0,0-0.1c0,0.2-0.1,0.3-0.2,0.5c0,0,0,0,0,0
	c-0.3-0.3-0.6-0.7-0.6-1.1c0,0,0,0,0,0C371.8,162.6,371.8,162.2,371.9,161.9C371.9,161.9,371.9,161.9,371.9,161.9z M371.5,163.8
	c-0.1-0.2-0.2-0.5-0.2-0.7c0,0.3,0.2,0.7,0.4,1C371.6,164,371.6,163.9,371.5,163.8z M375.8,140.3
	C375.8,140.3,375.8,140.3,375.8,140.3C375.8,140.3,375.8,140.3,375.8,140.3z M376.6,139.1c0,0.3-0.1,0.6-0.4,0.8c0,0,0,0,0,0
	c-0.1,0-0.1,0-0.2,0.1c0.3-0.2,0.5-0.6,0.6-1C376.6,139,376.6,139,376.6,139.1C376.6,139.1,376.6,139.1,376.6,139.1
	C376.6,139.1,376.6,139.1,376.6,139.1C376.6,139.1,376.6,139.1,376.6,139.1z M376,137.6C376,137.6,376,137.6,376,137.6
	C376,137.6,376,137.6,376,137.6z M375.4,139c0-0.2,0.1-0.3,0.1-0.5c0,0,0,0,0,0c0,0,0,0,0,0c0,0,0,0,0,0c0.1-0.3,0.2-0.6,0.4-0.8
	c0,0.1,0.1,0.2,0.1,0.3c0,0,0,0,0-0.1c0.1,0.3,0.1,0.6,0,0.9c0,0,0,0,0,0c0,0,0,0,0,0.1c0,0,0,0,0,0c-0.1,0.3-0.2,0.5-0.4,0.7
	c0,0,0,0,0,0c0,0,0,0,0,0c0,0,0,0,0,0c0,0-0.1,0.1-0.1,0.1c0,0,0-0.1,0-0.1c0,0,0,0,0,0c0,0,0,0,0-0.1c0,0,0,0,0,0
	c0-0.1,0-0.1,0-0.2C375.4,139.2,375.4,139.1,375.4,139C375.4,139,375.4,139,375.4,139C375.4,139,375.4,139,375.4,139
	C375.4,138.9,375.4,139,375.4,139z M371,131.6L371,131.6L371,131.6z M370.7,128.7L370.7,128.7C370.7,128.7,370.7,128.7,370.7,128.7
	C370.7,128.7,370.7,128.7,370.7,128.7z M370.7,128.7C370.7,128.7,370.7,128.7,370.7,128.7C370.7,128.7,370.7,128.7,370.7,128.7z
	 M370.5,129.1c0-0.1,0.1-0.2,0.1-0.3c0,0,0,0,0,0.1c0,0,0,0,0,0c0.1,0.4,0.2,0.8,0.2,1.2c0,0,0,0,0,0c0,0.4,0,0.8-0.2,1.1
	C370.1,130.6,370,129.8,370.5,129.1z M369.9,131c-0.7-0.5-0.4-1.7-0.2-2.4c0.2,0.1,0.2,0.4,0.3,0.5c-0.4,0.6-0.3,1.3,0.1,1.9
	C370,131,370,131,369.9,131z M370.4,131.6C370.4,131.6,370.5,131.6,370.4,131.6C370.5,131.6,370.4,131.6,370.4,131.6z M370.5,131.6
	C370.5,131.6,370.5,131.6,370.5,131.6C370.5,131.6,370.5,131.6,370.5,131.6C370.5,131.6,370.5,131.6,370.5,131.6z M375,125.5
	c0,0.7-0.4,1.3-0.8,1.8c0,0,0,0,0,0c-0.2,0.1-0.3,0.3-0.5,0.5c0,0,0,0,0-0.1c0-0.2,0-0.4,0-0.5c0,0,0,0,0,0.1c0-0.3,0-0.7,0.1-1
	c0,0,0,0,0,0c0,0,0-0.1,0-0.1c0,0,0,0,0,0.1c0,0,0-0.1,0-0.1c0,0,0,0,0,0.1c0.1-0.7,0.5-1.4,1.1-1.8
	C374.9,124.6,374.9,125.1,375,125.5z M373.2,127.5c-0.7-1-0.3-2.4,0.8-2.9c-0.7,0.9-0.7,2-0.6,3.1
	C373.2,127.6,373.2,127.5,373.2,127.5z M367.6,132.7C367.6,132.7,367.6,132.7,367.6,132.7L367.6,132.7
	C367.6,132.7,367.6,132.7,367.6,132.7z M367.5,132.8C367.5,132.8,367.5,132.8,367.5,132.8C367.5,132.8,367.5,132.8,367.5,132.8z
	 M366.9,133.8c0.2-0.3,0.4-0.7,0.6-1c0,0,0,0,0,0c0,0,0,0,0.1-0.1c0,0,0,0,0,0c0,0,0,0,0,0c0,0,0,0,0,0c0,0,0,0,0,0
	c0.2,0.2,0.1,0.6,0.3,0.8c0,0,0,0,0,0c0,0,0,0,0,0.1c0,0,0,0,0,0c0.1,0.3,0.1,0.5,0.3,0.8c0,0,0,0,0,0c0,0,0,0,0,0.1c0,0,0,0,0,0
	c0.5,1.3,0.2,2.6-0.8,3.6c0,0,0,0,0.1-0.1c-0.1,0.1-0.1,0.1-0.1,0.2c0,0,0,0,0.1-0.1c-0.2,0.2-0.3,0.4-0.5,0.6c0-0.3,0.2-0.6,0.2-1
	c0,0,0,0,0,0c0,0,0,0,0-0.1c0,0,0,0,0,0c0.2-0.8,0.2-1.6,0.1-2.4C366.9,134.8,366.6,134.3,366.9,133.8z M366.8,134.3
	C366.8,134.3,366.8,134.3,366.8,134.3C366.8,134.3,366.8,134.3,366.8,134.3z M365.2,132.6c0,0.1,0.1,0.1,0.1,0.2c0,0,0,0,0,0
	c1.1,1.4,1.6,3.2,1.1,5c0,0,0,0,0,0c0,0.1,0,0.2,0,0.2c0,0,0,0,0-0.1c-0.1,0.3-0.2,0.6-0.2,0.9c0,0,0,0,0,0c0,0,0,0,0,0.1
	c0,0,0,0,0,0c0,0.1-0.1,0.2-0.1,0.3c0,0-0.1,0-0.1,0c-0.6-1.2-1.6-2.3-1.8-3.7c0,0,0,0,0,0c0,0,0,0,0-0.1c0,0,0,0,0,0
	c0-0.4,0.1-0.7,0.2-1.1c0,0,0,0,0,0c0.1-0.2,0.2-0.5,0.3-0.7c0,0,0,0,0,0C364.9,133.4,365.1,133,365.2,132.6z M365.5,139.3
	c-0.8-0.3-1.2-1.1-1.6-1.8c0,0,0,0,0,0.1c-0.6-1.1-0.7-2.5,0.1-3.5c0,0,0,0,0,0c0.1-0.1,0.1-0.1,0.2-0.2c-1.1,2,0.6,3.9,1.5,5.6
	C365.6,139.4,365.6,139.3,365.5,139.3z M362.9,143.1c0.5,0.5,0.6,1.3,0.4,1.9c-0.6-0.4-0.8-1.1-0.7-1.8c0,0,0,0,0,0c0,0,0,0,0-0.1
	c0,0,0,0,0,0c0-0.1,0-0.1,0-0.2c0,0,0,0,0,0c0,0,0,0,0,0c0,0,0,0,0,0c0,0,0,0,0,0c0,0,0,0,0,0c0,0,0,0,0,0c0,0,0,0,0-0.1
	c0,0,0,0,0,0c0,0,0,0,0,0l0,0c0,0,0,0,0,0c0,0,0,0,0,0C362.8,143,362.9,143.1,362.9,143.1z M362.7,143.9
	C362.7,143.9,362.7,143.9,362.7,143.9C362.7,143.9,362.7,143.9,362.7,143.9z M362.7,145.2c-0.5-0.2-0.6-0.9-0.4-1.4
	c0,0.3,0,0.6,0.2,0.8c0,0,0,0,0,0c0.1,0.3,0.3,0.5,0.6,0.7C362.9,145.3,362.8,145.2,362.7,145.2z M360.6,156.6
	c1.4,0.3,2.5,2.1,2,3.5c-0.7-0.6-1.3-1.3-1.7-2c0,0,0,0,0,0c0,0,0,0,0-0.1c0,0,0,0,0,0c0,0,0-0.1,0-0.1c0,0,0,0,0,0
	c-0.2-0.5-0.3-1-0.5-1.5C360.4,156.5,360.5,156.6,360.6,156.6z M361.8,160.1c-1.6,0-2.1-1.5-1.9-2.8c0,0,0,0,0,0
	c0-0.1,0.1-0.3,0.1-0.4c0.2,0.4,0.3,0.8,0.4,1.3c0,0,0,0,0,0c0,0,0,0.1,0,0.1c0,0,0,0,0,0c0.3,0.8,1,1.4,1.6,2
	C362,160.2,361.9,160.2,361.8,160.1z M360,187.5c0,0.4,0,0.8-0.1,1.1c0,0,0,0,0,0c-0.2,0.6-0.6,1.1-1.2,1.2c0.1-1.1,0.1-2.4,1.2-3
	C360,187,359.9,187.2,360,187.5z M358.2,188.8c-0.3-0.7-0.1-1.6,0.7-1.7c-0.3,0.3-0.5,0.7-0.5,1.2c0,0,0,0,0,0c0,0,0,0,0,0.1
	c0,0,0,0,0,0c-0.1,0.2-0.1,0.5-0.1,0.8C358.3,188.9,358.3,188.9,358.2,188.8z M357.2,129.4c0.2,0.6,0,1.2-0.3,1.7c0,0,0-0.1,0-0.1
	c-0.1,0.2-0.2,0.4-0.3,0.6c-0.7-0.8-0.4-2.1,0.3-2.9C357.1,129,357.1,129.2,357.2,129.4z M355.9,131.3
	C355.9,131.3,355.9,131.3,355.9,131.3c-0.3-0.4-0.4-1-0.1-1.5C355.8,130.3,355.8,130.9,355.9,131.3L355.9,131.3
	C356,131.3,356,131.3,355.9,131.3C356,131.3,355.9,131.3,355.9,131.3z M352.8,144.1C352.8,144.1,352.8,144.1,352.8,144.1
	C352.8,144.1,352.8,144.1,352.8,144.1z M363.1,94C363.1,94,363.1,94,363.1,94C363.1,94,363.1,94,363.1,94z M363.1,94
	C363.1,94,363.1,94,363.1,94S363.1,94,363.1,94z M363,94.1C363,94.1,363,94.1,363,94.1C363,94.1,363,94.1,363,94.1z M362.3,96.8
	C362.3,96.8,362.3,96.8,362.3,96.8C362.3,96.8,362.3,96.8,362.3,96.8C362.3,96.8,362.3,96.8,362.3,96.8z M363.2,95
	C363.2,95,363.2,95,363.2,95C363.2,95,363.2,95,363.2,95c0,0.1,0,0.2,0,0.4v0c0,0,0,0,0,0c0,0,0,0,0,0c-0.1,0.4-0.3,0.7-0.5,1
	c0,0,0,0,0,0c-0.1,0.1-0.2,0.3-0.3,0.5c-0.2-0.9,0-1.9,0.6-2.6c0,0,0,0,0,0c0,0,0.1-0.1,0.1-0.1c0,0,0,0,0,0c0,0,0,0,0.1-0.1
	c0,0,0,0.1,0,0.1c0,0,0,0,0,0c0,0,0,0,0,0c0,0,0,0,0,0c0,0,0,0,0,0.1c0,0,0,0,0,0c0,0,0,0,0,0c0,0,0,0,0,0c0,0,0,0,0,0s0,0,0,0
	c0,0,0,0,0,0C363,94.5,363.1,94.7,363.2,95C363.2,95,363.2,95,363.2,95C363.2,95,363.2,95,363.2,95z M361.8,96.8
	C361.8,96.8,361.8,96.8,361.8,96.8C361.8,96.8,361.8,96.8,361.8,96.8c-0.2-0.4-0.4-0.8-0.3-1.3c0,0,0,0,0,0c0.1-0.3,0.2-0.5,0.4-0.7
	C361.7,95.4,361.7,96.1,361.8,96.8C361.8,96.8,361.8,96.8,361.8,96.8C361.8,96.8,361.8,96.8,361.8,96.8
	C361.8,96.8,361.8,96.8,361.8,96.8z M361.8,96.8L361.8,96.8L361.8,96.8z M360.3,102.5C360.3,102.5,360.3,102.5,360.3,102.5
	C360.3,102.5,360.3,102.5,360.3,102.5z M366.3,77.7C366.3,77.7,366.3,77.7,366.3,77.7c0.1,0.7-0.4,1.4-0.8,1.9c0,0,0,0,0,0
	c0,0,0,0,0,0c0,0,0,0,0,0c0,0,0,0,0,0c0,0,0,0,0,0c0,0,0,0,0,0c0-0.2-0.1-0.4-0.1-0.6c0,0,0,0,0,0c0,0,0,0,0-0.1c0,0,0,0,0,0
	c0,0,0,0,0-0.1c0,0,0,0,0,0c-0.1-0.8,0.3-1.5,0.8-2.2c0,0,0,0,0,0c0,0,0,0,0,0C366.2,77.1,366.3,77.4,366.3,77.7z M366,76.1
	C366,76.1,366,76.1,366,76.1C366,76.1,366,76.1,366,76.1C366,76.1,366,76.1,366,76.1C366,76.1,366,76.1,366,76.1z M364.9,79.7
	c-0.1-0.1-0.2-0.2-0.2-0.3c0,0,0,0,0,0.1c0,0,0-0.1-0.1-0.1c0,0,0,0,0,0.1c0-0.1-0.1-0.3-0.2-0.4c0,0,0,0,0,0.1
	c-0.1-0.4,0-0.8,0.1-1.2c0,0,0,0,0,0c0,0,0,0,0-0.1c0,0,0,0,0,0c0.1-0.3,0.4-0.5,0.6-0.7c0,0,0,0,0,0c0,0,0,0,0.1,0c0,0,0,0,0,0
	c0,0,0.1-0.1,0.1-0.1c-0.4,0.6-0.6,1.3-0.5,2c0,0,0,0,0,0c0,0,0,0,0,0.1c0,0,0,0,0,0c0,0.1,0,0.3,0.1,0.4c0,0,0,0,0,0
	c0,0.1,0.1,0.2,0.1,0.3C365,79.8,364.9,79.7,364.9,79.7z M366.4,69.2L366.4,69.2C366.4,69.2,366.4,69.2,366.4,69.2
	C366.4,69.2,366.4,69.2,366.4,69.2z M355,75.9c-0.1-0.2-0.2-0.4-0.3-0.6c0,0,0,0,0,0c0,0,0,0,0-0.1c0,0,0,0,0,0
	c-0.1-0.4-0.1-0.8,0-1.1c0,0,0,0,0,0c0,0,0,0,0-0.1c0,0,0,0,0,0c0-0.1,0-0.2,0.1-0.3c0,0,0,0,0,0c0,0,0,0,0-0.1c0,0,0,0,0,0
	c0,0,0,0,0-0.1c0,0,0,0,0,0.1c0,0,0,0,0,0c0,0,0,0,0,0c0,0,0,0,0,0c0,0.1,0.1,0.1,0.1,0.2c0,0,0,0,0,0c0.3,0.4,0.5,0.8,0.6,1.2
	c0,0,0,0,0,0c0,0,0,0,0,0.1c0,0,0,0,0,0c0,0.3-0.2,0.6-0.3,0.9C355.2,76.1,355.1,76,355,75.9z M352.9,88.4
	C352.9,88.4,352.9,88.4,352.9,88.4C352.9,88.4,352.9,88.4,352.9,88.4z M353.4,85.4C353.4,85.4,353.4,85.4,353.4,85.4
	C353.4,85.4,353.4,85.4,353.4,85.4z M353.2,85.6c0-0.1,0.1-0.2,0.1-0.2c0.4,1.1,0.1,2.1-0.5,3c-0.3-0.5-0.3-1.1-0.1-1.6c0,0,0,0,0,0
	c0-0.1,0-0.1,0-0.2c0,0,0,0,0,0.1C352.8,86.3,353,85.9,353.2,85.6z M352.5,85.8C352.5,85.9,352.5,85.9,352.5,85.8
	C352.5,85.9,352.5,85.9,352.5,85.8C352.5,85.8,352.5,85.8,352.5,85.8C352.5,85.8,352.5,85.8,352.5,85.8
	C352.5,85.8,352.5,85.8,352.5,85.8C352.5,85.8,352.5,85.8,352.5,85.8C352.5,85.8,352.5,85.8,352.5,85.8z M352.3,85.4L352.3,85.4
	L352.3,85.4z M352.1,88.1C352.1,88.1,352.1,88.1,352.1,88.1C352.1,88.1,352.1,88.1,352.1,88.1c-0.5-0.8-0.2-1.8,0.1-2.5c0,0,0,0,0,0
	c0,0,0,0,0,0c0,0,0,0,0,0c0,0,0,0,0,0c0.1,0.1,0.2,0.3,0.2,0.4c-0.1,0.2-0.1,0.4-0.2,0.5c0,0,0,0.1,0,0.1c0,0,0,0,0-0.1
	c-0.2,0.6-0.2,1.3,0,1.9C352.3,88.3,352.2,88.2,352.1,88.1z M360.4,71.6C360.4,71.6,360.4,71.6,360.4,71.6
	C360.4,71.6,360.4,71.6,360.4,71.6z M360.4,71.6C360.4,71.6,360.4,71.6,360.4,71.6L360.4,71.6L360.4,71.6z M364.5,69.4
	c0.6-0.1,1.2-0.2,1.8-0.1c0,0,0,0.1-0.1,0.1c0,0,0,0,0,0c0,0,0,0-0.1,0.1c0,0,0,0,0,0c-0.1,0.1-0.1,0.2-0.2,0.2c0,0,0,0,0,0
	c0,0,0,0,0,0c0,0,0,0,0,0c0,0,0,0,0,0l0,0c0,0,0,0,0,0c0,0,0,0,0,0c-0.5,0.7-1.2,1.1-1.8,1.6c0,0,0,0,0,0c0,0,0,0,0,0c0,0,0,0,0,0
	c-1.2,0.7-2.7,0.2-3.9,0.7l0,0c0.1-0.2,0.1-0.4,0.2-0.5c0.9-0.6,2.2-0.5,2.9-1.4c0,0,0,0,0,0c0.2-0.2,0.5-0.4,0.6-0.6
	C364.2,69.5,364.3,69.4,364.5,69.4z M364.4,67.6C364.4,67.6,364.4,67.6,364.4,67.6C364.4,67.6,364.4,67.6,364.4,67.6z M364.1,65.8
	C364.1,65.8,364.1,65.8,364.1,65.8C364.1,65.8,364.1,65.8,364.1,65.8z M361.4,69.3c0.3-0.5,0.5-1,0.5-1.5c0.6-0.7,1-2,2.1-1.9
	c0.1,0.4,0,0.8-0.1,1.2c0,0,0,0,0,0c-0.1,0.3-0.1,0.7,0,1c0,0,0,0,0,0c0,0,0,0,0,0.1c0,0,0,0,0,0c0,0.1,0,0.2,0,0.4c0,0,0,0,0-0.1
	c0,0.5-0.3,0.9-0.7,1.2c0,0,0,0,0,0c-0.8,0.8-1.9,0.8-2.8,1.3C360.7,70.4,361,69.8,361.4,69.3z M358.4,66.8c0.6-1,1-2.2,1.7-3.1
	c0.5,1.5,1.7,3.1,1.1,4.8c0,0,0,0,0,0c0,0,0,0,0,0.1c0,0,0,0,0,0c0,0,0,0,0,0.1c0,0,0,0,0-0.1c-0.4,0.8-1.1,1.5-1.5,2.4
	c-0.1,0-0.1,0-0.2,0c-0.1-0.3-0.2-0.5-0.3-0.7c0,0,0,0,0,0C358.7,69,357.8,68,358.4,66.8z M355.8,64.6
	C355.8,64.6,355.8,64.6,355.8,64.6S355.8,64.6,355.8,64.6z M358.4,70.6C358.4,70.6,358.4,70.6,358.4,70.6c-0.7-0.5-1.5-0.9-2.2-1.4
	c0,0,0,0,0,0c-0.5-0.4-0.8-0.9-0.9-1.5c0,0,0,0,0,0c0,0,0,0,0-0.1c0,0,0,0,0,0c-0.1-1-0.1-2,0.4-2.9c0.2,0.2,0.4,0.4,0.6,0.6
	c0,0,0,0-0.1,0c0.1,0.1,0.2,0.2,0.3,0.3c0,0,0,0,0,0c0.3,0.3,0.5,0.7,0.7,1.1c0,0,0,0,0,0c0,0,0,0,0,0c0,0,0,0,0,0
	c0.3,1.7,1.2,3,1.9,4.5C359,70.9,358.7,70.8,358.4,70.6z M347.2,60.9c0,0.5-0.2,1.2-0.6,1.5c-0.2-0.8,0.1-1.7,0.5-2.4
	C347.1,60.3,347.2,60.6,347.2,60.9z M346.1,62.1c-0.3-0.6-0.1-1.4,0.3-1.9C346.1,60.8,346.1,61.5,346.1,62.1
	C346.1,62.2,346.1,62.2,346.1,62.1z M343.8,56L343.8,56C343.8,56,343.8,56,343.8,56C343.8,56,343.8,56,343.8,56z M343.8,54.6
	C343.8,54.6,343.8,54.6,343.8,54.6S343.8,54.6,343.8,54.6z M343.7,55.5c0.2,0.8,0.2,1.8-0.5,2.2c-0.2-0.3-0.3-0.5-0.3-0.9
	c0,0,0,0,0,0c0-0.2,0-0.3,0-0.5c0,0,0,0,0,0c0,0,0,0,0-0.1c0,0,0,0,0,0c0.1-0.5,0.4-1,0.7-1.4C343.7,55.1,343.7,55.3,343.7,55.5z
	 M342.4,57.1c0-0.1,0-0.2-0.1-0.2c0,0,0,0,0,0.1c-0.4-0.8,0-1.7,0.8-2.1c0,0,0,0.1-0.1,0.1c0,0,0,0,0,0c-0.4,0.7-0.8,1.5-0.5,2.3
	C342.5,57.3,342.5,57.2,342.4,57.1z M344.7,38c0.1-0.3,0.4-0.4,0.6-0.6c0.2,1.1,0.1,2.4-0.9,3.1C344.3,39.6,344.1,38.7,344.7,38z
	 M345.8,37.9c0.5,1.2,0.2,3-1.4,3.1c0,0,0-0.1,0-0.1C345.5,40.3,346.1,39.1,345.8,37.9C345.8,37.9,345.8,37.9,345.8,37.9z M344,40.3
	c0,0,0-0.1,0-0.1C344,40.2,344,40.2,344,40.3c-0.1-0.2-0.1-0.3-0.1-0.4C344,40.1,344,40.2,344,40.3C344,40.4,344,40.4,344,40.3
	C344,40.4,344,40.4,344,40.3C344,40.4,344,40.3,344,40.3z M340.4,30c0.6,0.8,1.7,1.9,1,3c0.1-1.4-1-2.4-1.5-3.5
	C340.1,29.6,340.2,29.8,340.4,30z M340.3,33.4c-0.1-0.1-0.3-0.2-0.4-0.3c0,0,0,0,0,0c0,0,0,0,0,0c0,0,0,0,0,0
	c-0.3-0.3-0.5-0.6-0.7-1c0,0,0,0,0,0c-0.3-0.9-0.1-1.8,0.1-2.7c0.3,0.7,0.8,1.4,1.1,2.1c0,0,0,0,0,0c0.3,0.7,0.4,1.4,0.2,2.1
	C340.6,33.6,340.4,33.5,340.3,33.4z M329.9,23.2c0-0.4,0-0.7,0.1-1.1l0,0c0,0,0,0,0,0c0,0,0,0,0,0c0.2,0.3,0.3,0.7,0.5,1.1
	c0,0,0,0,0-0.1c0,0,0,0.1,0,0.1c0,0,0,0,0,0c0,0.1,0,0.1,0,0.2c0,0,0,0,0-0.1c0.3,0.7,0.3,1.5,0,2.2c0,0,0,0,0,0c0,0,0,0,0,0
	C330.1,24.8,329.9,24,329.9,23.2z M330,22.1L330,22.1C330,22.1,330,22.1,330,22.1C330,22.1,330,22.1,330,22.1z M331.1,26.4
	C331.1,26.4,331.1,26.3,331.1,26.4C331.1,26.3,331.1,26.4,331.1,26.4z M331,23c0.5,0.4,0.6,1,0.6,1.6c0,0,0,0,0,0c0,0,0,0,0,0.1
	c0,0,0,0,0,0c0,0.1,0,0.1-0.1,0.2c-0.1,0.4-0.4,0.6-0.6,0.9c0.3-0.8,0.4-1.7,0-2.6c0,0,0,0,0,0C330.9,23.1,330.9,23.1,331,23
	C330.9,23,330.9,23,331,23c-0.1,0-0.1-0.1-0.1-0.1C330.9,22.9,330.9,23,331,23z M329.4,24.4c-0.1-0.3,0-0.6,0-0.9c0,0,0,0,0,0.1
	c0,0,0-0.1,0-0.1c0,0,0,0,0,0.1c0,0,0-0.1,0-0.1c0,0.6,0.1,1.2,0.4,1.7c-0.1-0.1-0.1-0.1-0.2-0.2c0,0,0,0,0,0
	C329.6,24.8,329.5,24.6,329.4,24.4z M330.4,26.3C330.4,26.3,330.4,26.3,330.4,26.3C330.4,26.3,330.4,26.3,330.4,26.3z M330.4,26.3
	C330.4,26.3,330.4,26.3,330.4,26.3S330.4,26.3,330.4,26.3z M330.4,26.3C330.4,26.3,330.4,26.3,330.4,26.3
	C330.4,26.3,330.4,26.3,330.4,26.3z M324.9,33.9C324.9,33.9,324.9,33.9,324.9,33.9C324.9,33.9,324.9,33.9,324.9,33.9
	C324.9,33.9,324.9,33.9,324.9,33.9C324.9,33.9,324.9,33.9,324.9,33.9C325,33.9,325,33.9,324.9,33.9C325,33.9,325,33.9,324.9,33.9
	C325,34,325,34,324.9,33.9c0.2,0.1,0.2,0.2,0.3,0.3c0,0,0,0-0.1,0c0.2,0.2,0.4,0.4,0.4,0.7c0,0,0,0,0,0c0,0,0,0,0,0.1c0,0,0,0,0,0
	c0.1,0.3,0,0.6-0.1,1c0,0,0,0,0,0c0,0.1-0.1,0.3-0.2,0.4c0,0-0.1,0-0.1,0l0,0c0,0,0,0,0,0c0,0,0,0,0,0c0.1-0.9-0.4-1.8-0.7-2.6
	C324.6,33.6,324.8,33.8,324.9,33.9z M323.5,33.1L323.5,33.1C323.5,33.1,323.5,33.1,323.5,33.1C323.5,33.1,323.5,33.1,323.5,33.1z
	 M323.9,36c-0.5-0.4-0.7-1.1-0.5-1.7c0,0,0,0,0,0c0,0,0-0.1,0-0.1c0,0,0,0,0,0c0.1-0.3,0.1-0.6,0.3-0.9c0,0,0.1,0.1,0.1,0.1
	c0,0,0,0,0,0c0.5,0.8,1.3,1.9,1,2.9c0,0,0,0,0,0c0,0,0,0,0,0c0,0,0,0,0,0c0,0,0,0-0.1,0c0,0,0,0,0,0C324.3,36.4,324.1,36.1,323.9,36
	z M321.8,47.9L321.8,47.9C321.8,47.9,321.8,47.9,321.8,47.9L321.8,47.9z M321.9,47.6L321.9,47.6z M338.2,46.2
	C338.2,46.2,338.2,46.1,338.2,46.2C338.2,46.1,338.2,46.2,338.2,46.2z M336,42.2c0.1-0.4,0.2-0.7,0.3-1.1c0,0,0,0.1-0.1,0.1
	c0.4-0.9,1-1.6,2.1-1.7c0,0.3,0,0.6,0,0.9c0,0,0,0,0-0.1c0,0,0,0,0,0c0,0,0-0.1,0-0.1c-0.1,1.2-0.1,2.4,0,3.6c0,0,0-0.1,0-0.1
	c0.3,2.4-0.8,4.3-2.7,5.6c0,0,0,0,0,0c0,0,0,0-0.1,0.1c0,0,0,0,0,0c-0.2,0.2-0.4,0.3-0.6,0.4C336.7,47.6,335.9,44.7,336,42.2z
	 M330.5,38.1C330.5,38.1,330.5,38.1,330.5,38.1C330.5,38.1,330.5,38.1,330.5,38.1L330.5,38.1z M330.4,38.2
	C330.4,38.2,330.4,38.2,330.4,38.2C330.4,38.2,330.4,38.2,330.4,38.2z M329.4,41c0.2-1,0.6-2,1.1-2.8c1.7,1.2,3,2.6,4.1,4.3
	c0,0,0,0,0,0c0,0,0,0.1,0.1,0.1c0,0,0,0,0-0.1c0.5,0.7,0.6,1.6,0.6,2.5c0,0,0,0,0,0c-0.2,1.6-0.2,3.6-1.5,4.8
	c-0.1,0-0.1-0.1-0.2-0.1c0,0,0,0,0,0c-0.6-0.4-1.1-0.8-1.6-1.3c0,0,0,0,0,0c-0.2-0.2-0.4-0.4-0.7-0.6c0,0,0,0,0,0
	c-0.4-0.4-0.9-0.8-1.1-1.3c0,0,0,0,0,0c0-0.1-0.1-0.1-0.1-0.2c0,0,0,0,0,0c0,0,0-0.1,0-0.1c0,0,0,0,0,0c0,0,0,0,0,0c0,0,0,0,0,0
	c-0.3-0.4-0.5-0.9-0.6-1.4c0,0,0,0.1,0,0.1c-0.3-0.9-0.2-1.8-0.2-2.7c0,0,0,0,0,0c0,0,0-0.1,0-0.1c0,0,0,0,0,0
	C329.2,41.8,329.3,41.4,329.4,41z M328.5,43.5C328.5,43.5,328.5,43.5,328.5,43.5C328.5,43.5,328.5,43.5,328.5,43.5z M325.4,44.5
	c-0.3-0.4-0.7-0.7-0.9-1.1c0.1,0,0.3-0.1,0.4-0.1c0,0,0,0,0,0c0.1,0,0.2,0,0.2-0.1c0,0-0.1,0-0.1,0c0.9-0.2,1.8-0.1,2.7-0.1
	c0,0-0.1,0-0.1,0c0.3,0.1,0.5,0.2,0.8,0.3c0,0,0,0,0,0c0,0,0,0,0.1,0c0,0,0,0,0,0c0,0,0,0,0,0c0.2,2.7,1.8,5.5,4.3,6.6c0,0,0,0,0,0
	c0,0,0,0,0,0c-0.4,0.1-0.7,0-1.1,0c0,0,0,0,0,0c0,0-0.1,0-0.1,0c0,0,0,0,0.1,0c-2,0-3.8-1.2-4.8-3c0,0,0,0,0,0c0,0,0-0.1-0.1-0.1
	c0,0,0,0,0,0C326.4,46.3,326.1,45.3,325.4,44.5z M322.2,47.8C322.2,47.8,322.3,47.8,322.2,47.8C322.3,47.8,322.2,47.8,322.2,47.8z
	 M329.5,51.2c-0.6,0-1.3,0-1.9-0.2c0,0,0,0,0,0c0,0-0.1,0-0.1,0c0,0,0.1,0,0.1,0c-1.8-0.5-3.4-1.5-4.8-2.7c0,0,0,0,0.1,0.1
	c-0.2-0.2-0.4-0.4-0.6-0.5c0.3-0.1,0.7-0.2,1-0.4c0,0,0,0-0.1,0c0.8-0.2,1.7-0.4,2.5-0.1c0,0,0,0-0.1,0c0.4,0.1,0.6,0.4,0.8,0.7
	c0,0,0,0,0,0c0.8,1.4,2.1,2.5,3.7,2.9c0,0.1,0.1,0.2,0.1,0.2C330,51.2,329.8,51.2,329.5,51.2z M335.8,59.4c-1.1-1.6-2-3.3-3.1-4.9
	c0,0,0,0.1,0,0.1c0,0,0-0.1-0.1-0.1v0c0,0,0-0.1-0.1-0.1c0,0,0,0,0,0c-0.1-0.2-0.2-0.4-0.3-0.6c0,0,0,0.1,0,0.1
	c-0.4-0.8-0.9-1.5-1.3-2.3c0.8-0.2,1.6-0.5,2.3-0.8c1.3,3.2,2.2,6.6,3.3,10C336.5,60.3,336.1,59.8,335.8,59.4z M328,52.7
	c0.1,0.1,0.2,0.2,0.3,0.3c0,0,0,0,0,0c0.6,0.6,0.8,1.4,0.8,2.3c0,0,0,0,0,0c0,0.1,0,0.1,0,0.2c-0.8-0.2-1-1.1-1-1.8c0,0,0,0,0,0.1
	c0-0.1,0-0.2-0.1-0.3c0,0,0,0,0,0.1c0-0.3,0-0.5,0-0.8C328,52.7,328,52.7,328,52.7z M327.9,52.2C327.9,52.2,327.9,52.2,327.9,52.2
	C327.9,52.2,327.9,52.2,327.9,52.2z M327.6,53.7C327.6,53.7,327.6,53.7,327.6,53.7C327.6,53.7,327.6,53.7,327.6,53.7z M327.8,52.5
	C327.8,52.5,327.8,52.5,327.8,52.5C327.8,52.5,327.8,52.5,327.8,52.5z M327.4,52.8C327.4,52.8,327.4,52.8,327.4,52.8
	C327.4,52.8,327.4,52.8,327.4,52.8z M327.4,52.8L327.4,52.8C327.4,52.8,327.4,52.8,327.4,52.8C327.4,52.8,327.4,52.8,327.4,52.8z
	 M328.3,55.6c-1.4-0.2-1.3-1.8-1.2-2.9c0.1,0.1,0.3,0.1,0.4,0.1c0.1,1,0,2.2,0.9,2.8C328.4,55.6,328.4,55.6,328.3,55.6z M335.6,73.4
	C335.6,73.4,335.6,73.4,335.6,73.4L335.6,73.4C335.6,73.4,335.6,73.4,335.6,73.4z M335.6,73.4C335.6,73.5,335.5,73.5,335.6,73.4
	C335.5,73.5,335.6,73.5,335.6,73.4z M335.6,73.4L335.6,73.4C335.5,73.4,335.5,73.4,335.6,73.4C335.5,73.4,335.6,73.4,335.6,73.4z
	 M335.5,73.5L335.5,73.5C335.5,73.5,335.5,73.5,335.5,73.5z M335.5,73.5C335.5,73.5,335.5,73.5,335.5,73.5
	C335.5,73.5,335.5,73.5,335.5,73.5z M335.2,74c1-1.8,1.8,2.9,0.4,3.3c-0.3-0.6-0.8-1.2-0.9-1.9c0,0,0,0,0,0c0,0,0,0,0-0.1
	c0,0,0,0,0,0c0-0.2,0-0.4,0.1-0.6c0,0,0,0,0,0c0,0,0,0,0,0c0,0,0,0,0,0C334.9,74.5,335,74.2,335.2,74z M334.3,74.1
	C334.3,74.1,334.3,74.1,334.3,74.1C334.3,74.1,334.3,74.1,334.3,74.1z M334.3,74.1C334.3,74.1,334.3,74.1,334.3,74.1
	C334.3,74.1,334.3,74.1,334.3,74.1z M333.9,73.8C333.9,73.8,333.9,73.8,333.9,73.8C333.9,73.8,333.9,73.8,333.9,73.8z M335,77.3
	C335,77.3,335,77.3,335,77.3c-0.5-0.4-1.2-0.8-1.2-1.6c0,0,0,0,0,0c0,0,0,0,0-0.1c0,0,0,0,0,0c0-0.1,0-0.3,0-0.4c0,0,0,0,0,0
	c0,0,0,0,0-0.1c0,0,0,0,0,0c0.1-0.4,0.1-0.9,0.2-1.3c0.1,0,0.2,0.1,0.3,0.2c0,0,0,0,0,0c0,0,0.1,0.1,0.1,0.1c0,0.1,0.1,0.2,0.1,0.2
	c0,0,0,0.1-0.1,0.1c0,0,0,0,0,0c0,0,0,0,0,0c0,0,0,0,0,0c-0.5,1,0.2,2,0.7,2.8C335,77.3,335,77.3,335,77.3z M325.2,70.2
	C325.2,70.2,325.2,70.2,325.2,70.2C325.2,70.2,325.2,70.2,325.2,70.2z M327.3,69.7c0.6,0.2,1,0.6,1.5,1c0,0,0,0,0,0c0,0,0,0,0.1,0
	c0,0,0,0,0,0c0.5,0.3,0.8,0.8,1,1.2c0,0,0,0,0,0c0.2,0.4,0.4,0.8,0.4,1.2c0,0,0,0,0,0c0,0,0,0,0,0.1c0,0,0,0,0,0
	c-0.1,1.2-0.5,2.4-0.8,3.6c-0.3-0.2-0.6-0.3-0.8-0.6c0,0,0,0,0,0c0,0,0,0,0,0c0,0,0,0,0,0c0,0,0,0,0,0c0,0,0,0,0,0c0,0,0,0,0,0
	c0,0,0,0,0,0c-0.1-0.2-0.2-0.3-0.3-0.5c0,0,0,0,0,0c-0.6-1.2-1.2-2.5-1.1-4c0,0,0,0,0,0c0,0,0,0,0-0.1c0,0,0,0,0,0
	c0.1-0.5,0-1,0.1-1.5c0,0,0,0,0,0.1c0,0,0-0.1,0-0.1c0,0,0,0,0,0.1c0-0.2,0-0.3,0-0.5C327.2,69.6,327.2,69.6,327.3,69.7z
	 M327.1,69.4L327.1,69.4L327.1,69.4z M326.9,69.5C326.9,69.5,326.9,69.5,326.9,69.5C326.9,69.5,326.9,69.5,326.9,69.5z M327.9,76.2
	c-0.1,0-0.1,0-0.2-0.1c0,0,0,0,0,0c0,0,0,0,0,0c0,0,0,0,0,0c-1.9-1.1-2.5-3.5-2.5-5.6c0.2,0,0.3,0.1,0.5,0.1c0,0,0,0-0.1,0
	c0.3,0.1,0.6,0.2,0.9,0.3c-0.3,1.9,0.5,3.8,1.5,5.3C328.1,76.3,328,76.3,327.9,76.2z M327.5,80.1c-0.1,0-0.2,0-0.3-0.1c0,0,0,0,0,0
	c-0.1,0-0.1,0-0.2-0.1c0,0,0,0,0,0c-0.4-0.1-0.9-0.2-1.2-0.4c0,0,0,0,0,0c-0.1,0-0.1-0.1-0.2-0.1c0,0,0,0,0,0
	c-0.5-0.3-0.6-0.8-0.8-1.3c0.2,0,0.4,0.1,0.5,0c0,0,0,0,0,0c0,0,0,0,0,0c0,0,0,0,0,0c0.2,0,0.3-0.1,0.5,0c0,0,0,0,0,0
	c0.3,0.1,0.5,0.2,0.8,0.3c0,0,0,0,0,0c0.1,0.1,0.2,0.1,0.3,0.2c0,0,0,0,0,0c0.6,0.3,0.7,1,0.9,1.6C327.7,80.2,327.6,80.1,327.5,80.1
	z M329.8,86.6C329.8,86.6,329.8,86.6,329.8,86.6L329.8,86.6C329.8,86.6,329.8,86.6,329.8,86.6z M331.3,88.2c-0.2,0-0.4-0.1-0.7-0.2
	c0,0,0,0,0,0c0,0,0,0,0,0c0,0,0,0,0,0l0,0c0,0,0,0,0,0c0,0,0,0,0,0c0,0,0,0,0,0c-0.6-0.2-0.7-1-0.9-1.5c0.2,0,0.4-0.1,0.6,0
	c0,0,0,0,0,0c0,0,0,0,0.1,0c0,0,0,0,0,0c0.3,0.1,0.6,0.2,0.9,0.4c0,0,0,0,0,0c0.5,0.3,0.6,0.8,0.7,1.3c0,0-0.1,0-0.1,0.1
	C331.6,88.2,331.5,88.2,331.3,88.2z M338.6,105.9C338.6,105.8,338.6,105.8,338.6,105.9C338.6,105.8,338.6,105.9,338.6,105.9
	C338.6,105.9,338.6,105.9,338.6,105.9z M338.6,105.9c0.6,0.4,1.2,1.1,1.3,1.9c0,0,0,0,0,0c0,0,0,0,0,0.1c0,0,0,0,0,0
	c0,0.2,0,0.3,0,0.5c0,0,0,0,0,0c0,0,0,0,0,0.1c0,0,0,0,0,0c0,0,0,0,0,0C338.9,107.9,338.5,106.9,338.6,105.9
	C338.6,105.9,338.6,105.9,338.6,105.9z M338.6,105.9C338.6,105.9,338.6,105.9,338.6,105.9C338.6,105.9,338.6,105.9,338.6,105.9
	C338.6,105.9,338.6,105.9,338.6,105.9z M339.3,108.7c-0.9-0.1-1.4-1-1.1-1.9c0.1,0.9,0.7,1.5,1.4,1.9
	C339.5,108.7,339.4,108.7,339.3,108.7z M344.4,137.6L344.4,137.6L344.4,137.6z M344.4,137.6C344.4,137.6,344.4,137.6,344.4,137.6
	C344.4,137.6,344.4,137.6,344.4,137.6z M344.4,137.6C344.4,137.6,344.4,137.6,344.4,137.6C344.4,137.6,344.4,137.6,344.4,137.6z
	 M343.7,138.6c0.2-0.4,0.4-0.7,0.7-1c0.3,0.6,0.1,1.4-0.3,1.8c0,0,0,0,0,0c0,0,0,0,0,0.1c0,0,0,0,0,0c-0.1,0.1-0.3,0.3-0.4,0.4
	C343.6,139.5,343.5,139,343.7,138.6z M336.7,118.6c0.2,0.2,0.4,0.4,0.5,0.7c0,0,0,0,0,0c0,0,0,0,0,0v0c0,0,0,0,0,0.1c0,0,0,0,0,0
	c0.5,1.1,0.5,2.4-0.1,3.4c-0.5-1.1-1.4-2.4-0.8-3.7c0,0,0,0,0,0c0,0,0,0,0-0.1c0,0,0,0,0,0c0-0.1,0.1-0.2,0.1-0.3c0,0,0,0,0,0.1
	c0-0.1,0.1-0.2,0.1-0.3C336.6,118.4,336.7,118.5,336.7,118.6z M336.2,118.1C336.2,118.1,336.2,118.1,336.2,118.1
	C336.2,118.1,336.2,118.1,336.2,118.1z M336.2,118.1C336.2,118.1,336.2,118.1,336.2,118.1C336.2,118.1,336.2,118.1,336.2,118.1z
	 M336.1,122.3c-0.7-0.7-1.1-1.7-0.6-2.6c0,0,0,0,0,0c0.1-0.1,0.1-0.2,0.2-0.3c-0.2,1.2,0.5,2.2,1,3.3
	C336.5,122.6,336.3,122.5,336.1,122.3z M336.7,122.8C336.7,122.8,336.7,122.8,336.7,122.8C336.7,122.8,336.7,122.8,336.7,122.8z
	 M334.2,128.7C334.2,128.7,334.2,128.7,334.2,128.7C334.2,128.7,334.2,128.7,334.2,128.7z M333.4,125.4c0.8,0.8,1.2,2,0.9,3.2
	c0,0,0,0,0,0c0,0,0,0,0,0.1v0v0c-0.4-0.2-0.7-0.7-0.9-1.1c0,0,0,0,0,0c0,0,0,0,0-0.1c0,0,0,0,0,0c-0.3-0.7-0.2-1.4-0.2-2.2
	C333.2,125.3,333.3,125.4,333.4,125.4z M332.5,125.2C332.5,125.2,332.5,125.2,332.5,125.2C332.5,125.2,332.5,125.2,332.5,125.2z
	 M333.6,128.8c-0.1,0-0.3-0.1-0.4-0.2c0,0,0,0,0,0c-0.5-0.3-0.9-0.8-1-1.4c0,0,0,0,0,0c0,0,0,0,0-0.1c0,0,0,0,0,0
	c0-0.6,0-1.3,0.1-1.9c0.1,0,0.2,0,0.3,0.1c0,0,0,0,0,0c0,0,0,0,0,0c0,0,0,0,0,0c0,0,0,0,0.1,0c0,0,0,0,0,0c0,0,0,0,0,0
	c-0.2,1.2,0,2.7,1.1,3.5C333.8,128.8,333.7,128.8,333.6,128.8z M324,121.9c0.4,0.1,0.8,0.5,0.9,0.9c0,0,0,0,0,0
	c0.1,0.4,0.2,0.8,0.1,1.2c-0.3-0.3-0.5-0.5-0.8-0.8c0,0,0,0,0,0C324,122.8,324,122.4,324,121.9C323.9,121.9,323.9,122,324,121.9
	C323.9,122,323.9,121.9,324,121.9C324,121.9,324,121.9,324,121.9z M324.5,124.2C324.5,124.2,324.5,124.2,324.5,124.2
	C324.5,124.2,324.5,124.2,324.5,124.2C324.5,124.2,324.4,124.2,324.5,124.2C324.4,124.2,324.4,124.2,324.5,124.2
	C324.4,124.2,324.4,124.2,324.5,124.2C324.4,124.2,324.4,124.2,324.5,124.2c-0.9-0.2-1.4-1-0.9-1.7
	C323.6,123.2,324,123.8,324.5,124.2C324.5,124.2,324.5,124.2,324.5,124.2C324.5,124.2,324.5,124.2,324.5,124.2L324.5,124.2
	C324.5,124.2,324.5,124.2,324.5,124.2z M328,134.9c-0.1,0.1-0.1,0.2-0.2,0.4c0,0,0,0,0-0.1c-0.2,0.3-0.3,0.5-0.4,0.9
	c-0.3-1.2,0.6-2.5,0.4-3.7c0.1-1.2-0.9-2.1-0.9-3.3c0,0,0,0,0,0c0-0.4,0-0.7,0.1-1.1c0,0,0,0,0,0c0.1-0.3,0.2-0.5,0.3-0.8
	c0,0,0,0.1,0.1,0.1c0,0,0,0,0,0c0.3,0.9,0.9,1.6,1.5,2.2c0,0,0,0,0,0c0,0.1,0.1,0.1,0.1,0.2c0,0,0,0,0,0c0.2,0.3,0.5,0.7,0.6,1
	c0,0,0,0,0,0c0,0,0,0,0,0.1c0,0,0,0,0,0c0.4,0.8-0.1,1.7-0.5,2.4c0,0,0,0,0,0c0,0,0,0,0,0.1c0,0,0,0,0,0
	C328.8,133.9,328.4,134.4,328,134.9z M327,129.9L327,129.9C327,129.9,327,129.9,327,129.9z M322.9,129.5
	C322.9,129.5,322.9,129.5,322.9,129.5c-0.1-0.5-0.1-1,0.1-1.4c0.1,0,0.1,0,0.2,0.1c0,0,0,0-0.1,0c0.4,0.2,0.9,0.2,1.4,0.4
	c0,0,0,0,0,0c0,0,0,0,0.1,0c0,0,0,0,0,0c2.5,1.7,2.9,4.6,2.1,7.4c-0.4-0.5-1.1-0.7-1.6-1c0,0,0.1,0,0.1,0.1
	c-0.1-0.1-0.2-0.2-0.3-0.2c0,0,0,0,0.1,0c-0.9-0.6-1.5-1.6-1.7-2.7c0,0,0,0,0,0c0,0,0-0.1,0-0.1c0,0,0,0,0,0
	C323.1,131.1,323.1,130.3,322.9,129.5z M326.2,136.4c-0.5,0-1,0.2-1.4,0.4c0,0,0,0,0.1,0c-3,1.3-4.3-1.1-6.3-2.7
	c0.2-0.1,0.3-0.1,0.5-0.2c0,0,0,0,0,0c3.9-1.8,4.2,1.5,7.5,2.5c0,0,0.1,0.1,0.1,0.1C326.5,136.4,326.4,136.4,326.2,136.4z
	 M329.2,139.3C329.2,139.3,329.2,139.4,329.2,139.3c-0.5-1.4-2.2-2.8-0.7-4.1c0,0,0,0,0,0.1c0.3-0.3,0.5-0.6,0.7-0.9
	c0.9,2.7,1.5,5.4,2.1,8.1c0,0,0,0,0,0c0.1,0.5,0.2,0.9,0.2,1.4c0,0,0,0,0,0c0,0.2,0,0.3,0.1,0.5
	C330.8,142.6,330.1,140.9,329.2,139.3z M325.2,144.8C325.2,144.7,325.2,144.7,325.2,144.8C325.2,144.7,325.2,144.7,325.2,144.8z
	 M324.8,145L324.8,145C324.8,145,324.8,145,324.8,145C324.8,145,324.8,145,324.8,145z M323.3,142.4c0.7,0.3,1.3,1,1.4,1.8
	c0,0,0,0,0,0c0,0,0,0,0,0.1c0,0,0,0,0,0c0,0,0,0.1,0,0.1c0,0,0,0,0-0.1c0,0.2,0,0.3,0,0.5c0,0,0,0,0,0c0,0,0,0,0,0.1c0,0,0,0,0,0
	c0,0,0,0.1,0,0.1c-0.6-0.2-1.1-0.6-1.4-1.2c0,0,0,0,0,0c0,0,0,0,0-0.1c0,0,0,0,0,0c-0.2-0.5-0.3-1-0.5-1.5
	C323.1,142.2,323.2,142.3,323.3,142.4z M322.6,142.7C322.6,142.7,322.6,142.8,322.6,142.7C322.6,142.8,322.6,142.8,322.6,142.7
	C322.6,142.8,322.6,142.8,322.6,142.7z M322,142.7C322,142.7,322.1,142.7,322,142.7C322.1,142.7,322.1,142.7,322,142.7z M323.7,145
	c-0.1,0-0.1,0-0.2-0.1c0,0,0,0,0,0c0,0,0,0-0.1,0c0,0,0,0,0,0c-0.9-0.3-1.3-1.2-1.4-2c0,0,0,0,0,0c0,0,0,0,0-0.1c0,0,0,0,0,0
	c0,0,0,0,0,0c0.1,0,0.2,0,0.4,0c0,0,0,0,0,0c0,0,0,0,0.1,0c0,0,0,0,0,0c0.1,0,0.2,0,0.3,0c0,0,0,0,0,0c0,0,0,0,0,0
	c0.2,0.8,0.5,1.7,1.2,2.2C323.9,145,323.8,145,323.7,145z M331.5,164L331.5,164C331.5,164,331.5,164,331.5,164
	C331.5,164,331.5,164,331.5,164z M327.6,161.1L327.6,161.1C327.6,161.1,327.6,161.1,327.6,161.1
	C327.6,161.1,327.6,161.1,327.6,161.1z M330.6,164.7C330.6,164.7,330.6,164.7,330.6,164.7C330.6,164.7,330.6,164.7,330.6,164.7z
	 M328.9,161.1c1,0.7,2.7,2.2,1.7,3.5c-1.5-0.6-1.9-2.2-2-3.7C328.7,161,328.8,161.1,328.9,161.1z M328.1,161.1
	C328.1,161.1,328.1,161.1,328.1,161.1C328.1,161.1,328.1,161.1,328.1,161.1z M329.7,164.9c-1.4-0.5-1.9-2-2-3.3c0,0,0,0,0,0.1
	c0-0.2,0-0.4,0-0.6c0.1,0,0.3,0,0.4,0c0,0.1,0,0.1,0,0.2c0,0,0,0,0-0.1c0,1.5,0.7,3,2.1,3.8C330,165,329.9,165,329.7,164.9z
	 M331.2,170.6L331.2,170.6L331.2,170.6z M328.8,168.9L328.8,168.9C328.8,169,328.8,169,328.8,168.9C328.8,169,328.8,169,328.8,168.9
	z M330.4,170.6c-0.7-0.3-1.3-0.9-1.6-1.6c0.2,0,0.4,0.1,0.7,0.1c0,0,0,0-0.1,0c0.8,0.1,1.2,0.9,1.3,1.6
	C330.6,170.6,330.5,170.6,330.4,170.6z M337,210.1C337,210.1,337,210.1,337,210.1C337,210.1,337,210.1,337,210.1z M337.2,209.9
	C337.2,209.9,337.2,209.9,337.2,209.9C337.2,209.9,337.2,209.9,337.2,209.9C337.2,209.9,337.2,209.9,337.2,209.9
	C337.2,209.9,337.2,209.9,337.2,209.9z M337.4,209.5L337.4,209.5L337.4,209.5C337.4,209.5,337.4,209.5,337.4,209.5z M337.9,208.2
	C337.9,208.2,337.9,208.2,337.9,208.2c-0.1,0.3-0.2,0.7-0.4,1c0,0,0,0,0,0c-0.2,0.2-0.3,0.5-0.6,0.5c-0.1-0.8,0.5-1.4,1-1.9
	C337.9,207.9,337.9,208.1,337.9,208.2z M336.5,208.8c0-0.2,0.2-0.4,0.3-0.5c-0.2,0.2-0.3,0.5-0.4,0.8
	C336.5,209,336.5,208.9,336.5,208.8z M336.5,209.1L336.5,209.1C336.5,209.1,336.5,209.1,336.5,209.1
	C336.5,209.1,336.5,209.1,336.5,209.1z M322.3,213C322.3,213.1,322.3,213.1,322.3,213C322.3,213.1,322.3,213,322.3,213
	C322.3,213,322.3,213,322.3,213z M323,213.2C323,213.2,323,213.2,323,213.2C323,213.2,323,213.2,323,213.2z M321.7,209.6
	c0.3,0.3,0.5,0.6,0.6,1c0,0,0,0,0,0c0.3,0.7,0.2,1.6,0,2.3c-0.2-0.1-0.3-0.3-0.5-0.5c0,0,0,0,0,0c-0.6-0.8-0.4-1.9-0.4-2.8
	c0,0,0,0,0,0c0-0.1,0-0.2,0-0.3C321.6,209.5,321.6,209.5,321.7,209.6z M321.7,213c-0.2-0.1-0.4-0.2-0.5-0.3c0,0,0,0,0,0c0,0,0,0,0,0
	c0,0,0,0,0,0c-0.7-0.5-0.9-1.4-0.5-2.2c0,0.3,0,0.6,0.1,0.9c0,0,0,0,0,0c0.3,0.6,0.6,1.3,1.1,1.7C321.8,213,321.8,213,321.7,213z
	 M329.7,223.3C329.7,223.3,329.7,223.3,329.7,223.3C329.7,223.3,329.7,223.3,329.7,223.3z M335.1,191.4
	C335.1,191.4,335.1,191.4,335.1,191.4C335.1,191.4,335.1,191.4,335.1,191.4z M334.7,191.4C334.8,191.4,334.8,191.4,334.7,191.4
	C334.8,191.4,334.8,191.4,334.7,191.4L334.7,191.4z M334.7,191.4C334.7,191.3,334.7,191.3,334.7,191.4
	C334.7,191.3,334.7,191.3,334.7,191.4z M334.6,194.3c-0.3-0.5-0.5-1-0.2-1.5c0,0,0,0,0,0c0-0.1,0.1-0.2,0.1-0.3c0,0,0,0,0,0
	c0.1-0.3,0.2-0.5,0.4-0.8c0,0,0,0,0,0c0,0,0,0,0,0c0,0,0,0,0,0c0,0,0-0.1,0.1-0.1c0.2,0.1,0.3,0.3,0.4,0.6c0,0,0,0,0,0
	c0.5,0.8,0.1,1.8-0.6,2.4c0,0,0,0,0,0c0,0,0,0,0,0c0,0,0,0,0,0c0,0,0,0,0,0C334.7,194.5,334.7,194.4,334.6,194.3z M333.4,204.2
	c1.4-2,0.1-3.6,2.9-4.9c0.1,0.6,0.2,1.1,0.3,1.7c0,0,0,0,0,0c0,0,0,0,0,0.1c0,0,0,0,0,0c0,0.4,0,0.8,0.1,1.2c0,0,0,0,0,0
	c0,0,0,0,0,0.1c0,0,0,0,0,0c0,0,0,0,0,0c0,0,0,0,0,0c0,0,0,0,0,0.1c0,0,0,0,0,0c0.3,2.2-1,4.1-3.2,4.5c0,0,0,0,0,0
	c-0.7,0.2-1.4,0.6-2.2,0.6c0,0,0.1,0,0.1,0c-0.2,0-0.5,0-0.7,0.1c0.1-0.1,0.2-0.3,0.3-0.4c0,0,0,0,0,0c0.1-0.1,0.1-0.1,0.2-0.2
	c0,0,0,0,0,0c0.1-0.1,0.2-0.2,0.3-0.3c0,0,0,0,0,0c0.7-0.6,1.1-1.4,1.8-2.1c0,0,0,0,0,0c0,0,0,0,0,0c0,0,0,0,0,0c0,0,0,0,0,0
	c0,0,0,0,0,0C333.2,204.5,333.3,204.4,333.4,204.2z M329.7,200.5c0.4-0.9,1.1-1.8,1.9-2.5c0,0,0,0-0.1,0c0,0,0.1,0,0.1,0
	c0,0,0,0,0,0c0.1,0,0.1-0.1,0.2-0.1c0.4,0.5,0.9,1.1,1.1,1.8c0,0,0,0,0,0c0,0,0,0.1,0,0.1c0,0,0,0,0,0c0,0,0,0,0,0.1c0,0,0,0,0,0
	c0,0,0,0,0,0c0,0,0,0,0,0c0,0,0,0,0,0c0,0,0,0,0,0c0,0,0,0,0,0c0.5,1.4,0.8,2.9-0.3,4.1c0,0,0,0,0.1-0.1c-0.4,0.4-0.8,0.8-1.1,1.3
	c0,0,0.1,0,0.1-0.1c-0.4,0.4-0.8,0.9-1.2,1.3c0,0,0,0,0,0c-0.2,0.2-0.4,0.5-0.6,0.8c-0.1,0-0.1,0-0.2,0c0-0.2-0.1-0.4-0.1-0.6
	c0,0,0,0.1,0,0.1c0-0.1,0-0.1-0.1-0.2c0,0,0,0,0,0c-0.2-0.8-0.5-1.6-0.5-2.5c0,0,0,0,0,0.1c0-0.6,0-1.2,0.1-1.9c0,0,0,0.1,0,0.1
	c0-0.1,0-0.1,0-0.2c0,0,0,0.1,0,0.1C329.2,201.7,329.4,201.1,329.7,200.5z M326.2,197.4C326.2,197.4,326.2,197.4,326.2,197.4
	C326.2,197.4,326.2,197.4,326.2,197.4z M326.2,197.4L326.2,197.4C326.2,197.4,326.2,197.4,326.2,197.4
	C326.2,197.4,326.2,197.4,326.2,197.4z M326.2,197.4C326.2,197.4,326.2,197.4,326.2,197.4C326.2,197.4,326.2,197.4,326.2,197.4
	C326.2,197.4,326.2,197.4,326.2,197.4z M326.2,197.4C326.2,197.4,326.2,197.4,326.2,197.4C326.2,197.4,326.2,197.4,326.2,197.4z
	 M326.1,197.4L326.1,197.4L326.1,197.4z M326.1,197.4C326.1,197.4,326.1,197.4,326.1,197.4C326.1,197.4,326.1,197.4,326.1,197.4z
	 M325.1,199.2c0.2-0.5,0.5-1.7,1.1-1.8c0.6,1.2,2.1,1.8,2.5,3.1c0,0,0,0,0,0c0,0,0,0,0,0c-0.9,2.1-0.9,4.5,0,6.6
	c-1-1.3-2.4-2.1-3.2-3.5c0,0,0,0,0,0c0,0,0,0,0-0.1c0,0,0,0,0,0C324.8,202.4,324.7,200.7,325.1,199.2z M328.3,207.4
	c-4.2-0.7-7.5-1.6-7.5-6.6c0.2,0,0.4,0,0.6,0.1c0,0,0,0,0,0c0.9,0.1,1.7,0.4,2.4,0.9c0,0,0,0,0,0c0.1,0,0.1,0.1,0.2,0.1c0,0,0,0,0,0
	c0.7,0.6,0.6,1.8,1.3,2.5c0,0,0,0-0.1-0.1c0.3,0.6,0.8,1.1,1.3,1.5c0,0,0,0-0.1-0.1c0.5,0.4,1,0.8,1.5,1.3c0,0,0,0,0,0
	c0,0,0,0,0.1,0c0,0,0,0,0,0c0.2,0.2,0.5,0.3,0.6,0.5C328.5,207.5,328.4,207.4,328.3,207.4z M330,211.4c0.1-1,0.2-2,0.3-3.1
	c0.8-0.3,1.6-0.1,2.3-0.6c-0.9,4.2-1.7,8.4-2.9,12.6c0-2,0-4.1,0-6.1c0,0,0,0.1,0,0.1c0-0.1,0-0.1,0-0.2c0,0,0,0,0,0
	C329.8,213.2,329.9,212.3,330,211.4z M319.6,228.2c0-0.1,0-0.2,0.1-0.3c0,0,0,0.1,0,0.1c0.1-0.3,0.1-0.6,0.2-1
	c1.2,1.2,1.6,3.1,0.9,4.7c-0.4-0.5-0.8-0.9-1-1.4c0,0,0,0,0,0c0,0,0,0,0-0.1c0,0,0,0,0,0c-0.1-0.2-0.1-0.5-0.2-0.7c0,0,0,0,0,0
	c-0.1-0.4,0-0.8,0-1.2c0,0,0,0,0,0C319.5,228.3,319.6,228.3,319.6,228.2C319.6,228.2,319.6,228.2,319.6,228.2z M319.7,226.9
	L319.7,226.9z M317.8,227C317.8,227,317.8,227,317.8,227C317.8,227,317.8,226.9,317.8,227C317.8,226.9,317.8,227,317.8,227z
	 M317.6,227.3L317.6,227.3L317.6,227.3z M319.8,231.8c-2-0.4-2.8-2.1-2.2-4c0,0,0,0,0,0c0,0,0-0.1,0-0.1c0,0,0,0,0,0
	c0-0.1,0-0.3,0.1-0.4c0.4,0.1,0.7,0.2,1,0.4c0,0,0,0,0,0c0.1,0.1,0.2,0.1,0.3,0.2c-0.2,1.2,0,2.5,0.8,3.4c0,0,0,0,0,0c0,0,0,0,0,0
	c0,0,0,0,0,0c0.2,0.2,0.3,0.5,0.5,0.7C320.2,232,320,231.9,319.8,231.8z M320.4,232C320.4,232,320.4,232,320.4,232
	C320.4,232,320.4,232,320.4,232C320.4,232,320.4,232,320.4,232z M336.4,221.7C336.4,221.7,336.4,221.7,336.4,221.7
	C336.4,221.7,336.4,221.7,336.4,221.7z M336.9,218.1c0.2-0.2,0.3,0.1,0.4,0.3c0,0,0,0,0,0c0,0,0,0,0,0.1c0,0,0,0,0,0
	c0,0.4,0,0.8-0.1,1.3c0,0,0,0,0-0.1c-0.1,0.5-0.5,1-0.9,1.4c0,0,0,0,0,0c0,0,0,0-0.1,0c0,0,0,0,0,0c-0.1,0-0.1,0.1-0.2,0.1
	c0-0.1,0-0.2,0-0.3c0,0,0,0,0,0.1c0-0.2-0.1-0.5-0.1-0.7v0c0-0.2,0-0.4,0-0.6c0,0,0,0,0,0C336.1,219,336.4,218.5,336.9,218.1z
	 M336.4,218C336.3,218,336.3,218,336.4,218C336.3,218,336.3,218,336.4,218z M336.2,218L336.2,218C336.2,218,336.2,218,336.2,218z
	 M335.6,221.3c-0.6-0.6-0.9-1.5-0.3-2.3c0,0,0,0,0,0c0.1-0.1,0.1-0.1,0.2-0.2c0,0,0,0,0,0c0.1-0.1,0.2-0.3,0.3-0.5c0,0,0,0,0,0
	c0.1-0.1,0.2-0.2,0.3-0.2c0,0,0,0,0,0c0.1,0,0.1-0.1,0.2-0.1c0,0,0,0.1,0,0.1C335.3,219,335.6,220.3,335.6,221.3
	C335.7,221.3,335.7,221.3,335.6,221.3z M353.1,246.5c0.4-0.9,1.5-1.5,2.4-1.9c-0.2,1.5-1.1,3-2.5,3.6c0-0.3,0-0.5,0-0.8c0,0,0,0,0,0
	c0,0,0-0.1,0-0.1c0,0,0,0,0,0c0,0,0,0,0,0c0,0,0,0,0,0C353,247.1,353,246.8,353.1,246.5z M342.2,254.2
	C342.2,254.2,342.3,254.2,342.2,254.2C342.3,254.2,342.3,254.2,342.2,254.2z M378.7,198.5C378.7,198.5,378.7,198.5,378.7,198.5
	c0.1,0.5,0.1,1.1,0,1.7c0,0,0,0,0,0c0,0,0,0.1,0,0.1c0,0,0,0,0-0.1c-0.2,0.7-0.6,1.4-1.4,1.3c0.6-0.5,1.1-1.1,1.2-1.8c0,0,0,0,0,0
	c0.2-0.5,0.2-1,0.2-1.5C378.7,198.3,378.7,198.4,378.7,198.5z M376.6,200.3c0-0.3,0.1-0.6,0.2-0.9c0,0,0,0,0,0
	c0.3-0.9,0.6-1.7,1.4-2.2c0,0.4,0.1,0.9,0,1.3c0,0,0,0,0,0c0,0,0,0,0,0.1c0,0,0,0,0,0c0,1-0.6,1.7-1.3,2.3c0,0,0,0,0,0c0,0,0,0,0,0
	c0,0,0,0,0,0c-0.1,0.1-0.2,0.2-0.3,0.3C376.7,200.9,376.5,200.6,376.6,200.3C376.6,200.4,376.6,200.4,376.6,200.3
	C376.6,200.4,376.6,200.3,376.6,200.3C376.6,200.3,376.6,200.3,376.6,200.3z M381.9,169.1C381.9,169.1,381.9,169.1,381.9,169.1
	C381.9,169.1,381.9,169.1,381.9,169.1L381.9,169.1z M384.8,167.4c-0.3,1.1-1.2,2.1-2.5,1.9c0,0,0.1-0.1,0.1-0.1c0,0,0,0,0,0.1
	c0.1-0.1,0.1-0.2,0.2-0.3c0,0,0,0,0,0C382.9,168.1,383.8,167.3,384.8,167.4C384.8,167.4,384.8,167.4,384.8,167.4z M382,168.5
	C382,168.5,382,168.5,382,168.5C382,168.5,382,168.5,382,168.5c0.2-0.6,0.7-1.2,1.3-1.4c0,0,0,0,0,0c0,0,0.1,0,0.1,0c0,0,0,0,0,0
	c0,0,0,0,0.1,0c0,0,0,0,0,0c0.2-0.1,0.4,0,0.6,0c-0.9,0.3-1.7,1-2,1.9c0,0,0,0,0,0c0,0,0,0,0,0c0,0,0,0,0,0c0,0,0,0.1-0.1,0.1
	C381.9,168.9,382,168.7,382,168.5C382,168.5,382,168.5,382,168.5C382,168.5,382,168.5,382,168.5z M384.3,153.9L384.3,153.9
	C384.3,153.9,384.3,153.9,384.3,153.9C384.3,153.9,384.3,153.9,384.3,153.9z M384.3,153.9L384.3,153.9
	C384.3,153.9,384.2,153.9,384.3,153.9C384.2,153.9,384.3,153.9,384.3,153.9z M380.9,154.9c0.3-0.5,0.7-0.8,1.3-0.9c0,0,0,0,0,0
	c0,0,0.1,0,0.1,0c0,0,0,0,0,0c0.6-0.1,1.3-0.2,2,0c-0.4,1.5-1,3.2-2.1,4.2c0,0,0,0,0.1,0c0,0-0.1,0-0.1,0.1c0,0,0,0,0.1,0
	c-0.6,0.3-1.3,0.7-2.1,0.7c0,0,0,0,0,0c0,0,0,0-0.1,0c0,0,0,0,0,0c-0.3,0-0.6-0.1-0.9-0.1c0,0,0.1,0,0.1,0c-0.2,0-0.3,0-0.5,0
	c0,0,0.1,0,0.1,0c-0.1,0-0.2,0-0.2,0C379.8,157.7,380.2,156.1,380.9,154.9z M376.5,153.3c0.6-1.5,3.1-4.2,3.7-1.3c0,0,0,0,0,0
	c0,0,0,0,0,0.1c0,0,0,0,0,0c0.4,0.9-0.1,1.8-0.3,2.6c0,0,0,0,0,0c0,0.1,0,0.1,0,0.2c0,0,0,0,0,0c-0.3,1.5-1.2,2.8-2.4,3.8
	c0,0,0-0.1,0-0.1c0,0,0,0,0,0c0,0,0,0,0,0c0,0,0,0,0,0c0,0,0,0,0-0.1c0,0,0,0,0,0C377.3,156.6,375.8,155,376.5,153.3z M375.1,153.4
	C375.1,153.4,375.1,153.4,375.1,153.4C375.1,153.4,375.1,153.4,375.1,153.4C375.1,153.4,375.1,153.4,375.1,153.4
	C375.1,153.4,375.1,153.4,375.1,153.4z M376.6,158.3c-2-0.7-4.3-1.8-3.8-4.3c-0.5-4.2,1.4-1.4,2.9,0.1c-0.1,0.7,0.1,1.4,0.4,2
	c0,0,0,0,0,0c0.2,0.8,0.7,1.6,0.9,2.4C376.8,158.4,376.7,158.3,376.6,158.3z M377.1,159.5C377.1,159.5,377.1,159.5,377.1,159.5
	C377.1,159.5,377.1,159.5,377.1,159.5C377.1,159.5,377.1,159.5,377.1,159.5z M386.4,158.1c-0.6,0.5-1.3,1-1.8,1.7c0,0,0,0,0,0
	c-1.1,1.7-2.1,1.1-3.6,0.7c0,0,0,0,0,0c0,0,0,0-0.1,0c0,0,0,0,0,0c-0.5-0.2-1-0.2-1.4-0.5c0,0,0,0,0,0c0,0,0,0-0.1,0c0,0,0,0,0,0
	c-0.2-0.1-0.4-0.3-0.6-0.4c1.6,0,3.5-0.3,4.3-1.9C384.3,157,385.6,157.4,386.4,158.1C386.5,158,386.4,158,386.4,158.1z"/>
<path id="ad2" class="esculpidaAd2" d="M138.5,94.7c11.7-23,31.9-41.1,56.4-49.9 M217.7,331.6c-30.9-3.5-57.7-21-74-46.1"/>
<path id="ad1" class="esculpidaAd1" d="M295.2,337.1c-18.3,11.8-40.1,18.7-63.4,18.7c-64.9,0-117.9-53.4-117.9-118.6V133.9
	c0-65.2,53.1-118.6,117.9-118.6c29.3,0,56.3,10.9,77,28.9"/>
<path id="fndTxt" class="esculpidaFndTxt" d="M9.5,377.3h480.8c4.7,0,8.5,3.9,8.5,8.6v103.7c0,4.7-3.8,8.6-8.5,8.6H9.5c-4.7,0-8.5-3.9-8.5-8.6
	V385.9C0.9,381.1,4.8,377.3,9.5,377.3"/>
<g id="txt">
	<path class="esculpidaTxt" d="M40.4,456.8c0-0.8,0.4-1.2,1.2-1.2h5.7c0.8,0,1.2-0.4,1.2-1.2v-49.6c0-0.8-0.4-1.2-1.2-1.2h-5.7
		c-0.8,0-1.2-0.4-1.2-1.2s0.4-1.2,1.2-1.2H80c0.8,0,1.2,0.4,1.2,1.2v11.4c0,0.8-0.4,1.2-1.2,1.2s-1.2-0.4-1.2-1.2v-8.9
		c0-0.8-0.4-1.2-1.2-1.2H52.2c-0.8,0-1.2,0.4-1.2,1.2v21.9c0,0.8,0.4,1.2,1.2,1.2h18.2c0.8,0,1.2-0.4,1.2-1.2v-4.1
		c0-0.8,0.4-1.2,1.2-1.2s1.2,0.4,1.2,1.2v13c0,0.8-0.4,1.2-1.2,1.2s-1.2-0.4-1.2-1.2v-4.1c0-0.8-0.4-1.2-1.2-1.2H52.2
		c-0.8,0-1.2,0.4-1.2,1.2v22.8c0,0.8,0.4,1.2,1.2,1.2h26.3c0.8,0,1.2-0.4,1.2-1.2v-8.9c0-0.8,0.4-1.2,1.2-1.2s1.2,0.4,1.2,1.2v11.4
		c0,0.8-0.4,1.2-1.2,1.2H41.7C40.8,458,40.4,457.6,40.4,456.8z"/>
	<path class="esculpidaTxt" d="M109.8,456.4c4.7,0,8.3-0.8,10.8-2.5c2.5-1.7,3.8-3.8,3.8-6.5c0-3.6-2.6-6-7.7-7.2c-2.4-0.5-5.2-1.1-8.6-1.5
		c-3.3-0.5-5.7-0.9-7.2-1.4c-3.2-0.9-5.7-2.1-7.3-3.6s-2.4-3.7-2.4-6.6s1.4-5.3,4.3-7.4c2.9-2.1,6.9-3.2,12.1-3.2
		c5.2,0,9.8,2,13.8,6.1c0.5,0.5,0.8,0.7,1,0.3c0.2-0.3,0.3-0.7,0.3-1.1v-3.3c0-0.8,0.4-1.2,1.2-1.2s1.2,0.4,1.2,1.2v13
		c0,0.8-0.4,1.2-1.2,1.2s-1.2-0.4-1.2-1.2v-4.1c-2.3-3.1-5.3-5.5-8.9-7.2c-1.9-0.9-4-1.3-6.4-1.3c-4.4,0-7.8,0.8-10.2,2.4
		c-2.4,1.6-3.6,3.6-3.6,6.1c0,2.4,1,4.3,3.1,5.6c2.1,1.3,5.2,2.3,9.5,3c1.8,0.3,3.7,0.6,5.6,0.9c1.9,0.3,3.6,0.6,5.1,0.9
		c3.1,0.7,5.5,1.8,7.3,3.3c1.7,1.5,2.6,3.7,2.6,6.7s-1.4,5.6-4.2,7.8c-2.8,2.2-7.1,3.3-12.7,3.3c-4.4,0-8.5-1.3-12.3-3.9
		c-1.1-0.8-1.9-1.4-2.5-2.1c-0.6-0.6-1-0.8-1.1-0.4s-0.2,0.7-0.2,1.1v3.3c0,0.8-0.4,1.2-1.2,1.2s-1.2-0.4-1.2-1.2v-13
		c0-0.8,0.4-1.2,1.2-1.2s1.2,0.4,1.2,1.2v4.1c2.2,3.1,5.2,5.6,9.1,7.2C104.7,456,107,456.4,109.8,456.4z"/>
	<path class="esculpidaTxt" d="M168.4,427.5c-4.4-5.7-9.5-8.5-15.4-8.5c-4.4,0-8,1.7-11,5.2c-2.9,3.5-4.4,8.1-4.4,13.7
		c0,5.6,1.5,10.1,4.6,13.5c3.1,3.4,7.1,5.1,12.1,5.1c5,0,9.1-1.4,12.4-4.1c0.9-0.7,1.5-1.2,2-1.6c0.5-0.4,0.9-0.6,1.1-0.4
		c0.3,0.1,0.5,0.4,0.8,0.7c0.3,0.3,0.4,0.6,0.4,0.9c0,0.2-0.2,0.6-0.7,1.1c-1.8,1.6-3.9,3-6.5,4.1c-2.6,1.2-5.8,1.8-9.7,1.8
		c-5.7,0-10.3-2-13.8-5.9c-3.5-3.9-5.2-9-5.2-15.2c0-6.2,1.7-11.3,5.1-15.2c3.4-3.9,7.7-5.9,12.9-5.9c5.2,0,9.8,2,13.9,6.1
		c0.9,0.8,1.3,0.5,1.3-0.8v-3.3c0-0.8,0.4-1.2,1.2-1.2c0.8,0,1.2,0.4,1.2,1.2v13c0,0.8-0.4,1.2-1.2,1.2c-0.8,0-1.2-0.4-1.2-1.2
		V427.5z"/>
	<path class="esculpidaTxt" d="M177.6,417.4h8.1c0.8,0,1.2,0.4,1.2,1.2v24c0,4.6,1.2,8.1,3.6,10.4c2.4,2.3,5.6,3.5,9.7,3.5
		c4.1,0,7.9-1.8,11.6-5.4c1.6-1.7,3-3.5,4.3-5.5V421c0-0.8-0.4-1.2-1.2-1.2h-5.7c-0.8,0-1.2-0.4-1.2-1.2s0.4-1.2,1.2-1.2h8.1
		c0.8,0,1.2,0.4,1.2,1.2v35.8c0,0.8,0.4,1.2,1.2,1.2h5.7c0.8,0,1.2,0.4,1.2,1.2c0,0.8-0.4,1.2-1.2,1.2h-8.1c-0.8,0-1.2-0.4-1.2-1.2
		v-4.6c0-0.5-0.1-0.9-0.3-1.1c-0.2-0.2-0.5-0.1-1,0.3c-4.4,4.9-9.1,7.4-14.2,7.4c-5.1,0-9.1-1.4-11.8-4.2c-2.8-2.8-4.2-6.8-4.2-12.1
		V421c0-0.8-0.4-1.2-1.2-1.2h-5.7c-0.8,0-1.2-0.4-1.2-1.2S176.8,417.4,177.6,417.4z"/>
	<path class="esculpidaTxt" d="M229.6,456.8c0-0.8,0.4-1.2,1.2-1.2h5.7c0.8,0,1.2-0.4,1.2-1.2v-49.6c0-0.8-0.4-1.2-1.2-1.2h-5.7
		c-0.8,0-1.2-0.4-1.2-1.2s0.4-1.2,1.2-1.2h8.1c0.8,0,1.2,0.4,1.2,1.2v52c0,0.8,0.4,1.2,1.2,1.2h5.7c0.8,0,1.2,0.4,1.2,1.2
		c0,0.8-0.4,1.2-1.2,1.2h-16.2C230,458,229.6,457.6,229.6,456.8z"/>
	<path class="esculpidaTxt" d="M262.6,458c-0.8,0-1.2,0.4-1.2,1.2v11.4c0,0.8,0.4,1.2,1.2,1.2h6.5c0.8,0,1.2,0.4,1.2,1.2s-0.4,1.2-1.2,1.2
		h-17c-0.8,0-1.2-0.4-1.2-1.2s0.4-1.2,1.2-1.2h5.7c0.8,0,1.2-0.4,1.2-1.2V421c0-0.8-0.4-1.2-1.2-1.2h-5.7c-0.8,0-1.2-0.4-1.2-1.2
		s0.4-1.2,1.2-1.2h8.1c0.8,0,1.2,0.4,1.2,1.2v4.6c0,0.5,0.1,0.9,0.3,1.1c0.2,0.2,0.5,0.1,1-0.3c1.3-1.7,3.3-3.4,5.9-5
		c2.6-1.6,5.6-2.4,9-2.4c5.4,0,9.7,1.9,12.9,5.7c3.2,3.8,4.8,9,4.8,15.4c0,6.4-1.9,11.5-5.8,15c-3.9,3.5-9.2,5.3-16,5.3H262.6z
		 M273.5,455.6c6.2,0,11-1.5,14.3-4.6c3.4-3,5.1-7.5,5.1-13.4c0-5.9-1.4-10.5-4.2-13.7c-2.8-3.3-6.5-4.9-11-4.9
		c-4.5,0-8.5,1.8-12.2,5.5c-1.5,1.5-2.9,3.3-4.1,5.4v24.4c0,0.8,0.4,1.2,1.2,1.2H273.5z"/>
	<path class="esculpidaTxt" d="M302,456.8c0-0.8,0.4-1.2,1.2-1.2h5.7c0.8,0,1.2-0.4,1.2-1.2V421c0-0.8-0.4-1.2-1.2-1.2h-5.7
		c-0.8,0-1.2-0.4-1.2-1.2s0.4-1.2,1.2-1.2h8.1c0.8,0,1.2,0.4,1.2,1.2v35.8c0,0.8,0.4,1.2,1.2,1.2h5.7c0.8,0,1.2,0.4,1.2,1.2
		c0,0.8-0.4,1.2-1.2,1.2h-16.2C302.4,458,302,457.6,302,456.8z M308.6,409.9c-0.6-0.6-0.9-1.4-0.9-2.3c0-0.9,0.3-1.7,0.9-2.3
		c0.6-0.6,1.4-0.9,2.3-0.9c0.9,0,1.7,0.3,2.3,0.9c0.6,0.6,0.9,1.4,0.9,2.3c0,0.9-0.3,1.7-0.9,2.3c-0.6,0.6-1.4,0.9-2.3,0.9
		C310,410.9,309.2,410.6,308.6,409.9z"/>
	<path class="esculpidaTxt" d="M359.7,404.8c0-0.8-0.4-1.2-1.2-1.2H352c-0.8,0-1.2-0.4-1.2-1.2s0.4-1.2,1.2-1.2h8.9c0.8,0,1.2,0.4,1.2,1.2v52
		c0,0.8,0.4,1.2,1.2,1.2h5.7c0.8,0,1.2,0.4,1.2,1.2c0,0.8-0.4,1.2-1.2,1.2h-8.1c-0.8,0-1.2-0.4-1.2-1.2v-4.6c0-0.5-0.1-0.9-0.3-1.1
		c-0.2-0.2-0.5-0.1-1,0.3c-1.3,1.8-3.3,3.5-5.9,5c-2.6,1.6-5.4,2.4-8.4,2.4c-5.7,0-10.2-1.9-13.4-5.6c-3.2-3.8-4.8-8.9-4.8-15.4
		c0-6.5,1.9-11.5,5.8-15.1c3.9-3.5,9.2-5.3,16-5.3h10.9c0.8,0,1.2-0.4,1.2-1.2V404.8z M359.7,421c0-0.8-0.4-1.2-1.2-1.2h-10.9
		c-6.1,0-10.9,1.5-14.3,4.6c-3.4,3-5.1,7.5-5.1,13.4s1.4,10.5,4.2,13.7c2.8,3.3,6.5,4.9,11,4.9c4.5,0,8.6-1.8,12.2-5.4
		c1.5-1.5,2.9-3.4,4.1-5.5V421z"/>
	<path class="esculpidaTxt" d="M394.1,416.6c4.5,0,8.2,1.3,10.9,3.9c2.7,2.6,4.1,5.8,4.1,9.5v24.4c0,0.8,0.4,1.2,1.2,1.2h5.7
		c0.8,0,1.2,0.4,1.2,1.2c0,0.8-0.4,1.2-1.2,1.2h-8.1c-0.8,0-1.2-0.4-1.2-1.2v-4.6c0-0.5-0.1-0.9-0.3-1.1c-0.2-0.2-0.5-0.1-1,0.3
		c-1.5,1.8-3.5,3.5-6.1,5.1c-2.6,1.5-5.3,2.3-8.1,2.3c-5,0-8.8-1.1-11.4-3.4s-3.9-5.2-3.9-8.7c0-3.6,1.5-6.5,4.4-8.8
		c3-2.3,6.9-3.5,11.7-3.5h13.3c0.8,0,1.2-0.4,1.2-1.2V430c0-3.1-1.2-5.8-3.6-7.8c-2.4-2.1-5.3-3.1-8.7-3.1c-3.4,0-6.3,0.5-8.5,1.4
		c-2.2,0.9-3.8,1.8-4.6,2.5c-0.9,0.7-1.6,0.7-2,0.1c-0.5-0.7-0.4-1.2,0.2-1.6C383.3,418.2,388.2,416.6,394.1,416.6z M406.7,438.1
		c0-0.8-0.4-1.2-1.2-1.2h-13.3c-4.7,0-8.1,0.9-10.4,2.8c-2.2,1.8-3.4,4.2-3.4,7s1,5.2,3.1,7c2.1,1.8,5.2,2.7,9.4,2.7
		c5.2,0,9.8-2.7,13.8-8c0.7-0.9,1.3-1.9,1.9-3V438.1z"/>
	<path class="esculpidaTxt" d="M442.3,456.4c4.7,0,8.3-0.8,10.8-2.5c2.5-1.7,3.8-3.8,3.8-6.5c0-3.6-2.6-6-7.7-7.2c-2.4-0.5-5.2-1.1-8.6-1.5
		c-3.3-0.5-5.7-0.9-7.2-1.4c-3.2-0.9-5.7-2.1-7.3-3.6s-2.4-3.7-2.4-6.6s1.4-5.3,4.3-7.4c2.9-2.1,6.9-3.2,12.1-3.2
		c5.2,0,9.8,2,13.8,6.1c0.5,0.5,0.8,0.7,1,0.3c0.2-0.3,0.3-0.7,0.3-1.1v-3.3c0-0.8,0.4-1.2,1.2-1.2c0.8,0,1.2,0.4,1.2,1.2v13
		c0,0.8-0.4,1.2-1.2,1.2c-0.8,0-1.2-0.4-1.2-1.2v-4.1c-2.3-3.1-5.3-5.5-8.9-7.2c-1.9-0.9-4-1.3-6.4-1.3c-4.4,0-7.8,0.8-10.2,2.4
		c-2.4,1.6-3.6,3.6-3.6,6.1c0,2.4,1,4.3,3.1,5.6c2.1,1.3,5.2,2.3,9.5,3c1.8,0.3,3.7,0.6,5.6,0.9c1.9,0.3,3.6,0.6,5.1,0.9
		c3.1,0.7,5.5,1.8,7.3,3.3c1.7,1.5,2.6,3.7,2.6,6.7s-1.4,5.6-4.2,7.8c-2.8,2.2-7.1,3.3-12.7,3.3c-4.4,0-8.5-1.3-12.3-3.9
		c-1.1-0.8-1.9-1.4-2.5-2.1c-0.6-0.6-1-0.8-1.1-0.4c-0.2,0.3-0.2,0.7-0.2,1.1v3.3c0,0.8-0.4,1.2-1.2,1.2c-0.8,0-1.2-0.4-1.2-1.2v-13
		c0-0.8,0.4-1.2,1.2-1.2c0.8,0,1.2,0.4,1.2,1.2v4.1c2.2,3.1,5.2,5.6,9.1,7.2C437.2,456,439.6,456.4,442.3,456.4z"/>
</g>
</svg>
