<?xml version="1.0" encoding="utf-8"?>
<!-- Generator: Adobe Illustrator 16.0.0, SVG Export Plug-In . SVG Version: 6.00 Build 0)  -->
<!DOCTYPE svg PUBLIC "-//W3C//DTD SVG 1.1//EN" "http://www.w3.org/Graphics/SVG/1.1/DTD/svg11.dtd">
<svg version="1.1" id="Capa_1" xmlns="http://www.w3.org/2000/svg" xmlns:xlink="http://www.w3.org/1999/xlink" x="0px" y="0px"
	 width="80px" height="100px" viewBox="0 0 80 100" style="enable-background:new 0 0 80 100;" xml:space="preserve">
<style type="text/css">
<![CDATA[
	.st0{fill-rule:evenodd;clip-rule:evenodd;}
]]>
</style>
<g>
	<path d="M2.9,94.2H4c0.2,0,0.2-0.1,0.2-0.2v-9.9c0-0.2-0.1-0.2-0.2-0.2H2.9c-0.2,0-0.2-0.1-0.2-0.2s0.1-0.2,0.2-0.2h1.8
		c0.2,0,0.3,0.1,0.4,0.2l4.5,10c0.1,0.2,0.2,0.2,0.3,0l4.5-10c0.1-0.2,0.2-0.2,0.4-0.2h1.8c0.2,0,0.2,0.1,0.2,0.2s-0.1,0.2-0.2,0.2
		h-1.1c-0.2,0-0.2,0.1-0.2,0.2V94c0,0.2,0.1,0.2,0.2,0.2h1.1c0.2,0,0.2,0.1,0.2,0.2c0,0.2-0.1,0.2-0.2,0.2h-3.1
		c-0.2,0-0.2-0.1-0.2-0.2c0-0.2,0.1-0.2,0.2-0.2h1c0.2,0,0.2-0.1,0.2-0.2v-9.5c0-0.1,0-0.2-0.1-0.1c0,0,0,0-0.1,0l-4.5,10
		c-0.1,0.2-0.2,0.2-0.4,0.2c-0.2,0-0.3-0.1-0.4-0.2l-4.5-10c0-0.1-0.1-0.1-0.1,0s0,0.1,0,0.1V94c0,0.2,0.1,0.2,0.2,0.2h1
		c0.2,0,0.2,0.1,0.2,0.2c0,0.2-0.1,0.2-0.2,0.2H2.9c-0.2,0-0.2-0.1-0.2-0.2C2.7,94.3,2.8,94.2,2.9,94.2z"/>
</g>
<g>
	<path d="M21.6,86.5c0.9,0,1.6,0.3,2.2,0.8c0.5,0.5,0.8,1.1,0.8,1.9V94c0,0.2,0.1,0.2,0.2,0.2H26c0.2,0,0.2,0.1,0.2,0.2
		c0,0.2-0.1,0.2-0.2,0.2h-1.6c-0.2,0-0.2-0.1-0.2-0.2v-0.9c0-0.1,0-0.2-0.1-0.2s-0.1,0-0.2,0.1c-0.3,0.4-0.7,0.7-1.2,1
		s-1.1,0.5-1.6,0.5c-1,0-1.8-0.2-2.3-0.7c-0.5-0.4-0.8-1-0.8-1.7s0.3-1.3,0.9-1.8c0.6-0.5,1.4-0.7,2.3-0.7h2.7
		c0.2,0,0.2-0.1,0.2-0.2v-0.6c0-0.6-0.2-1.1-0.7-1.6c-0.5-0.4-1.1-0.6-1.7-0.6c-0.7,0-1.2,0.1-1.7,0.3c-0.4,0.2-0.7,0.4-0.9,0.5
		c-0.2,0.1-0.3,0.1-0.4,0c-0.1-0.1-0.1-0.2,0-0.3C19.5,86.8,20.5,86.5,21.6,86.5z M24.1,90.7c0-0.2-0.1-0.2-0.2-0.2h-2.7
		c-0.9,0-1.6,0.2-2.1,0.5c-0.4,0.4-0.7,0.8-0.7,1.4s0.2,1,0.6,1.4c0.4,0.4,1,0.5,1.9,0.5c1,0,2-0.5,2.8-1.6c0.1-0.2,0.3-0.4,0.4-0.6
		V90.7z"/>
	<path d="M27.4,94.2h1.1c0.2,0,0.2-0.1,0.2-0.2v-6.6c0-0.2-0.1-0.2-0.2-0.2h-1.1c-0.2,0-0.2-0.1-0.2-0.2c0-0.2,0.1-0.2,0.2-0.2H29
		c0.2,0,0.2,0.1,0.2,0.2v0.9c0,0.1,0,0.2,0.1,0.2c0,0,0.1,0,0.2-0.1c0.9-1,1.8-1.5,2.8-1.5c1,0,1.8,0.3,2.4,0.8s0.8,1.4,0.8,2.4V94
		c0,0.2,0.1,0.2,0.2,0.2h1.1c0.2,0,0.2,0.1,0.2,0.2c0,0.2-0.1,0.2-0.2,0.2h-3.1c-0.2,0-0.2-0.1-0.2-0.2c0-0.2,0.1-0.2,0.2-0.2h1
		c0.2,0,0.2-0.1,0.2-0.2v-4.3c0-0.9-0.2-1.6-0.7-2.1c-0.5-0.5-1.1-0.7-1.9-0.7s-1.6,0.4-2.3,1.1c-0.3,0.3-0.6,0.7-0.8,1.1V94
		c0,0.2,0.1,0.2,0.2,0.2h1c0.2,0,0.2,0.1,0.2,0.2c0,0.2-0.1,0.2-0.2,0.2h-3.1c-0.2,0-0.2-0.1-0.2-0.2C27.1,94.3,27.2,94.2,27.4,94.2
		z"/>
	<path d="M37.9,94.5c0-0.2,0.1-0.2,0.2-0.2h1.1c0.2,0,0.2-0.1,0.2-0.2v-6.6c0-0.2-0.1-0.2-0.2-0.2h-1.1c-0.2,0-0.2-0.1-0.2-0.2
		c0-0.2,0.1-0.2,0.2-0.2h1.6c0.2,0,0.2,0.1,0.2,0.2V94c0,0.2,0.1,0.2,0.2,0.2h1.1c0.2,0,0.2,0.1,0.2,0.2c0,0.2-0.1,0.2-0.2,0.2h-3.2
		C38,94.7,37.9,94.6,37.9,94.5z M39.2,85.1C39.1,85,39,84.9,39,84.7s0.1-0.3,0.2-0.5c0.1-0.1,0.3-0.2,0.5-0.2c0.2,0,0.3,0.1,0.5,0.2
		s0.2,0.3,0.2,0.5s-0.1,0.3-0.2,0.5c-0.1,0.1-0.3,0.2-0.5,0.2C39.5,85.3,39.3,85.3,39.2,85.1z"/>
	<path d="M49.3,88.6c-0.9-1.1-1.9-1.7-3.1-1.7c-0.9,0-1.6,0.3-2.2,1c-0.6,0.7-0.9,1.6-0.9,2.7s0.3,2,0.9,2.7c0.6,0.7,1.4,1,2.4,1
		c1,0,1.8-0.3,2.5-0.8c0.2-0.1,0.3-0.2,0.4-0.3c0.1-0.1,0.2-0.1,0.2-0.1c0.1,0,0.1,0.1,0.2,0.1s0.1,0.1,0.1,0.2s0,0.1-0.1,0.2
		c-0.4,0.3-0.8,0.6-1.3,0.8s-1.2,0.4-1.9,0.4c-1.1,0-2.1-0.4-2.7-1.2c-0.7-0.8-1-1.8-1-3c0-1.2,0.3-2.3,1-3s1.5-1.2,2.6-1.2
		s2,0.4,2.8,1.2c0.2,0.2,0.3,0.1,0.3-0.2v-0.6c0-0.2,0.1-0.2,0.2-0.2s0.2,0.1,0.2,0.2v2.6c0,0.2-0.1,0.2-0.2,0.2s-0.2-0.1-0.2-0.2
		V88.6z"/>
	<path d="M51.2,86.6h1.6c0.2,0,0.2,0.1,0.2,0.2v4.8c0,0.9,0.2,1.6,0.7,2.1c0.5,0.5,1.1,0.7,1.9,0.7c0.8,0,1.6-0.4,2.3-1.1
		c0.3-0.3,0.6-0.7,0.9-1.1v-4.9c0-0.2-0.1-0.2-0.2-0.2h-1.1c-0.2,0-0.2-0.1-0.2-0.2c0-0.2,0.1-0.2,0.2-0.2H59c0.2,0,0.2,0.1,0.2,0.2
		V94c0,0.2,0.1,0.2,0.2,0.2h1.1c0.2,0,0.2,0.1,0.2,0.2c0,0.2-0.1,0.2-0.2,0.2H59c-0.2,0-0.2-0.1-0.2-0.2v-0.9c0-0.1,0-0.2-0.1-0.2
		s-0.1,0-0.2,0.1c-0.9,1-1.8,1.5-2.8,1.5s-1.8-0.3-2.4-0.8c-0.6-0.6-0.8-1.4-0.8-2.4v-4.3c0-0.2-0.1-0.2-0.2-0.2h-1.1
		c-0.2,0-0.2-0.1-0.2-0.2C50.9,86.7,51,86.6,51.2,86.6z"/>
	<path d="M67.9,86.9c-1.4,0-2.5,0.5-3.4,1.6c-0.3,0.3-0.5,0.6-0.6,0.9V94c0,0.2,0.1,0.2,0.2,0.2h1.3c0.2,0,0.2,0.1,0.2,0.2
		c0,0.2-0.1,0.2-0.2,0.2H62c-0.2,0-0.2-0.1-0.2-0.2c0-0.2,0.1-0.2,0.2-0.2h1.1c0.2,0,0.2-0.1,0.2-0.2v-6.6c0-0.2-0.1-0.2-0.2-0.2H62
		c-0.2,0-0.2-0.1-0.2-0.2c0-0.2,0.1-0.2,0.2-0.2h1.6c0.2,0,0.2,0.1,0.2,0.2v1.3c0,0.3,0.1,0.3,0.3,0c0.4-0.5,0.9-0.9,1.6-1.2
		s1.3-0.5,2.1-0.5h0.8c0.2,0,0.2,0.1,0.2,0.2v2c0,0.2-0.1,0.2-0.2,0.2s-0.2-0.1-0.2-0.2v-1.5c0-0.2-0.1-0.2-0.2-0.2H67.9z"/>
	<path d="M76.5,93.6c0.2-0.1,0.3-0.2,0.4-0.3c0.1-0.1,0.2-0.1,0.2-0.1c0.1,0,0.1,0.1,0.2,0.2c0.1,0.1,0.1,0.2-0.1,0.3
		c-0.4,0.3-0.8,0.6-1.3,0.9c-0.5,0.2-1.1,0.4-1.9,0.4c-1.1,0-2.1-0.4-2.7-1.2s-1-1.8-1-3c0-1.2,0.3-2.2,1-3c0.7-0.8,1.6-1.2,2.7-1.2
		c1.1,0,2,0.4,2.7,1.1c0.7,0.7,1.1,1.6,1.1,2.6v0.2c0,0.3-0.2,0.5-0.5,0.5h-6.3c-0.2,0-0.3,0.1-0.2,0.2c0.1,0.9,0.4,1.7,1,2.4
		c0.6,0.6,1.4,1,2.4,1S75.8,94.1,76.5,93.6z M70.7,90.1c0,0.1,0.1,0.2,0.2,0.2H77c0.2,0,0.2-0.1,0.2-0.2c0-0.9-0.3-1.6-0.9-2.2
		c-0.6-0.6-1.4-0.9-2.4-0.9s-1.7,0.3-2.3,1S70.7,89.4,70.7,90.1z"/>
</g>
<path class="st0" d="M67.2,15.6C67.2,15.6,67.2,15.6,67.2,15.6C67.2,15.6,67.2,15.6,67.2,15.6C67.2,15.6,67.2,15.6,67.2,15.6"/>
<path class="st0" d="M65.1,12.4C65.1,12.4,65.1,12.4,65.1,12.4C65.1,12.4,65.1,12.4,65.1,12.4C65.1,12.4,65.1,12.4,65.1,12.4"/>
<polyline class="st0" points="64.6,11.9 64.6,11.9 64.6,11.9 64.6,11.9 "/>
<path class="st0" d="M63.4,39.8C63.4,39.8,63.4,39.8,63.4,39.8C63.4,39.8,63.4,39.8,63.4,39.8C63.4,39.8,63.4,39.8,63.4,39.8"/>
<polyline class="st0" points="62,31.9 62,31.9 62,31.9 62,31.9 "/>
<polyline class="st0" points="59.9,34.3 59.9,34.3 59.9,34.3 59.9,34.3 "/>
<path class="st0" d="M70.7,49.8C70.7,49.8,70.7,49.8,70.7,49.8S70.7,49.8,70.7,49.8z"/>
<polyline class="st0" points="73.7,45.9 73.7,45.9 73.7,45.9 73.7,45.9 "/>
<polyline class="st0" points="74.1,44.3 74.1,44.3 74.1,44.3 74.1,44.3 "/>
<polyline class="st0" points="64.1,56.7 64.1,56.7 64.1,56.7 64.1,56.7 "/>
<polyline class="st0" points="64.9,11.9 64.8,11.9 64.8,11.9 64.9,11.9 "/>
<path class="st0" d="M73.9,25.1C73.9,25.1,73.9,25.1,73.9,25.1C73.9,25.1,73.9,25.1,73.9,25.1C73.9,25.1,73.9,25.1,73.9,25.1"/>
<polyline class="st0" points="67.2,15.6 67.2,15.6 67.2,15.6 67.2,15.6 "/>
<path class="st0" d="M73.7,45.9C73.7,45.9,73.7,45.9,73.7,45.9C73.7,45.9,73.7,45.9,73.7,45.9C73.7,45.9,73.7,45.9,73.7,45.9"/>
<path class="st0" d="M69,21.5L69,21.5C69,21.5,69,21.5,69,21.5C69,21.5,69,21.5,69,21.5"/>
<polyline class="st0" points="62.4,9.9 62.4,9.9 62.4,9.9 62.4,9.9 "/>
<path class="st0" d="M63.6,46C63.6,46,63.6,46,63.6,46C63.6,46,63.6,46,63.6,46C63.6,46,63.6,46,63.6,46"/>
<polyline class="st0" points="78.7,41.7 78.7,41.7 78.7,41.7 78.7,41.7 "/>
<path class="st0" d="M69,24.3C69,24.3,69,24.3,69,24.3C69,24.3,69,24.3,69,24.3C69,24.3,69,24.3,69,24.3"/>
<polyline class="st0" points="62.2,54.1 62.2,54.2 62.2,54.2 62.2,54.1 "/>
<path class="st0" d="M70.5,32.4c-0.2-3.4,1.4-6.6,2.9-9.5l-0.2,1v0l0,0.3v0h0c-0.6,4.4-1.2,8.8-2.2,13.2l0-0.2v0c0-0.1,0-0.3,0-0.4
	h0v0l0-0.4l0,0v0l0-0.4h0v0l0-0.4h0v0l0-0.4l0,0v0C70.6,34.1,70.5,33.2,70.5,32.4 M69.5,41c0.1-0.7,0.5-1.3,0.9-1.8
	c-0.1,0.3-0.3,0.7-0.4,1v0h0c-0.1,0.1-0.1,0.3-0.2,0.4v0h0c-0.1,0.2-0.2,0.5-0.3,0.7C69.5,41.2,69.5,41.1,69.5,41z M69.5,42.2
	c0-0.1,0.1-0.2,0.1-0.2v0l0,0l0-0.1v0h0l0-0.1v0h0l0-0.1v0h0c0.1-0.1,0.1-0.2,0.2-0.3l0,0l0-0.1l0,0h0l0-0.1v0
	c0.1-0.2,0.2-0.3,0.2-0.5v0h0l0-0.1v0h0c0-0.1,0.1-0.1,0.1-0.2v0h0l0-0.1v0h0c0-0.1,0.1-0.2,0.1-0.2v0h0c0.1-0.2,0.2-0.4,0.2-0.6v0
	h0l0-0.1v0h0l0-0.1v0h0l0-0.1v0h0l0-0.1v0h0c0.1-0.2,0.2-0.5,0.2-0.7v0h0c0-0.1,0.1-0.2,0.1-0.3v0h0l0-0.2v0h0
	c0.1-0.3,0.2-0.6,0.2-0.9v0h0c0-0.1,0.1-0.3,0.1-0.4v0h0l0-0.2v0h0c0-0.2,0.1-0.3,0.1-0.5v0h0c0-0.2,0.1-0.3,0.1-0.5v0h0
	c0.1-0.4,0.1-0.8,0.2-1.2v0l0,0l0-0.3v0l0,0c0.1-0.3,0.1-0.7,0.1-1l0,0c0-0.3,0.1-0.6,0.1-1c0.2-1.7,0.5-3.4,0.8-5.1v0h0l0-0.3v0
	l0-0.3v0l0,0l0-0.3v0h0c0-0.2,0.1-0.5,0.1-0.7v0h0c0-0.1,0-0.2,0-0.3v-0.1h0c0-0.1,0-0.2,0-0.3v-0.1h0c0-0.1,0-0.2,0-0.3v-0.1h0
	c0-0.1,0-0.2,0-0.4c0,0.4,0.1,0.9,0.1,1.3l0,0v0c0,0.1,0,0.2,0,0.4h0v0.1c0,0.1,0,0.2,0,0.3h0v0l0,0.1c0,0,0,0.1,0,0.1l0,0
	c0,0.2,0,0.5,0,0.7h0V26c0,0.3,0.1,0.7,0.1,1l0,0v0c0,0.1,0,0.3,0,0.4l0,0v0l0,0.4l0,0v0c0.3,2.8,0.8,5.7-0.2,8.5
	c-0.7,1.9-2,3.6-3.4,5.1c-0.1,0-0.1,0.1-0.2,0.1c0,0,0,0,0,0c-0.3,0.2-0.7,0.5-1,0.7C69.4,42.2,69.5,42.2,69.5,42.2z M68.2,22.6
	c0-0.1-0.1-0.2-0.1-0.3h0l0,0l0-0.1h0v0l0-0.1h0v0l0-0.1l0,0v0c0-0.1-0.1-0.2-0.1-0.3l0,0v0l0-0.1h0v0c-0.3-0.7-0.7-1.4-0.9-2.1
	c-0.1-0.7-0.2-1.4-0.3-2.1h0v0c0-0.2-0.1-0.4-0.1-0.6l0,0l0,0c0-0.1,0-0.2,0-0.2h0v0c0-0.2-0.1-0.4-0.1-0.6h0v0l0-0.2h0v0
	c0-0.1,0-0.1,0-0.2l0,0v0c-0.1-0.3-0.2-0.6-0.3-0.9h0v0c0-0.1-0.1-0.2-0.1-0.2v0l0-0.1h0v0l0-0.1h0v0l0-0.1h0v0l0-0.1h0v0l0-0.1h0v0
	c0-0.1-0.1-0.1-0.1-0.2c0,0-0.1-0.1-0.1-0.1h0v0c-0.1-0.2-0.2-0.4-0.4-0.5c0.9,0.9,1.3,2.1,1.9,3.2c0.3,0.5,0.5,1.1,0.6,1.7
	c0,0,0,0,0-0.1c0.3,1.2,0.4,2.4,0.5,3.6v0c0,0.3,0.1,0.5,0.1,0.8h0v0c0,0.1,0,0.2,0,0.3h0v0c0,0.1,0,0.2,0,0.3
	C68.3,22.6,68.3,22.6,68.2,22.6z M68.6,22.1c-0.1-0.4-0.1-0.9-0.1-1.3l0,0v0c0-0.1,0-0.2,0-0.3c-0.1-0.4-0.1-0.9-0.2-1.3h0v0
	c0-0.1,0-0.2,0-0.3h0v0c0-0.1,0-0.2,0-0.3h0v0c0-0.2-0.1-0.3-0.1-0.5h0v0l0-0.2h0v-0.1c0-0.1,0-0.1,0-0.2h0v0c0-0.1,0-0.1,0-0.2l0,0
	v0c0-0.2-0.1-0.3-0.1-0.5l0,0v0l0-0.1h0v0c0,0,0-0.1,0-0.1h0v0l0-0.1h0v0l0,0h0v-0.1l0-0.1h0v0l0-0.1h0v0c0-0.1-0.1-0.1-0.1-0.2
	c0,0,0,0,0,0c-0.1-0.1-0.1-0.3-0.2-0.4c0,0,0,0,0,0c0,0,0,0,0,0c-0.3-0.6-0.6-1.1-0.9-1.7l0,0v0c-0.1-0.2-0.2-0.4-0.4-0.6h0l0,0l0,0
	h0v0c-0.1-0.1-0.1-0.2-0.2-0.2h0v0c0,0,0-0.1-0.1-0.1c0,0,0,0,0,0c0,0,0,0,0,0c0,0,0,0,0,0c0,0-0.1-0.1-0.1-0.1c0,0,0,0,0,0
	c-0.1-0.1-0.3-0.3-0.4-0.4c0,0,0,0,0,0c0,0,0,0,0,0c0,0,0,0,0,0c-0.2-0.2-0.4-0.4-0.5-0.6c0,0,0,0,0,0c0,0,0,0,0,0c0,0,0,0,0,0l0,0
	h0v0l0,0h0v0l0,0h0v0l0,0h0v0l0,0h0v0l0,0h0v0l0,0h0v0c-0.3-0.2-0.5-0.4-0.8-0.6c0.3,0.2,0.6,0.4,0.9,0.6h0v0
	c0.1,0.1,0.2,0.1,0.2,0.2c0,0,0,0,0,0c0.1,0.1,0.2,0.2,0.4,0.2c2.3,1.4,3,4.1,3.6,6.5c0,0,0,0,0-0.1C68.8,19.6,68.7,20.9,68.6,22.1z
	 M67.3,30C67.3,30,67.2,30,67.3,30C67.3,30,67.3,30,67.3,30L67.3,30C67.3,30,67.3,30,67.3,30C67.3,30,67.3,30,67.3,30z M67.5,30.2
	c-2.9-1.9-5.3-5.1-4.7-8.7c0-0.4,0-0.8,0-1.1h0v-0.1c0-0.5-0.1-1-0.1-1.5c0.1,0.2,0.2,0.5,0.3,0.7c0,0,0,0,0,0
	c0,0.1,0.1,0.2,0.2,0.3c0,0,0,0,0,0c0.1,0.2,0.2,0.4,0.3,0.6l0,0l0,0.1l0,0v0c0.4,0.8,0.8,1.7,0.9,2.6c0,0,0,0,0,0
	c0,0.1,0,0.2,0,0.3h0v0.1c0,0.1,0,0.2,0,0.3h0v0.1c0,0.2,0.1,0.3,0.1,0.5h0v0c0,0.1,0,0.1,0,0.2h0v0l0,0.1h0v0
	c0,0.1,0.1,0.2,0.1,0.3v0l0,0.1h0v0l0,0.1h0v0l0,0.1h0v0c0,0.1,0.1,0.3,0.1,0.4h0v0c0,0.1,0.1,0.2,0.1,0.2v0l0,0.1h0v0
	c0.1,0.1,0.1,0.3,0.2,0.4l0,0v0l0,0.1h0v0c0,0.1,0.1,0.2,0.1,0.3l0,0v0c0.1,0.1,0.2,0.3,0.2,0.4h0v0l0,0.1c0.1,0.2,0.2,0.3,0.3,0.5
	h0v0c0.1,0.2,0.3,0.4,0.4,0.7h0v0l0.1,0.1l0,0v0c0.2,0.3,0.4,0.5,0.6,0.8h0v0C67.2,29.8,67.4,30,67.5,30.2
	C67.5,30.2,67.5,30.2,67.5,30.2z M64.6,23c0-0.1,0-0.1,0-0.2h0v-0.1c0-0.1,0-0.2,0-0.2h0v0c0-0.1-0.1-0.3-0.1-0.4v0c0,0,0-0.1,0-0.1
	h0v0c0,0,0-0.1,0-0.1h0v0c-0.1-0.2-0.1-0.3-0.2-0.5h0v0c-0.5-1.2-1.3-2.2-1.7-3.4c0.1,0.2,0.3,0.5,0.5,0.7l0,0v0
	c0.8,1.1,1.6,2.1,2.1,3.4c0.3,1.2,0.6,2.4,1,3.5v0c0.2,0.5,0.3,1.1,0.5,1.6h0v0c0,0.1,0.1,0.3,0.1,0.4h0v0c0,0.1,0.1,0.2,0.1,0.2h0
	v0c0,0.1,0.1,0.2,0.1,0.2h0v0c0,0.1,0.1,0.2,0.1,0.3c0.2,0.4,0.4,0.8,0.6,1.3h0v0l0,0.1l0,0v0c0.1,0.2,0.3,0.5,0.4,0.7
	C66.4,28.1,64.9,25.7,64.6,23z M60.8,31.1C60.8,31.1,60.8,31.1,60.8,31.1C60.8,31.1,60.8,31.1,60.8,31.1S60.8,31.1,60.8,31.1z
	 M63.4,43.7c0-0.1-0.1-0.1-0.1-0.2h0v0c-0.1-0.1-0.2-0.3-0.3-0.4h0v0c-0.8-1-1.9-1.8-2.4-3.1c-0.4-0.9-0.3-1.9-0.3-2.9
	c-0.1-2,0.2-4,0.6-5.9c0,0,0,0,0,0c0,0,0,0,0,0l0,0c0-0.4,0.1-0.8,0.2-1.2c0,0.1,0,0.2,0,0.3h0v0.2c0,0.2,0,0.4,0,0.6h0v0.2
	c0,0.3,0.1,0.6,0.1,0.9h0v0.1c0,0.1,0,0.2,0,0.3h0v0.1c0,0.1,0,0.2,0,0.3h0v0.1l0,0.3h0v0c0,0.3,0.1,0.5,0.1,0.8h0v0l0,0.2h0v0
	l0,0.2h0v0l0,0.2h0v0l0,0.2v0c0,0.2,0.1,0.5,0.1,0.7l0,0v0c0,0.1,0.1,0.3,0.1,0.4l0,0v0c0.1,0.4,0.2,0.8,0.3,1.2l0,0
	c0.5,2.2,1,4.3,1.3,6.5C63.4,43.8,63.4,43.8,63.4,43.7z M63.4,39.8C63.4,39.8,63.4,39.8,63.4,39.8C63.4,39.8,63.4,39.8,63.4,39.8
	c0,0.3,0,0.5-0.1,0.8c0,0,0,0,0,0c0,0,0,0,0,0c-0.1-0.4-0.2-0.7-0.3-1.1c0-0.2-0.1-0.4-0.1-0.5h0v0l0-0.2l0,0v0
	c-0.4-1.5-0.8-2.9-1.1-4.4c0,0,0,0,0,0c-0.3-1.3-0.5-2.5-0.5-3.8c0,0.1,0.1,0.1,0.1,0.2h0v0c0.2,0.4,0.4,0.7,0.6,1.1c0,0,0,0,0,0
	c0,0,0,0,0,0c0.9,1.4,1.3,3.1,1.2,4.8C63.3,37.7,63.6,38.7,63.4,39.8z M59.1,56L59.1,56L59.1,56L59.1,56z M59,56.4
	C59,56.4,59,56.5,59,56.4C59,56.5,59,56.5,59,56.4c-0.1,0.3-0.2,0.5-0.5,0.7C58.7,56.9,58.8,56.7,59,56.4C59,56.5,59,56.5,59,56.4
	C59,56.5,59,56.4,59,56.4z M58.5,56.8c0.1-0.3,0.3-0.4,0.5-0.7c0,0.1,0,0.1,0,0.2c0,0,0,0,0,0c0,0,0,0,0,0.1c0,0,0,0,0,0l0,0
	c-0.2,0.2-0.4,0.4-0.5,0.7C58.5,57,58.5,56.9,58.5,56.8z M60.2,53.3C60.2,53.3,60.2,53.3,60.2,53.3C60.2,53.3,60.2,53.3,60.2,53.3
	C60.2,53.3,60.2,53.3,60.2,53.3C60.2,53.3,60.2,53.3,60.2,53.3C60.2,53.3,60.2,53.3,60.2,53.3C60.2,53.3,60.2,53.3,60.2,53.3
	C60.2,53.3,60.2,53.3,60.2,53.3c0,0,0,0.1-0.1,0.1c-0.3,0.5-0.9,0.8-1.5,0.9C59.1,53.9,59.5,53.4,60.2,53.3z M59.4,52
	C59.4,52,59.4,52,59.4,52C59.4,52,59.4,52,59.4,52C59.4,52,59.4,52,59.4,52C59.4,52,59.4,52,59.4,52C59.4,52,59.4,52,59.4,52
	C59.4,52,59.4,52,59.4,52c0.1,0.4,0.1,0.9-0.1,1.3c0,0,0,0,0,0c-0.1,0.2-0.3,0.3-0.4,0.4c0.1-0.1,0.1-0.2,0.2-0.4l0,0
	c0,0,0-0.1,0-0.1v0h0c0.1-0.1,0.1-0.3,0.1-0.4v0C59.4,52.6,59.4,52.3,59.4,52z M58.8,52.8c0.1-0.2,0.3-0.5,0.5-0.7
	c0,0.8-0.4,1.7-1.1,2.2C58.2,53.7,58.5,53.2,58.8,52.8z M58.1,54.2C58.1,54.2,58.1,54.2,58.1,54.2c0-0.1,0-0.1,0-0.1l0,0
	c-0.3-0.8,0.3-1.5,0.4-2.2v0h0c0,0,0-0.1,0-0.1c0,0,0,0,0,0.1c0,0,0,0,0,0c0.2,0.3,0.1,0.7,0.1,1c0,0,0,0,0,0c0,0.1,0,0.1,0,0.2
	c-0.1,0.2-0.3,0.5-0.4,0.8v0.1h0c0,0,0,0.1,0,0.1v0.1h0C58.1,54.1,58.1,54.2,58.1,54.2z M61.1,44.7L61.1,44.7z M60.7,45
	c0.1-0.1,0.2-0.1,0.2-0.2c0,0.2-0.1,0.3-0.2,0.5c0,0,0,0,0,0c-0.2,0.5-0.6,0.8-1.1,1.1c0.1-0.2,0.2-0.3,0.2-0.5c0,0,0,0,0,0
	c0-0.1,0.1-0.1,0.1-0.2c0,0,0,0,0,0c0,0,0,0,0,0c0,0,0,0,0,0C60.2,45.3,60.5,45.1,60.7,45z M59.7,45.6c0,0,0-0.1,0-0.1
	c0.1-0.4,0.6-0.5,0.8-0.8c0,0.1,0,0.1,0,0.2c0,0,0,0,0,0c0,0,0,0.1,0,0.1c-0.1,0-0.1,0.1-0.2,0.1v0h0c0,0,0,0,0,0v0h0
	c-0.1,0.1-0.2,0.2-0.2,0.3v0h0c0,0-0.1,0.1-0.1,0.1v0h0c-0.1,0.1-0.1,0.3-0.2,0.4v0l0,0c0,0.1-0.1,0.2-0.1,0.3c0,0,0,0,0,0
	c0,0,0,0,0,0C59.7,46,59.7,45.8,59.7,45.6C59.7,45.6,59.7,45.6,59.7,45.6z M58.9,44.7c0,0.2,0,0.3,0,0.5c0,0.2-0.1,0.3-0.2,0.5
	C58.6,45.3,58.7,45,58.9,44.7z M58.6,45.6c-0.1-0.1-0.1-0.2-0.1-0.3c0-0.1,0.1-0.3,0.2-0.4C58.5,45.1,58.5,45.4,58.6,45.6z
	 M58.2,42.2C58.2,42.2,58.2,42.2,58.2,42.2C58.2,42.2,58.2,42.2,58.2,42.2L58.2,42.2L58.2,42.2L58.2,42.2l0.1-0.1v0l0,0l0,0
	c0.1-0.2,0.3-0.3,0.4-0.5v0h0c0.1-0.1,0.2-0.2,0.2-0.3c-0.2,0.6-0.4,1.4-1.1,1.5C58,42.6,58.1,42.4,58.2,42.2
	C58.2,42.2,58.2,42.2,58.2,42.2C58.2,42.2,58.2,42.2,58.2,42.2z M57.9,40.1c0.2,0.8,0.4,1.8-0.2,2.4c0,0,0,0,0,0.1
	c0-0.3,0-0.5,0-0.8h0v0c0-0.1,0-0.2-0.1-0.3c0-0.1,0-0.1,0-0.2c0,0,0,0,0,0c0,0,0,0,0,0C57.5,40.9,57.8,40.6,57.9,40.1L57.9,40.1
	L57.9,40.1C57.9,40.2,57.9,40.1,57.9,40.1z M57.3,42.8c-0.9-0.3-1.4-0.2-1.8-1.3c0.6,0.1,1.1,0.5,1.6,1c0,0,0,0,0,0
	c0,0,0.1,0.1,0.1,0.1c0,0,0,0,0,0C57.3,42.6,57.4,42.7,57.3,42.8C57.4,42.8,57.3,42.8,57.3,42.8z M56.7,41.9
	c-0.3-0.2-0.4-0.6-0.6-0.8c-0.1-0.2-0.2-0.4-0.1-0.6c0,0,0,0,0,0c0,0,0,0,0,0c0,0,0,0,0,0c0,0,0-0.1,0-0.1c0,0,0,0,0.1,0
	c0,0,0,0,0,0c0,0,0.1,0.1,0.2,0.1c0,0,0,0,0,0c0.1,0.1,0.2,0.1,0.3,0.2c0,0,0,0,0,0c0.3,0.3,0.7,0.5,0.8,0.9c0,0,0,0.1,0,0.1
	c0.1,0.2,0.1,0.5,0.2,0.7l0,0v0c0,0.1,0,0.1,0,0.2h0v0c0,0,0,0,0,0.1c0,0,0,0,0,0l0,0c0,0,0,0,0,0c0-0.1-0.1-0.2-0.2-0.3h0v0
	C57.1,42.2,56.9,42.1,56.7,41.9z M55.7,44.5c0-0.2,0-0.4,0.1-0.6c0,0.3-0.1,0.5,0,0.8C55.7,44.6,55.7,44.6,55.7,44.5z M55.8,44.4
	c0-0.3,0-0.5,0-0.8c0,0,0,0,0,0.1c0,0.1,0.1,0.1,0.1,0.2c0,0,0,0,0,0c0.1,0.3,0.1,0.6-0.1,0.8C55.8,44.7,55.8,44.6,55.8,44.4z
	 M54.7,50.5c0,0.1,0,0.2,0,0.3c0,0,0,0,0,0c0,0,0,0,0,0v0c0,0.1-0.1,0.2-0.1,0.3C54.7,50.9,54.7,50.7,54.7,50.5
	C54.7,50.5,54.7,50.5,54.7,50.5z M54.4,50.8c0-0.1,0.1-0.3,0.1-0.4c0,0.2,0.1,0.5-0.1,0.7C54.4,50.9,54.4,50.9,54.4,50.8z M52,48.7
	c-0.1-0.2-0.2-0.4-0.3-0.7c0.1,0,0.3,0.1,0.4,0.2l0,0c0,0,0.1,0.1,0.1,0.1h0v0c0,0,0,0,0,0c0,0,0,0,0,0l0,0c0,0,0,0,0,0
	c0.6,0.4,0.8,1.2,0.9,1.9C52.6,50,52.3,49.3,52,48.7z M53.2,50.3c-0.1,0-0.1,0-0.2,0c0,0,0,0,0,0c0,0,0,0,0,0c0,0-0.1,0-0.1,0l0,0
	c-0.1,0-0.1-0.1-0.2-0.1c0,0,0,0,0,0c-0.5-0.1-1.1-0.4-1.3-0.9c0,0,0,0,0,0c0,0,0,0,0,0c-0.1-0.2-0.2-0.5-0.5-0.7c0.1,0,0.2,0,0.2,0
	l0,0c0.2,0.1,0.3,0.2,0.4,0.3c0.2,0.1,0.4,0.2,0.5,0.4l0,0c0,0,0,0,0,0c0.1,0.1,0.2,0.2,0.2,0.3h0v0c0.2,0.2,0.4,0.5,0.7,0.6
	c0,0,0,0,0,0C53.1,50.3,53.2,50.3,53.2,50.3C53.3,50.3,53.3,50.3,53.2,50.3C53.2,50.3,53.2,50.3,53.2,50.3z M54.4,48.7
	c0,0,0-0.1,0.1-0.1c0.1-0.2,0.3-0.3,0.4-0.5c0,0.4,0,0.7-0.1,1c-0.1,0.5-0.5,1-1.1,1.1l0,0c0,0,0,0-0.1,0c0-0.1,0.1-0.1,0.1-0.2
	c0,0,0,0,0,0c0,0,0,0,0,0c0.1-0.1,0.2-0.2,0.2-0.3v0c0,0,0.1-0.1,0.1-0.1v0h0c0.2-0.2,0.3-0.5,0.3-0.8v0h0
	C54.3,48.8,54.4,48.7,54.4,48.7z M54.1,47.5C54.1,47.5,54.1,47.5,54.1,47.5C54.1,47.5,54.1,47.5,54.1,47.5L54.1,47.5z M53.4,50.2
	C53.4,50.1,53.4,50.1,53.4,50.2L53.4,50.2l0-0.1c0-0.3-0.1-0.6,0-0.9c0.2-0.5,0.4-1.1,0.6-1.6c0,0,0,0,0,0
	C54.3,48.6,54.2,49.4,53.4,50.2z M52.4,52.3C52.4,52.3,52.4,52.3,52.4,52.3C52.4,52.3,52.4,52.3,52.4,52.3c-0.1-0.1-0.3-0.2-0.3-0.4
	l0,0c0-0.2,0-0.4,0-0.5c0,0.1,0,0.1,0,0.2h0v0.1c0,0.1,0,0.1,0,0.1h0v0c0,0,0,0.1,0,0.1h0v0c0,0,0,0.1,0,0.1h0v0c0,0,0,0.1,0,0.1h0
	v0C52.3,52.2,52.3,52.3,52.4,52.3C52.4,52.3,52.4,52.3,52.4,52.3z M52.4,52.2c-0.2-0.3-0.2-0.6-0.2-0.9c0,0,0,0,0,0
	C52.3,51.6,52.5,51.9,52.4,52.2z M53.5,59.7C53.5,59.7,53.5,59.7,53.5,59.7C53.5,59.7,53.5,59.7,53.5,59.7
	C53.5,59.7,53.5,59.7,53.5,59.7z M63.5,57.8C63.5,57.8,63.4,57.8,63.5,57.8c0.1-0.1,0.2-0.3,0.3-0.4v0h0l0.1-0.1v0h0l0.1-0.1v0l0,0
	c0.1-0.1,0.1-0.2,0.2-0.3c0,0,0,0,0,0c0,0,0.1-0.1,0.1-0.1v0h0c0.1-0.1,0.1-0.2,0.2-0.3v0l0,0l0-0.1v0h0l0-0.1v0h0l0-0.1v0h0
	c0.2-0.4,0.4-0.7,0.6-1.1c0,0,0,0,0,0c0.1-0.1,0.2-0.3,0.3-0.4c0,0,0,0,0,0c0.1-0.1,0.1-0.2,0.2-0.3c0,0,0,0,0,0
	c0.1-0.1,0.1-0.2,0.2-0.3c0,0,0,0,0,0c0-0.1,0.1-0.1,0.1-0.2c0,0,0,0,0,0c2.4-3.4,4.9-6.9,8.2-9.4c0,0,0,0,0,0c0,0,0,0,0,0
	c0,0,0,0,0,0c0.8-0.5,1.5-0.9,2.3-1.4c-0.1,0.1-0.1,0.1-0.2,0.2c-0.1,0.1-0.2,0.1-0.3,0.2c-0.1,0.1-0.2,0.2-0.3,0.2v0h0
	c-0.1,0.1-0.2,0.2-0.3,0.3v0h0c-0.2,0.2-0.4,0.4-0.6,0.6l0,0l0,0v0l0,0l0,0v0h0l0,0v0h0l0,0v0l0,0l0,0v0l0,0l0,0l0,0h0
	c-0.2,0.2-0.4,0.4-0.6,0.6v0h0c-0.1,0.1-0.2,0.2-0.2,0.3v0h0c-0.1,0.1-0.1,0.2-0.2,0.3c0,0,0,0,0,0c0,0,0,0,0,0
	c0,0.1-0.1,0.1-0.1,0.2c0,0,0,0,0,0c-0.1,0.1-0.2,0.3-0.3,0.4c0,0,0,0,0,0c0,0-0.1,0.1-0.1,0.1v0h0c0,0.1-0.1,0.1-0.1,0.2v0h0
	c0,0.1-0.1,0.1-0.1,0.2v0h0c-0.7,0.9-1.3,2-1.9,2.9c0,0,0,0,0,0c0,0,0,0,0,0c0,0,0,0,0,0c0,0,0,0,0,0c0,0,0,0,0,0c0,0,0,0,0,0
	c0,0,0,0,0,0c0,0,0,0,0,0c0,0,0,0,0,0c0,0,0,0,0,0c0,0,0,0,0,0c-1.8,2.2-3.8,4.3-5.8,6.3v0h0l0,0l0,0l0,0c-0.2,0.2-0.3,0.3-0.5,0.5
	v0h0l0,0v0h0l0,0v0h0l0,0c-0.1,0.2-0.3,0.3-0.4,0.5v0h0l0,0v0l0,0C63.6,57.6,63.5,57.7,63.5,57.8C63.4,57.8,63.4,57.8,63.5,57.8z
	 M77.2,42.6c-0.1,0.1-0.2,0.2-0.3,0.3v0h0l0,0v0h0c-0.1,0.1-0.1,0.1-0.2,0.2v0h0l0,0v0h0l0,0v0h0l0,0v0h0l0,0v0h0l0,0v0h0l-0.1,0.2
	v0h0l0,0v0h0l0,0v0h0l0,0v0h0c-0.1,0.1-0.1,0.1-0.2,0.2v0h0l0,0v0h0c-0.1,0.1-0.2,0.2-0.2,0.3v0l0,0c0,0.1-0.1,0.1-0.1,0.2v0h0
	c0,0.1-0.1,0.1-0.1,0.2v0h0l0,0v0h0l0,0.1v0h0l0,0v0h0l0,0v0h0l0,0.1v0h0l0,0v0h0l0,0h0l0,0.1v0h0l0,0v0h0l0,0.1v0h0l0,0v0h0l0,0v0
	h0l0,0.1v0h0l0,0v0h0l-0.1,0.1v0h0l-0.1,0.1v0h0c-0.1,0.1-0.2,0.3-0.3,0.4v0h0l0,0.1v0h0l0,0l0,0l0,0.1v0h0l0,0.1v0h0l0,0v0h0l0,0.1
	v0h0l0,0.1v0h0l0,0v0h0l0,0.1v0h0l0,0.1v0h0l0,0v0.1h0l0,0v0h0l0,0.1v0h0l0,0.1v0h0l-0.1,0.1v0h0l0,0.1v0h0l0,0.1v0h0
	c-0.1,0.2-0.2,0.4-0.3,0.6v0h0l0,0.1v0h0l0,0.1v0h0l0,0.1v0h0l0,0.1v0h0l0,0.1v0.1h0l0,0v0.1h0l0,0.1v0h0l0,0.1v0h0l0,0.1v0.1h0l0,0
	v0.1h0l0,0.1v0h0l0,0.1v0h0c0,0.1-0.1,0.2-0.1,0.2v0h0l0,0.1c0,0,0,0,0,0c-0.2,0.5-0.4,1-0.7,1.4v0h0l0,0.1l0,0l0,0l0,0.1l0,0l0,0
	l0,0.1v0h0l0,0.1c-0.1,0.2-0.2,0.3-0.2,0.5v0h0l0,0.1v0h0l0,0.1v0h0c0,0.1-0.1,0.1-0.1,0.2c0,0,0,0,0,0c-1.2,2.7-3.4,4.9-5.5,6.9
	c-1.8,1.4-4.2,1.4-6.4,1.5l0,0h0l-0.2,0c0.1,0,0.1,0,0.2,0v0h0l0.1,0v0h0l0.1,0v0h0l0.1,0v0h0l0.1,0l0,0h0l0.1,0v0h0
	c0.1,0,0.1-0.1,0.2-0.1h0c0.1,0,0.1-0.1,0.2-0.1v0h0l0.1,0v0h0l0.1,0v0h0l0.1,0l0,0h0c0.1,0,0.2-0.1,0.2-0.1v0h0l0.1,0v0h0
	c0.2-0.1,0.3-0.2,0.5-0.3v0h0l0.1-0.1v0h0l0.1-0.1v0h0c0.2-0.1,0.4-0.3,0.6-0.4l0,0h0l0,0v0h0c0.1-0.1,0.2-0.1,0.2-0.2v0h0l0,0v0h0
	c0.1-0.1,0.2-0.2,0.3-0.3v0l0,0c0.5-0.4,0.9-0.9,1.4-1.4v0h0l0,0l0,0l0,0c0.5-0.6,1.1-1.2,1.6-1.8c0.7-0.6,1.3-1.3,1.9-2v0h0l0,0v0
	h0l0,0l0,0l0,0c0.2-0.2,0.3-0.4,0.5-0.5l0,0c0.1-0.1,0.3-0.3,0.4-0.4v0h0c0.1-0.1,0.2-0.3,0.3-0.4v0h0l0.3-0.3v0h0
	c0.4-0.4,0.7-0.9,1.1-1.3v0l0,0l0.2-0.3v0l0,0L71,50c0.1-0.2,0.2-0.4,0.4-0.5v0h0l0.1-0.1v0l0,0c0.7-1.1,1.4-2.3,2.3-3.4
	c0,0,0,0,0,0c0,0,0,0,0,0C74.7,44.6,76,43.5,77.2,42.6C77.2,42.6,77.2,42.6,77.2,42.6z M50,66.5L50,66.5L50,66.5
	c0.4-0.7,1-1.6,1.1-1.7c0,0,0,0,0,0c0.5-0.9,0.9-1.7,1.3-2.6h0v0c0.2-0.4,0.3-0.7,0.5-1.1l0,0l0-0.1c0.2-1,0.4-2,0.5-3.1
	c0,0,0,0,0,0c0,0,0,0,0,0c0.2-3,0.2-2.7-0.7-4.7l0,0c-0.1-0.2-0.2-0.5-0.3-0.8c0,0,0,0-0.1,0c0,0,0,0,0,0c0,0,0,0,0,0c0,0,0,0,0,0
	c0,0,0,0,0,0c0,0,0,0,0,0c0,0-0.1,0-0.1-0.1v0h0c0,0,0,0,0,0v0h0c0,0,0,0,0,0v0h0c0,0-0.1-0.1-0.1-0.1v0h0c0-0.1-0.1-0.2-0.1-0.3v0
	h0c0-0.1,0-0.2,0-0.2h0v0c0,0,0-0.1,0-0.1c0-0.1,0.1-0.3,0.1-0.3c0,0,0.1,0,0.1,0.1c0,0,0,0,0,0c0,0,0,0,0,0v0
	c0.1,0.1,0.2,0.2,0.2,0.3v0h0c0.1,0.3,0.2,0.6,0.1,0.9c0.2,0.8,0.7,1.4,1,2.2c0,0,0-0.1,0-0.2v0h0c-0.1-1.1,0-2.3-0.1-3.4
	c0,0,0,0,0,0c0,0,0-0.1,0-0.1v0h0c0-0.1,0-0.2,0-0.4c-0.1,0-0.2,0-0.3-0.1c0,0,0,0,0,0c-0.3-0.1-0.6-0.1-0.9-0.2v0h0
	c-0.3-0.1-0.6-0.3-0.8-0.6v0h0c0,0,0-0.1,0-0.1v0l0,0c0,0,0,0,0-0.1c0,0,0,0,0,0c0,0-0.1-0.1-0.1-0.1v0c-0.1-0.2-0.2-0.3-0.3-0.5
	c0,0-0.1-0.1-0.1-0.1v0h0c0,0,0-0.1,0-0.1c0,0,0.1,0,0.1,0h0c0.4,0,0.5,0.3,0.9,0.4c0,0,0,0,0,0l0,0v0h0c0.1,0,0.1,0.1,0.2,0.1
	c-0.1-0.2-0.1-0.4-0.2-0.5v0c0-0.1-0.1-0.2-0.1-0.3v0l0,0c0-0.1,0-0.1-0.1-0.2v0c0-0.1,0-0.1,0.1-0.1c0,0,0,0,0,0c0,0,0,0,0,0
	c0,0,0,0,0,0c0,0,0,0,0,0c0,0,0.1,0,0.1,0v0h0c0,0,0.1,0,0.1,0v0h0c0.1,0.1,0.2,0.2,0.4,0.3c0,0,0,0,0,0c0,0,0,0,0,0c0,0,0,0,0,0
	c0,0,0,0,0,0c0,0,0.1,0,0.1,0.1v0h0l0,0v0h0c0.1,0.1,0.2,0.2,0.3,0.3v0h0c0,0.1,0.1,0.1,0.1,0.2v0h0c0.1,0.1,0.2,0.3,0.2,0.5v0l0,0
	c0,0,0,0.1,0,0.1c0-0.1,0-0.2,0-0.4h0v0c0-0.2,0.1-0.4,0.2-0.6h0v0c0.2-0.4,0.4-0.8,0.6-1.1l0,0h0c0.1,0.1,0.2,1,0.2,1.1
	c0.2-0.2,0.4-0.4,0.5-0.6c0-0.1,0.1-0.1,0.1-0.1v0h0c0,0,0,0,0,0.1c0,0.2,0,0.3,0,0.5v0c0,0.1,0,0.3,0,0.4h0v0c0,0.1,0,0.2,0,0.2
	l0,0v0c-0.1,0.3-0.2,0.5-0.3,0.7h0v0c0,0.1-0.1,0.1-0.1,0.2h0v0c0,0,0,0,0,0h0v0c0,0,0,0,0,0h0v0c0,0,0,0,0,0l0,0l0,0
	c0,0-0.1,0.1-0.1,0.1h0v0c-0.1,0.1-0.2,0.1-0.3,0.1h0v0c0,0-0.1,0-0.2,0h0v0c0,0-0.1,0-0.1,0c0,0-0.1,0-0.1,0c0,0.1,0,0.2,0,0.3v0.1
	h0c0,0.1,0,0.2,0,0.3v0.2h0c0,0.1,0,0.2,0,0.4v0.1h0c0,0.3,0,0.6,0,0.9v0.1l0,0c0,0.4,0,0.7,0,1.1c0.1-0.3,0.2-0.7,0.3-1v0
	c0.2-0.6,0.3-1.2,0.4-1.8c-0.1-0.2-0.1-0.5,0-0.8l0,0v0c0,0,0-0.1,0-0.1h0v0c0,0,0-0.1,0-0.1c0.1,0,0.2,0.4,0.2,0.5c0,0,0,0,0,0
	c0,0.1,0,0.2,0,0.2v0c0,0.1-0.1,0.2-0.2,0.3c0,0,0,0,0,0c0,0,0,0,0,0c0,0,0,0,0,0c-0.3,1-0.5,2.1-0.8,3.1l0,0.2v0.1h0
	c0,0.9,0.1,1.9,0,2.8h0v0.1c0,0.2,0,0.4,0,0.6h0v0c0,0.1,0,0.3,0,0.4l0,0v0c0,0.1,0,0.2,0,0.3h0V59c0,0.1,0,0.2,0,0.3h0v0.1
	c0,0.1,0,0.3-0.1,0.4c1.3-3.2,2.5-6.6,2.9-10c0-0.8-0.2-1.7-0.3-2.5v0h0c0-0.1,0-0.2,0-0.3v0h0c0-0.1,0-0.2,0-0.3v0h0
	c0-0.2-0.1-0.5-0.1-0.7v-0.2h0c0-0.2,0-0.4,0-0.6c0,0,0,0,0,0c0,0,0-0.1,0-0.1c0,0-0.1,0-0.1-0.1v0h0c0,0-0.1-0.1-0.1-0.1v0l0,0
	c-0.3-0.4-0.1-0.9,0.1-1.3c0-0.1,0.1-0.1,0.1,0l0,0c0.1,0.2,0.2,0.4,0.2,0.6c0,0.1,0.1,0.2,0.1,0.2v0.1c0,0.1,0,0.2,0,0.2h0v0
	c0,0.1-0.1,0.2-0.1,0.3c0,0.1,0,0.1,0,0.2c0,0,0,0,0,0c0,0,0,0.1,0,0.1c0,0,0,0,0,0c0.1,1.2,0.4,2.4,0.6,3.7v0h0
	c0,0.1,0,0.3,0.1,0.4c0.5-2.1,0.7-4.3,0.8-6.4c-0.6-0.3-1.4-0.2-1.8-0.9l0,0v0h0c-0.1-0.2-0.2-0.3-0.3-0.5c0,0-0.1-0.1-0.1-0.1v-0.1
	c0,0,0,0,0,0h0v0c0,0,0,0,0,0c0.1,0,0.2,0.1,0.4,0.1v0h0l0.1,0v0h0l0.1,0v0h0c0,0,0.1,0,0.1,0v0h0c0,0,0.1,0,0.1,0.1
	c0,0,0-0.1-0.1-0.1c-0.1-0.1-0.2-0.2-0.2-0.3v0h0c-0.1-0.1-0.1-0.2-0.1-0.3v0h0c0-0.1,0-0.3,0-0.4c0,0,0-0.1,0.1-0.1l0,0v0
	c0-0.1,0.1-0.1,0.2,0c0,0,0,0,0,0c0.2,0.2,0.4,0.3,0.6,0.4v0h0c0.1,0.1,0.2,0.2,0.3,0.2v0h0l0,0v0l0,0l0,0c0,0.1,0.1,0.1,0.1,0.2v0
	h0l0,0v0l0,0c0.1,0.1,0.1,0.2,0.1,0.2l0,0c0.1,0.1,0.1,0.3,0.2,0.4c-0.1-0.4-0.1-0.7-0.1-1.1h0v-0.1c0-0.2,0.1-0.4,0.2-0.5
	c0.1-0.1,0.1-0.5,0.3-0.5c0,0.1,0.1,0.2,0.1,0.4v0h0c0,0.2,0.1,0.4,0.1,0.5v0h0c0,0.1,0,0.2,0,0.2v0h0c0,0.3,0,0.5,0,0.7h0v0.1
	c0,0,0,0.1,0,0.1c0.3-0.2,0.4-0.6,0.6-0.9h0v0c0.1-0.1,0.1-0.1,0.2-0.2h0v0l0,0h0v0c0,0,0.1,0,0.1-0.1c0.1,0,0.2,0,0.2,0.1h0v0
	c0,0.2-0.3,0.4-0.3,0.6c0,0.2-0.1,0.4-0.2,0.6l0,0v0c0,0,0,0.1,0,0.1l0,0v0c-0.2,0.4-0.5,0.7-1,0.8h0c0,0-0.1,0-0.1,0
	c0,0-0.1,0-0.1,0c0,0.1,0,0.3,0,0.4h0v0.1c0,0.2,0,0.5,0,0.7h0v0.1c0,0.2,0,0.4,0,0.6l0,0v0c0,0.2,0,0.3,0,0.5h0v0.1
	c0,0.1,0,0.2,0,0.4h0v0.1c0,0.1,0,0.3,0,0.4h0v0c0,0.2-0.1,0.5-0.1,0.7h0v0l0,0.3h0v0.1c0,0.1,0,0.2,0,0.3h0v0l0,0.2h0V48
	C57.1,48.3,57,48.7,57,49h0v0l0,0.2h0v0.1l0,0.2h0v0l0,0.2h0v0l0,0.2h0v0l0,0.2h0v0c0,0.1,0,0.2-0.1,0.3c0.1-0.2,0.2-0.3,0.2-0.5h0
	v0l0-0.1h0v0l0-0.1h0v0l0-0.1h0v0l0-0.1h0v0c0,0,0.1-0.1,0.1-0.1c0,0,0,0,0,0c0,0,0,0,0,0c0,0,0,0,0,0c0.4-0.5,0.5-1.1,0.7-1.6l0,0
	v0c0,0,0-0.1,0.1-0.1c0,0,0,0,0,0c0,0,0,0,0,0c0,0,0,0,0,0c0.2-0.6,0.5-1.2,0.6-1.9c-0.1-0.1-0.2-0.2-0.2-0.3v0h0c0-0.1,0-0.3,0-0.4
	h0v0l0,0c0.1-0.2,0.3-0.4,0.4-0.5c0,0,0.1-0.1,0.1-0.1h0v0c0,0,0,0,0.1,0c0,0.1,0,0.2,0,0.3v0.1h0c0,0.2,0,0.3,0,0.5
	c0,0.2-0.2,0.3-0.3,0.4c0,0,0,0,0,0c0,0,0,0-0.1,0c0,0.1-0.1,0.3-0.1,0.4l0,0v0c-0.1,0.4-0.2,0.8-0.4,1.2l0,0l0,0
	c0,0.1-0.1,0.3-0.1,0.4l0,0v0c-0.1,0.2-0.2,0.5-0.3,0.7c0.1-0.1,0.1-0.1,0.2-0.2h0v0c0.1-0.1,0.2-0.2,0.2-0.3h0v0
	c0.1-0.1,0.2-0.2,0.2-0.3l0,0c0.2-0.3,0.5-0.6,0.7-0.9c0.2-0.2,0.4-0.4,0.4-0.7c0,0,0,0,0,0l0-0.1v-0.1h0c0-0.1,0-0.2,0-0.3l0,0v0
	c0-0.1,0-0.1,0-0.2h0v0c0-0.1,0-0.1,0.1-0.2h0v0c0,0,0.1-0.1,0.1-0.1h0v0c0,0,0.1-0.1,0.1-0.1h0v0c0,0,0,0,0,0l0,0v0
	c0.1,0,0.1-0.1,0.2-0.1h0v0l0.1,0c0.4-0.1,0.7-0.8,0.4,0c0.8-0.8,0.3,0.3,0.1,0.7c0,0,0,0,0,0c0,0,0,0,0,0c0,0,0,0,0,0c0,0,0,0,0,0
	c0,0,0,0,0,0c-0.1,0.1-0.1,0.2-0.2,0.3h0v0l0,0l0,0v0c-0.2,0.1-0.4,0.3-0.5,0.4c0,0,0,0,0,0v0c-0.1,0-0.1,0.1-0.2,0.1
	c-2,2.6-3.1,3.7-3.7,7.1l-0.1,0.3h0v0l-0.1,0.3h0v0l0,0.1h0v0l0,0.2h0v0l0,0.1h0v0l0,0.1h0v0l0,0.1h0v0l0,0.1h0v0l-0.1,0.3l0,0v0
	l0,0.1h0v0c-0.1,0.4-0.2,0.8-0.4,1.1h0v0l0,0.1h0v0l0,0.1h0v0l0,0.1h0v0l0,0.1h0v0l0,0.1h0v0c0,0.1-0.1,0.3-0.1,0.4h0v0l0,0.1h0v0
	c-0.1,0.3-0.2,0.5-0.3,0.8l0,0v0L54.1,59h0v0L54,59.3h0v0l0,0.1h0v0l0,0.1h0v0l0,0.1h0v0l0,0.1h0v0l0,0.1h0v0l0,0.1h0v0l0,0.1h0v0
	l-0.1,0.2h0v0c-0.1,0.2-0.2,0.4-0.3,0.7l0,0v0l0,0.1h0v0l0,0.1h0v0l-0.1,0.3h0v0l0,0.1h0v0l0,0.1h0v0l0,0.1h0v0
	c0,0.1-0.1,0.2-0.1,0.3l0,0v0l0,0.1h0v0l0,0.1h0v0l0,0.1h0v0l0,0.1h0v0c-0.1,0.1-0.1,0.2-0.2,0.4c1.6-1.6,3-3.3,4-5.3c0,0,0,0,0,0
	c0.3-0.5,0.6-1.1,0.8-1.7h0v0l0-0.1h0v0l0-0.1h0v0l0-0.1h0v0l0-0.1h0v0l0-0.1l0,0v0c0-0.1,0.1-0.2,0.1-0.2c0,0,0,0,0,0c0,0,0,0,0,0
	c0,0,0,0,0,0c0.2-0.3,0.3-0.5,0.4-0.8c-0.1-0.2-0.2-0.4-0.3-0.6v0h0c0,0,0-0.1,0-0.1c0,0,0,0,0,0c0-0.1,0-0.1,0-0.2h0v-0.2
	c0-0.1,0-0.1,0-0.2h0v0c0.1-0.4,0.3-0.8,0.4-1.2c0-0.1,0-0.7,0.2-0.5c0,0,0,0,0,0c0,0,0,0,0,0c0.1,0.2,0.2,0.4,0.2,0.7v0h0
	c0,0.2,0,0.3,0,0.5c0.1-0.1,0.5-0.8,0.7-0.9h0v0c0,0,0,0,0.1,0c0,0,0,0.1,0,0.1v0l0,0c0,0,0,0.1,0,0.1v0l0,0c0,0.1,0,0.1,0,0.2v0h0
	c0,0.1,0,0.2,0,0.3c0,0,0,0,0,0l0,0.1v0.1h0c0,0.1,0,0.2,0,0.3h0V53c0,0.1,0,0.1,0,0.2h0v0.1c0,0,0,0,0,0.1l0.1,0
	c0.1,0,0.2-0.1,0.3-0.1c0.2-0.1,0.4-0.1,0.5-0.2l0,0c0.1,0,0.1-0.1,0.2-0.1c0,0,0,0,0,0v0h0c0.1,0.1-0.4,0.5-0.5,0.7
	c-0.1,0.1-0.2,0.3-0.4,0.4h0v0c-0.1,0.1-0.2,0.1-0.3,0.2h0v0c0,0-0.1,0-0.1,0h0v0c-0.1,0-0.2,0.1-0.2,0.1h0v0c-0.1,0-0.1,0-0.2,0h0
	h0v0c-0.2,0-0.5,0-0.7,0.2c0,0,0,0,0,0c0,0,0,0-0.1,0.1c-0.4,0.8-0.7,1.5-1.1,2.3h0v0l0,0.1h0v0l0,0.1h0v0l0,0.1h0v0l0,0.1h0v0
	l0,0.1h0v0l0,0.1h0v0l0,0.1h0v0l0,0.1h0v0l0,0.1l0,0v0c0,0.1-0.1,0.1-0.1,0.2l0,0c-0.1,0.1-0.1,0.2-0.2,0.3h0v0l0,0.1h0v0l0,0.1l0,0
	v0l-0.1,0.1h0v0l0,0.1h0v0l0,0.1h0v0L56,59h0v0l0,0.1h0v0l0,0.1l0,0v0l-0.1,0.1h0v0c0,0.1-0.1,0.2-0.1,0.2h0v0l-0.1,0.1h0v0
	l-0.1,0.1h0v0l0,0h0v0l0,0.1h0v0l0,0h0v0l0,0.1l0,0h0v0l0,0h0v0l0,0.1h0v0l0,0h0v0l0,0h0v0l0,0.1h0v0l0,0h0v0l-0.1,0.1l0,0v0l0,0h0
	v0c-0.1,0.1-0.1,0.1-0.2,0.2c1.4-1,2.8-2.3,3.8-3.7c-0.1-0.2,0-0.4,0.1-0.5h0v0c0,0,0-0.1,0-0.1l0,0v0c0,0,0.1-0.1,0.1-0.1l0,0l0,0
	c0.1-0.2,0.3-0.4,0.4-0.5l0,0c0.1,0,0.1,0.1,0,0.1c0,0,0,0,0,0c0,0,0,0,0,0c0,0,0,0,0,0c0,0.1,0,0.1,0,0.2c0,0,0,0,0,0c0,0,0,0,0,0
	c0,0,0.1-0.1,0.1-0.1h0c0,0.2-0.1,0.3-0.2,0.4c0,0,0,0.1,0,0.1h0v0c0,0.1-0.1,0.2-0.1,0.2l0,0l0,0c-0.1,0.1-0.2,0.2-0.4,0.3
	c0,0.1-0.1,0.1-0.1,0.2l0,0c0,0-0.1,0.1-0.1,0.1h0v0c0,0-0.1,0.1-0.1,0.1h0v0c-0.1,0.1-0.2,0.3-0.3,0.4h0v0
	c-0.1,0.1-0.2,0.2-0.2,0.3h0v0c-0.1,0.2-0.3,0.3-0.4,0.5l0,0v0c-0.2,0.3-0.5,0.5-0.7,0.8c0,0,0,0,0,0c0,0,0,0-0.1,0.1c0,0,0,0,0,0
	l-0.1,0.1h0l0,0l0,0h0l0,0l0,0l0,0l0,0l0,0v0c-0.1,0.1-0.3,0.3-0.4,0.4h0v0c-0.3,0.3-0.7,0.6-1,0.8l0,0l0,0
	c-0.2,0.2-0.4,0.3-0.7,0.5c-0.1,0.1-0.1,0.2-0.2,0.2h0v0c-0.2,0.2-0.4,0.4-0.6,0.6c0,0,0,0,0,0c-0.5,0.5-0.9,0.9-1.3,1.4
	c0,0.1-0.1,0.2-0.1,0.3h0v0l0,0.1h0v0l0,0.1h0v0l0,0.1h0v0c0,0.1-0.1,0.2-0.1,0.2h0v0c-0.1,0.2-0.2,0.4-0.4,0.6h0v0
	c-0.1,0.2-0.2,0.3-0.3,0.5c0,0,0,0,0,0c3.2-2.4,5.9-5.4,8.5-8.5c0,0,0,0,0,0c0,0,0,0,0,0c0,0,0,0,0,0c1.1-1.4,2.2-2.8,2.8-4.4
	c0,0,0,0,0,0c0.6-1.8,1.3-3.7,1.4-5.6c0,0,0,0,0,0c0,0,0,0,0,0c0,0,0,0,0,0c0,0,0-0.1,0-0.1c0,0,0,0,0,0.1c0-0.4,0-0.7,0-1.1
	c0,0,0,0,0,0c0,0,0,0,0-0.1c0,0,0,0,0,0c0,0,0-0.1,0-0.1v0c0,0,0,0,0,0c-0.1-1.8-1.4-2.9-2.5-4.1l0,0v0h0l0,0c0,0-0.1-0.1-0.1-0.1v0
	h0l0,0v0h0l0,0v0h0l0-0.1v0h0l0,0v0h0l0,0v0l0,0l0-0.1v0h0l0,0v0h0c0-0.1-0.1-0.2-0.1-0.2v0l0,0l0-0.1v0h0l0-0.1v0h0l0-0.1v0h0
	c0,0,0-0.1,0-0.1v0h0l0-0.1v0h0l0-0.1v0h0l0-0.1v0h0c0-0.1-0.1-0.2-0.1-0.3v0h0c0,0,0-0.1,0-0.1v-0.1h0c0,0,0-0.1,0-0.1v-0.1h0
	c0,0,0-0.1,0-0.1v0h0c0-0.2-0.1-0.4-0.1-0.5v-0.1h0c0-0.1,0-0.3,0-0.4v0h0c0-0.5,0-1,0-1.4h0v-0.1c0-0.2,0-0.5,0-0.7v0
	c0.1-0.7,0.1-1.3,0.2-2c0,0,0,0,0,0c0,0,0,0,0,0c0,0,0,0,0,0c0,0,0,0,0,0c0,0,0,0,0,0c0-0.1,0-0.1,0-0.2l0,0v0c0-0.1,0-0.2,0-0.3h0
	v0c0-0.1,0-0.2,0-0.3v0c0-0.2,0.1-0.4,0.1-0.5h0v0c0.2-1.1,0.5-2.1,0.6-3.1c0.1-0.8,0.1-1.6,0.2-1.4v0l0,0c0.1,0.1,0.2,0.4,0.3,1.1
	c0,0,0,0,0,0c0.3,1.3,1.1,2.4,1.6,3.6v0h0l0,0.1v0c0.1,0.2,0.1,0.3,0.2,0.5v0h0c0,0.1,0.1,0.2,0.1,0.3c0,0.1,0,0.1,0,0.2v0l0,0
	c0,0.1,0,0.1,0,0.2v0h0c0,0.1,0,0.1,0,0.2v0h0c0,0.1,0,0.2,0,0.2v0h0c0,0.1,0,0.2,0,0.4v0h0c0.1,0.6,0,1.2,0.1,1.7
	c0.1,0.6,0.2,1.1,0.2,1.7v0h0c0,0.4,0,0.8,0,1.2c0,0,0,0,0,0c0,0,0,0,0,0c0,0,0,0,0,0c0,0,0,0,0,0c0,0,0,0,0,0c0,0,0,0,0,0
	c-0.1,1.7,0.1,3.3,0.2,4.9v0l0,0c0,0.2,0,0.4,0,0.6v0h0c0,0.2,0,0.5,0,0.7v0.2h0c0,0.5,0,0.9,0,1.4h0v0.3c0,0.2,0,0.3,0,0.5h0v0.1
	c0,0.1,0,0.2,0,0.3h0v0.1c0,0.1,0,0.1,0,0.2h0v0.1c0,0.1,0,0.1,0,0.2h0v0.1c0,0,0,0.1,0,0.1h0v0.1c0,0.1,0,0.1,0,0.2l0,0v0
	c0,0.1-0.1,0.2-0.1,0.3h0v0l0,0.1h0v0.1l0,0.1h0v0.1l0,0.1h0v0.1l0,0.1h0v0.1l0,0.1h0v0.1l0,0.1h0v0h0c-0.1,0.1-0.1,0.3-0.2,0.4
	c2.5-4.3,4-9.1,5-14c0.2-1.3,1.2-4.7,0.2-5.7c0,0,0,0,0,0c0,0,0,0,0,0c0,0,0,0,0,0c-0.1-0.1-0.1-0.1-0.2-0.2c0,0,0,0,0,0
	c-0.4-0.4-0.8-0.8-1.2-1.2c0,0-0.1-0.1-0.1-0.1v0h0c0,0-0.1-0.1-0.1-0.1v0h0c0,0-0.1-0.1-0.1-0.1v0l0,0l0,0v0h0c0,0-0.1-0.1-0.1-0.1
	v0l0,0c-0.1-0.1-0.2-0.1-0.2-0.2v0h0c-0.1-0.1-0.2-0.2-0.3-0.3v0l0,0l0,0v0h0c-0.5-0.4-0.9-0.9-1.4-1.4c0,0,0,0,0,0c0,0,0,0,0,0
	c0,0,0,0,0,0c0,0,0,0,0,0l0,0c-0.1-0.1-0.2-0.2-0.2-0.3v0h0l0,0l0,0c-0.1-0.1-0.1-0.2-0.2-0.2v0h0c-0.1-0.1-0.1-0.2-0.2-0.2l0,0
	c0,0-0.1-0.1-0.1-0.1v0h0c0,0-0.1-0.1-0.1-0.1v0h0c-0.1-0.2-0.2-0.3-0.3-0.5v0h0l0-0.1v0h0c-0.1-0.2-0.2-0.4-0.3-0.6v0l0,0
	c0-0.1-0.1-0.2-0.1-0.2v0h0c-0.1-0.2-0.2-0.5-0.2-0.7v0h0c0-0.1,0-0.1,0-0.2v0h0c-0.1-0.2-0.1-0.5-0.1-0.7v0c0-0.1,0-0.2,0-0.4v0
	l0,0c-0.2-2.3,0.3-4.5-0.7-7c0-0.3,0.1-0.2,0.3,0l0,0h0c0,0,0.1,0.1,0.1,0.1c0.2,0.2,0.4,0.4,0.4,0.4c0.3,0.4,0.7,0.9,1,1.3v0h0
	c0.2,0.2,0.3,0.5,0.5,0.7v0h0l0.1,0.1v0h0c0.1,0.2,0.3,0.5,0.4,0.7v0h0l0,0.1v0h0c0.1,0.1,0.2,0.3,0.2,0.4v0h0l0,0.1v0h0l0,0.1v0
	l0,0l0,0.1v0l0,0l0,0.1h0c0.1,0.3,0.2,0.5,0.3,0.8v0h0c0,0.1,0.1,0.2,0.1,0.2v0l0,0l0,0.1v0h0c0.1,0.2,0.1,0.4,0.2,0.6v0h0l0,0.1v0
	h0c0,0.1,0,0.1,0,0.2v0h0c0.1,0.2,0.1,0.4,0.1,0.5v0h0c0,0.1,0,0.1,0,0.2v0h0c0,0.1,0,0.1,0,0.2v0h0c0,0.1,0,0.2,0,0.3
	c0.5,2.5,1.8,4.7,2.9,6.9c0.2-3.4,0-6.8-1.4-10c0,0,0,0,0,0c0,0,0-0.1,0-0.1c0,0,0-0.1-0.1-0.1v0l0,0l0-0.1v0h0
	c-0.1-0.2-0.2-0.4-0.3-0.7v0l0,0c0,0,0-0.1,0-0.1v0h0c-0.1-0.2-0.1-0.4-0.2-0.6v0h0c0-0.1,0-0.1,0-0.2v0h0c0-0.1,0-0.1,0-0.2v0l0,0
	c0-0.2-0.1-0.3-0.1-0.5l0,0c0-0.1,0-0.2,0-0.3c0-0.1,0-0.2,0-0.3v0l0,0c-0.1-0.9-0.2-1.9-0.5-2.8c-0.4-1.3-1.1-2.4-1.9-3.5
	c-0.2-0.2-0.5-0.4-0.7-0.6h0l0,0l0,0l0,0l0,0l0,0c-0.1-0.1-0.3-0.3-0.4-0.4v0h0c-0.1-0.1-0.2-0.3-0.3-0.5v0h0l0-0.1v0h0
	c0-0.1-0.1-0.2-0.1-0.3c0,0,0,0,0,0c0,0,0,0,0,0c0,0,0-0.1,0-0.1c0,0,0,0,0,0c0,0,0,0,0-0.1c0,0,0,0,0,0c-0.3-1,0.2,0,0.4,0.2
	c0,0,0,0,0,0c0,0,0.1,0.1,0.1,0.1c0,0,0,0,0,0c0.1,0.1,0.2,0.2,0.3,0.2c0,0,0,0,0,0c0,0,0.1,0.1,0.1,0.1c0,0,0,0,0,0
	c0.2,0.1,0.4,0.3,0.7,0.4v0h0c0,0,0.1,0.1,0.1,0.1v0h0c0,0,0.1,0,0.1,0.1c0,0,0,0,0,0c0.2,0.2,0.4,0.3,0.7,0.5c0,0,0,0,0,0
	c0.1,0,0.1,0.1,0.2,0.1v0h0c0,0,0.1,0.1,0.1,0.1v0h0c0.2,0.1,0.3,0.2,0.5,0.3v0h0c0.1,0.1,0.2,0.1,0.2,0.2c0.2,0.2,0.5,0.4,0.7,0.7
	v0h0c0.1,0.1,0.2,0.2,0.2,0.3v0h0c0.1,0.1,0.2,0.2,0.3,0.4v0h0c0.2,0.2,0.3,0.4,0.4,0.7v0h0c0.1,0.2,0.2,0.3,0.3,0.5v0l0,0l0,0.1
	l0,0c0.1,0.2,0.2,0.3,0.2,0.5v0l0,0c0,0.1,0.1,0.2,0.1,0.2v0h0c0,0.1,0.1,0.2,0.1,0.2v0c0.1,0.3,0.2,0.6,0.3,0.9l0,0
	c0.2,0.8,0.4,1.6,0.5,2.4v0h0c0,0.4,0.1,0.9,0.1,1.3v0.2h0c0,0.2,0,0.3,0,0.5h0V21c0,0.1,0,0.3,0,0.4c0,0.2,0,0.4,0,0.7
	c0,0.7-0.1,1.5,0,2.2c0,0,0,0,0,0c0,0,0,0,0,0l0,0.2v0h0c0,0.1,0,0.2,0,0.3v0.1h0l0,0.2v0.2h0l0,0.2v0.2h0l0,0.2V26h0l0,0.2v0.1h0
	c0,0.1,0,0.2,0,0.3v0h0c0,0.2,0,0.4,0,0.6v0.3h0c0,0.2,0,0.4,0,0.5v0.6h0c0,0.8,0,1.5,0,2.3h0v0.6c0,0.4-0.1,0.9-0.1,1.3h0V33
	c0,0.1,0,0.2,0,0.3h0v0.2l0,0.3h0V34c0,0.1,0,0.2,0,0.3h0v0.1c0,0.1,0,0.2,0,0.3h0v0.1c0,0.2-0.1,0.4-0.1,0.7h0v0l0,0.2h0v0.1l0,0.2
	h0v0.1l0,0.2h0v0.1l0,0.2h0v0.1l0,0.2h0V37l0,0.2h0v0l0,0.3v0c0,0.2-0.1,0.3-0.1,0.5l0,0v0l0,0.2h0v0l0,0.2h0v0l0,0.2h0v0.1l0,0.1h0
	v0.1l0,0.2h0v0.1l0,0.1h0v0.1l0,0.2h0v0l0,0.2h0v0l0,0.2h0v0c-0.1,0.3-0.2,0.6-0.2,0.9l0,0v0l0,0.1h0v0l0,0.1h0v0l0,0.1h0v0.1l0,0.1
	h0v0l0,0.1h0v0.1l0,0.1h0v0l0,0.1h0V42l0,0.1h0v0l0,0.1h0v0l0,0.2l0,0v0l0,0.1h0v0c-0.1,0.2-0.1,0.4-0.2,0.6h0v0l0,0.1h0v0l0,0.1h0
	v0l0,0.1h0v0l0,0.1h0v0l0,0.1h0v0l0,0.1h0v0l0,0.1h0v0l0,0.1h0v0l0,0.1h0v0l0,0.1h0v0l0,0.1h0v0l0,0.1h0v0l0,0.1l0,0v0l0,0.1l0,0v0
	l-0.1,0.3c0-0.1,0.1-0.1,0.2-0.2h0v0c0-0.1,0.1-0.1,0.1-0.2h0v0c0.7-0.9,1.4-1.7,1.9-2.6c0,0,0,0,0,0c0.3-0.6,0.4-1.2,0.6-1.8h0v0
	c0,0,0-0.1,0-0.1v0c0,0,0-0.1,0-0.1c0.3-0.6,0.7-1,0.9-1.6c0,0,0,0,0,0c0.2-0.5,0.2-1,0.2-1.5c0-1-0.2-2.1-0.3-3.1v0
	c0-0.1,0-0.3,0-0.4v0h0c0-0.1,0-0.3,0-0.4v0h0c0-0.2,0-0.4,0-0.6v-0.2h0c0-0.3,0-0.7,0-1c0,0,0,0,0,0c0,0,0,0,0-0.1c0,0,0,0,0,0
	c0-0.1,0-0.2,0-0.2h0v-0.1c0-0.1,0-0.2,0-0.2h0v-0.1l0-0.2h0v-0.2l0-0.2h0v-0.1l0-0.2h0v-0.1c0-0.2,0.1-0.3,0.1-0.5h0v0l0-0.2h0v0
	l0-0.1h0V29l0-0.1h0v-0.1l0-0.1h0v-0.1l0-0.1h0v0l0-0.1h0v-0.1l0-0.1h0v0c0-0.1,0.1-0.2,0.1-0.3l0-0.1l0,0v0l0-0.1h0v0l0-0.1h0v0
	l0-0.1h0v0l0-0.1h0v0l0-0.1h0v0l0-0.1h0v0l0-0.1l0-0.1h0v0l0-0.1h0v0c0.1-0.2,0.1-0.3,0.2-0.5h0v0l0.1-0.2l0,0v0l0-0.1h0v0l0.1-0.2
	l0,0v0l0-0.1h0v0l0-0.1h0v0l0.1-0.2l0,0v0l0-0.1h0v0c0.1-0.1,0.1-0.2,0.2-0.4c0-0.1,0-0.1,0.1-0.2l0,0v0l0-0.1h0v0l0-0.1l0,0v0
	l0-0.1c0.3-0.6,0.6-1.1,0.9-1.7c0.1-0.4,0.2-0.8,0.3-1.2l0,0v0c0-0.2,0.1-0.4,0.1-0.6l0,0v0c0,0,0-0.1,0-0.1l0,0
	c0-0.1,0-0.1,0.1-0.2c0,0,0,0,0,0c0,0,0,0,0-0.1c0,0,0,0,0,0c0,0,0,0,0,0l0,0c0,0,0-0.1,0.1-0.1c0,0,0,0.1,0,0.1l0,0.2v0l0,0l0,0.4
	v0.1h0l0,0.3v0.1h0l0,0.3v0.2h0l0,0.3v0.2h0l0,0.3v0.2h0l0,0.3v0.1h0l0,0.4v0h0l0,0.5v0l0,0c0,0.2,0,0.4,0,0.6v0.1h0l0,0.5v0.1h0
	l0,0.6v0.1h0l0,0.6v0.1h0l0,0.6v0h0l0,0.5l0.1,0.5v0l0,0l0,0.4v0c0,0.3,0.1,0.5,0.1,0.8v0h0c0,0.1,0,0.3,0,0.4v0h0
	c0,0.3,0.1,0.7,0.1,1v0.1h0c0,0.2,0,0.4,0,0.7v0l0,0c0,0.6,0,1.2,0,1.8h0v0.2c0,0.2,0,0.3,0,0.5h0v0.1c0,0.1,0,0.2,0,0.4h0v0
	c0,0.1,0,0.2,0,0.3h0V35c0,0.1,0,0.1,0,0.2h0v0.1c0,0.1,0,0.1,0,0.2h0v0.1c0,0.2-0.1,0.4-0.1,0.5h0v0l0,0.1h0v0l0,0.1h0v0.1l0,0.1h0
	v0l0,0.1h0v0l0,0.1h0v0l0,0.1l0,0v0c0,0.1-0.1,0.2-0.1,0.3h0v0l0,0.1h0v0l0,0.1h0v0l0,0.1h0v0l0,0.1h0v0l0,0.1h0v0l0,0.1h0v0l0,0.1
	h0v0l0,0h0v0l0,0.1h0v0l0,0.1h0v0c0,0,0,0.1-0.1,0.1l-0.1,0.1v0c-0.1,0.1-0.2,0.3-0.2,0.4l-0.1,0.1h0v0c-0.2,0.3-0.4,0.6-0.6,0.9h0
	v0l-0.1,0.1h0v0L72.4,40l0,0v0c0,0.1-0.1,0.1-0.1,0.2h0v0c-0.1,0.1-0.2,0.3-0.3,0.4h0v0c-0.1,0.1-0.1,0.2-0.2,0.2h0v0l0,0h0v0l0,0h0
	v0c0,0.1-0.1,0.1-0.1,0.2l0,0h0v0l0,0h0v0l0,0h0v0l0,0h0v0c-0.1,0.2-0.3,0.3-0.4,0.5h0v0l0,0h0v0l0,0h0v0l0,0h0v0l0,0h0v0l0,0h0v0
	c0,0-0.1,0.1-0.1,0.1h0v0l0,0h0v0l0,0h0v0l0,0h0v0c-0.1,0.1-0.2,0.1-0.2,0.2c-1.5,1-2.6,2.4-3.7,3.8c-0.4,0.6-0.7,1.3-0.9,2
	c0,0,0,0,0,0c0,0.1-0.1,0.2-0.1,0.3h0v0l0,0.1h0v0l0,0.1h0v0c0,0.1-0.1,0.1-0.1,0.2h0v0l0,0.1h0v0l0,0.1h0v0l0,0.1h0v0
	c-0.2,0.3-0.3,0.6-0.5,0.9h0v0l0,0.1h0v0l0,0.1l0,0v0c-0.1,0.1-0.2,0.3-0.2,0.4h0v0l0,0.1l0,0v0c-0.1,0.2-0.3,0.4-0.4,0.7h0v0
	l-0.1,0.2h0v0l-0.1,0.2h0v0l-0.1,0.2h0v0c-0.2,0.3-0.4,0.7-0.6,1l0,0v0l-0.2,0.4l-0.2,0.3c0,0,0,0,0,0c0,0,0,0,0,0
	c-0.1,0.1-0.1,0.2-0.2,0.3h0v0c0,0.1-0.1,0.2-0.1,0.2h0v0c0,0.1-0.1,0.2-0.1,0.2h0v0c0,0.1-0.1,0.2-0.1,0.2h0v0
	c-0.1,0.1-0.2,0.3-0.3,0.4h0v0l-0.1,0.1h0v0l-0.1,0.1h0v0L61.1,56l0,0l0,0c-0.1,0.2-0.2,0.4-0.4,0.5h0v0l-0.1,0.2h0v0l-0.1,0.2l0,0
	l0,0c-0.2,0.3-0.5,0.6-0.8,1l0,0c-0.3,0.4-0.6,0.7-0.9,1.1h0v0c-0.3,0.4-0.6,0.7-1,1.1h0v0c-0.2,0.2-0.4,0.5-0.7,0.7h0l0,0
	c-0.5,0.5-1,1-1.5,1.6c0,0,0.1,0,0.1,0l0.1-0.1h0l0,0c0.1-0.1,0.3-0.1,0.4-0.2c1.7-0.7,3.5-1.3,5-2.4c1.7-2.1,3.1-4.5,4.7-6.7l0,0v0
	c0.3-0.4,0.6-0.8,0.9-1.2h0l0,0l0.1-0.2h0v0c0.2-0.2,0.3-0.4,0.5-0.6l0,0v0c0.1-0.1,0.1-0.2,0.2-0.2h0v0c0.1-0.1,0.1-0.2,0.2-0.2
	l0,0v0c0.1-0.1,0.2-0.3,0.3-0.4c0,0,0,0,0,0c0.6-0.8,1.3-1.6,1.9-2.4v0c0.1-0.1,0.2-0.2,0.2-0.3l0,0v0c0.1-0.1,0.2-0.2,0.3-0.3h0v0
	c0.3-0.4,0.6-0.7,1-1.1h0l0,0l0,0l0,0l0,0l0,0h0v0l0,0h0l0,0l0,0v0l0,0l0.1-0.1c0,0,0,0,0,0c0.3-0.3,0.6-0.6,1-0.9h0v0
	c0.1-0.1,0.2-0.1,0.2-0.2h0v0c0.1,0,0.1-0.1,0.2-0.1h0v0c0.1,0,0.1-0.1,0.2-0.1c0,0,0.1-0.1,0.1-0.1h0v0l0.1-0.1h0v0l0.1-0.1h0v0
	l0.1-0.1h0v0l0.1-0.1l0,0v0c0.1,0,0.2-0.1,0.2-0.1h0v0c0.1,0,0.2-0.1,0.2-0.1h0v0c0.1-0.1,0.2-0.1,0.3-0.2l0,0
	c0.4-0.2,0.8-0.4,1.2-0.6h0c0.7-0.3,1.4-0.6,2.1-0.9h0v0c0.1,0,0.3-0.1,0.4-0.1c0,0,0,0,0,0l0,0c0,0,0,0,0,0c0,0,0,0,0,0
	c0,0,0,0,0,0v0.1c0,0,0,0,0,0c0,0,0,0,0,0c-0.4,0.2-0.8,0.6-1.1,1c-2.1,2.2-3.9,4.6-5,7.5c-0.4,0.9-0.8,1.7-1.2,2.6v0l0,0.1l0,0v0
	c-0.1,0.2-0.2,0.4-0.3,0.6h0v0l0,0.1l0,0l0,0c-0.2,0.3-0.3,0.6-0.5,1h0l0,0c0,0.1-0.1,0.2-0.1,0.2h0v0c-0.1,0.1-0.2,0.3-0.2,0.4h0v0
	l-0.1,0.1h0v0L70,55.4h0v0l-0.1,0.1l0,0v0c-0.1,0.1-0.2,0.2-0.2,0.3l0,0v0c0,0.1-0.1,0.1-0.1,0.2l0,0c-0.1,0.1-0.1,0.2-0.2,0.2h0v0
	l0,0h0v0c-0.1,0.1-0.1,0.2-0.2,0.2h0v0c-0.2,0.2-0.3,0.4-0.5,0.6v0l0,0l0,0c-0.1,0.1-0.2,0.2-0.3,0.3c-0.6,0.8-1.3,1.6-2.1,2.3h0v0
	c-0.3,0.3-0.7,0.5-1.1,0.7h0l0,0l-0.1,0h0v0l-0.1,0h0v0l-0.1,0h0v0c-0.1,0-0.1,0.1-0.2,0.1l0,0l0,0c-0.1,0-0.2,0.1-0.2,0.1h0v0
	c0,0-0.1,0-0.1,0h0v0C64,61,64,61,63.9,61.1c-0.1,0-0.2,0.1-0.4,0.1h0v0c-0.1,0-0.3,0.1-0.4,0.1h0v0c-0.2,0-0.3,0.1-0.5,0.1h0l0,0
	c-0.1,0-0.2,0-0.3,0h0v0c-0.2,0-0.4,0.1-0.6,0.1h0v0c-0.1,0-0.2,0-0.4,0h0l0,0c-1.8,0.2-3.7,0.3-5.5,1.1c0,0,0,0,0,0
	c-1.3,0.5-2.2,1.6-3.2,2.5l0,0v0c-0.1,0.1-0.3,0.3-0.4,0.4h0v0c-0.1,0.1-0.2,0.1-0.3,0.2c0,0,0,0,0,0c-0.6,0.4-1.1,0.9-1.7,1.3
	c0,0,0,0,0,0c-0.1,0-0.1,0.1-0.2,0.1c0,0,0,0,0,0c0,0-0.1,0-0.1,0c0,0,0,0,0,0c-0.1,0-0.1,0.1-0.2,0.1c0,0,0,0,0,0c0,0,0,0,0,0
	c0,0,0,0,0,0c-0.1,0-0.3-0.1-0.3-0.3C49.7,66.8,49.8,66.7,50,66.5L50,66.5z"/>
<polyline class="st0" points="60.8,31.2 60.8,31.2 60.8,31.2 60.8,31.2 "/>
<polyline class="st0" points="73.4,45.8 73.4,45.8 73.4,45.8 73.4,45.8 "/>
<path class="st0" d="M62,31.9C62,31.9,62,31.9,62,31.9C62,31.9,62,31.9,62,31.9C62,31.9,62,31.9,62,31.9"/>
<path class="st0" d="M60.8,31.2C60.8,31.2,60.8,31.2,60.8,31.2C60.8,31.2,60.8,31.2,60.8,31.2L60.8,31.2
	C60.8,31.2,60.8,31.2,60.8,31.2L60.8,31.2C60.8,31.2,60.8,31.2,60.8,31.2C60.8,31.2,60.8,31.2,60.8,31.2"/>
<path class="st0" d="M72.7,50.2C72.7,50.2,72.6,50.2,72.7,50.2C72.6,50.2,72.6,50.3,72.7,50.2C72.6,50.2,72.6,50.2,72.7,50.2"/>
<polyline class="st0" points="63.4,39.8 63.4,39.8 63.4,39.8 63.4,39.8 "/>
<path class="st0" d="M63.4,40.6C63.4,40.6,63.4,40.6,63.4,40.6C63.4,40.6,63.4,40.6,63.4,40.6"/>
<path class="st0" d="M62.7,21.4C62.7,21.4,62.7,21.4,62.7,21.4C62.7,21.5,62.7,21.5,62.7,21.4C62.7,21.5,62.7,21.4,62.7,21.4"/>
<path class="st0" d="M76.2,43.1C76.2,43.1,76.2,43.1,76.2,43.1C76.2,43.1,76.3,43.1,76.2,43.1C76.2,43.1,76.2,43.1,76.2,43.1"/>
<polyline class="st0" points="57.7,41 57.7,41 57.7,41 57.7,41 "/>
<path class="st0" d="M52.4,48C52.4,48,52.4,48,52.4,48C52.4,48,52.4,48,52.4,48L52.4,48"/>
<polyline class="st0" points="51.6,49 51.6,49 51.6,49 51.6,49 "/>
<path class="st0" d="M52.2,49C52.2,49,52.2,49,52.2,49C52.2,49,52.2,49,52.2,49z"/>
<polyline class="st0" points="54.8,50.5 54.8,50.5 54.8,50.5 54.8,50.5 "/>
<polyline class="st0" points="52.3,48.2 52.4,48.2 52.4,48.2 52.3,48.2 "/>
<polyline class="st0" points="59.9,46.4 59.9,46.4 59.9,46.4 59.9,46.4 "/>
<polyline class="st0" points="53.5,57.9 53.5,57.9 53.5,57.9 53.5,57.9 "/>
<polyline class="st0" points="53.7,50.1 53.7,50.1 53.7,50.1 53.7,50.1 "/>
<polyline class="st0" points="57.3,41.8 57.3,41.8 57.3,41.8 57.3,41.8 "/>
<polyline class="st0" points="52.1,49.3 52.1,49.3 52.1,49.3 52.1,49.3 "/>
<polyline class="st0" points="51.5,49.3 51.5,49.3 51.5,49.3 51.5,49.3 "/>
<path class="st0" d="M57.2,41.6C57.2,41.6,57.2,41.6,57.2,41.6C57.2,41.6,57.2,41.6,57.2,41.6C57.2,41.6,57.2,41.6,57.2,41.6"/>
<polyline class="st0" points="60.2,53.3 60.2,53.3 60.2,53.3 60.2,53.3 "/>
<polyline class="st0" points="57.6,41.3 57.6,41.3 57.6,41.3 57.6,41.3 "/>
<polyline class="st0" points="57.7,42.5 57.7,42.5 57.7,42.5 57.7,42.5 "/>
<path class="st0" d="M32.9,70.6L32.9,70.6l-0.1,0c-0.2,0-0.4,0-0.5,0v0h0c-0.1,0-0.3,0-0.4,0v0h0c-0.1,0-0.2,0-0.3,0v0h-0.1
	c-0.1,0-0.2,0-0.3,0v0h-0.1c-0.1,0-0.2,0-0.4,0l0,0h0c-0.2,0-0.4-0.1-0.6-0.1l0,0h0c-0.1,0-0.2,0-0.3,0v0h0l-0.2,0v0h0l-0.2,0v0h0
	c-0.3-0.1-0.6-0.1-0.9-0.2v0h0l-0.2,0v0h0l-0.2,0v0h0l-0.2,0v0h0c-0.3-0.1-0.6-0.2-0.9-0.2v0h0l-0.2,0h0l-0.1,0v0h0l-0.2,0v0h0
	l-0.1,0v0h0l-0.2,0v0h0c-0.2-0.1-0.4-0.1-0.6-0.2l0,0h0l-0.1,0v0h0l-0.1,0l0,0h0l-0.1,0v0h0l-0.1,0v0h0l-0.1,0v0h0l-0.1,0v0h0
	c-0.2-0.1-0.4-0.2-0.7-0.2l0,0h0l-0.2-0.1v0h0l-0.2-0.1v0h0l-0.1,0l0,0h0l-0.1,0v0h0l-0.1,0v0h0c-0.2-0.1-0.4-0.1-0.5-0.2
	c-0.1-0.1-0.3-0.1-0.4-0.2l0,0h0l-0.1,0v0h0c-0.1,0-0.2-0.1-0.3-0.1l0,0h0l-0.1,0v0h0c-0.2-0.1-0.5-0.2-0.7-0.3v0h0l-0.1,0v0h0
	l-0.1,0v0h0l-0.1,0v0h0l-0.1,0v0h0l-0.1,0v0h0L20,67v0h0l-0.1,0v0h0l-0.1,0v0h0c-0.2-0.1-0.5-0.3-0.7-0.4l0,0h0
	c-0.1-0.1-0.2-0.1-0.3-0.2v0h0l-0.1,0l-0.2-0.1v0h0c-0.1-0.1-0.2-0.1-0.3-0.2v0h0c-0.2-0.1-0.4-0.2-0.6-0.4v0h0
	c-0.1-0.1-0.2-0.2-0.4-0.2v0h0l-0.1-0.1v0h0l-0.1-0.1v0h0c-0.2-0.1-0.4-0.3-0.6-0.4v0h0c-0.1-0.1-0.2-0.2-0.3-0.2v0h0l-0.1-0.1v0h0
	l-0.2-0.1v0h0l-0.1-0.1l0,0h0c-0.1-0.1-0.3-0.2-0.4-0.3v0h0l-0.2-0.1l0,0l0,0c-0.1-0.1-0.2-0.1-0.2-0.2v0h0l-0.2-0.1l0,0l0,0l0,0v0
	h0l-0.2-0.1l0,0h0c-0.2-0.2-0.4-0.3-0.6-0.5v0h0c-0.1-0.1-0.2-0.2-0.3-0.2v0l0,0v0h0c-0.1-0.1-0.2-0.2-0.3-0.3l0,0h0l0,0v0h0
	c-0.2-0.1-0.3-0.3-0.5-0.4v0h0l0,0v0h0l0,0v0h0l0,0v0h0c-0.3-0.3-0.5-0.5-0.8-0.8c-0.3-0.3-0.5-0.5-0.8-0.8v0h0l0,0v0h0l0,0v0h0l0,0
	l0,0h0c-0.1-0.2-0.3-0.3-0.4-0.5v0h0l0,0l0,0l0,0c-0.1-0.1-0.2-0.2-0.3-0.3v0h0l0,0l0,0l0,0c-0.1-0.1-0.2-0.2-0.2-0.3v0h0
	C9.3,58.4,9.1,58.2,9,58l0,0h0l-0.1-0.2v0h0l0,0v0h0l-0.1-0.2v0h0c-0.1-0.1-0.1-0.2-0.2-0.2l0,0h0l-0.1-0.2v0h0
	C8.2,57,8.1,56.9,8,56.7l-0.1-0.1v0h0l-0.1-0.2v0h0l-0.1-0.1v0h0c-0.1-0.1-0.2-0.2-0.2-0.3v0h0c-0.1-0.2-0.3-0.4-0.4-0.6v0h0L7,55.2
	v0h0l-0.1-0.1v0h0l-0.1-0.2v0h0l-0.1-0.1v0h0c-0.1-0.2-0.3-0.4-0.4-0.6l0,0l0,0c-0.1-0.1-0.1-0.2-0.2-0.3v0h0c0-0.1-0.1-0.2-0.1-0.2
	l0-0.1v0h0c-0.1-0.1-0.1-0.2-0.2-0.3l0,0h0c-0.1-0.2-0.3-0.5-0.4-0.7v0h0l0-0.1v0h0l0-0.1v0h0l0-0.1v0h0l0-0.1v0h0l0-0.1v0h0l0-0.1
	v0h0l0-0.1v0h0l0-0.1v0h0l0-0.1v0c-0.1-0.2-0.2-0.4-0.3-0.6v0h0l0-0.1v0l0,0c0-0.1-0.1-0.2-0.1-0.3v0h0l0-0.1v0l0,0
	c-0.1-0.1-0.1-0.3-0.2-0.4C4.1,49.7,4,49.6,4,49.4v0h0l0-0.1v0h0l0-0.1v0h0l0-0.1v0h0l-0.1-0.2v0h0c-0.1-0.3-0.2-0.6-0.3-0.9v0h0
	l0-0.1v0h0l0-0.1v0h0l0-0.1v0h0l0-0.1v0h0l0-0.1v0h0l0-0.1v0h0C3,46.8,3,46.6,2.9,46.4v0h0l0-0.2v0h0l0-0.1v0h0l0-0.2v0h0l0-0.1v0h0
	l0-0.2v0h0c-0.1-0.3-0.2-0.6-0.2-0.9v0h0l0-0.2v0h0l0-0.2v0h0l0-0.2v0h0c-0.1-0.3-0.1-0.6-0.2-0.9v0h0l0-0.2v0h0l0-0.2v0h0l0-0.3v0
	h0c-0.1-0.3-0.1-0.6-0.1-1v-0.1h0c0-0.1,0-0.2,0-0.3v-0.1h0c0-0.1,0-0.2,0-0.3v0h0c0-0.1,0-0.3,0-0.4v0h0c0-0.2,0-0.4,0-0.5v-0.1h0
	c-0.1-0.8-0.1-1.6-0.1-2.5c0-0.6,0-1.2,0-1.8l0,0v0c0-0.2,0-0.4,0-0.6h0v-0.1c0-0.2,0-0.4,0-0.5h0v0c0-0.2,0-0.3,0-0.5
	c0-0.1,0-0.3,0-0.4h0v0c0-0.1,0-0.2,0-0.3h0v0c0-0.1,0-0.2,0-0.3h0v0c0-0.1,0-0.2,0-0.3v0l0-0.3h0v0C2,31.1,2,31,2,31h0v0l0-0.3h0v0
	l0-0.2h0v0l0-0.3c0-0.2,0.1-0.4,0.1-0.7h0v0l0-0.2h0v0l0-0.2h0v0l0-0.2h0v0c0-0.1,0.1-0.3,0.1-0.4v0c0-0.2,0.1-0.4,0.1-0.5h0v0
	l0-0.2h0v0c0-0.1,0.1-0.2,0.1-0.3h0v0c0-0.1,0.1-0.2,0.1-0.3h0v0c0-0.2,0.1-0.3,0.1-0.5h0v0l0-0.1h0v0l0-0.1h0v0l0-0.1h0v0l0-0.1h0
	v0l0-0.1h0v0l0-0.1h0v0l0-0.1h0v0l0-0.1h0v0l0-0.1c0-0.1,0.1-0.3,0.1-0.4h0v0c0-0.1,0.1-0.2,0.1-0.4h0v0l0.1-0.2h0v0L4,24h0v0
	l0.1-0.2h0v0c0-0.1,0.1-0.2,0.1-0.3c0-0.1,0.1-0.2,0.1-0.3h0v0l0-0.1h0v0c0-0.1,0.1-0.2,0.1-0.3h0v0l0-0.1h0v0
	c0.1-0.2,0.2-0.3,0.2-0.5h0v0c0.1-0.3,0.2-0.5,0.4-0.8h0v0l0-0.1h0v0l0-0.1h0v0l0-0.1h0v0l0-0.1h0v0l0-0.1h0v0
	c0.1-0.2,0.2-0.4,0.3-0.6h0v0c0.1-0.1,0.1-0.2,0.2-0.3h0v0c0.1-0.1,0.1-0.2,0.2-0.3h0v0c0.1-0.2,0.3-0.5,0.4-0.7h0v0
	c0.1-0.1,0.2-0.3,0.2-0.4h0v0l0.1-0.1h0v0c0.2-0.3,0.4-0.7,0.7-1h0v0l0.1-0.1h0v0L7.8,17h0v0l0.1-0.1h0v0c0.2-0.3,0.5-0.6,0.7-1h0v0
	c0.1-0.1,0.1-0.2,0.2-0.2h0v0l0.1-0.2h0v0c0.1-0.2,0.3-0.4,0.4-0.5v0c0.1-0.1,0.2-0.2,0.3-0.3h0v0l0,0h0v0c0.1-0.1,0.2-0.2,0.3-0.3
	h0v0c0.1-0.1,0.3-0.3,0.4-0.4v0l0,0h0v0c0.3-0.3,0.6-0.6,0.9-0.9l0,0l0,0l0.1-0.1l0,0l0,0v0l0,0l0,0c0.3-0.3,0.6-0.6,0.9-0.9h0v0
	l0,0h0v0c0.1-0.1,0.3-0.3,0.4-0.4h0v0l0,0l0,0v0c0.1-0.1,0.2-0.2,0.3-0.2h0v0l0,0h0v0c0.1-0.1,0.2-0.2,0.3-0.3h0v0
	c0.1-0.1,0.2-0.2,0.3-0.2h0v0c0.1-0.1,0.2-0.1,0.2-0.2h0v0l0.2-0.1h0v0l0,0h0v0l0.2-0.1h0v0c0.1-0.1,0.2-0.1,0.2-0.2h0l0,0l0.2-0.1
	h0v0l0.2-0.1h0l0,0c0.1-0.1,0.2-0.2,0.3-0.2h0v0l0.2-0.1l0,0l0.1-0.1h0v0c0.2-0.1,0.3-0.2,0.5-0.3h0v0l0.1-0.1h0v0l0.1-0.1h0v0
	l0.1-0.1h0v0C17,8.1,17.1,8,17.2,8h0v0l0.1-0.1h0v0c0.1-0.1,0.3-0.2,0.4-0.2h0v0c0.1,0,0.2-0.1,0.2-0.1h0v0l0.2-0.1h0v0l0.1,0h0v0
	l0.2-0.1h0v0c0.1-0.1,0.2-0.1,0.3-0.2h0v0c0.2-0.1,0.3-0.2,0.5-0.3h0v0l0.1,0h0v0l0.1,0h0v0c0.4-0.2,0.9-0.5,1.3-0.7h0v0l0.1,0h0v0
	c0.1-0.1,0.3-0.1,0.4-0.2h0v0l0.1,0h0v0c0.1-0.1,0.3-0.1,0.4-0.2h0l0,0l0.2-0.1c0.1-0.1,0.3-0.1,0.4-0.2h0v0l0.2-0.1h0v0L23,5h0l0,0
	l0.1,0h0v0c0.1,0,0.2-0.1,0.2-0.1h0v0c0.7-0.3,1.4-0.5,2.1-0.7h0v0c0.1,0,0.2-0.1,0.3-0.1h0v0L26,4h0l0.2,0h0v0
	c0.1,0,0.2-0.1,0.3-0.1h0v0c0.3-0.1,0.6-0.2,0.9-0.2h0v0l0.2,0h0v0l0.2,0h0v0l0.2,0h0v0c0.3-0.1,0.6-0.1,0.9-0.2h0v0l0.2,0h0v0
	c0.1,0,0.2,0,0.3,0h0v0l0.3,0h0v0c0.2,0,0.4-0.1,0.6-0.1h0v0c0.1,0,0.2,0,0.3,0h0.1v0c0.1,0,0.2,0,0.3,0h0.1v0c0.1,0,0.2,0,0.3,0h0
	v0c0.1,0,0.3,0,0.4,0h0v0c0.2,0,0.4,0,0.5,0h0.1v0c0.2,0,0.4,0,0.6,0h0.1v0c0.4,0,0.7,0,1.1,0h1.8c0.4,0,0.7,0,1.1,0v0h0.1
	c0.2,0,0.4,0,0.6,0v0h0.1c0.2,0,0.4,0,0.5,0v0h0c0.1,0,0.3,0,0.4,0v0h0.1c0.1,0,0.3,0,0.4,0v0h0c0.1,0,0.2,0,0.3,0v0h0
	c0.3,0,0.6,0.1,0.9,0.1v0h0l0.2,0v0h0l0.2,0v0h0c0.1,0,0.2,0,0.3,0v0l0,0l0.2,0l0,0h0l0.2,0v0h0l0.2,0h0l0.2,0v0h0l0.2,0v0h0l0.2,0
	v0h0c0.4,0.1,0.7,0.2,1.1,0.3v0h0l0.2,0v0h0l0.1,0v0h0l0.2,0v0h0C44.8,4,44.9,4,45,4.1v0h0c0.2,0.1,0.4,0.1,0.6,0.2l0,0h0l0.1,0v0h0
	l0.1,0v0h0l0.1,0v0h0l0.1,0v0h0l0.1,0v0h0l0.1,0l0,0c0.2,0.1,0.4,0.1,0.5,0.2v0h0c0.1,0,0.3,0.1,0.4,0.1v0h0L47.6,5v0h0l0.2,0.1v0h0
	l0.2,0.1v0h0c0.1,0,0.2,0.1,0.3,0.1c0.1,0,0.2,0.1,0.3,0.1v0h0c0.1,0,0.2,0.1,0.3,0.1v0h0l0.1,0v0h0c0.1,0,0.2,0.1,0.3,0.1l0,0
	l0.1,0v0h0c0.6,0.3,1.3,0.6,1.9,1v0l0,0c0.1,0.1,0.2,0.1,0.3,0.2v0h0l0.1,0v0h0c0.1,0.1,0.2,0.1,0.3,0.2v0h0
	c0.1,0.1,0.2,0.1,0.3,0.2l0,0l0.2,0.1l0,0l0,0c0.1,0.1,0.3,0.2,0.4,0.2v0h0c0.1,0.1,0.2,0.2,0.4,0.2v0h0l0.1,0.1v0h0
	c0.2,0.2,0.5,0.3,0.7,0.5v0h0l0.1,0.1v0h0l0.1,0.1l0.2,0.1v0h0L55,9v0l0,0c0.3,0.2,0.5,0.4,0.8,0.6v0h0L56,9.7v0h0l0.2,0.1h0l0,0v0
	h0l0.2,0.1v0h0c0.1,0.1,0.2,0.1,0.2,0.2l0,0l0,0c0.1,0.1,0.2,0.2,0.3,0.2v0h0c0.1,0.1,0.2,0.2,0.3,0.2l0,0l0,0l0,0v0h0
	c0.1,0.1,0.2,0.2,0.3,0.3v0h0c0.1,0.1,0.3,0.3,0.4,0.4v0h0c0.2,0.2,0.4,0.4,0.7,0.6l0,0l0,0v0h0l0,0v0h0l0,0v0h0l0,0v0h0
	c0.1,0.1,0.1,0.1,0.2,0.2c0.1,0.1,0.1,0.2,0,0.3l0,0v0c0,0,0,0,0,0c-0.1,0.1-0.2,0.1-0.3,0c-6.3-6.2-14.6-9.7-23.4-9.7
	C17,3.1,2,18.2,2,36.7s15,33.5,33.3,33.5c3.4,0,6.7-0.5,9.9-1.5c0.1,0,0.3,0,0.3,0.2c0,0.1,0,0.3-0.2,0.3c-0.1,0-0.2,0.1-0.3,0.1h0
	v0l-0.1,0h0v0l-0.2,0h0v0l-0.1,0h-0.1v0l-0.1,0h-0.1v0l-0.1,0h-0.1v0l-0.1,0H44v0l-0.1,0h-0.1v0l-0.1,0h0v0l-0.1,0h0v0l-0.2,0h0v0
	c-0.3,0.1-0.5,0.1-0.8,0.2h-0.1v0l-0.2,0h-0.1v0l-0.2,0H42v0l-0.2,0h-0.1v0l-0.2,0h-0.1v0l-0.1,0h-0.1v0l-0.2,0H41v0l-0.2,0h0l0,0
	c-0.2,0-0.4,0.1-0.6,0.1H40v0l-0.3,0h-0.1v0l-0.3,0h-0.2v0l-0.2,0h-0.2v0c-0.1,0-0.2,0-0.3,0h-0.1v0c-0.4,0-0.8,0.1-1.2,0.1h-0.5v0
	c-0.4,0-0.9,0-1.3,0C34.5,70.7,33.7,70.7,32.9,70.6"/>
<path class="st0" d="M36.8,45.9c1.8-0.1,3.1-1,4.3-2.2c2.2-2.3,4.5-4.5,6.7-6.8c0.3-0.3,0.4-0.3,0.7,0c0.9,0.9,1.8,1.8,2.6,2.7
	c0.5,0.5,0.9,0.5,1.3-0.1c0.4-0.5,0.8-1,1.2-1.5c0.3-0.4,0.3-0.8,0-1.1c-0.3-0.2-0.7-0.1-1.1,0.3c-0.2,0.3-0.4,0.6-0.6,0.8
	c-0.1,0.2-0.2,0.2-0.3,0c-0.1-0.1-0.2-0.2-0.3-0.3c-1.8-1.8-3.6-3.7-5.5-5.5c-0.2-0.2-0.2-0.4,0-0.6c2.4-1.8,4.8-3.7,7.2-5.5
	c0.1-0.1,0.2-0.2,0.3-0.2c0.3-0.3,0.3-0.7,0.1-1c-0.2-0.3-0.6-0.3-0.9-0.1c-0.2,0.2-0.5,0.4-0.7,0.5c-2.5,1.9-5,3.9-7.5,5.8
	c-0.6,0.5-0.7,0.8-0.1,1.4c0.9,0.9,1.8,1.8,2.7,2.7c0.2,0.2,0.2,0.4,0,0.6c-1.3,1.3-2.6,2.6-3.9,3.9c-0.6,0.6-1.1,1.1-1.7,1.7
	c-0.3,0.3-0.8,0.3-1.2,0.3c-2.4,0.4-4.7,0.4-7-0.5c-1-0.4-1.8-0.9-2.6-1.6c-6.1-6.1-12.2-12.2-18.2-18.3c-0.1-0.2-0.3-0.3-0.5-0.4
	c-0.3-0.1-0.6-0.1-0.8,0.2c-0.2,0.2-0.2,0.5,0,0.8c0.1,0.1,0.2,0.3,0.4,0.4c3.9,3.9,7.7,7.8,11.6,11.7c0.3,0.3,0.3,0.5,0.1,0.8
	c-1.9,2.5-1.7,5.5,0.5,7.8c1.7,1.7,3.4,3.4,5.1,5.2c0.4,0.4,0.4,0.4-0.1,0.6c-3.5,1.2-6.7,0.7-9.4-1.8c-2.2-2.1-4.2-4.2-6.4-6.4
	c-0.1-0.1-0.3-0.3-0.5-0.4c-0.3-0.1-0.6-0.1-0.8,0.2c-0.2,0.2-0.2,0.5,0,0.8c0.1,0.1,0.2,0.2,0.3,0.3c2.1,2.1,4.1,4.1,6.2,6.2
	c2.1,2.1,4.7,3.2,7.7,3.1c1.4,0,2.8-0.4,4.1-1c0.3-0.1,0.4-0.1,0.7,0.1c0.8,0.8,1.5,1.6,2.5,2.2c2,1.2,4.8,0.8,6.5-0.8
	c0.2-0.1,0.3-0.3,0.5-0.4c0.5-0.5,0.5-0.8,0-1.4c-0.9-0.9-1.8-1.8-2.7-2.8C37,46.2,36.8,46.2,36.8,45.9 M35.6,51
	c-1.2,0.1-2.1-0.4-3-1.2c-0.2-0.2-0.3-0.3-0.5-0.5c-2.6-2.6-5.2-5.2-7.7-7.8c-1.6-1.6-1.7-4.1-0.4-5.7c0.3-0.4,0.3-0.4,0.7,0
	c1.8,1.8,3.7,3.7,5.5,5.5c2.7,2.7,5.4,5.4,8.2,8.2c0.2,0.2,0.3,0.4,0,0.6C37.5,50.7,36.6,51.1,35.6,51z M39.3,43.4
	C37.9,45,35,45,34,43.1C35.8,43.5,37.5,43.5,39.3,43.4z"/>
<path class="st0" d="M30.5,46.5c0.3,0,0.5-0.1,0.6-0.4c0.1-0.3,0.1-0.5-0.1-0.7c-0.4-0.4-0.9-0.9-1.3-1.3c-0.5-0.5-1.1-1.1-1.6-1.6
	c-0.4-0.4-0.7-0.4-1-0.1c-0.3,0.3-0.3,0.7,0,1.1c0.9,1,1.9,1.9,2.8,2.8C30.1,46.4,30.3,46.5,30.5,46.5"/>
<path class="st0" d="M31,47c0,0.4,0.6,1,1,1c0.4,0,0.7-0.3,0.7-0.7c0-0.4-0.6-1-1-1C31.3,46.4,31,46.7,31,47"/>
</svg>
