<?xml version="1.0" encoding="utf-8"?>
<!-- Generator: Adobe Illustrator 16.0.0, SVG Export Plug-In . SVG Version: 6.00 Build 0)  -->
<!DOCTYPE svg PUBLIC "-//W3C//DTD SVG 1.1//EN" "http://www.w3.org/Graphics/SVG/1.1/DTD/svg11.dtd">
<svg version="1.1" id="Capa_1" xmlns="http://www.w3.org/2000/svg" xmlns:xlink="http://www.w3.org/1999/xlink" x="0px" y="0px"
	 width="122.4px" height="122.4px" viewBox="0 0 122.4 122.4" style="enable-background:new 0 0 122.4 122.4;" xml:space="preserve"
	>
<style type="text/css">
<![CDATA[
	.st0{fill:none;stroke:#000000;stroke-width:1.44;stroke-linecap:round;stroke-linejoin:round;stroke-miterlimit:22.9256;}
	.st1{fill:none;stroke:#000000;stroke-width:0.5669;stroke-miterlimit:22.9256;}
	.st2{fill-rule:evenodd;clip-rule:evenodd;}
]]>
</style>
<g>
	<path d="M21.8,107.8c-0.2,0-0.3,0.1-0.3,0.3v4.4c0,0.2,0.1,0.3,0.3,0.3h1.6c0.2,0,0.3,0.1,0.3,0.3c0,0.2-0.1,0.3-0.3,0.3h-4.2
		c-0.2,0-0.3-0.1-0.3-0.3c0-0.2,0.1-0.3,0.3-0.3h1.4c0.2,0,0.3-0.1,0.3-0.3v-12.1c0-0.2-0.1-0.3-0.3-0.3h-1.4
		c-0.2,0-0.3-0.1-0.3-0.3c0-0.2,0.1-0.3,0.3-0.3h6.6c1.3,0,2.3,0.4,3,1.1c0.7,0.7,1,1.7,1,3.1c0,1.4-0.3,2.4-1,3.1s-1.7,1.1-3,1.1
		H21.8z M25.8,107.2c2.2,0,3.4-1.2,3.4-3.6s-1.1-3.6-3.4-3.6h-4.1c-0.2,0-0.3,0.1-0.3,0.3v6.5c0,0.2,0.1,0.3,0.3,0.3H25.8z"/>
</g>
<g>
	<path d="M39,111.9c0.2-0.2,0.4-0.3,0.5-0.4c0.1-0.1,0.2-0.1,0.3-0.1c0.1,0,0.1,0.1,0.2,0.2c0.1,0.1,0.1,0.2-0.1,0.4
		c-0.5,0.4-1,0.8-1.6,1.1s-1.4,0.4-2.4,0.4c-1.4,0-2.5-0.5-3.4-1.4c-0.9-1-1.3-2.2-1.3-3.7s0.4-2.7,1.3-3.7c0.9-1,2-1.4,3.3-1.4
		c1.4,0,2.5,0.4,3.4,1.3s1.3,1.9,1.3,3.1v0.3c0,0.4-0.2,0.6-0.6,0.6h-7.8c-0.2,0-0.3,0.1-0.3,0.3c0.1,1.1,0.5,2.1,1.2,2.9
		c0.7,0.8,1.7,1.2,2.9,1.2C37.2,112.9,38.2,112.6,39,111.9z M31.9,107.7c0,0.2,0.1,0.2,0.3,0.2h7.5c0.2,0,0.3-0.1,0.3-0.3
		c0-1.1-0.4-2-1.2-2.7c-0.8-0.8-1.7-1.1-2.9-1.1c-1.2,0-2.1,0.4-2.9,1.2C32.3,105.9,31.9,106.8,31.9,107.7z"/>
	<path d="M50.7,100.4c0-0.2-0.1-0.3-0.3-0.3h-1.6c-0.2,0-0.3-0.1-0.3-0.3c0-0.2,0.1-0.3,0.3-0.3H51c0.2,0,0.3,0.1,0.3,0.3v12.7
		c0,0.2,0.1,0.3,0.3,0.3H53c0.2,0,0.3,0.1,0.3,0.3c0,0.2-0.1,0.3-0.3,0.3h-2c-0.2,0-0.3-0.1-0.3-0.3v-1.1c0-0.1,0-0.2-0.1-0.3
		c-0.1-0.1-0.1,0-0.2,0.1c-0.3,0.4-0.8,0.8-1.5,1.2c-0.6,0.4-1.3,0.6-2.1,0.6c-1.4,0-2.5-0.5-3.3-1.4c-0.8-0.9-1.2-2.2-1.2-3.7
		s0.5-2.8,1.4-3.7s2.3-1.3,3.9-1.3h2.7c0.2,0,0.3-0.1,0.3-0.3V100.4z M50.7,104.3c0-0.2-0.1-0.3-0.3-0.3h-2.7
		c-1.5,0-2.7,0.4-3.5,1.1S43,107,43,108.4s0.3,2.5,1,3.3c0.7,0.8,1.6,1.2,2.7,1.2s2.1-0.4,3-1.3c0.4-0.4,0.7-0.8,1-1.3V104.3z"/>
	<path d="M54.6,113c0-0.2,0.1-0.3,0.3-0.3h1.4c0.2,0,0.3-0.1,0.3-0.3v-8.1c0-0.2-0.1-0.3-0.3-0.3h-1.4c-0.2,0-0.3-0.1-0.3-0.3
		c0-0.2,0.1-0.3,0.3-0.3h2c0.2,0,0.3,0.1,0.3,0.3v8.7c0,0.2,0.1,0.3,0.3,0.3h1.4c0.2,0,0.3,0.1,0.3,0.3c0,0.2-0.1,0.3-0.3,0.3h-4
		C54.7,113.3,54.6,113.2,54.6,113z M56.3,101.6c-0.2-0.2-0.2-0.3-0.2-0.6c0-0.2,0.1-0.4,0.2-0.6c0.2-0.2,0.3-0.2,0.6-0.2
		s0.4,0.1,0.6,0.2s0.2,0.3,0.2,0.6c0,0.2-0.1,0.4-0.2,0.6s-0.3,0.2-0.6,0.2S56.4,101.8,56.3,101.6z"/>
</g>
<g>
	<path d="M68.6,105.9c-1.1-1.4-2.3-2.1-3.8-2.1c-1.1,0-2,0.4-2.7,1.3c-0.7,0.9-1.1,2-1.1,3.3c0,1.4,0.4,2.4,1.1,3.3
		c0.8,0.8,1.7,1.2,3,1.2c1.2,0,2.2-0.3,3-1c0.2-0.2,0.4-0.3,0.5-0.4c0.1-0.1,0.2-0.1,0.3-0.1c0.1,0,0.1,0.1,0.2,0.2
		c0.1,0.1,0.1,0.1,0.1,0.2s-0.1,0.1-0.2,0.3c-0.4,0.4-1,0.7-1.6,1c-0.6,0.3-1.4,0.4-2.4,0.4c-1.4,0-2.5-0.5-3.4-1.4
		c-0.9-1-1.3-2.2-1.3-3.7s0.4-2.8,1.2-3.7c0.8-1,1.9-1.4,3.2-1.4c1.3,0,2.4,0.5,3.4,1.5c0.2,0.2,0.3,0.1,0.3-0.2v-0.8
		c0-0.2,0.1-0.3,0.3-0.3c0.2,0,0.3,0.1,0.3,0.3v3.2c0,0.2-0.1,0.3-0.3,0.3c-0.2,0-0.3-0.1-0.3-0.3V105.9z"/>
	<path d="M70.8,103.4h2c0.2,0,0.3,0.1,0.3,0.3v5.8c0,1.1,0.3,2,0.9,2.5c0.6,0.6,1.4,0.8,2.4,0.8s1.9-0.4,2.8-1.3
		c0.4-0.4,0.7-0.9,1-1.3v-5.9c0-0.2-0.1-0.3-0.3-0.3h-1.4c-0.2,0-0.3-0.1-0.3-0.3c0-0.2,0.1-0.3,0.3-0.3h2c0.2,0,0.3,0.1,0.3,0.3
		v8.7c0,0.2,0.1,0.3,0.3,0.3h1.4c0.2,0,0.3,0.1,0.3,0.3c0,0.2-0.1,0.3-0.3,0.3h-2c-0.2,0-0.3-0.1-0.3-0.3v-1.1c0-0.1,0-0.2-0.1-0.3
		c-0.1-0.1-0.1,0-0.2,0.1c-1.1,1.2-2.2,1.8-3.5,1.8c-1.3,0-2.2-0.3-2.9-1s-1-1.7-1-2.9v-5.2c0-0.2-0.1-0.3-0.3-0.3h-1.4
		c-0.2,0-0.3-0.1-0.3-0.3C70.5,103.5,70.6,103.4,70.8,103.4z"/>
	<path d="M91.4,103.8c-1.7,0-3,0.7-4.2,2c-0.3,0.4-0.6,0.7-0.8,1.1v5.5c0,0.2,0.1,0.3,0.3,0.3h1.6c0.2,0,0.3,0.1,0.3,0.3
		c0,0.2-0.1,0.3-0.3,0.3h-4.2c-0.2,0-0.3-0.1-0.3-0.3c0-0.2,0.1-0.3,0.3-0.3h1.4c0.2,0,0.3-0.1,0.3-0.3v-8.1c0-0.2-0.1-0.3-0.3-0.3
		h-1.4c-0.2,0-0.3-0.1-0.3-0.3c0-0.2,0.1-0.3,0.3-0.3h2c0.2,0,0.3,0.1,0.3,0.3v1.6c0,0.3,0.1,0.3,0.4,0c0.5-0.6,1.1-1,1.9-1.5
		s1.7-0.6,2.6-0.6h1c0.2,0,0.3,0.1,0.3,0.3v2.5c0,0.2-0.1,0.3-0.3,0.3c-0.2,0-0.3-0.1-0.3-0.3v-1.9c0-0.2-0.1-0.3-0.3-0.3H91.4z"/>
	<path d="M102,111.9c0.2-0.2,0.4-0.3,0.5-0.4c0.1-0.1,0.2-0.1,0.3-0.1c0.1,0,0.1,0.1,0.2,0.2s0.1,0.2-0.1,0.4
		c-0.5,0.4-1,0.8-1.6,1.1c-0.6,0.3-1.4,0.4-2.4,0.4c-1.4,0-2.5-0.5-3.4-1.4c-0.9-1-1.3-2.2-1.3-3.7s0.4-2.7,1.3-3.7
		c0.9-1,2-1.4,3.3-1.4c1.4,0,2.5,0.4,3.4,1.3s1.3,1.9,1.3,3.1v0.3c0,0.4-0.2,0.6-0.6,0.6h-7.8c-0.2,0-0.3,0.1-0.3,0.3
		c0.1,1.1,0.5,2.1,1.2,2.9c0.7,0.8,1.7,1.2,2.9,1.2S101.2,112.6,102,111.9z M94.8,107.7c0,0.2,0.1,0.2,0.3,0.2h7.5
		c0.2,0,0.3-0.1,0.3-0.3c0-1.1-0.4-2-1.2-2.7c-0.8-0.8-1.7-1.1-2.9-1.1s-2.1,0.4-2.9,1.2C95.2,105.9,94.8,106.8,94.8,107.7z"/>
</g>
<path class="st2" d="M74.1,18.9C74.1,18.9,74.1,18.9,74.1,18.9c-0.1,0-0.1,0-0.2,0v0h0c-0.1,0-0.2,0-0.2,0v0h0c-0.1,0-0.1,0-0.2,0
	c0,0,0,0,0,0c-0.4,0.1-0.8,0.1-1.2,0.1C72.8,18.9,73.5,18.7,74.1,18.9 M76.1,15.3c0.1,0,0.2,0,0.3-0.1c-0.7,0.4-1.5,0.6-2.3,0.5
	c0.2,0,0.4-0.1,0.5-0.1c0,0,0,0,0,0c0.1,0,0.3,0,0.4-0.1v0h0l0.2,0v0h0.1l0.2,0v0h0l0.2,0v0h0C75.8,15.4,75.9,15.3,76.1,15.3
	C76.1,15.3,76.1,15.3,76.1,15.3z M74.7,14.9c0.1,0,0.2,0,0.3,0c-0.4,0.1-0.8,0.2-1.2,0.4v0h0c-0.1,0-0.2,0.1-0.3,0.1v0h0
	c-0.1,0-0.1,0-0.2,0.1c0.1-0.3,0.2-0.5,0.3-0.8c0.1,0,0.1,0,0.2,0.1H74v0C74.2,14.8,74.5,14.8,74.7,14.9z M75.5,11.7
	C75.5,11.7,75.5,11.7,75.5,11.7c0.1,0,0.1,0.1,0.2,0.1h0v0c0.1,0,0.2,0,0.2,0h0v0c0.1,0,0.2,0,0.3,0c-0.1,0-0.2,0-0.2,0.1v0h0
	l-0.1,0v0h0l-0.1,0v0h0l-0.1,0v0h0l-0.1,0v0h0l-0.1,0v0h-0.1l-0.1,0v0h0l-0.1,0v0h0c-0.1,0-0.2,0.1-0.3,0.1c0.1-0.3,0.3-0.5,0.4-0.8
	C75.3,11.7,75.4,11.7,75.5,11.7z M75.6,10.9C75.6,10.9,75.5,10.9,75.6,10.9c0-0.2,0.1-0.3,0.2-0.5c0.3,0,0.6,0.1,1,0.1
	c-0.1,0-0.2,0-0.3,0.1v0h0c-0.2,0.1-0.4,0.1-0.6,0.2v0h0C75.8,10.8,75.7,10.8,75.6,10.9z M80.6,6c-0.6,0.6-1.6,1-2.5,1.1
	c0.2,0,0.3-0.1,0.5-0.2v0h0C79.2,6.7,79.9,6.3,80.6,6z M75.6,8.1C75.6,8.1,75.6,8,75.6,8.1L75.6,8.1L75.6,8.1
	c-0.1-0.3-0.2-0.4-0.3-0.6c0.3,0.3,0.6,0.6,0.9,0.8l0,0v0l0,0C76.2,8.6,76.1,8.8,76,9c-0.1-0.2-0.1-0.4-0.2-0.5v0
	C75.8,8.3,75.7,8.2,75.6,8.1z M75,10.1L74.9,10v0c-0.1-0.1-0.1-0.3-0.2-0.4c0.2,0.2,0.4,0.5,0.7,0.6c-0.1,0.2-0.2,0.3-0.2,0.5
	c0-0.1-0.1-0.2-0.1-0.3h0v0C75,10.3,75,10.2,75,10.1C75,10.1,75,10.1,75,10.1z M73.1,11C73.1,11,73.1,11,73.1,11
	c-0.4-0.6-0.9-1.2-1.1-1.9c0.8,0.5,1.1,1.4,1.5,2.3h0v0c0.1,0.1,0.1,0.3,0.2,0.4C73.5,11.5,73.3,11.2,73.1,11z M73.8,13.1
	c0,0,0.1,0,0.1,0c-0.1,0.3-0.3,0.6-0.4,0.8c0-0.1,0-0.1-0.1-0.2h0v0l0-0.1h0v0l0-0.1h0v0l0-0.1h0v0l0-0.1h0v0l0-0.1h0v0
	c-0.1-0.3-0.3-0.5-0.4-0.8h0v0l-0.1-0.1h0v0c0-0.1-0.1-0.2-0.1-0.3h0v0c-0.1-0.1-0.2-0.3-0.3-0.4c0,0.1,0.1,0.1,0.1,0.2c0,0,0,0,0,0
	c0,0,0.1,0.1,0.1,0.1h0v0l0,0h0v0l0,0h0v0C73,12.3,73.4,12.7,73.8,13.1z M71.8,11.6C71.8,11.6,71.8,11.6,71.8,11.6
	c-0.1-0.2-0.2-0.4-0.2-0.6c0.8,0.8,1.2,1.9,1.7,2.9c0,0,0,0,0,0c0,0,0,0,0,0c0,0,0,0,0,0c0,0,0,0,0,0c-0.1-0.2-0.2-0.3-0.4-0.5h0v0
	c-0.1-0.1-0.2-0.2-0.3-0.4c0,0,0,0,0,0C72.3,12.6,72,12.1,71.8,11.6z M73,14.5c0.1,0,0.1,0.1,0.2,0.1c-0.1,0.2-0.2,0.4-0.3,0.6
	c0-0.1-0.1-0.2-0.1-0.3h0v0c0-0.1-0.1-0.2-0.2-0.4h0v0c-0.1-0.2-0.2-0.3-0.2-0.5c0.1,0.1,0.1,0.1,0.2,0.2h0v0
	c0.1,0.1,0.1,0.1,0.2,0.1l0,0v0C72.9,14.4,72.9,14.4,73,14.5z M71,13c0-0.1,0-0.1-0.1-0.2c0.2,0.2,0.5,0.4,0.7,0.6c0,0,0,0,0,0
	c0.4,0.5,0.7,1.1,0.9,1.7c0,0,0,0,0,0c0.1,0.2,0.2,0.5,0.2,0.8c0,0,0,0.1,0,0.1c0,0-0.1-0.1-0.1-0.1h0v0c-0.1-0.1-0.2-0.3-0.3-0.4
	c0,0,0,0,0,0C71.8,14.5,71.3,13.8,71,13z M70.4,14.3c0.5,0.4,0.8,1,1.2,1.5c0,0,0,0,0,0c0,0,0,0,0,0c0,0,0,0,0,0
	c0.2,0.3,0.4,0.6,0.5,1c-0.1-0.2-0.2-0.3-0.4-0.5h0v0C71.2,15.7,70.6,15.1,70.4,14.3z M71.9,17.5c-0.1,0.2-0.2,0.3-0.2,0.5
	c0-0.1-0.1-0.2-0.1-0.3h0v0c0,0,0-0.1,0-0.1h0v0c-0.1-0.3-0.3-0.6-0.4-0.8c0.1,0.1,0.2,0.2,0.3,0.4l0,0
	C71.6,17.2,71.7,17.4,71.9,17.5z M70,15.9C70,15.9,70,15.8,70,15.9c0.5,0.6,0.9,1.4,1.3,2.2C70.8,17.3,70.3,16.7,70,15.9
	C70,15.9,70,15.9,70,15.9z M70.7,19.2c0.1,0,0.2,0.1,0.3,0.1c-0.1,0.2-0.2,0.5-0.4,0.7c-0.1-0.2-0.1-0.4-0.2-0.6v0c0,0,0-0.1,0-0.1
	h0v0c0,0,0-0.1,0-0.1h0v0c0,0,0-0.1,0-0.1h0v0c0,0,0-0.1,0-0.1h0v0c0,0,0-0.1-0.1-0.1C70.3,19,70.5,19.1,70.7,19.2z M68.8,19.6
	c0,0,0-0.1,0-0.1c0.2,0.1,0.3,0.2,0.5,0.4c0,0,0,0,0,0c0,0,0,0,0,0c0,0,0,0,0,0c0.2,0.3,0.4,0.6,0.7,0.9
	C69.5,20.4,69.1,20.1,68.8,19.6z M69.9,20.2c0.1,0.1,0.2,0.1,0.2,0.2c0,0,0,0,0,0c0,0,0,0,0,0c0,0,0,0,0,0c0,0,0.1,0,0.1,0.1
	c0,0,0,0,0,0c0,0,0,0,0,0c0,0,0,0,0,0c0.1,0,0.1,0.1,0.2,0.1c0,0,0,0,0,0c0,0,0,0,0,0c0,0,0,0,0,0c0,0,0,0,0,0c0,0,0,0,0,0
	c0,0.1-0.1,0.2-0.1,0.3c0,0,0-0.1,0-0.1h0v0C70.1,20.6,70,20.4,69.9,20.2z M77.5,7.4C77.6,7.4,77.6,7.4,77.5,7.4
	C77.6,7.4,77.5,7.4,77.5,7.4C77.5,7.4,77.5,7.4,77.5,7.4z M71,18.3c0.1,0.1,0.2,0.2,0.4,0.3c0,0.1,0,0.1-0.1,0.2
	C71.2,18.6,71.1,18.4,71,18.3z M71.9,18.7C71.9,18.7,71.9,18.7,71.9,18.7C71.9,18.7,71.9,18.7,71.9,18.7
	C71.9,18.7,71.9,18.7,71.9,18.7z M69.8,19.3c-0.2-0.3-0.4-0.6-0.5-0.9c0.1,0.1,0.2,0.1,0.3,0.2c0,0,0,0,0,0c0,0,0,0,0,0c0,0,0,0,0,0
	c0.1,0.1,0.2,0.2,0.2,0.3c0,0,0,0,0,0c0.2,0.3,0.3,0.6,0.5,1C70.1,19.7,69.9,19.5,69.8,19.3z M71.9,15.6c0.2,0.2,0.4,0.3,0.6,0.5
	c-0.1,0.1-0.1,0.3-0.2,0.4c0-0.1,0-0.1-0.1-0.2h0v0c0,0,0-0.1,0-0.1h0v0c-0.1-0.1-0.1-0.3-0.2-0.4h0v0
	C71.9,15.7,71.9,15.7,71.9,15.6z M73.5,10.3c0.1,0.1,0.1,0.1,0.2,0.2h0v0l0,0h0v0l0,0h0v0l0,0h0v0c0.1,0.1,0.2,0.2,0.3,0.3v0
	c0.1,0.1,0.2,0.2,0.4,0.3h0v0c0.1,0.1,0.2,0.1,0.3,0.2c-0.2,0.3-0.3,0.6-0.5,0.9c0,0,0-0.1,0-0.1h0v0c0,0,0-0.1,0-0.1h0v0
	c0,0,0-0.1,0-0.1h0v0l0-0.1h0v-0.1l0-0.1h0v0l0-0.1h0v0c-0.1-0.2-0.2-0.4-0.3-0.6v0l-0.1-0.1h0v0l0-0.1h0v0l0-0.1h0v0
	C73.5,10.5,73.5,10.4,73.5,10.3z M76.8,7.5c0,0,0-0.1,0-0.1h0v0c0-0.1-0.1-0.2-0.1-0.2h0v0c-0.1-0.2-0.3-0.5-0.4-0.7
	c0.2,0.2,0.3,0.5,0.5,0.7h0v0c0,0,0.1,0.1,0.2,0.1C76.9,7.3,76.8,7.4,76.8,7.5z M78.3,7.5c-0.5,0.2-0.9,0.4-1.4,0.7
	C77,8,77.1,7.8,77.2,7.6c0,0,0.1,0,0.1,0h0.3C77.8,7.6,78.1,7.5,78.3,7.5z M77.3,8.7c0.1,0,0.1,0,0.2,0h0v0c0.1,0,0.3,0,0.4,0h0.1
	c0.1,0,0.1,0,0.2,0C78.1,8.9,78,8.9,77.8,9v0h0l-0.1,0v0h0l-0.1,0v0h0l-0.1,0v0h0l-0.1,0v0h0l-0.1,0v0h0l-0.1,0v0h0l-0.1,0v0h0
	l-0.1,0v0h0l-0.2,0.1v0h0l-0.1,0v0h0l-0.3,0.1c0.2-0.4,0.4-0.7,0.6-1.1C76.9,8.7,77.1,8.7,77.3,8.7z M74.4,13.2c0.1,0,0.1,0,0.2,0h0
	v0c0.1,0,0.2,0,0.3,0h0v0c0.2,0,0.5,0.1,0.7,0.1c-0.3,0.1-0.5,0.2-0.8,0.3v0h0c-0.3,0.1-0.5,0.2-0.8,0.4
	C74.1,13.7,74.2,13.4,74.4,13.2z M74.2,16.2c-0.2,0.1-0.4,0.1-0.5,0.2v0h0c-0.2,0.1-0.3,0.1-0.5,0.2v0h0l-0.1,0v0h0l-0.1,0v0h0
	c-0.1,0-0.2,0.1-0.3,0.2c0.1-0.3,0.2-0.5,0.4-0.8C73.4,16.2,73.8,16.2,74.2,16.2z M73,17.6c-0.2,0.1-0.5,0.1-0.7,0.3
	c0-0.1,0.1-0.2,0.1-0.3c0,0,0.1,0,0.1,0C72.6,17.5,72.8,17.5,73,17.6z M74.6,17.8c-0.6,0.2-1.3,0.3-1.9,0.4
	C73.3,17.9,74,17.6,74.6,17.8z M74.7,18c-0.2,0.2-0.5,0.2-0.7,0.3c0,0,0,0,0,0c0,0,0,0-0.1,0c0,0,0,0,0,0c-0.5,0.1-0.9,0.1-1.4,0.1
	c0.2,0,0.3-0.1,0.5-0.1v0h0c0.1,0,0.1,0,0.2,0c0,0,0,0,0,0c0.1,0,0.3,0,0.4-0.1h0c0.2,0,0.3-0.1,0.5-0.1v0h0c0.1,0,0.1,0,0.2,0v0h0
	C74.5,18.1,74.6,18,74.7,18z M73.9,19.2c-0.4,0.2-0.8,0.3-1.2,0.3c0,0,0,0,0,0c0,0,0,0-0.1,0c0,0,0,0,0,0c-0.2,0-0.4,0-0.6-0.1
	c0.1,0,0.2,0,0.2,0v0H73c0.1,0,0.2,0,0.3,0v0h0C73.6,19.3,73.7,19.3,73.9,19.2z M72.5,19.9c-0.1,0-0.1,0-0.2,0v0h0l-0.1,0v0h-0.1
	L72,20v0h0l-0.1,0v0h0l-0.1,0v0h-0.1l-0.1,0v0h-0.1c-0.1,0-0.3,0.1-0.4,0.1c0.1-0.3,0.3-0.6,0.4-0.8c0.1,0.1,0.1,0.1,0.2,0.1h0v0
	c0,0,0.1,0,0.1,0h0v0c0.1,0,0.2,0.1,0.2,0.1h0v0c0,0,0.1,0,0.1,0h0v0C72.3,19.9,72.4,19.9,72.5,19.9z M68.4,19.6
	C68.4,19.6,68.4,19.6,68.4,19.6c0,0,0.1,0.1,0.1,0.1h0v0c0,0,0,0,0,0.1h0v0l0,0h0v0c0,0,0,0,0,0.1h0v0l0,0h0v0
	c0,0.1,0.1,0.1,0.2,0.2h0v0l0,0h0v0l0,0h0v0l0,0h0v0l0,0h0v0c0.1,0.1,0.1,0.1,0.2,0.2c-0.1,0-0.1-0.1-0.2-0.1c0,0,0,0,0,0
	c0,0,0,0,0,0c0,0,0,0,0,0c-0.2-0.2-0.5-0.4-0.6-0.6c0,0,0,0,0,0c0,0,0,0,0,0c0,0,0,0,0,0C68.5,19.8,68.4,19.7,68.4,19.6z M68.9,18.4
	C68.9,18.3,69,18.3,68.9,18.4L68.9,18.4L68.9,18.4L68.9,18.4c0.1,0,0.1,0.1,0.1,0.1h0v0c0,0,0,0.1,0,0.1h0v0
	c0.1,0.1,0.1,0.3,0.2,0.4h0v0c0.2,0.3,0.5,0.7,0.7,1C69.5,19.6,68.7,19.1,68.9,18.4z M69,17.2C69,17.2,69,17.2,69,17.2
	c0,0.1,0.1,0.1,0.1,0.2h0v0l0,0h0v0l0,0h0v0l0,0h0v0l0,0h0v0l0,0h0v0c0.1,0.1,0.2,0.2,0.3,0.3h0v0c0.1,0.1,0.2,0.1,0.3,0.2h0v0
	c0.4,0.3,0.7,0.5,1.1,0.8C70.2,18.6,69.1,18.1,69,17.2z M69.4,17.1c0.1,0.1,0.2,0.2,0.3,0.2c0,0,0,0,0,0c0.3,0.2,0.5,0.5,0.8,0.8
	c-0.1-0.1-0.3-0.3-0.4-0.4h0v0c-0.3-0.2-0.6-0.4-0.8-0.7C69.3,17.1,69.3,17.1,69.4,17.1z M69.6,15.6C69.6,15.6,69.6,15.6,69.6,15.6
	c0,0,0.1,0.1,0.1,0.1h0v0c0,0,0,0.1,0,0.1h0v0c0,0.1,0.1,0.2,0.1,0.3l0,0v0c0,0,0,0.1,0,0.1h0v0l0,0.1h0v0l0,0.1h0v0
	c0.2,0.4,0.5,0.8,0.7,1.2c-0.1-0.1-0.3-0.3-0.4-0.4c0,0,0,0,0,0C70,16.8,69.5,16.3,69.6,15.6z M69.6,15.5
	C69.6,15.5,69.6,15.5,69.6,15.5C69.6,15.5,69.6,15.5,69.6,15.5z M70.1,14.3C70.1,14.3,70.1,14.3,70.1,14.3
	C70.1,14.3,70.1,14.3,70.1,14.3L70.1,14.3L70.1,14.3c0.1,0.1,0.1,0.1,0.1,0.2h0v0l0,0.1h0v0l0,0.1h0v0.1c0,0,0,0.1,0,0.1h0v0
	c0,0,0,0.1,0.1,0.1h0v0c0,0.1,0.1,0.2,0.2,0.3h0v0c0,0.1,0.1,0.1,0.1,0.1h0v0l0,0h0v0c0,0,0.1,0.1,0.1,0.1h0v0
	c0.4,0.5,0.9,1,1.3,1.5c0,0,0,0,0,0.1c-0.8-0.6-1.4-1.4-1.9-2.3c0,0,0,0,0,0C70.1,14.7,70,14.5,70.1,14.3z M70.4,12.6
	c0-0.1,0.1-0.1,0.2,0c0,0.1,0,0.1,0.1,0.2h0v0c0,0,0,0.1,0,0.1h0v0c0,0,0,0.1,0,0.1h0v0c0.1,0.2,0.1,0.3,0.2,0.5h0v0l0,0.1h0v0
	l0,0.1h0v0l0,0.1h0v0l0,0.1h0v0c0.3,0.5,0.6,1,1,1.5c-0.3-0.3-0.6-0.5-0.8-0.8c0,0,0,0,0,0c-0.1-0.1-0.1-0.1-0.2-0.2h0v0
	c-0.1-0.1-0.2-0.2-0.3-0.3c0,0,0,0,0,0C70.6,13.8,70.2,13.2,70.4,12.6z M70.5,12.6C70.5,12.6,70.5,12.6,70.5,12.6
	C70.5,12.6,70.5,12.6,70.5,12.6C70.5,12.6,70.5,12.6,70.5,12.6z M70.5,12.6C70.5,12.6,70.5,12.6,70.5,12.6
	C70.5,12.6,70.5,12.6,70.5,12.6z M71.1,11c0,0,0.1-0.1,0.2-0.1c0,0.1,0,0.1,0.1,0.2h0v0c0,0,0,0.1,0,0.1h0v0c0,0.1,0.1,0.3,0.2,0.4
	h0v0l0,0.1h0v0c0.1,0.2,0.2,0.4,0.3,0.6h0v0c0.1,0.1,0.2,0.3,0.3,0.4h0v0c0.2,0.2,0.3,0.5,0.5,0.7c0,0,0,0,0,0
	c0.2,0.3,0.4,0.5,0.6,0.8c-0.1-0.1-0.3-0.2-0.4-0.3c0,0-0.1-0.1-0.1-0.1c0,0,0,0,0,0C72,13.2,70.6,12.1,71.1,11z M71.5,9.3
	c0.1-0.1,0.1-0.2,0.3-0.2c0,0,0,0.1,0,0.1h0v0l0,0.1h0v0.1l0,0.1h0v0.1c0,0,0,0.1,0,0.1h0v0l0,0.1h0v0c0.1,0.2,0.2,0.3,0.3,0.5h0v0
	c0,0,0.1,0.1,0.1,0.1h0v0l0.1,0.1v0c0,0.1,0.1,0.1,0.1,0.2h0c0.1,0.2,0.3,0.4,0.5,0.6h0v0c0.3,0.4,0.6,0.7,0.9,1.1v0c0,0,0,0,0,0
	c0,0,0,0,0,0c0.1,0.1,0.1,0.2,0.1,0.3c0,0,0,0,0,0c0,0,0,0,0,0.1C73.1,11.8,71.3,10.7,71.5,9.3z M72.2,7.8c0.1,0.1,0.1,0.2,0.2,0.3
	h0v0l0,0.1h0v0l0,0h0v0c0,0,0.1,0.1,0.1,0.1h0v0l0,0h0v0c0,0,0.1,0.1,0.1,0.1h0v0C72.8,8.7,72.9,8.9,73,9h0v0l0,0.1h0v0l0,0h0v0l0,0
	h0v0l0,0h0v0c0.2,0.3,0.5,0.5,0.8,0.8h0v0c0.3,0.3,0.7,0.6,1,1c0,0,0,0,0,0.1C73.7,10.3,72.6,9.2,72.2,7.8z M72.4,7.8
	c1.1,0.4,1.8,1.5,2.3,2.5c-0.6-0.6-1.3-1.2-1.8-1.8c0,0,0,0,0,0c0,0,0,0,0,0c0,0,0,0,0,0C72.7,8.3,72.6,8,72.4,7.8
	C72.4,7.8,72.4,7.8,72.4,7.8z M73.1,6.4C73.1,6.3,73.1,6.3,73.1,6.4c0,0,0.1,0.1,0.1,0.2h0v0l0,0.1h0v0l0,0.1h0v0l0,0.1h0v0l0,0.1h0
	v0c0.1,0.2,0.2,0.3,0.3,0.5h0v0c0,0,0.1,0.1,0.1,0.1h0v0l0,0.1h0v0c0,0.1,0.1,0.1,0.1,0.2h0v0c0.1,0.1,0.1,0.1,0.2,0.2l0,0v0
	c0.1,0.1,0.2,0.2,0.3,0.4h0v0c0.1,0.2,0.3,0.3,0.4,0.5c0.2,0.3,0.5,0.5,0.7,0.8c0,0,0,0,0,0c0,0,0,0-0.1-0.1c0,0,0,0,0,0
	c0,0,0,0-0.1,0c0,0,0,0,0,0c-0.1-0.1-0.2-0.2-0.3-0.2h0v0l0,0h0v0c-0.1-0.1-0.1-0.1-0.2-0.1h0v0l0,0h0c-0.1-0.1-0.2-0.2-0.3-0.2
	c0,0,0,0,0.1,0C73.9,8.3,73.2,7.4,73.1,6.4z M73.6,6.2c0.3,0.1,0.5,0.4,0.7,0.6c0,0,0,0,0,0c0.6,0.7,1.1,1.5,1.4,2.4
	c-0.6-0.6-1.1-1.3-1.7-1.9c0,0,0,0,0,0c0,0,0,0,0,0c0,0,0,0,0,0c-0.3-0.4-0.5-0.8-0.7-1.2C73.4,6.2,73.5,6.2,73.6,6.2z M74,4.6
	C74,4.6,74,4.6,74,4.6c0,0,0.1,0.1,0.1,0.1c0,0,0,0,0,0c0,0.1,0.1,0.2,0.1,0.3h0v0c0,0,0,0.1,0,0.1h0v0c0.2,0.3,0.3,0.6,0.6,0.9h0v0
	c0.1,0.1,0.1,0.2,0.2,0.3h0v0c0.2,0.2,0.3,0.4,0.5,0.6C74.7,6.3,74.1,5.6,74,4.6z M74.9,5c0.7,0.8,1.3,1.8,1.7,2.8c0,0,0,0,0,0
	c-0.2-0.2-0.4-0.3-0.6-0.6c0,0,0,0,0,0c0,0-0.1-0.1-0.1-0.1h0v0c0-0.1-0.1-0.1-0.1-0.2h0v0c0-0.1-0.1-0.1-0.2-0.2h0v0
	c-0.2-0.3-0.5-0.6-0.7-0.9c0,0,0,0,0,0c-0.3-0.4-0.5-0.8-0.7-1.2c0.2,0.1,0.3,0.2,0.5,0.3h0v0C74.8,5,74.8,5,74.9,5z M75.2,3.2
	C75.2,3.2,75.2,3.2,75.2,3.2C75.2,3.2,75.2,3.2,75.2,3.2z M75.2,3.2C75.2,3.2,75.2,3.2,75.2,3.2C75.2,3.2,75.2,3.2,75.2,3.2z
	 M75.2,3.2c0,0,0.1-0.1,0.1-0.1c0,0,0,0,0,0.1c0,0,0,0.1,0,0.1h0v0c0,0.1,0,0.1,0,0.2h0v0c0,0.1,0,0.1,0,0.2h0v0
	c0,0.1,0.1,0.2,0.1,0.3h0v0c0,0.1,0.1,0.2,0.1,0.2h0v0c0.1,0.3,0.2,0.5,0.4,0.8h0v0l0,0.1h0v0c0.1,0.3,0.3,0.6,0.4,0.8
	C75.8,5.3,75,4.2,75.2,3.2z M76.7,4.7C76.6,4.7,76.6,4.7,76.7,4.7c0.3,0.6,0.4,1.3,0.5,1.9c-0.4-0.8-0.8-1.6-1.1-2.4c0,0,0,0,0,0
	c-0.1-0.4-0.3-0.8-0.4-1.2C76.1,3.5,76.4,4.1,76.7,4.7z M78.1,1.6C78.1,1.6,78.1,1.6,78.1,1.6c0,0.1,0,0.1-0.1,0.2v0h0
	c-0.1,0.2-0.1,0.4-0.1,0.6v0h0c0,0.1,0,0.2,0,0.3v0h0c-0.1,0.9,0,1.9-0.2,2.8C77.4,4.3,77.2,2.7,78.1,1.6z M78.2,3.3
	c0,0.2-0.1,0.5-0.1,0.7c0-0.8,0-1.5,0.3-2.2C78.4,2.3,78.3,2.8,78.2,3.3z M79.3,3.7c0,0,0.1,0,0.1-0.1c-0.4,0.6-0.7,1.1-1.1,1.7
	C78.5,4.7,78.7,4,79.3,3.7z M79.5,4.7c-0.1,0.2-0.2,0.3-0.3,0.4c0,0,0,0,0,0c0,0,0,0,0,0c0,0,0,0,0,0c-0.2,0.2-0.5,0.4-0.7,0.6
	c0.4-0.7,0.8-1.4,1.2-2C79.7,4,79.6,4.3,79.5,4.7z M80.7,5.6C80.7,5.7,80.7,5.7,80.7,5.6c-0.2,0.1-0.5,0.2-0.7,0.3v0h0
	c-0.5,0.2-0.9,0.4-1.4,0.6C79.2,6.2,79.9,5.4,80.7,5.6z M80.5,7.4C80.6,7.4,80.6,7.4,80.5,7.4c-0.3,0.2-0.7,0.2-1.1,0.3v0h0
	c-0.1,0-0.2,0-0.3,0.1c0,0,0,0,0,0c-0.1,0-0.1,0-0.2,0v0h0c-0.1,0-0.2,0-0.2,0v0h0c-0.3,0.1-0.6,0.2-0.9,0.2
	c0.6-0.3,1.2-0.6,1.9-0.8l0,0c0,0,0,0,0,0c0,0,0,0,0,0C80,7.2,80.3,7.2,80.5,7.4C80.6,7.4,80.5,7.4,80.5,7.4z M79.8,8.3
	c-0.6,0.2-1.3,0.2-1.9,0.2c0,0,0,0,0,0c-0.2,0-0.4-0.1-0.6-0.1c0.1,0,0.3,0,0.4-0.1v0h0.1c0.4-0.1,0.7-0.2,1.1-0.3c0,0,0,0,0,0
	c0.5-0.1,1-0.2,1.5-0.3v0h0c0.1,0,0.2,0,0.2,0C80.5,8.1,80.1,8.2,79.8,8.3z M79.8,9.1L79.8,9.1c-0.5,0.1-0.9,0.2-1.4,0.4
	c0,0,0,0,0,0c-0.4,0.1-0.9,0.2-1.3,0.3C77.9,9.5,79,8.6,79.8,9.1z M79.6,9.6c-0.1,0.1-0.2,0.1-0.3,0.2c0,0,0,0,0,0c0,0,0,0,0,0
	c0,0,0,0,0,0c-0.4,0.2-0.9,0.4-1.4,0.4c0,0,0,0,0,0c0,0-0.1,0-0.1,0c0,0,0,0,0,0c-0.3,0-0.6,0-0.8,0c0,0,0,0,0,0c-0.2,0-0.3,0-0.5,0
	c0.1,0,0.1,0,0.2,0v0h0c0.1,0,0.1,0,0.2,0v0h0c0.1,0,0.1,0,0.2,0v0h0l0.2-0.1v0h0c0.3-0.1,0.6-0.2,0.9-0.2c0,0,0,0,0,0
	c0.5-0.1,1-0.2,1.5-0.4C79.8,9.5,79.7,9.5,79.6,9.6z M79.1,10.6c-0.1,0-0.2,0-0.3,0.1c0,0,0,0,0,0c-1,0.2-2,0.4-3,0.5
	c0.5-0.3,1-0.4,1.6-0.6c0,0,0,0,0,0c0.3-0.1,0.7-0.1,1-0.1v0h0.1c0.1,0,0.2,0,0.2,0c0,0,0,0,0,0c0,0,0,0,0.1,0c0,0,0,0,0,0
	C78.8,10.4,79,10.5,79.1,10.6z M78.8,11.1c-0.7,0.3-1.5,0.5-2.3,0.5c0,0,0,0,0,0c-0.3,0-0.7,0-1-0.1c0.2,0,0.3,0,0.5-0.1v0H76
	c0.1,0,0.2,0,0.3,0v0h0.1c0.1,0,0.2,0,0.3,0v0h0c0.1,0,0.2,0,0.3,0v0h0c0.2,0,0.4-0.1,0.5-0.1v0h0l0.2,0v0h0l0.2,0v0h0l0.2,0v0h0
	l0.2-0.1v0h0c0.1,0,0.3-0.1,0.4-0.1c0,0,0,0,0,0c0,0,0,0,0,0c0,0,0,0,0,0c0.1,0,0.1,0,0.2,0C79.1,10.9,78.9,11,78.8,11.1z M78.6,12
	C78.6,12,78.5,12,78.6,12C78.5,12,78.5,12,78.6,12l-0.1,0c-0.2,0.1-0.5,0.1-0.7,0.2c0,0,0,0,0,0c-0.4,0.1-0.7,0.1-1.1,0.1v0h0
	c-0.2,0-0.3,0-0.5,0v0h-0.1c-0.2,0-0.3,0-0.5,0.1c0.2-0.1,0.4-0.1,0.6-0.2v0h0C77,12,77.9,11.6,78.6,12z M78.4,12.5
	c-1,0.9-2.5,0.5-3.7,0.4c0.2,0,0.4,0,0.6-0.1v0h0c0.2,0,0.3,0,0.5,0v0h0c0.1,0,0.3,0,0.4,0v0h0c0.2,0,0.5-0.1,0.7-0.1v0H77
	c0.1,0,0.1,0,0.2,0v0h0.1l0.2,0v0h0.1l0.1,0v0h0.1l0.1,0v0h0.1l0.1,0v0h0.1c0.1,0,0.2,0,0.2-0.1c0,0,0,0,0,0c0,0,0,0,0.1,0
	C78.5,12.4,78.5,12.4,78.4,12.5z M77.4,13.6l-0.3,0v0h0c-0.1,0-0.2,0-0.2,0v0h-0.1c-0.1,0-0.2,0-0.2,0v0h0c-0.1,0-0.1,0-0.2,0
	c0,0,0,0,0,0c-0.1,0-0.2,0-0.3,0.1v0h0c-0.1,0-0.1,0-0.2,0v0h0l-0.2,0v0h0l-0.2,0v0h0c-0.4,0.1-0.7,0.2-1.1,0.2
	c0.1-0.1,0.2-0.1,0.3-0.2c0,0,0,0,0,0c0,0,0,0,0,0c0,0,0,0,0,0l0.1,0v0h0C75.5,13.7,76.7,13,77.4,13.6z M76.9,14.2
	c-0.9,0.4-1.9,0.4-2.8,0.4c0,0,0.1,0,0.1,0c0,0,0,0,0,0c0,0,0,0,0,0c0,0,0,0,0,0c0.1,0,0.2,0,0.3,0v0h0c0.1,0,0.1,0,0.2,0v0h0.1
	c0.1,0,0.1,0,0.2,0v0h0c0.1,0,0.1,0,0.2-0.1v0h0c0.5-0.1,0.9-0.2,1.4-0.3c0,0,0,0,0,0c0.2-0.1,0.5-0.1,0.7-0.1
	C77.2,14,77.1,14.1,76.9,14.2z M76.4,15C76.4,15,76.4,15,76.4,15C76.4,15,76.4,15,76.4,15C76.3,15,76.1,15,76,15v0h0l-0.2,0v0h0
	l-0.2,0v0h0l-0.2,0v0h0L75,15.3c0,0,0,0,0,0c-0.2,0-0.4,0.1-0.7,0.1C75,15.2,75.7,14.7,76.4,15C76.4,14.9,76.4,14.9,76.4,15
	C76.4,14.9,76.4,15,76.4,15z M76,16.3C76,16.3,76,16.3,76,16.3C76,16.3,76,16.3,76,16.3C76,16.3,76,16.3,76,16.3
	c-0.8,0.2-1.6,0.4-2.4,0.5c0.6-0.3,1.2-0.6,1.8-0.6c0,0,0,0,0,0l0.1,0h0v0l0.1,0c0,0,0,0,0,0C75.7,16.2,75.9,16.3,76,16.3z
	 M75.9,16.8c-0.3,0.2-0.6,0.3-0.9,0.4c0,0,0,0,0,0c-0.6,0.1-1.3,0.2-1.9,0.1c0.1,0,0.3,0,0.4,0v0h0c0.2,0,0.4-0.1,0.6-0.1v0h0
	c0.2,0,0.4-0.1,0.6-0.1c0,0,0,0,0,0c0,0,0.1,0,0.1,0c0,0,0,0,0,0c0.4-0.1,0.8-0.2,1.2-0.3c0,0,0,0,0,0c0,0,0,0,0,0c0,0,0,0,0,0
	c0,0,0,0,0,0C76,16.7,76,16.8,75.9,16.8z M73.7,20.2C73.7,20.2,73.7,20.2,73.7,20.2c-0.5,0.1-1,0-1.6,0.1
	C72.6,20.2,73.2,20.1,73.7,20.2z M72,20.6c0.4-0.1,0.8-0.1,1.2-0.1v0h0.2c0.1,0,0.2,0,0.3,0c-0.1,0.1-0.2,0.1-0.3,0.1c0,0,0,0,0,0
	C72.9,20.7,72.5,20.7,72,20.6z M72.3,21.5C72.3,21.5,72.3,21.5,72.3,21.5c-0.1,0-0.2,0-0.3,0h0v0c-0.3,0-0.5-0.1-0.8-0.1h-0.1v0
	c-0.1,0-0.2,0-0.3,0c0,0,0,0,0,0c0,0,0,0,0,0c0,0,0,0,0,0c-0.1,0-0.1,0-0.2,0c0,0,0,0,0-0.1C71.2,21,71.8,21.2,72.3,21.5z
	 M71.3,21.6C71.3,21.6,71.3,21.6,71.3,21.6C71.2,21.6,71.2,21.6,71.3,21.6c0.2,0,0.6,0.1,0.9,0.1C71.8,21.8,71.5,21.7,71.3,21.6z
	 M97.9,26.6c-0.6-0.2-1.1-0.4-1.7-0.6c0.5,0.1,1.1,0.2,1.6,0.4c0,0,0,0,0,0c0.2,0.1,0.5,0.2,0.6,0.4C98.3,26.7,98.1,26.7,97.9,26.6
	C98,26.6,98,26.6,97.9,26.6C98,26.6,97.9,26.6,97.9,26.6C97.9,26.6,97.9,26.6,97.9,26.6C97.9,26.6,97.9,26.6,97.9,26.6
	C97.9,26.6,97.9,26.6,97.9,26.6C97.9,26.6,97.9,26.6,97.9,26.6C97.9,26.6,97.9,26.6,97.9,26.6z M98.9,25.4
	C98.9,25.4,98.9,25.4,98.9,25.4c0,0-0.1,0-0.1,0h-0.1v0c-0.1,0-0.2,0-0.2,0h0v0c-0.3,0-0.5,0-0.8-0.1c0.7,0,1.4,0.1,2,0.3
	C99.5,25.5,99.2,25.5,98.9,25.4z M102.8,23.2c0.2,0.1,0.3,0.2,0.4,0.3c-0.8-0.2-1.6-0.4-2.3-0.6c0.3,0,0.6,0,0.8,0.1
	c0,0-0.1,0-0.1,0C102.1,23.1,102.5,23,102.8,23.2C102.8,23.2,102.8,23.2,102.8,23.2C102.8,23.2,102.8,23.2,102.8,23.2
	C102.8,23.2,102.8,23.2,102.8,23.2z M104.7,19.4c-0.5,0-1-0.1-1.4,0.1c0.2-0.2,0.4-0.4,0.6-0.6c0.1,0.1,0.3,0.2,0.4,0.3l0,0
	c0.2,0.1,0.4,0.1,0.6,0.2C104.9,19.4,104.8,19.4,104.7,19.4C104.7,19.4,104.7,19.4,104.7,19.4z M104.5,17.7
	C104.5,17.7,104.5,17.7,104.5,17.7C104.5,17.7,104.5,17.7,104.5,17.7C104.5,17.7,104.5,17.7,104.5,17.7z M104.5,17.7
	C104.5,17.6,104.5,17.6,104.5,17.7C104.5,17.6,104.5,17.7,104.5,17.7C104.5,17.7,104.5,17.7,104.5,17.7z M104.5,17.8
	c-0.1,0.1-0.2,0.2-0.3,0.3c0,0,0,0,0,0c0,0,0,0,0,0l0-0.1h0v-0.1v0c0-0.3-0.1-0.5-0.1-0.8C104.3,17.3,104.4,17.5,104.5,17.8z
	 M104.4,17.6C104.4,17.6,104.4,17.6,104.4,17.6C104.4,17.6,104.4,17.6,104.4,17.6z M103.1,14.5c0.2,0.3,0.4,0.7,0.4,1c0,0,0,0,0,0
	c0.2,0.7,0.3,1.5,0.4,2.3c0,0,0,0,0,0c0,0,0,0,0,0c-0.4-0.9-0.7-1.7-0.8-2.6c0,0,0,0,0,0C103,14.9,103,14.7,103.1,14.5z M101.5,19
	c0-0.1,0-0.3,0-0.4c0,0.1,0.1,0.2,0.1,0.2h0v0l0,0.1h0v0c0.1,0.2,0.2,0.4,0.3,0.5h0v0c0.1,0.1,0.1,0.2,0.2,0.3
	c-0.2,0.2-0.4,0.4-0.7,0.5c0-0.1,0-0.3,0-0.4v-0.2h0c0-0.1,0-0.2,0-0.3h0v-0.1C101.5,19.3,101.5,19.1,101.5,19z M99.9,20.6
	c0-0.2,0-0.3,0-0.5c0,0.1,0.1,0.1,0.1,0.2h0v0c0,0,0,0.1,0,0.1h0v0l0,0.1h0v0c0.1,0.1,0.1,0.2,0.2,0.3h0v0c0.1,0.1,0.1,0.2,0.2,0.3
	c-0.2,0.2-0.5,0.4-0.7,0.6c0-0.1,0-0.1,0-0.2v0h0c0-0.1,0-0.2,0-0.2v0l0,0C99.9,21.1,99.9,20.9,99.9,20.6z M97.6,20.5
	c0-0.1,0-0.2,0-0.3c0.8,0.7,0.6,1.9,0.5,2.9C97.8,22.2,97.7,21.4,97.6,20.5C97.6,20.5,97.6,20.5,97.6,20.5
	C97.6,20.5,97.6,20.5,97.6,20.5C97.6,20.5,97.6,20.5,97.6,20.5z M96.1,24.8c-0.2,0.1-0.3,0.3-0.5,0.4c0-0.2,0.1-0.3,0.1-0.5v0h0
	c0-0.2,0.1-0.4,0-0.6c0.1,0.1,0.1,0.3,0.2,0.4l0,0v0l0,0.1h0v0l0,0.1h0v0L96.1,24.8z M94.8,25.5c0.1,0.1,0.1,0.2,0.1,0.3
	c0,0-0.1,0-0.1,0.1C94.9,25.7,94.8,25.6,94.8,25.5z M97,23.9c0,0,0-0.1,0-0.1v0h0c0-0.1,0-0.2,0-0.2v-0.1h0c0-0.1,0-0.2,0-0.3
	c0.1,0.2,0.2,0.4,0.3,0.6c-0.2,0.1-0.4,0.3-0.5,0.4C97,24,97,24,97,23.9z M98.6,21.8c0,0.1,0.1,0.2,0.1,0.3h0v0
	c0.1,0.1,0.1,0.3,0.2,0.4c-0.2,0.1-0.3,0.3-0.5,0.4c0-0.1,0-0.2,0.1-0.2v0h0C98.6,22.3,98.6,22.1,98.6,21.8z M102.8,18.5
	c0-0.1,0-0.2,0-0.3h0v-0.1c0-0.1,0-0.2,0-0.3h0v-0.2c0-0.1,0-0.2,0-0.3h0v-0.1c0-0.2,0-0.3-0.1-0.5c0.1,0.2,0.2,0.4,0.3,0.5h0v0
	c0.3,0.4,0.6,0.8,0.9,1.2c-0.3,0.3-0.6,0.6-1,0.8C102.8,19.1,102.8,18.8,102.8,18.5z M105.4,18.3c-0.2,0-0.5,0-0.7,0.1v0h-0.1
	c-0.1,0-0.1,0-0.2,0c0.2-0.1,0.3-0.3,0.5-0.4c0,0.1,0,0.1,0.1,0.1h0v0C105.1,18.2,105.3,18.2,105.4,18.3z M101,21.8
	c0.1,0.1,0.2,0.2,0.3,0.3v0c0.1,0.1,0.2,0.2,0.4,0.3c-0.1,0-0.3,0-0.4,0h-0.2v0c-0.3,0-0.6,0-0.9,0v0H100c0,0-0.1,0-0.1,0
	c0.3-0.2,0.5-0.5,0.8-0.7c0,0,0,0,0.1,0c0,0,0.1,0.1,0.1,0.1l0,0v0C100.9,21.7,100.9,21.8,101,21.8z M100,23.4
	c0.1,0.1,0.2,0.1,0.3,0.2c-0.1,0-0.3,0-0.4-0.1h-0.3v0c-0.1,0-0.3,0-0.4,0v0H99c-0.2,0-0.3,0-0.5,0v0h0l-0.1,0
	c0.3-0.2,0.6-0.5,0.8-0.7C99.5,23,99.7,23.2,100,23.4z M101.4,24.4c0.2,0.1,0.3,0.2,0.4,0.4c-1-0.2-2-0.5-2.9-0.9
	C99.7,23.8,100.6,23.9,101.4,24.4z M98.5,24.5c0.1,0.1,0.2,0.1,0.4,0.2c-0.1,0-0.2,0-0.2,0h-0.1v0c-0.1,0-0.2,0-0.3,0h-0.1v0
	c-0.2,0-0.3,0-0.5,0v0h-0.3c-0.1,0-0.1,0-0.2,0c0.2-0.2,0.5-0.4,0.7-0.6c0,0,0.1,0,0.1,0.1h0v0C98.1,24.3,98.3,24.4,98.5,24.5z
	 M97,25.8c-0.1,0-0.2,0-0.3-0.1h0v0c-0.1,0-0.2,0-0.3,0h-0.1v0c-0.1,0-0.1,0-0.2,0c0,0,0,0,0,0c-0.1,0-0.1,0-0.2,0
	c0.1-0.1,0.3-0.2,0.4-0.3c0,0,0.1,0.1,0.1,0.1c0,0,0.1,0.1,0.1,0.1h0v0C96.7,25.6,96.9,25.7,97,25.8z M95.4,26.2
	c0,0,0.1,0.1,0.1,0.1c-0.1,0-0.2-0.1-0.4-0.1c0,0,0.1-0.1,0.1-0.1C95.3,26.2,95.4,26.2,95.4,26.2z M97,27.4c0.1,0.1,0.1,0.1,0.2,0.2
	c-0.7-0.3-1.3-0.6-2-1c0,0,0,0,0,0c0,0-0.1-0.1-0.1-0.1C95.8,26.7,96.4,27,97,27.4z M93.4,24.2c0-0.1,0-0.1,0.1-0.2c0,0,0,0.1,0,0.1
	h0v0c0,0.1,0,0.1,0,0.2h0v0.1l0,0.1h0v0.1l0,0.1h0v0.1c0,0,0,0.1,0,0.1h0v0c0,0.1,0.1,0.2,0.1,0.3h0v0l0,0.1h0v0l0,0.1h0v0l0,0.1h0
	v0l0,0.1h0v0l0,0.1h0v0c0.1,0.1,0.1,0.2,0.2,0.3c0,0,0,0,0,0c0,0,0,0,0,0c0,0,0,0,0,0c0,0,0,0,0,0.1c0,0-0.1-0.1-0.1-0.1
	c0,0,0,0,0,0c0,0,0,0,0,0c0,0,0,0,0,0C93.8,25.3,93.4,24.8,93.4,24.2z M93.9,24.1c0.4,0.5,0.5,1.1,0.6,1.7c-0.3-0.5-0.5-1-0.7-1.5
	c0,0,0,0,0,0c0-0.1,0-0.3-0.1-0.4C93.8,24,93.8,24.1,93.9,24.1z M94.5,23C94.5,22.9,94.5,22.9,94.5,23c0.1,0,0.1,0.1,0.1,0.2h0v0.1
	c0,0.1,0,0.1,0,0.2h0v0.1c0.1,0.4,0.2,0.7,0.3,1.1c0,0,0,0,0,0c0,0.1,0.1,0.3,0.1,0.4c0,0,0,0,0,0c0,0.1,0.1,0.2,0.1,0.3
	C94.7,24.5,94.3,23.7,94.5,23z M95,23c0.1,0.1,0.2,0.3,0.2,0.4c0,0,0,0,0,0c0,0,0,0,0,0c0.2,0.4,0.2,0.9,0.1,1.4c0,0,0,0,0,0
	c0,0.1,0,0.2-0.1,0.4c0-0.1,0-0.1,0-0.2c0,0,0,0,0,0c0,0,0-0.1,0-0.1c0,0,0,0,0,0l0-0.1h0v0c0-0.1-0.1-0.2-0.1-0.3c0,0,0,0,0,0
	c-0.1-0.5-0.3-1.1-0.3-1.6C94.9,22.9,95,22.9,95,23z M95.7,21.7c0,0,0.1-0.1,0.1-0.1c0,0.1,0,0.2,0,0.3h0v0.2c0,0.1,0,0.3,0,0.4h0v0
	c0,0.1,0,0.2,0.1,0.3h0v0c0,0.1,0,0.2,0,0.3h0v0c0,0.2,0.1,0.3,0.1,0.5C95.8,23.1,95.4,22.4,95.7,21.7z M96.4,22
	c0.4,0.7,0.2,1.6,0,2.4c0,0,0,0,0,0c0-0.2,0-0.3,0-0.5h0v0c0-0.1,0-0.2,0-0.3h0v0c-0.1-0.6-0.2-1.2-0.2-1.8c0,0,0,0,0,0c0,0,0,0,0,0
	C96.3,21.7,96.4,21.8,96.4,22z M97.2,20.3c0-0.1,0.1-0.1,0.2-0.2c0,0.4,0,0.8,0.1,1.2h0v0c0,0.3,0.1,0.5,0.2,0.8h0v0
	c0.1,0.3,0.1,0.6,0.2,0.9c-0.1-0.1-0.2-0.3-0.3-0.5c0,0,0,0,0,0C97.1,22,96.9,21.1,97.2,20.3z M98.5,18.8
	C98.6,18.8,98.6,18.8,98.5,18.8c0,0,0,0.1,0,0.2h0v0.3c0,0.1,0,0.2,0,0.4h0v0c0,0.1,0,0.2,0,0.2h0v0c0.1,0.7,0.4,1.3,0.5,1.9
	C98.6,21,98.2,19.8,98.5,18.8z M99,18.9c0.5,0.8,0.5,1.8,0.5,2.8c-0.3-0.9-0.6-1.9-0.6-2.9C98.9,18.8,99,18.8,99,18.9z M100,17.5
	c0-0.1,0.1-0.1,0.2-0.2c0,0.2,0,0.5,0,0.7c0,0,0,0,0,0c0,0,0,0.1,0,0.1h0v0c0,0.1,0,0.2,0,0.3h0v0c0.1,0.4,0.2,0.7,0.3,1.1l0,0v0
	c0.1,0.4,0.2,0.8,0.3,1.1c-0.1-0.1-0.2-0.2-0.2-0.4c0,0,0,0,0,0C100.1,19.5,99.6,18.4,100,17.5z M100.7,17.9
	c0.3,0.8,0.3,1.8,0.3,2.6c-0.2-0.9-0.6-1.7-0.6-2.6l0,0c0-0.2,0-0.3,0-0.5c0,0,0,0,0,0c0,0,0-0.1,0-0.1
	C100.6,17.5,100.7,17.6,100.7,17.9z M101.5,15.9C101.5,15.9,101.5,15.9,101.5,15.9C101.5,15.9,101.5,16,101.5,15.9l0.1,0.5
	c0,0.1,0,0.3,0,0.4h0v0.1c0,0.1,0,0.2,0,0.2h0v0c0,0.1,0,0.1,0.1,0.2h0v0c0,0.1,0,0.1,0.1,0.2h0v0c0,0.2,0.1,0.3,0.2,0.5h0v0
	c0.1,0.2,0.1,0.4,0.2,0.6l0,0v0l0.1,0.3c-0.1-0.1-0.2-0.2-0.2-0.3c0,0,0,0,0,0C101.6,17.9,101.1,16.9,101.5,15.9z M101.9,16
	c0.4,1,0.5,2,0.6,3.1c0-0.1-0.1-0.2-0.1-0.3c0,0,0,0,0,0c-0.3-0.9-0.7-1.9-0.6-2.9C101.8,15.9,101.9,16,101.9,16z M102.4,15
	c0-0.2,0.1-0.5,0.3-0.6c0,0.2,0,0.4,0,0.6h0V15c0,0.2,0.1,0.3,0.1,0.5h0v0c0,0.2,0.1,0.3,0.2,0.5c0.1,0.4,0.3,0.8,0.4,1.1
	c0,0,0,0,0,0c0,0.1,0.1,0.2,0.1,0.3C102.9,16.8,102.5,15.9,102.4,15z M104,13.3C104,13.3,104,13.3,104,13.3c0,0.2,0,0.4,0,0.6h0v0.1
	c0,0.1,0,0.2,0,0.3h0v0c0,0.1,0,0.1,0,0.2h0v0c0,0.1,0,0.1,0,0.2h0v0c0,0.1,0.1,0.2,0.1,0.3h0v0l0,0.1h0v0c0.1,0.4,0.3,0.8,0.4,1.2
	c0,0,0,0,0,0c0.1,0.2,0.2,0.4,0.2,0.6c-0.4-0.5-0.7-1.2-0.9-1.8c0,0,0,0,0,0C103.9,14.7,103.6,14,104,13.3z M104.5,13.7
	c0.3,0.6,0.3,1.2,0.4,1.8v0c0,0.2,0,0.3,0,0.5h0v0.1c0,0.1,0,0.3,0.1,0.4c0-0.1-0.1-0.2-0.1-0.3c0,0,0,0,0,0
	c-0.3-0.8-0.5-1.6-0.7-2.4c0,0,0,0,0,0c0-0.2,0-0.4,0-0.5C104.4,13.5,104.4,13.6,104.5,13.7z M105.5,12.5c0.1-0.2,0.1-0.5,0.3-0.7
	c0,0.1,0,0.1,0,0.2h0V12h0c0,0.1,0,0.2,0,0.3v0.2h0c0,0.3,0,0.5,0,0.8h0v0.1c0,0.1,0,0.2,0,0.3c0,0,0,0,0,0c0,0,0,0,0,0c0,0,0,0,0,0
	c0.1,0.9,0.1,1.8,0,2.7c0,0,0,0,0,0C105.3,15.2,105.2,13.8,105.5,12.5C105.5,12.5,105.5,12.5,105.5,12.5
	C105.5,12.5,105.5,12.5,105.5,12.5C105.6,12.5,105.6,12.5,105.5,12.5z M106.6,13.8c0,0.5-0.1,1-0.2,1.4c0,0,0,0,0,0c0,0,0,0,0,0.1
	c0,0,0,0,0-0.1c-0.1,0.3-0.2,0.5-0.3,0.7c0-0.2,0-0.3,0-0.5v-0.4c0-0.3,0-0.6,0-0.9h0v-0.1c0-0.2,0-0.4,0-0.5c0,0,0,0,0,0
	c0-0.6-0.1-1.2,0.1-1.7C106.7,12.3,106.6,13.1,106.6,13.8z M108.8,11.8c0,0,0.1,0,0.1-0.1c-0.1,0.1-0.1,0.1-0.2,0.2v0h0l0,0v0h0
	c0,0-0.1,0.1-0.1,0.1v0h0c0,0-0.1,0.1-0.1,0.1v0h0c-0.1,0.2-0.2,0.4-0.4,0.6v0h0l0,0.1v0h0l0,0.1v0h0l0,0.1v0h0l0,0.1h0
	c-0.1,0.2-0.1,0.3-0.2,0.5v0h0c-0.2,0.4-0.3,0.8-0.5,1.2c0.1-0.2,0.2-0.5,0.2-0.7c0,0,0,0,0,0C107.6,13.4,108,12.4,108.8,11.8z
	 M108,14c-0.1,0.2-0.2,0.3-0.4,0.5c0-0.1,0-0.1,0.1-0.2c0,0,0,0,0,0c0,0,0,0,0,0c0.4-0.8,0.8-1.7,1.4-2.5
	C109,12.6,108.4,13.3,108,14z M110.3,14.2C110.3,14.2,110.3,14.2,110.3,14.2c-0.1,0.1-0.2,0.1-0.3,0.2v0h0l-0.1,0v0h0l-0.1,0v0h0
	l-0.1,0v0h0l-0.1,0v0h0l-0.1,0v0h0l-0.1,0v0h0c-0.2,0.1-0.3,0.2-0.5,0.3v0h0l-0.1,0.1v0l0,0c-0.6,0.3-1.1,0.6-1.7,0.9
	c0.3-0.2,0.5-0.5,0.8-0.7v0h0c0.1-0.1,0.2-0.2,0.3-0.2c0,0,0,0-0.1,0.1c0.3-0.3,0.7-0.6,1.1-0.8c0,0,0,0,0,0c0,0,0,0,0.1,0
	c0,0,0,0,0,0C109.5,14.1,110.1,13.8,110.3,14.2z M109,15.6c-0.8,0.4-1.6,0.6-2.4,0.9c0,0,0,0,0-0.1c0.1,0,0.2-0.1,0.3-0.1v0h0l0.1,0
	v0h0l0.1,0v0h0l0.1,0v0h0l0.1,0v0h0c0.3-0.2,0.7-0.4,1-0.6h0c0.6-0.4,1.3-0.7,1.9-1C110.1,15.1,109.5,15.4,109,15.6z M109.3,17.3
	c-0.2,0-0.5,0-0.7,0v0h-1.5c-0.2,0-0.4,0-0.6,0C107.4,17.1,108.4,17,109.3,17.3z M108.3,18C108.3,18,108.3,18,108.3,18
	C108.3,18,108.2,18,108.3,18C108.2,18,108.2,18,108.3,18c-0.3,0-0.5,0-0.7,0c0,0,0,0,0.1,0c0,0-0.1,0-0.1,0c0,0,0,0,0,0
	c-0.6,0-1.3-0.1-1.8-0.3c0.2,0,0.4,0,0.7,0h0.8v0c0.7,0,1.4,0,2.1,0C109.1,18,108.6,18,108.3,18z M108.4,19.1
	C108.4,19.1,108.4,19.1,108.4,19.1c-0.8,0-1.6-0.1-2.4-0.2h0v0c-0.3,0-0.5,0-0.8-0.1c0.1,0,0.2,0,0.2,0v0h0
	C106.4,18.7,107.6,18.4,108.4,19.1z M106.8,19.5c-0.5-0.1-1.1-0.2-1.6-0.4c0.4,0,0.8,0.1,1.3,0.1h0v0l0.5,0h0.1v0c0.2,0,0.3,0,0.5,0
	h0.1v0c0.2,0,0.4,0,0.6,0c-0.1,0.1-0.2,0.1-0.3,0.2c0,0,0,0,0,0C107.6,19.6,107.2,19.6,106.8,19.5z M106.9,20.8
	C106.9,20.8,106.9,20.8,106.9,20.8c-0.7-0.2-1.5-0.4-2.2-0.6h0v0c-0.1,0-0.2-0.1-0.4-0.1h0v0c-0.2,0-0.4-0.1-0.5-0.1
	c0.3,0,0.6,0,0.9,0c0,0,0,0-0.1,0c0,0,0.1,0,0.1,0c0,0,0,0,0,0c0.1,0,0.2,0,0.2,0c0,0,0,0-0.1,0C105.5,20,106.6,20,106.9,20.8z
	 M103,20.1c1,0.2,2,0.5,3,0.8h0v0l0.4,0.1h0v0c0.1,0,0.3,0.1,0.4,0.1C105.5,21.6,104.2,20.5,103,20.1z M103,20.1
	C103,20.1,103,20.1,103,20.1C103,20.1,103,20.1,103,20.1z M102.7,20.2C102.8,20.2,102.8,20.1,102.7,20.2
	C102.8,20.1,102.8,20.2,102.7,20.2L102.7,20.2z M105.2,22.2c-0.1,0-0.1,0-0.2,0c0,0,0,0,0,0c0,0,0,0,0,0c0,0,0,0,0,0
	c-0.1,0-0.2,0-0.3,0c0,0,0,0,0,0c-1-0.2-2-0.4-3-0.7C103,21.3,104.3,21.3,105.2,22.2z M103.8,22.8c-0.1,0-0.3-0.1-0.4-0.1
	c0,0,0,0,0,0c0,0,0,0,0,0c0,0,0,0,0,0c-0.8-0.3-1.6-0.5-2.3-1.1c0,0,0,0,0,0c0,0,0,0,0,0c0,0,0,0,0,0c0,0,0,0,0,0c0,0,0,0,0,0
	c0.2,0.1,0.3,0.1,0.5,0.2h0v0c0.1,0,0.2,0.1,0.4,0.1h0v0c0.1,0,0.1,0,0.2,0.1h0v0c0.5,0.1,1,0.2,1.5,0.3h0v0
	c0.4,0.1,0.8,0.1,1.3,0.2c0,0,0,0,0,0c0,0,0.1,0,0.1,0c0,0,0,0,0,0c0.1,0,0.1,0,0.2,0C105,22.9,104.3,22.9,103.8,22.8z M102.1,23.9
	c-0.5-0.2-0.9-0.4-1.4-0.6c0,0,0,0,0,0c-0.1-0.1-0.2-0.1-0.3-0.2c0.2,0.1,0.3,0.1,0.5,0.1h0v0c0.1,0,0.2,0.1,0.3,0.1h0v0
	c0.3,0.1,0.5,0.1,0.8,0.2h0v0c0.1,0,0.3,0.1,0.4,0.1h0v0l0.2,0h0v0l0.2,0h0v0c0.1,0,0.2,0,0.3,0.1C102.9,24.1,102.5,23.9,102.1,23.9
	z M100.9,25.1c-0.7-0.2-1.3-0.6-1.9-0.9c0.1,0.1,0.3,0.1,0.4,0.2h0v0l0.1,0h0v0l0.1,0h0v0l0.1,0h0v0c0.4,0.1,0.7,0.2,1.1,0.3h0v0
	c0.3,0.1,0.5,0.1,0.8,0.2C101.5,25.3,101.2,25.2,100.9,25.1z M99.5,26c-0.8,0-1.5-0.3-2.1-0.6c0.1,0,0.3,0.1,0.4,0.1h0v0
	c0.3,0.1,0.6,0.1,0.9,0.1c0,0,0,0,0,0c0.1,0,0.2,0.1,0.3,0.1h0v0c0.1,0,0.2,0,0.3,0h0v0c0.3,0,0.5,0.1,0.8,0.1
	C99.9,26,99.7,26,99.5,26z M97.5,27c-0.6-0.2-1.2-0.5-1.7-0.9c0.1,0.1,0.2,0.1,0.3,0.2h0v0l0.1,0h0v0c0.1,0,0.2,0.1,0.2,0.1h0v0
	c0.4,0.2,0.9,0.3,1.3,0.4c0,0,0,0,0,0c0,0,0.1,0,0.1,0c0,0,0,0,0,0c0.2,0,0.4,0.1,0.5,0.1C98.3,27.3,97.8,27.1,97.5,27z M95.5,27.1
	C95.5,27.1,95.5,27,95.5,27.1c0.1,0,0.2,0.1,0.4,0.2h0v0l0.1,0h0v0l0.1,0h0v0l0.1,0h0v0l0.1,0h0v0l0.1,0h0v0l0.1,0h0v0l0.1,0h0v0
	c0.2,0.1,0.3,0.2,0.5,0.2C96.6,27.9,96,27.5,95.5,27.1z M78.3,36.3c5.4-3.2,10.7-6.5,15.9-10c-0.1-0.2-0.3-0.3-0.4-0.5v0h0
	c-0.2-0.2-0.3-0.4-0.4-0.6v0h0c0,0,0,0,0-0.1v0h0c0,0,0-0.1,0-0.1v0h0c0-0.1-0.1-0.2-0.1-0.3v0h0c0-0.1,0-0.1,0-0.2v-0.1h0
	c0,0,0-0.1,0-0.1c0-0.4,0.2-0.6,0.4-0.7h0v0c0,0,0.1,0,0.1,0v0h0c0.1,0,0.2,0,0.2,0.1v0h0c0.1,0.1,0.1,0.1,0.2,0.2
	c-0.1-0.2-0.1-0.5,0-0.8h0v0c0-0.1,0.1-0.2,0.1-0.3h0v0c0.2-0.3,0.5-0.5,0.9-0.3v0h0c0,0,0.1,0,0.1,0.1c0-0.1,0-0.2-0.1-0.3v0h0
	c0,0,0-0.1,0-0.1h0v-0.1c0-0.1,0-0.2,0-0.3h0v0c0-0.1,0.1-0.2,0.1-0.3h0v0c0,0,0.1-0.1,0.1-0.1h0v0c0,0,0,0,0,0h0v0
	c0.1-0.1,0.1-0.1,0.2-0.1h0v0c0.1,0,0.2,0,0.4,0v0h0.1c0.1,0,0.1,0.1,0.2,0.1v0h0c0.1,0,0.1,0.1,0.2,0.2c-0.1-0.3-0.1-0.6,0-0.9h0v0
	c0.1-0.2,0.2-0.5,0.4-0.6h0v0c0.1,0,0.1-0.1,0.2-0.1h0v0c0.2-0.1,0.4,0,0.6,0.1v0h0c0.1,0,0.1,0.1,0.2,0.1c0,0,0-0.1,0-0.1v0h0
	c0-0.1,0-0.3,0-0.5h0v0c0-0.2,0.1-0.4,0.1-0.5h0v0c0,0,0-0.1,0-0.1h0v0c0,0,0.1-0.1,0.1-0.1h0v0c0,0,0,0,0,0h0v0
	c0.1-0.1,0.1-0.1,0.2-0.1h0v0c0.1,0,0.2-0.1,0.4,0v0h0c0.1,0,0.1,0.1,0.2,0.1v0h0c0,0,0,0,0,0v0h0c0.1,0,0.1,0.1,0.2,0.2
	c-0.2-0.6,0.1-1.3,0.5-1.7h0v0c0.2-0.1,0.3-0.2,0.5-0.2v0h0c0.1,0,0.1,0,0.2,0v0h0c0.1,0.1,0.2,0.2,0.4,0.3v0h0
	c0.1,0.1,0.1,0.2,0.2,0.3c-0.1-0.3-0.1-0.6-0.1-1h0v0c0-0.1,0-0.1,0-0.2h0v0c0,0,0-0.1,0-0.1h0v0c0-0.1,0.1-0.1,0.1-0.2h0v0
	c0.1-0.1,0.1-0.2,0.2-0.2h0v0c0.1,0,0.2,0,0.3,0v0h0c0.1,0,0.1,0.1,0.2,0.1v0h0c0,0,0,0,0.1,0v0h0l0,0v0h0c0,0,0.1,0.1,0.1,0.1
	c0,0,0-0.1-0.1-0.1v0h0c0-0.1,0-0.2,0-0.3v-0.1h0c0-0.1,0-0.1,0-0.2h0v0c0-0.2,0.1-0.5,0.2-0.7h0v0c0-0.1,0.1-0.1,0.1-0.1h0v0
	c0.1-0.1,0.1-0.1,0.2-0.2h0v0c0,0,0.1,0,0.1,0h0.2c0.1,0,0.1,0,0.2,0.1v0h0c0.1,0,0.1,0.1,0.2,0.1c0-0.1,0-0.2,0-0.3h0v0
	c0-0.1,0-0.2,0.1-0.3h0v0c0-0.1,0.1-0.2,0.1-0.3h0v0c0,0,0-0.1,0.1-0.1l0,0v0c0.1-0.1,0.1-0.2,0.2-0.3h0v0c0,0,0,0,0,0c0,0,0,0,0,0
	c0,0,0,0,0.1,0c0,0,0,0,0,0c0,0,0.1,0,0.1-0.1h0.1v0c0,0,0.1,0,0.1,0v0h0c0,0,0.1,0,0.1,0v0h0c0,0,0.1,0,0.1,0v0h0
	c0.2,0.1,0.3,0.3,0.4,0.5l0-0.1l0,0v0c0-0.1,0-0.2,0-0.2h0v-0.1c0-0.1,0-0.1,0-0.2h0v0c0-0.1,0-0.2,0.1-0.2c0,0,0,0,0,0
	c0,0,0,0,0-0.1c0,0,0,0,0,0c0.2-1.1,0.8-1.3,1.3-1v0h0c0.2,0.1,0.5,0.4,0.6,0.7v0h0c0.1,0.3,0.2,0.6,0.2,1c0.1-0.3,0.3-0.6,0.4-0.8
	h0v0c0.1-0.2,0.2-0.3,0.3-0.4h0v0c0.1-0.1,0.2-0.2,0.2-0.3h0v0l0,0h0v0c0.1-0.1,0.1-0.1,0.2-0.2h0v0c0.1-0.1,0.2-0.1,0.3-0.2h0v0
	c0.1,0,0.1,0,0.2,0h0.1v0c0.1,0,0.1,0,0.2,0v0h0c0.1,0,0.2,0.1,0.3,0.2v0c0,0,0.1,0.1,0.1,0.1v0h0c0.1,0.3,0.1,0.7-0.1,1.3h0v0
	c-0.1,0.1-0.1,0.3-0.2,0.4h0v0c-0.1,0.2-0.2,0.4-0.4,0.6h0v0c-0.1,0.1-0.1,0.1-0.2,0.2c0.1,0,0.2-0.1,0.3-0.1h0v0
	c0.1,0,0.2-0.1,0.3-0.1h0v0c0.1,0,0.1,0,0.2,0h0v0c0.1,0,0.2,0,0.3,0h0.1v0c0.1,0,0.1,0,0.2,0v0h0c0.1,0,0.2,0,0.3,0.1v0h0
	c0.2,0.1,0.3,0.3,0.3,0.5v0.1c0,0.3-0.2,0.7-0.5,1v0l0,0.1h0v0l0,0h0v0l0,0h0v0l0,0h0v0c-0.1,0.1-0.2,0.2-0.3,0.3h0v0
	c-0.1,0.1-0.2,0.1-0.3,0.2h0v0c-0.2,0.1-0.3,0.2-0.5,0.3h0v0c-0.1,0-0.2,0.1-0.3,0.1h0v0c0,0-0.1,0-0.2,0.1h0v0
	c-0.1,0-0.2,0.1-0.3,0.1c0.1,0,0.1,0,0.2,0v0h0.1c0.1,0,0.2,0,0.3,0v0h0.1c0.1,0,0.2,0.1,0.3,0.1v0h0c0,0,0,0,0.1,0v0h0
	c0.3,0.1,0.4,0.3,0.5,0.5v0.1h0c0,0,0,0.1,0,0.1v0h0c0,0,0,0.1,0,0.1h0v0c0,0.1,0,0.1,0,0.2h0v0c0,0.1-0.1,0.2-0.2,0.2h0v0
	c0,0,0,0,0,0h0v0c-0.1,0.1-0.1,0.1-0.2,0.2h0v0c0,0-0.1,0-0.1,0h0v0c0,0-0.1,0-0.1,0h0v0c-0.2,0.1-0.3,0.1-0.5,0.1h-0.1v0
	c-0.1,0-0.2,0-0.3,0c0.1,0,0.1,0.1,0.2,0.1v0h0c0.1,0.1,0.1,0.1,0.2,0.2v0h0c0,0,0.1,0.1,0.1,0.1v0h0c0.3,0.5-0.2,0.8-0.9,0.9h0v0
	c-0.3,0.1-0.6,0.1-0.9,0v0h0c-0.1,0-0.2-0.1-0.3-0.1c0.1,0,0.2,0.1,0.3,0.2v0h0c0,0,0,0,0,0v0h0c0,0,0,0,0,0v0h0
	c0.1,0.1,0.2,0.3,0.3,0.4v0h0c0,0.1,0,0.1,0,0.2V21c0,0.3-0.2,0.5-0.5,0.6h0v0l0,0c-0.1,0-0.1,0-0.2,0h-0.1v0c-0.2,0-0.3,0-0.5,0v0
	h-0.1c-0.2,0-0.5-0.1-0.7-0.2h0c-0.8-0.3-1.6-0.7-2.3-1c0,0,0,0,0,0c-0.2-0.1-0.4-0.1-0.5-0.2l-0.1,0.1c-0.3,0.2-0.6,0.5-0.9,0.7
	c0,0,0.1,0,0.1,0h0v0c0.1,0,0.2,0,0.3,0h0v0c0.4,0,0.7,0,1.1,0v0h0.1c0.2,0,0.4,0.1,0.6,0.1v0h0c0.7,0.2,1.2,0.4,1.5,0.7v0h0
	c0,0,0,0,0,0v0h0c0,0,0,0,0,0v0h0c0,0,0,0,0,0v0h0c0.2,0.2,0.2,0.4,0.3,0.5v0.1c0,0.1-0.1,0.2-0.2,0.3h0v0c-0.1,0.1-0.4,0.2-0.7,0.3
	h0v0c-0.3,0-0.6,0.1-1,0c0,0,0,0,0,0c-0.1,0-0.2-0.1-0.3-0.1c0,0,0.1,0.1,0.1,0.1v0h0l0,0v0h0c0,0,0,0,0,0.1h0
	c0.1,0.1,0.1,0.2,0.2,0.3v0.1h0c0,0.1,0,0.1,0,0.2h0v0c0,0,0,0.1,0,0.1h0v0c-0.1,0.2-0.3,0.3-0.6,0.4h0v0c-0.1,0-0.1,0-0.2,0.1h0v0
	c-0.4,0.1-0.8,0-1.1-0.1c0,0,0.1,0.1,0.1,0.1v0h0c0,0,0,0,0,0v0h0c0.1,0.1,0.1,0.2,0.2,0.3v0.1h0c0,0,0,0.1,0,0.1h0v0
	c0,0,0,0.1,0,0.1h0v0c0,0-0.1,0.1-0.1,0.1h0v0c-0.1,0.1-0.2,0.2-0.4,0.2h0v0c-0.3,0.1-0.6,0.1-0.9,0.1v0h0c-0.1,0-0.3-0.1-0.4-0.1
	c0.1,0.1,0.1,0.1,0.1,0.2v0h0c0,0,0,0.1,0,0.1v0h0c0.1,0.2,0,0.3,0,0.5h0v0c-0.1,0.1-0.3,0.2-0.5,0.3h0v0c-0.1,0-0.1,0-0.2,0h0v0
	c-0.1,0-0.2,0-0.3,0h-0.1v0c-0.1,0-0.2,0-0.4,0v0h-0.1c-0.1,0-0.2,0-0.3,0v0h0c-0.1,0-0.1,0-0.1,0c0,0,0,0.1,0.1,0.1v0h0
	c0,0,0,0.1,0,0.1v0h0c0.1,0.2,0.1,0.3,0,0.4h0v0c-0.1,0.2-0.3,0.3-0.5,0.3h0v0c-0.3,0.1-0.7,0-0.9-0.1c0.1,0.1,0.3,0.4,0.2,0.6h0v0
	c0,0.1-0.1,0.2-0.2,0.2l0,0c0,0,0,0,0,0c0,0,0,0,0,0c-0.2,0-0.4,0-0.6,0v0h0c-0.1,0-0.2-0.1-0.3-0.1v0h0c-0.1-0.1-0.3-0.1-0.4-0.2v0
	h0c-0.1-0.1-0.2-0.1-0.3-0.2v0h0c-0.1,0-0.1-0.1-0.2-0.2c-0.3-0.2-0.6-0.5-0.8-0.8l-0.4,0.3h0v0L94,27h0v0l-0.2,0.1h0v0l-0.2,0.1h0
	v0l-0.2,0.1h0v0l-0.2,0.1h0v0l-0.2,0.1h0v0l-0.2,0.1l0,0c-0.5,0.3-1,0.7-1.5,1h0v0l-0.1,0.1h0v0l-0.1,0.1h0v0L91.2,29h0v0L91,29.1h0
	v0l-0.1,0.1h0v0l-0.2,0.1h0v0l-0.2,0.1h0v0l-0.2,0.1c-0.4,0.3-0.9,0.6-1.3,0.9h0v0l-0.9,0.6h0v0L88,31h0v0l-0.6,0.4h0v0l-0.1,0.1h0
	v0l-0.2,0.1h0v0l-0.2,0.2h0v0l-0.1,0.1h0v0l-0.1,0.1h0v0L86.4,32h0v0l-0.2,0.1h0l-0.1,0.1h0v0L86,32.3h0v0l-0.1,0.1h0v0l-0.2,0.1h0
	v0l-0.2,0.2h0v0l-0.1,0.1h0v0l-0.1,0.1h0v0L85,33h0v0L84.9,33h0v0l-0.1,0.1h0v0l-0.1,0.1h0v0l-0.2,0.1l0,0v0l-0.2,0.2h0v0L84,33.6h0
	v0l-0.6,0.4h0v0c-0.4,0.3-0.8,0.5-1.2,0.8h0v0L81.8,35h0v0l-0.2,0.1h0v0l-0.1,0.1h0v0l-0.1,0h0v0l-0.1,0.1h0v0L81,35.5h0v0l-0.1,0h0
	v0l-0.1,0.1h0v0l-0.1,0h0v0l0,0h0v0l-0.1,0.1h0v0l-0.1,0.1h0v0l-0.1,0h0v0L80,36.1h0v0l-0.1,0h0v0l0,0h0l-0.1,0.1h0v0l-0.1,0.1h0v0
	l-0.1,0h0v0l-0.1,0.1h0v0l-0.1,0h0v0l-0.1,0.1h0v0l-0.1,0h0v0l-0.1,0h0v0l-0.1,0.1h0v0l-0.1,0.1h0v0l-0.1,0h0v0L78.4,37h0v0l-0.1,0
	h0v0l-0.1,0.1h0v0l-0.1,0.1L78.3,36.3z M66.8,26.8L66.8,26.8c1.1-1.8,2.3-3.6,3.3-5.5c-0.3-0.2-0.7-0.3-1-0.5v0h0
	c-0.1,0-0.1-0.1-0.2-0.1v0h0c0,0-0.1-0.1-0.1-0.1v0h0c-0.1-0.1-0.1-0.1-0.2-0.2v0h0l0,0v0h0c0,0,0,0,0,0v0h0c0,0-0.1-0.1-0.1-0.1
	c-0.1-0.1-0.2-0.3-0.2-0.4v-0.1c0-0.1,0-0.2,0.1-0.3c0.1-0.1,0.2-0.1,0.3-0.2h0v0c0.1,0,0.2,0,0.2,0.1c-0.2-0.2-0.3-0.6-0.2-0.9h0v0
	c0-0.1,0.1-0.2,0.3-0.3h0v0c0,0,0.1,0,0.1,0c-0.1,0-0.1-0.1-0.2-0.2v0h0c0,0-0.1-0.1-0.1-0.1v0h0c-0.2-0.3-0.1-0.7,0.1-0.9h0v0
	c0,0,0.1,0,0.1,0h0v0c0.1,0,0.3,0,0.5,0.1v0h0c0.1,0,0.1,0.1,0.2,0.1c-0.1-0.1-0.2-0.2-0.2-0.4v0h0c0-0.1-0.1-0.2-0.1-0.3v0h0
	c0-0.2-0.1-0.5,0-0.7h0v0c0-0.1,0.1-0.1,0.1-0.2h0v0c0,0,0,0,0,0h0v0c0,0,0.1,0,0.1,0h0.1c0,0,0.1,0,0.1,0v0h0c0,0,0.1,0,0.1,0v0h0
	c0.1,0,0.1,0.1,0.2,0.1c-0.3-0.4-0.5-1.4,0-1.5h0v0c0,0,0.1,0,0.2,0v0h0.1c0,0,0.1,0,0.1,0c0,0-0.1-0.1-0.1-0.1v0h0
	c-0.2-0.3-0.3-0.8-0.2-1.2h0v0c0-0.1,0.1-0.2,0.2-0.3h0v0c0,0,0.1,0,0.1,0h0.2c0,0,0.1,0,0.2,0v0h0c0,0,0.1,0,0.1,0v0h0
	c0,0,0.1,0,0.1,0.1c-0.1-0.1-0.2-0.3-0.2-0.5v0h0c0-0.1,0-0.2,0-0.3v0h0c0-0.1,0-0.1,0-0.2h0v-0.1c0-0.1,0-0.3,0.1-0.4h0v0
	c0-0.1,0.1-0.1,0.1-0.1h0v0c0,0,0.1-0.1,0.2-0.1h0.1v0c0,0,0.1,0,0.1,0h0c0,0,0.1,0,0.1,0v0h0c0.1,0,0.1,0.1,0.2,0.1
	c-0.1-0.1-0.1-0.1-0.2-0.2v0h0c0,0-0.1-0.1-0.1-0.1v0h0c0,0,0-0.1,0-0.1v0h0c0,0,0-0.1,0-0.1v0h0c0,0,0-0.1,0-0.1v0h0
	c-0.1-0.2-0.1-0.3-0.1-0.5V9.4h0l0-0.1v0c0-0.1,0-0.2,0-0.3h0v0c0-0.1,0.1-0.1,0.1-0.2h0v0c0-0.1,0.1-0.1,0.1-0.1h0v0
	c0,0,0.1,0,0.1,0h0v0c0.1,0,0.1,0,0.2,0h0.1c0.1,0,0.1,0,0.2,0C72,8.6,72,8.5,71.9,8.4v0h0c0,0,0-0.1,0-0.1v0h0
	c0-0.1-0.1-0.2-0.1-0.3v0h0c0-0.1,0-0.2,0-0.3h0v0c0-0.2,0.1-0.3,0.3-0.3h0v0c0.2-0.1,0.4,0,0.7,0.1v0h0c0,0,0.1,0,0.1,0
	c0,0,0-0.1-0.1-0.1v0h0c-0.2-0.4-0.3-1-0.2-1.3h0v0c0-0.1,0.1-0.2,0.2-0.3h0v0c0,0,0,0,0,0h0v0c0,0,0.1,0,0.1,0h0.1
	c0.1,0,0.2,0,0.3,0.1v0h0c0,0,0.1,0,0.1,0.1v0h0c0,0,0.1,0.1,0.1,0.1c0-0.1-0.1-0.1-0.1-0.2v0h0c0,0,0-0.1,0-0.1v0h0
	c-0.1-0.2-0.1-0.3-0.2-0.4v0h0c-0.1-0.3-0.1-0.5,0-0.7h0v0c0,0,0-0.1,0-0.1h0v0c0-0.1,0.1-0.1,0.2-0.2h0v0c0.1,0,0.1,0,0.2,0h0.1
	c0.1,0,0.1,0,0.2,0.1v0h0c0,0,0.1,0,0.1,0v0h0c0,0,0,0,0.1,0v0h0c0.1,0,0.2,0.1,0.2,0.1v0h0c0.1,0.1,0.2,0.2,0.3,0.3
	c-0.3-0.7-0.3-1.2-0.3-1.5h0v0c0.1-0.2,0.2-0.3,0.4-0.4h0v0c0.2-0.1,0.5,0,0.8,0.2v0h0c0.1,0.1,0.3,0.2,0.4,0.4v0h0
	c0.1,0.1,0.1,0.2,0.2,0.3v0h0c0.1,0.1,0.1,0.2,0.2,0.3v0c0,0.1,0.1,0.2,0.1,0.3c0-0.3,0-0.7,0-1h0V3.3c0-0.1,0-0.2,0-0.3h0v0
	C77,2.8,77,2.7,77,2.5h0v0c0,0,0-0.1,0-0.1h0v0c0-0.1,0.1-0.2,0.1-0.2h0v0c0,0,0-0.1,0-0.1h0v0c0,0,0-0.1,0-0.1h0v0
	c0.2-0.3,0.4-0.6,0.6-0.7h0v0c0.1,0,0.1-0.1,0.2-0.1h0.3c0.1,0,0.1,0.1,0.2,0.1v0c0,0,0.1,0.1,0.1,0.1v0h0c0,0,0,0.1,0,0.1v0h0
	c0,0.1,0,0.1,0,0.2v0h0c0,0.3,0.1,0.6,0,1h0v0c0,0.1,0,0.2-0.1,0.3v0c0,0.1,0,0.2-0.1,0.3v0c0,0.1,0,0.1,0,0.2h0v0
	c0,0.1,0,0.1,0,0.2c0.1-0.1,0.2-0.2,0.3-0.2h0v0c0.2-0.2,0.4-0.3,0.5-0.3h0v0c0.1,0,0.1,0,0.2,0h0.1c0.1,0,0.1,0,0.2,0v0h0
	C79.9,3.3,80,3.3,80,3.5v0h0c0,0.1,0,0.2,0,0.3v0c0,0,0,0.1,0,0.1h0v0c0,0.1,0,0.2,0,0.3h0v0c0,0.2-0.1,0.4-0.2,0.6
	c-0.2,0.3-0.4,0.7-0.7,1h0v0l0,0h0v0l-0.1,0h0v0c-0.2,0.1-0.3,0.3-0.5,0.4c0.4-0.2,0.8-0.6,1.3-0.8h0v0c0,0,0.1,0,0.1,0h0v0
	c0.1,0,0.2-0.1,0.3-0.1h0.1v0c0.1,0,0.1,0,0.2,0h0.1v0c0,0,0.1,0,0.1,0l0,0v0h0c0,0,0.1,0,0.1,0v0h0c0,0,0.1,0,0.1,0v0h0
	c0.1,0,0.1,0.1,0.1,0.1v0h0c0.1,0.2,0.1,0.4,0,0.6h0v0c0,0,0,0.1,0,0.1h0v0c0,0.1-0.1,0.1-0.1,0.2c-0.1,0.2-0.3,0.3-0.5,0.5h0v0
	c-0.1,0-0.1,0.1-0.2,0.1h0v0c0,0-0.1,0-0.1,0c0.1,0,0.2,0,0.3,0v0h0.1c0.1,0,0.2,0.1,0.2,0.1v0h0c0.1,0,0.1,0.1,0.1,0.1v0h0
	c0,0,0.1,0.1,0.1,0.1v0h0c0.1,0.1,0.1,0.3,0,0.4h0v0c0,0,0,0.1,0,0.1h0v0c-0.1,0.1-0.2,0.3-0.4,0.4h0v0c-0.1,0.1-0.2,0.1-0.3,0.2h0
	v0c-0.1,0-0.2,0.1-0.3,0.1h0v0c-0.1,0-0.1,0-0.2,0c0,0,0.1,0,0.1,0v0h0c0,0,0.1,0,0.1,0.1c0.1,0,0.1,0.1,0.2,0.1v0h0
	c0.1,0.2,0.1,0.4,0,0.7h0v0c0,0.1-0.1,0.1-0.1,0.2h0v0c-0.1,0.1-0.2,0.3-0.4,0.3h0v0c-0.2,0.1-0.4,0.2-0.5,0.2
	c0.2,0.1,0.3,0.1,0.3,0.2v0h0c0,0,0,0,0,0.1v0c0.1,0.1,0.1,0.3,0,0.4h0v0c-0.2,0.3-0.7,0.6-1,0.6c0.1,0,0.1,0,0.1,0.1v0h0
	c0,0,0,0,0.1,0v0h0c0.1,0.1,0.1,0.1,0.2,0.2v0h0c0,0,0,0,0,0.1v0h0c0.2,0.3-0.1,0.7-0.5,1h0v0c-0.1,0.1-0.2,0.1-0.4,0.2h0v0
	c-0.2,0.1-0.4,0.2-0.6,0.1c0.1,0.1,0.1,0.1,0.2,0.2v0h0c0,0,0,0.1,0.1,0.1v0.1h0c0,0,0,0.1,0,0.1l0,0v0c0,0.2-0.2,0.3-0.4,0.5h0v0
	c0,0-0.1,0.1-0.2,0.1h0v0c-0.2,0.1-0.5,0.2-0.7,0.3c0,0,0.1,0,0.1,0v0h0c0,0,0.1,0,0.1,0v0h0c0.2,0.1,0.3,0.3,0.2,0.5h0v0
	c0,0,0,0.1,0,0.1v0c-0.1,0.2-0.3,0.3-0.5,0.5c-0.1,0-0.2,0.1-0.2,0.1h0v0c0,0-0.1,0-0.1,0c0,0,0.1,0,0.1,0v0h0c0.1,0,0.1,0,0.1,0v0
	h0c0.8,0.3,0.2,1-0.4,1.3h0v0c0,0-0.1,0-0.1,0h0v0c-0.1,0-0.2,0.1-0.3,0.1h0v0c0,0-0.1,0-0.1,0c0.1,0.1,0.1,0.2,0.1,0.2v0h0
	c0,0.1,0,0.1,0,0.2h0v0c0,0.1-0.1,0.3-0.3,0.4h0v0c-0.2,0.2-0.4,0.3-0.6,0.3c0,0,0.1,0.1,0.1,0.1v0h0c0,0,0,0.1,0.1,0.1V19h0
	c0,0.2-0.1,0.4-0.2,0.5h0v0c0,0,0,0,0,0h0v0c-0.2,0.1-0.4,0.3-0.6,0.3h0v0c0,0-0.1,0-0.1,0c1.4,0.8-0.9,1.3-1.7,1.1
	c0.1,0,0.3,0.1,0.4,0.2v0h0c0.1,0,0.1,0.1,0.2,0.2v0h0c0.1,0.1,0.2,0.2,0.2,0.3v0h0c0,0.1,0,0.1,0,0.2v0.1c0,0.1-0.1,0.3-0.5,0.3
	c0,0-0.1,0-0.1,0h-0.4c-0.1,0-0.2,0-0.3,0v0h0c-0.1,0-0.2-0.1-0.3-0.1v0h0c-0.1,0-0.2-0.1-0.2-0.1v0h0c-0.1,0-0.1-0.1-0.2-0.1v0h0
	c-0.1-0.1-0.2-0.1-0.3-0.2c-0.1,0.2-0.2,0.3-0.3,0.5h0v0l0,0.1h0v0l0,0.1h0v0L70,22.4h0v0l0,0h0v0l0,0.1h0v0l0,0.1h0v0l0,0.1h0v0
	l0,0.1h0v0l0,0h0v0l0,0.1h0v0l0,0.1h0v0l0,0.1h0v0l0,0h0v0l0,0.1h0v0l0,0.1h0v0l0,0.1h0v0l-0.1,0.2h0v0l0,0.1h0v0l-0.1,0.2h0v0
	c-0.3,0.4-0.5,0.9-0.8,1.3h0v0l-0.2,0.2h0v0l-0.4,0.7h0v0l-0.2,0.4h-0.5L66.8,26.8z M56.2,44.1c0.4-0.6,0.7-1.1,1.1-1.7
	c0,0,0,0,0,0.1c0,0,0-0.1,0.1-0.1c0,0,0,0,0,0c0.2-0.4,0.4-0.7,0.7-1.1c0,0,0,0,0,0.1c0,0,0.1-0.1,0.1-0.1c0,0,0,0,0,0
	c0.9-1.6,1.9-3.2,2.8-4.8h0v0l0.7-1.1h0v0c0.3-0.5,0.5-0.9,0.8-1.4h0v0l0.2-0.3h0v0l0.2-0.3h0v0l0.2-0.3h0v0l0.2-0.3h0v0l0.2-0.3h0
	v0l0.2-0.3h0v0l0.2-0.3h0v0l0.2-0.3h0v0l0.2-0.3h0v0c0.1-0.2,0.3-0.4,0.4-0.7h0v0l0.2-0.2h0v0l0.4-0.7v0.1c0,0.3,0,0.7,0,1l-0.4,0.7
	c0,0,0,0,0-0.1c-0.6,1-1.1,1.9-1.7,2.9l0,0v0c-0.3,0.5-0.6,1-0.9,1.5v0c-0.2,0.4-0.4,0.8-0.7,1.1h0v0l-0.2,0.3h0v0
	c-0.5,0.8-0.9,1.5-1.4,2.3h0v0l-0.2,0.3h0v0c-0.2,0.3-0.4,0.6-0.6,0.9h0v0c-0.1,0.2-0.3,0.4-0.4,0.7h0v0l-0.3,0.4h0v0l-0.3,0.4h0v0
	L57.6,43h0v0l-0.6,1C56.7,44,56.4,44.1,56.2,44.1z M32.8,61l-0.6,0.3h0v0l-0.4,0.1h0v0l-0.2,0.1h0v0l-0.4,0.1h0v0L31,61.8h0v0
	L30.6,62h0v0l-0.2,0.1h0v0c-0.7,0.3-1.4,0.6-2,0.8h0v0L28,63h0v0l-0.2,0.1h0v0l-0.3,0.1h0v0l-0.4,0.2h0v0l-0.3,0.1h0v0
	c-0.4,0.1-0.7,0.3-1.1,0.4l-0.1,0.1h0v0l-0.4,0.1h0v0l-0.4,0.1h0v0l-0.1,0h0v0l-0.4,0.1h0v0l-0.1,0h0v0l-0.4,0.1h0v0
	c-0.2,0.1-0.4,0.2-0.7,0.2C22.1,65,14,68.2,12.2,68v0h0c-0.1,0-0.1,0-0.2,0v0h0c-0.2-0.1-0.2-0.2-0.1-0.4c7.1-2,14-4.5,20.8-7.4
	L32.8,61z M29.1,75.9L29.1,75.9L29.1,75.9c-0.1,0-0.1,0-0.2-0.1v0h0c-0.1,0-0.1-0.1-0.1-0.2c0,0,0-0.1,0-0.1h0v0
	c0.1-0.2,0.5-0.5,0.9-0.9h0v0c0.8-0.7,2-1.7,2.8-2.5l1.4-1.3l0.1,1l-0.6,0.6c-1.3,1.2-2.5,2.3-3.3,3h0v0c-0.2,0.2-0.4,0.3-0.5,0.4
	c0,0,0,0,0,0h0v0c0,0-0.1,0-0.1,0h0v0c0,0-0.1,0-0.1,0h0v0C29.2,75.9,29.1,75.9,29.1,75.9z"/>
<path class="st2" d="M71.5,20.5C71.5,20.5,71.5,20.5,71.5,20.5C71.5,20.5,71.5,20.5,71.5,20.5C71.5,20.5,71.5,20.5,71.5,20.5"/>
<polyline class="st2" points="70.9,20.8 70.9,20.8 70.9,20.8 "/>
<path class="st2" d="M68,26C68,26,68,26,68,26C68,26,68,26,68,26C68,26,68,26,68,26"/>
<path class="st2" d="M73.3,21C73.3,21,73.3,21,73.3,21C73.3,21,73.3,21,73.3,21"/>
<polyline class="st2" points="70.2,18.5 70.2,18.5 70.2,18.5 70.2,18.5 "/>
<polyline class="st2" points="69.2,19.5 69.2,19.5 69.2,19.5 69.2,19.5 "/>
<path class="st2" d="M70,23C70,23,70,23,70,23C70,23,70,23,70,23C70,23,70,23,70,23"/>
<path class="st0" d="M48.2,42.5c-4.4,4.7-4.3,9.8,0,15.4C53.4,52.4,53.6,47.2,48.2,42.5z"/>
<path class="st0" d="M45.1,48.4c-2.4-1.1-4.7-1.5-7.1-1.4c0.2,6.4,4.3,9.5,10.3,10.9"/>
<path class="st0" d="M52,48.4c2.4-1.1,4.7-1.5,7.1-1.4c-0.2,6.4-4.8,9.5-10.9,10.9"/>
<path class="st0" d="M68,29.8c-0.4,6-2.3,12.3-4.7,18c-1.9,3.9-0.5,8.6-4.9,10.9c-1.9,1-2.1,3.4,0.5,3.4l3.7,0
	c1.3,0,2.1-0.6,3.1-1.5c3-2.7,4.1-6.4,6.5-8.2c4.8-3.4,5.3-6.9,2.6-10.4c-0.8-1-0.3-1.8-0.1-3.1l1.7-9"/>
<path class="st0" d="M40,53.7c-1.7,0.9-5.3,3.3-4,5.5c5.8,9.9,39.4,8.1,44.7,0.1c2-3.1-6.7-6.3-8.5-6.8 M62.2,51.4
	c-1.1-0.1-2.8-0.2-3.8-0.3"/>
<path class="st0" d="M35.7,58.4l2.1,15.3c0.2,1.1-0.1,1.1,0.9,1.6c13.7,5.9,28.7,4.6,38.7,0.1c1-0.4,0.8-0.2,1-1.2L81,58.6"/>
<path class="st1" d="M22,60.4V16.7h42.1 M89.7,36v48.4H22V69.5 M80.1,16.7h9.6v8.1"/>
</svg>
