<?xml version="1.0" encoding="utf-8"?>
<!-- Generator: Adobe Illustrator 16.0.0, SVG Export Plug-In . SVG Version: 6.00 Build 0)  -->
<!DOCTYPE svg PUBLIC "-//W3C//DTD SVG 1.1//EN" "http://www.w3.org/Graphics/SVG/1.1/DTD/svg11.dtd">
<svg version="1.1" id="Capa_1" xmlns="http://www.w3.org/2000/svg" xmlns:xlink="http://www.w3.org/1999/xlink" x="0px" y="0px"
	 width="80px" height="100px" viewBox="0 0 80 100" style="enable-background:new 0 0 80 100;" xml:space="preserve">
<style type="text/css">
<![CDATA[
	.st0{fill-rule:evenodd;clip-rule:evenodd;}
	.st1{font-family:'NixieOne-Regular';}
	.st2{font-size:16.1854;}
]]>
</style>
<text transform="matrix(1 0 0 1.0061 2.208 94.3301)" class="st1 st2">P</text>
<text transform="matrix(1 0 0 1.0061 12.2314 94.3301)" class="st1 st2">edicure</text>
<path class="st0" d="M50,17.1C50,17.1,50.1,17.1,50,17.1c0,0-0.1,0-0.2,0v0h0c-0.1,0-0.1,0-0.2,0v0h0c-0.1,0-0.1,0-0.2,0
	c0,0,0,0,0,0c-0.3,0-0.7,0.1-1,0C49,17.1,49.6,17,50,17.1 M51.6,14.3c0.1,0,0.1,0,0.2,0c-0.5,0.3-1.2,0.5-1.8,0.4
	c0.1,0,0.3-0.1,0.4-0.1c0,0,0,0,0,0c0.1,0,0.2,0,0.3-0.1v0h0l0.1,0v0h0l0.2,0v0h0l0.1,0v0h0C51.4,14.3,51.5,14.3,51.6,14.3
	C51.6,14.2,51.6,14.3,51.6,14.3z M50.5,13.9c0.1,0,0.2,0,0.3,0c-0.3,0.1-0.6,0.2-0.9,0.3v0h0c-0.1,0-0.2,0.1-0.3,0.1v0h0
	c0,0-0.1,0-0.1,0.1c0.1-0.2,0.2-0.4,0.3-0.6c0.1,0,0.1,0,0.2,0H50v0C50.1,13.9,50.3,13.9,50.5,13.9z M51.1,11.4
	C51.1,11.4,51.1,11.4,51.1,11.4c0.1,0,0.1,0,0.2,0.1h0v0c0.1,0,0.1,0,0.2,0h0v0c0.1,0,0.2,0,0.2,0c-0.1,0-0.1,0-0.2,0.1v0h0l-0.1,0
	v0h0l-0.1,0v0h0l-0.1,0v0h0l-0.1,0v0h0l-0.1,0v0h0l-0.1,0v0h0l-0.1,0v0h0c-0.1,0-0.1,0.1-0.2,0.1c0.1-0.2,0.2-0.4,0.3-0.6
	C50.9,11.4,51,11.4,51.1,11.4z M51.2,10.7C51.2,10.7,51.2,10.7,51.2,10.7c0-0.1,0.1-0.3,0.2-0.4c0.3,0,0.5,0.1,0.8,0.1
	c-0.1,0-0.1,0-0.2,0.1v0h0c-0.2,0-0.3,0.1-0.5,0.2v0h0C51.4,10.7,51.3,10.7,51.2,10.7z M55.1,6.9c-0.5,0.5-1.3,0.8-2,0.9
	c0.1,0,0.2-0.1,0.4-0.1l0,0C54.1,7.4,54.6,7.1,55.1,6.9z M51.2,8.6C51.2,8.5,51.2,8.5,51.2,8.6L51.2,8.6L51.2,8.6
	c-0.1-0.2-0.2-0.3-0.3-0.5c0.3,0.2,0.5,0.5,0.7,0.7l0,0l0,0c-0.1,0.2-0.2,0.3-0.3,0.5c0-0.1-0.1-0.3-0.2-0.4
	C51.3,8.7,51.3,8.6,51.2,8.6z M50.7,10.2L50.7,10l0,0c-0.1-0.1-0.1-0.2-0.2-0.3c0.2,0.1,0.3,0.4,0.6,0.5c-0.1,0.1-0.1,0.3-0.2,0.4
	c0-0.1-0.1-0.1-0.1-0.2v0C50.8,10.3,50.8,10.2,50.7,10.2C50.7,10.2,50.7,10.2,50.7,10.2z M49.2,10.8C49.2,10.8,49.2,10.8,49.2,10.8
	c-0.3-0.5-0.7-0.9-0.8-1.5c0.6,0.4,0.8,1.1,1.2,1.8l0,0l0,0c0,0.1,0.1,0.2,0.2,0.3C49.5,11.2,49.4,11,49.2,10.8z M49.8,12.5
	C49.8,12.5,49.9,12.5,49.8,12.5c0,0.2-0.1,0.5-0.2,0.7c0-0.1,0-0.1-0.1-0.2h0v0l0-0.1h0v0l0-0.1h0v0l0-0.1h0v0l0-0.1h0v0l0-0.1h0v0
	c-0.1-0.2-0.2-0.4-0.3-0.6h0v0l0-0.1l0,0l0,0c0-0.1-0.1-0.1-0.1-0.2h0v0c-0.1-0.1-0.1-0.2-0.2-0.3c0,0,0.1,0.1,0.1,0.1c0,0,0,0,0,0
	c0,0,0.1,0.1,0.1,0.1h0v0l0,0h0v0l0,0h0v0C49.2,11.9,49.5,12.2,49.8,12.5z M48.2,11.3L48.2,11.3c-0.1-0.2-0.1-0.3-0.2-0.5
	c0.6,0.6,1,1.5,1.3,2.3c0,0,0,0,0,0c0,0,0,0,0,0c0,0,0,0,0,0c0,0,0,0,0,0c-0.1-0.1-0.2-0.3-0.3-0.4h0v0c-0.1-0.1-0.1-0.2-0.2-0.3
	c0,0,0,0,0,0C48.6,12.1,48.4,11.7,48.2,11.3z M49.2,13.6c0.1,0,0.1,0.1,0.2,0.1c-0.1,0.2-0.1,0.3-0.2,0.5c0-0.1-0.1-0.2-0.1-0.2l0,0
	v0c0-0.1-0.1-0.2-0.1-0.3l0,0v0c-0.1-0.1-0.1-0.3-0.2-0.4c0.1,0,0.1,0.1,0.2,0.1h0v0c0.1,0,0.1,0.1,0.2,0.1l0,0l0,0
	C49.1,13.5,49.1,13.6,49.2,13.6z M47.6,12.4c0-0.1,0-0.1-0.1-0.2c0.2,0.1,0.4,0.3,0.5,0.5c0,0,0,0,0,0c0.3,0.4,0.5,0.9,0.7,1.3
	c0,0,0,0,0,0c0.1,0.2,0.1,0.4,0.2,0.6c0,0,0,0,0,0.1c0,0,0-0.1-0.1-0.1h0v0c-0.1-0.1-0.1-0.2-0.2-0.3c0,0,0,0,0,0
	C48.2,13.6,47.9,13,47.6,12.4z M47.1,13.5c0.4,0.3,0.7,0.8,1,1.2c0,0,0,0,0,0c0,0,0,0,0,0c0,0,0,0,0,0c0.2,0.2,0.3,0.5,0.4,0.8
	c-0.1-0.1-0.2-0.3-0.3-0.4h0v0C47.8,14.5,47.3,14.1,47.1,13.5z M48.3,16c-0.1,0.1-0.1,0.3-0.2,0.4c0-0.1,0-0.2-0.1-0.3h0v0
	c0,0,0-0.1,0-0.1h0v0c-0.1-0.2-0.2-0.4-0.3-0.6c0.1,0.1,0.2,0.2,0.3,0.3C48,15.8,48.2,15.9,48.3,16z M46.8,14.7
	C46.8,14.7,46.8,14.7,46.8,14.7c0.4,0.5,0.7,1.1,1,1.7C47.4,15.9,47,15.3,46.8,14.7C46.8,14.7,46.8,14.7,46.8,14.7z M47.4,17.3
	c0.1,0,0.2,0.1,0.2,0.1c-0.1,0.2-0.2,0.4-0.3,0.6c0-0.2-0.1-0.3-0.2-0.5c0,0,0-0.1,0-0.1h0v0c0,0,0,0,0-0.1h0v0c0,0,0,0,0-0.1h0v0
	c0,0,0,0,0-0.1l0,0v0c0,0,0-0.1-0.1-0.1C47.1,17.2,47.2,17.3,47.4,17.3z M45.9,17.7C45.8,17.6,45.8,17.6,45.9,17.7
	c0.1,0,0.2,0.1,0.3,0.2c0,0,0,0,0,0c0,0,0,0,0,0c0,0,0,0,0,0c0.2,0.2,0.3,0.5,0.5,0.7C46.4,18.3,46.1,18,45.9,17.7z M46.7,18.1
	c0.1,0,0.1,0.1,0.2,0.1c0,0,0,0,0,0c0,0,0,0,0,0c0,0,0,0,0,0c0,0,0,0,0.1,0c0,0,0,0,0,0c0,0,0,0,0,0c0,0,0,0,0,0
	c0,0,0.1,0.1,0.1,0.1c0,0,0,0,0,0c0,0,0,0,0,0l0,0c0,0,0,0,0,0l0,0c0,0.1-0.1,0.1-0.1,0.2c0,0,0-0.1,0-0.1h0v0
	C46.9,18.4,46.8,18.3,46.7,18.1z M52.7,8C52.8,8,52.8,8,52.7,8C52.8,8,52.7,8,52.7,8L52.7,8z M47.6,16.6c0.1,0.1,0.2,0.2,0.3,0.2
	c0,0,0,0.1-0.1,0.1C47.8,16.8,47.7,16.7,47.6,16.6z M48.3,17C48.3,17,48.3,17,48.3,17C48.3,17,48.3,17,48.3,17
	C48.3,17,48.3,17,48.3,17z M46.6,17.4c-0.1-0.2-0.3-0.4-0.4-0.7c0.1,0,0.1,0.1,0.2,0.2c0,0,0,0,0,0c0,0,0,0,0,0c0,0,0,0,0,0
	c0.1,0.1,0.1,0.2,0.2,0.3c0,0,0,0,0,0c0.2,0.2,0.3,0.5,0.4,0.8C46.9,17.7,46.8,17.6,46.6,17.4z M48.3,14.5c0.2,0.2,0.3,0.3,0.5,0.4
	c0,0.1-0.1,0.2-0.1,0.3c0-0.1,0-0.1-0.1-0.1l0,0l0,0c0,0,0-0.1,0-0.1h0v0c0-0.1-0.1-0.2-0.2-0.3h0v0C48.3,14.6,48.3,14.5,48.3,14.5z
	 M49.5,10.3c0,0,0.1,0.1,0.1,0.1h0v0l0,0h0v0l0,0h0v0l0,0h0v0c0.1,0.1,0.2,0.1,0.2,0.2l0,0c0.1,0.1,0.2,0.1,0.3,0.2h0v0
	c0.1,0.1,0.2,0.1,0.2,0.2c-0.1,0.2-0.2,0.5-0.4,0.7c0,0,0-0.1,0-0.1h0v0c0,0,0-0.1,0-0.1h0v0c0,0,0-0.1,0-0.1h0v0l0-0.1h0v-0.1
	l0-0.1h0v0l0-0.1h0v0c-0.1-0.1-0.1-0.3-0.2-0.4v0l0-0.1h0v0l0-0.1l0,0v0l0-0.1l0,0v0C49.6,10.5,49.6,10.4,49.5,10.3z M52.1,8.1
	C52.1,8,52.1,8,52.1,8.1L52.1,8.1l0-0.1c0-0.1,0-0.1-0.1-0.2h0v0c-0.1-0.2-0.2-0.4-0.3-0.6c0.1,0.2,0.3,0.4,0.4,0.5h0v0
	c0,0,0.1,0.1,0.1,0.1C52.2,7.9,52.2,8,52.1,8.1z M53.3,8.1c-0.4,0.2-0.7,0.3-1.1,0.5c0.1-0.2,0.2-0.3,0.3-0.5c0,0,0.1,0,0.1,0h0.3
	C53,8.1,53.1,8.1,53.3,8.1z M52.5,9.1c0.1,0,0.1,0,0.2,0h0v0c0.1,0,0.2,0,0.3,0h0.1c0,0,0.1,0,0.1,0c-0.1,0-0.2,0.1-0.3,0.1v0h0
	l-0.1,0v0h0l-0.1,0v0h0l-0.1,0v0h0l-0.1,0v0h0l-0.1,0v0h0l-0.1,0v0h0l-0.1,0v0h0l-0.1,0v0h0L52,9.7v0h0l-0.1,0v0h0l-0.3,0.1
	c0.1-0.3,0.3-0.6,0.4-0.9C52.2,9,52.4,9,52.5,9.1z M50.3,12.6c0,0,0.1,0,0.1,0h0v0c0.1,0,0.2,0,0.2,0h0l0,0c0.2,0,0.4,0,0.5,0.1
	c-0.2,0.1-0.4,0.1-0.6,0.2v0h0c-0.2,0.1-0.4,0.2-0.6,0.3C50,13,50.1,12.8,50.3,12.6z M50.1,15c-0.1,0.1-0.3,0.1-0.4,0.2v0h0
	c-0.1,0.1-0.2,0.1-0.4,0.2l0,0h0l-0.1,0v0h0l-0.1,0v0h0c-0.1,0-0.1,0.1-0.2,0.1c0.1-0.2,0.2-0.4,0.3-0.6
	C49.5,14.9,49.8,14.9,50.1,15z M49.1,16c-0.2,0.1-0.4,0.1-0.5,0.2c0-0.1,0.1-0.2,0.1-0.2c0,0,0,0,0.1,0C48.9,16,49,16,49.1,16z
	 M50.5,16.2c-0.5,0.1-1,0.2-1.5,0.3C49.4,16.3,49.9,16.1,50.5,16.2z M50.5,16.4c-0.2,0.1-0.4,0.2-0.6,0.2c0,0,0,0,0,0c0,0,0,0,0,0
	c0,0,0,0,0,0c-0.4,0.1-0.7,0.1-1.1,0.1c0.1,0,0.3,0,0.4-0.1v0h0c0,0,0.1,0,0.1,0c0,0,0,0,0,0c0.1,0,0.2,0,0.3-0.1l0,0
	c0.1,0,0.3-0.1,0.4-0.1v0h0c0,0,0.1,0,0.2,0v0h0C50.3,16.4,50.4,16.4,50.5,16.4z M49.9,17.4c-0.3,0.2-0.6,0.2-0.9,0.2c0,0,0,0,0,0
	c0,0,0,0,0,0c0,0,0,0,0,0c-0.2,0-0.3,0-0.5-0.1c0.1,0,0.1,0,0.2,0v0h0.5c0.1,0,0.2,0,0.3,0v0h0C49.6,17.4,49.8,17.4,49.9,17.4z
	 M48.8,17.9c0,0-0.1,0-0.1,0v0h0l-0.1,0v0h0l-0.1,0v0h0l-0.1,0v0h0l-0.1,0v0h0l-0.1,0v0h0c-0.1,0-0.2,0.1-0.3,0.1
	c0.1-0.2,0.2-0.4,0.3-0.7c0.1,0,0.1,0.1,0.2,0.1h0v0c0,0,0,0,0.1,0h0v0c0.1,0,0.1,0.1,0.2,0.1h0v0c0,0,0.1,0,0.1,0h0l0,0
	C48.6,17.9,48.7,17.9,48.8,17.9z M45.6,17.6C45.6,17.6,45.6,17.6,45.6,17.6C45.6,17.6,45.6,17.7,45.6,17.6L45.6,17.6l0.1,0.1
	c0,0,0,0,0,0.1h0v0l0,0h0v0c0,0,0,0,0,0h0v0l0,0h0v0c0,0,0.1,0.1,0.1,0.1l0,0v0l0,0h0v0l0,0h0v0l0,0h0v0l0,0h0v0
	c0.1,0.1,0.1,0.1,0.2,0.2c0,0-0.1,0-0.1-0.1c0,0,0,0,0,0c0,0,0,0,0,0c0,0,0,0,0,0c-0.2-0.1-0.4-0.3-0.5-0.5c0,0,0,0,0,0c0,0,0,0,0,0
	c0,0,0,0,0,0C45.6,17.8,45.6,17.7,45.6,17.6z M46,16.7C46,16.7,46,16.6,46,16.7L46,16.7L46,16.7L46,16.7c0.1,0,0.1,0.1,0.1,0.1h0v0
	c0,0,0,0.1,0,0.1h0v0c0,0.1,0.1,0.2,0.2,0.3h0v0c0.2,0.3,0.4,0.5,0.6,0.8C46.4,17.7,45.8,17.2,46,16.7z M46,15.8
	C46,15.8,46,15.8,46,15.8c0,0,0.1,0.1,0.1,0.1l0,0v0l0,0h0v0l0,0h0v0l0,0h0v0l0,0h0v0l0,0h0v0c0.1,0.1,0.2,0.1,0.2,0.2h0v0
	c0.1,0.1,0.1,0.1,0.2,0.2h0l0,0c0.3,0.2,0.6,0.4,0.8,0.7C47,16.9,46.1,16.5,46,15.8z M46.3,15.7c0.1,0.1,0.2,0.1,0.2,0.2
	c0,0,0,0,0,0c0.2,0.2,0.4,0.4,0.6,0.6c-0.1-0.1-0.2-0.2-0.3-0.3l0,0c-0.2-0.2-0.5-0.3-0.6-0.6C46.2,15.7,46.3,15.7,46.3,15.7z
	 M46.5,14.5C46.5,14.5,46.5,14.5,46.5,14.5c0,0,0,0.1,0.1,0.1h0v0c0,0,0,0.1,0,0.1l0,0v0c0,0.1,0.1,0.1,0.1,0.2v0c0,0,0,0.1,0,0.1h0
	v0l0,0.1h0v0l0,0.1h0v0c0.2,0.3,0.4,0.6,0.6,0.9c-0.1-0.1-0.2-0.2-0.3-0.3c0,0,0,0,0,0C46.8,15.4,46.4,15,46.5,14.5z M46.5,14.4
	C46.5,14.4,46.5,14.4,46.5,14.4C46.5,14.4,46.5,14.4,46.5,14.4z M46.9,13.5C46.9,13.5,46.9,13.4,46.9,13.5
	C46.9,13.4,46.9,13.5,46.9,13.5L46.9,13.5L46.9,13.5c0.1,0.1,0.1,0.1,0.1,0.1h0v0l0,0.1h0v0l0,0h0v0c0,0,0,0.1,0,0.1h0v0
	c0,0,0,0.1,0,0.1l0,0l0,0c0,0.1,0.1,0.1,0.1,0.2l0,0v0c0,0,0.1,0.1,0.1,0.1h0v0l0,0h0v0c0,0,0,0.1,0.1,0.1h0v0
	c0.3,0.4,0.7,0.8,1,1.2c0,0,0,0,0,0c-0.6-0.5-1.1-1.1-1.5-1.8c0,0,0,0,0,0C46.9,13.8,46.8,13.6,46.9,13.5z M47.1,12.1
	c0,0,0.1-0.1,0.1,0c0,0.1,0,0.1,0,0.2h0v0c0,0,0,0.1,0,0.1h0v0c0,0,0,0.1,0,0.1h0v0c0,0.1,0.1,0.2,0.2,0.4h0v0l0,0.1h0v0l0,0.1h0v0
	l0,0.1h0v0l0,0.1h0v0c0.2,0.4,0.5,0.8,0.8,1.2c-0.2-0.2-0.5-0.4-0.6-0.7c0,0,0,0,0,0c0-0.1-0.1-0.1-0.1-0.2l0,0v0
	c-0.1-0.1-0.1-0.2-0.2-0.3c0,0,0,0,0,0C47.3,13,47,12.6,47.1,12.1z M47.2,12.1L47.2,12.1C47.2,12.1,47.2,12.1,47.2,12.1
	C47.2,12.1,47.2,12.1,47.2,12.1z M47.2,12.1C47.2,12.1,47.2,12.1,47.2,12.1C47.2,12.1,47.2,12.1,47.2,12.1z M47.7,10.8
	c0,0,0.1-0.1,0.1-0.1c0,0.1,0,0.1,0,0.2h0v0c0,0,0,0.1,0,0.1h0v0c0,0.1,0.1,0.2,0.1,0.3h0v0l0,0.1h0v0c0.1,0.2,0.2,0.3,0.2,0.5h0v0
	c0.1,0.1,0.1,0.2,0.2,0.3l0,0v0c0.1,0.2,0.2,0.4,0.4,0.5c0,0,0,0,0,0c0.1,0.2,0.3,0.4,0.4,0.6c-0.1,0-0.2-0.1-0.3-0.2
	c0,0-0.1-0.1-0.1-0.1v0C48.4,12.6,47.3,11.7,47.7,10.8z M48,9.5c0.1-0.1,0.1-0.1,0.2-0.2c0,0,0,0.1,0,0.1h0v0l0,0.1h0v0.1l0,0.1h0v0
	c0,0,0,0.1,0,0.1h0v0l0,0.1h0v0c0.1,0.1,0.1,0.3,0.2,0.4h0v0c0,0,0,0.1,0.1,0.1h0v0l0,0.1l0,0c0,0,0.1,0.1,0.1,0.1
	c0.1,0.2,0.2,0.3,0.4,0.5h0v0c0.2,0.3,0.5,0.6,0.7,0.9l0,0c0,0,0,0,0,0c0,0,0,0,0,0c0.1,0.1,0.1,0.1,0.1,0.2c0,0,0,0,0,0
	c0,0,0,0,0,0.1C49.2,11.4,47.8,10.6,48,9.5z M48.5,8.3c0,0.1,0.1,0.1,0.1,0.2h0v0l0,0.1h0v0l0,0h0v0c0,0,0,0.1,0.1,0.1h0v0l0,0h0v0
	c0,0,0.1,0.1,0.1,0.1v0c0.1,0.1,0.2,0.2,0.2,0.3l0,0l0,0h0v0l0,0h0v0l0,0h0v0l0,0h0v0c0.2,0.2,0.4,0.4,0.6,0.6h0v0
	c0.3,0.3,0.5,0.5,0.8,0.8c0,0,0,0,0,0.1C49.8,10.3,48.8,9.4,48.5,8.3z M48.7,8.3c0.9,0.3,1.4,1.2,1.8,2c-0.5-0.5-1-0.9-1.4-1.4
	c0,0,0,0,0,0c0,0,0,0,0,0c0,0,0,0,0,0C49,8.7,48.9,8.5,48.7,8.3C48.7,8.3,48.7,8.3,48.7,8.3z M49.3,7.2C49.3,7.2,49.3,7.1,49.3,7.2
	c0,0,0.1,0.1,0.1,0.2h0v0l0,0h0v0l0,0.1h0v0l0,0.1h0v0l0,0.1l0,0v0c0.1,0.1,0.2,0.2,0.2,0.4h0v0c0,0,0.1,0.1,0.1,0.1v0l0,0h0v0
	C50,8.3,50,8.3,50,8.4h0v0c0,0.1,0.1,0.1,0.1,0.2l0,0c0.1,0.1,0.2,0.2,0.2,0.3l0,0v0c0.1,0.1,0.2,0.2,0.3,0.4
	c0.2,0.2,0.4,0.4,0.5,0.6c0,0,0,0,0,0c0,0,0,0,0,0c0,0,0,0,0,0c0,0,0,0,0,0c0,0,0,0,0,0c-0.1-0.1-0.1-0.1-0.2-0.2h0v0l0,0h0v0
	c0,0-0.1-0.1-0.2-0.1h0v0l0,0c-0.1-0.1-0.2-0.1-0.2-0.2c0,0,0,0,0,0C49.9,8.7,49.3,8,49.3,7.2z M49.6,7.1c0.2,0.1,0.4,0.3,0.6,0.5
	c0,0,0,0,0,0c0.5,0.6,0.9,1.2,1.1,1.9C50.8,9,50.4,8.5,50,8c0,0,0,0,0,0c0,0,0,0,0,0c0,0,0,0,0,0c-0.2-0.3-0.4-0.6-0.6-1
	C49.5,7,49.6,7,49.6,7.1z M49.9,5.8C49.9,5.8,49.9,5.8,49.9,5.8c0,0,0,0.1,0.1,0.1C50,5.9,50,5.9,49.9,5.8C50,6,50,6.1,50.1,6.2h0v0
	c0,0,0,0,0,0.1h0v0c0.1,0.2,0.3,0.5,0.4,0.7h0v0c0.1,0.1,0.1,0.1,0.2,0.2l0,0v0c0.1,0.1,0.2,0.3,0.4,0.4C50.5,7.1,50,6.6,49.9,5.8z
	 M50.7,6.1c0.6,0.6,1,1.4,1.4,2.2c0,0,0,0,0,0c-0.2-0.1-0.3-0.3-0.4-0.5c0,0,0,0,0,0c0,0,0-0.1-0.1-0.1h0v0c0-0.1-0.1-0.1-0.1-0.2h0
	v0c0-0.1-0.1-0.1-0.1-0.2l0,0v0c-0.2-0.2-0.4-0.5-0.6-0.7c0,0,0,0,0,0c-0.2-0.3-0.4-0.6-0.5-1c0.1,0.1,0.3,0.2,0.4,0.3l0,0l0,0
	C50.6,6.1,50.6,6.1,50.7,6.1z M50.9,4.7C50.9,4.7,50.9,4.7,50.9,4.7C50.9,4.7,50.9,4.7,50.9,4.7z M50.9,4.7
	C50.9,4.7,50.9,4.7,50.9,4.7C50.9,4.7,50.9,4.7,50.9,4.7z M50.9,4.6C50.9,4.6,51,4.6,50.9,4.6C51,4.6,51,4.6,50.9,4.6
	C51,4.7,51,4.7,51,4.7h0v0c0,0,0,0.1,0,0.1h0v0c0,0,0,0.1,0,0.1l0,0v0c0,0.1,0,0.2,0.1,0.2h0v0c0,0.1,0,0.1,0.1,0.2h0v0
	c0.1,0.2,0.2,0.4,0.3,0.6h0v0l0,0.1h0v0c0.1,0.2,0.2,0.4,0.3,0.7C51.4,6.4,50.8,5.5,50.9,4.6z M52,5.9C52,5.9,52,5.9,52,5.9
	c0.2,0.5,0.3,1,0.4,1.5c-0.3-0.6-0.6-1.3-0.9-1.9c0,0,0,0,0,0c-0.1-0.3-0.2-0.6-0.3-0.9C51.6,4.9,51.9,5.4,52,5.9z M53.2,3.4
	C53.2,3.4,53.2,3.4,53.2,3.4c0,0,0,0.1-0.1,0.2v0h0C53.1,3.8,53,3.9,53,4.1v0l0,0c0,0.1,0,0.2,0,0.3v0l0,0c-0.1,0.7,0,1.5-0.2,2.2
	C52.6,5.5,52.5,4.3,53.2,3.4z M53.2,4.8c0,0.2-0.1,0.4-0.1,0.6c0-0.6,0-1.2,0.2-1.7C53.4,4,53.3,4.4,53.2,4.8z M54.1,5.1
	C54.1,5,54.2,5,54.1,5.1c-0.2,0.4-0.5,0.9-0.8,1.3C53.5,5.9,53.7,5.4,54.1,5.1z M54.2,5.8C54.2,6,54.1,6.1,54,6.2c0,0,0,0,0,0
	c0,0,0,0,0,0c0,0,0,0,0,0c-0.2,0.2-0.4,0.3-0.5,0.5c0.3-0.5,0.6-1.1,1-1.6C54.5,5.3,54.3,5.6,54.2,5.8z M55.2,6.6
	C55.2,6.6,55.2,6.6,55.2,6.6c-0.2,0.1-0.4,0.2-0.5,0.2l0,0h0c-0.4,0.2-0.7,0.3-1.1,0.4C54.1,7.1,54.6,6.4,55.2,6.6z M55.1,8
	C55.1,8,55.1,8,55.1,8c-0.2,0.2-0.6,0.2-0.9,0.2v0h0c-0.1,0-0.2,0-0.2,0.1c0,0,0,0,0,0c0,0-0.1,0-0.1,0v0h0c-0.1,0-0.1,0-0.2,0l0,0
	h0c-0.2,0.1-0.5,0.1-0.7,0.2c0.5-0.2,1-0.5,1.5-0.6l0,0c0,0,0,0,0,0c0,0,0,0,0,0C54.6,7.8,54.9,7.8,55.1,8C55.1,8,55.1,8,55.1,8z
	 M54.5,8.7c-0.5,0.2-1,0.2-1.5,0.2c0,0,0,0,0,0c-0.2,0-0.3,0-0.5-0.1c0.1,0,0.2,0,0.3,0v0h0c0.3-0.1,0.6-0.1,0.9-0.2c0,0,0,0,0,0
	c0.4-0.1,0.8-0.2,1.2-0.2v0h0c0.1,0,0.1,0,0.2,0C55,8.5,54.8,8.6,54.5,8.7z M54.5,9.3L54.5,9.3c-0.4,0.1-0.7,0.2-1.1,0.3
	c0,0,0,0,0,0c-0.3,0.1-0.7,0.2-1,0.3C53,9.7,53.9,8.9,54.5,9.3z M54.4,9.8c-0.1,0.1-0.1,0.1-0.2,0.1c0,0,0,0,0,0c0,0,0,0,0,0
	c0,0,0,0,0,0c-0.3,0.2-0.7,0.3-1.1,0.3c0,0,0,0,0,0c0,0,0,0-0.1,0c0,0,0,0,0,0c-0.2,0-0.4,0-0.7,0c0,0,0,0,0,0c-0.1,0-0.2,0-0.4,0
	c0,0,0.1,0,0.1,0v0h0c0,0,0.1,0,0.1,0v0h0c0,0,0.1,0,0.1,0v0h0l0.1,0h0c0.2-0.1,0.5-0.1,0.7-0.2c0,0,0,0,0,0
	c0.4-0.1,0.8-0.2,1.2-0.3C54.5,9.6,54.5,9.7,54.4,9.8z M54,10.5c-0.1,0-0.2,0-0.3,0.1c0,0,0,0,0,0c-0.8,0.2-1.6,0.3-2.4,0.4
	c0.4-0.2,0.8-0.3,1.2-0.4c0,0,0,0,0,0c0.3-0.1,0.5-0.1,0.8-0.1v0h0.1c0.1,0,0.1,0,0.2,0c0,0,0,0,0,0c0,0,0,0,0.1,0c0,0,0,0,0,0
	C53.8,10.4,53.9,10.4,54,10.5z M53.7,10.9c-0.6,0.3-1.2,0.4-1.8,0.4c0,0,0,0,0,0c-0.3,0-0.6,0-0.8-0.1c0.1,0,0.3,0,0.4,0v0h0.1
	c0.1,0,0.1,0,0.2,0v0h0.1c0.1,0,0.2,0,0.2,0v0h0c0.1,0,0.1,0,0.2,0v0h0c0.1,0,0.3-0.1,0.4-0.1v0h0l0.2,0v0h0l0.2,0v0h0l0.2,0v0h0
	l0.2,0l0,0l0,0c0.1,0,0.2,0,0.3-0.1c0,0,0,0,0,0c0,0,0,0,0,0h0c0,0,0.1,0,0.1,0C53.9,10.8,53.8,10.9,53.7,10.9z M53.5,11.7
	C53.5,11.7,53.5,11.7,53.5,11.7C53.5,11.7,53.5,11.7,53.5,11.7l-0.1,0c-0.2,0-0.4,0.1-0.6,0.1c0,0,0,0,0,0c-0.3,0.1-0.6,0.1-0.9,0.1
	h0c-0.1,0-0.2,0-0.4,0v0h-0.1c-0.1,0-0.2,0-0.4,0.1c0.2,0,0.3-0.1,0.5-0.2h0C52.3,11.6,53,11.3,53.5,11.7z M53.4,12
	c-0.8,0.7-2,0.4-2.9,0.3c0.2,0,0.3,0,0.5-0.1h0c0.1,0,0.2,0,0.4,0v0h0c0.1,0,0.2,0,0.3,0v0h0c0.2,0,0.4,0,0.5-0.1v0h0.1
	c0.1,0,0.1,0,0.2,0v0h0.1l0.1,0v0h0.1l0.1,0v0H53l0.1,0v0h0.1l0.1,0v0h0.1c0.1,0,0.1,0,0.2,0c0,0,0,0,0,0c0,0,0,0,0,0
	C53.5,11.9,53.5,12,53.4,12z M52.6,12.9l-0.2,0v0h0c-0.1,0-0.1,0-0.2,0v0h-0.1c-0.1,0-0.1,0-0.2,0v0h0c0,0-0.1,0-0.1,0c0,0,0,0,0,0
	c-0.1,0-0.1,0-0.2,0v0h0c-0.1,0-0.1,0-0.2,0v0h0l-0.1,0v0h0l-0.2,0v0h0c-0.3,0.1-0.6,0.2-0.9,0.2c0.1-0.1,0.2-0.1,0.2-0.2
	c0,0,0,0,0,0c0,0,0,0,0,0c0,0,0,0,0,0l0.1,0v0h0C51.1,13,52,12.4,52.6,12.9z M52.3,13.4c-0.7,0.3-1.5,0.3-2.2,0.3c0,0,0,0,0.1,0
	c0,0,0,0,0,0c0,0,0,0,0,0c0,0,0,0,0,0c0.1,0,0.1,0,0.2,0v0h0c0,0,0.1,0,0.1,0v0h0.1c0,0,0.1,0,0.1,0v0h0c0.1,0,0.1,0,0.2,0v0l0,0
	c0.4-0.1,0.7-0.2,1.1-0.3c0,0,0,0,0,0c0.2,0,0.4-0.1,0.5-0.1C52.5,13.2,52.4,13.3,52.3,13.4z M51.9,14C51.8,14,51.8,14,51.9,14
	C51.8,14,51.8,14,51.9,14c-0.1,0-0.2,0-0.3,0.1v0h0l-0.1,0v0h0l-0.2,0v0h0l-0.2,0v0h0l-0.3,0.1c0,0,0,0,0,0c-0.2,0-0.4,0.1-0.5,0.1
	C50.7,14.2,51.3,13.8,51.9,14C51.8,14,51.8,14,51.9,14C51.8,14,51.8,14,51.9,14z M51.5,15C51.5,15,51.5,15,51.5,15
	C51.5,15,51.5,15.1,51.5,15C51.5,15.1,51.5,15.1,51.5,15c-0.6,0.2-1.3,0.3-1.9,0.4c0.5-0.2,0.9-0.5,1.4-0.4c0,0,0,0,0,0l0.1,0h0
	l0.1,0c0,0,0,0,0,0C51.3,15,51.4,15,51.5,15z M51.5,15.4c-0.2,0.2-0.5,0.2-0.7,0.3c0,0,0,0,0,0c-0.5,0.1-1,0.1-1.5,0.1
	c0.1,0,0.2,0,0.3,0v0h0c0.2,0,0.3-0.1,0.5-0.1h0c0.2,0,0.3-0.1,0.4-0.1l0,0c0,0,0,0,0.1,0c0,0,0,0,0,0
	C50.9,15.5,51.2,15.4,51.5,15.4L51.5,15.4c0.1-0.1,0.1-0.1,0.1-0.1C51.6,15.4,51.6,15.4,51.5,15.4c0.1-0.1,0.1-0.1,0.1-0.1
	C51.5,15.4,51.5,15.4,51.5,15.4z M49.7,18.1L49.7,18.1c-0.4,0.1-0.8,0-1.2,0.1C48.9,18.1,49.3,18,49.7,18.1z M48.4,18.5
	c0.3-0.1,0.6-0.1,0.9-0.1v0h0.2c0.1,0,0.1,0,0.2,0c-0.1,0.1-0.2,0.1-0.2,0.1c0,0,0,0,0,0C49.1,18.5,48.7,18.5,48.4,18.5z M48.6,19.1
	C48.6,19.1,48.6,19.1,48.6,19.1c-0.1,0-0.1,0-0.2,0h0l0,0c-0.2,0-0.4-0.1-0.6-0.1h0v0c-0.1,0-0.2,0-0.3,0c0,0,0,0,0,0c0,0,0,0,0,0
	c0,0,0,0,0,0c-0.1,0-0.1,0-0.2,0c0,0,0,0,0,0C47.8,18.8,48.2,18.9,48.6,19.1z M47.8,19.2L47.8,19.2C47.8,19.2,47.8,19.2,47.8,19.2
	c0.2,0,0.4,0,0.7,0.1C48.3,19.4,48,19.3,47.8,19.2z M68.7,23.2c-0.4-0.2-0.9-0.3-1.3-0.5c0.4,0.1,0.9,0.1,1.3,0.3c0,0,0,0,0,0
	c0.2,0.1,0.4,0.1,0.5,0.3C69,23.3,68.9,23.2,68.7,23.2C68.8,23.2,68.8,23.2,68.7,23.2C68.8,23.2,68.8,23.2,68.7,23.2
	C68.8,23.2,68.8,23.2,68.7,23.2C68.8,23.2,68.8,23.2,68.7,23.2C68.7,23.2,68.7,23.2,68.7,23.2C68.7,23.2,68.7,23.2,68.7,23.2
	L68.7,23.2z M69.5,22.3C69.5,22.3,69.5,22.3,69.5,22.3C69.5,22.3,69.5,22.2,69.5,22.3l-0.1,0v0c-0.1,0-0.1,0-0.2,0h0v0
	c-0.2,0-0.4,0-0.6-0.1c0.5,0,1.1,0.1,1.6,0.3C70,22.3,69.8,22.3,69.5,22.3z M72.6,20.5c0.1,0.1,0.2,0.2,0.3,0.2
	c-0.6-0.1-1.2-0.3-1.8-0.5c0.2,0,0.4,0,0.7,0.1c0,0,0,0-0.1,0C72,20.4,72.3,20.4,72.6,20.5C72.6,20.5,72.6,20.5,72.6,20.5
	C72.6,20.5,72.6,20.5,72.6,20.5C72.6,20.5,72.6,20.5,72.6,20.5z M74.1,17.5c-0.4,0-0.8,0-1.1,0c0.2-0.1,0.3-0.3,0.5-0.4
	c0.1,0.1,0.2,0.2,0.3,0.2l0,0c0.2,0.1,0.3,0.1,0.5,0.2C74.2,17.5,74.2,17.5,74.1,17.5C74.1,17.5,74.1,17.5,74.1,17.5z M73.9,16.1
	C73.9,16.1,73.9,16.1,73.9,16.1C73.9,16.1,73.9,16.1,73.9,16.1C73.9,16.1,73.9,16.1,73.9,16.1z M73.9,16.1
	C73.9,16.1,73.9,16.1,73.9,16.1C73.9,16.1,73.9,16.1,73.9,16.1C73.9,16.1,73.9,16.1,73.9,16.1z M73.9,16.2c-0.1,0.1-0.2,0.2-0.2,0.2
	c0,0,0,0,0,0c0,0,0,0,0,0v-0.1l0,0v0v0c0-0.2,0-0.4-0.1-0.6C73.7,15.8,73.8,16,73.9,16.2z M73.9,16.1C73.9,16.1,73.9,16.1,73.9,16.1
	C73.9,16.1,73.9,16.1,73.9,16.1z M72.8,13.6c0.2,0.2,0.3,0.5,0.3,0.8c0,0,0,0,0,0c0.2,0.6,0.2,1.2,0.3,1.8c0,0,0,0,0,0c0,0,0,0,0,0
	c-0.3-0.7-0.5-1.4-0.6-2.1c0,0,0,0,0,0C72.8,13.9,72.8,13.8,72.8,13.6z M71.5,17.1c0-0.1,0-0.2,0-0.3c0,0.1,0,0.1,0.1,0.2h0
	L71.5,17.1L71.5,17.1l0.1,0v0c0.1,0.1,0.2,0.3,0.2,0.4h0v0c0.1,0.1,0.1,0.2,0.2,0.3c-0.2,0.1-0.4,0.3-0.5,0.4c0-0.1,0-0.2,0-0.3
	v-0.1h0c0-0.1,0-0.1,0-0.2l0,0v0C71.6,17.4,71.5,17.3,71.5,17.1z M70.3,18.4c0-0.1,0-0.3,0-0.4c0,0.1,0,0.1,0.1,0.2h0v0
	c0,0,0,0,0,0.1h0v0l0,0.1h0v0c0,0.1,0.1,0.2,0.2,0.3h0v0c0,0.1,0.1,0.2,0.2,0.2c-0.2,0.2-0.4,0.3-0.6,0.5c0,0,0-0.1,0-0.1v0h0
	c0-0.1,0-0.1,0-0.2v0l0,0C70.3,18.8,70.3,18.6,70.3,18.4z M68.5,18.3c0-0.1,0-0.1,0-0.2c0.6,0.5,0.4,1.5,0.4,2.3
	C68.7,19.7,68.6,19,68.5,18.3C68.5,18.3,68.5,18.3,68.5,18.3C68.5,18.3,68.5,18.3,68.5,18.3C68.5,18.3,68.5,18.3,68.5,18.3z
	 M67.3,21.8c-0.1,0.1-0.2,0.2-0.4,0.3c0-0.1,0.1-0.3,0.1-0.4v0l0,0c0-0.2,0-0.3,0-0.5c0,0.1,0.1,0.2,0.1,0.3v0l0,0.1l0,0v0
	L67.3,21.8L67.3,21.8L67.3,21.8L67.3,21.8z M66.3,22.3c0.1,0.1,0,0.2,0.1,0.2c0,0,0,0-0.1,0.1C66.3,22.5,66.3,22.4,66.3,22.3z
	 M68.1,21C68.1,21,68.1,21,68.1,21L68.1,21L68.1,21c0-0.2,0-0.2,0.1-0.3v-0.1h0c0-0.1,0-0.2,0-0.3c0.1,0.2,0.2,0.3,0.2,0.5
	c-0.1,0.1-0.3,0.2-0.4,0.3C68,21.2,68,21.1,68.1,21z M69.3,19.4c0,0.1,0.1,0.1,0.1,0.2l0,0v0c0.1,0.1,0.1,0.2,0.2,0.3
	c-0.1,0.1-0.3,0.2-0.4,0.3c0-0.1,0-0.1,0-0.2v0h0C69.3,19.8,69.3,19.6,69.3,19.4z M72.6,16.8c0-0.1,0-0.2,0-0.3h0v-0.1
	c0-0.1,0-0.2,0-0.3h0v-0.1c0-0.1,0-0.2,0-0.2h0v-0.1c0-0.1,0-0.2-0.1-0.4c0.1,0.2,0.1,0.3,0.2,0.4h0v0c0.2,0.3,0.5,0.6,0.7,0.9
	c-0.2,0.2-0.5,0.4-0.8,0.6C72.6,17.2,72.6,17,72.6,16.8z M74.6,16.6c-0.2,0-0.4,0-0.5,0v0h0c0,0-0.1,0-0.1,0
	c0.1-0.1,0.3-0.2,0.4-0.4c0,0,0,0.1,0.1,0.1l0,0l0,0C74.4,16.5,74.5,16.6,74.6,16.6z M71.2,19.4c0.1,0.1,0.2,0.1,0.2,0.2v0
	c0.1,0.1,0.2,0.1,0.3,0.2c-0.1,0-0.2,0-0.3,0h-0.1v0c-0.2,0-0.5,0-0.7,0v0h-0.1c0,0-0.1,0-0.1,0c0.2-0.2,0.4-0.4,0.6-0.6
	c0,0,0,0,0.1,0C71,19.3,71,19.3,71.2,19.4C71.1,19.3,71.1,19.4,71.2,19.4z M70.4,20.6c0.1,0,0.1,0.1,0.2,0.1c-0.1,0-0.2,0-0.3,0H70
	v0c-0.1,0-0.2,0-0.3,0v0h-0.1c-0.1,0-0.3,0-0.4,0v0h0l-0.1,0c0.2-0.2,0.4-0.4,0.7-0.6C70,20.4,70.2,20.5,70.4,20.6z M71.5,21.5
	c0.1,0.1,0.3,0.2,0.3,0.3c-0.8-0.2-1.5-0.4-2.3-0.7C70.2,21,70.9,21.1,71.5,21.5z M69.2,21.5c0.1,0.1,0.2,0.1,0.3,0.1
	c-0.1,0-0.1,0-0.2,0h-0.1L69.2,21.5c0,0.1-0.1,0.1-0.2,0.1h-0.1v0c-0.1,0-0.3,0-0.4,0v0h-0.2c-0.1,0-0.1,0-0.2,0
	c0.2-0.1,0.4-0.3,0.5-0.4c0,0,0,0,0.1,0.1h0v0C68.9,21.3,69,21.4,69.2,21.5z M68,22.5c-0.1,0-0.2,0-0.2,0h0v0c-0.1,0-0.1,0-0.2,0
	h-0.1v0c-0.1,0-0.1,0-0.2,0h0c0,0-0.1,0-0.1,0c0.1-0.1,0.2-0.2,0.3-0.3c0,0,0.1,0,0.1,0c0,0,0.1,0.1,0.1,0.1h0v0
	C67.8,22.4,67.9,22.4,68,22.5z M66.8,22.9C66.8,22.9,66.8,23,66.8,22.9c0,0.1-0.1,0-0.2,0C66.6,22.9,66.7,22.8,66.8,22.9
	C66.7,22.8,66.7,22.9,66.8,22.9z M68.1,23.8c0,0,0.1,0.1,0.1,0.1c-0.5-0.2-1-0.5-1.6-0.8l0,0c0,0-0.1-0.1-0.1-0.1
	C67.1,23.2,67.6,23.5,68.1,23.8z M65.2,21.3c0-0.1,0-0.1,0.1-0.2C65.3,21.1,65.3,21.2,65.2,21.3L65.2,21.3c0.1,0,0.1,0,0.1,0.1h0v0
	l0,0.1h0v0.1l0,0.1h0v0.1c0,0,0,0.1,0,0.1h0v0c0,0.1,0.1,0.1,0.1,0.2h0v0l0,0.1h0v0l0,0.1h0v0l0,0.1h0v0l0,0.1h0v0l0,0.1h0v0
	c0,0.1,0.1,0.2,0.1,0.3c0,0,0,0,0,0c0,0,0,0,0,0c0,0,0,0,0,0c0,0,0,0,0,0.1c0,0-0.1-0.1-0.1-0.1c0,0,0,0,0,0c0,0,0,0,0,0
	c0,0,0,0,0,0C65.6,22.2,65.2,21.8,65.2,21.3z M65.6,21.2c0.3,0.4,0.4,0.9,0.5,1.4c-0.2-0.4-0.4-0.8-0.5-1.2c0,0,0,0,0,0
	c0-0.1,0-0.2-0.1-0.3C65.5,21.1,65.6,21.2,65.6,21.2z M66.1,20.3C66.1,20.3,66.1,20.3,66.1,20.3c0,0,0,0.1,0.1,0.1h0v0.1
	c0,0,0,0.1,0,0.1h0v0.1c0.1,0.3,0.1,0.6,0.2,0.8c0,0,0,0,0,0c0,0.1,0,0.2,0.1,0.3c0,0,0,0,0,0c0,0.1,0,0.1,0.1,0.2
	C66.2,21.6,65.9,20.9,66.1,20.3z M66.5,20.3c0.1,0.1,0.1,0.2,0.2,0.3c0,0,0,0,0,0c0,0,0,0,0,0c0.1,0.3,0.2,0.7,0.1,1.1c0,0,0,0,0,0
	c0,0.1,0,0.2-0.1,0.3c0,0,0-0.1,0-0.1c0,0,0,0,0,0c0,0,0,0,0-0.1c0,0,0,0,0,0l0-0.1h0v0c0-0.1,0-0.2-0.1-0.2c0,0,0,0,0,0
	c-0.1-0.4-0.2-0.8-0.2-1.3C66.4,20.2,66.4,20.3,66.5,20.3z M67,19.3C67.1,19.2,67.1,19.2,67,19.3c0.1,0,0.1,0.1,0.1,0.2h0v0.2
	c0,0.1,0,0.2,0,0.3l0,0v0c0,0.1,0,0.2,0,0.3v0c0,0.1,0,0.2,0,0.2h0v0c0,0.1,0,0.3,0.1,0.4C67.1,20.4,66.8,19.8,67,19.3z M67.6,19.5
	c0.3,0.6,0.1,1.3,0,1.9c0,0,0,0,0,0c0-0.1,0-0.3,0-0.4h0v0c0-0.1,0-0.2,0-0.3l0,0v0c-0.1-0.5-0.2-1-0.2-1.4c0,0,0,0,0,0c0,0,0,0,0,0
	C67.5,19.3,67.5,19.4,67.6,19.5z M68.2,18.2c0-0.1,0.1-0.1,0.1-0.1c0,0.3,0,0.7,0.1,1h0v0c0,0.2,0.1,0.4,0.1,0.6h0v0
	c0.1,0.2,0.1,0.5,0.2,0.7c-0.1-0.1-0.2-0.3-0.3-0.4c0,0,0,0,0,0C68.1,19.5,67.9,18.8,68.2,18.2z M69.2,17C69.3,17,69.3,17,69.2,17
	c0,0,0,0.1,0,0.1h0v0.2c0,0.1,0,0.2,0,0.3h0v0c0,0.1,0,0.1,0,0.2h0v0c0.1,0.5,0.3,1,0.4,1.5C69.3,18.8,69,17.8,69.2,17z M69.6,17.1
	c0.4,0.7,0.4,1.5,0.4,2.2c-0.2-0.7-0.5-1.5-0.5-2.3C69.5,17,69.6,17,69.6,17.1z M70.4,16c0-0.1,0.1-0.1,0.1-0.2c0,0.2,0,0.4,0,0.5
	c0,0,0,0,0,0c0,0,0,0.1,0,0.1l0,0v0c0,0.1,0,0.2,0,0.3h0v0c0,0.3,0.1,0.6,0.2,0.8v0c0.1,0.3,0.2,0.6,0.3,0.9
	c-0.1-0.1-0.1-0.2-0.2-0.3c0,0,0,0,0,0C70.5,17.5,70.1,16.7,70.4,16z M71,16.3c0.2,0.7,0.3,1.4,0.2,2.1c-0.2-0.7-0.4-1.3-0.5-2l0,0
	c0-0.1,0-0.3,0-0.4v0c0,0,0-0.1,0-0.1C70.8,16,70.9,16.1,71,16.3z M71.5,14.8C71.6,14.7,71.6,14.7,71.5,14.8
	C71.6,14.7,71.6,14.8,71.5,14.8l0.1,0.4c0,0.1,0,0.2,0,0.3h0v0c0,0.1,0,0.1,0,0.2h0v0c0,0.1,0,0.1,0,0.2h0v0c0,0.1,0,0.1,0,0.2v0
	c0,0.1,0.1,0.3,0.1,0.4l0,0v0c0.1,0.2,0.1,0.3,0.2,0.5h0v0l0.1,0.3C72.1,17.2,72,17.1,72,17c0,0,0,0,0,0
	C71.6,16.3,71.3,15.5,71.5,14.8z M71.9,14.8c0.3,0.8,0.4,1.6,0.5,2.4c0-0.1-0.1-0.2-0.1-0.2v0C72,16.3,71.7,15.5,71.9,14.8
	C71.8,14.7,71.9,14.8,71.9,14.8z M72.3,14c0-0.2,0-0.4,0.2-0.5c0,0.1,0,0.3,0,0.4h0V14c0,0.1,0,0.3,0.1,0.4h0v0
	c0,0.1,0.1,0.3,0.1,0.4c0.1,0.3,0.2,0.6,0.3,0.9c0,0,0,0,0,0c0,0.1,0.1,0.2,0.1,0.2C72.7,15.4,72.3,14.7,72.3,14z M73.5,12.7
	C73.5,12.7,73.5,12.7,73.5,12.7c0,0.1,0,0.3,0,0.5h0v0.1c0,0.1,0,0.1,0,0.2h0v0c0,0.1,0,0.1,0,0.2h0v0c0,0,0,0.1,0,0.1h0v0
	c0,0.1,0,0.2,0.1,0.3l0,0v0l0,0.1h0v0c0.1,0.3,0.2,0.6,0.3,0.9c0,0,0,0,0,0c0.1,0.2,0.1,0.3,0.2,0.5c-0.3-0.4-0.5-0.9-0.7-1.4
	c0,0,0,0,0,0C73.5,13.8,73.2,13.2,73.5,12.7z M73.9,13c0.3,0.4,0.3,0.9,0.3,1.4v0c0,0.1,0,0.3,0,0.4h0v0.1c0,0.1,0,0.2,0.1,0.3
	c0-0.1-0.1-0.1-0.1-0.2c0,0,0,0,0,0c-0.2-0.6-0.4-1.3-0.5-1.9c0,0,0,0,0,0c0-0.1,0-0.3,0-0.4C73.8,12.8,73.9,12.9,73.9,13z M74.7,12
	c0.1-0.2,0.1-0.4,0.2-0.5c0,0,0,0.1,0,0.1h0v0h0c0,0.1,0,0.1,0,0.2V12h0c0,0.2,0,0.4,0,0.6h0v0.1c0,0.1,0,0.1,0,0.2c0,0,0,0,0,0
	c0,0,0,0,0,0c0,0,0,0,0,0c0.1,0.7,0.1,1.4,0,2.2c0,0,0,0,0,0C74.5,14.2,74.4,13.1,74.7,12C74.7,12,74.7,12,74.7,12
	C74.7,12,74.7,12,74.7,12C74.8,12,74.8,12,74.7,12z M75.6,13.1c0,0.4-0.1,0.8-0.2,1.1c0,0,0,0,0,0c0,0,0,0,0,0.1c0,0,0,0,0,0
	c-0.1,0.2-0.1,0.4-0.2,0.6c0-0.1,0-0.3,0-0.4v-0.3c0-0.2,0-0.5,0-0.7h0v-0.1c0-0.1,0-0.3,0-0.4c0,0,0,0,0,0c0-0.5-0.1-0.9,0.1-1.4
	C75.7,11.9,75.6,12.5,75.6,13.1z M77.3,11.5C77.3,11.4,77.3,11.4,77.3,11.5c0,0,0,0.1-0.1,0.1v0h0l0,0v0h0c0,0-0.1,0.1-0.1,0.1v0h0
	c0,0,0,0.1-0.1,0.1v0h0c-0.1,0.2-0.2,0.3-0.3,0.5v0l0,0l0,0.1v0l0,0l0,0.1v0l0,0l0,0.1v0l0,0l0,0.1c-0.1,0.1-0.1,0.2-0.2,0.4v0l0,0
	c-0.1,0.3-0.3,0.7-0.4,1c0.1-0.2,0.1-0.4,0.2-0.6c0,0,0,0,0,0C76.4,12.7,76.6,12,77.3,11.5z M76.7,13.2c-0.1,0.1-0.2,0.3-0.3,0.4
	c0,0,0-0.1,0.1-0.1c0,0,0,0,0,0c0,0,0,0,0,0c0.3-0.7,0.6-1.4,1.1-1.9C77.5,12.1,77,12.7,76.7,13.2z M78.5,13.4
	C78.5,13.4,78.5,13.4,78.5,13.4c-0.1,0-0.2,0.1-0.2,0.1v0h0l-0.1,0v0h0l-0.1,0v0h0l-0.1,0v0h0l-0.1,0v0h0l-0.1,0v0h0l-0.1,0v0h0
	c-0.1,0.1-0.2,0.1-0.4,0.2v0h0l-0.1,0c-0.4,0.2-0.9,0.5-1.3,0.7c0.2-0.2,0.4-0.4,0.6-0.5v0h0c0.1-0.1,0.1-0.1,0.2-0.2c0,0,0,0,0,0
	c0.3-0.2,0.5-0.5,0.8-0.6c0,0,0,0,0,0c0,0,0,0,0,0c0,0,0,0,0,0C77.9,13.3,78.3,13.1,78.5,13.4z M77.5,14.5c-0.6,0.3-1.3,0.5-1.9,0.7
	c0,0,0,0,0,0c0.1,0,0.2-0.1,0.2-0.1v0l0,0l0.1,0v0h0l0.1,0l0,0h0l0.1,0v0h0l0.1,0v0l0,0c0.3-0.1,0.5-0.3,0.8-0.4h0
	c0.5-0.3,1-0.6,1.5-0.8C78.3,14.1,77.9,14.3,77.5,14.5z M77.7,15.8c-0.2,0-0.4,0-0.5,0v0H76c-0.2,0-0.3,0-0.5,0
	C76.2,15.7,77,15.6,77.7,15.8z M76.9,16.4C76.9,16.4,76.9,16.4,76.9,16.4C76.9,16.4,76.9,16.4,76.9,16.4
	C76.9,16.4,76.9,16.4,76.9,16.4c-0.2,0-0.4,0-0.5,0c0,0,0,0,0.1,0c0,0,0,0-0.1,0c0,0,0,0,0,0c-0.5,0-1,0-1.4-0.3c0.2,0,0.3,0,0.5,0
	H76v0c0.5,0,1.1,0,1.7,0C77.5,16.4,77.2,16.4,76.9,16.4z M77,17.3C77,17.3,77,17.3,77,17.3c-0.6,0-1.2-0.1-1.9-0.1h0v0
	c-0.2,0-0.4,0-0.6,0c0.1,0,0.1,0,0.2,0l0,0l0,0C75.4,16.9,76.4,16.7,77,17.3z M75.8,17.6c-0.4-0.1-0.9-0.2-1.3-0.3
	c0.3,0,0.7,0.1,1,0.1h0v0l0.4,0H76v0c0.1,0,0.3,0,0.4,0h0v0c0.2,0,0.3,0,0.5,0c-0.1,0.1-0.2,0.1-0.3,0.1c0,0,0,0,0,0
	C76.4,17.7,76.1,17.6,75.8,17.6z M75.8,18.6C75.8,18.6,75.8,18.6,75.8,18.6c-0.6-0.1-1.2-0.3-1.7-0.5h0v0c-0.1,0-0.2-0.1-0.3-0.1h0
	v0c-0.1,0-0.3-0.1-0.4-0.1c0.2,0,0.5,0,0.7,0c0,0,0,0-0.1,0c0,0,0,0,0.1,0c0,0,0,0,0,0c0.1,0,0.1,0,0.2,0c0,0,0,0-0.1,0
	C74.7,18,75.6,18,75.8,18.6z M72.8,18c0.8,0.2,1.6,0.4,2.3,0.6h0v0l0.3,0.1h0l0,0c0.1,0,0.2,0.1,0.3,0.1
	C74.7,19.2,73.7,18.4,72.8,18z M72.8,18C72.8,18,72.8,18,72.8,18S72.8,18,72.8,18z M72.5,18.1C72.6,18.1,72.6,18.1,72.5,18.1
	C72.6,18.1,72.6,18.1,72.5,18.1z M74.5,19.7c0,0-0.1,0-0.1,0h0c0,0,0,0,0,0l0,0c-0.1,0-0.1,0-0.2,0c0,0,0,0,0,0
	c-0.8-0.1-1.6-0.3-2.3-0.5C72.7,19,73.8,19,74.5,19.7z M73.4,20.2c-0.1,0-0.2,0-0.3-0.1l0,0c0,0,0,0,0,0c0,0,0,0,0,0
	c-0.6-0.2-1.3-0.4-1.8-0.9c0,0,0,0,0,0c0,0,0,0,0,0c0,0,0,0,0,0c0,0,0,0,0,0c0,0,0,0,0,0c0.1,0,0.3,0.1,0.4,0.1h0v0
	c0.1,0,0.2,0.1,0.3,0.1h0v0c0.1,0,0.1,0,0.2,0h0l0,0c0.4,0.1,0.8,0.2,1.2,0.2h0l0,0c0.3,0.1,0.7,0.1,1,0.2c0,0,0,0,0,0
	c0,0,0,0,0.1,0l0,0c0.1,0,0.1,0,0.2,0C74.3,20.2,73.8,20.2,73.4,20.2z M72,21c-0.4-0.1-0.7-0.3-1.1-0.5c0,0,0,0,0,0
	c-0.1,0-0.2-0.1-0.2-0.1c0.1,0,0.3,0.1,0.4,0.1h0v0c0.1,0,0.2,0.1,0.3,0.1h0v0c0.2,0.1,0.4,0.1,0.6,0.2h0v0c0.1,0,0.2,0.1,0.3,0.1h0
	v0l0.2,0h0v0l0.2,0h0v0c0.1,0,0.2,0,0.3,0.1C72.7,21.2,72.3,21.1,72,21z M71.1,22c-0.5-0.2-1-0.5-1.5-0.7c0.1,0,0.2,0.1,0.3,0.1h0v0
	l0.1,0h0v0l0.1,0h0v0l0.1,0h0v0c0.3,0.1,0.6,0.2,0.8,0.2h0v0c0.2,0.1,0.4,0.1,0.6,0.2C71.6,22.1,71.3,22,71.1,22z M70,22.7
	c-0.6,0-1.1-0.2-1.7-0.5c0.1,0,0.2,0,0.3,0.1h0v0c0.2,0,0.5,0.1,0.7,0.1c0,0,0,0,0,0c0.1,0,0.1,0,0.2,0.1h0v0c0.1,0,0.1,0,0.2,0h0
	l0,0c0.2,0,0.4,0.1,0.6,0.1C70.3,22.7,70.1,22.7,70,22.7z M68.4,23.5c-0.5-0.1-0.9-0.4-1.3-0.7c0.1,0,0.2,0.1,0.3,0.1h0v0l0.1,0h0v0
	c0.1,0,0.1,0.1,0.2,0.1h0v0c0.3,0.1,0.7,0.2,1,0.3c0,0,0,0,0,0c0,0,0,0,0.1,0c0,0,0,0,0,0c0.1,0,0.3,0.1,0.4,0.1
	C69,23.7,68.7,23.6,68.4,23.5z M66.9,23.6C66.9,23.5,66.8,23.5,66.9,23.6c0.1,0,0.2,0.1,0.3,0.1h0v0l0.1,0h0v0l0.1,0h0v0l0.1,0h0v0
	l0.1,0h0v0l0.1,0h0v0l0.1,0h0v0l0.1,0h0v0c0.1,0.1,0.3,0.1,0.4,0.2C67.7,24.2,67.3,23.9,66.9,23.6z M53.3,30.9
	c4.2-2.5,8.4-5.2,12.5-7.9c-0.1-0.1-0.2-0.3-0.3-0.4v0h0c-0.1-0.2-0.2-0.3-0.3-0.5v0h0c0,0,0,0,0-0.1v0h0c0,0,0,0,0-0.1v0h0
	c0-0.1-0.1-0.1-0.1-0.2v0h0c0-0.1,0-0.1,0-0.2v0h0c0,0,0-0.1,0-0.1c0-0.3,0.1-0.5,0.3-0.5h0v0c0,0,0.1,0,0.1,0v0h0
	c0.1,0,0.1,0,0.2,0.1v0h0c0.1,0,0.1,0.1,0.1,0.2c-0.1-0.2-0.1-0.4,0-0.6v0c0-0.1,0-0.2,0.1-0.2h0v0c0.1-0.3,0.4-0.4,0.7-0.2v0h0
	c0,0,0,0,0.1,0.1c0-0.1,0-0.2,0-0.3v0l0,0c0,0,0-0.1,0-0.1l0,0v-0.1c0-0.1,0-0.1,0-0.2h0v0c0-0.1,0.1-0.2,0.1-0.3h0v0
	c0,0,0-0.1,0.1-0.1h0v0c0,0,0,0,0,0h0v0c0.1-0.1,0.1-0.1,0.2-0.1h0v0c0.1,0,0.2,0,0.3,0v0h0c0.1,0,0.1,0,0.2,0.1v0h0
	c0.1,0,0.1,0.1,0.2,0.1c-0.1-0.2,0-0.5,0-0.7h0v0c0.1-0.2,0.2-0.4,0.3-0.5h0v0c0,0,0.1-0.1,0.1-0.1h0v0c0.1,0,0.3,0,0.5,0.1v0h0
	c0,0,0.1,0.1,0.1,0.1c0,0,0-0.1,0-0.1v0h0c0-0.1,0-0.2,0-0.4h0v0c0-0.1,0.1-0.3,0.1-0.4h0v0c0,0,0,0,0-0.1h0v0c0,0,0-0.1,0.1-0.1h0
	v0c0,0,0,0,0,0h0v0c0,0,0.1-0.1,0.1-0.1h0v0c0.1,0,0.2,0,0.3,0v0h0c0,0,0.1,0,0.1,0.1v0h0c0,0,0,0,0,0v0h0c0,0,0.1,0.1,0.1,0.1
	c-0.1-0.5,0-1.1,0.4-1.3h0v0c0.1-0.1,0.3-0.1,0.4-0.1v0l0,0c0,0,0.1,0,0.1,0v0h0c0.1,0,0.2,0.1,0.3,0.2v0h0c0,0.1,0.1,0.1,0.1,0.2
	c-0.1-0.2-0.1-0.5-0.1-0.8h0v0c0-0.1,0-0.1,0-0.2l0,0v0c0,0,0-0.1,0-0.1h0v0c0-0.1,0-0.1,0.1-0.2h0v0c0.1-0.1,0.1-0.2,0.2-0.2h0v0
	c0.1,0,0.2,0,0.2,0v0h0c0,0,0.1,0,0.1,0.1l0,0c0,0,0,0,0,0v0h0l0,0v0h0c0,0,0,0,0.1,0.1c0,0,0-0.1,0-0.1v0l0,0c0-0.1,0-0.1,0-0.2
	v-0.1h0c0-0.1,0-0.1,0-0.2h0v0c0-0.2,0.1-0.4,0.2-0.5h0v0c0,0,0.1-0.1,0.1-0.1l0,0v0c0,0,0.1-0.1,0.1-0.1h0v0c0,0,0.1,0,0.1,0h0.1
	c0.1,0,0.1,0,0.2,0.1v0h0c0,0,0.1,0.1,0.1,0.1c0-0.1,0-0.2,0-0.3l0,0v0c0-0.1,0-0.2,0-0.3v0c0-0.1,0-0.2,0.1-0.2l0,0v0
	c0,0,0-0.1,0-0.1l0,0l0,0c0-0.1,0.1-0.1,0.2-0.2h0v0c0,0,0,0,0,0c0,0,0,0,0,0c0,0,0,0,0,0h0c0,0,0.1,0,0.1,0h0.1v0c0,0,0.1,0,0.1,0
	v0h0c0,0,0.1,0,0.1,0v0h0c0,0,0,0,0.1,0l0,0l0,0c0.1,0.1,0.2,0.2,0.3,0.4l0-0.1l0,0v0c0-0.1,0-0.1,0-0.2h0v0c0-0.1,0-0.1,0-0.2h0v0
	c0-0.1,0-0.1,0-0.2c0,0,0,0,0,0c0,0,0,0,0,0c0,0,0,0,0,0c0.2-0.8,0.6-1,1-0.8l0,0l0,0c0.2,0.1,0.4,0.3,0.5,0.5v0l0,0
	c0.1,0.2,0.2,0.5,0.2,0.8c0.1-0.2,0.2-0.5,0.3-0.6l0,0v0c0.1-0.1,0.2-0.2,0.2-0.3l0,0v0c0.1-0.1,0.1-0.1,0.2-0.2h0v0l0,0h0v0
	c0.1,0,0.1-0.1,0.2-0.1h0v0c0.1-0.1,0.2-0.1,0.2-0.1h0v0c0.1,0,0.1,0,0.2,0h0.1v0c0,0,0.1,0,0.1,0v0l0,0c0.1,0,0.2,0.1,0.2,0.1v0
	c0,0,0.1,0.1,0.1,0.1v0h0c0.1,0.2,0.1,0.6-0.1,1l0,0v0c0,0.1-0.1,0.2-0.2,0.3h0v0c-0.1,0.1-0.2,0.3-0.3,0.4h0v0
	c0,0.1-0.1,0.1-0.1,0.2c0.1,0,0.2-0.1,0.2-0.1h0v0c0.1,0,0.2-0.1,0.2-0.1h0v0c0,0,0.1,0,0.1,0h0v0c0.1,0,0.2,0,0.2,0h0.1v0
	c0,0,0.1,0,0.1,0v0h0c0.1,0,0.2,0,0.3,0.1v0h0c0.1,0.1,0.2,0.2,0.2,0.4v0.1c0,0.2-0.1,0.5-0.4,0.8l0,0h0v0l0,0h0v0l0,0h0v0l0,0h0v0
	c-0.1,0.1-0.2,0.1-0.2,0.2h0l0,0c-0.1,0.1-0.2,0.1-0.2,0.2l0,0l0,0c-0.1,0.1-0.3,0.1-0.4,0.2h0v0c-0.1,0-0.1,0.1-0.2,0.1h0v0
	c0,0-0.1,0-0.1,0h0l0,0c-0.1,0-0.2,0.1-0.3,0.1c0,0,0.1,0,0.1,0v0H77c0.1,0,0.2,0,0.2,0v0h0.1c0.1,0,0.2,0,0.3,0.1v0h0
	c0,0,0,0,0.1,0v0h0c0.2,0.1,0.3,0.2,0.4,0.4v0.1h0c0,0,0,0.1,0,0.1v0h0c0,0,0,0.1,0,0.1h0v0c0,0,0,0.1,0,0.1h0v0
	c0,0.1-0.1,0.1-0.1,0.2h0c0,0,0,0,0,0h0v0c0,0-0.1,0.1-0.2,0.1h0v0c0,0,0,0-0.1,0h0v0c0,0,0,0-0.1,0h0v0c-0.1,0.1-0.3,0.1-0.4,0.1
	h-0.1v0c-0.1,0-0.2,0-0.2,0c0,0,0.1,0.1,0.1,0.1v0h0c0.1,0.1,0.1,0.1,0.2,0.2v0h0c0,0,0.1,0.1,0.1,0.1v0h0c0.2,0.4-0.2,0.6-0.7,0.7
	h0c-0.2,0-0.5,0-0.7,0v0h0c-0.1,0-0.2,0-0.3-0.1c0.1,0,0.2,0.1,0.3,0.2v0h0c0,0,0,0,0,0v0h0c0,0,0,0,0,0v0h0
	c0.1,0.1,0.2,0.2,0.2,0.4v0h0c0,0.1,0,0.1,0,0.2v0.1c0,0.2-0.1,0.4-0.4,0.5h0v0l0,0c-0.1,0-0.1,0-0.2,0h-0.1v0c-0.1,0-0.2,0-0.4,0v0
	H75c-0.2,0-0.4-0.1-0.5-0.1c-0.6-0.2-1.2-0.6-1.8-0.8c0,0,0,0,0,0c-0.1-0.1-0.3-0.1-0.4-0.2l-0.1,0c-0.2,0.2-0.5,0.4-0.7,0.5
	c0,0,0.1,0,0.1,0h0v0c0.1,0,0.2,0,0.3,0h0v0c0.3,0,0.6,0,0.8,0v0h0.1c0.2,0,0.3,0,0.5,0.1v0h0c0.5,0.1,0.9,0.3,1.2,0.6v0l0,0
	c0,0,0,0,0,0v0h0c0,0,0,0,0,0v0h0c0,0,0,0,0,0v0l0,0c0.1,0.1,0.2,0.3,0.2,0.4v0.1c0,0.1,0,0.2-0.1,0.3h0v0c-0.1,0.1-0.3,0.2-0.5,0.2
	h0v0c-0.2,0-0.5,0-0.8,0c0,0,0,0,0,0c-0.1,0-0.2,0-0.3-0.1c0,0,0.1,0.1,0.1,0.1v0h0l0,0v0h0c0,0,0,0,0,0l0,0
	c0.1,0.1,0.1,0.2,0.1,0.2v0h0c0,0.1,0,0.1,0,0.2h0v0c0,0,0,0.1,0,0.1h0v0c-0.1,0.1-0.2,0.2-0.4,0.3h0v0c0,0-0.1,0-0.1,0h0v0
	c-0.3,0.1-0.6,0-0.9-0.1c0,0,0.1,0.1,0.1,0.1v0h0c0,0,0,0,0,0v0l0,0c0.1,0.1,0.1,0.2,0.1,0.2v0.1h0c0,0,0,0.1,0,0.1h0v0
	c0,0,0,0,0,0.1h0v0c0,0,0,0.1-0.1,0.1h0v0c-0.1,0.1-0.2,0.1-0.3,0.2h0v0c-0.2,0.1-0.5,0.1-0.7,0v0h0c-0.1,0-0.2-0.1-0.3-0.1
	c0,0.1,0.1,0.1,0.1,0.1v0h0c0,0,0,0.1,0,0.1v0l0,0c0.1,0.1,0,0.3,0,0.4h0v0c-0.1,0.1-0.2,0.2-0.4,0.2h0v0c0,0-0.1,0-0.1,0h0v0
	c-0.1,0-0.2,0-0.2,0h0v0c-0.1,0-0.2,0-0.3,0v0h-0.1c-0.1,0-0.2,0-0.2,0v0h0c0,0-0.1,0-0.1,0c0,0,0,0,0,0.1v0l0,0c0,0,0,0.1,0,0.1v0
	h0c0.1,0.1,0,0.2,0,0.3h0v0c-0.1,0.1-0.2,0.2-0.4,0.2h0v0c-0.2,0-0.5,0-0.7-0.1c0.1,0.1,0.2,0.3,0.2,0.4h0v0c0,0.1-0.1,0.1-0.2,0.2
	l0,0c0,0,0,0,0,0c0,0,0,0,0,0c-0.2,0-0.3,0-0.5,0v0h0c-0.1,0-0.2,0-0.3-0.1v0h0c-0.1,0-0.2-0.1-0.3-0.2v0h0c-0.1,0-0.2-0.1-0.2-0.2
	v0h0c-0.1,0-0.1-0.1-0.2-0.1c-0.2-0.2-0.5-0.4-0.7-0.6l-0.3,0.2h0v0l-0.1,0.1h0v0l-0.1,0.1l0,0v0l-0.1,0.1l0,0l0,0l-0.1,0.1h0v0
	l-0.1,0.1l0,0l-0.1,0.1l0,0v0L65,24h0c-0.4,0.3-0.8,0.5-1.2,0.8h0v0l-0.1,0.1h0v0L63.6,25h0v0L63.4,25h0v0l-0.1,0.1h0v0l-0.1,0.1h0
	v0l-0.1,0.1h0v0l-0.1,0.1l0,0l0,0l-0.1,0.1c-0.3,0.2-0.7,0.5-1,0.7h0l-0.7,0.4h0v0L61,26.7l0,0v0L60.5,27h0v0L60.4,27h0v0l-0.1,0.1
	h0v0l-0.2,0.1h0v0L60,27.3h0v0l-0.1,0.1h0v0l-0.1,0.1h0v0l-0.1,0.1l0,0l-0.1,0h0v0l-0.1,0.1h0v0l-0.1,0.1h0v0l-0.1,0.1h0v0L59,28h0
	v0l-0.1,0.1h0v0l-0.1,0.1h0v0l-0.1,0.1l-0.1,0h0v0l-0.1,0.1h0v0l-0.1,0.1h0v0l-0.1,0.1l-0.2,0.1h0v0l-0.1,0.1h0v0L57.4,29l0,0v0
	c-0.3,0.2-0.6,0.4-1,0.6h0v0l-0.3,0.2h0v0l-0.2,0.1h0v0L55.7,30h0v0l-0.1,0h0v0l-0.1,0.1h0v0l-0.1,0.1h0v0l-0.1,0h0v0l-0.1,0.1h0v0
	l-0.1,0h0v0l0,0l0,0v0l-0.1,0h0v0l-0.1,0.1h0v0l-0.1,0h0v0l-0.1,0.1h0v0l-0.1,0h0v0l0,0l-0.1,0h0v0l-0.1,0.1h0v0l-0.1,0h0v0L54.2,31
	h0v0l-0.1,0h0v0L54,31.1h0v0l-0.1,0h0v0l0,0l0,0l-0.1,0h0v0l-0.1,0.1h0v0l-0.1,0h0v0l-0.1,0.1h0v0l-0.1,0h0v0l-0.1,0.1h0v0l-0.1,0
	L53.3,30.9z M44.3,23.3L44.3,23.3c0.9-1.5,1.8-2.9,2.6-4.4c-0.3-0.1-0.5-0.2-0.8-0.4v0h0c0,0-0.1,0-0.1-0.1v0h0c0,0-0.1,0-0.1-0.1v0
	l0,0c-0.1,0-0.1-0.1-0.2-0.1v0h0l0,0v0h0c0,0,0,0,0,0v0h0c0,0,0-0.1-0.1-0.1c-0.1-0.1-0.1-0.2-0.1-0.3v-0.1c0-0.1,0-0.2,0.1-0.2
	c0-0.1,0.1-0.1,0.2-0.1h0v0c0.1,0,0.1,0,0.2,0c-0.1-0.2-0.2-0.5-0.2-0.7h0v0c0-0.1,0.1-0.2,0.2-0.2l0,0l0,0c0,0,0,0,0.1,0
	c0,0-0.1-0.1-0.1-0.1v0h0c0,0-0.1-0.1-0.1-0.1v0l0,0c-0.1-0.3-0.1-0.6,0.1-0.7h0v0c0,0,0,0,0.1,0h0v0c0.1,0,0.2,0,0.4,0v0h0
	c0,0,0.1,0.1,0.1,0.1c-0.1-0.1-0.1-0.2-0.2-0.3l0,0h0c0-0.1-0.1-0.2-0.1-0.3v0h0c0-0.2,0-0.4,0-0.5h0v0c0-0.1,0-0.1,0.1-0.1h0v0
	c0,0,0,0,0,0h0v0c0,0,0.1,0,0.1,0h0.1c0,0,0.1,0,0.1,0v0h0c0,0,0,0,0.1,0v0h0c0,0,0.1,0.1,0.1,0.1c-0.2-0.3-0.4-1.1,0-1.2h0v0
	c0,0,0.1,0,0.1,0v0h0.1c0,0,0,0,0.1,0c0,0,0-0.1-0.1-0.1v0h0c-0.2-0.3-0.2-0.7-0.2-0.9h0v0c0-0.1,0.1-0.2,0.1-0.2h0v0c0,0,0,0,0.1,0
	h0.2c0,0,0.1,0,0.1,0v0h0c0,0,0,0,0.1,0v0h0c0,0,0.1,0,0.1,0.1c-0.1-0.1-0.2-0.3-0.2-0.4v0l0,0c0-0.1,0-0.2,0-0.2v0h0
	c0,0,0-0.1,0-0.1h0v-0.1c0-0.1,0-0.2,0.1-0.3h0v0c0,0,0-0.1,0.1-0.1h0v0c0,0,0.1-0.1,0.1-0.1h0.1v0c0,0,0.1,0,0.1,0h0c0,0,0,0,0.1,0
	v0h0c0,0,0.1,0,0.1,0.1c0,0-0.1-0.1-0.1-0.2v0h0c0,0-0.1-0.1-0.1-0.1v0h0c0,0,0,0,0-0.1v0h0c0,0,0-0.1,0-0.1l0,0l0,0
	c0,0,0-0.1,0-0.1v0h0c0-0.1-0.1-0.3-0.1-0.4V9.6h0l0,0l0,0c0-0.1,0-0.1,0-0.2h0v0c0-0.1,0-0.1,0.1-0.1h0v0c0,0,0.1-0.1,0.1-0.1h0v0
	c0,0,0,0,0.1,0h0v0c0.1,0,0.1,0,0.2,0h0.1c0.1,0,0.1,0,0.2,0c-0.1-0.1-0.1-0.1-0.1-0.2v0h0c0,0,0-0.1,0-0.1v0h0
	c0-0.1-0.1-0.2-0.1-0.3v0h0c0-0.1,0-0.1,0-0.2l0,0v0c0-0.1,0.1-0.2,0.2-0.3h0v0c0.1,0,0.3,0,0.6,0.1v0h0c0,0,0.1,0,0.1,0
	c0,0,0-0.1-0.1-0.1v0h0c-0.1-0.3-0.2-0.8-0.1-1.1h0v0c0-0.1,0.1-0.2,0.1-0.2h0v0c0,0,0,0,0,0h0v0c0,0,0.1,0,0.1,0h0.1
	c0.1,0,0.2,0,0.3,0.1v0h0c0,0,0,0,0.1,0v0h0c0,0,0.1,0,0.1,0.1c0,0,0-0.1-0.1-0.1v0h0c0,0,0-0.1,0-0.1v0l0,0
	c-0.1-0.1-0.1-0.2-0.1-0.4v0h0c0-0.2,0-0.4,0-0.5h0v0c0,0,0,0,0-0.1h0v0c0-0.1,0.1-0.1,0.2-0.1h0v0c0,0,0.1,0,0.1,0H50
	c0.1,0,0.1,0,0.2,0v0l0,0c0,0,0.1,0,0.1,0v0h0c0,0,0,0,0.1,0v0h0c0.1,0,0.1,0.1,0.2,0.1v0h0c0.1,0.1,0.2,0.1,0.3,0.2
	c-0.2-0.5-0.3-0.9-0.2-1.2h0v0c0-0.2,0.1-0.3,0.3-0.3h0v0c0.2-0.1,0.4,0,0.6,0.2l0,0c0.1,0.1,0.2,0.2,0.3,0.3v0h0
	C51.9,4.9,52,5,52,5.1v0h0c0,0.1,0.1,0.2,0.1,0.2v0c0,0.1,0.1,0.1,0.1,0.2c0-0.3,0-0.5,0-0.8h0v0c0-0.1,0-0.2,0-0.2h0v0
	c0-0.1,0-0.2,0.1-0.3h0v0c0,0,0-0.1,0-0.1h0v0c0-0.1,0.1-0.1,0.1-0.2h0v0c0,0,0-0.1,0-0.1h0v0c0,0,0,0,0-0.1h0v0
	c0.1-0.3,0.3-0.5,0.5-0.6l0,0v0c0.1,0,0.1-0.1,0.2-0.1h0.2c0,0,0.1,0,0.1,0.1l0,0c0,0,0.1,0.1,0.1,0.1v0h0c0,0,0,0.1,0,0.1v0l0,0
	c0,0,0,0.1,0,0.1v0h0c0,0.2,0,0.5,0,0.8h0v0c0,0.1,0,0.2,0,0.3v0c0,0.1,0,0.1,0,0.2v0c0,0.1,0,0.1,0,0.2h0v0c0,0.1,0,0.1,0,0.2
	C53.6,5,53.7,5,53.8,4.9h0v0c0.1-0.1,0.3-0.2,0.4-0.2h0v0c0.1,0,0.1,0,0.2,0h0.1c0,0,0.1,0,0.1,0v0h0c0.1,0,0.1,0.1,0.2,0.2v0h0
	c0,0.1,0,0.1,0,0.2v0c0,0,0,0.1,0,0.1l0,0v0c0,0.1,0,0.2,0,0.3h0v0c0,0.1-0.1,0.3-0.2,0.4c-0.1,0.3-0.3,0.5-0.6,0.8h0v0l0,0h0v0l0,0
	l0,0v0c-0.1,0.1-0.3,0.2-0.4,0.3c0.3-0.2,0.7-0.4,1-0.6h0v0c0,0,0,0,0.1,0h0v0c0.1,0,0.1-0.1,0.2-0.1h0v0c0,0,0.1,0,0.1,0h0.1v0
	c0,0,0.1,0,0.1,0l0,0v0l0,0c0,0,0.1,0,0.1,0v0h0c0,0,0,0,0.1,0v0h0c0,0,0.1,0.1,0.1,0.1v0h0c0.1,0.1,0.1,0.3,0,0.4l0,0v0
	c0,0,0,0,0,0.1l0,0l0,0c0,0,0,0.1-0.1,0.1c-0.1,0.1-0.3,0.3-0.4,0.4h0v0c0,0-0.1,0.1-0.1,0.1h0v0c0,0-0.1,0-0.1,0c0.1,0,0.2,0,0.2,0
	v0H55c0.1,0,0.1,0,0.2,0.1v0h0c0,0,0.1,0.1,0.1,0.1v0h0c0,0,0.1,0.1,0.1,0.1v0h0c0,0.1,0,0.2,0,0.3h0v0c0,0,0,0,0,0.1h0v0
	c-0.1,0.1-0.2,0.2-0.3,0.3l0,0l0,0c-0.1,0-0.1,0.1-0.2,0.1h0v0c-0.1,0-0.1,0.1-0.2,0.1h0v0c-0.1,0-0.1,0-0.2,0c0,0,0.1,0,0.1,0v0h0
	c0,0,0,0,0.1,0c0,0,0.1,0.1,0.1,0.1v0h0c0.1,0.2,0.1,0.3,0,0.5l0,0v0c0,0,0,0.1-0.1,0.1h0v0c-0.1,0.1-0.2,0.2-0.3,0.3l0,0
	c-0.1,0.1-0.3,0.2-0.4,0.2c0.1,0,0.2,0.1,0.3,0.1v0h0c0,0,0,0,0,0c0.1,0.1,0,0.2,0,0.3h0v0c-0.2,0.2-0.5,0.5-0.8,0.5
	c0,0,0.1,0,0.1,0v0h0c0,0,0,0,0.1,0v0h0c0.1,0,0.1,0.1,0.2,0.1v0h0c0,0,0,0,0,0l0,0l0,0c0.1,0.3-0.1,0.6-0.4,0.8h0v0
	c-0.1,0.1-0.2,0.1-0.3,0.2l0,0c-0.2,0.1-0.3,0.1-0.5,0.1c0.1,0.1,0.1,0.1,0.1,0.2v0l0,0c0,0,0,0.1,0,0.1V13h0c0,0,0,0.1,0,0.1v0
	c0,0.1-0.1,0.3-0.3,0.4h0v0c0,0-0.1,0.1-0.1,0.1l0,0l0,0c-0.2,0.1-0.4,0.2-0.5,0.2c0,0,0,0,0.1,0v0h0c0,0,0,0,0.1,0v0h0
	c0.2,0.1,0.2,0.3,0.1,0.4l0,0v0c0,0,0,0.1,0,0.1l0,0c-0.1,0.1-0.2,0.3-0.4,0.4c-0.1,0-0.1,0.1-0.2,0.1h0v0c0,0-0.1,0-0.1,0
	c0,0,0.1,0,0.1,0v0h0c0,0,0.1,0,0.1,0v0h0c0.6,0.2,0.2,0.8-0.3,1h0v0c0,0,0,0-0.1,0h0v0c-0.1,0-0.2,0.1-0.3,0.1h0v0c0,0-0.1,0-0.1,0
	C51,16,51,16.1,51,16.2v0h0c0,0,0,0.1,0,0.1h0v0c0,0.1-0.1,0.2-0.2,0.3h0v0c-0.1,0.1-0.3,0.2-0.5,0.3c0,0,0,0.1,0.1,0.1l0,0h0
	c0,0,0,0.1,0,0.1v0.1h0c0,0.1-0.1,0.3-0.2,0.4l0,0v0c0,0,0,0,0,0h0v0c-0.1,0.1-0.3,0.2-0.4,0.2h0v0c0,0-0.1,0-0.1,0
	c1.1,0.6-0.7,1.1-1.3,0.9c0.1,0,0.2,0.1,0.3,0.1v0l0,0c0.1,0,0.1,0.1,0.2,0.1v0l0,0c0.1,0.1,0.1,0.1,0.2,0.2v0l0,0c0,0,0,0.1,0,0.1
	v0.1c0,0.1-0.1,0.2-0.4,0.3c0,0-0.1,0-0.1,0h-0.3c-0.1,0-0.1,0-0.2,0v0h0c-0.1,0-0.2,0-0.3-0.1v0h0c-0.1,0-0.1-0.1-0.2-0.1l0,0
	c-0.1,0-0.1-0.1-0.2-0.1v0l0,0c-0.1,0-0.2-0.1-0.3-0.1c-0.1,0.1-0.1,0.3-0.2,0.4h0v0l0,0.1h0v0l0,0.1h0v0l0,0.1v0l0,0h0v0l0,0h0v0
	l0,0.1h0v0l0,0.1h0v0l0,0.1l0,0v0l0,0h0v0l0,0h0v0l0,0.1h0v0l0,0.1h0v0l0,0h0v0l0,0h0v0l0,0.1h0v0l0,0.1v0l-0.1,0.1h0v0l0,0.1h0v0
	l-0.1,0.2h0v0c-0.2,0.3-0.4,0.7-0.6,1l0,0v0l-0.1,0.2l0,0v0L45,22.9h0v0l-0.2,0.3h-0.4L44.3,23.3z M36,37c0.3-0.4,0.6-0.9,0.9-1.3
	c0,0,0,0,0,0.1c0,0,0,0,0-0.1c0,0,0,0,0,0c0.2-0.3,0.3-0.6,0.5-0.8c0,0,0,0,0,0.1c0,0,0-0.1,0.1-0.1c0,0,0,0,0,0
	c0.7-1.2,1.5-2.5,2.2-3.8l0.5-0.9l0,0c0.2-0.4,0.4-0.7,0.6-1.1v0l0.1-0.2l0,0v0l0.1-0.2l0,0v0l0.1-0.2h0v0l0.1-0.2h0v0l0.1-0.2l0,0
	v0l0.1-0.2h0v0l0.1-0.2l0,0v0l0.1-0.2l0,0v0l0.1-0.2c0.1-0.2,0.2-0.4,0.3-0.5h0v0l0.1-0.2l0,0v0l0.3-0.5v0c0,0.3,0,0.6,0,0.8
	l-0.3,0.6c0,0,0,0,0-0.1c-0.4,0.8-0.9,1.5-1.3,2.3v0c-0.2,0.4-0.5,0.8-0.7,1.2v0c-0.2,0.3-0.3,0.6-0.5,0.9l0,0v0l-0.1,0.2l0,0v0
	c-0.4,0.6-0.7,1.2-1.1,1.8h0v0l-0.1,0.2h0v0c-0.1,0.2-0.3,0.5-0.4,0.7l0,0v0c-0.1,0.2-0.2,0.4-0.3,0.5l0,0l0,0l-0.2,0.3h0v0
	l-0.2,0.3h0v0l-0.2,0.3l0,0v0l-0.5,0.8C36.4,37,36.2,37,36,37z M17.6,50.4l-0.5,0.2h0v0l-0.3,0.1h0v0l-0.2,0.1h0v0l-0.3,0.1h0v0
	L16.1,51h0v0l-0.3,0.1h0v0l-0.2,0.1h0v0c-0.5,0.2-1.1,0.4-1.6,0.6h0v0l-0.2,0.1h0v0L13.6,52h0v0l-0.2,0.1h0v0l-0.3,0.1h0v0l-0.2,0.1
	h0v0c-0.3,0.1-0.6,0.2-0.8,0.3l-0.1,0h0v0l-0.3,0.1h0v0l-0.3,0.1h0v0l-0.1,0h0v0l-0.3,0.1h0l0,0l-0.1,0h0v0l-0.3,0.1h0v0
	c-0.2,0.1-0.4,0.1-0.5,0.2c-0.7,0.1-7,2.6-8.5,2.5l0,0h0c-0.1,0-0.1,0-0.2,0v0h0c-0.1-0.1-0.2-0.2-0.1-0.3c5.6-1.6,11-3.6,16.4-5.9
	L17.6,50.4z M14.6,62.1L14.6,62.1L14.6,62.1c-0.1,0-0.1,0-0.1,0v0h0c-0.1,0-0.1-0.1-0.1-0.1c0,0,0,0,0-0.1h0v0
	c0.1-0.1,0.4-0.4,0.7-0.7h0l0,0c0.6-0.6,1.5-1.4,2.2-2l1.1-1.1l0.1,0.8l-0.5,0.5c-1,0.9-2,1.8-2.6,2.4l0,0l0,0
	c-0.1,0.1-0.3,0.2-0.4,0.3c0,0,0,0,0,0h0v0c0,0,0,0-0.1,0h0v0c0,0-0.1,0-0.1,0h0v0C14.8,62.1,14.7,62.1,14.6,62.1z"/>
<polyline class="st0" points="71.6,21.6 71.6,21.6 71.6,21.6 71.6,21.6 "/>
<polyline class="st0" points="69,20.4 69,20.4 69,20.4 69,20.4 "/>
<path class="st0" d="M70.9,24.3C70.9,24.3,70.9,24.3,70.9,24.3C70.9,24.3,70.9,24.3,70.9,24.3C70.9,24.3,70.9,24.3,70.9,24.3"/>
<polyline class="st0" points="65.9,26.8 65.9,26.8 65.9,26.8 65.9,26.8 "/>
<polyline class="st0" points="67.8,27.9 67.8,27.9 67.8,27.9 "/>
<path class="st0" d="M67.5,27.6C67.5,27.6,67.5,27.6,67.5,27.6C67.5,27.6,67.5,27.6,67.5,27.6z"/>
<path class="st0" d="M67.8,27.9C67.8,27.9,67.8,27.9,67.8,27.9C67.8,27.9,67.8,27.9,67.8,27.9"/>
<polyline class="st0" points="67.1,28 67.1,28 67.1,28 67.1,28 "/>
<polyline class="st0" points="50.5,15.2 50.5,15.2 50.5,15.2 50.5,15.2 "/>
<path class="st0" d="M48,18.4C48,18.4,48,18.4,48,18.4C48,18.4,48,18.4,48,18.4C48,18.4,48,18.4,48,18.4"/>
<polyline class="st0" points="47.5,18.6 47.5,18.6 47.5,18.6 "/>
<polyline class="st0" points="45.8,19.8 45.8,19.9 45.8,19.8 "/>
<polyline class="st0" points="45.8,19.9 45.8,19.9 45.8,19.9 "/>
<path class="st0" d="M46,22C46,22,46,22,46,22C46,22,46,22,46,22"/>
<polyline class="st0" points="45.2,22.7 45.3,22.7 45.2,22.7 45.2,22.7 "/>
<polyline class="st0" points="50.9,16.7 50.9,16.7 50.9,16.7 50.9,16.7 "/>
<polyline class="st0" points="50.7,18.5 50.7,18.5 50.7,18.5 50.7,18.5 "/>
<path class="st0" d="M49.4,18.8C49.4,18.8,49.4,18.8,49.4,18.8C49.4,18.8,49.4,18.8,49.4,18.8"/>
<polyline class="st0" points="47.3,21.5 47.3,21.5 47.3,21.5 47.3,21.5 "/>
<polyline class="st0" points="46.9,24.5 46.9,24.5 46.9,24.5 46.9,24.5 "/>
<polyline class="st0" points="46,25.4 46,25.4 46,25.4 46,25.4 "/>
<polyline class="st0" points="44.2,26 44.3,26 44.2,26 44.2,26 "/>
<polyline class="st0" points="44.4,26.1 44.4,26.1 44.4,26.1 "/>
<path class="st0" d="M43.8,24.7C43.8,24.7,43.8,24.7,43.8,24.7C43.8,24.7,43.8,24.7,43.8,24.7C43.8,24.7,43.8,24.7,43.8,24.7"/>
<polyline class="st0" points="43.1,25.6 43,25.6 43.1,25.6 43.1,25.6 "/>
<line class="st0" x1="43.5" y1="26.1" x2="43.5" y2="26.1"/>
<polyline class="st0" points="43.6,25.6 43.6,25.6 43.6,25.6 43.6,25.6 "/>
<polyline class="st0" points="61.8,28.1 61.8,28.1 61.8,28.1 61.8,28.1 "/>
<polyline class="st0" points="61.1,29.8 61.1,29.8 61.1,29.8 61.1,29.8 "/>
<path class="st0" d="M64.2,30.9C64.2,30.9,64.2,30.9,64.2,30.9C64.2,30.9,64.2,30.9,64.2,30.9"/>
<polyline class="st0" points="70.6,21.7 70.6,21.7 70.6,21.7 70.6,21.7 "/>
<polyline class="st0" points="69.2,21.3 69.2,21.3 69.2,21.3 69.2,21.3 "/>
<polyline class="st0" points="63.4,26 63.4,26 63.4,26 63.4,26 "/>
<polyline class="st0" points="61.1,29.9 61.1,29.9 61.1,29.9 "/>
<polyline class="st0" points="63.7,30.4 63.7,30.4 63.7,30.4 63.7,30.4 "/>
<polyline class="st0" points="46.9,16.8 46.9,16.8 47,16.8 46.9,16.8 "/>
<polyline class="st0" points="46.2,17.6 46.2,17.6 46.2,17.6 46.2,17.6 "/>
<polyline class="st0" points="46.8,20.3 46.8,20.3 46.8,20.3 46.8,20.3 "/>
<polyline class="st0" points="45.7,22.4 45.7,22.4 45.7,22.4 45.7,22.4 "/>
<polyline class="st0" points="45.7,22.4 45.7,22.4 45.7,22.4 "/>
<polyline class="st0" points="44.7,26.6 44.7,26.6 44.7,26.6 44.7,26.6 "/>
<polyline class="st0" points="47.1,21.9 47.1,21.9 47.1,21.9 47.1,21.9 "/>
<polyline class="st0" points="50.4,19.2 50.4,19.2 50.4,19.2 50.4,19.2 "/>
<polygon class="st0" points="9.3,50 9.1,50 9.1,15.3 42,15.3 42,15.6 9.3,15.6 "/>
<polygon class="st0" points="62.3,68.9 9.1,68.9 9.1,57.1 9.3,57.1 9.3,68.6 62,68.6 62,30.5 62.3,30.5 "/>
<polygon class="st0" points="62.3,21.8 62,21.8 62,15.6 54.6,15.6 54.6,15.3 62.3,15.3 "/>
<path class="st0" d="M34.8,65.4c-0.5,0-1.1-0.1-1.6-0.1C30,65.1,27,64.6,24,63.7c-0.8-0.2-1.5-0.5-2.2-0.9c-0.6-0.4-1-0.9-1.2-1.6
	c-0.5-2.6-0.8-5.3-1.1-8c-0.1-1.4-0.3-2.8-0.5-4.2c-0.1-1,0.2-1.8,0.8-2.5c0.5-0.6,1.2-1.1,1.9-1.5c0.2-0.1,0.3-0.2,0.1-0.5
	c-0.8-1.5-1.1-3.1-1.2-4.8c0-0.8,0.4-1.2,1.2-1.1c1.4,0.1,2.8,0.2,4.2,0.6c0.3,0.1,0.5,0,0.6-0.3c0.5-1.3,1.4-2.5,2.4-3.5
	c0.5-0.5,0.9-0.5,1.5,0c1.1,1,1.9,2.2,2.5,3.5c0.1,0.3,0.2,0.4,0.5,0.3c1.4-0.4,2.8-0.5,4.2-0.6c0.8,0,1.2,0.3,1.2,1.2
	c0,0.6,0,1.1-0.1,1.7c0,0.3,0,0.4,0.3,0.4c0.9,0.1,1,0.1,1.2-0.8c0.2-1.1,0.8-2.1,1.2-3.1c1.4-3.2,2.3-6.5,2.7-9.9
	c0.1-0.6,0.1-1.3,0.1-1.9c0-0.5,0.2-0.8,0.6-1.1c0.2,0,0.4,0,0.6,0c0.4,0.2,0.6,0.6,0.6,1.1c0,0.9-0.1,1.8-0.2,2.7
	c-0.4,3.3-1.3,6.5-2.7,9.6c-0.5,1.3-1.2,2.5-1.4,3.9c-0.2,1.2-0.5,2.5-0.8,3.7c-0.3,1.5-1.2,2.6-2.5,3.3c-0.3,0.1-0.5,0.3-0.7,0.5
	c-0.1,0.1-0.2,0.2-0.2,0.4c0.1,0.2,0.2,0.1,0.4,0.1c1.1,0,2.2,0,3.2,0c0.5,0,0.9-0.1,1.2-0.5c0.2-0.2,0.3-0.3,0.5-0.5
	c0.8-1,1.5-2,2.2-3.1c0.7-1.1,1.4-2.2,2.4-3c0.7-0.6,1.5-1.1,2.2-1.6c0.6-0.4,1.1-1,1.2-1.7c0.1-1-0.1-2-0.6-2.9
	c-0.3-0.5-0.6-1-0.8-1.6c-0.4-1-0.2-1.9,0-2.9c0.4-2.3,0.9-4.5,1.5-6.8c0.1-0.4,0.3-0.7,0.6-0.9c0.2,0,0.5,0,0.7,0
	c0.5,0.3,0.6,0.8,0.4,1.4c-0.5,2.1-1,4.2-1.4,6.3C51,33.8,51.1,35,51.8,36c0.5,0.7,0.8,1.5,0.9,2.4c0.2,2-0.3,3.6-2,4.7
	c-0.1,0.1-0.3,0.2-0.4,0.3c0.7,0.3,1.4,0.5,2,0.8c1.1,0.5,2.2,1.2,3.1,2.2c0.6,0.7,0.9,1.6,0.8,2.5c-0.2,2.1-0.4,4.1-0.7,6.2
	c-0.3,2.1-0.5,4.1-1,6.2c-0.1,0.5-0.4,1-0.9,1.3c-0.8,0.6-1.7,0.9-2.7,1.2c-2.9,0.9-5.8,1.3-8.8,1.5c-0.5,0-1.1,0.1-1.6,0.1
	C38.6,65.4,36.7,65.4,34.8,65.4 M21.2,51.8c0.1,1,0.2,1.8,0.3,2.7c0.2,2,0.5,4,0.8,6c0.1,0.4,0.3,0.6,0.6,0.8
	c1.1,0.6,2.3,0.9,3.6,1.2c4.6,1,9.3,1.3,14,1.1c2.7-0.1,5.4-0.4,8-1.1c1.2-0.3,2.4-0.6,3.5-1.2c0.4-0.2,0.6-0.5,0.7-0.9
	c0.5-2.5,0.8-4.9,1.1-7.4c0-0.4,0.1-0.8,0.1-1.2c-1,0.7-2.1,1.2-3.3,1.6c-3.7,1.3-7.4,1.7-11.3,1.9c-2.8,0.1-5.6,0-8.3-0.4
	c-2.2-0.3-4.4-0.7-6.5-1.5C23.4,53.1,22.3,52.6,21.2,51.8z M38.4,53.6c1.2,0,3.1-0.1,5-0.3c2.4-0.3,4.7-0.7,6.9-1.5
	c1.2-0.4,2.4-1,3.3-1.8c0.9-0.8,1-1.7,0.1-2.6c-0.3-0.3-0.7-0.6-1.1-0.8c-1.2-0.7-2.4-1.2-3.7-1.5c-0.4-0.1-0.7,0-0.9,0.3
	c-0.6,0.6-1,1.4-1.4,2.1c-0.8,1.3-1.7,2.6-2.8,3.7c-0.7,0.7-1.5,1-2.4,1c-1.2,0-2.3,0-3.5,0c-0.5,0-1-0.1-1.4-0.5
	c-0.8-0.8-0.7-2.3,0.1-3.1c0.4-0.4,0.9-0.6,1.3-0.9c0.7-0.4,1.2-1,1.4-1.9c0.1-0.5,0.2-0.9,0.3-1.4c0.1-0.7,0.3-0.6-0.6-0.7
	c-0.6-0.1-0.9,0.1-1.1,0.7c-0.7,1.5-1.8,2.6-3.2,3.3c-1.2,0.6-2.4,0.9-3.8,1c-2.8,0.2-5.4-0.2-7.6-2.2c-0.1-0.1-0.2-0.2-0.4-0.1
	c-0.7,0.4-1.4,0.8-1.8,1.5c-0.4,0.5-0.4,1.1,0,1.7c0.4,0.6,0.9,0.9,1.5,1.3c1.3,0.8,2.7,1.3,4.1,1.6C30.3,53.2,34,53.6,38.4,53.6z
	 M27.9,41.9c0,1.8,0.6,3.2,1.8,4.4c0.2,0.2,0.3,0.2,0.5,0c0.3-0.3,0.6-0.7,0.8-1c1.6-2.5,1.1-5.7-0.8-7.9c-0.2-0.3-0.4-0.2-0.5,0
	C28.5,38.8,27.8,40.3,27.9,41.9z M26.1,42.1c0-0.3,0-0.6,0-0.8c0-0.2-0.1-0.3-0.3-0.4c-0.9-0.3-1.9-0.4-2.9-0.5
	c-0.3,0-0.3,0.1-0.3,0.4c0,0.3,0.1,0.6,0.2,0.9c0.5,2.4,1.9,4.1,4.3,4.8c0.1,0,0.2,0.1,0.3,0c0.1-0.1,0-0.2-0.1-0.3
	C26.5,44.9,26.1,43.6,26.1,42.1z M36.8,40.4c-0.9,0.1-1.9,0.2-2.8,0.5c-0.2,0.1-0.3,0.2-0.3,0.4c0.1,1.8-0.2,3.4-1.2,4.9
	c0,0.1-0.1,0.1-0.1,0.2c0.1,0.1,0.2,0,0.3,0c0.8-0.3,1.6-0.6,2.3-1.2c1.4-1.2,2-2.8,2.2-4.6C37.2,40.3,37,40.4,36.8,40.4z"/>
</svg>
