<?xml version="1.0" encoding="utf-8"?>
<!-- Generator: Adobe Illustrator 16.0.0, SVG Export Plug-In . SVG Version: 6.00 Build 0)  -->
<!DOCTYPE svg PUBLIC "-//W3C//DTD SVG 1.1//EN" "http://www.w3.org/Graphics/SVG/1.1/DTD/svg11.dtd">
<svg version="1.1" id="Capa_1" xmlns="http://www.w3.org/2000/svg" xmlns:xlink="http://www.w3.org/1999/xlink" x="0px" y="0px"
	 width="417px" height="417px" viewBox="0 0 417 417" style="enable-background:new 0 0 417 417;" xml:space="preserve">
<style type="text/css">
<![CDATA[
	.st0{opacity:0.5;fill-rule:evenodd;clip-rule:evenodd;fill:#FFFFFF;}
	.st1{fill-rule:evenodd;clip-rule:evenodd;fill:#FFFFFF;}
]]>
</style>
<path class="st1" d="M324.5,57.3C324.5,57.4,324.5,57.4,324.5,57.3C324.5,57.4,324.5,57.3,324.5,57.3
	C324.5,57.3,324.5,57.3,324.5,57.3"/>
<path class="st1" d="M315.4,43.6C315.4,43.6,315.4,43.7,315.4,43.6C315.4,43.6,315.4,43.6,315.4,43.6
	C315.4,43.6,315.4,43.6,315.4,43.6"/>
<path class="st1" d="M313.1,41.2C313.1,41.2,313.1,41.2,313.1,41.2C313.1,41.2,313,41.2,313.1,41.2C313,41.2,313,41.2,313.1,41.2"/>
<path class="st1" d="M308.3,160.5C308.3,160.5,308.3,160.5,308.3,160.5C308.3,160.5,308.3,160.5,308.3,160.5
	C308.3,160.5,308.3,160.5,308.3,160.5"/>
<path class="st1" d="M302.2,126.7C302.2,126.7,302.2,126.7,302.2,126.7C302.2,126.8,302.2,126.8,302.2,126.7
	C302.2,126.8,302.2,126.8,302.2,126.7"/>
<path class="st1" d="M293.1,137.1C293.1,137.2,293.1,137.2,293.1,137.1C293.1,137.1,293.1,137.1,293.1,137.1
	C293.1,137.1,293.1,137.1,293.1,137.1"/>
<path class="st1" d="M339.5,203.3C339.5,203.3,339.5,203.3,339.5,203.3C339.5,203.3,339.5,203.3,339.5,203.3z"/>
<path class="st1" d="M352.5,186.8C352.5,186.8,352.5,186.7,352.5,186.8C352.5,186.7,352.5,186.7,352.5,186.8
	C352.5,186.8,352.5,186.8,352.5,186.8"/>
<path class="st1" d="M354.2,179.8C354.2,179.8,354.2,179.8,354.2,179.8C354.2,179.8,354.2,179.8,354.2,179.8
	C354.2,179.8,354.2,179.8,354.2,179.8"/>
<path class="st1" d="M311.3,232.8C311.3,232.8,311.3,232.8,311.3,232.8C311.3,232.8,311.3,232.8,311.3,232.8
	C311.3,232.8,311.3,232.8,311.3,232.8"/>
<path class="st1" d="M314.3,41.3C314.3,41.3,314.3,41.3,314.3,41.3C314.3,41.2,314.3,41.2,314.3,41.3
	C314.3,41.2,314.3,41.3,314.3,41.3"/>
<path class="st1" d="M353.3,97.8C353.3,97.8,353.3,97.7,353.3,97.8c0-0.1,0-0.1,0-0.1C353.3,97.7,353.3,97.7,353.3,97.8"/>
<path class="st1" d="M324.4,57.3C324.4,57.3,324.4,57.3,324.4,57.3C324.4,57.3,324.4,57.3,324.4,57.3
	C324.4,57.3,324.4,57.3,324.4,57.3"/>
<path class="st1" d="M352.5,186.8C352.5,186.8,352.5,186.8,352.5,186.8C352.5,186.8,352.5,186.8,352.5,186.8
	C352.5,186.8,352.5,186.8,352.5,186.8"/>
<path class="st1" d="M332.3,82.2L332.3,82.2c0,0.1,0,0.2,0,0.2C332.3,82.4,332.3,82.3,332.3,82.2"/>
<polyline class="st1" points="303.8,32.9 303.8,32.9 303.8,32.9 303.8,32.9 "/>
<path class="st1" d="M308.9,187C308.9,187,308.9,187,308.9,187c0-0.1,0-0.1,0-0.2C308.9,186.9,308.9,187,308.9,187"/>
<path class="st1" d="M374.1,168.6C374.1,168.6,374.1,168.6,374.1,168.6C374.2,168.6,374.2,168.6,374.1,168.6
	C374.1,168.6,374.1,168.6,374.1,168.6"/>
<path class="st1" d="M332.3,94.5C332.3,94.5,332.3,94.5,332.3,94.5C332.3,94.5,332.3,94.5,332.3,94.5
	C332.3,94.5,332.3,94.5,332.3,94.5"/>
<path class="st1" d="M303.1,221.9C303.1,221.9,303.1,221.9,303.1,221.9C303.1,221.9,303.1,221.9,303.1,221.9
	C303.1,221.9,303.1,221.9,303.1,221.9"/>
<path class="st1" d="M338.5,128.9c-0.7-14.5,6-28,12.5-40.5l-0.6,4.5v0l0,0l-0.2,1.4v0h0c-2.7,18.8-5.4,37.7-9.4,56.3l-0.1-1l0,0v0
	c-0.1-0.6-0.1-1.2-0.2-1.8h0v-0.2l-0.2-1.9h0v-0.1l-0.2-1.8h0v-0.1l-0.2-1.8h0v-0.1l-0.2-1.8l0,0v0
	C339.2,136.3,338.8,132.6,338.5,128.9 M334.4,165.7c0.5-3,2.2-5.5,3.9-7.9c-0.6,1.4-1.3,2.9-1.9,4.3v0h0c-0.3,0.6-0.5,1.2-0.8,1.8v0
	h0c-0.4,1-0.9,1.9-1.3,2.9C334.3,166.4,334.3,166.1,334.4,165.7z M334.3,170.7c0.2-0.3,0.4-0.7,0.6-1v0h0l0.2-0.4v-0.1h0l0.2-0.3
	v-0.1h0.1l0.2-0.3v-0.1h0.1c0.3-0.5,0.5-1,0.8-1.4v0l0,0l0.2-0.4v0h0l0.2-0.4v0h0c0.4-0.7,0.7-1.4,1-2.2v-0.1h0l0.2-0.4v0h0
	c0.1-0.3,0.3-0.6,0.4-0.9v-0.1h0.1l0.2-0.4v0h0c0.1-0.3,0.3-0.6,0.4-1V161h0c0.4-0.9,0.7-1.7,1-2.6v0h0l0.2-0.5v-0.1h0l0.2-0.5v-0.1
	h0l0.2-0.5v-0.1h0l0.2-0.5v-0.1h0c0.3-1.1,0.7-2.1,1-3.2v-0.1h0c0.1-0.5,0.3-0.9,0.4-1.4v-0.1h0l0.2-0.7v-0.1h0c0.4-1.3,0.7-2.7,1-4
	v-0.1h0c0.1-0.6,0.3-1.2,0.4-1.8v0h0l0.2-0.9v-0.1h0c0.1-0.7,0.3-1.3,0.4-2v-0.1h0c0.1-0.7,0.3-1.4,0.4-2.2V139h0
	c0.3-1.6,0.6-3.3,0.8-4.9v0l0,0l0.2-1.4v-0.1h0c0.2-1.4,0.4-2.9,0.6-4.3v0c0.2-1.4,0.4-2.7,0.5-4.1c0.9-7.3,2.2-14.5,3.4-21.7v-0.1
	h0l0.2-1.2v0l0,0l0.2-1.4v-0.1h0l0.2-1.3v-0.1h0c0.1-1,0.3-1.9,0.4-2.9v-0.2h0c0.1-0.5,0.1-1,0.2-1.5v-0.4h0c0.1-0.5,0.1-1,0.2-1.5
	v-0.6h0.1c0-0.5,0.1-1,0.1-1.5v-0.4h0c0-0.5,0.1-1,0.1-1.6c0.2,1.9,0.3,3.8,0.4,5.7h0v0.1c0,0.5,0.1,1.1,0.1,1.6h0.1v0.5
	c0.1,0.4,0.1,0.9,0.2,1.3h0v0.1l0.1,0.5c0,0.2,0.1,0.4,0.1,0.6c0,0,0,0,0,0c0,1,0.1,2,0.2,2.9h0v0.4c0.1,1.4,0.2,2.8,0.4,4.3h0v0.1
	c0.1,0.6,0.1,1.2,0.2,1.7h0v0.1l0.2,1.7h0v0c1.4,12.2,3.3,24.4-0.7,36.2c-3.2,8.1-8.4,15.5-14.5,21.6c-0.3,0.2-0.6,0.4-0.9,0.6
	c0,0,0,0,0.1,0c-1.5,1-3,2-4.5,3C334.1,171,334.2,170.9,334.3,170.7z M328.9,86.9c-0.1-0.4-0.3-0.9-0.4-1.3l0,0v0l-0.1-0.4h-0.1V85
	l-0.2-0.4h0v-0.1l-0.2-0.5h0v0c-0.2-0.5-0.4-1-0.6-1.4h0v0l-0.2-0.4h0V82c-1.3-2.9-2.9-5.8-3.7-8.9c-0.4-2.9-0.8-5.9-1.2-8.9h0v-0.1
	c-0.1-0.9-0.3-1.7-0.4-2.6h0v0c-0.1-0.3-0.1-0.7-0.2-1h0v-0.1c-0.2-0.9-0.4-1.8-0.6-2.8h0v-0.1l-0.2-0.7h0v-0.1
	c-0.1-0.2-0.1-0.5-0.2-0.7h0v0c-0.3-1.2-0.7-2.5-1.2-3.7h0v0c-0.1-0.3-0.3-0.7-0.4-1l0,0v0l-0.2-0.4h0v-0.1l-0.2-0.4h0v-0.1
	l-0.2-0.3h0v-0.1l-0.2-0.3h0v-0.1l-0.2-0.3h0v-0.1c-0.1-0.2-0.3-0.5-0.4-0.7l0,0v0c-0.1-0.2-0.2-0.4-0.4-0.6h0v-0.1
	c-0.5-0.8-1-1.5-1.6-2.3c3.8,3.8,5.6,8.9,8.1,13.6c1.1,2.3,2.1,4.6,2.7,7.1c0-0.1,0-0.2,0-0.2c1.2,5.1,1.6,10.3,2.1,15.4h0v0
	c0.1,1.1,0.2,2.2,0.4,3.3h0v0.1c0.1,0.4,0.1,0.9,0.2,1.3h0v0.1c0.1,0.4,0.1,0.8,0.2,1.2C329,87.2,329,87.1,328.9,86.9z M330.5,85
	c-0.4-1.8-0.4-3.7-0.6-5.6h0v-0.1c0-0.4-0.1-0.8-0.1-1.1c-0.2-1.8-0.4-3.7-0.7-5.5h0v-0.1c-0.1-0.4-0.1-0.9-0.2-1.3h0v-0.1
	c-0.1-0.4-0.1-0.7-0.2-1.1h0v-0.2c-0.1-0.7-0.2-1.4-0.4-2.1h0v-0.2l-0.1-0.7h-0.1v-0.3c-0.1-0.2-0.1-0.5-0.2-0.7h0v-0.1
	c-0.1-0.2-0.1-0.5-0.2-0.7h0V65c-0.2-0.7-0.4-1.3-0.6-2h0v0l-0.1-0.4h-0.1v-0.2c-0.1-0.1-0.1-0.3-0.2-0.4h0v-0.1l-0.1-0.3h-0.1v-0.2
	l-0.1-0.2h-0.1v-0.3l-0.2-0.3H326v-0.1l-0.1-0.3h-0.1V60c-0.1-0.3-0.3-0.6-0.4-0.9c0,0,0,0,0,0c-0.3-0.6-0.6-1.1-0.9-1.7
	c0,0,0,0,0,0.1c0-0.1-0.1-0.1-0.1-0.2c-1.4-2.4-2.5-4.9-4-7.2h0v0c-0.5-0.8-1-1.7-1.6-2.5l0,0v0l-0.2-0.2h-0.1v-0.1
	c-0.3-0.3-0.5-0.6-0.8-1h0v0c-0.1-0.1-0.2-0.2-0.3-0.4c0,0,0,0,0,0c0,0-0.1-0.1-0.1-0.1c0,0,0,0,0,0c-0.2-0.2-0.3-0.3-0.5-0.5
	c0,0,0.1,0.1,0.1,0.1c-0.6-0.6-1.1-1.2-1.7-1.9c0,0,0,0,0,0c0,0-0.1-0.1-0.1-0.1c0,0,0,0,0,0c-0.7-0.8-1.5-1.6-2.3-2.4
	c0,0,0,0,0.1,0.1c0,0-0.1-0.1-0.1-0.1c0,0,0,0,0,0l-0.2-0.2h0v0l-0.1-0.2h-0.1v-0.1l-0.1-0.1h-0.1v-0.1l-0.1-0.1h-0.1v-0.1l-0.1-0.1
	H312V40l-0.1-0.1h-0.1v-0.1l-0.1-0.1h-0.1v-0.1c-1.1-1-2.3-1.9-3.5-2.8c1.3,0.8,2.5,1.7,3.7,2.6h0v0c0.3,0.2,0.7,0.5,1,0.7
	c0,0,0,0-0.1,0c0.5,0.4,1,0.7,1.6,1c10,5.9,13,17.4,15.7,28c0-0.1,0-0.2,0-0.2C331.1,74.2,330.8,79.7,330.5,85z M324.8,118.8
	c-0.1,0-0.1-0.1-0.2-0.1C324.7,118.8,324.7,118.8,324.8,118.8C324.8,118.9,324.8,118.9,324.8,118.8
	C324.8,118.9,324.8,118.9,324.8,118.8C324.8,118.9,324.8,118.9,324.8,118.8z M325.7,119.4c-12.4-8-22.7-21.8-20.5-37.2
	c0-1.6,0-3.2-0.2-4.8h0v-0.5c-0.2-2.1-0.4-4.2-0.5-6.3c0.5,1,1,2,1.5,3c0,0,0-0.1-0.1-0.1c0.2,0.5,0.4,1,0.7,1.5c0,0,0,0,0-0.1
	c0.4,0.8,0.8,1.6,1.2,2.4l0,0v0l0.2,0.4h0v0c1.8,3.6,3.6,7.1,3.8,11.2c0,0,0,0,0,0c0,0.4,0.1,0.8,0.1,1.2h0v0.5
	c0,0.4,0.1,0.8,0.2,1.2h0.1v0.4c0.1,0.7,0.2,1.4,0.4,2.1h0v0.1c0.1,0.2,0.1,0.5,0.2,0.7h0V95l0.2,0.6h0v0.2c0.1,0.5,0.3,1,0.4,1.4h0
	v0l0.2,0.6h0v0l0.2,0.6h0v0.1l0.2,0.6h0v0c0.2,0.5,0.4,1.1,0.6,1.6h0v0c0.1,0.3,0.3,0.7,0.4,1l0,0v0l0.2,0.4h0v0.1
	c0.3,0.6,0.5,1.2,0.8,1.8h0v0l0.2,0.4h0v0c0.2,0.4,0.4,0.8,0.6,1.2h0v0c0.3,0.6,0.7,1.2,1,1.8h0v0.1l0.2,0.4l0,0v0
	c0.4,0.7,0.8,1.4,1.2,2.1h0v0c0.6,1,1.2,1.9,1.8,2.9h0v0l0.4,0.6h0v0c0.8,1.2,1.6,2.3,2.5,3.5h0v0c0.6,0.8,1.2,1.7,1.9,2.5
	C325.8,119.5,325.7,119.5,325.7,119.4z M313.2,88.6c0-0.3,0-0.5-0.1-0.8h0v-0.4c0-0.4-0.1-0.7-0.2-1h0v-0.2
	c-0.1-0.6-0.2-1.1-0.4-1.7h0v0c-0.1-0.2-0.1-0.4-0.2-0.6h0v-0.1c-0.1-0.2-0.1-0.4-0.2-0.6h0v0c-0.2-0.7-0.5-1.3-0.8-2h0v-0.1
	c-2.2-5-5.6-9.6-7.2-14.7c0.6,1,1.3,2.1,2,3.1h0v0c3.3,4.7,7.1,9,8.9,14.5c1.3,5,2.6,10.1,4.1,15.1l0,0v0c0.7,2.3,1.4,4.5,2.3,6.8h0
	v0c0.2,0.5,0.4,1.1,0.6,1.6h0v0c0.1,0.3,0.3,0.7,0.4,1h0v0c0.1,0.3,0.3,0.7,0.4,1h0v0c0.2,0.5,0.4,1,0.6,1.4v0
	c0.8,1.8,1.7,3.6,2.6,5.3h0v0.1l0.2,0.4h0v0c0.6,1,1.2,2,1.8,3C321.2,110.4,314.4,100.5,313.2,88.6z M296.9,123.5
	C296.9,123.4,296.9,123.4,296.9,123.5C296.9,123.4,296.9,123.4,296.9,123.5C296.9,123.5,296.9,123.5,296.9,123.5z M307.9,177.4
	c-0.2-0.3-0.4-0.6-0.6-0.9h0v0c-0.4-0.6-0.8-1.1-1.2-1.6h0v0c-3.6-4.4-8.3-7.9-10.5-13.4c-1.8-3.9-1.4-8.1-1.2-12.2
	c-0.3-8.6,1-17,2.5-25.4c0,0,0,0,0,0c0,0,0,0,0,0c0,0,0,0,0,0c0.2-1.7,0.5-3.5,0.9-5.2c0,0.5,0,0.9,0,1.4h0v0.9
	c0,0.8,0.1,1.6,0.1,2.4h0.1v0.8c0.1,1.2,0.2,2.5,0.4,3.7h0v0.3c0.1,0.4,0.1,0.9,0.2,1.3h0v0.3c0.1,0.4,0.1,0.8,0.2,1.2h0v0.3
	l0.2,1.1h0v0.2c0.2,1.2,0.4,2.3,0.6,3.5h0v0.1l0.2,0.9h0v0.2l0.2,1h0v0l0.2,1h0v0l0.2,1l0,0v0c0.2,1,0.4,1.9,0.6,2.9h0v0
	c0.1,0.6,0.3,1.2,0.4,1.8h0v0c0.4,1.8,0.8,3.5,1.2,5.3h0v0c2.2,9.2,4.5,18.4,5.5,27.8C308.2,177.9,308.1,177.6,307.9,177.4z
	 M308.3,160.5c0,0.1,0,0.1,0,0.2C308.2,160.6,308.2,160.6,308.3,160.5c-0.1,1.2-0.2,2.3-0.2,3.5c0,0,0,0,0,0c0,0,0,0,0,0
	c-0.4-1.6-0.8-3.2-1.2-4.7c-0.2-0.8-0.4-1.5-0.6-2.3h0v0l-0.2-0.8h0v0c-1.6-6.3-3.3-12.5-4.5-18.9c0,0.1,0,0.1,0,0.2
	c-1.2-5.4-2-10.8-2.3-16.4c0.1,0.3,0.2,0.6,0.4,0.9h0.1v0.1c0.7,1.6,1.7,3.1,2.5,4.6c0,0,0,0,0,0c0,0,0,0.1,0.1,0.1
	c3.8,6.2,5.4,13.1,5.1,20.3C307.7,151.6,308.9,156,308.3,160.5z M289.5,229.7L289.5,229.7L289.5,229.7L289.5,229.7z M289.3,231.6
	c-0.1,0.1-0.1,0.2-0.2,0.3c0,0,0,0,0,0c-0.5,1-0.9,2-1.9,2.6c0.4-0.9,1-1.7,1.7-2.5c0,0,0,0,0,0
	C289.1,231.8,289.2,231.7,289.3,231.6z M287.1,233.3c0.5-1.1,1.5-1.9,2-2.9c0,0.3-0.1,0.5-0.1,0.8c0,0,0,0,0,0c0,0.1-0.1,0.2,0,0.2
	c0,0,0,0-0.1,0.1c0,0,0,0,0,0c-0.8,0.9-1.7,1.8-2,3C286.8,234,286.9,233.7,287.1,233.3z M294.2,218.3
	C294.2,218.3,294.3,218.3,294.2,218.3C294.3,218.3,294.3,218.3,294.2,218.3C294.3,218.3,294.3,218.2,294.2,218.3
	C294.3,218.2,294.3,218.2,294.2,218.3c0.1,0,0.1,0,0.2-0.1c0,0,0,0,0,0c0,0,0,0,0.1,0c-0.2,0.2-0.3,0.4-0.5,0.6
	c-1.4,2.2-4,3.5-6.6,3.6C289.7,221,291.4,218.9,294.2,218.3z M291,212.7C291,212.7,291,212.8,291,212.7
	C291,212.7,291,212.7,291,212.7C291,212.7,291,212.7,291,212.7c0-0.1,0-0.2,0-0.2c0,0,0,0,0,0.1c0,0,0-0.1,0-0.1
	c0.4,1.9,0.5,4.2-0.3,6c0,0.1-0.1,0.1-0.1,0.2c-0.5,0.6-1.2,1.1-1.9,1.6c0.3-0.5,0.6-1,0.9-1.6l0.1-0.1l0,0l0,0
	c0.1-0.1,0.1-0.3,0.2-0.4v0h0c0.3-0.6,0.5-1.2,0.6-1.8v0l0,0C290.9,215.2,290.9,213.9,291,212.7z M288.4,215.9c0.6-1,1.3-2,2-3
	c-0.1,3.5-1.6,7.3-4.6,9.3C285.8,219.9,287.2,217.9,288.4,215.9z M285.2,222.2c-0.1-0.1-0.1-0.3-0.2-0.4c0-0.1,0-0.1-0.1-0.2
	c0,0,0,0,0,0c-1.3-3.3,1.4-6.3,1.8-9.6v0h0c0-0.1,0-0.2,0-0.4c0,0.1,0.1,0.1,0.1,0.2c0,0,0,0,0,0c0.7,1.3,0.5,2.9,0.2,4.2
	c0,0,0,0,0,0c0,0.3-0.1,0.6-0.1,0.9c-0.6,1.1-1.2,2.2-1.5,3.4v0.3h-0.1c0,0.2-0.1,0.4-0.1,0.5v0.5h-0.1
	C285.2,221.9,285.2,222.1,285.2,222.2z M298.1,181.4L298.1,181.4z M296.5,182.7c0.4-0.3,0.7-0.6,1.1-0.9c-0.1,0.7-0.4,1.3-0.8,1.9
	c0,0,0,0,0,0c-0.9,2-2.7,3.3-4.5,4.5c0.4-0.7,0.6-1.4,1.1-2.1c0,0,0,0,0,0c0.1-0.3,0.3-0.5,0.4-0.8c0,0,0,0,0,0c0,0,0,0,0-0.1
	c0,0,0,0,0,0C294.5,184.3,295.5,183.5,296.5,182.7z M292.3,185.4c0-0.1,0.1-0.3,0.1-0.4c0.5-1.6,2.4-2.3,3.6-3.4
	c-0.1,0.3-0.1,0.5-0.2,0.8c0,0,0,0,0-0.1c0,0.2-0.2,0.3-0.2,0.4c-0.2,0.2-0.4,0.3-0.7,0.5v0h0c-0.1,0.1-0.1,0.1-0.2,0.2v0h0
	c-0.4,0.4-0.7,0.8-1,1.2v0.1h0c-0.1,0.2-0.3,0.4-0.4,0.6v0h0c-0.3,0.5-0.6,1.1-0.8,1.6v0h0c-0.1,0.4-0.3,0.7-0.4,1.1c0,0,0,0,0,0
	c0,0,0,0.1,0,0.1C292.1,187.2,292.1,186.3,292.3,185.4C292.3,185.4,292.3,185.4,292.3,185.4z M288.6,181.7c0,0.7,0,1.3-0.1,2
	c0.1,0.8-0.4,1.4-0.9,1.9C287.4,184.2,288,182.8,288.6,181.7z M287.2,185.4c-0.3-0.4-0.3-0.9-0.4-1.3c0-0.6,0.3-1.2,0.7-1.7
	C287.2,183.4,287.1,184.4,287.2,185.4z M285.8,170.9C285.8,170.9,285.9,170.9,285.8,170.9C285.9,170.9,285.9,170.9,285.8,170.9
	l0.2-0.2v0h0l0.2-0.2v0h0l0.2-0.2v0l0,0c0.6-0.6,1.1-1.3,1.6-2v0h0c0.3-0.5,0.6-0.9,1-1.4c-0.8,2.6-1.8,5.8-4.9,6.3
	C284.7,172.4,285.2,171.6,285.8,170.9C285.8,171,285.8,171,285.8,170.9C285.8,171,285.8,171,285.8,170.9z M284.6,161.9
	c0.9,3.5,1.9,7.5-1.1,10.4c-0.1,0.1-0.1,0.1-0.2,0.2c0-1.1,0-2.2-0.1-3.2h0v-0.2c-0.1-0.4-0.1-0.9-0.2-1.3c0-0.2-0.1-0.5-0.1-0.7
	c0,0,0,0,0,0c0,0,0,0,0-0.1c-0.3-1.8,0.9-3.2,1.5-4.7v0h0C284.5,162.1,284.6,162,284.6,161.9z M281.8,173.3c-3.8-1.4-6-1-7.6-5.4
	c2.8,0.4,4.8,2.1,6.7,4.1c0,0,0,0-0.1,0c0.2,0.1,0.3,0.3,0.5,0.4c0,0,0,0-0.1,0c0.4,0.3,0.7,0.7,0.8,1.1
	C282.1,173.4,282,173.3,281.8,173.3z M279.3,169.5c-1.2-1-1.8-2.4-2.8-3.6c-0.5-0.7-0.7-1.6-0.5-2.5c0,0,0,0,0,0.1c0,0,0-0.1,0-0.1
	c0,0,0,0,0,0c0-0.1,0.1-0.2,0.1-0.4c0.1,0.1,0.2,0.1,0.2,0.2c0,0,0,0,0,0c0.2,0.2,0.5,0.3,0.8,0.5c0,0-0.1,0-0.1,0
	c0.5,0.2,0.9,0.6,1.3,0.9c0,0,0,0-0.1-0.1c1.3,1.1,2.9,2.1,3.3,3.9c0.1,0.2,0.1,0.3,0.2,0.5c0.5,0.9,0.6,2,0.8,3h0v0
	c0.1,0.3,0.1,0.5,0.2,0.8h0v0c0,0.1,0.1,0.2,0.1,0.3c0,0-0.1,0.1-0.1,0.1h0v0h0c-0.1,0-0.1,0-0.2,0.1c-0.2-0.5-0.5-0.9-0.8-1.3h0v0
	C281,171.1,280,170.4,279.3,169.5z M274.8,180.6c-0.1-0.8,0-1.8,0.3-2.6c0,1.1-0.2,2.3,0.1,3.4C275,181.2,274.9,180.9,274.8,180.6z
	 M275.3,180.4c0-1.1,0.1-2.2,0.1-3.3c0,0.1,0.1,0.2,0.1,0.3c0.2,0.3,0.3,0.6,0.4,1c0,0,0,0,0-0.1c0.4,1.2,0.5,2.5-0.3,3.5
	C275.4,181.4,275.4,180.9,275.3,180.4z M270.4,206.5c0.2,0.4,0.2,0.7,0.2,1.1c0,0,0,0,0,0c0,0,0,0,0,0c0,0,0,0,0,0
	c-0.1,0.4-0.2,0.9-0.6,1.1c0.5-0.8,0.5-1.7,0.4-2.6C270.4,206.2,270.4,206.4,270.4,206.5z M269.4,207.5c0.1-0.6,0.3-1.3,0.4-1.9
	c0.1,1,0.5,2.1-0.3,2.9C269.4,208.2,269.4,207.8,269.4,207.5z M259.1,198.6c-0.4-1-0.9-1.9-1.2-2.9c0.6,0,1.2,0.3,1.6,0.7l0,0
	c0.2,0.2,0.4,0.4,0.6,0.5h0v0c0.1,0,0.1,0.1,0.2,0.1c0,0,0,0,0,0c0,0,0,0,0,0c0,0,0,0,0,0c2.6,1.8,3.4,5,4,7.9
	C261.3,204.4,260.2,201.2,259.1,198.6z M264.1,205.5c-0.3-0.1-0.5-0.1-0.7-0.2c0,0,0,0,0,0c0,0,0,0,0,0c-0.1,0-0.3-0.1-0.4-0.1
	c0,0,0,0,0,0c-0.3-0.1-0.5-0.2-0.8-0.3c0,0,0,0,0.1,0c-2.3-0.4-4.6-1.5-5.5-3.8c0,0,0,0,0-0.1c0,0,0,0,0,0c-0.6-1-1-2.1-2-2.9
	c0.3,0,0.7,0,1,0.1c0,0,0,0,0,0c0.7,0.3,1.1,1.1,1.8,1.4c0.8,0.4,1.6,0.8,2,1.6v0c0,0,0,0,0,0c0.4,0.4,0.7,0.9,1.1,1.4h0v0
	c0.8,1.1,1.6,2.1,2.8,2.4c0,0,0,0,0,0c0.4,0.1,0.7,0.2,1.1,0.3c0,0,0,0.1,0,0.1C264.3,205.5,264.2,205.5,264.1,205.5z M269.1,198.5
	c0.1-0.2,0.1-0.4,0.2-0.5c0.5-0.7,1.2-1.2,1.7-1.9c-0.1,1.5,0.2,3.1-0.6,4.5c-0.6,2.3-2.2,4.2-4.6,4.7c0,0,0,0,0,0
	c-0.1,0-0.2,0.1-0.3,0.1c0.2-0.3,0.3-0.5,0.6-0.7c0,0,0,0,0,0c0,0,0,0,0,0c0.3-0.4,0.7-0.7,1-1.2v0h0c0.1-0.2,0.3-0.4,0.4-0.6v0h0
	c0.7-1,1.2-2.1,1.4-3.3v-0.2h0C269.1,199,269.1,198.8,269.1,198.5z M267.9,193.5C267.9,193.5,267.9,193.5,267.9,193.5
	C267.9,193.5,267.9,193.5,267.9,193.5C267.9,193.5,267.9,193.5,267.9,193.5z M265.1,204.8c0-0.1,0-0.3,0-0.4h0v-0.1
	c-0.1-1.3-0.4-2.7,0-4c0.7-2.3,1.8-4.5,2.8-6.7c0,0,0-0.1,0-0.1C269.1,198,268.5,201.5,265.1,204.8z M260.5,214.2
	C260.5,214.2,260.5,214.2,260.5,214.2C260.5,214.2,260.5,214.2,260.5,214.2c-0.6-0.4-1.2-1-1.3-1.8v0c-0.2-0.7-0.2-1.5,0-2.3
	c0,0.3,0,0.6,0.1,0.8h0.1v0.4c0,0.2,0.1,0.4,0.2,0.6h0v0.1c0.1,0.2,0.1,0.3,0.2,0.5h0v0c0.1,0.1,0.1,0.2,0.2,0.4h0v0.1
	c0.1,0.1,0.1,0.2,0.2,0.3h0v0.1C260.3,213.8,260.4,214,260.5,214.2C260.5,214.2,260.5,214.2,260.5,214.2z M260.7,213.6
	c-0.8-1.1-0.9-2.5-1-3.8c0,0.1,0.1,0.1,0.1,0.2C260.4,211,261,212.3,260.7,213.6z M265.4,245.4c0,0,0,0.1,0,0.1v0
	C265.4,245.5,265.4,245.5,265.4,245.4z M308.3,237.4c0,0,0,0.1-0.1,0.1c0.4-0.7,0.9-1.3,1.3-2v0h0l0.4-0.6v0h0l0.4-0.6v0h0
	c0.3-0.5,0.6-0.9,0.9-1.4c0,0,0,0,0,0c0.1-0.2,0.2-0.4,0.4-0.6v0h0c0.3-0.5,0.5-0.9,0.8-1.4v0h0l0.2-0.4v0h0l0.2-0.4v0h0l0.2-0.4v0
	h0c0.8-1.5,1.5-3.1,2.5-4.5c0,0-0.1,0.1-0.1,0.1c0.4-0.6,0.8-1.2,1.2-1.9c0,0,0,0,0,0c0.3-0.5,0.6-1,0.9-1.5c0,0-0.1,0.1-0.1,0.1
	c0.3-0.5,0.6-0.9,0.9-1.4c0,0-0.1,0.1-0.1,0.1c0.2-0.2,0.3-0.5,0.5-0.8c0,0,0,0.1-0.1,0.1c10.4-14.6,21.2-29.3,35.5-40.3
	c0,0,0,0,0,0c0,0,0.1-0.1,0.1-0.1c0,0,0,0-0.1,0c3.3-2,6.7-3.9,10-5.8c-0.3,0.2-0.6,0.4-0.9,0.6c-0.4,0.3-0.7,0.6-1.1,0.9v0h0
	c-0.4,0.3-0.8,0.7-1.2,1v0h0c-0.5,0.4-0.9,0.8-1.4,1.2v0h0c-0.9,0.8-1.8,1.6-2.7,2.5v0h0l-0.2,0.2v0h0l-0.2,0.2v0h0l-0.2,0.2v0h0
	l-0.2,0.2v0h0l-0.2,0.2v0h0l-0.2,0.2v0h0c-0.8,0.9-1.7,1.8-2.5,2.7v0h0c-0.3,0.4-0.7,0.8-1,1.2v0h0c-0.3,0.4-0.6,0.7-0.9,1.1
	c0,0,0,0,0,0.1c0,0,0,0,0,0c-0.2,0.2-0.3,0.4-0.5,0.7c0,0,0,0,0,0c-0.4,0.5-0.8,1.1-1.3,1.6c0,0,0.1-0.1,0.1-0.1
	c-0.2,0.2-0.3,0.4-0.5,0.6v0h0c-0.2,0.3-0.4,0.5-0.6,0.8v0.1h-0.1c-0.2,0.3-0.4,0.5-0.6,0.8v0.1h0c-3,4-5.4,8.4-8.3,12.5
	c0,0,0.1-0.1,0.1-0.1c0,0.1-0.1,0.1-0.1,0.2c0,0,0,0,0,0c0,0.1-0.1,0.1-0.1,0.2c0,0,0,0,0.1-0.1c0,0-0.1,0.1-0.1,0.1
	c0,0,0,0,0.1-0.1c0,0,0,0.1-0.1,0.1c0,0,0,0,0,0c0,0-0.1,0.1-0.1,0.1c0-0.1,0.1-0.1,0.1-0.2c-7.8,9.5-16.4,18.2-24.8,27.1v0h0
	l-0.2,0.2v0l0,0c-0.7,0.7-1.4,1.5-2.1,2.2v0.1h-0.1l-0.2,0.2v0h0l-0.2,0.2v0h0l-0.2,0.2l0,0l0,0c-0.6,0.7-1.2,1.4-1.9,2v0h0
	l-0.2,0.2v0h0c-0.5,0.5-0.9,1-1.4,1.5C308.2,237.5,308.3,237.5,308.3,237.4z M367.4,172.7c-0.4,0.4-0.8,0.8-1.2,1.2v0h0l-0.2,0.2v0
	h0c-0.3,0.3-0.5,0.6-0.8,0.9v0.1H365l-0.1,0.1v0.1h-0.1l-0.1,0.1v0.1h-0.1l-0.1,0.1v0.1h-0.1l-0.1,0.2v0h0l-0.2,0.2v0h0l-0.6,0.7
	v0.1h-0.1l-0.1,0.1v0.1h-0.1l-0.1,0.1v0.1H363l-0.1,0.2v0h0c-0.3,0.3-0.5,0.6-0.8,0.9v0.1H362l-0.1,0.2v0h0c-0.3,0.4-0.7,0.8-1,1.2
	v0h0c-0.2,0.3-0.4,0.5-0.6,0.8v0.1h0c-0.2,0.2-0.4,0.5-0.6,0.7v0.1h-0.1l-0.2,0.2v0h0l-0.2,0.3v0.2h-0.1l-0.1,0.1v0.1h-0.1l-0.1,0.2
	v0h0l-0.2,0.3v0.2h-0.1l-0.1,0.1v0.1h-0.1l-0.1,0.2v0h0l-0.2,0.3v0.1h-0.1l-0.1,0.2v0.1h0l-0.2,0.2v0.2h-0.1l-0.1,0.1v0.1h-0.1
	l-0.1,0.2v0h0l-0.2,0.3v0.1h-0.1l-0.1,0.2v0h0l-0.4,0.6v0.1h0l-0.4,0.5v0.1h0c-0.4,0.6-0.8,1.2-1.2,1.8v0h0l-0.2,0.3v0.1h-0.1
	l-0.1,0.2v0h0l-0.2,0.3v0.1H354l-0.2,0.2v0.2h-0.1l-0.1,0.2v0h0l-0.2,0.3v0.1h-0.1l-0.1,0.2v0.2h-0.1l-0.1,0.2v0h0l-0.2,0.3v0.1
	h-0.1l-0.1,0.2v0.2h-0.1l-0.1,0.2v0.2h-0.1l-0.1,0.1v0.1h0l-0.2,0.3v0.1h-0.1l-0.1,0.2v0.2h-0.1l-0.3,0.6v0h0l-0.2,0.3v0.1h0
	l-0.2,0.3v0.1h-0.1c-0.5,0.9-0.9,1.8-1.4,2.7v0.2h-0.1l-0.1,0.2v0.2h-0.1l-0.1,0.3v0.1H349l-0.1,0.3v0.1h-0.1l-0.1,0.3v0.1h0
	l-0.2,0.3v0.3h-0.1l-0.1,0.2v0.2h-0.1l-0.1,0.2v0.2H348l-0.1,0.3v0.1h-0.1l-0.1,0.3v0.3h-0.1l-0.1,0.2v0.2h-0.1l-0.1,0.3v0.1h-0.1
	l-0.1,0.4v0.1h0c-0.1,0.3-0.3,0.6-0.4,1v0.1h0l-0.2,0.6c0-0.1,0-0.1,0.1-0.2c-0.9,2.1-1.9,4.1-2.9,6.2v0h0l-0.2,0.4v0h0l-0.2,0.4v0
	l0,0l-0.2,0.4v0h0l-0.2,0.4v0l0,0c-0.4,0.7-0.7,1.4-1,2.1v0.1h-0.1l-0.1,0.3v0.1h0l-0.2,0.4v0h0c-0.1,0.3-0.3,0.6-0.4,0.9
	c0-0.1,0.1-0.1,0.1-0.2c-5.1,11.7-14.5,21.1-23.8,29.6c-7.8,5.9-18,5.8-27.4,6.3v0h0l-0.8,0c0.2-0.1,0.4-0.1,0.7-0.2v0h0.1l0.5-0.2
	v0h0.1l0.4-0.1v-0.1h0.2l0.4-0.2v0h0.1l0.5-0.2v0h0l0.4-0.2v0h0.1c0.3-0.1,0.6-0.3,0.9-0.4l0,0h0c0.3-0.1,0.5-0.3,0.8-0.4v0h0.1
	l0.4-0.2v0h0.1l0.4-0.2v0h0l0.4-0.2v0h0c0.3-0.2,0.7-0.4,1-0.5V249h0.1l0.3-0.2v0h0.1c0.7-0.4,1.5-0.9,2.2-1.4v-0.1h0.1l0.5-0.4V247
	h0.1l0.5-0.4v0h0c0.8-0.6,1.6-1.2,2.4-1.8v0h0l0.2-0.2v0h0.1c0.3-0.3,0.6-0.5,1-0.8v0h0l0.2-0.2v0h0c0.5-0.4,0.9-0.8,1.4-1.2v0h0
	c2.1-1.9,4-3.9,6-5.9v0h0l0.2-0.2v0h0c2.4-2.5,4.7-5.2,7-7.7c2.8-2.7,5.6-5.6,8.3-8.5v0h0l0.2-0.2v0h0l0.2-0.2v0h0
	c0.7-0.7,1.4-1.5,2.1-2.3v0l0,0c0.6-0.6,1.1-1.2,1.6-1.8v0h0c0.5-0.5,1-1.1,1.4-1.6v0h0l1.2-1.4v0h0c1.6-1.8,3.2-3.7,4.7-5.5v0h0
	l1-1.2v0h0l1.1-1.4c0.5-0.8,1-1.5,1.5-2.3v0h0l0.4-0.6v0h0c3.1-4.9,6.1-9.8,9.8-14.3c0,0,0.1-0.1,0.1-0.1c0,0,0,0,0,0
	c4.4-5.5,9.7-10.2,15.2-14.4C367.6,172.5,367.5,172.6,367.4,172.7z M250.2,274.7L250.2,274.7L250.2,274.7c1.6-2.8,4.4-6.6,4.8-7.5
	c0,0,0,0,0,0c2.1-3.6,4-7.4,5.8-11.3h0v0c0.7-1.6,1.5-3.2,2.3-4.7h0v0l0.1-0.2c0.9-4.3,1.7-8.7,2.1-13.1c0,0,0-0.1,0-0.1
	c0,0,0,0,0,0c1-12.7,0.6-11.6-3.1-19.9v0l0,0c-0.4-1-0.9-2.1-1.4-3.3c-0.1,0-0.2-0.1-0.3-0.2c0,0,0,0,0,0c0,0-0.1,0-0.1-0.1
	c0,0,0,0,0,0c0,0,0,0-0.1,0c0,0,0,0,0,0c-0.2-0.1-0.3-0.2-0.4-0.3v0h0c-0.1-0.1-0.1-0.1-0.2-0.2v0h0c-0.1-0.1-0.1-0.1-0.2-0.2v0h0
	c-0.2-0.2-0.3-0.4-0.4-0.6v0h0c-0.2-0.4-0.3-0.8-0.4-1.2v-0.2h0c0-0.3,0-0.7,0-1h0v-0.2c0-0.2,0.1-0.4,0.1-0.6
	c0.1-0.4,0.3-1.2,0.5-1.3l0,0v0c0.1-0.1,0.3,0,0.5,0.5c0,0,0,0,0,0c0,0,0,0,0,0.1c0,0,0,0,0,0c0.4,0.5,0.7,0.9,0.9,1.5v0.1h0
	c0.6,1.2,0.8,2.6,0.4,4c1.1,3.3,2.9,6.1,4.4,9.2c0-0.2,0-0.4-0.1-0.6l0,0v-0.2h0c-0.4-4.8,0.1-9.7-0.5-14.6c0,0,0,0.1,0,0.1
	c0-0.2-0.1-0.4-0.1-0.6v-0.2h0c-0.1-0.5-0.1-1-0.1-1.6c-0.4-0.1-0.9-0.2-1.3-0.3c0,0,0,0,0,0c-1.2-0.3-2.6-0.5-3.8-1v0h0
	c-1.3-0.5-2.5-1.3-3.3-2.6v0h0c-0.1-0.1-0.1-0.3-0.2-0.4v0h0c0-0.1-0.1-0.2-0.1-0.2c0,0,0,0,0,0c-0.1-0.2-0.2-0.4-0.3-0.6v0h0
	c-0.4-0.7-0.7-1.5-1.2-2.1c-0.1-0.1-0.4-0.4-0.6-0.6v0h0c-0.1-0.1-0.1-0.3,0.1-0.4c0.2,0,0.4,0,0.5,0h0.1c1.8,0,2,1.3,3.8,1.8
	c0,0,0,0-0.1,0l0.1,0v0h0c0.3,0.1,0.5,0.3,0.7,0.5c-0.3-0.8-0.6-1.5-1-2.3v0l0,0c-0.2-0.5-0.4-1-0.6-1.4v0h0
	c-0.1-0.3-0.2-0.5-0.3-0.8v0c-0.1-0.3,0.2-0.4,0.4-0.3c0,0,0,0,0.1,0c0,0,0,0,0,0c0,0,0.1,0,0.1,0c0,0,0,0,0,0c0.1,0,0.3,0,0.4,0v0
	h0.1c0.2,0,0.4,0.1,0.6,0.2v0h0c0.5,0.3,1,0.7,1.5,1.1c0,0,0,0,0,0c0,0,0,0,0.1,0c0,0,0,0,0,0c0,0,0,0,0,0c0.2,0.1,0.3,0.2,0.5,0.3
	v0h0l0.2,0.2v0.1h0.1c0.4,0.4,0.8,0.7,1.2,1.2v0.1h0c0.2,0.3,0.4,0.5,0.6,0.8v0h0c0.4,0.6,0.7,1.3,1,2v0h0c0.1,0.2,0.1,0.3,0.2,0.5
	c0-0.5,0.1-1,0.2-1.6h0v-0.1c0.2-0.9,0.5-1.7,0.8-2.5h0v0c0.7-1.7,1.7-3.3,2.6-4.9l0,0h0.1c0.6,0.3,0.9,4.2,1,4.7
	c0.7-0.8,1.6-1.5,2.1-2.4c0.1-0.3,0.3-0.4,0.5-0.3v0h0c0.1,0.1,0.1,0.2,0.1,0.4c0,0.7,0,1.4-0.1,2h0v0c0,0.5-0.1,1.1-0.2,1.6h0v0.1
	c-0.1,0.3-0.1,0.6-0.2,1h0v0c-0.3,1.1-0.7,2.1-1.2,3h0v0c-0.2,0.3-0.4,0.6-0.6,0.8h0v0c-0.1,0.1-0.1,0.1-0.2,0.2h0v0
	c-0.1,0.1-0.1,0.1-0.2,0.2h0v0c-0.1,0.1-0.1,0.1-0.2,0.2h0v0c-0.2,0.1-0.3,0.3-0.5,0.4h-0.1v0.1c-0.4,0.2-0.7,0.4-1.2,0.6h-0.1v0
	c-0.2,0.1-0.4,0.1-0.7,0.2h-0.2v0c-0.1,0-0.2,0-0.4,0.1c-0.1,0-0.3,0.1-0.4,0.2c0.1,0.4,0.1,0.8,0.2,1.2v0.5h0.1
	c0,0.4,0.1,0.9,0.1,1.3v1h0.1c0,0.5,0.1,1,0.1,1.5v0.5h0c0.1,1.3,0.1,2.5,0.2,3.8v0.3h0c0.1,1.5,0.1,3.1,0.1,4.6
	c0.4-1.5,0.8-3,1.3-4.4h0v0c0.7-2.5,1.4-5,1.9-7.5c-0.5-0.8-0.4-2.3,0-3.4l0,0v0c0.1-0.1,0.1-0.3,0.2-0.4h0V205
	c0.1-0.1,0.1-0.3,0.2-0.4c0.5-0.1,0.9,1.9,1,2.3c0,0,0,0,0,0c0.1,0.3,0.1,0.7,0,1h0v0c-0.1,0.5-0.5,1-1,1.3c0,0,0,0,0,0c0,0,0,0,0,0
	c0,0,0,0,0,0c-1.3,4.4-2.3,8.9-3.4,13.3l0.1,1v0.4h0c0.2,4,0.2,8,0,11.9h0v0.4c-0.1,0.8-0.1,1.6-0.2,2.4h0v0.2
	c-0.1,0.6-0.1,1.2-0.2,1.9h0v0.1c0,0.4-0.1,0.9-0.2,1.3h0v0.3c-0.1,0.4-0.1,0.8-0.2,1.1h0v0.3c-0.1,0.5-0.2,1.1-0.3,1.6
	c5.4-13.8,10.6-28.1,12.6-42.8c-0.1-3.6-0.8-7.1-1.4-10.6v0h0c-0.1-0.4-0.1-0.7-0.2-1.1v-0.1h0c-0.1-0.4-0.1-0.7-0.2-1.1v-0.1h0
	c-0.2-1-0.3-2-0.4-3v-0.9h-0.1c-0.1-0.9-0.1-1.7-0.1-2.6c0,0,0,0,0,0.1c0-0.1,0-0.3,0-0.4c-0.2-0.1-0.3-0.2-0.4-0.3v0h0
	c-0.1-0.1-0.3-0.3-0.4-0.4v0h0c-1.3-1.6-0.6-3.9,0.4-5.6c0-0.2,0.3-0.4,0.4-0.1l0,0c0.3,0.9,0.9,1.7,1,2.6c0.2,0.3,0.2,0.7,0.3,1
	v0.6c0,0.3-0.1,0.6-0.2,1h0v0c-0.1,0.4-0.3,0.9-0.6,1.3c0,0.3,0,0.6,0,0.8c0,0,0,0,0-0.1c0,0.2,0,0.3,0,0.5c0,0,0,0,0-0.1
	c0.4,5.3,1.6,10.4,2.4,15.7v0.1h0c0.1,0.6,0.2,1.1,0.2,1.7c2-9,3.2-18.2,3.6-27.4c-2.6-1.3-6.2-0.8-7.6-3.8l-0.1-0.1v0h0
	c-0.5-0.7-0.7-1.4-1.2-2.1c-0.2-0.1-0.4-0.4-0.4-0.6v-0.3c0-0.1,0.1-0.1,0.2-0.1h0v0c0,0,0.1,0,0.1,0c0.5,0.2,1,0.3,1.5,0.4v0h0
	l0.6,0.2v0h0.1l0.5,0.2v0h0.1c0.2,0.1,0.3,0.1,0.5,0.2v0h0.1c0.2,0.1,0.4,0.2,0.6,0.2c-0.1-0.1-0.2-0.2-0.2-0.4
	c-0.4-0.5-0.8-1-1.1-1.5v0h0c-0.3-0.4-0.5-0.8-0.6-1.3v-0.2h0c-0.1-0.5-0.2-1.1,0-1.7c0-0.2,0.1-0.4,0.2-0.6h0v0
	c0.2-0.3,0.5-0.5,0.8-0.2c0,0,0,0-0.1-0.1c1,0.6,1.9,1.2,2.8,1.9v0h0c0.4,0.3,0.8,0.7,1.2,1v0h0l0.2,0.2v0h0l0.2,0.2v0h0
	c0.2,0.2,0.4,0.5,0.6,0.7v0.1h0.1l0.1,0.2v0h0c0.2,0.3,0.4,0.7,0.6,1v0h0c0.3,0.6,0.5,1.2,0.7,1.9c-0.4-1.5-0.6-3.1-0.3-4.6h0.1
	v-0.3c0.2-0.8,0.5-1.5,1-2.2c0.5-0.5,0.5-2.1,1.2-2.2c0.2,0.4,0.3,1,0.5,1.5v0h0c0.2,0.7,0.4,1.5,0.6,2.4v0.1h0
	c0.1,0.3,0.1,0.7,0.2,1v0.2h0c0.2,1.1,0.2,2.2,0,3.1h-0.1v0.4c0,0.2-0.1,0.3-0.1,0.5c1.1-1,1.8-2.5,2.8-3.7h0v0
	c0.2-0.3,0.5-0.6,0.8-0.8h0.1v-0.1l0.2-0.1h0v0c0.1-0.1,0.2-0.2,0.4-0.3c0.6-0.1,0.8,0.1,0.7,0.5h0v0c-0.2,0.7-1.1,1.9-1.2,2.4
	c-0.2,0.8-0.5,1.7-0.9,2.5h0v0c-0.1,0.1-0.1,0.3-0.2,0.4h0v0c-0.9,1.7-2.3,3.1-4.3,3.3h0v0c-0.1,0-0.2,0-0.4,0
	c-0.1,0.2-0.4,0.2-0.6,0c0,0.6,0,1.2-0.1,1.8h0v0.5c-0.1,1-0.1,2-0.2,3h0v0.4c-0.1,0.9-0.1,1.8-0.2,2.7h0v0c-0.1,0.7-0.1,1.3-0.2,2
	h0v0.3c-0.1,0.5-0.1,1.1-0.2,1.6h0v0.4c-0.1,0.5-0.1,1.1-0.2,1.6h0v0.2c-0.1,1-0.3,2.1-0.4,3.1h0v0.1l-0.2,1.2h0v0.3
	c-0.1,0.4-0.1,0.8-0.2,1.2h0v0.2l-0.2,1h0v0.2c-0.3,1.5-0.5,3-0.8,4.5h0v0l-0.2,0.8h0v0.2l-0.2,0.8h0v0.2l-0.2,0.8h0v0.1l-0.2,0.7h0
	v0.2l-0.2,0.8h0v0.1c-0.1,0.4-0.2,0.9-0.3,1.3c0.3-0.7,0.7-1.5,1.1-2.2h0.1v-0.2l0.1-0.2h0.1v-0.1l0.1-0.3h0.1v-0.1l0.2-0.3h0v-0.1
	l0.2-0.3h0v0c0.1-0.2,0.2-0.4,0.4-0.6c0,0,0,0.1-0.1,0.1c0-0.1,0.1-0.1,0.1-0.2c0,0,0,0.1-0.1,0.1c1.6-2,2-4.6,3.1-6.9h0v0
	c0.1-0.1,0.1-0.3,0.2-0.4c0,0,0,0,0,0c0,0,0-0.1,0-0.1c0,0,0,0,0,0c1-2.6,2.1-5.3,2.7-8c-0.5-0.3-0.7-0.8-0.9-1.3v0h0
	c-0.1-0.5-0.1-1.1,0-1.6h0v0l0-0.1c0.3-0.9,1.2-1.5,1.8-2.3c0.1-0.1,0.3-0.4,0.4-0.5h0v0c0.1,0,0.2,0,0.3,0.1
	c0.1,0.5,0.1,0.9,0.2,1.4v0.3h0c0,0.7,0,1.4,0,2.1c-0.1,0.8-0.7,1.3-1.2,1.8c0,0,0,0,0,0c-0.1,0.1-0.1,0.1-0.2,0.2
	c-0.1,0.6-0.3,1.2-0.4,1.8h0v0c-0.4,1.7-1,3.4-1.6,5.1h0v0c-0.2,0.5-0.4,1.1-0.6,1.6h0v0c-0.4,1.1-0.8,2.1-1.2,3.2
	c0.2-0.3,0.5-0.6,0.8-1h0v0c0.3-0.4,0.7-0.8,1-1.2h0v0c0.3-0.4,0.7-0.8,1-1.2h0v0c1-1.2,2.1-2.4,3.1-3.6c0.7-0.9,1.9-1.6,1.9-2.9
	c0,0,0,0,0,0l0-0.3v-0.6h0c0-0.4,0-0.9,0-1.2h0V186c0-0.3,0.1-0.6,0.2-0.9h0.1v-0.2c0.1-0.3,0.2-0.6,0.4-0.8h0V184
	c0.1-0.2,0.2-0.4,0.4-0.5h0v0c0.1-0.1,0.2-0.3,0.4-0.4h0v0c0.1-0.1,0.1-0.1,0.2-0.2h0v0c0.2-0.2,0.5-0.4,0.8-0.6h0v0l0.3-0.2
	c1.5-0.6,2.9-3.5,1.8,0.2c3.6-3.4,1.3,1.5,0.3,3c0,0,0,0,0,0c0,0,0,0,0,0.1c0,0,0,0,0,0c0,0.1-0.1,0.1-0.1,0.2c0,0,0,0,0-0.1
	c-0.3,0.5-0.6,1-1.1,1.4h0v0l-0.2,0.2h0v0c-0.7,0.6-1.5,1.1-2.3,1.7c0,0-0.1,0.1-0.1,0.1c0,0,0,0,0,0c-0.3,0.1-0.4,0.5-0.7,0.4
	c-8.7,11-13.6,15.9-16.1,30.4l-0.3,1.2h0v0l-0.4,1.4h0v0.1l-0.2,0.6h0v0.2l-0.2,0.7h0v0l-0.2,0.6h0v0.1l-0.1,0.5h-0.1v0.2l-0.2,0.6
	h0v0.1l-0.2,0.5h0v0.1l-0.4,1.3h0v0l-0.2,0.6h0v0.1c-0.5,1.6-1,3.3-1.6,4.9h-0.1v0.2l-0.2,0.5h0v0.1l-0.2,0.5h0v0.1l-0.2,0.5h0v0.1
	l-0.2,0.5h0v0.1l-0.2,0.6h0v0c-0.2,0.5-0.4,1.1-0.6,1.6h0v0.1l-0.2,0.5h0v0c-0.4,1.1-0.8,2.2-1.2,3.2h0v0l-0.4,1h0v0.1l-0.4,1h0v0.1
	l-0.1,0.3h-0.1v0.2l-0.2,0.4h0v0.1l-0.1,0.4h-0.1v0.2l-0.2,0.5h0v0l-0.2,0.4h-0.1v0.1l-0.2,0.5h0v0l-0.2,0.4h0v0.1l-0.4,0.9h0v0
	c-0.4,0.9-0.8,1.9-1.2,2.8h0v0l-0.2,0.4h0v0.1l-0.2,0.3h-0.1v0.1l-0.6,1.3h0v0l-0.2,0.4h0v0.1l-0.2,0.3h0v0.1l-0.1,0.3H263v0.1
	c-0.2,0.4-0.4,0.9-0.6,1.3h0v0l-0.2,0.4h0v0L262,257h0v0.1l-0.2,0.4h0v0.1l-0.2,0.3h0v0.1c-0.3,0.5-0.5,1.1-0.8,1.6
	c6.8-6.7,13-14,17.3-22.6c0,0,0,0,0,0c1.4-2.3,2.4-4.7,3.6-7.1h0.1v-0.1l0.1-0.3h0.1v-0.1l0.1-0.3h0.1V229l0.2-0.3h0.1v-0.1l0.2-0.3
	h0v-0.1l0.2-0.3h0v0c0.2-0.4,0.4-0.7,0.6-1c0,0,0,0,0,0c0,0,0-0.1,0.1-0.1c0,0,0,0,0,0.1c0.7-1.1,1.3-2.3,1.8-3.5
	c-0.6-0.7-1-1.6-1.2-2.5v-0.1h0c0-0.2,0-0.3,0-0.5c0,0,0,0.1,0,0.1c0-0.3,0-0.5,0-0.8h0.1v-0.8c0-0.3,0.1-0.6,0.2-0.8h0v-0.1
	c0.5-1.7,1.4-3.3,1.7-5.1c0.2-0.5,0-3,0.9-2.2c0,0.1,0,0.1,0,0.2c0,0,0,0,0,0c0.5,0.9,0.9,1.8,1.1,2.8v0.1h0c0.1,0.6,0.1,1.3-0.1,2
	c0.5-0.6,2-3.6,2.9-4.1h0v0c0.1,0,0.2,0,0.2,0c0.1,0.1,0.1,0.3,0.2,0.4v0h0c0.1,0.2,0.1,0.4,0.2,0.6v0h0c0.1,0.2,0.1,0.5,0.2,0.7
	v0.1h0c0.1,0.4,0.1,0.8,0.2,1.2c0,0,0,0,0,0l0,0.5v0.3h0c0,0.5,0,1,0,1.4h0v0.3c0,0.2-0.1,0.5-0.1,0.7h-0.1v0.2
	c0,0.1-0.1,0.2-0.1,0.3l0.3-0.1c0.4-0.1,0.7-0.2,1.1-0.3c0.8-0.3,1.6-0.5,2.3-0.8c0,0,0,0,0,0c0.4-0.1,0.6-0.6,1-0.4
	c0.1,0,0.1,0.1,0.2,0.1v0h0c0.4,0.6-1.7,2.1-1.9,2.8c-0.5,0.6-1.1,1.2-1.7,1.7h-0.1v0c-0.4,0.3-0.8,0.6-1.2,0.8h0v0
	c-0.1,0.1-0.3,0.1-0.4,0.2h0v0c-0.3,0.2-0.7,0.3-1.1,0.4h-0.2v0c-0.2,0.1-0.5,0.1-0.7,0.1l-0.1,0h0v0c-1,0.2-2.2,0-3,0.7
	c0,0,0,0,0.1,0c-0.1,0.1-0.2,0.2-0.3,0.3c-1.6,3.3-3.1,6.6-4.7,9.8h-0.1v0.1l-0.1,0.3h-0.1v0.1l-0.1,0.3h-0.1v0.1l-0.1,0.3h-0.1v0.1
	l-0.2,0.3h-0.1v0.1l-0.2,0.3h0v0.1l-0.2,0.3h0v0.1l-0.2,0.3h0v0.1l-0.2,0.3h0v0l-0.2,0.4h0v0c-0.1,0.3-0.3,0.5-0.4,0.8c0,0,0,0,0,0
	c-0.3,0.5-0.5,1-0.8,1.5h0v0.1l-0.2,0.3h0v0l-0.2,0.4h0v0l-0.3,0.6H277v0.1l-0.1,0.3h-0.1v0.1l-0.2,0.3h0v0l-0.3,0.6h-0.1v0.1
	l-0.2,0.3h0v0.1l-0.2,0.3h0v0l-0.4,0.6h0v0.1c-0.2,0.3-0.4,0.6-0.6,1h0v0l-0.4,0.6h0v0l-0.4,0.6h0v0l-0.1,0.2h-0.1v0.1l-0.2,0.3h0v0
	l-0.1,0.2h-0.1v0.1l-0.2,0.3l0,0v0l-0.1,0.2h-0.1v0.1l-0.1,0.1h-0.1v0.2l-0.2,0.2h0v0l-0.1,0.2h-0.1v0.1l-0.1,0.1h-0.1v0.2l-0.2,0.2
	h0v0l-0.1,0.2h-0.1v0.1l-0.4,0.5h0v0l-0.1,0.2H271v0.1c-0.2,0.3-0.5,0.6-0.7,0.8c6.2-4.3,12-9.7,16.3-15.9c-0.2-0.8-0.1-1.5,0.2-2.2
	h0v0c0.1-0.1,0.1-0.2,0.2-0.4h0v0c0.1-0.2,0.3-0.4,0.4-0.6h0v0c0.6-0.8,1.3-1.6,1.8-2.3l0,0c0.3-0.1,0.2,0.3,0.2,0.4c0,0,0,0,0,0
	c0,0.1,0,0.1,0,0.2c0,0,0,0,0,0c0,0.3,0,0.6-0.1,0.9c0,0,0-0.1,0.1-0.1c0,0,0,0,0,0c0.2-0.2,0.4-0.6,0.6-0.3h0
	c-0.1,0.6-0.4,1.3-0.7,1.9c0,0.1-0.1,0.2-0.2,0.4h0v0c-0.2,0.4-0.4,0.7-0.6,1h0v0c-0.4,0.6-1,1-1.6,1.3c-0.1,0.2-0.3,0.5-0.4,0.7
	l0,0l0,0c-0.1,0.2-0.3,0.4-0.4,0.6h0v0c-0.1,0.2-0.3,0.4-0.4,0.6h0v0c-0.4,0.6-0.8,1.1-1.2,1.6h0v0c-0.3,0.4-0.7,0.8-1,1.2h0v0
	c-0.6,0.7-1.2,1.4-1.8,2h0v0c-1,1.1-2.1,2.2-3.1,3.3c0,0,0,0,0,0c-0.1,0.1-0.1,0.2-0.2,0.2c0,0,0,0,0,0l-0.2,0.2h0v0l-0.2,0.2h0v0
	l-0.2,0.2h0v0l-0.2,0.2h0v0c-0.6,0.6-1.2,1.1-1.8,1.6h0v0c-1.5,1.2-3,2.4-4.5,3.5h0v0c-0.9,0.7-1.9,1.4-2.8,2
	c-0.3,0.4-0.6,0.7-0.9,1h0v0c-0.9,1-1.8,1.9-2.7,2.8c0,0,0,0,0,0c-2,1.9-3.9,4-5.7,6.1c-0.2,0.4-0.4,0.8-0.6,1.2h-0.1v0.1l-0.2,0.3
	h-0.1v0.1l-0.2,0.3h0v0.1l-0.2,0.3h0v0c-0.2,0.3-0.4,0.7-0.6,1h0v0.1c-0.5,0.9-1.1,1.7-1.6,2.6h0v0c-0.5,0.7-0.9,1.5-1.4,2.2
	c0.1-0.1,0.1-0.1,0.2-0.2c13.8-10.3,25.4-23.1,36.6-36.2c0,0-0.1,0.1-0.1,0.1c0-0.1,0.1-0.1,0.1-0.2c0,0,0,0,0,0
	c4.5-5.8,9.6-11.8,12-18.8c0,0,0,0.1,0,0.1c2.8-7.8,5.7-15.6,6.1-24c0,0,0,0,0,0c0-0.1,0-0.1,0-0.2c0,0,0,0.1,0,0.1
	c0-0.1,0-0.2,0-0.4c0,0.1,0,0.1,0,0.2c0.1-1.6,0.1-3.2,0.1-4.8c0,0,0,0,0,0c0-0.1,0-0.2,0-0.3c0,0,0,0.1,0,0.1c0-0.2,0-0.3-0.1-0.5
	c0,0,0,0,0,0c0,0,0-0.1,0-0.1c-0.6-7.5-5.9-12.4-10.7-17.5l-0.2-0.2v0h0l-0.2-0.2l0,0l0,0c-0.1-0.2-0.3-0.3-0.4-0.5v-0.1h-0.1
	l-0.1-0.1v-0.1h-0.1l-0.1-0.2v0h0l-0.2-0.2v-0.2h-0.1l-0.1-0.1v-0.1h-0.1l-0.1-0.2v0h0l-0.2-0.3v-0.1h-0.1l-0.1-0.2v0h0
	c-0.2-0.3-0.4-0.7-0.6-1v0h0l-0.2-0.3v-0.1h0l-0.2-0.3v-0.1h-0.1l-0.2-0.3v-0.1h-0.1c-0.1-0.1-0.1-0.2-0.2-0.3v-0.1h0l-0.2-0.4v0h0
	l-0.2-0.4v-0.2H294l-0.1-0.3v-0.1h0c-0.1-0.4-0.3-0.7-0.4-1.1v-0.1h0c-0.1-0.2-0.1-0.4-0.2-0.6v-0.3h-0.1c0-0.2-0.1-0.3-0.1-0.5
	v-0.3H293c0-0.2-0.1-0.4-0.1-0.5V159h0c-0.2-0.8-0.3-1.5-0.4-2.3v-0.3h0c-0.1-0.6-0.1-1.2-0.2-1.7v-0.1h0c-0.1-2-0.1-4.1,0-6.2h0
	V148c0.1-1,0.1-2,0.2-3l0,0v0c0.2-2.8,0.5-5.6,0.7-8.3c0,0,0,0,0,0c0,0,0-0.1,0-0.1c0,0,0,0,0,0c0,0,0-0.1,0-0.1c0,0,0,0,0,0
	c0-0.3,0.1-0.6,0.1-0.9h0v0c0.1-0.5,0.1-0.9,0.2-1.4h0V134c0.1-0.4,0.1-0.9,0.2-1.3l0,0v0c0.1-0.8,0.3-1.5,0.4-2.3h0v-0.1
	c0.8-4.5,1.9-9,2.8-13.5c0.4-3.5,0.2-6.7,0.7-6v0h0c0.3,0.4,0.7,1.8,1.5,4.8c0,0,0,0,0-0.1c1.3,5.6,4.6,10.2,7,15.4v0h0l0.2,0.4v0h0
	c0.3,0.7,0.6,1.3,0.8,2v0h0c0.1,0.4,0.3,0.7,0.4,1.1c0.1,0.2,0.1,0.5,0.2,0.7v0h0c0.1,0.3,0.1,0.5,0.2,0.8v0.1h0
	c0.1,0.3,0.1,0.6,0.2,0.9v0.1h0c0.1,0.4,0.1,0.7,0.2,1.1v0.2h0c0.1,0.5,0.1,1,0.2,1.5v0.1h0c0.2,2.5,0.2,5,0.3,7.5
	c0.3,2.4,0.7,4.8,1,7.1v0.2h0c0.2,1.7,0.2,3.4,0,5.1c0,0,0-0.1,0-0.1c0,0,0,0.1,0,0.1c0,0.1,0,0.1,0,0.2c0,0,0,0,0,0
	c0,0.1,0,0.1,0,0.2c0,0,0,0,0-0.1c-0.5,7.3,0.2,14.1,0.8,20.8v0.2h0c0.1,0.8,0.1,1.6,0.2,2.4v0.1h0c0.1,1,0.1,2.1,0.2,3.1v1h0
	c0.1,2,0.1,4,0,6H311v1.3c0,0.7-0.1,1.4-0.2,2.2h0v0.2c-0.1,0.5-0.1,0.9-0.2,1.4h0v0.2c0,0.3-0.1,0.5-0.1,0.8h-0.1v0.5
	c0,0.2-0.1,0.5-0.1,0.7h-0.1v0.4c0,0.2-0.1,0.4-0.1,0.6H310v0.4c-0.1,0.3-0.1,0.6-0.2,0.8h0v0c-0.1,0.5-0.2,0.9-0.4,1.4h0v0.2
	l-0.1,0.4h-0.1v0.3l-0.1,0.3h-0.1v0.3l-0.1,0.3h-0.1v0.3l-0.1,0.3h-0.1v0.3l-0.1,0.3h-0.1v0.3l-0.1,0.3h-0.1v0.2h0
	c-0.2,0.6-0.5,1.3-0.8,1.9c10.6-18.5,17.2-39.1,21.7-59.9c0.7-5.7,5-20.2,0.8-24.2c0,0,0.1,0.1,0.1,0.1c-0.1-0.1-0.1-0.1-0.2-0.2
	c0,0,0,0.1,0.1,0.1c-0.3-0.3-0.6-0.6-0.8-0.9c0.1,0.1,0.1,0.1,0.2,0.2c-1.7-1.7-3.3-3.5-5.2-5c-0.2-0.1-0.3-0.2-0.5-0.3v0h0
	c-0.2-0.1-0.4-0.3-0.6-0.4v0h0c-0.2-0.1-0.4-0.3-0.6-0.4v0l0,0l-0.2-0.1v-0.1H322c-0.2-0.1-0.4-0.3-0.5-0.4v0h0
	c-0.3-0.3-0.7-0.5-1-0.8v0h0c-0.5-0.4-1-0.8-1.4-1.2v0h0l-0.2-0.2v0h0c-2.1-1.9-4.1-3.9-6.1-5.9c0,0,0,0,0.1,0.1c0,0,0,0-0.1-0.1
	c0,0,0,0,0,0c0,0-0.1-0.1-0.1-0.1c0,0,0,0,0,0c-0.3-0.4-0.7-0.7-1-1.1v0h0l-0.2-0.2v0h0c-0.3-0.3-0.6-0.7-0.8-1v0h0
	c-0.3-0.3-0.5-0.7-0.8-1v0l0,0c-0.1-0.2-0.3-0.4-0.4-0.6v-0.1h0c-0.1-0.2-0.2-0.4-0.4-0.5v-0.1h-0.1c-0.5-0.7-1-1.5-1.4-2.2v0h0
	l-0.2-0.3v-0.1h0c-0.4-0.8-0.8-1.6-1.2-2.4v0h0c-0.1-0.3-0.3-0.6-0.4-1V100h0c-0.4-1-0.7-2-1-3v0h0c-0.1-0.3-0.1-0.5-0.2-0.8v-0.1h0
	c-0.2-1-0.4-2.1-0.6-3.1v0l0,0c-0.1-0.5-0.1-1-0.2-1.6v-0.1h0c-1.1-9.7,1.1-19.4-3-30c-0.2-1.1,0.5-0.7,1.4,0.1v0h0
	c0.2,0.2,0.4,0.4,0.6,0.6v0h0c0.8,0.8,1.5,1.7,1.8,1.9c1.5,1.9,2.9,3.8,4.2,5.7v0h0c0.7,1,1.4,2,2,3v0h0l0.4,0.6v0h0
	c0.6,1,1.3,2,1.8,3.1v0h0l0.2,0.3V77h0c0.3,0.6,0.7,1.2,1,1.8v0h0l0.2,0.4v0h0l0.2,0.4v0h0l0.2,0.4v0h0l0.2,0.4v0h0
	c0.5,1.1,1,2.2,1.4,3.3v0h0c0.1,0.3,0.3,0.7,0.4,1v0h0l0.2,0.5v0.1h0c0.3,0.8,0.5,1.6,0.8,2.4v0.1h0l0.2,0.6v0h0
	c0.1,0.2,0.1,0.4,0.2,0.7v0.1h0c0.2,0.8,0.4,1.5,0.6,2.3v0.1h0c0.1,0.3,0.1,0.6,0.2,0.9v0.2h0c0.1,0.3,0.1,0.6,0.2,0.9v0.1h0
	c0.1,0.4,0.1,0.7,0.2,1.1c2,10.7,7.7,19.9,12.4,29.5c0.7-14.5-0.1-29.1-6.2-42.5c0,0,0,0,0,0c-0.1-0.1-0.1-0.2-0.2-0.4
	c-0.1-0.2-0.2-0.3-0.3-0.5v0h0l-0.2-0.3v-0.1h0c-0.5-0.9-1-1.9-1.4-2.9v0h0c-0.1-0.2-0.1-0.3-0.2-0.5v-0.1h0
	c-0.3-0.8-0.6-1.6-0.8-2.4v0h0c-0.1-0.2-0.1-0.5-0.2-0.7v-0.1h0c-0.1-0.3-0.1-0.5-0.2-0.8v0h0c-0.1-0.7-0.3-1.4-0.4-2v0l0,0
	c-0.1-0.4-0.1-0.8-0.2-1.2v0c-0.1-0.5-0.1-0.9-0.2-1.4v0h0c-0.6-4-0.9-8.1-2.1-12c-1.7-5.5-4.9-10.3-8.2-15c-1-0.9-1.9-1.7-2.9-2.7
	v0h0l-0.2-0.2v0h0l-0.2-0.2v0l0,0c-0.6-0.6-1.1-1.2-1.6-1.8v0h0c-0.5-0.6-1-1.3-1.4-2v-0.1h0l-0.2-0.3V34h-0.1
	c-0.2-0.4-0.4-0.7-0.6-1.1c0,0,0,0,0,0v0c-0.1-0.2-0.1-0.4-0.2-0.6c0,0,0,0,0,0c0-0.1,0-0.2-0.1-0.2c0,0,0,0,0,0
	c-1.1-4.2,0.9,0.1,1.9,0.9c0,0,0,0-0.1,0c0.1,0.1,0.3,0.2,0.4,0.4c0,0,0,0-0.1-0.1c0.4,0.3,0.7,0.8,1.2,1c0,0-0.1,0-0.1-0.1
	c0.2,0.1,0.4,0.3,0.6,0.4c0,0,0,0,0,0c0.9,0.6,1.9,1.1,2.8,1.7v0h0c0.2,0.1,0.4,0.3,0.6,0.4v0h0c0.1,0.1,0.3,0.2,0.4,0.3
	c0,0-0.1,0-0.1-0.1c1,0.7,1.9,1.4,2.9,2c0,0,0,0,0,0c0.3,0.1,0.5,0.3,0.7,0.4v0h0c0.2,0.1,0.4,0.2,0.6,0.4v0h0.1
	c0.7,0.4,1.3,0.9,2,1.4v0h0c0.3,0.3,0.7,0.5,1,0.8l0,0h0c1,0.9,2,1.8,2.9,2.9v0h0c0.3,0.4,0.7,0.8,1,1.2v0h0
	c0.4,0.5,0.8,1.1,1.2,1.6v0h0c0.6,0.9,1.3,1.9,1.8,2.9v0h0c0.4,0.7,0.8,1.5,1.2,2.3v0h0l0.2,0.4v0l0,0c0.4,0.7,0.7,1.5,1,2.2v0h0
	c0.1,0.3,0.3,0.7,0.4,1v0h0c0.1,0.3,0.3,0.7,0.4,1v0h0c0.5,1.2,0.9,2.5,1.2,3.7l0,0l0,0c1,3.3,1.7,6.8,2.1,10.2v0.1h0
	c0.2,1.9,0.4,3.8,0.4,5.6V78h0c0,0.7,0,1.4,0,2.1h0v0.3c0,0.6,0,1.3-0.1,1.9c-0.1,1-0.1,1.9-0.2,2.9c-0.2,3.1-0.2,6.2,0.2,9.3
	c0,0,0-0.1,0-0.1c0,0,0,0.1,0,0.2l0.1,0.7v0h0c0.1,0.4,0.1,0.8,0.2,1.3v0.4h0.1l0.1,1v0.6h0.1l0.1,0.9v0.8h0.1l0.1,0.9v0.8h0.1
	l0.1,1v0.6h0.1c0.1,0.5,0.1,1,0.1,1.5v0.2h0c0.1,0.8,0.1,1.6,0.2,2.4v1.1h0.1c0,0.8,0.1,1.5,0.1,2.3v2.4h0.1c0.1,3.2,0.1,6.4,0,9.7
	h-0.1v2.5c-0.1,1.9-0.2,3.8-0.4,5.7h0v0.5c0,0.5-0.1,0.9-0.1,1.4h-0.1v0.9l-0.1,1.2h-0.1v0.8c0,0.4-0.1,0.8-0.1,1.3H333v0.5
	c-0.1,0.4-0.1,0.9-0.2,1.3h0v0.3c-0.1,0.9-0.2,1.8-0.4,2.8h0v0.2l-0.2,1h0v0.3l-0.1,0.9H332v0.4l-0.1,0.8h-0.1v0.4l-0.1,0.8h-0.1
	v0.4l-0.2,0.9h-0.1v0.3l-0.2,0.9h0v0.2l-0.2,1.1l0,0v0c-0.1,0.7-0.3,1.4-0.4,2h0v0l-0.2,0.8h0v0.2l-0.2,0.8h0v0.1l-0.2,0.7h-0.1v0.3
	l-0.1,0.6h-0.1v0.4l-0.1,0.7h-0.1v0.2l-0.1,0.6h-0.1v0.3l-0.2,0.7h0v0.1L329,160h0v0.2l-0.2,0.7h0v0.2c-0.3,1.3-0.7,2.6-1,3.9h0v0
	l-0.2,0.6h-0.1v0.2l-0.2,0.6h0v0.1l-0.1,0.5h-0.1v0.2l-0.2,0.6h0v0.1l-0.1,0.5h-0.1v0.3l-0.2,0.6h0v0.1l-0.1,0.5h-0.1v0.2l-0.2,0.6
	h0v0.1l-0.2,0.5h0v0.2l-0.2,0.7h0v0l-0.2,0.6h0v0.1c-0.3,0.9-0.5,1.7-0.8,2.6h0v0l-0.2,0.6h0v0l-0.2,0.6h0v0l-0.2,0.6h0v0.1
	l-0.2,0.6h0v0.1l-0.2,0.6h0v0.1l-0.2,0.6h0v0l-0.2,0.6h0v0l-0.2,0.6h0v0l-0.1,0.4h-0.1v0.2l-0.2,0.4h-0.1v0.2l-0.2,0.5h0v0.1
	l-0.2,0.5h0v0.1l-0.2,0.5h0v0.1l-0.2,0.6h0v0l-0.5,1.3c0.2-0.3,0.4-0.6,0.6-0.9h0v0c0.2-0.3,0.4-0.5,0.6-0.8h0v0
	c2.9-3.7,6.1-7.1,8.3-11.3c0,0,0,0,0,0.1c1.3-2.4,1.6-5.1,2.4-7.7h0v0c0.1-0.2,0.1-0.4,0.2-0.6h0v0c0.1-0.2,0.1-0.3,0.2-0.5
	c1.2-2.4,3-4.4,4-6.9c0,0,0,0,0,0c0.8-2,0.9-4.3,0.9-6.4c-0.1-4.5-0.7-8.9-1.2-13.3v0h0c-0.1-0.6-0.1-1.2-0.2-1.9v-0.2h0
	c-0.1-0.6-0.1-1.3-0.2-1.9v-0.2h0c-0.1-0.8-0.1-1.6-0.2-2.4v-0.9h-0.1c-0.1-1.4-0.1-2.9-0.1-4.4c0,0,0,0,0,0.1c0-0.1,0-0.2,0-0.2
	c0,0,0,0,0,0c0-0.3,0.1-0.7,0.1-1h0v-0.4c0-0.3,0.1-0.7,0.1-1h0.1v-0.6l0.1-0.7h0.1v-0.7l0.1-0.7h0.1v-0.5l0.1-0.8h0.1v-0.3
	c0.1-0.6,0.3-1.3,0.4-1.9h0v0l0.2-0.8h0v-0.1l0.1-0.5h0.1v-0.3l0.1-0.5h0.1v-0.3l0.1-0.5h0.1v-0.2l0.2-0.6h0v-0.1l0.1-0.5h0.1v-0.2
	l0.2-0.6h0v-0.1c0.1-0.4,0.3-0.9,0.4-1.3l0,0l0,0l0.2-0.6h0v0l0.2-0.6h0v0l0.2-0.6h0v0l0.1-0.4h0.1V107l0.1-0.4h0.1v-0.2l0.2-0.4h0
	v-0.1l0.2-0.5h0v-0.1l0.2-0.6l0.2-0.4h0v-0.1l0.2-0.5h0v-0.1c0.3-0.7,0.5-1.3,0.8-2h0v-0.1l0.4-1h0v0l0.2-0.4h0v-0.1l0.4-0.9h0v0
	l0.2-0.4h0v-0.1l0.1-0.3h0.1v-0.1l0.4-0.9h0v0l0.2-0.4h0v-0.1c0.2-0.5,0.5-1,0.7-1.6c0.1-0.2,0.2-0.4,0.3-0.6h0v0l0.2-0.4h0v0
	l0.2-0.4h0v0l0.2-0.4c1.3-2.4,2.7-4.7,3.7-7.2c0.6-1.7,0.9-3.5,1.2-5.3h0v0c0.2-0.8,0.4-1.6,0.6-2.4l0,0v0c0.1-0.2,0.1-0.4,0.2-0.6
	h0v0c0.1-0.2,0.2-0.5,0.3-0.7c0,0,0,0,0,0c0-0.1,0.1-0.2,0.1-0.3c0,0,0,0,0,0c0,0,0,0,0,0v0c0.1-0.2,0.1-0.5,0.4-0.5
	c0.2,0.1,0.2,0.3,0.2,0.5l0.1,1v0h0l0.2,1.6V80h0.1l0.2,1.3v0.5h0.1l0.1,1.3v0.7h0.1l0.1,1.2v0.7h0.1l0.1,1.4v0.7h0.1l0.1,1.5v0.4h0
	l0.2,1.9v0.2h0l0.2,2.2V94h0c0.1,0.8,0.1,1.6,0.2,2.4v0.3h0l0.2,2.3v0.3h0l0.2,2.4v0.3h0l0.2,2.5v0.3h0l0.2,2.6v0.1h0l0.1,2l0.3,2.1
	v0l0,0l0.2,1.6v0l0,0c0.1,1.1,0.3,2.2,0.4,3.4v0.1h0c0.1,0.6,0.1,1.1,0.2,1.7v0.1h0c0.1,1.4,0.3,2.8,0.4,4.2v0.3h0
	c0.1,0.9,0.1,1.9,0.2,2.8v0.1h0c0.1,2.5,0.2,5.1,0,7.6h0v0.7c0,0.7-0.1,1.3-0.2,2h-0.1v0.5c-0.1,0.5-0.1,1-0.2,1.5h0v0.1
	c0,0.4-0.1,0.7-0.2,1.1h0v0.2c0,0.3-0.1,0.5-0.1,0.8h-0.1v0.3c0,0.2-0.1,0.5-0.1,0.7h-0.1v0.3c-0.2,0.8-0.4,1.6-0.6,2.4h0v0.1
	L356,145h-0.1v0.2l-0.1,0.4h-0.1v0.2l-0.1,0.4h-0.1v0.2l-0.1,0.4h-0.1v0.2l-0.2,0.4h0v0.1l-0.2,0.5h0v0c-0.2,0.5-0.4,0.9-0.6,1.4h0
	v0l-0.2,0.4h0v0.1l-0.2,0.3h-0.1v0.1l-0.1,0.3h-0.1v0.1l-0.1,0.3h-0.1v0.1l-0.2,0.3h0v0.1L353,152h0v0.1l-0.2,0.3h0v0l-0.1,0.2h-0.1
	v0.2l-0.1,0.2h-0.1v0.1l-0.2,0.3h0v0c-0.1,0.2-0.2,0.3-0.3,0.5l-0.3,0.5l0,0v0c-0.3,0.5-0.7,1.1-1,1.6l-0.4,0.6h0v0
	c-0.8,1.2-1.6,2.5-2.4,3.7h0v0.1l-0.4,0.5h0v0l-0.4,0.6h0v0c-0.2,0.3-0.4,0.5-0.6,0.8h0v0c-0.4,0.5-0.8,1.1-1.2,1.6h0v0
	c-0.3,0.3-0.5,0.7-0.8,1h0v0l-0.2,0.2H344v0.1l-0.1,0.1h-0.1v0.1c-0.2,0.2-0.4,0.5-0.6,0.7h0v0l-0.2,0.2h0v0l-0.2,0.2h0v0.1
	l-0.1,0.2h-0.1v0.1l-0.1,0.1h-0.1v0.1c-0.6,0.7-1.3,1.3-1.9,2h-0.1v0.1l-0.1,0.1H340v0.1l-0.1,0.1h-0.1v0.1l-0.1,0.1h-0.1v0.1
	l-0.2,0.1h-0.1v0l-0.2,0.2h0v0c-0.1,0.1-0.3,0.3-0.5,0.4h-0.2v0.1l-0.1,0.1h-0.1v0.1l-0.1,0.1h-0.1v0.1l-0.2,0.1h0v0
	c-0.3,0.3-0.7,0.5-1.1,0.8c-6.3,4.4-11.3,10.1-15.9,16.1c-1.6,2.8-2.9,5.7-4.1,8.7c0,0,0-0.1,0-0.1c-0.2,0.5-0.4,0.9-0.6,1.4h0v0
	l-0.2,0.4h0v0.1l-0.1,0.3h-0.1v0.1c-0.1,0.3-0.3,0.6-0.4,0.9h0v0l-0.2,0.4h0v0l-0.2,0.4h0v0.1l-0.2,0.3h0v0.1c-0.6,1.3-1.3,2.7-2,4
	h0v0.1l-0.2,0.3h0v0.1l-0.2,0.4h0v0c-0.3,0.6-0.7,1.2-1,1.8h0v0.1l-0.2,0.3h0v0c-0.5,1-1.1,1.9-1.6,2.9h0v0l-0.6,1h0v0l-0.6,1h0v0
	l-0.6,1h0v0c-0.9,1.4-1.8,2.9-2.7,4.3h0v0l-1,1.6l0,0l0,0l-0.9,1.5c0,0,0,0.1-0.1,0.1c0,0,0,0,0-0.1c-0.2,0.4-0.4,0.8-0.7,1.2h0v0
	c-0.2,0.3-0.4,0.7-0.6,1h0v0.1c-0.2,0.3-0.4,0.6-0.6,1h0v0.1c-0.2,0.3-0.4,0.7-0.6,1h0v0c-0.4,0.6-0.8,1.2-1.2,1.8h0v0.1l-0.4,0.6h0
	v0l-0.4,0.6h0v0l-0.4,0.6l0,0v0c-0.5,0.8-1.1,1.5-1.6,2.3h0v0l-0.6,0.8h0v0l-0.6,0.8h0v0c-1.1,1.4-2.2,2.8-3.3,4.1h0v0
	c-1.3,1.5-2.6,3-3.9,4.5h0v0c-1.4,1.5-2.7,3-4.1,4.5h0v0c-1,1-1.9,2-2.9,3.1h0v0c-2.1,2.2-4.2,4.4-6.3,6.6c0.2-0.1,0.3-0.1,0.5-0.2
	l0.6-0.3h0v0c0.6-0.3,1.2-0.5,1.9-0.8l0,0c7.2-3.1,15.1-5.5,21.3-10.2c7.2-9.1,13.4-19.1,20.1-28.7h0v0c1.2-1.7,2.4-3.4,3.7-5.1h0v0
	l0.6-0.8h0v0c0.7-0.9,1.4-1.8,2.1-2.7h0v0c0.3-0.3,0.5-0.7,0.8-1h0v0c0.3-0.3,0.5-0.7,0.8-1h0v0c0.5-0.6,0.9-1.1,1.4-1.7
	c0,0-0.1,0.1-0.1,0.1c2.8-3.4,5.4-6.8,8.2-10.2h0v0c0.3-0.4,0.7-0.8,1-1.2h0v0c0.4-0.5,0.8-1,1.2-1.4h0v0c1.3-1.5,2.7-3,4.1-4.5h0v0
	l0.2-0.2h0v0l0.2-0.2h0v0l0.2-0.2h0v0l0.2-0.2h0v0l0.2-0.2l0,0v0l0.4-0.4c0,0-0.1,0.1-0.1,0.1c1.3-1.4,2.7-2.6,4.2-3.8h0v0
	c0.3-0.3,0.7-0.5,1-0.8h0v0c0.3-0.2,0.5-0.4,0.8-0.6h0v0c0.3-0.2,0.5-0.4,0.8-0.6v0c0.2-0.1,0.4-0.3,0.6-0.4h0v0l0.6-0.4h0.1v0
	l0.6-0.4h0.1v0l0.6-0.4h0v0l0.6-0.4h0v0c0.3-0.2,0.7-0.4,1-0.6h0v0c0.3-0.2,0.7-0.4,1-0.6h0v0c0.5-0.3,1-0.5,1.4-0.8h0l0,0
	c1.7-1,3.5-1.8,5.4-2.7h0c3-1.4,6.1-2.6,9.2-3.7h0v0c0.6-0.2,1.2-0.4,1.8-0.6c0,0,0,0,0,0c0,0,0,0,0,0c0,0,0.1,0,0.1,0
	c0,0,0,0,0.1,0c0,0,0.1,0,0.1,0v0.3c0,0-0.1,0-0.1,0c-0.1,0-0.1,0-0.2,0.1c-1.8,1.1-3.3,2.7-4.9,4.1c-9.2,9.2-16.7,19.8-21.4,32
	c-1.6,3.7-3.2,7.4-5,11h0v0l-0.2,0.4h0v0c-0.4,0.8-0.8,1.6-1.2,2.4h0v0l-0.2,0.4h0v0c-0.7,1.4-1.5,2.8-2.3,4.1h0v0
	c-0.2,0.3-0.4,0.7-0.6,1h0v0c-0.3,0.5-0.7,1.1-1,1.6h0v0l-0.4,0.6h0v0l-0.4,0.6h0v0l-0.4,0.6h0v0c-0.3,0.5-0.7,1-1,1.4h0v0
	c-0.2,0.3-0.4,0.5-0.6,0.8h0v0c-0.3,0.3-0.5,0.7-0.8,1h0v0l-0.2,0.2h-0.1v0.1c-0.3,0.3-0.5,0.6-0.8,1h0v0c-0.7,0.8-1.5,1.7-2.3,2.4
	h0l0,0l-0.2,0.2l0,0v0l-0.2,0.2l0,0l0,0c-0.4,0.4-0.9,0.8-1.3,1.3c-2.7,3.4-5.7,6.9-9.2,9.6h0v0c-1.4,1.1-2.9,2.2-4.5,3.1h0v0
	l-0.4,0.2h0v0l-0.3,0.2h-0.1v0l-0.3,0.2h-0.1v0c-0.3,0.1-0.5,0.3-0.8,0.4h0v0c-0.3,0.1-0.6,0.3-1,0.4h0v0c-0.2,0.1-0.3,0.1-0.5,0.2
	h-0.1v0c-0.3,0.1-0.7,0.2-1,0.3c-0.5,0.2-1.1,0.3-1.6,0.4h0v0c-0.6,0.1-1.2,0.3-1.7,0.4h-0.1v0c-0.7,0.1-1.3,0.3-2,0.4h-0.1v0
	c-0.4,0.1-0.8,0.1-1.2,0.2h-0.1v0c-0.9,0.2-1.9,0.3-2.8,0.4h-0.1v0c-0.5,0.1-1.1,0.1-1.6,0.2h-0.1v0c-8,0.9-16,1.3-23.5,4.6
	c0.1,0,0.1-0.1,0.2-0.1c-5.6,2.1-9.6,6.8-13.9,10.9h0v0c-0.6,0.6-1.2,1.1-1.8,1.6h0v0c-0.4,0.3-0.8,0.6-1.1,0.9c0,0,0.1-0.1,0.1-0.1
	c-2.4,1.9-4.8,3.8-7.2,5.7c0,0,0,0,0.1-0.1c-0.3,0.2-0.6,0.4-0.9,0.6c0,0,0,0,0.1,0c-0.1,0.1-0.2,0.1-0.3,0.2c0.1,0,0.1-0.1,0.2-0.1
	c-0.2,0.2-0.5,0.3-0.8,0.3c0,0,0,0,0,0c0,0,0,0-0.1,0c0,0-0.1,0-0.1,0c-0.6,0-1.2-0.3-1.1-1.1c0.3-0.8,0.9-1.4,1.6-2L250.2,274.7z"
	/>
<path class="st1" d="M296.9,123.7C296.9,123.7,296.9,123.7,296.9,123.7C296.9,123.7,296.9,123.8,296.9,123.7
	C296.9,123.8,296.9,123.7,296.9,123.7"/>
<path class="st1" d="M351.3,186.4C351.3,186.4,351.3,186.4,351.3,186.4C351.3,186.4,351.3,186.4,351.3,186.4
	C351.3,186.4,351.3,186.4,351.3,186.4"/>
<path class="st1" d="M302.2,126.9C302.2,126.8,302.2,126.8,302.2,126.9C302.2,126.8,302.2,126.8,302.2,126.9
	C302.2,126.8,302.2,126.8,302.2,126.9"/>
<path class="st1" d="M296.9,123.8c0,0,0,0.1,0,0.1C296.9,123.9,296.9,123.8,296.9,123.8C296.9,123.8,296.9,123.8,296.9,123.8
	C296.9,123.8,296.9,123.8,296.9,123.8L296.9,123.8C296.9,123.8,296.9,123.8,296.9,123.8C296.9,123.8,296.9,123.8,296.9,123.8"/>
<path class="st1" d="M347.9,205.1C347.9,205.1,347.9,205.1,347.9,205.1c0,0.1-0.1,0.1-0.1,0.2C347.9,205.2,347.9,205.2,347.9,205.1"
	/>
<path class="st1" d="M308.3,160.5C308.3,160.5,308.3,160.5,308.3,160.5C308.3,160.5,308.3,160.5,308.3,160.5
	C308.3,160.5,308.3,160.5,308.3,160.5"/>
<path class="st1" d="M308,163.9C308,163.9,308,163.9,308,163.9C308,163.9,308,163.9,308,163.9"/>
<path class="st1" d="M305.2,82.2C305.2,82.2,305.2,82.2,305.2,82.2C305.2,82.2,305.2,82.2,305.2,82.2
	C305.2,82.2,305.2,82.2,305.2,82.2"/>
<path class="st1" d="M363.3,174.6C363.4,174.6,363.4,174.6,363.3,174.6c0.1-0.1,0.1-0.1,0.1-0.1
	C363.4,174.5,363.4,174.6,363.3,174.6"/>
<path class="st1" d="M283.4,165.7C283.4,165.7,283.4,165.7,283.4,165.7C283.4,165.7,283.4,165.7,283.4,165.7
	C283.4,165.7,283.4,165.7,283.4,165.7"/>
<path class="st1" d="M260.9,195.8C260.8,195.8,260.8,195.8,260.9,195.8C260.8,195.8,260.8,195.8,260.9,195.8
	C260.8,195.8,260.9,195.8,260.9,195.8"/>
<path class="st1" d="M257.2,199.8C257.2,199.8,257.2,199.8,257.2,199.8C257.2,199.8,257.2,199.8,257.2,199.8
	C257.2,199.8,257.2,199.8,257.2,199.8"/>
<path class="st1" d="M260,200C260,200,260,200,260,200C260,200,260,200,260,200z"/>
<path class="st1" d="M271.2,206.3C271.2,206.3,271.2,206.3,271.2,206.3C271.2,206.3,271.2,206.3,271.2,206.3
	C271.2,206.3,271.2,206.3,271.2,206.3"/>
<path class="st1" d="M260.5,196.7C260.5,196.7,260.5,196.7,260.5,196.7C260.5,196.7,260.5,196.7,260.5,196.7
	C260.5,196.7,260.5,196.7,260.5,196.7"/>
<path class="st1" d="M292.8,188.6C292.8,188.6,292.8,188.6,292.8,188.6C292.8,188.6,292.8,188.6,292.8,188.6
	C292.8,188.6,292.8,188.6,292.8,188.6"/>
<path class="st1" d="M265.2,238C265.2,238,265.2,238,265.2,238C265.2,238,265.2,237.9,265.2,238C265.2,237.9,265.2,238,265.2,238"/>
<path class="st1" d="M266.2,204.5C266.2,204.5,266.2,204.5,266.2,204.5C266.2,204.5,266.2,204.5,266.2,204.5
	C266.2,204.5,266.2,204.5,266.2,204.5"/>
<path class="st1" d="M281.8,169C281.7,169,281.7,168.9,281.8,169C281.7,168.9,281.7,168.9,281.8,169
	C281.7,168.9,281.7,169,281.8,169"/>
<path class="st1" d="M259.5,201.3C259.5,201.3,259.5,201.3,259.5,201.3C259.5,201.3,259.5,201.3,259.5,201.3
	C259.5,201.3,259.5,201.3,259.5,201.3"/>
<polyline class="st1" points="256.6,201.1 256.6,201.1 256.6,201.1 256.6,201.1 "/>
<path class="st1" d="M281.6,168.4C281.6,168.4,281.6,168.4,281.6,168.4C281.5,168.4,281.5,168.4,281.6,168.4
	C281.5,168.4,281.6,168.4,281.6,168.4"/>
<path class="st1" d="M294.2,218.3C294.2,218.3,294.2,218.3,294.2,218.3C294.2,218.3,294.2,218.3,294.2,218.3
	C294.2,218.3,294.2,218.3,294.2,218.3"/>
<path class="st1" d="M282.9,167L282.9,167C282.9,167,282.9,167,282.9,167C282.9,167,282.9,167,282.9,167"/>
<path class="st1" d="M283.5,172.3C283.5,172.3,283.5,172.3,283.5,172.3C283.5,172.3,283.5,172.3,283.5,172.3
	C283.5,172.3,283.5,172.3,283.5,172.3"/>
<path class="st1" d="M176.7,292.2L176.7,292.2l-0.6,0c-0.8-0.1-1.6-0.1-2.3-0.2v0h-0.1c-0.6-0.1-1.3-0.1-1.9-0.2v0h-0.2
	c-0.5-0.1-1-0.1-1.5-0.2v0h-0.3c-0.4-0.1-0.9-0.1-1.3-0.2v0h-0.4c-0.5-0.1-1-0.1-1.5-0.2v0h0c-0.9-0.1-1.8-0.3-2.7-0.4v0h-0.1
	c-0.4-0.1-0.8-0.1-1.2-0.2v0h-0.1l-1-0.2v0h-0.2l-1-0.2v0h-0.1c-1.3-0.2-2.7-0.5-4-0.8v0h-0.1l-0.7-0.2v0h-0.2l-0.8-0.2v0h-0.1
	l-0.8-0.2v0h-0.1c-1.3-0.3-2.7-0.7-4-1v0h-0.1l-0.7-0.2v0h0l-0.6-0.2v0h-0.1l-0.7-0.2v0h0l-0.6-0.2v0h-0.1l-0.7-0.2v0h0
	c-0.9-0.3-1.8-0.5-2.7-0.8v0h0l-0.6-0.2v0h0l-0.6-0.2v0h-0.1l-0.6-0.2v0h-0.1l-0.6-0.2v0h-0.1l-0.6-0.2v0h0l-0.6-0.2v0h0
	c-1-0.3-1.9-0.7-2.9-1v0h0l-1-0.4v0h-0.1l-1-0.4v0h-0.1l-0.5-0.2v0h0l-0.4-0.2v0h-0.1l-0.5-0.2v0h0c-0.8-0.3-1.5-0.6-2.3-0.9
	c-0.5-0.2-1.1-0.5-1.6-0.7v0h0l-0.4-0.2v0h-0.1c-0.5-0.2-0.9-0.4-1.4-0.6v0h0l-0.4-0.2v0h-0.1c-1-0.5-2-0.9-3-1.4v0h0l-0.4-0.2v0h0
	l-0.4-0.2v0h0l-0.4-0.2v0h0l-0.4-0.2v0h0l-0.4-0.2v0h0l-0.4-0.2v0h0l-0.4-0.2v0h0l-0.4-0.2v0h0c-1-0.5-2.1-1.1-3.1-1.6v0h0
	c-0.5-0.3-1-0.5-1.4-0.8v0h-0.1l-0.4-0.2l0,0h0l-1-0.6v0h0c-0.5-0.3-0.9-0.5-1.4-0.8v0h0c-0.9-0.5-1.8-1.1-2.7-1.6v0h0
	c-0.5-0.3-1.1-0.7-1.6-1v0h0l-0.6-0.4v0h0l-0.6-0.4v0h0c-0.8-0.5-1.6-1.1-2.4-1.6v0h0c-0.5-0.3-0.9-0.7-1.4-1v0h-0.1l-0.6-0.4v0h0
	l-0.8-0.6v0h-0.1l-0.6-0.4l0,0h0c-0.6-0.4-1.1-0.8-1.6-1.2v0h0l-0.8-0.6v0h0c-0.3-0.3-0.7-0.5-1-0.8v0h0l-0.8-0.6v0h0l-0.2-0.2v0
	h-0.1l-0.8-0.6v0h0c-0.8-0.7-1.6-1.3-2.5-2v0h0c-0.4-0.3-0.8-0.7-1.2-1v0h0l-0.2-0.2v0h0c-0.5-0.4-0.9-0.8-1.4-1.2v0h0l-0.2-0.2v0h0
	c-0.7-0.6-1.4-1.2-2-1.8v0h0l-0.2-0.2v0h0l-0.2-0.2v0h0l-0.2-0.2v-0.1h-0.1c-1.2-1.1-2.3-2.2-3.4-3.3c-1.1-1.1-2.2-2.3-3.3-3.4v-0.1
	h0l-0.2-0.2v0h0l-0.2-0.2v0h0l-0.2-0.2v0h0c-0.6-0.7-1.2-1.3-1.8-2v0h0l-0.2-0.2v0h0c-0.4-0.5-0.8-0.9-1.2-1.4v0h0l-0.2-0.2v0h0
	c-0.3-0.4-0.7-0.8-1-1.2v0h0c-0.7-0.8-1.4-1.6-2-2.5v0h0l-0.6-0.8v-0.1h0l-0.2-0.2v0h0l-0.6-0.8v0h0c-0.3-0.3-0.5-0.7-0.8-1v0h0
	l-0.6-0.8v0h0c-0.4-0.5-0.8-1.1-1.2-1.6v0l0,0l-0.4-0.6v-0.1h0l-0.6-0.8v0h0l-0.4-0.6v-0.1h0c-0.3-0.5-0.7-0.9-1-1.4v0h0
	c-0.6-0.8-1.1-1.6-1.6-2.4v0h0l-0.4-0.6v0h0l-0.4-0.6v0h0l-0.6-1v-0.1h0l-0.4-0.6v0h0c-0.6-0.9-1.1-1.8-1.6-2.7v0h0
	c-0.3-0.5-0.5-0.9-0.8-1.4v0h0c-0.2-0.3-0.4-0.7-0.6-1l-0.2-0.4v0h0c-0.3-0.5-0.5-1-0.8-1.4v0h0c-0.6-1-1.1-2-1.6-3.1v0h0l-0.2-0.4
	v0h0l-0.2-0.4v0h0l-0.2-0.4v0h0l-0.2-0.4v0h0l-0.2-0.4v0h0l-0.2-0.4v0h0l-0.2-0.4v0h0l-0.2-0.4v0h0l-0.2-0.4v0h0
	c-0.4-0.9-0.8-1.7-1.2-2.6v-0.1h0l-0.2-0.4v0h0c-0.2-0.5-0.4-0.9-0.6-1.4v-0.1h0l-0.2-0.4v0h0c-0.2-0.5-0.5-1.1-0.7-1.6
	c-0.3-0.8-0.6-1.5-0.9-2.3v0h0l-0.2-0.5v-0.1h0l-0.2-0.4v0h0l-0.2-0.5v-0.1h0l-0.4-1v-0.1h0c-0.5-1.3-1-2.6-1.4-3.9v0h0l-0.2-0.6v0
	h0l-0.2-0.6v-0.1h0l-0.2-0.6v-0.1h0l-0.2-0.6v-0.1h0l-0.2-0.6v0h0l-0.2-0.6v0h0c-0.3-0.9-0.6-1.8-0.8-2.7v0h0l-0.2-0.7v-0.1h0
	l-0.2-0.6v0h0l-0.2-0.7v-0.1h0l-0.2-0.6v0h0l-0.2-0.7v-0.1h0c-0.4-1.3-0.7-2.7-1-4v-0.1h0l-0.2-0.8V180h0l-0.2-0.8v-0.2h0l-0.2-0.8
	v-0.1h0c-0.3-1.3-0.6-2.7-0.8-4V174h0l-0.2-1v-0.2h0l-0.2-1v-0.1h0l-0.2-1.2v-0.1h0c-0.2-1.4-0.4-2.8-0.6-4.2V166h0
	c-0.1-0.4-0.1-0.9-0.2-1.3v-0.3h0c-0.1-0.5-0.1-1-0.2-1.5v-0.2h0c-0.1-0.6-0.1-1.3-0.2-1.9v-0.1h0c-0.1-0.8-0.1-1.5-0.2-2.3v-0.6h0
	c-0.2-3.5-0.4-7-0.4-10.5c0-2.6,0.1-5.2,0.2-7.8h0v0c0-0.9,0.1-1.8,0.2-2.6h0v-0.6c0.1-0.8,0.1-1.5,0.2-2.3h0v-0.2
	c0.1-0.7,0.1-1.4,0.2-2.1c0.1-0.5,0.1-1.1,0.2-1.6h0v-0.2c0.1-0.5,0.1-1,0.2-1.5h0v-0.2c0.1-0.5,0.1-1,0.2-1.5h0v0
	c0.1-0.5,0.1-0.9,0.2-1.4h0v0l0.2-1.2h0v-0.1c0.1-0.4,0.1-0.8,0.2-1.1h0v-0.1l0.2-1.1h0v-0.1l0.2-1h0v-0.2l0.2-1.1h0v0
	c0.2-1,0.4-1.9,0.6-2.9h0v-0.1l0.2-0.9h0v0l0.2-0.8h0v-0.1l0.2-0.7h0v-0.2c0.1-0.6,0.3-1.1,0.4-1.7h0v0c0.2-0.8,0.4-1.5,0.6-2.3h0
	v-0.1l0.2-0.7h0v-0.1c0.1-0.5,0.3-0.9,0.4-1.4h0v-0.1c0.1-0.5,0.3-0.9,0.4-1.4h0v-0.1c0.2-0.7,0.4-1.3,0.6-2h0v0l0.2-0.6h0v-0.1
	l0.2-0.6h0v-0.1l0.2-0.5h0v-0.1l0.2-0.5h0v-0.1l0.2-0.5h0v-0.1l0.2-0.5h0v-0.1l0.2-0.5h0v-0.1l0.2-0.5h0v0l0.2-0.6v0
	c0.2-0.5,0.4-1.1,0.6-1.6h0v0c0.2-0.5,0.4-1.1,0.6-1.6h0v0l0.4-1h0V94l0.4-1h0v-0.1l0.4-1h0v0c0.2-0.4,0.3-0.8,0.5-1.3
	c0.2-0.4,0.3-0.8,0.5-1.2h0v0l0.2-0.4h0V89c0.2-0.5,0.4-0.9,0.6-1.4h0v0l0.2-0.4h0v-0.1c0.3-0.7,0.7-1.5,1-2.2h0v0
	c0.5-1.1,1.1-2.2,1.6-3.3h0v-0.1l0.2-0.3h0v-0.1l0.2-0.3h0v-0.1l0.2-0.3h0v-0.1l0.2-0.4h0v0l0.2-0.4h0v0c0.5-0.9,0.9-1.8,1.4-2.7h0
	v0c0.3-0.5,0.5-1,0.8-1.4h0v0c0.3-0.5,0.5-0.9,0.8-1.4h0v0c0.6-1,1.2-2,1.8-3h0v0c0.3-0.5,0.7-1.1,1-1.6h0v0l0.4-0.6h0v-0.1
	c0.9-1.4,1.9-2.9,2.9-4.3h0v0l0.4-0.6h0v0l0.6-0.8h0v-0.1l0.4-0.6h0v0c1-1.4,2-2.7,3.1-4.1h0v0c0.3-0.3,0.5-0.7,0.8-1h0v-0.1
	l0.6-0.8h0v0c0.6-0.8,1.2-1.5,1.9-2.3l0,0v0c0.4-0.5,0.8-1,1.2-1.4h0v0l0.2-0.2h0v-0.1c0.4-0.5,0.8-0.9,1.2-1.4h0v0
	c0.5-0.6,1.1-1.2,1.6-1.8h0v0l0.2-0.2h0v0c1.2-1.3,2.4-2.6,3.7-3.9h0l0.2-0.2h0v0l0.2-0.2h0v0l0.2-0.2l0.2-0.2h0v0l0.2-0.2h0v0
	l0.2-0.2c1.3-1.3,2.6-2.5,3.9-3.7h0v0L89,40h0v0c0.6-0.6,1.2-1.1,1.8-1.6h0v0l0.2-0.2h0v0c0.4-0.3,0.8-0.7,1.2-1h0.1V37l0.2-0.2h0v0
	c0.5-0.4,0.9-0.8,1.4-1.2h0v0c0.4-0.3,0.8-0.7,1.2-1h0v0c0.3-0.3,0.7-0.5,1-0.8h0v0l0.8-0.6H97v-0.1l0.2-0.2h0v0l0.8-0.6h0v0
	c0.3-0.3,0.7-0.5,1-0.8h0v0l0.8-0.6h0v0l0.8-0.6h0v0c0.5-0.3,0.9-0.7,1.4-1h0v0l0.8-0.6h0v0l0.6-0.4h0v0c0.7-0.5,1.4-0.9,2-1.4h0v0
	l0.6-0.4h0v0l0.6-0.4h0v0l0.6-0.4h0v0c0.5-0.3,1.1-0.7,1.6-1h0.1v0l0.6-0.4h0v0c0.5-0.3,1.1-0.7,1.6-1h0v0c0.3-0.2,0.7-0.4,1-0.6h0
	v0l1-0.6h0v0l0.3-0.2h0.1v0l1-0.6h0v0c0.5-0.3,0.9-0.5,1.4-0.8h0v0c0.7-0.4,1.5-0.8,2.2-1.2h0v0l0.4-0.2h0v0l0.3-0.2h0.1v0
	c1.9-1,3.8-1.9,5.7-2.8h0v0l0.4-0.2h0v0c0.6-0.3,1.2-0.5,1.8-0.8h0.1v0l0.4-0.2h0v0c0.6-0.3,1.2-0.5,1.8-0.8h0l0,0l0.8-0.3
	c0.5-0.2,1.1-0.5,1.7-0.7h0v0l1-0.4h0v0l1-0.4h0v0l0.5-0.2h0.1v0c0.3-0.1,0.6-0.3,1-0.4h0.1v0c3-1.1,6-2.1,9-3.1h0v0
	c0.4-0.1,0.9-0.3,1.3-0.4h0.1v0l0.6-0.2h0l0,0l0.7-0.2h0.1v0c0.5-0.1,0.9-0.3,1.4-0.4h0v0c1.3-0.4,2.7-0.7,4-1h0.1v0l0.8-0.2h0.1v0
	l0.8-0.2h0.2v0l0.7-0.2h0.1v0c1.3-0.3,2.6-0.6,4-0.8h0.2v0l1-0.2h0.1v0c0.4-0.1,0.7-0.1,1.1-0.2h0.1v0l1.1-0.2h0.1v0
	c0.8-0.1,1.7-0.3,2.5-0.4h0.1v0c0.4-0.1,0.9-0.1,1.3-0.2h0.3v0c0.4-0.1,0.9-0.1,1.3-0.2h0.3v0c0.5-0.1,1-0.1,1.4-0.2h0.2v0
	c0.6-0.1,1.2-0.1,1.8-0.2h0v0c0.8-0.1,1.5-0.1,2.3-0.2h0.6v0c0.8-0.1,1.6-0.1,2.4-0.2h0.2v0c1.5-0.1,3.1-0.2,4.6-0.2h7.7
	c1.5,0,3.1,0.1,4.6,0.2v0h0.3c0.9,0.1,1.7,0.1,2.6,0.2v0h0.4c0.8,0.1,1.5,0.1,2.3,0.2v0h0.1c0.6,0.1,1.2,0.1,1.8,0.2v0h0.3
	c0.5,0.1,1.1,0.1,1.6,0.2v0h0.2c0.5,0.1,1,0.1,1.5,0.2v0h0.1c1.3,0.2,2.7,0.4,4,0.6v0h0.2l1,0.2v0h0.2l1,0.2v0h0.1
	c0.4,0.1,0.7,0.1,1.1,0.2l0,0h0l1,0.2v0h0l1,0.2v0h0l1,0.2l0,0h0l0.8,0.2v0h0.1l0.9,0.2v0h0l0.8,0.2v0h0.1c1.6,0.4,3.2,0.8,4.8,1.2
	v0h0.1l0.7,0.2v0h0l0.6,0.2v0h0.2l0.7,0.2v0h0.1c0.5,0.1,0.9,0.3,1.4,0.4v0h0c0.9,0.3,1.8,0.5,2.7,0.8v0h0l0.6,0.2v0h0l0.6,0.2v0h0
	l0.6,0.2v0h0.1l0.6,0.2v0h0l0.6,0.2v0h0l0.6,0.2v0h0c0.8,0.3,1.5,0.5,2.3,0.8v0h0c0.5,0.2,1.1,0.4,1.6,0.6v0h0l1,0.4v0h0.1l1,0.4v0
	h0.1l0.9,0.4v0h0.1c0.4,0.2,0.8,0.3,1.3,0.5c0.4,0.2,0.8,0.3,1.1,0.5v0h0.1c0.5,0.2,0.9,0.4,1.4,0.6v0h0l0.4,0.2v0h0.1
	c0.5,0.2,0.9,0.4,1.4,0.6v0h0l0.4,0.2v0h0c2.8,1.3,5.5,2.7,8.2,4.1v0h0c0.5,0.3,1,0.5,1.4,0.8v0h0.1l0.3,0.2v0h0
	c0.5,0.3,0.9,0.5,1.4,0.8v0h0c0.5,0.3,0.9,0.5,1.4,0.8v0h0l1,0.6v0h0c0.5,0.3,1.1,0.7,1.6,1v0h0c0.5,0.3,1.1,0.7,1.6,1v0h0l0.6,0.4
	v0h0c1,0.7,2,1.3,3,2v0h0l0.6,0.4v0h0l0.6,0.4l0.8,0.6v0h0.1l0.6,0.4v0h0c1.1,0.8,2.2,1.6,3.3,2.4v0h0.1l0.8,0.6v0h0l0.8,0.6v0h0
	l0.2,0.2v0h0.1l0.8,0.6v0h0c0.3,0.3,0.7,0.5,1,0.8v0h0c0.4,0.3,0.8,0.7,1.2,1v0h0c0.4,0.3,0.8,0.7,1.2,1v0h0l0.2,0.2v0h0
	c0.5,0.4,0.9,0.8,1.4,1.2v0h0c0.6,0.5,1.2,1.1,1.8,1.6v0h0c1,0.9,1.9,1.8,2.9,2.7v0l0,0l0.2,0.2v0h0l0.2,0.2v0h0l0.2,0.2v0h0
	l0.2,0.2v0h0c0.3,0.3,0.6,0.5,0.8,0.8c0.3,0.3,0.4,0.9,0.2,1.2h0v0c0,0.1-0.1,0.1-0.2,0.2c-0.4,0.4-1.1,0.4-1.5,0
	c-27-26.7-62.9-41.4-100.9-41.4c-79.2,0-143.6,64.3-143.6,143.3s64.4,143.3,143.6,143.3c14.6,0,28.9-2.2,42.7-6.4
	c0.5-0.2,1.1,0.1,1.3,0.7c0.2,0.5-0.1,1.1-0.7,1.3c-0.4,0.1-0.8,0.2-1.2,0.4h-0.1v0l-0.6,0.2h0v0l-0.7,0.2h-0.2v0l-0.5,0.2H227v0.1
	l-0.5,0.1h-0.4v0.1l-0.4,0.1h-0.2v0.1l-0.5,0.1h-0.3v0.1l-0.5,0.1h-0.4v0.1l-0.4,0.1h-0.2v0l-0.6,0.2h-0.2v0l-0.7,0.2h-0.2v0
	c-1.1,0.3-2.3,0.5-3.4,0.8h-0.3v0.1l-0.7,0.1h-0.3v0.1l-0.7,0.1h-0.4v0.1l-0.7,0.1h-0.4v0.1l-0.7,0.1h-0.5v0.1l-0.6,0.1h-0.4v0.1
	l-0.8,0.1h-0.3v0l-1,0.2h0v0c-0.9,0.1-1.8,0.3-2.7,0.4h-0.4v0.1l-1.1,0.2h-0.5v0.1l-1.1,0.1h-0.7v0.1l-1.1,0.1H202v0.1
	c-0.4,0-0.9,0.1-1.3,0.1h-0.5v0c-1.7,0.2-3.4,0.3-5.1,0.4h-2.3v0.1c-1.8,0.1-3.7,0.1-5.5,0.1C183.7,292.6,180.2,292.5,176.7,292.2"
	/>
<path class="st1" d="M193.3,186.8c7.6-0.4,13.3-4.2,18.3-9.4c9.5-9.7,19.2-19.2,28.8-28.9c1.1-1.1,1.8-1.2,2.9,0
	c3.7,3.9,7.6,7.6,11.4,11.4c2.3,2.3,3.7,2.2,5.7-0.3c1.7-2.1,3.4-4.3,5-6.5c1.4-1.9,1.3-3.6-0.2-4.6c-1.5-1.1-3.1-0.6-4.5,1.2
	c-0.9,1.2-1.9,2.4-2.8,3.6c-0.5,0.6-0.9,0.7-1.5,0.1c-0.4-0.4-0.9-0.9-1.3-1.3c-7.8-7.8-15.7-15.7-23.6-23.5c-1-1-1.1-1.5,0.1-2.4
	c10.3-7.8,20.6-15.8,30.9-23.7c0.4-0.3,0.9-0.6,1.3-1c1.2-1.1,1.5-2.9,0.6-4.1c-0.9-1.2-2.6-1.5-4-0.6c-1.1,0.7-2,1.5-3.1,2.3
	c-10.8,8.3-21.6,16.5-32.4,24.8c-2.8,2.1-2.8,3.6-0.3,6.1c3.9,3.9,7.8,7.9,11.8,11.7c1,1,1,1.5,0,2.5c-5.6,5.5-11.2,11.2-16.8,16.7
	c-2.4,2.4-4.8,4.9-7.3,7.2c-1.4,1.3-3.3,1.1-5,1.4c-10.2,1.6-20.3,1.5-30.1-2.2c-4.2-1.5-7.8-3.8-11-7
	C140.2,134.2,114,108.1,87.8,82c-0.6-0.6-1.2-1.4-2.1-1.7c-1.3-0.5-2.4-0.2-3.3,0.8c-0.9,1-1,2.2-0.2,3.4c0.5,0.6,1,1.2,1.6,1.7
	c16.6,16.6,33.3,33.2,50,49.8c1.3,1.3,1.4,2,0.2,3.5c-8.3,10.7-7.4,23.6,2.2,33.2c7.4,7.4,14.7,14.7,22.1,22.1
	c1.8,1.8,1.8,1.9-0.6,2.7c-15,5.3-28.7,3.2-40.4-7.8C108,181,99.1,171.7,90,162.6c-0.6-0.6-1.2-1.3-1.9-1.6
	c-1.3-0.6-2.5-0.3-3.5,0.7c-0.9,1-0.9,2.2-0.2,3.4c0.3,0.5,0.8,0.9,1.2,1.4c8.8,8.8,17.7,17.7,26.5,26.5
	c9.2,9.1,20.2,13.6,33.2,13.2c6.2-0.2,12.1-1.7,17.6-4.4c1.2-0.6,1.9-0.5,2.9,0.5c3.4,3.3,6.5,6.9,10.7,9.4c8.7,5,20.8,3.6,28.1-3.3
	c0.7-0.6,1.3-1.3,2-1.9c2.3-2.3,2.3-3.6,0-6c-3.9-3.9-7.9-7.8-11.8-11.8C194.2,188.1,193.6,187.8,193.3,186.8 M188.2,208.6
	c-5,0.2-9.2-1.6-12.8-4.9c-0.8-0.7-1.5-1.4-2.2-2.2c-11.1-11.1-22.3-22.2-33.3-33.3c-6.8-6.8-7.5-17.4-1.8-24.4
	c1.4-1.7,1.4-1.7,3-0.2c7.9,7.9,15.8,15.8,23.7,23.6c11.7,11.6,23.4,23.3,35.1,34.9c1,1,1.1,1.5-0.1,2.5
	C196.4,207.3,192.6,208.7,188.2,208.6z M204.5,175.9c-6.4,6.8-18.8,6.7-23.2-1.3C189,176.5,196.7,176.6,204.5,175.9z"/>
<path class="st1" d="M166.2,189.3c1.2,0,2.2-0.5,2.7-1.6c0.5-1.2,0.4-2.3-0.5-3.2c-1.8-1.9-3.7-3.7-5.5-5.6
	c-2.3-2.3-4.5-4.6-6.8-6.8c-1.5-1.5-3.1-1.7-4.3-0.5c-1.3,1.2-1.3,3,0.2,4.5c4,4.1,8.1,8.1,12.1,12.1
	C164.6,188.9,165.3,189.3,166.2,189.3"/>
<path class="st1" d="M168.5,191.5c0,1.8,2.5,4.3,4.3,4.4c1.6,0,2.9-1.3,2.9-2.9c0-1.7-2.6-4.3-4.4-4.3
	C169.8,188.7,168.5,190,168.5,191.5"/>
<path class="st0" d="M7.1,317.2H409c3.9,0,7.1,3.2,7.1,7.1v85.5c0,3.9-3.2,7.1-7.1,7.1H7.1c-3.9,0-7.1-3.2-7.1-7.1v-85.5
	C0,320.4,3.2,317.2,7.1,317.2"/>
<g>
	<path d="M41.4,389.2h4.7c0.7,0,1-0.3,1-1v-40.9c0-0.7-0.3-1-1-1h-4.7c-0.7,0-1-0.3-1-1c0-0.7,0.3-1,1-1h7.4c0.8,0,1.4,0.3,1.7,1
		l18.9,41.6c0.4,0.9,0.9,0.9,1.4,0l18.9-41.6c0.3-0.7,0.9-1,1.7-1h7.4c0.7,0,1,0.3,1,1c0,0.7-0.3,1-1,1h-4.7c-0.7,0-1,0.3-1,1v40.9
		c0,0.7,0.3,1,1,1h4.7c0.7,0,1,0.3,1,1c0,0.7-0.3,1-1,1H86c-0.7,0-1-0.3-1-1c0-0.7,0.3-1,1-1H90c0.7,0,1-0.3,1-1V349
		c0-0.4-0.1-0.6-0.3-0.5c-0.1,0-0.2,0.1-0.3,0.2l-18.9,41.6c-0.4,0.7-0.9,1-1.5,1c-0.6,0-1.1-0.3-1.5-1l-18.9-41.6
		c-0.2-0.3-0.3-0.3-0.4-0.2c-0.1,0.1-0.1,0.3-0.1,0.5v39.2c0,0.7,0.3,1,1,1h4.1c0.7,0,1,0.3,1,1c0,0.7-0.3,1-1,1H41.4
		c-0.7,0-1-0.3-1-1C40.4,389.5,40.7,389.2,41.4,389.2z"/>
</g>
<g>
	<path d="M119.9,357c3.8,0,6.8,1.1,9.1,3.2c2.3,2.1,3.4,4.7,3.4,7.9v20.1c0,0.7,0.3,1,1,1h4.7c0.7,0,1,0.3,1,1c0,0.7-0.3,1-1,1h-6.8
		c-0.7,0-1-0.3-1-1v-3.8c0-0.4-0.1-0.8-0.3-0.9c-0.2-0.2-0.5-0.1-0.8,0.3c-1.2,1.5-2.9,2.9-5.1,4.2c-2.2,1.3-4.4,1.9-6.8,1.9
		c-4.2,0-7.4-0.9-9.5-2.8c-2.2-1.9-3.2-4.3-3.2-7.2c0-2.9,1.2-5.4,3.7-7.3c2.5-1.9,5.7-2.8,9.8-2.8h11.1c0.7,0,1-0.3,1-1v-2.7
		c0-2.6-1-4.7-3-6.5c-2-1.7-4.4-2.6-7.3-2.6c-2.9,0-5.2,0.4-7.1,1.2c-1.8,0.8-3.1,1.5-3.9,2c-0.7,0.6-1.3,0.6-1.7,0.1
		c-0.4-0.5-0.3-1,0.2-1.3C111,358.4,115,357,119.9,357z M130.5,374.8c0-0.7-0.3-1-1-1h-11.1c-3.9,0-6.8,0.8-8.7,2.3
		c-1.9,1.5-2.8,3.5-2.8,5.8s0.9,4.3,2.6,5.8c1.7,1.5,4.4,2.2,7.9,2.2c4.4,0,8.2-2.2,11.5-6.6c0.6-0.8,1.1-1.6,1.6-2.5V374.8z"/>
	<path d="M144.1,389.2h4.7c0.7,0,1-0.3,1-1v-27.5c0-0.7-0.3-1-1-1h-4.7c-0.7,0-1-0.3-1-1c0-0.7,0.3-1,1-1h6.8c0.7,0,1,0.3,1,1v3.8
		c0,0.4,0.1,0.8,0.3,0.9c0.2,0.2,0.4,0.1,0.8-0.3c3.6-4.1,7.6-6.1,11.9-6.1c4.3,0,7.6,1.2,9.9,3.5c2.3,2.3,3.5,5.6,3.5,10v17.8
		c0,0.7,0.3,1,1,1h4.7c0.7,0,1,0.3,1,1c0,0.7-0.3,1-1,1h-12.8c-0.7,0-1-0.3-1-1c0-0.7,0.3-1,1-1h4.1c0.7,0,1-0.3,1-1v-17.8
		c0-3.8-1-6.6-3-8.5c-2-1.9-4.7-2.8-8.1-2.8c-3.4,0-6.7,1.5-9.7,4.6c-1.4,1.3-2.5,2.8-3.5,4.5v20.1c0,0.7,0.3,1,1,1h4.1
		c0.7,0,1,0.3,1,1c0,0.7-0.3,1-1,1h-12.8c-0.7,0-1-0.3-1-1C143.1,389.5,143.4,389.2,144.1,389.2z"/>
	<path d="M188.3,390.2c0-0.7,0.3-1,1-1h4.7c0.7,0,1-0.3,1-1v-27.5c0-0.7-0.3-1-1-1h-4.7c-0.7,0-1-0.3-1-1c0-0.7,0.3-1,1-1h6.8
		c0.7,0,1,0.3,1,1v29.5c0,0.7,0.3,1,1,1h4.7c0.7,0,1,0.3,1,1c0,0.7-0.3,1-1,1h-13.5C188.6,391.2,188.3,390.9,188.3,390.2z
		 M193.8,351.6c-0.5-0.5-0.8-1.1-0.8-1.9c0-0.8,0.3-1.4,0.8-1.9c0.5-0.5,1.2-0.8,1.9-0.8c0.8,0,1.4,0.3,1.9,0.8
		c0.5,0.5,0.8,1.2,0.8,1.9c0,0.8-0.3,1.4-0.8,1.9c-0.5,0.5-1.2,0.8-1.9,0.8C194.9,352.3,194.3,352.1,193.8,351.6z"/>
</g>
<g>
	<path d="M235.8,366.1c-3.6-4.7-7.9-7-12.8-7c-3.6,0-6.7,1.4-9.2,4.3c-2.4,2.9-3.6,6.7-3.6,11.3c0,4.6,1.3,8.3,3.8,11.1
		c2.6,2.8,5.9,4.2,10.1,4.2c4.1,0,7.6-1.1,10.4-3.4c0.7-0.5,1.3-1,1.7-1.3c0.4-0.4,0.7-0.5,0.9-0.4c0.2,0.1,0.5,0.3,0.7,0.6
		c0.2,0.3,0.3,0.5,0.3,0.7s-0.2,0.5-0.6,0.9c-1.5,1.3-3.3,2.4-5.4,3.4c-2.1,1-4.9,1.5-8.1,1.5c-4.8,0-8.6-1.6-11.5-4.9
		c-2.9-3.2-4.4-7.4-4.4-12.6c0-5.1,1.4-9.3,4.3-12.6c2.8-3.2,6.4-4.9,10.8-4.9c4.3,0,8.2,1.7,11.6,5c0.7,0.6,1.1,0.4,1.1-0.7v-2.7
		c0-0.7,0.3-1,1-1c0.7,0,1,0.3,1,1v10.7c0,0.7-0.3,1-1,1c-0.7,0-1-0.3-1-1V366.1z"/>
	<path d="M243.5,357.7h6.8c0.7,0,1,0.3,1,1v19.8c0,3.8,1,6.6,3,8.5c2,1.9,4.7,2.8,8.1,2.8c3.4,0,6.6-1.5,9.7-4.5
		c1.3-1.4,2.5-2.9,3.6-4.6v-20.1c0-0.7-0.3-1-1-1h-4.7c-0.7,0-1-0.3-1-1c0-0.7,0.3-1,1-1h6.8c0.7,0,1,0.3,1,1v29.5c0,0.7,0.3,1,1,1
		h4.7c0.7,0,1,0.3,1,1c0,0.7-0.3,1-1,1h-6.8c-0.7,0-1-0.3-1-1v-3.8c0-0.4-0.1-0.8-0.3-0.9c-0.2-0.2-0.5-0.1-0.8,0.3
		c-3.6,4.1-7.6,6.1-11.9,6.1c-4.3,0-7.6-1.1-9.9-3.5c-2.3-2.3-3.5-5.6-3.5-10v-17.8c0-0.7-0.3-1-1-1h-4.7c-0.7,0-1-0.3-1-1
		C242.5,358,242.8,357.7,243.5,357.7z"/>
	<path d="M313.7,359c-5.7,0-10.4,2.2-14.2,6.6c-1.1,1.3-2,2.5-2.7,3.8v18.8c0,0.7,0.3,1,1,1h5.4c0.7,0,1,0.3,1,1c0,0.7-0.3,1-1,1
		h-14.2c-0.7,0-1-0.3-1-1c0-0.7,0.3-1,1-1h4.7c0.7,0,1-0.3,1-1v-27.5c0-0.7-0.3-1-1-1h-4.7c-0.7,0-1-0.3-1-1c0-0.7,0.3-1,1-1h6.8
		c0.7,0,1,0.3,1,1v5.3c0,1.1,0.5,1.1,1.4,0.1c1.7-1.9,3.8-3.5,6.5-4.9c2.7-1.4,5.7-2.1,8.9-2.1h3.3c0.7,0,1,0.3,1,1v8.4
		c0,0.7-0.3,1-1,1c-0.7,0-1-0.3-1-1V360c0-0.7-0.3-1-1-1H313.7z"/>
	<path d="M349.9,386.5c0.7-0.5,1.3-1,1.7-1.3c0.4-0.4,0.7-0.5,0.9-0.4c0.2,0.1,0.5,0.4,0.8,0.7c0.3,0.4,0.2,0.8-0.3,1.2
		c-1.6,1.4-3.5,2.6-5.6,3.6c-2.1,1-4.8,1.5-8.1,1.5c-4.8,0-8.6-1.6-11.5-4.9c-2.9-3.3-4.4-7.4-4.4-12.5s1.5-9.3,4.4-12.5
		c2.9-3.3,6.7-4.9,11.4-4.9s8.5,1.5,11.5,4.4c3,2.9,4.5,6.5,4.5,10.7v1c0,1.3-0.7,2-2,2h-26.6c-0.8,0-1.1,0.3-1,1
		c0.3,3.9,1.6,7.1,4,9.8c2.4,2.6,5.7,4,9.9,4C343.6,389.9,347.1,388.8,349.9,386.5z M325.6,372.3c0,0.5,0.3,0.8,0.9,0.8h25.6
		c0.7,0,1-0.3,1-1c0-3.6-1.3-6.6-4-9.2s-6-3.9-10-3.9c-4,0-7.3,1.4-9.8,4.2S325.6,369.1,325.6,372.3z"/>
</g>
</svg>
