<?xml version="1.0" encoding="utf-8"?>
<!-- Generator: Adobe Illustrator 16.0.0, SVG Export Plug-In . SVG Version: 6.00 Build 0)  -->
<!DOCTYPE svg PUBLIC "-//W3C//DTD SVG 1.1//EN" "http://www.w3.org/Graphics/SVG/1.1/DTD/svg11.dtd">
<svg version="1.1" id="Capa_1" xmlns="http://www.w3.org/2000/svg" xmlns:xlink="http://www.w3.org/1999/xlink" x="0px" y="0px"
	 width="100px" height="70px" viewBox="0 0 100 70" style="enable-background:new 0 0 100 70;" xml:space="preserve">
<style type="text/css">
<![CDATA[
	.st0{fill:none;stroke:#FFFFFF;stroke-width:0.25;stroke-linecap:round;stroke-linejoin:round;stroke-miterlimit:22.9256;}
	.st1{fill-rule:evenodd;clip-rule:evenodd;fill:#FFFFFF;}
]]>
</style>
<path class="st1" d="M73.9,19.4c-0.4-0.2-1.7-2.1-0.9-2.5C73.7,16.5,74.3,18.5,73.9,19.4z M87.2,25.2c-0.9,3.5-2.8,3-2.8-0.1
	c0-0.2,0-0.5,0-0.7c0.1-1.1,0.4-2.3,0.9-3.3c0.5-0.9,0.9-1.4,2.3-1.3C88.8,20.4,87.4,24.8,87.2,25.2z M40.1,19.3
	c-0.8-0.3-1.1-0.9-1.4-1.8c-1.1-2.5,1.5-3.1,1.7-0.6C40.4,17.7,40.4,18.7,40.1,19.3z M50.5,29.5c0-0.3,0.1-0.5,0.1-0.8
	c0.1-0.7,0.1-0.6,0.4-0.9c0.6,2,1.2,4.7,0.1,6.8C49.6,37.6,50.5,29.7,50.5,29.5z M6.9,28.5l0.2,0.2c0.5,0,0.9,0.2,1.4,0
	c0.6-0.2,0.5-0.5,0.7-0.9c0.3-1.9,1.8-5.5,2.6-7.1c0.8-1.7,2.2-5.1,4.4-4.7c1.1,1.3,0.3,3.6-0.1,5c-0.3,1.1-1.3,3.7-1.4,4.5
	c1.4,0.8,2.2,0.5,2.7-0.9c0.6-1.6,3.7-10.7,6-10.2c1.1,2.1-3,11.3-2.6,15.6c1,5,5.7-1.2,6.7-3c0.3-0.3,0.1-0.1,0.2-0.3
	c0.3,0.5,0.4,1,0.8,1.4c0.2,0.3,0.3,0.3,0.6,0.6c0.8,0.6,1.7,0.5,2.4-0.3c0.3-0.3,0.7-1,0.9-1.6l0.3-0.9c0.2,0.3,0-0.2,0.2,0.4
	c0.1,0.2,0,0.3,0,0.5c0.2,1.9,2,3.6,4,1.1c1.2-1.5,2.6-4.5,3.1-6.5l1.1,0.2c-0.1,0.6-0.7,2-0.9,2.6c-0.3,1.4-0.8,2.5-0.9,4.1
	c-0.1,0.8-0.1,1.7,0.1,2.5c0.6,2.1,2.7,2.2,3.9,0.3c0.6-0.9,1-2.4,1.5-3.1c1,0.8,2.6,1.9,3.8-0.5l0.4-0.9c0.2,0.4,0.2-0.4,0.1,0.4
	c0,1.7-1.2,4.6-0.7,7c0.5,2.6,2.8,2.6,3.7,0.1c0.8-2,0.5-4.8-0.2-6.7c-0.5-1.4-0.7-1.1-0.3-2.7c0.2-0.8,0.7-2.6,0.7-3.3l-0.5-0.3
	l-1.8,0c-0.4,1.1-0.3,2.8-0.8,4c-1.7,4.7-3.8,2.2-2.1-2.8c0.3-0.7,0.7-1.7,1.2-2.2c1.7-2.2,2-0.6,2.6-0.2c1-2.1-2.4-1.5-3.3-1
	c-1.9,1-3.1,3.4-3.4,5.6c-0.3,2.5,0.9,1.8-0.8,5.3c-1.6,3.3-3.1,1.2-1.1-5.5c0.3-0.8,1.2-2.4,1-3.2c-0.1-0.5-0.5-0.9-1-1
	c-0.5-0.2-0.8,0-1.3-0.2c-1.4-0.3,1.7-5.9-2.6-5.1c-1.2,0.6-1.1,1.7-0.7,3.6c0.1,0.5,0.4,1.1,0.7,1.5c0.4,0.6,0.6,0.9,1.1,1
	c-0.1,1.5-2.5,7.1-4.3,7c-1-1.3-0.4-4.9,0.1-6.7c0,0,0.1-0.4,0.1-0.4c0.3-0.7,0.7-1.4-0.3-1.7c-0.3-0.1-0.9-0.1-1.1-0.1
	c-0.6,0.2-0.1-0.1-0.5,0.5c-1.3-1.1-2.4-1-3.7,0c-3,2.2-1.7,4.7-2.8,6.7c-0.4,0.6-3.7,5.9-4.2,3.4c-0.2-0.7,0.3-2.8,0.5-3.5
	c0.9-3.6,2.4-7.6,2.2-11.3l-0.2-0.9c-1.3-1.6-2.2-1.4-3.5,0.1c-0.2,0.2-0.3,0.3-0.4,0.4c-0.2,0.3-0.4,0.5-0.7,0.9
	c-0.5,0.8-1,1.6-1.4,2.5C19,19,18.7,20,18.2,20.7c0.2-2.1,1.4-4.7-0.7-5.9c-4.4-0.5-5.8,5.5-7,7.1c0.1-1.1,1.6-6.2,2.2-7.9
	c0,0,0.2-0.5,0.2-0.5c0.1-0.8,0-0.3-0.1-0.5c-0.3-0.3-3.2-0.5-5.1,1.2c-0.9,0.9-2.1,2.8-1.8,4.8c1.5,0.2,1.3,0.1,1.4-1.2
	c0.1-1.7,1.2-4.2,3.3-4.1C10.5,15.9,6.1,27.4,6.9,28.5z M32.9,23.7c-1.1,5.4-3.5,4.8-3.2,0.7c0-0.7,0.1-1.3,0.3-2
	c0.9-3.1,3.8-3.6,3.3-0.7C33.2,22.4,33.1,23.1,32.9,23.7z M54,22c-0.4,1.9-1.6,6.8,0.8,7.1c1.5,0.2,3-2.2,3.6-3.4l0.8-1.4
	c0,0,0.1-0.1,0.1-0.1c-0.1,2.8,0.2,6.2,3.5,3.3c0.6-0.5,0.6-1,1.1-1.5c0.1,0,0.1,0,0.1,0.1c0,0.1,0.1,0.3,0.1,0.3
	c0.4,1.6,0.9,2.8,2.8,3c1.4,0.1,2.4-0.6,3.1-1.2c0.9-0.9,2.8-3.8,3.3-5.6l0.2-0.5c1.8,0.4,2.3,0.6,4.3,0.3l1.1-0.2
	c-0.2,1.9-2.9,3.9-4.2,5.2c-0.1,1.8,0.1,1.5,1.1,2.4c0.5,0.4,1.4,1.1,1.6,2c-1.9,1-3.1,1.4-4.4,3.1c-2.4,3.2-1.5,6.8,2.6,5.5
	c3.3-1,5.2-3.9,4.6-7.5l-0.4-1.5c1-0.7,2-2.2,2.5-3.4c0.3-0.6-0.1-0.2,0.4-0.4l0.2,0.5c1.5,3,3.8-0.3,4.5-1.8
	c0.4,3.2,2.3,4.3,4.3,1.7c0.7-0.9,1.1-1.8,1.6-2.8c0.2-0.4,0.3-0.6,0.5-1.1c0.3-0.7,0.7-1.5,0.8-2.3l-0.3-0.2
	c-0.7,1.5-2.2,6.7-4.3,6.6c-1.7-2,0.8-6.9,0.5-8.6c-0.3-0.1-0.9-0.3-1.3-0.3c-0.7,0-0.9,0.5-0.9,0.4c0,0-0.1,0.1-0.1,0.1
	c-0.5-0.9-1.6-0.9-2.7-0.5c-3.7,1.5-3,6.9-3.3,7.5c-0.2,1.1-1.6,3.4-2.7,3.8c-0.7-0.9-1.8-1.9-2.8-2.4c0.1-0.6,0.5-0.7,0.9-1.1
	c0.4-0.3,0.6-0.5,1-1c0.3-0.4,0.6-0.7,0.9-1.1c0.8-1.1,1.9-3,1.3-4.4c-0.8-1.6-4.3,1-6.5-0.9c0.3-1.6,0.5-3.4-1.6-3.2
	c-0.5,0.5-0.9,1-0.9,2c-0.1,2.4,1.1,2.1,1.3,3.6l-1.3,2.5c-2.5,5-6.5,3.7-6.1,0.2c0.9-0.3,1.5-0.3,2.4-0.8c3.7-2.3,2.3-6.9-1.1-5.4
	c-1.5,0.7-2.2,2.2-2.8,4.1c-0.1,0.7-0.1,2.1-0.4,2.6c-0.1,0.2-0.4,0.6-0.5,0.8c-0.6,0.7-0.9,1.4-1.8,1.3c-0.1-1,0-2,0.2-3
	c0.1-0.9,0.6-2.3,0.6-3c-0.7,0-1.3-0.3-2.3-0.1l-0.7,1.5c-0.3,1.2-2.7,5.8-3.6,5c-0.7-0.6,1.1-6.5,1.3-8.3c-1-0.3-2.2-0.6-2.4,0.3
	c0,0.1,0,0.2-0.1,0.3L54,22z M66.3,23.7c-0.4,0.1-0.2,0-0.5,0.1c0.1-1.6,1.9-5.4,3.8-3.7c0.3,1.2-0.2,2-0.8,2.4
	C68.2,23,66.9,23.5,66.3,23.7z M76.5,32.5c1.4-0.7,1.3-0.5,1.5,0.9c0,0.2,0,0.6,0,0.9c0,0.5-0.1,0.9-0.2,1.3
	c-0.3,1.5-1.1,2.8-2.4,3.6C71.5,41.5,70.8,35.4,76.5,32.5z"/>
<path class="st0" d="M29.4,34.4h1.2c1.2,0,1.2,1.6,0,1.6h-1.1h1.1c1.2,0,1.4,1.6,0,1.6h-1.2V34.4z"/>
<polyline class="st0" points="34.6,37.6 32.7,37.6 32.7,34.4 34.6,34.4 "/>
<line class="st0" x1="32.7" y1="35.9" x2="34.2" y2="35.9"/>
<polyline class="st0" points="37.7,37.8 36.5,34.5 35.3,37.8 "/>
<line class="st0" x1="35.8" y1="36.5" x2="37.2" y2="36.5"/>
<path class="st0" d="M38.4,34.4v2.2c0,1.5,2.2,1.3,2.2,0v-2.2"/>
<polyline class="st0" points="44.5,34.4 45.5,36 46.6,34.3 "/>
<line class="st0" x1="45.5" y1="37.8" x2="45.5" y2="36"/>
<line class="st0" x1="41.4" y1="34.4" x2="44" y2="34.4"/>
<line class="st0" x1="42.7" y1="34.5" x2="42.7" y2="37.7"/>
<line class="st0" x1="66.4" y1="34.5" x2="66.4" y2="37.7"/>
<line class="st0" x1="56" y1="34.4" x2="58.6" y2="34.4"/>
<line class="st0" x1="57.3" y1="34.5" x2="57.3" y2="37.7"/>
<path class="st0" d="M62.8,34.4h1.1c1.6-0.1,1.6,3.1,0,3.2h-1.1V34.4z"/>
<ellipse class="st0" cx="68.8" cy="36" rx="1.3" ry="1.7"/>
<path class="st0" d="M61.6,34.4v2.2c0,1.3-2.2,1.4-2.2,0v-2.2"/>
<path class="st0" d="M55.3,35c-0.8-1.5-2.9,0.3-0.9,1.1c2.3,0.7,0,2.8-1,1"/>
<path class="st1" d="M27.8,56.4c-0.1,0-0.2,0-0.3,0c0-0.1,0-0.2,0-0.3C27.6,56.2,27.7,56.3,27.8,56.4z M76,53.8c0,0.1,0,0.2,0,0.3
	c-0.1,0-0.2,0-0.3,0C75.8,54.1,75.9,53.9,76,53.8z M61.1,63.8C61.1,63.9,61,64,61,64.1c-0.1,0-0.2-0.1-0.3-0.1
	C60.9,63.9,61,63.9,61.1,63.8z M43.6,64.7c-0.1,0.1-0.2,0.1-0.3,0.2c-0.1-0.1-0.2-0.2-0.2-0.3C43.2,64.6,43.4,64.7,43.6,64.7z
	 M30.2,53.3c-1,0.1-1.5,1.4-0.8,1.2C29.8,54.4,30.1,53.9,30.2,53.3z M29.3,54.3c0.1-0.2,0.2-0.3,0.4-0.4
	C29.6,54,29.5,54.2,29.3,54.3z M73.1,51.4c0.1,1,1.4,1.5,1.2,0.9C74.1,51.8,73.6,51.4,73.1,51.4z M74,52.2c-0.2-0.1-0.3-0.2-0.4-0.4
	C73.7,51.9,73.9,52.1,74,52.2z M59.8,60.2c-0.4,0.9,0.5,2,0.6,1.4C60.5,61,60.3,60.5,59.8,60.2z M60.2,61.4C60.1,61.2,60,61,60,60.9
	C60.1,61,60.2,61.2,60.2,61.4z M44.1,60.9c-0.8,0.6-0.6,2-0.1,1.5C44.3,62,44.4,61.4,44.1,60.9z M43.8,62.2c0-0.2,0-0.4,0.1-0.6
	C44,61.8,43.9,62,43.8,62.2z M63.6,58.8c1.1-0.5,2-1.7,2.3-3.8c1.9,0.6,3.4,0.2,4.3-0.6c1.2,0.3,2.3,0.5,3.1,0.5
	c-1.3,0.5-2.5,1.8-3.3,4.3c-1,3.1-0.7,0.6-4.8,1.5c-0.9,0.2-1.8,0.6-2.5,1.3C63.1,61.1,63.4,60.1,63.6,58.8z M48.1,61.7
	c1.2,0.1,2.6-0.5,3.8-2.1c1.4,1.5,2.8,2,4,1.8c0.9,0.9,1.8,1.6,2.5,2.1c-1.4-0.2-3.1,0.3-5,2c-1.7,1.6-0.6,1.6-2.5,0.1
	c-2-1.5-3.7-1.8-5.1-1.5C46.5,63.4,47.2,62.7,48.1,61.7z M33.2,56.1c1,0.7,2.4,0.9,4.3,0.2c0.5,2,1.5,3.2,2.6,3.6
	c0.4,1.3,0.8,2.3,1.1,3.1c-1.1-0.9-2.8-1.4-5.3-0.9c-2.2,0.5-1.3,1-2.2-1.2c-1-2.3-2.3-3.5-3.7-4C31,56.8,32,56.5,33.2,56.1z
	 M40,59.2c-0.9-0.5-1.7-1.6-2.1-3.6c-1.7,0.8-3.1,0.7-4,0.2c1.4-0.5,2.9-1,4.8-1.7C39.1,56.1,39.6,57.8,40,59.2z M55.4,60.9
	c-1.1,0-2.3-0.5-3.6-2c-1.1,1.6-2.3,2.2-3.4,2.3c1-1.1,2-2.4,3.3-4C53.2,58.7,54.4,59.9,55.4,60.9z M69.6,54.3
	c-0.9,0.6-2.2,0.8-4,0.1c-0.2,2-0.9,3.1-1.8,3.8c0.3-1.5,0.6-3.2,0.9-5.2C66.6,53.5,68.2,53.9,69.6,54.3z M32.8,55.8
	c-1.4,0.4-2.9,0.6-4.4,0.6c-0.2-0.1-0.5-0.2-0.6-0.4c-0.2-0.2-0.3-0.4-0.4-0.7c-0.1-1.5-0.1-3.1,0.2-4.6c1.1,1.1,2.9,1.3,4.1,0.8
	C31.3,52.9,31.7,54.7,32.8,55.8z M47.6,61.6c-1.1,1.1-2.2,2.1-3.6,2.8c-0.4,0.1-0.9,0-1.3-0.3c-0.9-1.3-1.6-2.7-2.1-4.2
	c1.5,0.4,3.1-0.3,4-1.4C44.9,59.9,46.1,61.3,47.6,61.6z M63.2,59c-0.4,1.5-0.9,2.9-1.7,4.3c-0.2,0.2-0.4,0.3-0.6,0.4
	c-0.2,0-0.5,0-0.7,0c-1.4-0.6-2.6-1.5-3.7-2.5c1.5-0.5,2.6-1.9,2.7-3.3C60,58.9,61.7,59.5,63.2,59z M75.4,48.6
	c0.4,1.5,0.6,3,0.6,4.6c-0.1,0.2-0.2,0.5-0.3,0.7c-0.2,0.2-0.4,0.3-0.6,0.4c-1.5,0.2-3,0.1-4.4-0.2c1.1-1.2,1.3-3,0.8-4.3
	C72.6,50.2,74.4,49.8,75.4,48.6z M34.7,49.3c-0.4,0-0.8,0.1-1.3,0.3c0.2-0.5,0.2-0.9,0.2-1.3c0.2,0.1,0.4,0.2,0.7,0.3
	C34.4,48.9,34.5,49.1,34.7,49.3z M69.2,46.7c0,0.4,0.1,0.8,0.3,1.3c-0.5-0.2-0.9-0.2-1.3-0.2c0.1-0.2,0.2-0.5,0.3-0.7
	C68.8,46.9,69,46.8,69.2,46.7z M58.7,54.1c-0.2,0.3-0.3,0.8-0.4,1.3c-0.3-0.4-0.7-0.7-1-0.9c0.2-0.1,0.4-0.3,0.6-0.5
	C58.2,54.1,58.5,54.1,58.7,54.1z M46.1,55c-0.3,0.2-0.6,0.5-0.9,0.9c-0.1-0.5-0.2-0.9-0.5-1.3c0.2,0,0.5,0,0.8-0.1
	C45.6,54.8,45.9,54.9,46.1,55z M43,48.7c2.3-0.9,5.2-0.2,6.9,1.6c-1-0.8-2.3-1.1-3.5-0.5C45.6,48.8,44.3,48.4,43,48.7z M61.5,48.6
	c-3.1-2.5-8.3-0.8-9.5,3.1c-0.2,0.5-0.3,0.9-0.4,1.2c-0.1-0.3-0.2-0.7-0.5-1.2c-1.5-3.8-6.8-5-9.7-2.2c-0.4,0.3-0.7,0.6-0.9,0.8
	c0.1-0.3,0.1-0.7,0.1-1.3c0.1-1,0-2.1-0.4-3h-0.4c0.2,0.4,0.3,0.8,0.4,1.2c-0.2-0.4-0.4-0.8-0.7-1.2H39c1.6,1.4,1.9,4.6-0.1,6.5
	c0.5-0.4,0.9-0.8,1-1c-0.1,0.3-0.2,0.8-0.2,1.5c0.4-3.7,4.9-5.3,6.6-2.6c2.6-1.7,6.1,1.7,5,5.3c0.3-0.6,0.4-1.1,0.4-1.4
	c0.1,0.3,0.2,0.8,0.5,1.4c-1.4-3.4,1.7-7.2,4.5-5.7c1.5-2.8,6.1-1.7,6.8,2c-0.1-0.7-0.2-1.2-0.3-1.4c0.2,0.2,0.5,0.6,1.1,0.9
	c-1.7-1.3-2.1-3.6-1.4-5.3h-0.4c0,0.1,0,0.1-0.1,0.2c0-0.1,0-0.1,0-0.2h-0.3c-0.1,0.6-0.1,1.3,0.1,2c0,0.6,0.1,1,0.2,1.3
	C62.3,49.1,61.9,48.9,61.5,48.6z M53.1,50.2c1.6-2,4.4-2.9,6.8-2.2c-1.3-0.2-2.5,0.2-3.3,1.4C55.3,48.9,54,49.3,53.1,50.2z
	 M63.7,51.3c1.7,0.9,0.2-0.6-0.1,0.9C63.6,51.8,63.7,51.5,63.7,51.3z M51.7,55.2c1,1.6,0.4-0.4-0.5,0.7
	C51.4,55.7,51.6,55.4,51.7,55.2z M39.5,52.4c0.1,1.9,0.6-0.1-0.8,0.3C39,52.6,39.3,52.5,39.5,52.4z M42.6,46.1
	C42.6,46.1,42.6,46.2,42.6,46.1c0.1,0.1,0.1,0,0.2,0H42.6z M50.5,46.1c0.1,0.7,0.3,1.4,0.9,2.1c0.5-0.7,0.7-1.4,0.7-2.1h-0.5
	c0,1.1-0.4,1.8-0.7,0.3c0-0.1,0-0.2,0-0.3H50.5z M44,47.5c0.2,0,0.4-0.1,0.6-0.1c1.7-0.3,2.9-0.4,4.9,1.4C48,47.6,45.9,47.1,44,47.5
	L44,47.5z M61.9,46.1c0,0.9-0.1,1.6,0.1,2.5c-1-0.8-1.8-1-3.1-1.7c-2-0.2-4.5,0.6-6,2.1c1.5-1.7,3.7-2.5,5.8-2.2
	c-2.7-0.5-3.6,0.2-4.9,1.4c-0.4,0.3-0.6,0.5-0.8,0.6c-0.3,0.6-0.6,1.2-0.9,1.9c-0.8,1.6-0.1,1.6-1.1,0.1c-0.4-0.6-0.7-1.1-1-1.6
	c0,0-0.1,0-0.1-0.1l0.1,0.1c-1.5-1.4-4-2-6.1-1.6c-1.3,0.8-2,1.1-3,1.9c0.2-1.2-0.1-2-0.2-3.4h0.3c0,0.8,0.1,1.5,0.1,2.1
	c0,1-0.2,0.9,0.6,0.3c0.7-0.5,2.2-1.3,3.5-2.4h0.6c-0.3,0.3-0.8,0.6-1.2,1c-0.2,0.1-0.3,0.2-0.5,0.3c0.8-0.2,2.1-0.4,2.9-0.4
	c1.3,0.7,2.3,1.6,2.8,2c-0.7-1.2-1.1-2.1-1.4-2.9h0.2c0.7,1.9,1.9,3.5,2.6,4.6c0.5,0.8,0.2,0.9,0.6,0c0.4-0.9,1.5-2.6,2.1-4.6h0.2
	c-0.2,0.7-0.6,1.6-1.1,2.7c0.6-0.5,1.9-1.7,2.6-2.2c1.1,0,2.2,0.1,2.9,0.2c-0.2-0.1-0.3-0.2-0.5-0.3c-0.2-0.1-0.4-0.3-0.6-0.4h0.7
	c1.1,0.7,2.2,1.1,2.9,1.5c0.8,0.5,0.6,0.6,0.5-0.4c0-0.3,0-0.7,0-1.2H61.9z M15.2,46.1c0.4,0.2,0.8,0.3,1.4,0H15.2z M35.4,46.1
	c0,0.1,0,0.2,0,0.2c-0.1-0.1-0.3-0.2-0.5,0c-0.2,0.3,0.3,0.6,0.5,0.3c0.1-0.1,0.1-0.2,0-0.3C35.4,46.3,35.4,46.2,35.4,46.1
	L35.4,46.1z M66.2,46.1c0,0.1,0,0.3,0.1,0.4c0.3,0.2,0.5-0.1,0.4-0.4H66.2z M73.1,46.1c0,0.8-0.6,1.5-1.4,1.4
	c0.1-0.1,0.1-0.4-0.1-0.5c-0.4-0.1-0.5,0.5-0.1,0.6c0.1,0,0.2,0,0.3-0.1c0.8,0.2,1.5-0.5,1.5-1.4H73.1z M84.5,46.1
	c0.2,0.1,0.5,0.1,0.7,0H84.5z M34,63.4c2.5-0.5,3.6,0.7,3.5,1.8c-0.2,2.3-3,0.8-2-0.3c0,0.2,0.2,0.3,0.4,0.2
	c0.3-0.2,0.1-0.7-0.3-0.5c-0.1,0.1-0.2,0.2-0.1,0.3c-1,0.8,0.7,2.8,2,1.3c0.8-0.8,0.5-2.2-0.4-2.9c-0.7-0.6-1.5-0.6-2.1-0.6
	c8.8-2.6,9,6.6,4.6,5.7c-1.6-0.4-1.6-2.6,0-2.7c-0.1,0.2,0.1,0.5,0.4,0.3c0.3-0.2,0.1-0.6-0.2-0.5c-0.1,0-0.1,0.1-0.1,0.1
	c-4.1-0.1,1,6.2,3,1.4c0.3-0.7,0.3-1.6,0-2.4c0.4,0.3,0.8,0.4,1.3,0.3c-1,1.1-1.3,2.8-0.4,4c2.1,2.9,4.9-0.6,2.7-1.8
	c0,0,0-0.1-0.1-0.1c-0.2-0.3-0.6,0-0.4,0.3c0.2,0.2,0.5,0.1,0.5-0.1c2.3,1.4-1.7,4.5-2.8,0.8c-0.7-2.4,2.9-6.2,8.2-1.5
	c-3.1-1.7-4.8,1.8-3,2.9c1,0.6,2.1-0.3,1.7-1.2c0.1-0.1,0.1-0.2,0-0.3c-0.2-0.3-0.7,0-0.5,0.4c0.1,0.2,0.3,0.1,0.4,0
	c0.2,0.9-1.2,1.6-1.8,0.6c-0.8-1.4,0.9-3.5,3.8-1.3c1.9-1.8,3.4-1.3,3.9-0.2c0.9,2.1-2.2,2.3-1.9,0.8c0.1,0.1,0.3,0.2,0.5,0
	c0.2-0.3-0.3-0.6-0.5-0.3c-0.1,0.1-0.1,0.2,0,0.3c-0.5,1.2,1.9,2.1,2.4,0.1c0.3-1.1-0.6-2.1-1.7-2.3c-0.9-0.1-1.6,0.3-2.1,0.6
	c6.4-6.9,11,1.1,6.8,2.5c-1.6,0.5-2.7-1.3-1.3-2.4c0,0.2,0.3,0.3,0.5,0.1c0.2-0.3-0.3-0.6-0.4-0.3c0,0,0,0.1,0,0.1
	c-3.6,2,3.8,4.9,3.3-0.4c-0.1-0.7-0.5-1.5-1.2-2.1c0.5,0.1,0.9-0.1,1.3-0.4c-1.5,4.9,6.1,4.8,4.4,1.5c-0.2-0.5-0.7-0.7-1.3-0.7
	c0,0-0.1-0.1-0.1-0.1c-0.3-0.1-0.5,0.3-0.2,0.5c0.2,0.1,0.4-0.2,0.3-0.4c2.6,0,0.7,4.8-2.1,2.1c-1.8-1.7-0.6-6.9,6.4-5.5
	c-3.5,0.1-3.3,4-1.2,4.1c1.2,0,1.7-1.4,0.9-1.9c0-0.1,0-0.2-0.2-0.3c-0.3-0.2-0.6,0.4-0.2,0.5c0.2,0.1,0.4-0.1,0.4-0.2
	c0.6,0.7-0.3,2-1.3,1.4c-1.4-0.8-0.9-3.6,2.6-3.1c0.8-2.5,2.4-2.9,3.3-2.2c1.8,1.4-0.8,3.2-1.2,1.7c0.2,0.1,0.4,0,0.4-0.3
	c0-0.4-0.6-0.4-0.6,0c0,0.1,0.1,0.2,0.2,0.3c0.2,1.3,2.7,0.8,2.1-1.1c-0.3-1.1-1.5-1.5-2.6-1.1c-0.8,0.4-1.3,1.1-1.5,1.6
	c2.2-9.3,10-4.8,7.1-1.3c-1.1,1.3-2.9,0.2-2.3-1.3c0.1,0.2,0.5,0.1,0.5-0.2c0-0.3-0.5-0.4-0.5,0c0,0.1,0,0.1,0,0.1
	c-2.2,3.6,5.7,2.2,2.7-2c-0.4-0.6-1.2-1-2-1.2c0.5-0.2,0.8-0.5,0.9-1c0.4,1.5,1.6,2.6,3.1,2.4c3.4-0.5,1.9-4.8-0.1-3.3
	c0,0-0.1,0-0.1,0c-0.3,0-0.3,0.6,0.1,0.5c0.3,0,0.3-0.4,0.1-0.5c2.3-1.3,2.9,3.8-0.8,2.9c-2.4-0.6-3.7-5.7,2.9-8.1
	c-2.9,1.9-0.9,5.2,0.9,4.2c1-0.6,0.8-2.1-0.1-2.2c0-0.1-0.1-0.2-0.3-0.1c-0.4,0-0.3,0.6,0.1,0.6c0.2,0,0.3-0.2,0.2-0.4
	c0.9,0.3,0.7,1.9-0.4,1.9c-1.6,0.1-2.5-2.6,0.8-4.1c-0.1-0.5-0.1-0.9-0.1-1.3h-0.5c0,0.1,0,0.2,0,0.3c0-0.1,0-0.2-0.1-0.3h-0.4
	c0.3,1.2,0.4,0.6-1.4,1.4c-2.2,1-3.4,2.4-3.8,3.8c-0.1-0.9-0.4-1.9-0.8-3.2c0.4-0.6,0.6-1.3,0.6-2.1h-0.5c0,0.6-0.1,1-0.3,1.5
	c-0.1-0.5-0.3-0.9-0.5-1.5h-0.4c0.2,0.6,0.4,1.3,0.6,1.9c-1.1,1.6-3.5,1.8-4.6,0.8c-1-0.9-1.2-1.8-1-2.6c0,0,0-0.1,0.1-0.1h-0.5
	c-0.2,0.3-0.6,0.5-1,0.6c-0.1,0.5-0.3,1-0.6,1.2c-0.2,0.1-0.4,0.2-0.6,0.4c-0.5,0.2-1.1,0.1-1.5-0.3c-0.6-0.6-0.4-1.5,0.1-1.9h-0.2
	c-0.4,0.3-0.6,0.8-0.4,1.4c0.2,0.8,0.9,1.2,1.7,1.2c-0.8,1.2-0.6,3,0.9,3.3c1.1,0.3,2-0.7,1.7-1.7c0.1-0.1,0.1-0.2,0-0.3
	c-0.1-0.4-0.7-0.2-0.5,0.2c0.1,0.2,0.4,0.2,0.5,0.1c0.2,0.9-0.6,1.8-1.6,1.5c-1.6-0.5-1.4-2.4-0.3-3.3c0.2-0.1,0.4-0.2,0.6-0.3
	c0.7-0.3,1.6-0.1,2.6,0.8c1.1,1.1,1.1,3.6-0.4,4.9c-1.1-0.2-2.3-0.5-3.4-0.9c-2.8-0.8-2.2-1.1-2.6,1.7c-0.2,1.2-0.4,2.4-0.7,3.6
	c-1.7,0.8-3.9-0.2-4.4-1.7c-0.4-1.3-0.2-2.2,0.4-2.8c0.2-0.1,0.4-0.2,0.5-0.4c1.2-0.6,3,0,2.7,1.7c-0.2,1.1-1.3,1.6-2,0.9
	c0.2-0.1,0.3-0.3,0.1-0.5c-0.3-0.3-0.7,0.1-0.4,0.4c0.1,0.1,0.2,0.1,0.3,0.1c0.7,0.7,1.9,0.3,2.2-0.9c0.3-1.5-1.2-2.5-2.5-2.2
	c0.3-0.7,0.3-1.6-0.3-2.1c-0.8-0.7-2-0.2-2,0.7c-0.1,0.1-0.1,0.1-0.1,0.3c0,0.4,0.6,0.3,0.6-0.1c0-0.2-0.3-0.3-0.4-0.2
	c0.2-1.1,1.7-1.1,2.1,0.1c0.2,0.6,0,1.1-0.4,1.6c-0.2,0.1-0.4,0.2-0.6,0.4c-0.4,0.2-0.8,0.2-1.3,0c-0.3,0.4-0.7,0.7-1.1,0.8
	c-0.2,0-0.4,0-0.7,0c-0.5-0.1-1-0.5-1.2-1c-0.4-1.2,1-2.1,1.7-1.3c-0.2,0-0.3,0.2-0.2,0.4c0.2,0.3,0.7,0.1,0.5-0.3
	C56.8,52,56.7,52,56.6,52c-0.5-0.7-1.7-0.4-2,0.6c-0.2,0.8,0.2,1.5,0.9,1.9c-1.2,0.6-1.9,2.3-0.8,3.3c0.8,0.8,2.1,0.4,2.3-0.6
	c0.1,0,0.1-0.1,0.2-0.2c0.1-0.4-0.5-0.5-0.6-0.1c0,0.3,0.2,0.4,0.4,0.3c-0.2,0.9-1.4,1.2-2.1,0.4c-1.1-1.2,0-2.8,1.3-3
	c0.2,0,0.4,0,0.7,0c0.8,0.1,1.5,0.7,1.8,2.1c0.4,1.6-0.8,3.7-2.7,4c-0.9-0.8-1.7-1.6-2.5-2.5c-2-2.2-1.4-2.1-3.1,0.1
	c-0.7,1-1.5,1.9-2.3,2.7c-1.9-0.2-3.3-2.2-3-3.8c0.2-1.4,0.9-2,1.6-2.2c0.2,0,0.5,0,0.7-0.1c1.4,0.1,2.6,1.5,1.5,2.9
	c-0.6,0.8-1.8,0.7-2.2-0.2c0.2,0,0.4-0.1,0.4-0.4c-0.1-0.4-0.6-0.2-0.5,0.2c0,0.1,0.1,0.2,0.2,0.2c0.2,1,1.5,1.2,2.3,0.3
	c1-1.2,0.2-2.8-1.1-3.2c0.6-0.4,1-1.2,0.7-2c-0.4-1-1.6-1.2-2-0.5c-0.1,0-0.2,0.1-0.2,0.2c-0.1,0.4,0.4,0.6,0.5,0.2
	c0.1-0.2-0.1-0.4-0.3-0.4c0.6-0.9,2.1-0.1,1.8,1.2c-0.1,0.6-0.6,1-1.1,1.1c-0.2,0-0.4,0-0.7,0c-0.4-0.1-0.8-0.3-1.1-0.7
	c-0.5,0.2-0.9,0.2-1.3,0.1c-0.2-0.1-0.4-0.3-0.6-0.3c-0.4-0.4-0.6-0.9-0.5-1.5c0.3-1.2,1.9-1.3,2.1-0.3c-0.2-0.1-0.4,0-0.4,0.3
	c0,0.4,0.5,0.4,0.6,0c0-0.1-0.1-0.2-0.1-0.3c-0.1-0.9-1.3-1.3-2-0.5c-0.6,0.6-0.5,1.4-0.1,2.1c-1.3-0.1-2.8,1-2.3,2.5
	c0.3,1.2,1.6,1.5,2.2,0.7c0.1,0,0.2,0,0.2-0.1c0.2-0.3-0.2-0.7-0.4-0.4c-0.2,0.2,0,0.4,0.2,0.5c-0.6,0.7-1.8,0.3-2-0.8
	c-0.4-1.6,1.3-2.4,2.6-1.9c0.2,0.1,0.4,0.3,0.6,0.3c0.6,0.5,0.9,1.4,0.6,2.7c-0.4,1.6-2.4,2.8-4.2,2.1c-0.4-1.1-0.7-2.3-1-3.5
	c-0.7-2.9-0.2-2.5-2.7-1.5c-1.1,0.4-2.2,0.8-3.3,1.2c-1.5-1.2-1.8-3.6-0.8-4.8c0.9-1.1,1.8-1.3,2.5-1.1c0.2,0.1,0.4,0.2,0.6,0.3
	c1.1,0.8,1.5,2.7,0,3.3c-1,0.4-1.9-0.4-1.8-1.3c0.1,0.1,0.4,0.1,0.5-0.1c0.1-0.4-0.4-0.5-0.5-0.2c0,0.1,0,0.2,0.1,0.3
	c-0.3,1,0.7,1.9,1.8,1.5c1.4-0.5,1.5-2.3,0.6-3.4c0.8,0,1.5-0.5,1.6-1.3c0.2-1.1-0.8-1.9-1.5-1.5c-0.1,0-0.2,0-0.3,0
	c-0.3,0.2,0,0.7,0.3,0.5c0.2-0.1,0.1-0.4,0-0.5c1-0.4,1.8,1,1,1.9c-0.4,0.4-1,0.6-1.5,0.4c-0.2-0.1-0.4-0.2-0.6-0.3
	c-0.3-0.3-0.6-0.7-0.7-1.2c-0.5-0.1-0.9-0.3-1.2-0.6c-0.1-0.2-0.2-0.4-0.3-0.6c-0.1-0.3-0.1-0.6-0.1-0.9h-0.3c0,0.2-0.1,0.4-0.1,0.5
	c-1.1-0.8-2.8-0.6-3.2,0.9c-0.3,1.2,0.7,2.1,1.6,1.8c0.1,0.1,0.2,0.1,0.3,0c0.4-0.1,0.2-0.7-0.2-0.6c-0.2,0.1-0.2,0.4-0.1,0.5
	c-0.9,0.3-1.7-0.7-1.4-1.7c0.4-1.6,2.3-1.4,3.1-0.3c0.1,0.2,0.2,0.4,0.3,0.6c0.3,0.7,0.1,1.7-0.8,2.7c-1.1,1.2-3.4,1.1-4.7-0.4
	c0.2-1.2,0.5-2.4,0.8-3.5c0.1-0.2,0.1-0.4,0.2-0.6h-0.4c-0.3,1.4-0.6,2.6-0.9,3.7c-0.5-0.9-0.7-2.1-0.3-3.7h-0.4
	c-0.5,1.9-0.2,3.4,0.6,4.3c-0.3,1.3-0.4,2.4-0.5,3.3c-0.5-1.3-1.8-2.7-4.1-3.5c-2.8-1-0.9-0.8-1.3-4.1h-0.5c0.1,0.9,0,1.9-0.2,3.1
	c-0.1-3.6-3.9-3.4-3.9-1.3c0,1.2,1.3,1.7,1.8,1c0.1,0,0.2,0,0.3-0.2c0.2-0.4-0.4-0.6-0.5-0.2c-0.1,0.2,0,0.4,0.2,0.4
	c-0.7,0.7-1.9-0.3-1.4-1.3c0.7-1.4,3.4-0.9,3,2.7c2.4,0.8,2.8,2.5,2.2,3.4c-1.3,1.9-3-0.9-1.6-1.3c-0.1,0.2,0,0.4,0.3,0.4
	c0.4,0,0.4-0.6,0-0.6c-0.1,0-0.2,0.1-0.3,0.2c-1.3,0.2-0.8,2.8,1.1,2.2c1-0.3,1.5-1.6,1.1-2.7c-0.3-0.9-1-1.3-1.6-1.6
	c8.9,2.3,4.6,10.4,1.3,7.4c-1.2-1.1-0.2-3.1,1.3-2.4c-0.2,0.1-0.1,0.5,0.2,0.5c0.3,0,0.3-0.5,0-0.5c-0.1,0-0.1,0-0.1,0
	c-3.5-2.3-2.1,5.9,1.9,2.8c0.6-0.4,1-1.2,1.1-2.1c0.2,0.5,0.5,0.8,1,1c-1.4,0.4-2.5,1.7-2.3,3.3c0.5,3.6,4.6,2,3.2-0.1
	c0,0,0-0.1,0-0.2c0-0.3-0.5-0.3-0.5,0.1c0,0.3,0.4,0.3,0.5,0.1c1.3,2.4-3.6,3-2.8-0.8c0.5-2.5,5.5-3.9,7.8,3c-1.9-3.1-5-1-4,0.9
	c0.5,1.1,2,0.8,2.1-0.1c0.1-0.1,0.2-0.2,0.1-0.3c0-0.4-0.6-0.3-0.6,0.1c0,0.2,0.2,0.3,0.4,0.2c-0.3,0.9-1.8,0.8-1.8-0.5
	C30,61,32.6,60,34,63.4z"/>
<path class="st0" d="M0.2,4.4l28.6-0.1C32.1-6.9,42.3,7,46.6,7c1.6,0,2.9-0.9,3.5-3c0.8-2.9-1.9-4.9-3.4-3.5
	c-1.2,1.2-0.5,3.1,1.2,2.7"/>
<path class="st1" d="M47.7,1.8c0.4,0,0.6,0.3,0.6,0.8c0,0.4-0.3,0.8-0.6,0.8c-0.3,0-0.6-0.3-0.6-0.8C47.1,2.2,47.4,1.8,47.7,1.8"/>
<path class="st0" d="M100.2,4.4L71.5,4.4C68.3-6.9,58.1,7,53.8,7c-1.6,0-2.9-0.9-3.5-3c-0.8-2.9,1.9-4.9,3.4-3.5
	c1.2,1.2,0.5,3.1-1.2,2.7"/>
<path class="st1" d="M52.7,1.8c-0.4,0-0.6,0.3-0.6,0.8c0,0.4,0.3,0.8,0.6,0.8c0.3,0,0.6-0.3,0.6-0.8C53.3,2.2,53,1.8,52.7,1.8"/>
</svg>
