<?xml version="1.0" encoding="utf-8"?>
<!-- Generator: Adobe Illustrator 16.0.0, SVG Export Plug-In . SVG Version: 6.00 Build 0)  -->
<!DOCTYPE svg PUBLIC "-//W3C//DTD SVG 1.1//EN" "http://www.w3.org/Graphics/SVG/1.1/DTD/svg11.dtd">
<svg version="1.1" id="Capa_1" xmlns="http://www.w3.org/2000/svg" xmlns:xlink="http://www.w3.org/1999/xlink" x="0px" y="0px"
	 width="150px" height="45px" viewBox="0 0 150 45" style="enable-background:new 0 0 150 45;" xml:space="preserve">
<style type="text/css">
<![CDATA[
	.st0{fill:#FFFFFF;}
	.st1{fill-rule:evenodd;clip-rule:evenodd;fill:#FFFFFF;}
]]>
</style>
<path class="st1" d="M115.2,29.9l-2.1,7.8l8-2.1c9.7,5.3,22.2-1.5,22.2-13.2c0-8.3-6.7-15-15-15C116.6,7.3,109.5,20,115.2,29.9
	 M124.5,16.1l1.2,2.8c0.1,0.2,0.2,0.4,0,0.7c-0.3,0.6-1.4,1.5-1.1,2.1c0.2,0.4,1,1.6,2.1,2.6c1.4,1.3,2.6,1.7,3,1.9
	c0.4,0.2,0.6,0.2,0.8-0.1c0.2-0.3,0.9-1.1,1.2-1.5c0.2-0.4,0.5-0.3,0.8-0.2l2.6,1.2c0.4,0.2,0.6,0.3,0.7,0.4
	c0.1,0.2,0.1,0.9-0.2,1.8c-0.3,0.9-1.9,1.7-2.5,1.8c-4.8,0.4-12.5-5.8-12.5-10.5c0-1.1,0.8-3.6,2.3-3.6
	C123.7,15.4,124.1,15.3,124.5,16.1z"/>
<path class="st1" d="M21.8,7.3c-8.3,0-15.1,6.8-15.1,15.3c0,7.6,5.5,13.9,12.7,15.1V27h-3.8v-4.4h3.8v-3.4c0-3.8,2.3-5.9,5.7-5.9
	c1.7,0,3.4,0.3,3.4,0.3v3.8h-1.9c-1.9,0-2.5,1.2-2.5,2.4v2.9h4.2L27.7,27h-3.5v10.7c7.2-1.1,12.7-7.5,12.7-15.1
	C36.9,14.2,30.2,7.3,21.8,7.3"/>
<path class="st0" d="M74.9,19.9c1.5,0,2.7,1.2,2.7,2.7c0,1.5-1.2,2.7-2.7,2.7c-1.5,0-2.7-1.2-2.7-2.7C72.2,21.1,73.4,19.9,74.9,19.9
	"/>
<path class="st0" d="M78.2,16h-6.8c-1,0-1.9,0.3-2.4,0.9c-0.5,0.5-0.9,1.4-0.9,2.4v6.8c0,1,0.3,1.9,0.9,2.5c0.6,0.6,1.4,0.9,2.4,0.9
	h6.7c1,0,1.9-0.3,2.4-0.9c0.6-0.5,0.9-1.4,0.9-2.4v-6.8c0-1-0.3-1.8-0.9-2.4C80.1,16.3,79.3,16,78.2,16 M74.9,26.8
	c-2.3,0-4.2-1.9-4.2-4.2c0-2.3,1.9-4.2,4.2-4.2c2.3,0,4.2,1.9,4.2,4.2S77.2,26.8,74.9,26.8z M79.2,19.3c-0.5,0-1-0.4-1-1
	c0-0.5,0.4-1,1-1c0.5,0,1,0.4,1,1C80.2,18.8,79.8,19.3,79.2,19.3z"/>
<path class="st0" d="M75,7.4c-8.3,0-15.1,6.8-15.1,15.1c0,8.3,6.8,15.1,15.1,15.1c8.3,0,15.1-6.8,15.1-15.1
	C90.2,14.2,83.3,7.4,75,7.4 M83,26.1c0,1.4-0.5,2.6-1.4,3.5c-0.9,0.9-2.1,1.3-3.5,1.3h-6.6c-1.4,0-2.6-0.4-3.5-1.3
	c-0.9-0.9-1.4-2.1-1.4-3.5v-6.8c0-2.8,1.9-4.8,4.8-4.8h6.8c1.4,0,2.6,0.5,3.5,1.4c0.9,0.9,1.3,2,1.3,3.5V26.1z"/>
</svg>
