<?xml version="1.0" encoding="utf-8"?>
<!-- Generator: Adobe Illustrator 16.0.0, SVG Export Plug-In . SVG Version: 6.00 Build 0)  -->
<!DOCTYPE svg PUBLIC "-//W3C//DTD SVG 1.1//EN" "http://www.w3.org/Graphics/SVG/1.1/DTD/svg11.dtd">
<svg version="1.1" id="Capa_1" xmlns="http://www.w3.org/2000/svg" xmlns:xlink="http://www.w3.org/1999/xlink" x="0px" y="0px"
	 width="122.4px" height="122.4px" viewBox="0 0 122.4 122.4" style="enable-background:new 0 0 122.4 122.4;" xml:space="preserve"
	>
<style type="text/css">
<![CDATA[
	.st0{fill-rule:evenodd;clip-rule:evenodd;}
	.st1{fill:none;stroke:#000000;stroke-miterlimit:10;}
]]>
</style>
<g>
	<path d="M10,111.1c0-0.2,0.1-0.3,0.3-0.3h1.4c0.2,0,0.3-0.1,0.3-0.3V98.5c0-0.2-0.1-0.3-0.3-0.3h-1.4c-0.2,0-0.3-0.1-0.3-0.3
		c0-0.2,0.1-0.3,0.3-0.3h9.4c0.2,0,0.3,0.1,0.3,0.3v2.8c0,0.2-0.1,0.3-0.3,0.3c-0.2,0-0.3-0.1-0.3-0.3v-2.2c0-0.2-0.1-0.3-0.3-0.3
		h-6.2c-0.2,0-0.3,0.1-0.3,0.3v5.3c0,0.2,0.1,0.3,0.3,0.3h4.4c0.2,0,0.3-0.1,0.3-0.3v-1c0-0.2,0.1-0.3,0.3-0.3s0.3,0.1,0.3,0.3v3.2
		c0,0.2-0.1,0.3-0.3,0.3s-0.3-0.1-0.3-0.3v-1c0-0.2-0.1-0.3-0.3-0.3h-4.4c-0.2,0-0.3,0.1-0.3,0.3v5.5c0,0.2,0.1,0.3,0.3,0.3h6.4
		c0.2,0,0.3-0.1,0.3-0.3v-2.2c0-0.2,0.1-0.3,0.3-0.3s0.3,0.1,0.3,0.3v2.8c0,0.2-0.1,0.3-0.3,0.3h-9.6C10.1,111.4,10,111.3,10,111.1z
		"/>
	<path d="M26.9,111c1.1,0,2-0.2,2.6-0.6c0.6-0.4,0.9-0.9,0.9-1.6c0-0.9-0.6-1.5-1.9-1.7c-0.6-0.1-1.3-0.3-2.1-0.4
		c-0.8-0.1-1.4-0.2-1.8-0.3c-0.8-0.2-1.4-0.5-1.8-0.9s-0.6-0.9-0.6-1.6c0-0.7,0.4-1.3,1.1-1.8c0.7-0.5,1.7-0.8,3-0.8
		s2.4,0.5,3.4,1.5c0.1,0.1,0.2,0.2,0.2,0.1c0-0.1,0.1-0.2,0.1-0.3v-0.8c0-0.2,0.1-0.3,0.3-0.3s0.3,0.1,0.3,0.3v3.2
		c0,0.2-0.1,0.3-0.3,0.3s-0.3-0.1-0.3-0.3v-1c-0.6-0.8-1.3-1.3-2.2-1.8c-0.5-0.2-1-0.3-1.6-0.3c-1.1,0-1.9,0.2-2.5,0.6
		c-0.6,0.4-0.9,0.9-0.9,1.5c0,0.6,0.3,1.1,0.8,1.4c0.5,0.3,1.3,0.6,2.3,0.7c0.4,0.1,0.9,0.2,1.4,0.2c0.5,0.1,0.9,0.1,1.2,0.2
		c0.8,0.2,1.4,0.4,1.8,0.8c0.4,0.4,0.6,0.9,0.6,1.6s-0.3,1.4-1,1.9c-0.7,0.5-1.7,0.8-3.1,0.8c-1.1,0-2.1-0.3-3-0.9
		c-0.3-0.2-0.5-0.4-0.6-0.5c-0.1-0.2-0.2-0.2-0.3-0.1s-0.1,0.2-0.1,0.3v0.8c0,0.2-0.1,0.3-0.3,0.3s-0.3-0.1-0.3-0.3V108
		c0-0.2,0.1-0.3,0.3-0.3s0.3,0.1,0.3,0.3v1c0.5,0.8,1.3,1.4,2.2,1.8C25.7,110.9,26.2,111,26.9,111z"/>
	<path d="M41.3,104c-1.1-1.4-2.3-2.1-3.8-2.1c-1.1,0-2,0.4-2.7,1.3c-0.7,0.9-1.1,2-1.1,3.3c0,1.4,0.4,2.4,1.1,3.3
		c0.8,0.8,1.7,1.2,3,1.2c1.2,0,2.2-0.3,3-1c0.2-0.2,0.4-0.3,0.5-0.4s0.2-0.1,0.3-0.1c0.1,0,0.1,0.1,0.2,0.2s0.1,0.1,0.1,0.2
		s-0.1,0.1-0.2,0.3c-0.4,0.4-1,0.7-1.6,1c-0.6,0.3-1.4,0.4-2.4,0.4c-1.4,0-2.5-0.5-3.4-1.4c-0.9-1-1.3-2.2-1.3-3.7s0.4-2.8,1.2-3.7
		c0.8-1,1.9-1.4,3.2-1.4c1.3,0,2.4,0.5,3.4,1.5c0.2,0.2,0.3,0.1,0.3-0.2v-0.8c0-0.2,0.1-0.3,0.3-0.3s0.3,0.1,0.3,0.3v3.2
		c0,0.2-0.1,0.3-0.3,0.3s-0.3-0.1-0.3-0.3V104z"/>
	<path d="M43.5,101.6h2c0.2,0,0.3,0.1,0.3,0.3v5.8c0,1.1,0.3,2,0.9,2.5c0.6,0.6,1.4,0.8,2.4,0.8c1,0,1.9-0.4,2.8-1.3
		c0.4-0.4,0.7-0.9,1-1.3v-5.9c0-0.2-0.1-0.3-0.3-0.3h-1.4c-0.2,0-0.3-0.1-0.3-0.3c0-0.2,0.1-0.3,0.3-0.3h2c0.2,0,0.3,0.1,0.3,0.3
		v8.7c0,0.2,0.1,0.3,0.3,0.3h1.4c0.2,0,0.3,0.1,0.3,0.3c0,0.2-0.1,0.3-0.3,0.3h-2c-0.2,0-0.3-0.1-0.3-0.3V110c0-0.1,0-0.2-0.1-0.3
		s-0.1,0-0.2,0.1c-1.1,1.2-2.2,1.8-3.5,1.8c-1.3,0-2.2-0.3-2.9-1c-0.7-0.7-1-1.7-1-2.9v-5.2c0-0.2-0.1-0.3-0.3-0.3h-1.4
		c-0.2,0-0.3-0.1-0.3-0.3C43.2,101.7,43.3,101.6,43.5,101.6z"/>
	<path d="M56.2,111.1c0-0.2,0.1-0.3,0.3-0.3h1.4c0.2,0,0.3-0.1,0.3-0.3V98.5c0-0.2-0.1-0.3-0.3-0.3h-1.4c-0.2,0-0.3-0.1-0.3-0.3
		c0-0.2,0.1-0.3,0.3-0.3h2c0.2,0,0.3,0.1,0.3,0.3v12.7c0,0.2,0.1,0.3,0.3,0.3h1.4c0.2,0,0.3,0.1,0.3,0.3c0,0.2-0.1,0.3-0.3,0.3h-4
		C56.3,111.4,56.2,111.3,56.2,111.1z"/>
</g>
<g>
	<path d="M64.3,111.4c-0.2,0-0.3,0.1-0.3,0.3v2.8c0,0.2,0.1,0.3,0.3,0.3h1.6c0.2,0,0.3,0.1,0.3,0.3s-0.1,0.3-0.3,0.3h-4.2
		c-0.2,0-0.3-0.1-0.3-0.3s0.1-0.3,0.3-0.3h1.4c0.2,0,0.3-0.1,0.3-0.3v-12.1c0-0.2-0.1-0.3-0.3-0.3h-1.4c-0.2,0-0.3-0.1-0.3-0.3
		c0-0.2,0.1-0.3,0.3-0.3h2c0.2,0,0.3,0.1,0.3,0.3v1.1c0,0.1,0,0.2,0.1,0.3s0.1,0,0.2-0.1c0.3-0.4,0.8-0.8,1.4-1.2s1.4-0.6,2.2-0.6
		c1.3,0,2.4,0.5,3.2,1.4c0.8,0.9,1.2,2.2,1.2,3.7s-0.5,2.8-1.4,3.7c-0.9,0.9-2.3,1.3-3.9,1.3H64.3z M67,110.8c1.5,0,2.7-0.4,3.5-1.1
		c0.8-0.7,1.2-1.8,1.2-3.3c0-1.4-0.3-2.6-1-3.3s-1.6-1.2-2.7-1.2c-1.1,0-2.1,0.4-3,1.3c-0.4,0.4-0.7,0.8-1,1.3v5.9
		c0,0.2,0.1,0.3,0.3,0.3H67z"/>
</g>
<g>
	<path d="M74,111.1c0-0.2,0.1-0.3,0.3-0.3h1.4c0.2,0,0.3-0.1,0.3-0.3v-8.1c0-0.2-0.1-0.3-0.3-0.3h-1.4c-0.2,0-0.3-0.1-0.3-0.3
		c0-0.2,0.1-0.3,0.3-0.3h2c0.2,0,0.3,0.1,0.3,0.3v8.7c0,0.2,0.1,0.3,0.3,0.3h1.4c0.2,0,0.3,0.1,0.3,0.3c0,0.2-0.1,0.3-0.3,0.3h-4
		C74.1,111.4,74,111.3,74,111.1z M75.6,99.7c-0.2-0.2-0.2-0.3-0.2-0.6c0-0.2,0.1-0.4,0.2-0.6s0.3-0.2,0.6-0.2c0.2,0,0.4,0.1,0.6,0.2
		c0.2,0.2,0.2,0.3,0.2,0.6c0,0.2-0.1,0.4-0.2,0.6c-0.2,0.2-0.3,0.2-0.6,0.2C75.9,100,75.7,99.9,75.6,99.7z"/>
</g>
<g>
	<path d="M88.1,98.5c0-0.2-0.1-0.3-0.3-0.3h-1.6c-0.2,0-0.3-0.1-0.3-0.3c0-0.2,0.1-0.3,0.3-0.3h2.2c0.2,0,0.3,0.1,0.3,0.3v12.7
		c0,0.2,0.1,0.3,0.3,0.3h1.4c0.2,0,0.3,0.1,0.3,0.3c0,0.2-0.1,0.3-0.3,0.3h-2c-0.2,0-0.3-0.1-0.3-0.3V110c0-0.1,0-0.2-0.1-0.3
		s-0.1,0-0.2,0.1c-0.3,0.4-0.8,0.8-1.5,1.2c-0.6,0.4-1.3,0.6-2.1,0.6c-1.4,0-2.5-0.5-3.3-1.4c-0.8-0.9-1.2-2.2-1.2-3.7
		s0.5-2.8,1.4-3.7s2.3-1.3,3.9-1.3h2.7c0.2,0,0.3-0.1,0.3-0.3V98.5z M88.1,102.4c0-0.2-0.1-0.3-0.3-0.3h-2.7c-1.5,0-2.7,0.4-3.5,1.1
		c-0.8,0.7-1.2,1.8-1.2,3.3s0.3,2.5,1,3.3s1.6,1.2,2.7,1.2c1.1,0,2.1-0.4,3-1.3c0.4-0.4,0.7-0.8,1-1.3V102.4z"/>
	<path d="M96.5,101.4c1.1,0,2,0.3,2.7,0.9c0.7,0.6,1,1.4,1,2.3v5.9c0,0.2,0.1,0.3,0.3,0.3h1.4c0.2,0,0.3,0.1,0.3,0.3
		c0,0.2-0.1,0.3-0.3,0.3h-2c-0.2,0-0.3-0.1-0.3-0.3V110c0-0.1,0-0.2-0.1-0.3c-0.1-0.1-0.1,0-0.2,0.1c-0.4,0.4-0.9,0.9-1.5,1.2
		c-0.6,0.4-1.3,0.6-2,0.6c-1.2,0-2.2-0.3-2.8-0.8s-0.9-1.3-0.9-2.1c0-0.9,0.4-1.6,1.1-2.1c0.7-0.6,1.7-0.8,2.9-0.8h3.3
		c0.2,0,0.3-0.1,0.3-0.3v-0.8c0-0.8-0.3-1.4-0.9-1.9c-0.6-0.5-1.3-0.8-2.1-0.8s-1.5,0.1-2.1,0.3c-0.5,0.2-0.9,0.4-1.1,0.6
		c-0.2,0.2-0.4,0.2-0.5,0s-0.1-0.3,0-0.4C93.9,101.7,95,101.4,96.5,101.4z M99.6,106.6c0-0.2-0.1-0.3-0.3-0.3H96
		c-1.1,0-2,0.2-2.5,0.7s-0.8,1-0.8,1.7c0,0.7,0.3,1.3,0.8,1.7s1.3,0.7,2.3,0.7c1.3,0,2.4-0.6,3.4-1.9c0.2-0.2,0.3-0.5,0.5-0.7V106.6
		z"/>
	<path d="M108.3,111c1.1,0,2-0.2,2.6-0.6c0.6-0.4,0.9-0.9,0.9-1.6c0-0.9-0.6-1.5-1.9-1.7c-0.6-0.1-1.3-0.3-2.1-0.4
		c-0.8-0.1-1.4-0.2-1.8-0.3c-0.8-0.2-1.4-0.5-1.8-0.9s-0.6-0.9-0.6-1.6c0-0.7,0.4-1.3,1.1-1.8c0.7-0.5,1.7-0.8,3-0.8
		s2.4,0.5,3.4,1.5c0.1,0.1,0.2,0.2,0.2,0.1s0.1-0.2,0.1-0.3v-0.8c0-0.2,0.1-0.3,0.3-0.3c0.2,0,0.3,0.1,0.3,0.3v3.2
		c0,0.2-0.1,0.3-0.3,0.3c-0.2,0-0.3-0.1-0.3-0.3v-1c-0.6-0.8-1.3-1.3-2.2-1.8c-0.5-0.2-1-0.3-1.6-0.3c-1.1,0-1.9,0.2-2.5,0.6
		c-0.6,0.4-0.9,0.9-0.9,1.5c0,0.6,0.3,1.1,0.8,1.4c0.5,0.3,1.3,0.6,2.3,0.7c0.4,0.1,0.9,0.2,1.4,0.2c0.5,0.1,0.9,0.1,1.2,0.2
		c0.8,0.2,1.4,0.4,1.8,0.8c0.4,0.4,0.6,0.9,0.6,1.6s-0.3,1.4-1,1.9c-0.7,0.5-1.7,0.8-3.1,0.8c-1.1,0-2.1-0.3-3-0.9
		c-0.3-0.2-0.5-0.4-0.6-0.5c-0.1-0.2-0.2-0.2-0.3-0.1c0,0.1-0.1,0.2-0.1,0.3v0.8c0,0.2-0.1,0.3-0.3,0.3c-0.2,0-0.3-0.1-0.3-0.3V108
		c0-0.2,0.1-0.3,0.3-0.3c0.2,0,0.3,0.1,0.3,0.3v1c0.5,0.8,1.3,1.4,2.2,1.8C107,110.9,107.6,111,108.3,111z"/>
</g>
<path class="st1" d="M72.3,82c-4.5,2.9-9.8,4.5-15.5,4.5c-15.9,0-28.9-13-28.9-28.9V32.6c0-15.9,13-28.9,28.9-28.9
	c7.2,0,13.8,2.7,18.8,7"/>
<path class="st1" d="M33.9,23.1c2.9-5.6,7.8-10,13.8-12.2 M53.3,80.7c-7.6-0.8-14.1-5.1-18.1-11.2"/>
<path class="st0" d="M94.7,38.4c-0.2-0.2-0.5-0.3-0.8-0.2c0-0.1,0-0.1,0.1-0.2c0,0,0,0,0,0c0,0,0,0,0,0c0,0,0,0,0,0
	c0.1-0.2,0.3-0.5,0.1-0.7c-0.3-0.1-0.7-0.1-0.9,0.1c0.1-1.1-0.8-1.1-1.2-0.2c-0.9-0.9-1-0.4-0.9,0.6c0.1,0.4,0.6,0.7,0.9,0.8
	c0.7,0-0.2,3.2-0.3,3.9c-0.1-0.8-0.2-1.6-0.5-2.4c0,0,0,0,0,0c0,0,0,0,0,0c0,0,0,0,0,0c0,0,0,0,0,0c0,0,0-0.1,0-0.1c0,0,0,0,0,0
	c0,0,0,0,0,0c0,0,0,0,0,0c0.1-0.2,0-0.4-0.1-0.5c0,0,0,0,0,0c0,0,0,0,0,0c0,0,0,0,0,0c-0.2-0.3-0.2-0.3-0.4,0
	c-0.2,0.3,0,0.6,0.3,0.7c1,2.7-0.1,5.5-1,8.2c0.1-3.2,0.1-6.4-0.2-9.6c0.3-0.8,0.4-1.8,0.8-2.6c0,0,0,0,0,0c0,0,0-0.1,0.1-0.1
	c0,0,0,0,0,0c0,0,0,0,0,0c0,0,0,0,0,0c0,0,0-0.1,0.1-0.1c0,0,0,0,0,0c0,0,0,0,0,0c0,0,0,0,0,0c0.4-0.5,0.7-1.1,0.9-1.7
	c0,0,0.1,0,0.1,0c0,0,0,0,0,0c0,0,0,0,0,0c0,0,0,0,0,0c0.3-0.1,0.3-0.5,0.1-0.7c0,0,0,0,0,0c0,0,0,0,0,0c0,0,0,0,0,0c0,0,0,0,0,0
	c0,0,0,0,0,0c0,0,0,0,0,0h0c-0.1-0.1-0.3,0.2-0.3,0.3c0,0,0,0,0,0c0,0.1,0,0.2,0,0.3c0,0,0,0,0,0c0,0,0,0,0,0c0,0,0,0,0,0
	c0,0,0,0,0,0.1c-0.1,0.5-0.3,0.9-0.6,1.3c0,0,0,0,0,0c0,0.1-0.1,0.1-0.1,0.2c0,0,0,0,0,0c-0.1,0.1-0.2,0.2-0.2,0.3c0,0,0,0,0,0
	c0,0,0,0,0,0c0,0,0,0,0,0c0,0-0.1,0.1-0.1,0.1c0,0,0,0,0,0c0,0,0,0,0,0c0.1-0.3,0.2-0.6,0.2-0.9c0,0,0,0,0,0c0-0.1,0-0.2,0-0.2
	c0,0,0,0,0,0c0,0,0,0,0,0c0,0,0,0,0,0c0,0,0,0,0,0v0c0.2-1.2,0.4-2.3,0.4-3.5c0,0,0,0,0,0v0c0.2-0.3,0.5-0.7,0.3-1.1c0,0,0,0,0,0
	c0-0.1-0.2,0-0.3,0c-0.3,0.1-0.5,0.4-0.4,0.7c0,0,0,0,0,0c0,0.1,0.1,0.2,0.1,0.3c0,0,0,0,0,0c0,0,0,0,0,0c0,0,0,0,0,0
	c0,0,0,0.1,0.1,0.1c0,0.7-0.1,1.5-0.2,2.2c0,0,0,0,0,0c0,0.2-0.1,0.4-0.1,0.6c0-0.2-0.1-0.3-0.1-0.5c0,0,0,0,0,0
	c-0.1-0.5,0-1-0.2-1.5c0.1-0.1,0.1-1-0.2-0.7c0-0.1-0.2-0.2-0.2-0.1c0,0,0,0,0,0c-0.1,0.3-0.1,0.8,0.3,0.8c0.1,0.5,0.1,1.1,0.2,1.6
	c0,0,0,0,0,0c0,0.1,0,0.3,0.1,0.4c0,0,0,0,0,0c0,0,0,0,0,0c0,0,0,0,0,0c0,0,0,0,0,0c0,0,0,0,0,0c0,0.1,0,0.2,0,0.3c0,0,0,0,0,0
	c0,0,0,0,0,0c0,0.1,0,0.2-0.1,0.3c0,0,0,0,0,0c0,0,0,0,0,0c0,0,0,0,0,0c-0.2,1.2-0.6,2.3-1,3.4c0.1-1.4-0.6-3.2,0-4.4c0,0,0,0,0,0
	c0.1-0.1,0.2-0.3,0.2-0.5c0,0,0,0,0,0c0-0.3-0.1-0.5-0.1-0.8c0,0,0,0,0,0c0,0,0,0,0,0c0,0,0,0,0,0c0-0.1-0.1-0.3-0.2-0.2
	c0,0,0,0,0,0c0,0,0,0,0,0c0,0,0,0,0,0c-0.1,0.1-0.1,0.2-0.2,0.3c-0.1-0.1-0.2-0.6-0.4-0.3C89,32.5,88.7,33,89,33.5c0,0,0,0,0,0
	c0.1,0.3,0.4,0.4,0.5,0.6c0,0,0,0,0,0c0,0,0,0.1,0.1,0.1c0,0,0,0,0,0c0,0,0,0,0,0c0,0,0,0,0,0c0,0,0,0,0,0c0,0,0,0,0,0c0,0,0,0,0,0
	c0,0.9,0,1.9,0.1,2.8c0,0,0-0.1-0.1-0.1c0,0,0,0,0,0c-0.1-0.2-0.2-0.4-0.3-0.7c0,0,0,0,0,0c0,0,0-0.1,0-0.1c0,0,0,0,0,0
	c0,0,0-0.1-0.1-0.1c0,0,0,0,0,0c0-0.1-0.1-0.2-0.1-0.2c0,0,0,0,0,0c0-0.2-0.2-0.4-0.2-0.6c0,0,0,0,0,0c0.1-0.2,0-0.5-0.2-0.6
	c0,0,0,0,0,0c-0.3-0.3-0.6,0.8,0.1,0.7c0.1,0.2,0.2,0.4,0.2,0.6c0,0,0,0,0,0c0,0.1,0,0.1,0.1,0.2c0,0,0,0,0,0c0,0,0,0,0,0
	c0,0,0,0,0,0c0.1,0.2,0.2,0.5,0.3,0.7c0,0,0,0,0,0c0,0.1,0.1,0.3,0.2,0.4c0,0,0,0,0,0c0.1,1.5,0.2,3.1,0.2,4.7
	c0-0.1-0.1-0.3-0.2-0.4c0,0,0,0,0,0c0,0,0,0,0,0c0,0,0,0,0,0c0,0,0-0.1,0-0.1c0,0,0,0,0,0c-0.1-0.4-0.3-0.8-0.4-1.3c0,0,0,0,0,0
	c-0.1-0.4-0.2-0.8-0.4-1.1c0,0,0-0.1,0-0.1c0,0,0,0,0,0c0.2-0.5-0.2-1-0.7-1.1c-0.1-0.1-0.2,0-0.1,0.1c0,0,0,0,0,0c0,0,0,0.1,0,0.1
	c0,0,0,0,0,0c0,0,0,0,0,0c0,0,0,0,0,0c0,0.1,0,0.3,0,0.4c0,0,0,0,0,0c0,0.4,0.4,0.6,0.7,0.6c0.1,0.1,0.1,0.2,0.1,0.4c0,0,0,0,0,0
	c0,0.1,0,0.1,0.1,0.2c0,0,0,0,0,0c0,0,0,0,0,0c0,0,0,0,0,0c0,0,0,0,0,0c0,0,0,0,0,0c0,0,0,0.1,0,0.1c0,0,0,0,0,0c0,0,0,0,0,0
	c0,0,0,0,0,0c0,0,0,0,0,0c0,0,0,0,0,0c0.1,0.3,0.2,0.7,0.3,1c0,0,0,0,0,0c0.1,0.5,0.3,1,0.5,1.4c0,0,0,0,0,0c0,0.1,0.1,0.3,0.1,0.4
	c0,0,0,0,0,0c0,0.1,0,0.3,0.1,0.4c-0.1,2.2,0,4.5-0.2,6.7c-1,2.4-2.1,4.8-3.3,7.1c-0.9,1.5-2,2.8-2.7,4.4c0.8-3.2,1.2-6.6,1.8-9.8
	c0.8-1.7,1.7-3.3,2.3-5c0,0,0,0,0,0c0-0.1,0.1-0.1,0.2-0.1c0.1-0.1,0.2-0.2,0.2-0.3c0,0,0,0,0,0c0.1-0.2,0.1-0.7-0.2-0.6
	c0,0,0,0,0,0c-0.4,0.1-0.5,0.4-0.4,0.8c0,0,0,0,0,0c0,0,0,0,0,0c0,0,0,0,0,0c0,0.1,0,0.1,0,0.2c0,0,0,0,0,0
	c-0.5,1.7-1.5,3.3-2.3,4.9c0.5-4,0.9-8.1,0.7-12.1c-0.5-3,0.7-4.1,1.2-6.9c0.1-0.2,0.3-0.4,0.2-0.6c0,0,0,0,0,0
	c-0.1-1.1-1.1,0.1-0.4,0.5c0,0,0,0,0,0c0,0,0.1,0.1,0.1,0.1c-0.2,1.2-0.7,2.4-1.2,3.6c0-1.8,0-3.5-0.2-5.3c0.4-0.7,0.5-1.6,0.7-2.3
	c0,0,0,0,0,0c0,0,0,0,0,0c0,0,0,0,0,0c0.3-0.3,0.4-0.8,0.6-1.1c0,0,0,0,0,0c0,0,0,0,0,0c0,0,0,0,0,0c0,0,0,0,0,0v0c0,0,0-0.1,0-0.1
	c0,0,0,0,0,0c0.1-0.3,0.3-0.6,0.4-1c0,0,0,0,0,0c0,0,0,0,0,0c0,0,0,0,0,0c0,0,0,0,0,0c0,0,0,0,0,0c0,0,0-0.1,0.1-0.1c0,0,0,0,0,0
	c0,0,0,0,0,0c0,0,0,0,0,0c0.1-0.2,0.2-0.4,0.3-0.6c0,0,0,0,0,0c0.2-0.5,0.5-0.9,0.6-1.4c0,0,0,0,0,0c0,0,0,0,0,0
	c0-0.1,0.1-0.1,0.2-0.2c0,0,0,0,0,0c0.2-0.1,0.3-1-0.1-0.7c0,0,0,0,0,0c0,0,0,0,0,0c0,0,0,0,0,0c0,0,0,0,0,0l0,0
	c-0.2,0.1-0.4,0.4-0.3,0.6c0,0,0,0,0,0c0,0.1,0.1,0.1,0.1,0.2c0,0,0,0,0,0c0,0,0,0,0,0c0,0,0,0,0,0c0,0,0,0.1,0,0.1
	c-0.2,0.6-0.5,1.2-0.8,1.8c0,0,0,0,0,0c0,0.1-0.1,0.2-0.1,0.3c0,0,0,0,0,0c0,0,0,0,0,0c0,0,0,0,0,0c0,0,0,0,0,0c0,0,0,0,0,0
	c-0.1,0.1-0.1,0.3-0.2,0.4c0,0,0,0,0,0c-0.1,0.2-0.2,0.4-0.3,0.6c0,0,0,0,0,0c0,0.1-0.1,0.1-0.1,0.2c0,0,0,0,0,0c0,0,0,0,0,0
	c0,0,0,0,0,0c-0.1,0.3-0.3,0.6-0.4,0.8c0.1-0.3,0.1-0.5,0.1-0.8c0,0,0,0,0,0c0-0.1,0-0.2,0.1-0.4c0,0,0,0,0,0
	c0.1-0.6,0.2-1.2,0.3-1.7c0,0,0,0,0,0c0,0,0,0,0,0c0,0,0,0,0,0c0.4-1.9,1.8-3.6,2.3-5.5c0.2-0.2,0.4-0.4,0.3-0.7c0,0,0,0,0,0
	c0-0.1,0-0.1,0-0.2c0,0,0,0,0,0c0-0.1,0-0.2-0.1-0.2l0,0c-0.3,0.1-0.6,0.4-0.5,0.7c0,0,0,0,0,0c0,0,0,0.1,0,0.1c0,0,0,0,0,0
	c0,0,0,0,0,0c0,0,0,0,0,0c0,0.1,0.1,0.1,0.1,0.2c0,0,0,0,0,0c0,0,0,0,0,0.1c-0.5,1.5-1.5,2.9-2,4.4c0.5-2,0.6-4.2,0.8-6.3
	c0.5-0.4,1,0.1,1.6-0.8c0,0,0,0,0,0c0,0,0,0,0,0c0,0,0,0,0,0c0,0,0,0,0,0c0,0,0,0,0,0c0,0,0,0,0,0c0,0,0,0,0,0
	c0.2-0.2-0.2-0.2-0.3-0.2c0,0,0,0,0,0c-0.1,0-0.2,0-0.3,0c0,0,0,0,0,0c0,0,0,0-0.1,0c0,0,0-0.1,0-0.1c0,0,0,0,0,0c0,0,0,0,0,0
	c0,0,0,0,0,0c0-0.2,0.1-0.5,0-0.8c-0.3-0.1-0.5,0.1-0.6,0.4c0-0.3-0.1-0.5-0.3-0.8c0,0,0,0,0,0c0-0.2-0.2-0.2-0.3-0.1c0,0,0,0,0,0
	c-0.2,0.2-0.3,0.5-0.4,0.8c0-0.1-0.1-0.2-0.2-0.3c0,0,0,0,0,0c-0.1-0.1-0.2-0.2-0.2-0.3c0,0,0,0,0,0c-0.2-0.3-0.4,0.5-0.3,0.7
	c0,0,0,0,0,0c0,0,0,0,0,0c0,0,0,0,0,0c0,0.3,0.2,0.5,0.4,0.7c0,0,0,0,0,0c0.1,0.1,0.2,0.1,0.3,0.2c0,0,0,0,0,0
	c0.1,0.1,0.2,0.1,0.3,0.3c0,0,0,0,0,0c0,0,0,0,0,0c-0.1,0.9-0.2,1.9-0.3,2.8c0-0.1-0.1-0.2-0.1-0.3c0,0,0,0,0,0
	c-0.1-0.2-0.1-0.3-0.2-0.5c0,0,0,0,0,0c0,0,0,0,0,0c0,0,0,0,0,0c-0.1-0.3-0.2-0.6-0.3-0.9c0,0,0-0.1,0-0.1c0,0,0,0,0,0c0,0,0,0,0,0
	c0,0,0,0,0,0c0.1-0.2,0-0.4-0.1-0.5c0,0,0,0,0,0c0,0,0,0,0,0c0,0,0,0,0,0c0,0,0,0,0,0c0,0,0,0,0,0c0,0,0,0,0,0c0,0,0,0,0,0
	c0,0,0,0,0,0c0,0,0,0,0,0c0,0,0,0,0,0c0,0,0,0,0,0c-0.2-0.3-0.3,0.2-0.2,0.3c0,0,0,0,0,0c0,0,0,0,0,0c0,0.2,0.1,0.3,0.2,0.4
	c0.1,0.3,0.2,0.6,0.3,0.9c0,0,0,0,0,0c0,0,0,0,0,0c0,0,0,0,0,0c0.1,0.1,0.1,0.3,0.1,0.4c0,0,0,0,0,0c0,0,0,0,0,0c0,0,0,0,0,0
	c0,0,0,0,0,0.1c0,0,0,0,0,0c0,0,0,0.1,0,0.1c0,0,0,0,0,0c0,0,0,0,0,0c0,0,0,0,0,0c0.4,1.4-0.3,2.8-0.5,4.2c0,0,0,0,0,0c0,0,0,0,0,0
	c0,0,0,0,0,0c0,0,0,0.1,0,0.2c0,0,0,0,0,0c0,0.1,0,0.1,0,0.2c0,0,0,0,0,0c0,0.1,0,0.1,0,0.1c0,0,0,0,0,0c0,0.2-0.1,0.5-0.1,0.7
	c-0.1-1.3-0.2-2.5-0.3-3.8c0,0,0,0,0,0c0-0.1,0-0.1,0-0.2c0,0,0,0,0-0.1c0,0,0,0,0,0c0.1-0.1,0.1-0.2,0.2-0.3c0,0,0,0,0,0
	c0,0,0,0,0,0c0,0,0,0,0,0c0,0,0,0,0,0c0,0,0,0,0,0c0-0.1,0.1-0.3,0-0.4c0,0,0,0,0,0c0-0.2-0.2-0.3-0.3-0.1c0,0,0,0,0,0c0,0,0,0,0,0
	c-0.2-0.4-0.5,0.7-0.1,0.9c0,0,0,0,0,0c0,0,0,0,0,0c0,1.7,0.4,3.5,0.2,5.1c0,0,0,0,0,0c0,0,0,0,0,0c0,0,0,0,0,0c0,0.1,0,0.1,0,0.2
	c0,0,0,0,0,0c0,0.2-0.1,0.4-0.1,0.6c0,0,0,0,0,0c-0.2,0.8-0.3,1.6-0.6,2.4c-0.2-4.3-2-8.5-1.7-12.8c0,0,0,0,0,0c0,0,0,0,0,0l0,0
	c0,0,0,0,0,0c0,0,0,0,0,0c0,0,0,0,0-0.1c0,0,0,0,0,0c0,0,0-0.1,0-0.1c0,0,0,0,0,0c0-0.1,0-0.1,0.1-0.2c0,0,0,0,0,0
	c0.2-0.5,0.4-1,0.6-1.6c0.3-0.2,0.3-0.6,0.2-0.9c0-0.1,0-0.1-0.1-0.1c0,0,0,0,0,0c-0.3,0.2-0.6,0.7-0.2,0.9c-0.1,0.5-0.4,1-0.6,1.5
	c0-0.9,0-1.8,0-2.7c0.3-0.1,0.3-0.9,0-0.9c-0.6,0-0.6,0.8-0.1,1c0,1.4,0,2.8-0.1,4.3c-0.3-1-0.7-1.9-0.9-2.9c-0.1,0-0.1-0.1,0-0.1
	c0-0.9,0.1-1.8,0.2-2.6c0-0.1,0-0.2,0.1-0.3c0,0,0,0,0,0c0.3-0.8,0.8-1.5,1-2.4c0,0,0.1,0,0.1,0c0,0,0,0,0,0c0,0,0,0,0,0
	c0,0,0,0,0,0c0.4-0.1,0.5-0.5,0.4-0.9c0,0,0,0,0,0c0,0,0,0,0,0c-0.1-0.1-0.1-0.4-0.2-0.3c-0.4,0.2-0.8,0.7-0.4,1.1c0,0,0,0,0,0
	c0,0,0,0,0,0.1c0,0,0,0,0,0c0,0,0,0,0,0.1c0,0.2-0.1,0.4-0.2,0.6c0,0,0,0,0,0c-0.2,0.5-0.5,0.9-0.7,1.4c0.2-1.2,0.4-2.5,0.2-3.7
	c0,0,0,0,0,0c0,0,0,0,0,0c0.6-0.4,0.1-1-0.3-1.3c0,0,0,0,0,0c0,0,0,0,0,0c0,0,0,0,0,0c-0.3-0.4-0.3,0.3-0.3,0.5c0,0,0,0,0,0
	c0,0,0,0,0,0c0,0.3,0.2,0.6,0.5,0.7c0.3,2.1-0.5,4.2-0.6,6.4c-0.3-0.8-0.5-1.6-0.8-2.4c1.2-0.3,1.1-1.5,1.1-2.5c0,0,0,0,0,0
	c0-0.1,0-0.2,0-0.3c0,0,0,0,0,0c0-0.2-0.2-0.1-0.3-0.1c-0.3,0-0.5,0.3-0.6,0.6c0,0,0,0,0,0c0,0,0,0.1,0,0.1C82,10,81.9,10,81.8,9.9
	c0,0,0,0,0,0c0,0,0,0,0,0c0,0,0,0,0,0c0,0,0,0,0,0c0,0,0,0,0,0c0,0,0-0.1,0-0.1l0,0c0,0,0,0,0,0c0,0,0,0,0,0c0-0.1,0-0.2,0-0.3
	c0,0,0,0,0,0c0,0,0-0.1,0-0.1c0,0,0,0,0,0c0,0,0-0.1,0-0.1c0,0,0,0,0,0c0,0,0,0,0,0c0,0,0,0,0,0c0,0,0,0,0,0c0,0,0,0,0,0
	c0,0,0-0.1,0-0.1c0,0,0,0,0,0c0-0.5-0.2-1-0.3-1.5c0,0,0,0,0,0c0,0,0,0,0-0.1c0,0,0,0,0,0c-0.1-0.4-0.2-0.8-0.4-1.1c0,0,0,0,0,0
	c0-0.1,0.2-0.2,0.2-0.3c0,0,0,0,0,0c0,0,0,0,0,0l0,0c0,0,0,0,0,0c0,0,0,0,0,0c0,0,0,0,0,0c0,0,0,0,0,0c0.1-0.4-0.2-0.6-0.4-0.8
	c-0.1-0.1-0.2,0.3-0.3,0.5c0,0,0,0,0,0c-0.1,0.2,0,0.5,0.2,0.6c0,0,0,0,0,0c0.1,0,0.1,0.1,0.2,0.1c0,0,0,0,0,0c0,0,0,0,0,0.1
	c0.1,0.3,0.2,0.6,0.3,0.8v0c0,0,0,0,0,0c0,0,0,0,0,0l0,0c0,0,0,0,0,0c0,0,0,0,0,0c0.1,0.6,0.3,1.3,0.4,1.9c0,0,0,0,0,0c0,0,0,0,0,0
	c0,0,0,0,0,0c0,0,0,0.1,0,0.1c0,0,0,0,0,0c0,0,0,0,0,0.1c0,0,0,0,0,0c0,0,0,0,0,0c0,0,0,0,0,0c0,0,0,0,0,0c0,0,0,0,0,0c0,0,0,0,0,0
	c0,0,0,0,0,0c0,0.1,0,0.2,0,0.3c-0.1-0.2-0.4-0.3-0.6-0.5c0,0,0,0,0,0c-0.5-0.5-0.7,0.8-0.7,1.1c0,0,0,0,0,0.1c0,0,0,0,0,0
	c0,0,0,0,0,0c0,0,0,0,0,0c0,0,0,0,0,0c-0.1-0.1-0.2-0.1-0.3-0.1c-0.1-0.1-0.1-0.3-0.2-0.4c0,0,0,0,0,0c-0.1-0.3-0.3-0.6-0.3-1
	c0.1-0.3,0.2-0.6-0.1-0.8c0,0,0,0,0,0C79.6,8.1,79.5,8,79.4,8c0,0,0,0,0,0c0,0,0,0,0,0c0,0,0,0,0,0c-0.1-0.2-0.3-0.1-0.4,0.1
	c-0.1,0.3,0.1,0.7,0.4,0.9c0,0,0,0,0,0c0.2,0.2,0.2,0.5,0.3,0.7c0,0,0,0,0,0c0,0,0,0,0,0c0,0,0,0,0,0c0,0,0,0,0,0c0,0,0,0,0,0
	c0,0,0,0,0,0c0,0,0,0,0,0c0,0,0,0,0,0c0.1,0.2,0.2,0.4,0.2,0.6c-1.2,0-0.5,0.4-0.3,1c-0.1,0-0.3,0-0.4,0c0,0,0,0,0,0
	c-0.2,0-0.3,0.1-0.5,0.1c-0.2,0-0.2,0.1,0,0.2c0,0,0,0,0,0c0.5,0.6,1.3,1,2.1,0.9c0.8,1.5,1.9,2.8,2.1,4.5c-0.4-0.5-0.8-1-1.2-1.6
	c0,0,0,0,0,0c-0.1-0.1-0.2-0.3-0.2-0.4c0,0,0,0,0,0c-0.3-0.6-0.7-1.1-1-1.6c0.1-0.2,0-0.5-0.2-0.7l0,0c-0.1-0.1-0.3-0.3-0.3-0.1v0
	c0,0,0,0,0,0C80,12.6,80,12.8,80,13c0,0,0,0,0,0c-0.1,0.4,0.2,0.8,0.6,0.6c0.2,0.3,0.4,0.6,0.6,1c0,0,0,0,0,0c0,0,0,0,0,0
	c0,0,0,0,0,0c0.5,1.1,1.3,2.1,2,3.1c0.7,2,0.7,4.1,1.2,6.1c-0.3-0.6-0.8-1.1-1.2-1.6c0,0,0,0,0,0c0,0,0,0,0,0l0,0
	c-0.1-0.2-0.3-0.4-0.4-0.6c0,0,0,0,0,0c0-0.1-0.1-0.3-0.2-0.4c0,0,0,0,0,0c-0.1-0.2-0.1-0.3-0.2-0.5c0,0,0,0,0,0
	c-0.1-0.3-0.2-0.5-0.2-0.8c0,0,0,0,0,0c0-0.3-0.1-0.6-0.2-0.9c0.1-0.1,0.3-0.3,0.3-0.5c0.1-0.3-0.3-1.1-0.5-0.5c0,0,0,0,0,0
	c0,0,0,0,0,0c0,0,0,0,0,0c0,0,0,0,0,0c0,0,0,0,0,0c0,0,0,0,0,0c-0.3-0.3-0.3,0.3-0.3,0.5c0,0.2,0.2,0.3,0.3,0.4c0,0,0,0,0,0
	c0,0,0,0,0.1,0.1c0,0,0,0,0,0c0,0,0,0,0,0c0,0,0,0,0,0c0,0,0,0,0,0c0,0,0,0,0,0c0,0,0,0,0,0c0,0,0,0,0,0c0,0,0,0,0,0c0,0,0,0,0,0
	c0,0,0,0,0,0c0,0.3,0.1,0.6,0.2,0.8c0,0,0,0,0,0c0.1,0.5,0.2,0.9,0.3,1.4c-0.2-0.2-0.3-0.4-0.5-0.6c0,0,0,0,0,0
	c-0.3-0.5-0.7-0.9-1-1.4c0,0,0,0,0,0c-0.1-0.2-0.3-0.5-0.5-0.7c0.1-0.2,0.1-0.4,0.2-0.6c0,0,0,0,0,0c0,0,0,0,0,0c0,0,0,0,0,0
	c0.1-0.3,0-0.6-0.2-0.8c0,0,0,0,0,0c0,0,0,0,0,0c0,0,0,0,0,0c-0.1-0.1-0.1-0.1-0.2-0.2l0,0c0,0,0,0,0,0c0,0,0,0,0,0
	c-0.2-0.1-0.6-0.5-0.5,0c0,0,0,0,0,0c0,0,0,0,0,0c0,0,0,0,0,0c0,0,0,0.1,0,0.1c0,0-0.1,0-0.1,0c0,0,0,0,0,0c0,0,0,0,0,0
	c-0.1,0-0.4-0.2-0.3,0c0,0,0,0,0,0c0,0,0,0,0,0c0,0,0,0,0,0c0,0,0,0,0,0c0,0,0,0,0,0c0,0.7,0.2,1.4,0.9,1.6c0,0,0,0,0,0
	c0,0,0,0,0.1,0c0,0,0,0,0,0c0,0,0.1,0.1,0.1,0.1c0,0,0,0,0,0c0,0,0,0,0.1,0c0.1,0.1,0.1,0.2,0.2,0.3v0c0.1,0.2,0.2,0.3,0.3,0.5
	c0,0,0,0,0,0c0.2,0.3,0.4,0.6,0.6,0.9c-0.1-0.1-0.2-0.2-0.3-0.2c0,0,0,0,0,0c0,0,0,0,0,0c0,0,0,0,0,0c-0.1,0-0.1-0.1-0.2-0.1
	c0,0,0,0,0,0c-0.1,0-0.1-0.1-0.2-0.1c0,0,0,0,0,0c-0.2-0.2-0.5-0.4-0.7-0.6c0,0,0,0,0,0c-0.1-0.2-0.1-0.4-0.3-0.5c0,0,0,0,0,0
	c0,0-0.1-0.1-0.2-0.1c0,0,0,0,0,0c-0.1,0-0.2,0-0.2,0c0,0,0,0,0,0c0,0,0,0,0,0c0,0,0,0,0,0c-0.4-0.1-0.1,0.4,0,0.5c0,0,0,0,0,0
	c0.1,0.1,0.2,0.1,0.3,0.1c0,0,0,0,0,0c0,0,0,0,0,0c0,0,0,0,0,0c0.1,0,0.2,0.1,0.3,0.1c0.5,0.4,1,0.8,1.5,1.1c0,0,0,0,0,0
	c0.6,0.5,1.1,1.2,1.5,1.8c-0.3-0.2-0.6-0.3-0.8-0.5c0,0,0,0,0,0c-0.1-0.1-0.2-0.1-0.4-0.2c0,0,0,0,0,0c-0.2-0.1-0.4-0.2-0.7-0.3
	c-0.1-0.1-0.1-0.4-0.3-0.5c0,0,0,0,0,0c0,0,0,0,0,0c0,0,0,0,0,0c-0.1-0.1-0.4-0.2-0.5,0c0,0.2,0.1,0.4,0.3,0.5c0,0,0,0,0,0
	c0,0,0,0,0,0c0,0,0,0,0,0c0.1,0,0.2,0.1,0.4,0.1c0.1,0.1,0.2,0.1,0.3,0.1c0,0,0,0,0,0c0.1,0,0.1,0.1,0.2,0.1c0,0,0,0,0,0
	c1.3,0.7,2,1.2,2.7,2.4c0,0,0,0,0,0c0.6,2.1,0.6,4.3,0.9,6.5c-0.6-1.5-1.4-2.9-2.2-4.3c0,0,0,0,0,0c0,0,0,0,0,0c0,0,0,0,0-0.1
	c0,0,0,0,0,0c0.1-0.3-0.2-0.7-0.5-0.8c-0.2,0.1-0.2,0.8,0.1,0.9c0,0,0,0,0,0c0.1,0,0.1,0,0.2,0c0,0,0,0,0,0c0,0,0,0,0,0
	c1.9,3.5,2.7,5,2.4,9.1c0.1,4,0.3,8-0.3,11.9c0,0,0,0,0-0.1c0,0.1,0,0.2,0,0.3c0-0.1,0-0.1,0-0.2c0,0,0,0,0,0
	c-0.1-0.3-0.1-0.6-0.2-1c0,0,0,0,0,0c0-0.1,0-0.2-0.1-0.3c0,0,0,0,0,0.1c-0.5-2-1.1-4-1.6-5.9c0,0,0,0,0,0c0,0,0,0,0,0c0,0,0,0,0,0
	c0.1-1.2-0.1-2.5,0-3.7c0,0,0,0,0,0c0,0,0,0,0,0c0,0,0,0,0,0c0,0,0,0,0-0.1c0,0,0,0,0,0c0.2-0.8,0.6-1.6,0.7-2.5c0,0,0,0,0,0
	c0,0,0,0,0-0.1c0.3-0.1,0.6-0.7,0.2-0.9c-0.2,0.2-0.3,0.5-0.3,0.8c0,0.1,0,0.2,0,0.2c0,0,0,0,0,0c-0.1,0.7-0.4,1.3-0.6,2
	c0-0.6-0.1-1.2-0.1-1.9c0,0,0,0,0,0c0.1-1.6-0.6-3.2-0.6-4.7c0.2-0.3,0.1-1.1-0.4-1.1l0,0c0,0,0,0,0,0c0,0,0,0,0,0c0,0,0,0,0,0
	c0,0,0,0,0,0c-0.1,0-0.1,0.1-0.1,0.2c0,0,0,0,0,0c0,0,0,0,0,0c0,0,0,0,0,0c0,0.1-0.1,0.1-0.1,0.2c0,0,0,0,0,0c0,0,0,0,0,0
	c0,0,0,0,0,0c0,0,0,0,0,0c0,0,0,0,0,0c-0.2,0.4,0.1,0.8,0.4,0.9c0.3,1.3,0.5,2.6,0.6,3.9c-0.1-0.2-0.2-0.5-0.3-0.7c0,0,0,0,0,0
	c-0.3-0.6-0.5-1.3-0.8-1.9c0,0,0,0,0,0c0,0,0,0,0,0c0,0,0,0,0,0c0,0,0,0,0,0c0,0,0,0,0,0c0,0,0,0,0,0c0,0,0,0,0,0c0,0,0,0,0,0
	c0,0,0,0,0,0c0,0,0,0,0,0c0.1-0.3,0-0.6-0.2-0.8c-0.1-0.1-0.2-0.2-0.2-0.1c-0.4-0.2-0.3,0.9,0,1c0,0,0,0,0,0c0,0,0.1,0.1,0.2,0.1
	c0,0,0,0,0,0c0.1,0,0.1,0.1,0.2,0.1c0.2,0.5,0.4,1,0.6,1.5c0,0,0,0,0,0c0,0,0,0.1,0,0.1c0,0,0,0,0,0c0,0,0,0,0,0c0,0,0,0,0,0
	c0,0,0,0,0,0c0,0,0,0,0,0c0,0,0,0.1,0,0.1c0,0,0,0,0,0c0.1,0.3,0.3,0.6,0.4,0.9c0,0,0,0,0,0c0,0.1,0.1,0.1,0.1,0.2
	c0.1,1.7,0.1,3.4,0.2,5.1c0,0,0,0,0,0c0,0,0,0,0,0c0,0,0,0,0,0c0,0.2,0,0.5,0,0.7c-0.9-2.6-1.9-5-2.6-7.6c0,0,0-0.1,0.1-0.1
	c0,0,0,0,0,0c0.2-0.4,0.1-0.8-0.2-1.1c0,0,0,0,0,0c0,0,0,0,0,0c0,0,0,0,0,0c-0.1-0.1-0.2-0.2-0.2-0.3c0,0,0,0,0,0
	c-0.1-0.1-0.2-0.5-0.3-0.2c0,0,0,0,0,0c0,0.1-0.1,0.1-0.1,0.2c0,0,0,0,0,0c0,0,0,0,0,0c0,0,0,0,0,0c0,0,0,0,0,0c0,0,0,0,0,0
	c0-0.1,0-0.1-0.1-0.2c0,0,0,0,0,0c0,0,0,0,0,0c0,0,0,0,0,0c0,0,0,0,0,0c0,0,0,0,0,0c0-0.1,0-0.1-0.1-0.2c0,0,0,0,0,0
	c0,0,0-0.1-0.1-0.1c0,0,0,0,0,0c0-0.1-0.1-0.2-0.1-0.2c0,0,0,0,0,0c0,0,0,0,0,0c0,0,0,0,0,0c0,0,0,0,0,0c0.1-0.3-0.1-0.7-0.4-0.7
	c-0.1,0-0.1,0.1-0.2,0.2c-0.1,0.2,0.1,0.5,0.3,0.5c0,0,0,0,0,0c0,0,0,0,0,0c0,0,0,0,0,0c0,0,0,0,0,0c0,0,0,0,0,0c0,0,0,0,0,0
	c0,0,0,0,0,0c0,0,0.1,0,0.1,0c0,0,0,0,0,0.1c0,0,0,0,0,0c0,0,0,0.1,0,0.1c0,0,0,0,0,0c0,0,0,0.1,0,0.1c0,0,0,0,0,0c0,0,0,0,0,0
	c0,0,0,0,0,0c0,0.1,0.1,0.1,0.1,0.2c0,0,0,0,0,0c0,0.1,0,0.1,0.1,0.2c0,0,0,0,0,0c0,0,0,0,0,0c0,0,0,0,0,0c0,0,0,0,0,0c0,0,0,0,0,0
	c0,0,0,0,0,0c0,0,0,0,0,0c0,0,0,0,0,0c0,0,0,0,0,0c0,0,0,0,0,0.1c0,0,0,0,0,0c0,0,0,0,0,0l0,0c0,0,0,0,0,0v0c0,0.1,0,0.2,0,0.3
	c-0.1-0.1-0.2-0.2-0.2-0.2c0,0,0,0,0,0c0,0,0,0,0,0c0,0,0,0,0,0c0,0,0,0,0,0c0,0,0,0,0,0c-0.2-0.1-0.5-0.2-0.7-0.2
	c-0.1,0.4,0,0.9,0,1.3c-0.1,0-0.3-0.1-0.4-0.1c0,0,0,0,0,0c0,0-0.1,0-0.1,0c0,0,0,0,0,0c-0.2,0-0.7,0.1-0.7,0.3
	c0.2,0.1,0.4,0.2,0.5,0.4c0.5,0.6,1,0.4,1.6,0.2c0.5,0.2,0.6,1,0.9,1.4c0.5,1,1,2,1.4,3.1c-0.8-0.9-1.7-1.7-2.5-2.6c0,0,0,0,0,0
	c0,0,0,0,0,0c0,0,0,0,0,0c0,0,0,0,0,0c0,0,0,0,0,0c0,0,0,0,0,0c0,0,0,0,0,0c0,0,0,0,0,0c0,0,0,0,0,0c0-0.1,0-0.1,0-0.2c0,0,0,0,0,0
	c0,0,0,0,0,0c0,0,0,0,0,0c0-0.1,0-0.1,0-0.1c0,0,0,0,0,0c0-0.2-0.7-0.7-0.6-0.3c-0.4-0.1-0.2,0.3-0.1,0.5c0.2,0.2,0.5,0.3,0.7,0.2
	c0.8,0.9,1.6,1.8,2.5,2.6c0,0,0,0,0,0c0,0,0,0,0,0.1c0,0,0,0,0,0c0,0,0,0,0.1,0.1c0,0,0,0,0,0c0,0,0,0.1,0.1,0.1c0,0,0,0,0,0
	c0.8,2,1.4,4.1,2,6.3c-0.1-0.1-0.2-0.2-0.2-0.4c0,0,0,0,0,0c-0.3-0.5-0.7-1-1-1.5c0,0,0,0,0,0c-0.6-0.9-1.2-1.7-1.9-2.5
	c0.4-0.4-0.3-1.1-0.7-1.1c-0.2,0-0.2,0.1-0.2,0.3c0,0.4,0.4,1,0.9,0.8c0.2,0.3,0.5,0.5,0.7,0.8c0,0,0,0,0,0c0.1,0.1,0.1,0.2,0.2,0.2
	c0,0,0,0,0,0c0.4,0.5,0.8,1,1.1,1.6c-0.3-0.2-0.5-0.4-0.8-0.7c0,0,0,0,0,0c-0.3-0.3-0.7-0.5-1-0.7c0,0,0,0,0,0
	c0-0.3-0.4-0.6-0.7-0.5c0,0.3,0.3,0.6,0.6,0.6c0.3,0.2,0.6,0.4,0.9,0.6c0,0,0,0,0,0c0,0,0.1,0.1,0.1,0.1c0,0,0,0,0,0c0,0,0,0,0,0
	c0,0,0,0,0,0c0,0,0.1,0.1,0.1,0.1c0,0,0,0,0,0c0,0,0,0,0,0c0,0,0,0,0,0c0.2,0.1,0.3,0.3,0.5,0.4c0,0,0,0,0,0c0,0,0,0,0,0
	c0,0,0,0,0,0c0.1,0.1,0.2,0.3,0.4,0.4c0,0,0,0,0,0c0.2,0.2,0.4,0.4,0.5,0.6c0,0,0,0,0,0c0.6,0.8,0.9,1.6,1.1,2.6c0,0,0,0,0,0
	c0,0,0,0,0,0c0.9,2.8,0.3,5.7-0.2,8.6c-0.8,5.2-2.3,10.2-4.2,15.1c0-0.4,0-0.8,0.1-1.2c0,0,0,0,0,0.1c0-0.2,0-0.3,0-0.5
	c0,0,0,0,0,0.1c0.4-3.1,0.4-6.3,0.4-9.4c0.2-0.7,0.4-1.4,0.7-2.1c0,0,0,0,0,0c0.3-0.8,0.5-1.7,0.7-2.5c0,0,0,0,0,0c0,0,0-0.1,0-0.1
	c0,0,0,0,0,0c0-0.1,0-0.3,0.1-0.4c0.1-0.1,0.3-0.2,0.3-0.4c0.1-0.2,0.1-0.8-0.2-0.6c0,0,0,0,0,0c0,0,0,0,0,0c0-0.1-0.1-0.1-0.2,0
	c0,0,0,0,0,0c-0.1,0-0.1,0.1-0.2,0.2c0,0,0,0,0,0c0,0,0,0,0,0c0,0,0,0,0,0c-0.2,0.3-0.1,0.6,0.1,0.8c0,0,0,0,0,0c0,0,0,0,0,0
	c0,0,0,0,0,0c0,0,0,0,0,0c0,0,0,0,0,0c-0.3,1.5-0.9,2.9-1.4,4.4c-0.1-1.4-0.2-2.9,0-4.3c0,0,0,0,0,0c0,0,0,0,0,0c0,0,0,0,0,0
	c0-0.1,0-0.2,0.1-0.2c0,0,0,0,0,0c0,0,0,0,0,0c0,0,0,0,0,0c0.1-0.3,0.2-0.5,0.3-0.7c0,0,0,0,0,0c0.2-0.4,0.6-0.7,0.8-1c0,0,0,0,0,0
	c0,0,0-0.1,0-0.1c0,0,0,0,0,0c0-0.1,0.1-0.1,0.1-0.2c0,0,0,0,0,0c0,0,0,0,0,0c0,0,0,0,0,0c0.1-0.2,0.2-0.4,0.3-0.6c0,0,0,0,0.1,0
	c0,0,0,0,0,0c0.2-0.1,0.5-0.6,0.3-0.7c-0.2,0-0.6,0.2-0.5,0.5c0,0,0,0,0,0c0,0.1,0,0.2,0.1,0.2c-0.1,0.2-0.2,0.3-0.3,0.5
	c0,0,0,0,0,0c0,0.1-0.1,0.1-0.1,0.2c0,0,0,0,0,0c0,0,0,0,0,0.1c0,0,0,0,0,0c-0.3,0.5-0.7,0.8-0.9,1.2c0.2-0.8,0.4-1.7,0.5-2.6
	c0.9-0.1,1.2-0.7,1-1.5c0,0,0,0,0,0c0,0,0,0,0,0c0,0,0,0,0,0c0,0,0-0.1,0-0.1c0,0,0,0,0,0c0,0,0,0,0,0c0,0,0,0,0,0
	c0-0.1,0-0.2,0-0.3c0,0,0,0,0,0c0-0.1-0.1-0.2-0.2-0.1c0,0,0,0,0,0c0,0,0,0,0,0c0,0,0,0,0,0c-0.1,0.1-0.2,0.2-0.3,0.3
	c0.1-0.4,0.1-0.8,0.1-1.2c0.1-0.2,0.3-0.3,0.3-0.5c0-0.2-0.2-0.7-0.4-0.4c0,0,0,0,0,0c0,0,0,0,0,0c0,0,0,0,0,0c0,0,0,0,0,0
	c0,0,0,0,0,0c0,0,0,0,0,0c0,0,0,0,0,0c0,0,0,0,0,0c0,0,0,0,0,0c-0.2,0.3-0.1,0.6,0.1,0.8c0,0.5-0.1,0.9-0.2,1.4
	c-0.3-0.9-0.6-1.1-1.2-0.2c0,0,0,0,0,0c0,0,0,0,0,0c-0.1-0.2-0.2-0.3-0.4-0.4c0,0,0,0,0,0c0,0,0,0,0,0c0,0,0,0,0,0
	c-0.1-0.1-0.3-0.4-0.5-0.2c0,0,0,0,0,0c0,0.1-0.1,0.1-0.1,0.2c0,0,0,0,0,0c-0.1,0.1-0.1,0.3-0.2,0.4c0,0,0,0,0,0c0,0,0,0,0,0
	c0,0,0,0,0,0c0,0.1-0.1,0.2,0,0.4c-0.2-0.2-0.6-0.3-0.9-0.3c-0.1,0-0.1,0.3-0.1,0.4c0,0,0,0,0,0c0.2,1.2,1,1.2,2,1.5c0,0,0,0,0,0
	c0.1,0,0.1,0.1,0.1,0.1c0,0.5-0.1,1-0.1,1.6c0,0,0,0,0,0c0,0,0,0,0,0c0,0,0,0,0,0c0,0.8,0,1.6,0,2.3c0,0,0,0,0,0c0,0,0,0.1,0,0.1
	c0,0,0,0,0,0c0,0.2,0,0.4,0,0.5c0,0,0,0,0-0.1c0,0.1,0,0.2,0,0.3c-0.1-0.5-0.3-0.9-0.5-1.4c0,0,0,0,0,0c-0.1-0.2-0.1-0.4-0.2-0.5
	c0,0,0,0,0,0c-0.2-0.5-0.5-1.1-0.6-1.6c0,0,0,0,0,0c0,0,0,0,0,0c0,0,0,0,0,0c0.1-0.3,0-1-0.4-1.1c-0.4,0.4-0.5,0.9,0.2,1.1
	c0,0,0,0,0,0c0.1,0,0.1,0.1,0.2,0.2c0.2,0.7,0.4,1.4,0.7,2.1c0,0,0,0,0,0c0,0,0,0,0,0.1c0,0,0,0,0,0c0.9,2,0.7,4.2,0.7,6.3
	c0,0,0,0,0,0c0,0.1,0,0.1,0,0.2c0,0,0,0,0,0c0,0,0,0,0,0.1c0,0,0,0,0,0c0,0.2,0,0.3,0,0.5c-0.3-1.1-0.6-2.1-1.1-3.1c0,0,0,0,0,0
	c0,0,0,0,0,0c0,0,0,0,0,0c0,0,0,0,0,0c0,0,0,0,0,0c0,0,0,0,0,0c0,0,0,0,0,0c0,0,0,0,0,0c0,0,0,0,0,0c0,0,0,0,0,0c0,0,0,0,0,0
	c-0.1-0.1-0.1-0.3-0.2-0.4c0,0,0,0,0,0c0,0,0,0,0,0v0c-0.1-0.3-0.3-0.7-0.4-1c0,0,0,0,0,0c0,0,0,0,0,0c0,0,0,0,0-0.1c0,0,0,0,0,0
	c0.1-0.3,0.2-0.7,0-1c-0.1-0.2-0.4-0.7-0.5-0.3c0,0,0,0,0,0c0,0,0,0,0,0c0,0,0,0,0,0c0,0,0,0,0,0c-0.1-0.1-0.2-0.1-0.3-0.1
	c0,0,0,0,0,0c-0.2-0.1-0.2,0.2-0.2,0.3c-0.2,0.6,0.3,1.1,0.9,1.1c0,0,0,0,0,0c0,0,0,0,0,0c0,0,0,0,0,0c0,0,0,0,0.1,0
	c0.2,0.6,0.4,1.2,0.6,1.8c0,0,0,0,0,0c0,0,0,0,0,0.1c0,0,0,0,0,0c1.6,3.8,1.1,6.7,0.7,10.6c0,0,0,0,0-0.1c0.2,2.8-1.1,5.3-2.7,7.6
	c-0.8,1.1-1.6,1.7-1.2,2c0.2,0.2,0.9-0.6,1.3-1.2c2.2-3,3.4-6.7,4.5-10.4c0.1-0.1,0.2-0.3,0.3-0.4c0,0,0,0,0,0c0,0,0,0,0,0
	c0,0,0,0,0,0c0,0,0-0.1,0.1-0.1l0,0c0-0.1,0.1-0.1,0.1-0.2c0,0,0,0,0,0c1.4-1.8,2.6-3.7,4-5.6c0.4-0.1,1.4-1.4,0.6-1.5
	c-0.5,0.2-0.8,0.6-0.7,1.2c-1.3,1.7-2.5,3.5-3.9,5.2c0.3-0.7,0.5-1.5,0.8-2.2c0,0,0,0,0,0c0,0,0,0,0,0l0,0c0,0,0,0,0,0c0,0,0,0,0,0
	c0.1-0.2,0.2-0.5,0.3-0.7c0,0,0,0,0,0c0.1-0.2,0.2-0.4,0.3-0.7c0,0,0,0,0,0c1.2-2.6,3.1-4.8,4.2-7.4c1-1,2.1-2.1,3-3.2c0,0,0,0,0,0
	c0,0,0,0,0,0c0,0,0,0,0,0c0,0,0,0,0,0c0,0,0,0,0,0c0.1-0.1,0.1-0.2,0.2-0.2c0,0,0,0,0,0c0,0,0,0,0,0c0,0,0,0,0,0
	c0-0.1,0.1-0.1,0.1-0.2c0,0,0,0,0,0c0.4-0.5,0.7-1.2,1-1.8c0.5,0.1,0.8-0.5,0.6-0.9c0,0,0,0,0,0c0,0,0,0,0-0.1c0,0,0,0,0,0
	c0-0.1,0-0.2-0.1-0.3l0,0c-0.1-0.5-0.8,0.5-0.7,0.7c-0.1,2.1-2.5,3.8-3.8,5.4c1.2-2.4,2.2-4.9,2.9-7.5c0.3-2,1.3-3.6,2.4-5.2
	c0.4,0,0.7-0.2,0.8-0.6c-0.3-0.5-1.1,0.1-0.9,0.6c-0.6,0.9-1.1,1.7-1.6,2.6c0.4-1.7,0.6-3.4,0.8-5.1c0,0,0,0,0.1,0c0,0,0,0,0,0
	c0.2,0.1,0.3,0.2,0.5,0.2c0,0,0,0,0,0c0.3,0.1,0.7,0.3,1,0.1c0,0,0,0,0,0c0.1,0,0.2-0.1,0.2-0.2c0,0,0,0,0,0c0,0,0,0,0,0
	c0,0,0,0,0,0c0,0,0.1-0.1,0.1-0.2c0,0,0,0,0,0c0,0,0,0,0,0v0c0,0,0.1-0.1,0.1-0.1c0,0,0,0,0,0C94.6,38.6,94.8,38.6,94.7,38.4
	 M91.1,39.3C91.1,39.3,91.1,39.3,91.1,39.3C91.1,39.3,91.1,39.3,91.1,39.3z M91.1,39.4c0.1,0.1,0.1,0.1,0.1,0.2c0,0,0,0,0,0
	c0,0,0,0,0,0c0,0,0,0,0,0c0,0,0,0,0,0c0,0,0,0,0,0c0,0.1,0,0.2,0,0.2c0,0,0,0,0,0c0,0,0,0.1,0,0.1c0,0,0,0,0,0
	c-0.1-0.1-0.1-0.2-0.1-0.3c0,0,0,0,0,0C91,39.6,91,39.5,91.1,39.4C91.1,39.4,91.1,39.4,91.1,39.4z M91,39.9c0,0,0-0.1,0-0.2
	C90.9,39.8,91,39.9,91,39.9C91,39.9,91,39.9,91,39.9z M92,34.1C92,34.1,92,34.1,92,34.1C92,34.1,92,34.1,92,34.1z M92.2,33.8
	c0,0.1,0,0.2-0.1,0.2c0,0,0,0,0,0c0,0,0,0,0,0C92.1,34,92.2,33.9,92.2,33.8C92.2,33.8,92.2,33.8,92.2,33.8
	C92.2,33.8,92.2,33.8,92.2,33.8C92.2,33.8,92.2,33.8,92.2,33.8C92.2,33.8,92.2,33.8,92.2,33.8z M92,33.5C92,33.5,92,33.5,92,33.5
	C92,33.5,92,33.5,92,33.5z M91.9,33.8c0,0,0-0.1,0-0.1c0,0,0,0,0,0c0,0,0,0,0,0c0,0,0,0,0,0c0-0.1,0.1-0.1,0.1-0.2c0,0,0,0.1,0,0.1
	c0,0,0,0,0,0c0,0.1,0,0.1,0,0.2c0,0,0,0,0,0c0,0,0,0,0,0c0,0,0,0,0,0c0,0.1,0,0.1-0.1,0.2c0,0,0,0,0,0c0,0,0,0,0,0c0,0,0,0,0,0
	c0,0,0,0,0,0c0,0,0,0,0,0c0,0,0,0,0,0c0,0,0,0,0,0c0,0,0,0,0,0c0,0,0,0,0,0C91.9,33.9,91.9,33.8,91.9,33.8
	C91.9,33.8,91.9,33.8,91.9,33.8C91.9,33.8,91.9,33.8,91.9,33.8C91.9,33.8,91.9,33.8,91.9,33.8z M90.8,32L90.8,32L90.8,32z
	 M90.8,31.3L90.8,31.3C90.8,31.3,90.8,31.3,90.8,31.3C90.8,31.3,90.8,31.3,90.8,31.3z M90.8,31.3C90.8,31.3,90.8,31.3,90.8,31.3
	C90.8,31.3,90.8,31.3,90.8,31.3z M90.7,31.4C90.7,31.4,90.7,31.4,90.7,31.4C90.7,31.4,90.7,31.4,90.7,31.4
	C90.8,31.4,90.8,31.4,90.7,31.4c0.1,0.1,0.1,0.1,0.1,0.3c0,0,0,0,0,0c0,0.1,0,0.2,0,0.3C90.6,31.8,90.6,31.6,90.7,31.4z M90.6,31.9
	c-0.2-0.1-0.1-0.4-0.1-0.6c0,0,0,0.1,0.1,0.1C90.5,31.6,90.5,31.7,90.6,31.9C90.6,31.9,90.6,31.9,90.6,31.9z M90.7,32
	C90.7,32,90.7,32,90.7,32C90.7,32,90.7,32,90.7,32z M90.7,32C90.7,32,90.7,32,90.7,32S90.7,32,90.7,32C90.7,32,90.7,32,90.7,32z
	 M91.8,30.5c0,0.2-0.1,0.3-0.2,0.4c0,0,0,0,0,0c0,0-0.1,0.1-0.1,0.1c0,0,0,0,0,0c0,0,0-0.1,0-0.1c0,0,0,0,0,0c0-0.1,0-0.2,0-0.3
	c0,0,0,0,0,0c0,0,0,0,0,0c0,0,0,0,0,0c0,0,0,0,0,0c0,0,0,0,0,0c0-0.2,0.1-0.3,0.3-0.4C91.8,30.3,91.8,30.4,91.8,30.5z M91.4,31
	c-0.2-0.2-0.1-0.6,0.2-0.7C91.4,30.5,91.4,30.8,91.4,31C91.4,31.1,91.4,31,91.4,31z M90,32.3C90,32.3,90,32.3,90,32.3L90,32.3
	C90,32.3,90,32.3,90,32.3z M90,32.3C90,32.3,90,32.3,90,32.3C90,32.3,90,32.3,90,32.3z M89.8,32.6c0-0.1,0.1-0.2,0.1-0.2
	c0,0,0,0,0,0c0,0,0,0,0,0c0,0,0,0,0,0c0,0,0,0,0,0c0,0,0,0,0,0c0,0,0,0,0,0c0,0.1,0,0.1,0.1,0.2c0,0,0,0,0,0c0,0,0,0,0,0
	c0,0,0,0,0,0c0,0.1,0,0.1,0.1,0.2c0,0,0,0,0,0c0,0,0,0,0,0c0,0,0,0,0,0c0.1,0.3,0,0.6-0.2,0.9c0,0,0,0,0,0c0,0,0,0,0,0c0,0,0,0,0,0
	c0,0-0.1,0.1-0.1,0.2c0-0.1,0-0.2,0-0.2c0,0,0,0,0,0c0,0,0,0,0,0c0,0,0,0,0,0c0-0.2,0.1-0.4,0-0.6C89.8,32.8,89.8,32.7,89.8,32.6z
	 M89.8,32.7C89.8,32.7,89.8,32.7,89.8,32.7C89.8,32.7,89.8,32.7,89.8,32.7z M89.4,32.3C89.4,32.3,89.4,32.3,89.4,32.3
	C89.5,32.3,89.5,32.3,89.4,32.3c0.3,0.4,0.4,0.8,0.3,1.3c0,0,0,0,0,0c0,0,0,0,0,0.1c0,0,0,0,0,0c0,0.1,0,0.1,0,0.2c0,0,0,0,0,0
	c0,0,0,0,0,0c0,0,0,0,0,0c0,0,0,0.1,0,0.1c0,0,0,0,0,0c-0.2-0.3-0.4-0.6-0.4-0.9c0,0,0,0,0,0c0,0,0,0,0,0c0,0,0,0,0,0
	c0-0.1,0-0.2,0.1-0.3c0,0,0,0,0,0c0-0.1,0-0.1,0.1-0.2c0,0,0,0,0,0C89.3,32.4,89.4,32.4,89.4,32.3z M89.5,33.9
	c-0.2-0.1-0.3-0.3-0.4-0.4c0,0,0,0,0,0c-0.1-0.3-0.2-0.6,0-0.9c0,0,0,0,0,0c0,0,0,0,0.1-0.1C88.9,33.1,89.3,33.5,89.5,33.9
	C89.5,33.9,89.5,33.9,89.5,33.9z M88.9,34.8c0.1,0.1,0.2,0.3,0.1,0.5C88.8,35.2,88.8,35,88.9,34.8C88.8,34.9,88.8,34.9,88.9,34.8
	C88.8,34.9,88.8,34.9,88.9,34.8C88.8,34.9,88.8,34.9,88.9,34.8C88.8,34.8,88.8,34.8,88.9,34.8C88.8,34.8,88.8,34.8,88.9,34.8
	C88.8,34.8,88.8,34.8,88.9,34.8C88.8,34.8,88.8,34.8,88.9,34.8C88.8,34.8,88.8,34.8,88.9,34.8C88.8,34.8,88.8,34.8,88.9,34.8
	C88.8,34.8,88.8,34.8,88.9,34.8C88.8,34.8,88.8,34.8,88.9,34.8C88.8,34.8,88.8,34.8,88.9,34.8C88.8,34.8,88.8,34.8,88.9,34.8
	L88.9,34.8C88.8,34.8,88.8,34.8,88.9,34.8C88.8,34.8,88.8,34.8,88.9,34.8C88.8,34.8,88.8,34.8,88.9,34.8z M88.8,35
	C88.8,35,88.8,35,88.8,35C88.8,35,88.8,35,88.8,35z M88.8,35.3c-0.1-0.1-0.1-0.2-0.1-0.3c0,0.1,0,0.1,0.1,0.2c0,0,0,0,0,0
	C88.8,35.3,88.8,35.3,88.8,35.3C88.8,35.4,88.8,35.3,88.8,35.3z M88.3,38.1c0.4,0.1,0.6,0.5,0.5,0.8c-0.2-0.1-0.3-0.3-0.4-0.5
	c0,0,0,0,0,0c0,0,0,0,0,0c0,0,0,0,0,0c0,0,0,0,0,0c0,0,0,0,0,0C88.3,38.3,88.3,38.2,88.3,38.1C88.3,38.1,88.3,38.1,88.3,38.1z
	 M88.6,39c-0.4,0-0.5-0.4-0.5-0.7c0,0,0,0,0,0c0,0,0-0.1,0-0.1c0,0.1,0.1,0.2,0.1,0.3c0,0,0,0,0,0c0,0,0,0,0,0c0,0,0,0,0,0
	C88.3,38.7,88.5,38.8,88.6,39C88.6,39,88.6,39,88.6,39z M88.1,45.6c0,0.1,0,0.2,0,0.3c0,0,0,0,0,0c0,0.1-0.1,0.3-0.3,0.3
	c0-0.3,0-0.6,0.3-0.7C88.1,45.5,88.1,45.6,88.1,45.6z M87.7,45.9c-0.1-0.2,0-0.4,0.2-0.4c-0.1,0.1-0.1,0.2-0.1,0.3c0,0,0,0,0,0
	c0,0,0,0,0,0c0,0,0,0,0,0C87.7,45.9,87.7,45.9,87.7,45.9C87.7,46,87.7,46,87.7,45.9z M87.5,31.5c0,0.1,0,0.3-0.1,0.4c0,0,0,0,0,0
	c0,0-0.1,0.1-0.1,0.1c-0.2-0.2-0.1-0.5,0.1-0.7C87.4,31.4,87.4,31.4,87.5,31.5z M87.2,32C87.2,32,87.2,32,87.2,32
	c-0.1-0.1-0.1-0.2,0-0.4C87.1,31.7,87.1,31.8,87.2,32L87.2,32C87.2,32,87.2,32,87.2,32C87.2,32,87.2,32,87.2,32z M86.4,35.1
	C86.4,35.1,86.4,35.1,86.4,35.1C86.4,35.1,86.4,35.1,86.4,35.1z M88.9,22.9C88.9,22.9,88.9,22.9,88.9,22.9
	C88.9,22.9,88.9,22.9,88.9,22.9z M88.9,22.9C88.9,22.9,88.9,22.9,88.9,22.9S88.9,22.9,88.9,22.9z M88.9,22.9
	C88.9,22.9,88.9,22.9,88.9,22.9C88.9,22.9,88.9,22.9,88.9,22.9z M88.7,23.6C88.7,23.6,88.7,23.6,88.7,23.6
	C88.7,23.6,88.7,23.6,88.7,23.6C88.7,23.6,88.7,23.6,88.7,23.6z M88.9,23.1C88.9,23.1,88.9,23.1,88.9,23.1
	C88.9,23.1,88.9,23.1,88.9,23.1C88.9,23.1,88.9,23.2,88.9,23.1L88.9,23.1C88.9,23.2,88.9,23.2,88.9,23.1
	C88.9,23.2,88.9,23.2,88.9,23.1c0,0.2-0.1,0.3-0.1,0.3c0,0,0,0,0,0c0,0-0.1,0.1-0.1,0.1c-0.1-0.2,0-0.5,0.2-0.6c0,0,0,0,0,0
	c0,0,0,0,0,0c0,0,0,0,0,0c0,0,0,0,0,0c0,0,0,0,0,0c0,0,0,0,0,0c0,0,0,0,0,0c0,0,0,0,0,0c0,0,0,0,0,0c0,0,0,0,0,0c0,0,0,0,0,0
	c0,0,0,0,0,0c0,0,0,0,0,0s0,0,0,0c0,0,0,0,0,0C88.9,23,88.9,23,88.9,23.1C88.9,23.1,88.9,23.1,88.9,23.1
	C88.9,23.1,88.9,23.1,88.9,23.1z M88.6,23.5C88.6,23.5,88.6,23.5,88.6,23.5C88.6,23.5,88.6,23.5,88.6,23.5c-0.1-0.1-0.1-0.2-0.1-0.3
	c0,0,0,0,0,0c0-0.1,0.1-0.1,0.1-0.2C88.6,23.2,88.6,23.4,88.6,23.5C88.6,23.6,88.6,23.6,88.6,23.5C88.6,23.5,88.6,23.5,88.6,23.5
	C88.6,23.5,88.6,23.5,88.6,23.5z M88.6,23.6L88.6,23.6L88.6,23.6z M88.2,24.9C88.2,24.9,88.2,24.9,88.2,24.9
	C88.2,24.9,88.2,24.9,88.2,24.9z M89.7,18.9C89.7,18.9,89.7,18.9,89.7,18.9c0,0.2-0.1,0.3-0.2,0.5c0,0,0,0,0,0c0,0,0,0,0,0
	c0,0,0,0,0,0c0,0,0,0,0,0c0,0,0,0,0,0c0,0,0,0,0,0c0,0,0-0.1,0-0.1c0,0,0,0,0,0c0,0,0,0,0,0c0,0,0,0,0,0c0,0,0,0,0,0c0,0,0,0,0,0
	c0-0.2,0.1-0.4,0.2-0.5c0,0,0,0,0,0c0,0,0,0,0,0C89.7,18.8,89.7,18.8,89.7,18.9z M89.6,18.5C89.6,18.5,89.6,18.5,89.6,18.5
	C89.6,18.5,89.6,18.5,89.6,18.5C89.6,18.5,89.6,18.5,89.6,18.5C89.6,18.5,89.6,18.5,89.6,18.5z M89.3,19.4
	C89.3,19.4,89.3,19.3,89.3,19.4C89.3,19.3,89.3,19.3,89.3,19.4C89.3,19.3,89.3,19.3,89.3,19.4C89.3,19.3,89.3,19.3,89.3,19.4
	c-0.1-0.1-0.1-0.1-0.1-0.2c0,0,0,0,0,0c0-0.1,0-0.2,0-0.3c0,0,0,0,0,0c0,0,0,0,0,0c0,0,0,0,0,0c0-0.1,0.1-0.1,0.1-0.2c0,0,0,0,0,0
	c0,0,0,0,0,0c0,0,0,0,0,0c0,0,0,0,0,0c-0.1,0.1-0.2,0.3-0.1,0.5c0,0,0,0,0,0c0,0,0,0,0,0c0,0,0,0,0,0C89.3,19.3,89.3,19.3,89.3,19.4
	C89.4,19.3,89.4,19.3,89.3,19.4C89.4,19.4,89.4,19.4,89.3,19.4C89.4,19.4,89.4,19.4,89.3,19.4z M89.7,16.8L89.7,16.8
	C89.7,16.8,89.7,16.8,89.7,16.8C89.7,16.8,89.7,16.8,89.7,16.8z M86.9,18.5c0,0-0.1-0.1-0.1-0.1c0,0,0,0,0,0c0,0,0,0,0,0
	c0,0,0,0,0,0c0-0.1,0-0.2,0-0.3c0,0,0,0,0,0c0,0,0,0,0,0c0,0,0,0,0,0c0,0,0,0,0-0.1c0,0,0,0,0,0c0,0,0,0,0,0c0,0,0,0,0,0
	c0,0,0,0,0,0c0,0,0,0,0,0c0,0,0,0,0,0c0,0,0,0,0,0c0,0,0,0,0,0c0,0,0,0,0,0c0,0,0,0,0,0c0.1,0.1,0.1,0.2,0.1,0.3c0,0,0,0,0,0
	c0,0,0,0,0,0c0,0,0,0,0,0C87.1,18.4,87,18.5,86.9,18.5C87,18.5,86.9,18.5,86.9,18.5z M86.4,21.5C86.4,21.5,86.4,21.5,86.4,21.5
	C86.4,21.5,86.4,21.5,86.4,21.5z M86.5,20.8C86.5,20.8,86.5,20.8,86.5,20.8C86.5,20.8,86.5,20.8,86.5,20.8z M86.5,20.8
	C86.5,20.8,86.5,20.8,86.5,20.8c0.1,0.2,0.1,0.5-0.1,0.7c-0.1-0.1-0.1-0.3,0-0.4c0,0,0,0,0,0c0,0,0,0,0,0c0,0,0,0,0,0
	C86.4,21,86.4,20.9,86.5,20.8z M86.3,20.9C86.3,20.9,86.3,20.9,86.3,20.9C86.3,20.9,86.3,20.9,86.3,20.9
	C86.3,20.9,86.3,20.9,86.3,20.9C86.3,20.9,86.3,20.9,86.3,20.9C86.3,20.9,86.3,20.9,86.3,20.9C86.3,20.9,86.3,20.9,86.3,20.9
	C86.3,20.9,86.3,20.9,86.3,20.9z M86.3,20.8L86.3,20.8L86.3,20.8z M86.2,21.4C86.2,21.4,86.2,21.4,86.2,21.4
	C86.2,21.4,86.2,21.4,86.2,21.4c-0.1-0.2-0.1-0.4,0-0.6c0,0,0,0,0,0c0,0,0,0,0,0c0,0,0,0,0,0c0,0,0,0,0,0c0,0,0,0.1,0.1,0.1
	c0,0,0,0.1,0,0.1c0,0,0,0,0,0c0,0,0,0,0,0C86.2,21.2,86.2,21.4,86.2,21.4C86.3,21.5,86.2,21.5,86.2,21.4z M88.2,17.4
	C88.2,17.4,88.2,17.4,88.2,17.4C88.2,17.4,88.2,17.4,88.2,17.4z M88.2,17.4C88.2,17.4,88.2,17.4,88.2,17.4L88.2,17.4L88.2,17.4z
	 M89.2,16.9c0.1,0,0.3,0,0.4,0c0,0,0,0,0,0c0,0,0,0,0,0c0,0,0,0,0,0c0,0,0,0,0,0c0,0,0,0,0,0.1c0,0,0,0,0,0c0,0,0,0,0,0c0,0,0,0,0,0
	c0,0,0,0,0,0l0,0c0,0,0,0,0,0c0,0,0,0,0,0c-0.1,0.2-0.3,0.3-0.4,0.4c0,0,0,0,0,0c0,0,0,0,0,0c0,0,0,0,0,0c-0.3,0.2-0.7,0-1,0.2l0,0
	c0,0,0-0.1,0.1-0.1c0.2-0.1,0.5-0.1,0.7-0.3c0,0,0,0,0,0c0.1,0,0.1-0.1,0.2-0.2C89.2,16.9,89.2,16.9,89.2,16.9z M89.2,16.5
	C89.2,16.5,89.2,16.5,89.2,16.5C89.2,16.5,89.2,16.5,89.2,16.5z M89.2,16C89.2,16,89.2,16,89.2,16C89.2,16,89.2,16,89.2,16z
	 M88.5,16.9c0.1-0.1,0.1-0.2,0.1-0.4c0.1-0.2,0.2-0.5,0.5-0.5c0,0.1,0,0.2,0,0.3c0,0,0,0,0,0c0,0.1,0,0.2,0,0.2c0,0,0,0,0,0
	c0,0,0,0,0,0c0,0,0,0,0,0c0,0,0,0.1,0,0.1c0,0,0,0,0,0c0,0.1-0.1,0.2-0.2,0.3c0,0,0,0,0,0c-0.2,0.2-0.5,0.2-0.7,0.3
	C88.3,17.1,88.4,17,88.5,16.9z M87.8,16.2c0.1-0.2,0.2-0.5,0.4-0.8c0.1,0.4,0.4,0.8,0.3,1.2c0,0,0,0,0,0c0,0,0,0,0,0c0,0,0,0,0,0
	c0,0,0,0,0,0c0,0,0,0,0,0c-0.1,0.2-0.3,0.4-0.4,0.6c0,0,0,0,0,0c0-0.1-0.1-0.1-0.1-0.2c0,0,0,0,0,0C87.8,16.8,87.6,16.5,87.8,16.2z
	 M87.1,15.7C87.1,15.7,87.1,15.7,87.1,15.7S87.1,15.7,87.1,15.7z M87.8,17.2C87.8,17.2,87.8,17.2,87.8,17.2
	c-0.2-0.1-0.4-0.2-0.5-0.4c0,0,0,0,0,0c-0.1-0.1-0.2-0.2-0.2-0.4c0,0,0,0,0,0c0,0,0,0,0,0c0,0,0,0,0,0c0-0.2,0-0.5,0.1-0.7
	c0,0.1,0.1,0.1,0.2,0.2c0,0,0,0,0,0c0,0,0,0,0.1,0.1c0,0,0,0,0,0c0.1,0.1,0.1,0.2,0.2,0.3c0,0,0,0,0,0c0,0,0,0,0,0c0,0,0,0,0,0
	c0.1,0.4,0.3,0.7,0.5,1.1C87.9,17.3,87.8,17.2,87.8,17.2z M85,14.8c0,0.1,0,0.3-0.2,0.4c0-0.2,0-0.4,0.1-0.6
	C85,14.7,85,14.7,85,14.8z M84.7,15.1c-0.1-0.2,0-0.3,0.1-0.5C84.8,14.8,84.7,15,84.7,15.1C84.7,15.1,84.7,15.1,84.7,15.1z
	 M84.2,13.6L84.2,13.6C84.2,13.6,84.2,13.6,84.2,13.6C84.2,13.6,84.2,13.6,84.2,13.6z M84.2,13.3C84.2,13.3,84.2,13.3,84.2,13.3
	S84.2,13.3,84.2,13.3z M84.2,13.5c0,0.2,0.1,0.4-0.1,0.5c0-0.1-0.1-0.1-0.1-0.2c0,0,0,0,0,0c0,0,0-0.1,0-0.1c0,0,0,0,0,0
	c0,0,0,0,0,0c0,0,0,0,0,0c0-0.1,0.1-0.2,0.2-0.3C84.2,13.4,84.2,13.5,84.2,13.5z M83.8,13.9C83.8,13.9,83.8,13.9,83.8,13.9
	C83.8,13.8,83.8,13.8,83.8,13.9c-0.1-0.2,0-0.5,0.2-0.5c0,0,0,0,0,0c0,0,0,0,0,0C83.9,13.5,83.8,13.8,83.8,13.9
	C83.9,13.9,83.9,13.9,83.8,13.9z M84.4,9.2c0-0.1,0.1-0.1,0.2-0.2c0,0.3,0,0.6-0.2,0.7C84.3,9.6,84.3,9.4,84.4,9.2z M84.7,9.2
	c0.1,0.3,0,0.7-0.3,0.8c0,0,0,0,0,0C84.6,9.8,84.7,9.5,84.7,9.2C84.7,9.2,84.7,9.2,84.7,9.2z M84.2,9.8C84.2,9.8,84.2,9.8,84.2,9.8
	C84.2,9.8,84.2,9.8,84.2,9.8C84.2,9.8,84.2,9.7,84.2,9.8C84.2,9.8,84.2,9.8,84.2,9.8C84.2,9.8,84.2,9.8,84.2,9.8
	C84.2,9.8,84.2,9.8,84.2,9.8C84.2,9.8,84.2,9.8,84.2,9.8z M83.3,7.3c0.2,0.2,0.4,0.5,0.3,0.7c0-0.3-0.2-0.6-0.4-0.9
	C83.3,7.2,83.3,7.3,83.3,7.3z M83.3,8.1C83.3,8.1,83.3,8.1,83.3,8.1C83.2,8.1,83.2,8.1,83.3,8.1c-0.1-0.1-0.1-0.1-0.1-0.1
	c0,0,0,0,0,0c-0.1-0.1-0.1-0.2-0.2-0.3c0,0,0,0,0,0c-0.1-0.2,0-0.4,0-0.7c0.1,0.2,0.2,0.3,0.3,0.5c0,0,0,0,0,0
	C83.4,7.8,83.4,8,83.3,8.1C83.4,8.2,83.4,8.2,83.3,8.1z M80.8,5.7c0-0.1,0-0.2,0-0.3l0,0c0,0,0,0,0,0c0,0,0,0,0,0
	c0.1,0.1,0.1,0.2,0.1,0.3c0,0,0,0,0,0c0,0,0,0,0,0c0,0,0,0,0,0c0,0,0,0,0,0c0,0,0,0,0,0C81,5.8,81,6,80.9,6.2c0,0,0,0,0,0
	c0,0,0,0,0,0C80.8,6,80.8,5.8,80.8,5.7z M80.8,5.4L80.8,5.4C80.8,5.4,80.8,5.4,80.8,5.4C80.8,5.4,80.8,5.4,80.8,5.4z M81.1,6.4
	C81.1,6.4,81.1,6.4,81.1,6.4C81.1,6.4,81.1,6.4,81.1,6.4z M81,5.6c0.1,0.1,0.2,0.2,0.1,0.4c0,0,0,0,0,0c0,0,0,0,0,0c0,0,0,0,0,0
	c0,0,0,0,0,0c0,0.1-0.1,0.2-0.1,0.2C81.1,6.1,81.1,5.8,81,5.6C81,5.6,81,5.6,81,5.6C81,5.6,81,5.6,81,5.6C81,5.6,81,5.6,81,5.6
	C81,5.6,81,5.6,81,5.6C81,5.6,81,5.6,81,5.6z M80.7,5.9c0-0.1,0-0.1,0-0.2c0,0,0,0,0,0c0,0,0,0,0,0c0,0,0,0,0,0c0,0,0,0,0,0
	c0,0.1,0,0.3,0.1,0.4c0,0,0,0,0-0.1c0,0,0,0,0,0C80.7,6,80.7,6,80.7,5.9z M80.9,6.4C80.9,6.4,80.9,6.4,80.9,6.4
	C80.9,6.4,80.9,6.4,80.9,6.4z M80.9,6.4C80.9,6.4,80.9,6.4,80.9,6.4S80.9,6.4,80.9,6.4z M80.9,6.4C80.9,6.4,80.9,6.4,80.9,6.4
	C80.9,6.4,80.9,6.4,80.9,6.4z M79.6,8.2C79.6,8.2,79.6,8.2,79.6,8.2C79.6,8.2,79.6,8.2,79.6,8.2C79.6,8.2,79.6,8.2,79.6,8.2
	C79.6,8.3,79.6,8.3,79.6,8.2C79.6,8.3,79.6,8.3,79.6,8.2C79.6,8.3,79.6,8.3,79.6,8.2C79.6,8.3,79.6,8.3,79.6,8.2
	C79.6,8.3,79.6,8.3,79.6,8.2C79.6,8.3,79.6,8.3,79.6,8.2c0.1,0.1,0.1,0.2,0.2,0.2c0,0,0,0,0,0c0,0,0,0,0,0c0,0,0,0,0,0
	c0,0.1,0,0.2,0,0.2c0,0,0,0,0,0c0,0,0,0.1,0,0.1c0,0,0,0,0,0l0,0c0,0,0,0,0,0c0,0,0,0,0,0C79.7,8.6,79.5,8.4,79.6,8.2
	C79.5,8.2,79.5,8.2,79.6,8.2z M79.2,8L79.2,8C79.2,8,79.2,8,79.2,8C79.2,8,79.2,8,79.2,8z M79.3,8.8c-0.1-0.1-0.2-0.3-0.1-0.4
	c0,0,0,0,0,0c0,0,0,0,0,0c0,0,0,0,0,0c0-0.1,0-0.2,0.1-0.2c0,0,0,0,0,0c0,0,0,0,0,0c0.1,0.2,0.3,0.5,0.2,0.7c0,0,0,0,0,0
	c0,0,0,0,0,0c0,0,0,0,0,0c0,0,0,0,0,0c0,0,0,0,0,0C79.4,8.9,79.4,8.8,79.3,8.8z M78.8,11.7L78.8,11.7C78.8,11.7,78.8,11.7,78.8,11.7
	L78.8,11.7z M78.8,11.6L78.8,11.6z M82.8,11.2C82.8,11.2,82.8,11.2,82.8,11.2C82.8,11.2,82.8,11.2,82.8,11.2z M82.3,10.3
	c0-0.1,0-0.2,0.1-0.3c0,0,0,0,0,0c0.1-0.2,0.2-0.4,0.5-0.4c0,0.1,0,0.2,0,0.2c0,0,0,0,0,0c0,0,0,0,0,0c0,0,0,0,0,0
	c0,0.3,0,0.6,0,0.9c0,0,0,0,0,0c0.1,0.6-0.2,1-0.7,1.4c0,0,0,0,0,0c0,0,0,0,0,0c0,0,0,0,0,0c0,0-0.1,0.1-0.2,0.1
	C82.4,11.6,82.2,10.9,82.3,10.3z M80.9,9.3C80.9,9.3,80.9,9.3,80.9,9.3C80.9,9.3,80.9,9.3,80.9,9.3L80.9,9.3z M80.9,9.3
	C80.9,9.3,80.9,9.3,80.9,9.3C80.9,9.3,80.9,9.3,80.9,9.3z M80.7,10c0-0.2,0.1-0.5,0.3-0.7c0.4,0.3,0.7,0.6,1,1c0,0,0,0,0,0
	c0,0,0,0,0,0c0,0,0,0,0,0c0.1,0.2,0.1,0.4,0.1,0.6c0,0,0,0,0,0c0,0.4,0,0.9-0.4,1.2c0,0,0,0,0,0c0,0,0,0,0,0
	c-0.1-0.1-0.3-0.2-0.4-0.3c0,0,0,0,0,0c0-0.1-0.1-0.1-0.2-0.2c0,0,0,0,0,0c-0.1-0.1-0.2-0.2-0.3-0.3c0,0,0,0,0,0c0,0,0,0,0,0
	c0,0,0,0,0,0c0,0,0,0,0,0c0,0,0,0,0,0c0,0,0,0,0,0c0,0,0,0,0,0c-0.1-0.1-0.1-0.2-0.2-0.3c0,0,0,0,0,0c-0.1-0.2,0-0.4-0.1-0.7
	c0,0,0,0,0,0c0,0,0,0,0,0c0,0,0,0,0,0C80.6,10.2,80.6,10.1,80.7,10z M80.4,10.6C80.4,10.6,80.4,10.6,80.4,10.6
	C80.4,10.6,80.4,10.6,80.4,10.6z M79.7,10.8c-0.1-0.1-0.2-0.2-0.2-0.3c0,0,0.1,0,0.1,0c0,0,0,0,0,0c0,0,0,0,0.1,0c0,0,0,0,0,0
	c0.2-0.1,0.4,0,0.7,0c0,0,0,0,0,0c0.1,0,0.1,0,0.2,0.1c0,0,0,0,0,0c0,0,0,0,0,0c0,0,0,0,0,0c0,0,0,0,0,0c0,0.7,0.4,1.3,1.1,1.6
	c0,0,0,0,0,0c0,0,0,0,0,0c-0.1,0-0.2,0-0.3,0c0,0,0,0,0,0c0,0,0,0,0,0c0,0,0,0,0,0c-0.5,0-0.9-0.3-1.2-0.7c0,0,0,0,0,0c0,0,0,0,0,0
	c0,0,0,0,0,0C79.9,11.3,79.8,11,79.7,10.8z M78.9,11.6C78.9,11.6,78.9,11.6,78.9,11.6C78.9,11.6,78.9,11.6,78.9,11.6z M80.7,12.5
	c-0.2,0-0.3,0-0.5-0.1c0,0,0,0,0,0c0,0,0,0,0,0c0,0,0,0,0,0c-0.4-0.1-0.8-0.4-1.2-0.7c0,0,0,0,0,0c0,0-0.1-0.1-0.1-0.1
	c0.1,0,0.2,0,0.2-0.1c0,0,0,0,0,0c0.2-0.1,0.4-0.1,0.6,0c0,0,0,0,0,0c0.1,0,0.1,0.1,0.2,0.2c0,0,0,0,0,0c0.2,0.3,0.5,0.6,0.9,0.7
	c0,0,0,0,0,0.1C80.8,12.5,80.7,12.5,80.7,12.5z M82.2,14.4c-0.3-0.4-0.5-0.8-0.7-1.2c0,0,0,0,0,0c0,0,0,0,0,0v0c0,0,0,0,0,0
	c0,0,0,0,0,0c0,0-0.1-0.1-0.1-0.1c0,0,0,0,0,0c-0.1-0.2-0.2-0.4-0.3-0.6c0.2,0,0.4-0.1,0.6-0.2c0.3,0.8,0.5,1.6,0.8,2.4
	C82.4,14.7,82.3,14.6,82.2,14.4z M80.3,12.8C80.3,12.9,80.4,12.9,80.3,12.8C80.4,12.9,80.4,12.9,80.3,12.8c0.2,0.2,0.3,0.4,0.2,0.6
	c0,0,0,0,0,0c0,0,0,0,0,0c-0.2,0-0.2-0.3-0.3-0.4c0,0,0,0,0,0c0,0,0-0.1,0-0.1c0,0,0,0,0,0C80.3,12.9,80.3,12.9,80.3,12.8
	C80.3,12.8,80.3,12.8,80.3,12.8z M80.3,12.7C80.3,12.7,80.3,12.7,80.3,12.7C80.3,12.7,80.3,12.7,80.3,12.7z M80.2,13.1
	C80.2,13.1,80.2,13.1,80.2,13.1C80.2,13.1,80.2,13.1,80.2,13.1z M80.3,12.8C80.3,12.8,80.3,12.8,80.3,12.8
	C80.3,12.8,80.3,12.8,80.3,12.8z M80.2,12.8C80.2,12.8,80.2,12.8,80.2,12.8C80.2,12.8,80.2,12.8,80.2,12.8z M80.2,12.8L80.2,12.8
	C80.2,12.8,80.2,12.8,80.2,12.8C80.2,12.8,80.2,12.8,80.2,12.8z M80.4,13.5c-0.3-0.1-0.3-0.4-0.3-0.7c0,0,0.1,0,0.1,0
	C80.2,13.1,80.2,13.4,80.4,13.5C80.4,13.5,80.4,13.5,80.4,13.5z M82.2,17.9C82.2,17.9,82.2,17.9,82.2,17.9L82.2,17.9
	C82.2,17.9,82.2,17.9,82.2,17.9z M82.2,17.9C82.2,17.9,82.2,17.9,82.2,17.9C82.2,17.9,82.2,17.9,82.2,17.9z M82.2,17.9L82.2,17.9
	C82.2,17.9,82.2,17.9,82.2,17.9C82.2,17.9,82.2,17.9,82.2,17.9z M82.2,17.9L82.2,17.9C82.2,17.9,82.2,17.9,82.2,17.9z M82.2,17.9
	C82.2,17.9,82.2,17.9,82.2,17.9C82.2,17.9,82.2,17.9,82.2,17.9z M82.1,18c0.2-0.4,0.4,0.7,0.1,0.8c-0.1-0.2-0.2-0.3-0.2-0.5
	c0,0,0,0,0,0c0,0,0,0,0,0c0,0,0,0,0,0c0-0.1,0-0.1,0-0.1c0,0,0,0,0,0c0,0,0,0,0,0c0,0,0,0,0,0C82,18.1,82,18.1,82.1,18z M81.9,18
	C81.9,18,81.9,18,81.9,18C81.9,18,81.9,18,81.9,18z M81.9,18C81.9,18,81.9,18,81.9,18C81.9,18,81.9,18,81.9,18z M81.8,18
	C81.8,18,81.8,18,81.8,18C81.8,18,81.8,18,81.8,18z M82,18.8C82,18.8,82,18.8,82,18.8c-0.1-0.1-0.3-0.2-0.3-0.4c0,0,0,0,0,0
	c0,0,0,0,0,0c0,0,0,0,0,0c0,0,0-0.1,0-0.1c0,0,0,0,0,0c0,0,0,0,0,0c0,0,0,0,0,0c0-0.1,0-0.2,0.1-0.3c0,0,0,0,0.1,0c0,0,0,0,0,0
	c0,0,0,0,0,0c0,0,0,0,0,0.1c0,0,0,0,0,0c0,0,0,0,0,0c0,0,0,0,0,0c0,0,0,0,0,0C81.7,18.4,81.9,18.6,82,18.8C82,18.8,82,18.8,82,18.8z
	 M79.6,17.1C79.6,17.1,79.6,17.1,79.6,17.1C79.6,17.1,79.6,17.1,79.6,17.1z M80.1,17c0.1,0.1,0.2,0.2,0.4,0.2c0,0,0,0,0,0
	c0,0,0,0,0,0c0,0,0,0,0,0c0.1,0.1,0.2,0.2,0.3,0.3c0,0,0,0,0,0c0,0.1,0.1,0.2,0.1,0.3c0,0,0,0,0,0c0,0,0,0,0,0c0,0,0,0,0,0
	c0,0.3-0.1,0.6-0.2,0.9c-0.1-0.1-0.1-0.1-0.2-0.1c0,0,0,0,0,0c0,0,0,0,0,0c0,0,0,0,0,0c0,0,0,0,0,0c0,0,0,0,0,0c0,0,0,0,0,0
	c0,0,0,0,0,0c0,0-0.1-0.1-0.1-0.1c0,0,0,0,0,0c-0.1-0.3-0.3-0.6-0.3-1c0,0,0,0,0,0c0,0,0,0,0,0c0,0,0,0,0,0c0-0.1,0-0.2,0-0.4
	c0,0,0,0,0,0C80.1,17.1,80.1,17.1,80.1,17c-0.1,0.1-0.1,0.1-0.1,0.1C80.1,17,80.1,17,80.1,17C80.1,16.9,80.1,16.9,80.1,17z
	 M80.1,16.9L80.1,16.9L80.1,16.9z M80.1,16.9C80,16.9,80,16.9,80.1,16.9C80,16.9,80,16.9,80.1,16.9z M80.3,18.5
	C80.3,18.5,80.3,18.5,80.3,18.5C80.2,18.5,80.3,18.5,80.3,18.5C80.2,18.5,80.2,18.5,80.3,18.5C80.2,18.5,80.2,18.5,80.3,18.5
	c-0.5-0.3-0.7-0.9-0.6-1.4c0,0,0.1,0,0.1,0c0,0,0,0,0,0c0.1,0,0.2,0,0.2,0.1C79.9,17.7,80.1,18.2,80.3,18.5
	C80.3,18.6,80.3,18.6,80.3,18.5z M80.2,19.5C80.2,19.5,80.1,19.5,80.2,19.5C80.1,19.5,80.1,19.5,80.2,19.5c-0.1,0-0.1,0-0.1,0
	c0,0,0,0,0,0c-0.1,0-0.2,0-0.3-0.1c0,0,0,0,0,0c0,0,0,0,0,0c0,0,0,0,0,0c-0.1-0.1-0.2-0.2-0.2-0.3c0,0,0.1,0,0.1,0c0,0,0,0,0,0
	c0,0,0,0,0,0c0,0,0,0,0,0c0,0,0.1,0,0.1,0c0,0,0,0,0,0c0.1,0,0.1,0,0.2,0.1c0,0,0,0,0,0c0,0,0,0,0.1,0c0,0,0,0,0,0
	C80.2,19.2,80.2,19.4,80.2,19.5C80.2,19.5,80.2,19.5,80.2,19.5z M80.7,21.1C80.7,21.1,80.7,21.1,80.7,21.1L80.7,21.1
	C80.7,21.1,80.7,21.1,80.7,21.1z M81.1,21.5c-0.1,0-0.1,0-0.2,0c0,0,0,0,0,0c0,0,0,0,0,0c0,0,0,0,0,0l0,0c0,0,0,0,0,0c0,0,0,0,0,0
	c0,0,0,0,0,0c-0.1,0-0.2-0.2-0.2-0.4c0,0,0.1,0,0.1,0c0,0,0,0,0,0c0,0,0,0,0,0c0,0,0,0,0,0c0.1,0,0.2,0,0.2,0.1c0,0,0,0,0,0
	c0.1,0.1,0.2,0.2,0.2,0.3c0,0,0,0,0,0C81.2,21.5,81.2,21.5,81.1,21.5z M82.9,25.8C82.9,25.8,82.9,25.8,82.9,25.8
	C82.9,25.8,82.9,25.8,82.9,25.8C82.9,25.8,82.9,25.8,82.9,25.8z M82.9,25.8c0.2,0.1,0.3,0.3,0.3,0.5c0,0,0,0,0,0c0,0,0,0,0,0
	c0,0,0,0,0,0c0,0,0,0.1,0,0.1c0,0,0,0,0,0c0,0,0,0,0,0c0,0,0,0,0,0c0,0,0,0,0,0C83,26.3,82.9,26,82.9,25.8
	C82.9,25.8,82.9,25.8,82.9,25.8z M82.9,25.8C82.9,25.8,82.9,25.8,82.9,25.8C82.9,25.8,82.9,25.8,82.9,25.8
	C82.9,25.8,82.9,25.8,82.9,25.8z M83.1,26.4c-0.2,0-0.3-0.2-0.3-0.5C82.8,26.2,83,26.4,83.1,26.4C83.1,26.4,83.1,26.4,83.1,26.4z
	 M84.3,33.5L84.3,33.5L84.3,33.5z M84.3,33.5C84.3,33.5,84.3,33.5,84.3,33.5C84.3,33.5,84.3,33.5,84.3,33.5z M84.3,33.5
	C84.3,33.5,84.3,33.5,84.3,33.5C84.3,33.5,84.3,33.5,84.3,33.5z M84.2,33.7c0-0.1,0.1-0.2,0.2-0.2c0.1,0.1,0,0.3-0.1,0.4
	c0,0,0,0,0,0c0,0,0,0,0,0c0,0,0,0,0,0c0,0-0.1,0.1-0.1,0.1C84.1,33.9,84.1,33.8,84.2,33.7z M82.5,28.8c0,0.1,0.1,0.1,0.1,0.2
	c0,0,0,0,0,0c0,0,0,0,0,0v0c0,0,0,0,0,0c0,0,0,0,0,0c0.1,0.3,0.1,0.6,0,0.8c-0.1-0.3-0.3-0.6-0.2-0.9c0,0,0,0,0,0c0,0,0,0,0,0
	c0,0,0,0,0,0C82.4,28.9,82.4,28.9,82.5,28.8C82.4,28.9,82.4,28.9,82.5,28.8C82.4,28.9,82.4,28.8,82.5,28.8
	C82.4,28.8,82.4,28.8,82.5,28.8z M82.3,28.7C82.3,28.7,82.3,28.7,82.3,28.7C82.3,28.7,82.3,28.7,82.3,28.7z M82.3,28.7
	C82.3,28.7,82.3,28.7,82.3,28.7C82.3,28.7,82.3,28.7,82.3,28.7z M82.3,29.8c-0.2-0.2-0.3-0.4-0.1-0.6c0,0,0,0,0,0c0,0,0,0,0-0.1
	c-0.1,0.3,0.1,0.5,0.2,0.8C82.4,29.8,82.4,29.8,82.3,29.8z M82.4,29.9C82.4,29.9,82.4,29.9,82.4,29.9C82.4,29.9,82.4,29.9,82.4,29.9
	z M81.8,31.3C81.8,31.3,81.8,31.3,81.8,31.3C81.8,31.3,81.8,31.3,81.8,31.3z M81.6,30.5c0.2,0.2,0.3,0.5,0.2,0.8c0,0,0,0,0,0
	c0,0,0,0,0,0v0v0c-0.1-0.1-0.2-0.2-0.2-0.3c0,0,0,0,0,0c0,0,0,0,0,0c0,0,0,0,0,0C81.5,30.8,81.6,30.7,81.6,30.5
	C81.6,30.5,81.6,30.5,81.6,30.5z M81.4,30.5C81.4,30.5,81.4,30.5,81.4,30.5C81.4,30.5,81.4,30.5,81.4,30.5z M81.7,31.3
	C81.7,31.3,81.6,31.3,81.7,31.3C81.6,31.3,81.6,31.3,81.7,31.3c-0.2-0.1-0.3-0.2-0.3-0.4c0,0,0,0,0,0c0,0,0,0,0,0c0,0,0,0,0,0
	c0-0.2,0-0.3,0-0.5c0,0,0,0,0.1,0c0,0,0,0,0,0c0,0,0,0,0,0c0,0,0,0,0,0c0,0,0,0,0,0c0,0,0,0,0,0c0,0,0,0,0,0
	C81.4,30.8,81.5,31.2,81.7,31.3C81.7,31.4,81.7,31.3,81.7,31.3z M79.3,29.7c0.1,0,0.2,0.1,0.2,0.2c0,0,0,0,0,0c0,0.1,0,0.2,0,0.3
	c-0.1-0.1-0.1-0.1-0.2-0.2c0,0,0,0,0,0C79.3,29.9,79.3,29.8,79.3,29.7C79.3,29.7,79.3,29.7,79.3,29.7C79.3,29.7,79.3,29.7,79.3,29.7
	C79.3,29.7,79.3,29.7,79.3,29.7z M79.5,30.2C79.5,30.2,79.4,30.2,79.5,30.2C79.4,30.2,79.4,30.2,79.5,30.2
	C79.4,30.2,79.4,30.2,79.5,30.2C79.4,30.2,79.4,30.2,79.5,30.2C79.4,30.2,79.4,30.2,79.5,30.2C79.4,30.2,79.4,30.2,79.5,30.2
	c-0.2,0-0.3-0.2-0.2-0.4C79.2,30,79.3,30.1,79.5,30.2C79.5,30.2,79.5,30.2,79.5,30.2C79.5,30.2,79.5,30.2,79.5,30.2L79.5,30.2
	C79.5,30.2,79.5,30.2,79.5,30.2z M80.3,32.8C80.3,32.9,80.3,32.9,80.3,32.8C80.3,32.9,80.3,32.9,80.3,32.8c-0.1,0.1-0.1,0.2-0.1,0.3
	c-0.1-0.3,0.2-0.6,0.1-0.9c0-0.3-0.2-0.5-0.2-0.8c0,0,0,0,0,0c0-0.1,0-0.2,0-0.3c0,0,0,0,0,0c0-0.1,0-0.1,0.1-0.2c0,0,0,0,0,0
	c0,0,0,0,0,0c0.1,0.2,0.2,0.4,0.4,0.5c0,0,0,0,0,0c0,0,0,0,0,0c0,0,0,0,0,0c0.1,0.1,0.1,0.2,0.2,0.3c0,0,0,0,0,0c0,0,0,0,0,0
	c0,0,0,0,0,0c0.1,0.2,0,0.4-0.1,0.6c0,0,0,0,0,0c0,0,0,0,0,0c0,0,0,0,0,0C80.5,32.6,80.4,32.7,80.3,32.8z M80.1,31.6L80.1,31.6
	C80.1,31.6,80.1,31.6,80.1,31.6z M79.1,31.5C79.1,31.5,79.1,31.5,79.1,31.5c0-0.1,0-0.2,0-0.4c0,0,0,0,0,0c0,0,0,0,0,0
	c0.1,0.1,0.2,0.1,0.3,0.1c0,0,0,0,0,0c0,0,0,0,0,0c0,0,0,0,0,0c0.6,0.4,0.7,1.1,0.5,1.8c-0.1-0.1-0.3-0.2-0.4-0.3c0,0,0,0,0,0
	c0,0-0.1,0-0.1-0.1c0,0,0,0,0,0c-0.2-0.2-0.4-0.4-0.4-0.7c0,0,0,0,0,0c0,0,0,0,0,0c0,0,0,0,0,0C79.1,31.9,79.1,31.7,79.1,31.5z
	 M79.9,33.2c-0.1,0-0.2,0.1-0.4,0.1c0,0,0,0,0,0c-0.7,0.3-1-0.3-1.6-0.7c0,0,0.1,0,0.1-0.1c0,0,0,0,0,0
	C79.1,32.1,79.1,32.9,79.9,33.2C79.9,33.2,80,33.2,79.9,33.2C79.9,33.2,79.9,33.2,79.9,33.2z M80.6,33.9
	C80.6,33.9,80.6,33.9,80.6,33.9c-0.1-0.3-0.5-0.7-0.2-1c0,0,0,0,0,0c0.1-0.1,0.1-0.2,0.2-0.2c0.2,0.6,0.4,1.3,0.5,2c0,0,0,0,0,0
	c0,0.1,0,0.2,0.1,0.3c0,0,0,0,0,0c0,0,0,0.1,0,0.1C81,34.7,80.8,34.3,80.6,33.9z M79.6,35.2C79.6,35.2,79.6,35.2,79.6,35.2
	C79.6,35.2,79.6,35.2,79.6,35.2z M79.5,35.3L79.5,35.3C79.5,35.3,79.5,35.3,79.5,35.3C79.5,35.3,79.5,35.3,79.5,35.3z M79.2,34.6
	c0.2,0.1,0.3,0.3,0.4,0.4c0,0,0,0,0,0c0,0,0,0,0,0c0,0,0,0,0,0c0,0,0,0,0,0c0,0,0,0,0,0c0,0,0,0.1,0,0.1c0,0,0,0,0,0c0,0,0,0,0,0
	c0,0,0,0,0,0c0,0,0,0,0,0c-0.2,0-0.3-0.1-0.3-0.3c0,0,0,0,0,0c0,0,0,0,0,0c0,0,0,0,0,0C79.2,34.8,79.1,34.7,79.2,34.6
	C79.1,34.6,79.1,34.6,79.2,34.6z M79,34.7C79,34.7,79,34.7,79,34.7C79,34.7,79,34.7,79,34.7C79,34.7,79,34.7,79,34.7z M78.9,34.7
	C78.9,34.7,78.9,34.7,78.9,34.7C78.9,34.7,78.9,34.7,78.9,34.7z M79.3,35.3C79.2,35.3,79.2,35.3,79.3,35.3
	C79.2,35.3,79.2,35.3,79.3,35.3C79.2,35.3,79.2,35.3,79.3,35.3C79.2,35.3,79.2,35.3,79.3,35.3c-0.3-0.1-0.4-0.3-0.4-0.5c0,0,0,0,0,0
	c0,0,0,0,0,0c0,0,0,0,0,0c0,0,0,0,0,0c0,0,0.1,0,0.1,0c0,0,0,0,0,0c0,0,0,0,0,0c0,0,0,0,0,0c0,0,0,0,0.1,0c0,0,0,0,0,0c0,0,0,0,0,0
	C79.1,34.9,79.1,35.2,79.3,35.3C79.3,35.3,79.3,35.3,79.3,35.3z M81.2,39.9L81.2,39.9C81.2,39.9,81.2,39.9,81.2,39.9
	C81.2,39.9,81.2,39.9,81.2,39.9z M80.2,39.2L80.2,39.2C80.2,39.2,80.2,39.2,80.2,39.2C80.2,39.2,80.2,39.2,80.2,39.2z M81,40.1
	C81,40.1,81,40.1,81,40.1C81,40.1,81,40.1,81,40.1z M80.5,39.2c0.3,0.2,0.7,0.5,0.4,0.9C80.6,39.9,80.5,39.5,80.5,39.2
	C80.5,39.2,80.5,39.2,80.5,39.2z M80.4,39.2C80.4,39.2,80.4,39.2,80.4,39.2C80.4,39.2,80.4,39.2,80.4,39.2z M80.7,40.1
	c-0.3-0.1-0.5-0.5-0.5-0.8c0,0,0,0,0,0c0,0,0-0.1,0-0.1c0,0,0.1,0,0.1,0c0,0,0,0,0,0c0,0,0,0,0,0c0,0.4,0.2,0.7,0.5,0.9
	C80.8,40.1,80.8,40.1,80.7,40.1z M81.1,41.5L81.1,41.5L81.1,41.5z M80.5,41.1L80.5,41.1C80.5,41.1,80.5,41.1,80.5,41.1
	C80.5,41.1,80.5,41.1,80.5,41.1z M80.9,41.5c-0.2-0.1-0.3-0.2-0.4-0.4c0.1,0,0.1,0,0.2,0c0,0,0,0,0,0C80.9,41.2,81,41.3,80.9,41.5
	C81,41.5,80.9,41.5,80.9,41.5z M82.5,51.1C82.5,51.1,82.5,51.1,82.5,51.1C82.5,51.1,82.5,51.1,82.5,51.1z M82.6,51.1
	C82.6,51.1,82.6,51.1,82.6,51.1C82.6,51.1,82.6,51.1,82.6,51.1C82.6,51.1,82.6,51.1,82.6,51.1C82.6,51.1,82.6,51.1,82.6,51.1z
	 M82.6,51L82.6,51L82.6,51C82.6,51,82.6,51,82.6,51z M82.7,50.7C82.7,50.7,82.7,50.7,82.7,50.7c0,0.1-0.1,0.2-0.1,0.2c0,0,0,0,0,0
	c0,0.1-0.1,0.1-0.2,0.1c0-0.2,0.1-0.3,0.3-0.5C82.7,50.6,82.7,50.6,82.7,50.7z M82.4,50.8c0-0.1,0-0.1,0.1-0.1
	C82.4,50.7,82.4,50.8,82.4,50.8C82.4,50.9,82.4,50.8,82.4,50.8z M82.4,50.9L82.4,50.9C82.4,50.9,82.4,50.9,82.4,50.9
	C82.4,50.9,82.4,50.9,82.4,50.9z M78.9,51.8C78.9,51.8,78.9,51.8,78.9,51.8C78.9,51.8,78.9,51.8,78.9,51.8
	C78.9,51.8,78.9,51.8,78.9,51.8z M79.1,51.9C79.1,51.9,79.1,51.9,79.1,51.9C79.1,51.9,79.1,51.9,79.1,51.9z M78.8,51
	c0.1,0.1,0.1,0.2,0.2,0.2c0,0,0,0,0,0c0.1,0.2,0.1,0.4,0,0.6c0,0-0.1-0.1-0.1-0.1c0,0,0,0,0,0C78.7,51.5,78.7,51.2,78.8,51
	C78.7,51,78.7,51,78.8,51C78.7,51,78.7,51,78.8,51C78.7,51,78.8,51,78.8,51z M78.8,51.8c0,0-0.1,0-0.1-0.1c0,0,0,0,0,0c0,0,0,0,0,0
	c0,0,0,0,0,0c-0.2-0.1-0.2-0.4-0.1-0.5c0,0.1,0,0.1,0,0.2c0,0,0,0,0,0C78.6,51.6,78.7,51.7,78.8,51.8C78.8,51.8,78.8,51.8,78.8,51.8
	z M80.7,54.3C80.7,54.3,80.7,54.3,80.7,54.3C80.7,54.3,80.7,54.3,80.7,54.3z M82,46.6C82,46.6,82,46.6,82,46.6
	C82,46.6,82,46.6,82,46.6z M82,46.6C82,46.6,82,46.6,82,46.6C82,46.6,82,46.6,82,46.6L82,46.6z M82,46.6C82,46.6,82,46.6,82,46.6
	C82,46.6,82,46.6,82,46.6z M81.9,47.3c-0.1-0.1-0.1-0.2-0.1-0.4c0,0,0,0,0,0c0,0,0-0.1,0-0.1c0,0,0,0,0,0c0-0.1,0.1-0.1,0.1-0.2
	c0,0,0,0,0,0c0,0,0,0,0,0c0,0,0,0,0,0c0,0,0,0,0,0c0.1,0,0.1,0.1,0.1,0.1c0,0,0,0,0,0C82.2,47,82.1,47.2,81.9,47.3
	C82,47.3,82,47.3,81.9,47.3C82,47.3,82,47.3,81.9,47.3C82,47.3,82,47.3,81.9,47.3C82,47.3,82,47.3,81.9,47.3
	C82,47.3,81.9,47.3,81.9,47.3z M81.6,49.7c0.3-0.5,0-0.9,0.7-1.2c0,0.1,0.1,0.3,0.1,0.4c0,0,0,0,0,0c0,0,0,0,0,0c0,0,0,0,0,0
	c0,0.1,0,0.2,0,0.3c0,0,0,0,0,0c0,0,0,0,0,0c0,0,0,0,0,0c0,0,0,0,0,0c0,0,0,0,0,0c0,0,0,0,0,0c0,0,0,0,0,0c0.1,0.5-0.3,1-0.8,1.1
	c0,0,0,0,0,0c-0.2,0-0.3,0.1-0.5,0.1c0,0,0,0,0,0c-0.1,0-0.1,0-0.2,0c0,0,0-0.1,0.1-0.1c0,0,0,0,0,0c0,0,0,0,0,0c0,0,0,0,0,0
	c0,0,0,0,0.1-0.1c0,0,0,0,0,0C81.3,50.1,81.4,49.9,81.6,49.7C81.5,49.8,81.5,49.8,81.6,49.7C81.5,49.8,81.5,49.8,81.6,49.7
	c-0.1,0.1-0.1,0.1-0.1,0.1C81.5,49.8,81.6,49.8,81.6,49.7C81.6,49.8,81.6,49.8,81.6,49.7C81.6,49.8,81.6,49.7,81.6,49.7z M80.7,48.8
	c0.1-0.2,0.3-0.4,0.5-0.6c0,0,0,0,0,0c0,0,0,0,0,0c0,0,0,0,0,0c0,0,0,0,0,0c0.1,0.1,0.2,0.3,0.3,0.4c0,0,0,0,0,0c0,0,0,0,0,0
	c0,0,0,0,0,0c0,0,0,0,0,0c0,0,0,0,0,0c0,0,0,0,0,0c0,0,0,0,0,0c0,0,0,0,0,0c0,0,0,0,0,0c0,0,0,0,0,0c0.1,0.3,0.2,0.7-0.1,1
	c0,0,0,0,0,0c-0.1,0.1-0.2,0.2-0.3,0.3c0,0,0,0,0,0c-0.1,0.1-0.2,0.2-0.3,0.3c0,0,0,0,0,0c-0.1,0.1-0.1,0.1-0.1,0.2c0,0,0,0-0.1,0
	c0,0,0-0.1,0-0.1c0,0,0,0,0,0c0,0,0,0,0,0c0,0,0,0,0,0c-0.1-0.2-0.1-0.4-0.1-0.6c0,0,0,0,0,0c0-0.2,0-0.3,0-0.5c0,0,0,0,0,0
	c0,0,0,0,0-0.1c0,0,0,0,0,0C80.6,49.1,80.7,48.9,80.7,48.8z M79.9,48C79.9,48,79.9,48,79.9,48C79.9,48,79.9,48,79.9,48z M79.9,48
	L79.9,48C79.9,48,79.9,48,79.9,48C79.9,48,79.9,48,79.9,48z M79.9,48C79.9,48,79.9,48,79.9,48C79.9,48,79.9,48,79.9,48
	C79.9,48,79.9,48,79.9,48z M79.9,48C79.9,48,79.9,48,79.9,48C79.9,48,79.9,48,79.9,48z M79.9,48L79.9,48L79.9,48z M79.9,48
	C79.8,48,79.8,48,79.9,48C79.8,48,79.8,48,79.9,48z M79.6,48.5c0.1-0.1,0.1-0.4,0.3-0.4c0.1,0.3,0.5,0.4,0.6,0.8c0,0,0,0,0,0
	c0,0,0,0,0,0c-0.2,0.5-0.2,1.1,0,1.6c-0.2-0.3-0.6-0.5-0.8-0.8c0,0,0,0,0,0c0,0,0,0,0,0c0,0,0,0,0,0C79.5,49.2,79.5,48.8,79.6,48.5z
	 M80.4,50.5c-1-0.2-1.8-0.4-1.8-1.6c0.1,0,0.1,0,0.2,0c0,0,0,0,0,0c0.2,0,0.4,0.1,0.6,0.2c0,0,0,0,0,0c0,0,0,0,0,0c0,0,0,0,0,0
	c0.2,0.1,0.1,0.4,0.3,0.6c0,0,0,0,0,0c0.1,0.1,0.2,0.3,0.3,0.4c0,0,0,0,0,0c0.1,0.1,0.3,0.2,0.4,0.3c0,0,0,0,0,0c0,0,0,0,0,0
	c0,0,0,0,0,0C80.3,50.4,80.4,50.4,80.4,50.5C80.4,50.5,80.4,50.5,80.4,50.5z M80.8,51.4c0-0.2,0-0.5,0.1-0.7c0.2-0.1,0.4,0,0.6-0.1
	c-0.2,1-0.4,2.1-0.7,3.1c0-0.5,0-1,0-1.5c0,0,0,0,0,0c0,0,0,0,0,0c0,0,0,0,0,0C80.8,51.9,80.8,51.6,80.8,51.4z M78.2,55.5
	C78.3,55.5,78.3,55.5,78.2,55.5C78.3,55.5,78.3,55.5,78.2,55.5c0-0.1,0-0.2,0.1-0.3c0.3,0.3,0.4,0.8,0.2,1.1
	c-0.1-0.1-0.2-0.2-0.2-0.3c0,0,0,0,0,0c0,0,0,0,0,0c0,0,0,0,0,0c0-0.1,0-0.1,0-0.2c0,0,0,0,0,0C78.2,55.8,78.2,55.7,78.2,55.5
	C78.2,55.6,78.2,55.6,78.2,55.5C78.2,55.6,78.2,55.5,78.2,55.5C78.2,55.5,78.2,55.5,78.2,55.5z M78.3,55.2L78.3,55.2z M77.8,55.2
	C77.8,55.2,77.8,55.2,77.8,55.2C77.8,55.2,77.8,55.2,77.8,55.2C77.8,55.2,77.8,55.2,77.8,55.2z M77.8,55.3L77.8,55.3L77.8,55.3z
	 M78.3,56.4c-0.5-0.1-0.7-0.5-0.5-1c0,0,0,0,0,0c0,0,0,0,0,0c0,0,0,0,0,0c0,0,0-0.1,0-0.1c0.1,0,0.2,0,0.3,0.1c0,0,0,0,0,0
	c0,0,0,0,0.1,0c0,0.3,0,0.6,0.2,0.8c0,0,0,0,0,0c0,0,0,0,0,0c0,0,0,0,0,0c0,0.1,0.1,0.1,0.1,0.2C78.4,56.5,78.4,56.4,78.3,56.4z
	 M78.5,56.5C78.5,56.5,78.5,56.5,78.5,56.5C78.5,56.5,78.5,56.5,78.5,56.5C78.5,56.5,78.5,56.5,78.5,56.5z M82.4,53.9
	C82.4,53.9,82.4,53.9,82.4,53.9C82.4,53.9,82.4,53.9,82.4,53.9z M82.5,53.1C82.6,53,82.6,53.1,82.5,53.1
	C82.6,53.1,82.6,53.1,82.5,53.1C82.6,53.1,82.6,53.1,82.5,53.1C82.6,53.1,82.6,53.1,82.5,53.1c0.1,0.2,0.1,0.3,0.1,0.4c0,0,0,0,0,0
	c0,0.1-0.1,0.2-0.2,0.3c0,0,0,0,0,0c0,0,0,0,0,0c0,0,0,0,0,0c0,0,0,0,0,0c0,0,0,0,0-0.1c0,0,0,0,0,0c0-0.1,0-0.1,0-0.2v0
	c0,0,0-0.1,0-0.1c0,0,0,0,0,0C82.3,53.3,82.4,53.2,82.5,53.1z M82.4,53C82.4,53,82.4,53,82.4,53C82.4,53,82.4,53,82.4,53z M82.3,53
	L82.3,53C82.3,53,82.3,53,82.3,53z M82.2,53.8c-0.1-0.1-0.2-0.4-0.1-0.6c0,0,0,0,0,0c0,0,0,0,0,0c0,0,0,0,0,0c0,0,0.1-0.1,0.1-0.1
	c0,0,0,0,0,0c0,0,0,0,0.1-0.1c0,0,0,0,0,0c0,0,0,0,0,0c0,0,0,0,0,0C82.1,53.3,82.2,53.6,82.2,53.8C82.2,53.9,82.2,53.8,82.2,53.8z
	 M86.5,60c0.1-0.2,0.4-0.4,0.6-0.5c-0.1,0.4-0.3,0.7-0.6,0.9c0-0.1,0-0.1,0-0.2c0,0,0,0,0,0c0,0,0,0,0,0c0,0,0,0,0,0c0,0,0,0,0,0
	c0,0,0,0,0,0C86.4,60.1,86.4,60,86.5,60z M83.8,61.9C83.8,61.9,83.8,61.8,83.8,61.9C83.8,61.8,83.8,61.9,83.8,61.9z M92.7,48.3
	C92.7,48.3,92.7,48.3,92.7,48.3c0,0.1,0,0.3,0,0.4c0,0,0,0,0,0c0,0,0,0,0,0c0,0,0,0,0,0c0,0.2-0.2,0.3-0.4,0.3
	c0.1-0.1,0.3-0.3,0.3-0.4c0,0,0,0,0,0C92.7,48.5,92.7,48.4,92.7,48.3C92.7,48.3,92.7,48.3,92.7,48.3z M92.2,48.7c0-0.1,0-0.1,0-0.2
	c0,0,0,0,0,0c0.1-0.2,0.2-0.4,0.4-0.5c0,0.1,0,0.2,0,0.3c0,0,0,0,0,0c0,0,0,0,0,0c0,0,0,0,0,0c0,0.2-0.1,0.4-0.3,0.6c0,0,0,0,0,0
	c0,0,0,0,0,0c0,0,0,0,0,0c0,0-0.1,0-0.1,0.1C92.2,48.9,92.2,48.8,92.2,48.7C92.2,48.8,92.2,48.8,92.2,48.7
	C92.2,48.7,92.2,48.7,92.2,48.7C92.2,48.7,92.2,48.7,92.2,48.7z M93.5,41.2C93.5,41.1,93.5,41.1,93.5,41.2
	C93.5,41.1,93.5,41.1,93.5,41.2L93.5,41.2z M94.2,40.7c-0.1,0.3-0.3,0.5-0.6,0.5c0,0,0,0,0,0c0,0,0,0,0,0c0,0,0-0.1,0-0.1
	c0,0,0,0,0,0C93.7,40.9,94,40.7,94.2,40.7C94.2,40.7,94.2,40.7,94.2,40.7z M93.5,41C93.5,41,93.5,41,93.5,41
	C93.5,41,93.5,41,93.5,41c0.1-0.1,0.2-0.3,0.3-0.3c0,0,0,0,0,0c0,0,0,0,0,0c0,0,0,0,0,0c0,0,0,0,0,0c0,0,0,0,0,0c0,0,0.1,0,0.1,0
	c-0.2,0.1-0.4,0.3-0.5,0.5c0,0,0,0,0,0c0,0,0,0,0,0c0,0,0,0,0,0c0,0,0,0,0,0C93.5,41.1,93.5,41,93.5,41C93.5,41,93.5,41,93.5,41
	C93.5,41,93.5,41,93.5,41z M94.1,37.5L94.1,37.5C94.1,37.5,94.1,37.4,94.1,37.5C94.1,37.4,94.1,37.5,94.1,37.5z M94.1,37.5
	L94.1,37.5C94.1,37.5,94.1,37.5,94.1,37.5C94.1,37.5,94.1,37.5,94.1,37.5z M93.3,37.7c0.1-0.1,0.2-0.2,0.3-0.2c0,0,0,0,0,0
	c0,0,0,0,0,0c0,0,0,0,0,0c0.2,0,0.3,0,0.5,0c-0.1,0.4-0.2,0.8-0.5,1c0,0,0,0,0,0c0,0,0,0,0,0c0,0,0,0,0,0c-0.2,0.1-0.3,0.2-0.5,0.2
	c0,0,0,0,0,0c0,0,0,0,0,0c0,0,0,0,0,0c-0.1,0-0.1,0-0.2,0c0,0,0,0,0,0c0,0-0.1,0-0.1,0c0,0,0,0,0,0c0,0,0,0-0.1,0
	C93,38.4,93.1,38,93.3,37.7z M92.2,37.3c0.2-0.4,0.8-1,0.9-0.3c0,0,0,0,0,0c0,0,0,0,0,0c0,0,0,0,0,0c0.1,0.2,0,0.4-0.1,0.6
	c0,0,0,0,0,0c0,0,0,0,0,0c0,0,0,0,0,0c-0.1,0.4-0.3,0.7-0.6,0.9c0,0,0,0,0,0c0,0,0,0,0,0c0,0,0,0,0,0c0,0,0,0,0,0c0,0,0,0,0,0
	c0,0,0,0,0,0C92.4,38.1,92,37.7,92.2,37.3z M91.9,37.3C91.9,37.3,91.9,37.3,91.9,37.3C91.9,37.3,91.9,37.3,91.9,37.3
	C91.8,37.3,91.8,37.3,91.9,37.3C91.8,37.3,91.8,37.3,91.9,37.3z M92.2,38.5c-0.5-0.2-1.1-0.4-0.9-1c-0.1-1,0.4-0.3,0.7,0
	c0,0.2,0,0.3,0.1,0.5c0,0,0,0,0,0C92.1,38.2,92.2,38.4,92.2,38.5C92.3,38.5,92.2,38.5,92.2,38.5z M92.3,38.8
	C92.3,38.8,92.3,38.8,92.3,38.8C92.3,38.8,92.3,38.8,92.3,38.8C92.3,38.8,92.3,38.8,92.3,38.8z M94.6,38.5c-0.2,0.1-0.3,0.2-0.4,0.4
	c0,0,0,0,0,0c-0.3,0.4-0.5,0.3-0.9,0.2c0,0,0,0,0,0c0,0,0,0,0,0c0,0,0,0,0,0c-0.1,0-0.2-0.1-0.3-0.1c0,0,0,0,0,0c0,0,0,0,0,0
	c0,0,0,0,0,0c-0.1,0-0.1-0.1-0.2-0.1c0.4,0,0.9-0.1,1.1-0.5C94.1,38.2,94.4,38.3,94.6,38.5C94.6,38.5,94.6,38.5,94.6,38.5z"/>
<path class="st1" d="M46,39.6c0-2,1-4.5,2.6-6.8V48l0,0.1c1.2,13.5,20,13.5,21.2,0l0-0.1V33.3c1.4,2.1,2.2,4.4,2.2,6.3v28.5
	c-8.2,4.2-17.8,4.2-26,0V39.6z"/>
<path class="st0" d="M51.6,35.7l1.2,1v1.5l-1.2,1l-1.2-1v-1.5L51.6,35.7z M52.9,40.3l1.7,1.5v2.3l-1.7,1.5l-1.7-1.5v-2.3L52.9,40.3z
	 M52.6,46.3l1.6,1.3v2.1l-1.6,1.3L51,49.8v-2.1L52.6,46.3z M56.7,45.6l1.6,1.3V49l-1.6,1.3L55.2,49v-2.1L56.7,45.6z M55.4,50.9
	l1.5,1.3v2l-1.5,1.3L54,54.1v-2L55.4,50.9z M60.5,49.4l2.2,1.7v3l-2.2,1.7L59.3,55l-1-0.8v-3L60.5,49.4z M66.8,52.8
	C62.5,59.5,50.9,57.9,50,48V32c0.3-1.4,0.7-2.7,1.1-3.9c0.1,0.4,0.2,0.9,0.3,1.3c0,0.1,0.1,0.2,0.1,0.4c0.1,0.2,0.1,0.5,0.1,0.7
	c0.9,3.8,2.2,7.7,3.7,10.6c0.5,0.8,0.9,1.6,1.5,2.4c0.4,0.6,0.8,1.2,1.3,1.8C60.5,48.1,63.8,50.8,66.8,52.8z"/>
<path class="st1" d="M68.3,32v16c-0.1,1.6-0.6,3-1.2,4.2L66.9,52c0,0,0,0-0.1,0c-1.9-1.2-3.7-2.6-5.4-4.1c-0.7-0.7-1.4-1.4-2-2.1
	c-0.9-1-1.8-2.1-2.5-3.2c-0.4-0.7-0.9-1.5-1.3-2.4c-1-2-1.8-4-2.3-6.2c-0.6-1.9-1.1-4-1.6-5.9l-0.3-1.2C56.7,10.8,63.4,12.5,68.3,32
	z"/>
<polygon class="st0" points="60.5,50.3 61.2,50.9 62,51.5 62,52.7 62,53.8 61.2,54.4 60.5,55 59.8,54.4 59,53.8 59,52.7 59,51.5 
	59.8,50.9 "/>
<polygon class="st0" points="56.7,46.6 57.1,46.9 57.5,47.3 57.5,48 57.5,48.7 57.1,49.1 56.7,49.4 56.3,49.1 55.9,48.7 55.9,48 
	55.9,47.3 56.3,46.9 "/>
<polygon class="st0" points="52.6,47.3 53,47.7 53.4,48 53.4,48.7 53.4,49.5 53,49.8 52.6,50.2 52.2,49.8 51.8,49.5 51.8,48.7 
	51.8,48 52.2,47.7 "/>
<polygon class="st0" points="52.9,41.2 53.4,41.7 53.9,42.1 53.9,42.9 53.9,43.8 53.4,44.2 52.9,44.6 52.4,44.2 51.9,43.8 
	51.9,42.9 51.9,42.1 52.4,41.7 "/>
<polygon class="st0" points="51.6,36.7 51.8,36.9 52.1,37.1 52.1,37.5 52.1,37.9 51.8,38.1 51.6,38.4 51.3,38.1 51.1,37.9 
	51.1,37.5 51.1,37.1 51.3,36.9 "/>
<polygon class="st0" points="55.4,51.8 55.8,52.1 56.2,52.5 56.2,53.1 56.2,53.8 55.8,54.1 55.4,54.4 55.1,54.1 54.7,53.8 
	54.7,53.1 54.7,52.5 55.1,52.1 "/>
</svg>
