<?xml version="1.0" encoding="utf-8"?>
<!-- Generator: Adobe Illustrator 16.0.0, SVG Export Plug-In . SVG Version: 6.00 Build 0)  -->
<!DOCTYPE svg PUBLIC "-//W3C//DTD SVG 1.1//EN" "http://www.w3.org/Graphics/SVG/1.1/DTD/svg11.dtd">
<svg version="1.1" id="Capa_1" xmlns="http://www.w3.org/2000/svg" xmlns:xlink="http://www.w3.org/1999/xlink" x="0px" y="0px"
	 width="500px" height="500px" viewBox="0 0 500 500" style="enable-background:new 0 0 500 500;" xml:space="preserve">
<style type="text/css">
<![CDATA[
	:root {
  		--time: 1s;
	}
	.frenchFnd{fill-rule:evenodd;clip-rule:evenodd;fill:#000;opacity:0;}

	.frenchDedoL1{fill:none;stroke:#FFF;stroke-width:1;stroke-dashoffset:0;opacity:0;
		animation: frenchDedoAni1 1s forwards calc(var(--time) + 0s),
			frenchAniUniaL0 1s forwards calc(var(--time) + 2s);
		stroke-dasharray:300px;}
	@keyframes frenchDedoAni1{0%{stroke-dashoffset:300px;opacity:1;
		}100%{stroke-dashoffset:0px;opacity:1;}}
	@keyframes frenchAniUniaL0{
		0%{opacity:1;		
		}100%{opacity:0;}}

	.frenchDedoL2{fill:none;stroke:#FFF;stroke-width:1;stroke-dashoffset:0;opacity:0;
		animation: frenchDedoAni2 0.5s forwards calc(var(--time) + 1s),
			frenchAniUniaL0 1s forwards calc(var(--time) + 2s);
		stroke-dasharray:110px;}
	@keyframes frenchDedoAni2{0%{stroke-dashoffset:110px;opacity:1;
		}100%{stroke-dashoffset:0px;opacity:1;}}
	
	.frenchDedoL3{fill:none;stroke:#FFF;stroke-width:1;stroke-dashoffset:0;opacity:0;
		animation: frenchDedoAni3 2s forwards calc(var(--time) + 1s),
			frenchAniUniaL0 1s forwards calc(var(--time) + 2s);
		stroke-dasharray:1000px;}
	@keyframes frenchDedoAni3{0%{stroke-dashoffset:1000px;opacity:1;
		}100%{stroke-dashoffset:0px;opacity:1;}}

	.frenchFlor{fill-rule:evenodd;clip-rule:evenodd;fill:#FFF;opacity:0;
		animation: frenchAniFlor 1s forwards linear calc(var(--time) + 2s);
	}
	@keyframes frenchAniFlor{
		0%{opacity:0;
		}85%{opacity:0.5;
		}100%{opacity:1;}}
	
	.frenchDedoColor{fill-rule:evenodd;clip-rule:evenodd;fill:#FFF;opacity:0;
		animation: frenchAniUniaColor 0.5s forwards linear calc(var(--time) + 2s);
	}
	@keyframes frenchAniUniaColor{
		0%{opacity:0;
		}50%{opacity:0.5;
		}100%{opacity:1;}}

	.frenchFndTxt{fill-rule:evenodd;clip-rule:evenodd;fill:#FFF;opacity:1;
		transform: translateX(200%);
		animation: frenchAniFndTxt 2s forwards calc(var(--time) + 2.5s);
	}
	@keyframes frenchAniFndTxt{
		0%{opacity:1;transform: translateX(200%)
		}50%{opacity:1;transform: translateX(-10%)
		}100%{opacity:0.5;transform: translateX(0%)
	}}

	.frenchTxt{fill-rule:evenodd;clip-rule:evenodd;fill:#000;opacity:1;
		transform: translateX(-200%);
		animation: frenchAniTxt 1.5s forwards calc(var(--time) + 2.5s);
	}
	@keyframes frenchAniTxt{
		0%{opacity:1;transform: translateX(-200%)
		}75%{opacity:1;transform: translateX(10%)
		}100%{opacity:1;transform: translateX(0%)
	}}
]]>
</style>
<rect id="fnd" class="frenchFnd" width="500" height="500"/>
<path id="fndTxt" class="frenchFndTxt" d="M9.7,375h480.6c4.7,0,8.5,3.8,8.5,8.5v103c0,4.7-3.8,8.5-8.5,8.5H9.7c-4.7,0-8.5-3.8-8.5-8.5v-103
	C1.2,378.8,5,375,9.7,375"/>
<path id="txt" class="frenchTxt" d="M340.6,460.5h5.7c0.8,0,1.2-0.4,1.2-1.2V410c0-0.8-0.4-1.2-1.2-1.2h-5.7c-0.8,0-1.2-0.4-1.2-1.2
	c0-0.8,0.4-1.2,1.2-1.2h8.1c0.8,0,1.2,0.4,1.2,1.2v20.7c0,0.5,0.1,0.9,0.3,1.1c0.2,0.2,0.5,0.1,1-0.3c4.4-4.9,9.1-7.4,14.2-7.4
	c5.1,0,9.1,1.4,11.8,4.2s4.2,6.8,4.2,12v21.4c0,0.8,0.4,1.2,1.2,1.2h5.7c0.8,0,1.2,0.4,1.2,1.2c0,0.8-0.4,1.2-1.2,1.2h-15.3
	c-0.8,0-1.2-0.4-1.2-1.2c0-0.8,0.4-1.2,1.2-1.2h4.8c0.8,0,1.2-0.4,1.2-1.2v-21.4c0-4.6-1.2-8-3.6-10.3c-2.4-2.3-5.6-3.4-9.7-3.4
	c-4.1,0-8,1.8-11.6,5.5c-1.6,1.6-3,3.4-4.2,5.4v24.2c0,0.8,0.4,1.2,1.2,1.2h4.8c0.8,0,1.2,0.4,1.2,1.2c0,0.8-0.4,1.2-1.2,1.2h-15.3
	c-0.8,0-1.2-0.4-1.2-1.2C339.4,460.9,339.8,460.5,340.6,460.5 M330.8,432.6c-4.4-5.7-9.5-8.5-15.3-8.5c-4.4,0-8,1.7-11,5.2
	c-2.9,3.5-4.4,8-4.4,13.6c0,5.5,1.5,10,4.6,13.4c3.1,3.4,7.1,5,12.1,5c5,0,9.1-1.3,12.4-4c0.9-0.6,1.5-1.2,2-1.6
	c0.5-0.4,0.9-0.6,1.1-0.4c0.3,0.1,0.5,0.4,0.8,0.7c0.3,0.3,0.4,0.6,0.4,0.9c0,0.2-0.2,0.6-0.7,1.1c-1.8,1.6-3.9,2.9-6.5,4.1
	c-2.6,1.2-5.8,1.8-9.7,1.8c-5.7,0-10.3-2-13.8-5.9c-3.5-3.9-5.2-9-5.2-15.1c0-6.2,1.7-11.2,5.1-15.1c3.4-3.9,7.7-5.9,12.9-5.9
	c5.2,0,9.8,2,13.9,6.1c0.9,0.8,1.3,0.5,1.3-0.8v-3.2c0-0.8,0.4-1.2,1.2-1.2c0.8,0,1.2,0.4,1.2,1.2v12.9c0,0.8-0.4,1.2-1.2,1.2
	c-0.8,0-1.2-0.4-1.2-1.2V432.6z M244.1,460.5h5.7c0.8,0,1.2-0.4,1.2-1.2v-33.1c0-0.8-0.4-1.2-1.2-1.2h-5.7c-0.8,0-1.2-0.4-1.2-1.2
	c0-0.8,0.4-1.2,1.2-1.2h8.1c0.8,0,1.2,0.4,1.2,1.2v4.5c0,0.5,0.1,0.9,0.3,1.1c0.2,0.2,0.5,0.1,1-0.3c4.4-4.9,9.1-7.4,14.2-7.4
	c5.1,0,9.1,1.4,11.8,4.2s4.2,6.8,4.2,12v21.4c0,0.8,0.4,1.2,1.2,1.2h5.7c0.8,0,1.2,0.4,1.2,1.2c0,0.8-0.4,1.2-1.2,1.2h-15.3
	c-0.8,0-1.2-0.4-1.2-1.2c0-0.8,0.4-1.2,1.2-1.2h4.8c0.8,0,1.2-0.4,1.2-1.2v-21.4c0-4.6-1.2-8-3.6-10.3c-2.4-2.3-5.6-3.4-9.7-3.4
	c-4.1,0-8,1.8-11.6,5.5c-1.6,1.6-3,3.4-4.2,5.4v24.2c0,0.8,0.4,1.2,1.2,1.2h4.8c0.8,0,1.2,0.4,1.2,1.2c0,0.8-0.4,1.2-1.2,1.2h-15.3
	c-0.8,0-1.2-0.4-1.2-1.2C242.9,460.9,243.3,460.5,244.1,460.5z M201,440.1c0,0.6,0.4,1,1.1,1h30.6c0.8,0,1.2-0.4,1.2-1.2
	c0-4.3-1.6-8-4.7-11.1c-3.1-3.1-7.1-4.6-12-4.6c-4.8,0-8.7,1.7-11.8,5.1C202.5,432.6,201,436.3,201,440.1z M230,457.3
	c0.9-0.6,1.5-1.2,2-1.6c0.5-0.4,0.8-0.6,1.1-0.4c0.3,0.1,0.6,0.4,1,0.9c0.4,0.5,0.3,1-0.4,1.5c-1.9,1.7-4.2,3.1-6.7,4.3
	c-2.5,1.2-5.8,1.8-9.7,1.8c-5.7,0-10.3-2-13.8-5.9c-3.5-3.9-5.2-9-5.2-15.1s1.7-11.2,5.2-15.1c3.5-3.9,8-5.9,13.7-5.9
	c5.6,0,10.2,1.8,13.8,5.3c3.6,3.6,5.3,7.8,5.3,12.8v1.2c0,1.6-0.8,2.4-2.4,2.4h-31.8c-0.9,0-1.3,0.4-1.2,1.2
	c0.3,4.7,1.9,8.6,4.8,11.8c2.9,3.2,6.8,4.8,11.9,4.8C222.6,461.3,226.8,459.9,230,457.3z M186.8,424.1c-6.8,0-12.4,2.7-17,8
	c-1.3,1.5-2.4,3-3.2,4.5v22.6c0,0.8,0.4,1.2,1.2,1.2h6.5c0.8,0,1.2,0.4,1.2,1.2c0,0.8-0.4,1.2-1.2,1.2h-17c-0.8,0-1.2-0.4-1.2-1.2
	c0-0.8,0.4-1.2,1.2-1.2h5.7c0.8,0,1.2-0.4,1.2-1.2v-33.1c0-0.8-0.4-1.2-1.2-1.2h-5.7c-0.8,0-1.2-0.4-1.2-1.2c0-0.8,0.4-1.2,1.2-1.2
	h8.1c0.8,0,1.2,0.4,1.2,1.2v6.4c0,1.3,0.6,1.4,1.7,0.1c2-2.3,4.6-4.2,7.8-5.9c3.2-1.7,6.8-2.5,10.7-2.5h4c0.8,0,1.2,0.4,1.2,1.2V433
	c0,0.8-0.4,1.2-1.2,1.2c-0.8,0-1.2-0.4-1.2-1.2v-7.7c0-0.8-0.4-1.2-1.2-1.2H186.8z M111.7,460.5h5.7c0.8,0,1.2-0.4,1.2-1.2V410
	c0-0.8-0.4-1.2-1.2-1.2h-5.7c-0.8,0-1.2-0.4-1.2-1.2c0-0.8,0.4-1.2,1.2-1.2h38.4c0.8,0,1.2,0.4,1.2,1.2v11.3c0,0.8-0.4,1.2-1.2,1.2
	s-1.2-0.4-1.2-1.2V410c0-0.8-0.4-1.2-1.2-1.2h-25.4c-0.8,0-1.2,0.4-1.2,1.2v21.8c0,0.8,0.4,1.2,1.2,1.2h19c0.8,0,1.2-0.4,1.2-1.2v-4
	c0-0.8,0.4-1.2,1.2-1.2c0.8,0,1.2,0.4,1.2,1.2v12.9c0,0.8-0.4,1.2-1.2,1.2c-0.8,0-1.2-0.4-1.2-1.2v-4c0-0.8-0.4-1.2-1.2-1.2h-19
	c-0.8,0-1.2,0.4-1.2,1.2v22.6c0,0.8,0.4,1.2,1.2,1.2h6.5c0.8,0,1.2,0.4,1.2,1.2c0,0.8-0.4,1.2-1.2,1.2h-17c-0.8,0-1.2-0.4-1.2-1.2
	C110.5,460.9,110.9,460.5,111.7,460.5z"/>
<g id="dedoLine">
	<path class="frenchDedoL3" d="M290,212.9c-0.8,3.3-1.5,6.6-2.6,9.8c-2.2,6.3-5.3,12.1-9.2,17.4c-4.2,5.7-9.6,10.4-14.7,15.3
		c-5.1,5-10.2,9.9-15.3,14.9c-6.9,6.7-13.8,13.3-20.7,20c-6.1,5.9-12.1,11.9-18.2,17.8c-4,4-8,8-12,11.9c-0.2,0.2-0.4,0.6-0.9,0.6
		c-0.2-0.4,0.1-0.5,0.3-0.7c8.9-9,17.8-18,26.6-27c7.3-7.4,14.6-14.9,21.8-22.3c5.1-5.2,10.2-10.5,15.3-15.8
		c4.9-5.2,10.1-10.3,14.4-16.1c4.8-6.7,8.3-14.1,9.7-22.3c0.1-0.4,0.2-0.8,0-1.4c-1.2,0.9-1.9,2.1-2.8,3.1
		c-4.4,5.1-8.6,10.3-13.2,15.2c-3.7,3.9-8.3,6.1-13.8,6.6c-13.9,1.2-26.2-9.5-27.7-22.9c-0.9-8.1,1.9-14.7,8.1-20
		c4.9-4.2,9.6-8.5,14.6-12.6c8.9-7.4,18-14.7,27.9-20.8c3.2-1.9,6.5-3.7,10.1-4.8c1.9-0.6,3.8-0.8,5.7-0.8c6.1,0,11.5,3,14.1,8.8
		c2.2,5,1.7,10-0.4,14.9c-0.5,1.1-0.4,2,0.1,3c2.9,6.3,6.8,12,11.8,16.8c3.4,3.3,7.3,5.6,11.7,7.4c4.8,2,9.7,3.6,14.1,6.5
		c5.5,3.8,9.3,9,12,15.1c1.4,3.3,2.4,6.8,2.3,10.5c0,1.7-0.3,3.3-0.8,4.9c-0.3,1.1-0.1,1.7,0.7,2.5c9,9,18,17.9,26.9,26.9
		c0.2,0.2,0.4,0.3,0.5,0.5c1.2,1.6,2.4,2.5,4.5,1.4c1-0.5,2.1-0.1,2.9,0.8c12.8,12.8,25.5,25.6,38.3,38.3c1.2,1.2,1.5,2.5,0.9,4.1
		c-1.3,3.4-3.5,6.1-5.9,8.7c-2.7,2.8-5.5,5.4-8.9,7.3c-0.6,0.3-1.3,0.6-2,0.9c-1.6,0.6-2.9,0.3-4.1-1c-9.5-9.6-19.2-19.2-28.8-28.8
		c-3-3-6-6-9-8.9c-1.4-1.4-1.4-2.9-0.8-4.5c0.4-0.9,0.2-1.5-0.5-2.2c-6.2-6.2-12.4-12.4-18.6-18.6c-3.5-3.5-7-7-10.4-10.5
		c-0.6-0.6-1.1-0.7-2-0.5c-6.6,2.1-12.9,1-18.9-2c-8.1-4-14.1-10.3-19.2-17.4c-4.4-6.1-7.6-12.7-10.3-19.6
		C292.2,219.8,291.2,216.4,290,212.9z M302.9,178.2c-0.9,4-1.2,7.9-0.9,12c0,0.4,0.2,0.9-0.2,1.1c-0.5,0.2-0.7-0.4-0.9-0.7
		c-3.7-6-5.5-10.8-7.7-17.5c-0.1-0.3-0.1-0.9-0.6-0.9c-0.5,0-0.5,0.5-0.6,0.9c-2.4,5.9-3.3,12.1-3.2,18.4c0.1,7.1,1.2,14,3.1,20.8
		c3.8,13.2,9.7,25.2,19,35.5c4.9,5.4,10.5,9.8,17.6,12c3.8,1.2,7.6,1.5,11.5,0.4c0.6-0.2,1.1-0.4,0.9-1.2c-0.3-1.5,0.1-2.9,0.9-4.2
		c2.1-3.8,5.2-6.7,8.9-8.8c0.6-0.3,0.9-0.7,0.9-1.4c-0.2-3-0.3-6-1.1-8.9c-0.6-2-1.2-4.1-2.6-5.8c-1.8-2.2-3.9-3.9-6.2-5.6
		c-4.3-3.2-9-5.6-14-7.5c-7.2-2.8-13-7.1-17.1-13.7c-0.4-0.7-0.7-1.4-0.8-2.2c0.3,0.2,0.4,0.4,0.5,0.6c1.6,2.6,3.5,5,5.7,7.1
		c3.7,3.5,8.3,5.3,12.9,7c5,1.9,9.9,4,14.5,6.9c5.2,3.3,9.1,7.5,10.4,13.8c0.5,2.5,1,5,1.1,7.6c0,0.5-0.1,1.3,0.6,1.3
		c0.5,0,0.5-0.7,0.5-1.2c0.6-2.7,0.3-5.5-0.4-8.1c-2.1-7.8-6.7-13.9-13.4-18.4c-3.1-2.1-6.7-3.3-10.2-4.6
		c-10.8-3.9-18.7-11.2-24-21.3C305.8,187.2,304.2,182.7,302.9,178.2z M356.4,254.5c0.1-0.1,0.2-0.2,0.2-0.2c0.4,0.4,0.8,0.7,1.2,1.1
		c4.3,4.7,9,9,13.5,13.6c2.8,2.9,5.7,5.7,8.5,8.6c1.1,1.1,2.2,2.2,3.4,3.3c1.2,1,1.7-0.4,2.4-0.8c0.8-0.5-0.1-1-0.4-1.3
		c-2.5-2.5-5-5-7.5-7.6c-7.5-7.5-15-15-22.4-22.5c-1-1-1.9-1.1-3.1-0.5c-3.4,1.8-6,4.6-8,7.8c-0.6,0.9-1.1,2.1,0,3.2
		c2.2,2.2,4.4,4.4,6.6,6.7c4.9,4.9,9.8,9.8,14.7,14.7c3.1,3.1,6.2,6.2,9.3,9.3c0.5,0.5,0.9,0.6,1.3-0.1c1.3-1.9,2.8-3.6,4.5-5.1
		c0.6-0.5,0.7-1,0.1-1.6c-1.2-1.3-2.4-2.7-3.5-4.1c-5.6-6.6-11.2-13.2-16.8-19.8C359,257.5,357.7,256,356.4,254.5z M235.4,226.8
		c0.9,7.3,14.9,9.8,20.2,9.1c10.3-1.3,23.6-20.9,30.3-28.9c2-2.4,1.3-7.3-0.2-5.4C273.4,216.6,260.8,242.4,235.4,226.8z
		 M391.4,281.5c-0.4-0.2-0.6-0.1-0.8,0c-5.5,3.2-9.8,7.5-13.1,13c-0.5,0.9-0.1,1.4,0.5,2c11.3,11.3,22.7,22.7,34,34
		c0.4,0.4,0.7,1.2,1.4,0.5c0.6-0.6-0.2-1-0.5-1.3c-2.5-2.5-5-5-7.5-7.6c-8.5-8.5-17-17-25.6-25.5c-1-1-1.2-1.8-0.4-2.9
		c0.2-0.3,0.4-0.7,0.6-1c2.1-2.8,4.3-5.5,6.9-7.7C388.4,283.7,389.8,282.6,391.4,281.5z"/>
	<path class="frenchDedoL1" d="M143.4,269.2c21.4-23.2,66.2-78.8,92.5-91.3c6-2.9,12.4-4.4,19.1-4.8c4.6-0.3-12.8,11.8-13.9,12.2
		c-7.6,2.5-15.1,7.9-20.9,13.4C192.4,224.9,132.4,281.1,143.4,269.2z"/>
	<path class="frenchDedoL2" d="M345.1,234.1c-1.8-2.6-4.1-4.6-6.8-6.1c-3.9-2.2-8.1-3.9-12.4-5.2c-9.8-2.9-16.2-9.4-19.9-18.7
		c-0.5-1.3-1-2.5-1.3-4c0.6,0.1,0.7,0.6,0.9,0.9c2.1,3.8,4.6,7.2,7.5,10.3c3.7,3.9,8.2,6.6,13.2,8.3c4.8,1.6,9.5,3.5,13.5,6.7
		C342.4,228.3,344.4,230.7,345.1,234.1z"/>
</g>
<path id="flor" class="frenchFlor" d="M70.2,195.6c1.1-8.9,2.5-18,4.9-26.2c1.8-6.1,5-12.2,6.8-18.3c1.3-3.9,2.9-7.7,4.5-11.5
	c1.6-4.8,4.2-9.1,6.9-13.1c0-0.2,0.1-0.3,0.2-0.4c4.1-5.6,7.6-12.1,12.1-17.1c0,0,0,0,0,0c0,0,0,0,0,0c-0.4,1-0.8,1.9-1.3,2.9
	c-2.1,5.5-5.2,10.4-7.7,15.7l0-0.1c0,0,0,0,0,0.1c0,0,0,0,0,0c-4.8,10.9-8.7,23-8,35.4c-0.4,16.3-1.3,32.4-2.2,48.5
	c-2,24.1-4,41.5,6.4,63.5c0,0,0,0,0,0c5.6,11.2,13.7,20.5,21.9,28.8c4.7,4.7,11,7.3,16.7,9.5h0c3.9,1.2,8.2,0.5,11.8,2.9
	c-31.4-34.2-46.6-89.6-38.6-141.1c1.1-8.3,3.6-17.2,5.4-25.6c0.6-3,1-5.9,1.7-8.9c2.2-12.8-3.2-25.5,0.3-38
	c2.1-9.6,7.6-18,12.3-25.5c4.4-6.5,8.6-12.8,13.1-19.2c2.8-4.8,4.8-9.8,6.9-14.9c1-2.7,1.3-5.6,2.7-8.1c0,0,0,0,0,0
	c0.1-0.1,0.1-0.3,0.2-0.4l0,0c0,0,0.1-0.1,0.1-0.1h0c0,0,0,0,0,0c0,0,0,0,0,0c0.1-0.2,0.2-0.4,0.4-0.6c-0.6,3-0.3,6.1-0.7,9
	c0,0,0-0.1,0-0.1c-0.8,10.1-3.9,19.6-9,27.4c-3,4.9-5.3,10.5-7.9,15.7c-1.5,2.5-2,6.3-3.3,8.8c-1.7,3.8-3.3,7.5-4.6,11.7
	c-2.3,9.3-4.9,18.5-6.6,28.1c5.6-14.6,13.6-26.9,22.2-38.8c5.7-12.1,11.9-23.7,18.6-35c2.1-11.8,5.8-23.6,10.7-33.9c0,0,0,0,0,0
	c-1.9-5.2,3.3-14.1,7.6-9.7c0.8,1.1,0.5,2.9-0.1,4c-1.3,3.3-4.3,5.1-7,6c-3.9,9.4-6.9,19.6-9.2,29.8l0,0l-0.2,0.8
	c4.6-6.9,9.3-14.3,15.2-20c1.8-7.7,12.1-28.6,19.6-21.1c5.2,8.9-11.6,23.4-17.9,21.5c-2.4,2.8-4.7,5.8-6.9,8.9c0,0,0,0,0,0
	c0.2-0.1,0.4-0.1,0.5,0.1c4.9-0.8,9.8-1.9,14.4-4.2c2.2-1,4.5-2.1,6.4-3.8c0.3-0.9,0.7-1.7,1-2.7c0.9-3.6,4.9-7.8,7.4-3.9
	c0.2,0.4,0.2,0.9,0.2,1.3c0,0.2,0,0.5-0.2,0.6c-1.1,3.9-4.8,5.9-7.9,5.5c-3.9,3.4-8.7,4.8-13.1,6.7c0.7,0.2,1.4,0.1,2,0.2h0
	c0.2,0,0.4-0.1,0.6,0c2.2-0.3,4.5-0.7,6.7-1.2c0.8-1.6,2.4-3,3.9-2c0.8,0.5,1,1.9,0.5,2.8c-0.3,0.6-0.7,1.1-1.2,1.3
	c-1.6,0.6-2.8-1.4-4.4-1.1c0,0,0,0,0.1,0c-2.6,0.4-5.2,1-7.9,1.2c0,0,0,0,0.1,0c-0.4,0.1-0.8-0.1-1.2,0.1c-0.8,0.2-1.8-0.1-2.6,0.1
	c-2.3,0.3-4.7,0.4-7,1.1c-8.7,12.6-16.1,26.1-23.2,40c20.1-21.8,46.5-36.2,73.5-36.2c-0.3-10.7,7-27.2,14.6-32.2
	c2.2-1.4,4.7-2.6,7.2-1.9c3.8,0.8,6.6,7.2,4.1,11.4c2.5,0.6,4.6,3.6,2.8,6.6c3.5,1.3,5,6.9,1.9,9.9c3,1.8,1.2,5.6-0.9,7.3
	c3,1.6,4.5,6,1.9,9.2c-0.6,0.7-1.2,1-1.7,1.5c2,3.4,0.1,8.2-3,9.4c1.5,6.1-4.3,11.7-8.8,10.4c-8.6-3-17.5-16.5-17.8-27.9
	c-2.2-0.2-4.4-0.3-6.6-0.3l0,0c-7,0.9-14.9,2.9-21.1,5.2l0.1-0.1c-18.8,6.9-36.2,20.2-50.1,38l0.1-0.1c0,0,0,0,0,0c0,0,0,0,0.1-0.1
	c-7.3,9.4-13.1,19.2-18.4,30.7l0,0c0,0,0,0,0,0c0,0,0,0,0,0c0,0,0,0,0,0c-7.8,17.5-12.9,37.2-14.4,57.5
	c4.6-14.2,11.9-27.3,20.6-37.8c6.1-11,13.4-21.3,22-29.2l0,0c2.6-3.6,3.7-8.5,6.2-12.2c1.9-3.5,7.1-5.1,7.4,0.5c3.3,3,1.1,9-2,10.9
	c-3.1,2.3-6.6,2-10,1.5c-5,5-10.3,10.8-14.3,17.1c-0.8,1.2-1.9,2.9-2.8,4c9.1-9.2,20.8-14.5,32.2-15.7c2.5-5.2,3-11.6,4.7-17.2
	c1.8-5.4,4.7-9.5,9.2-11.2c3.8-1.4,7.3,2.1,7.1,7.1c0,0,0.1,0,0.1,0c3.8,1.6,6.7,8.4,4,13c1.1,0.6,2,1.7,2.5,3.1
	c0.2,0.2,0.2,0.9,0.3,1.2c0.7,3-1,6.2-3,7.8c2.4,1.5,3.2,5.6,1.6,8.3c-2.6,5.3-8.3,5.9-12.4,3.1c-5-2.6-9-9.9-13.3-13.3
	c-4.1,0.6-8.3,1.9-12.2,3.3l0,0c-3.8,1.5-7.5,3.4-11,5.7c6.7,0.4,13.5,1.9,19.4,5.8c0.6,0.1,1.6,0.2,2.2,0.3
	c2.5,0.5,5.4,0.8,7.2,3.1c2.3,2.7,1.1,8-2.4,7.4c-3.5-0.7-6.5-3.9-7.7-8c-2-5.4-13.7-6.9-18.1-7.1v0c-1.3-0.1-2.3,0.6-3.5,0.7
	c-11.8,9.2-21.3,23.2-28.2,38.3l0,0c-3.6,8.2-6.6,17.2-6.6,26.7l0-0.1c0.5,50.4,23.6,99.2,58.5,123.9l-0.1,0l0,0c0,0,0,0,0,0v0
	c0.1,0.1,0.3,0.2,0.4,0.3l-0.1-0.1c5.7,4.1,11.4,7.4,17.4,10c-4.1-4.7-8.3-8.7-12.4-13.4c-3.8-4.7-6.8-10.5-10.8-15.1
	c-8.1-9.6-9.5-17.2-11.3-30.7c-1.8-13.4,2.4-27.1-0.2-40.3c-3.7-12.4-12.7-22-13-36c-0.2-3.9,0.3-7.7,0.3-11.6
	c0.1-2.9-0.6-5.7-0.7-8.5c0,0,0,0,0,0c0,0,0,0,0,0c0,0,0,0,0,0c0,0,0-0.1,0-0.1c0-0.1,0-0.1,0-0.2c0,0,0,0,0,0
	c0-0.4,0.1-0.7,0.1-1.1c0,0,0,0,0,0.1c0-0.1,0-0.2,0-0.3c0,0,0,0,0,0c0-0.1,0-0.2,0-0.3c0,0,0,0,0,0c0,0,0-0.1,0-0.1
	c1.8,4.3,2.5,9,3.3,13.7c1.7,4.3,3.3,8.9,5.6,12.7c4,6.6,8.8,13,12.9,19.5c7.3,11.6,8.5,26.2,8.4,40.4l0-0.1
	c-0.3,28,6.8,59.4,26.6,75c8.4,2.8,17.7,4.8,26.6,5.3c7,0.5,14.2-0.7,21.2-1.4c0.8,0,1.7,0.3,2.5,0.7c1.3,0.9,0.6,2.5-0.5,3.2
	c-0.7,0.6-1.5,1-2.3,1.2c-5.7,1.1-9.8,1.4-16,1.5c-21.4,0.3-42.2-6.1-60.8-20.3l0,0c-2.9-2-5.8-3.8-8.8-5.5
	c-2.6-1.6-4.9-3.6-7.8-4.2c-2.8-0.8-5.7-0.1-8.5,0.1c-8.9,0.1-17.9,4.1-26.8,0.5c-11-5-18.8-17.5-26.5-28
	c-7.6-9.1-9.7-20.6-12.8-32.8C65.4,241.1,68,218.4,70.2,195.6 M92.1,133.9c0.2-0.7,0.5-1.4,0.8-2c-0.4,0.6-0.7,1.8-1,2.6L92.1,133.9
	z M171.2,23.1c1.2-1.3,2.3-2.6,3-4.4c-1.6,2-3.5,3.8-5,5.9c0.1-0.1,0.3-0.1,0.4-0.2c0,0,0,0-0.1,0C170.2,24.2,170.7,23.6,171.2,23.1
	z M169.4,22.1c-0.5,0.9-0.9,1.8-1.1,2.9c1.5-2.6,3.8-4.6,5.6-6.9C172.1,18.9,170.6,20.3,169.4,22.1z M173.1,16.9L173.1,16.9
	c-0.2-0.1-0.4-0.1-0.6-0.1v0c-2.9,0.3-4.9,4.6-4.8,8c0.2-1.4,0.9-2.8,1.7-3.8c1.3-1.7,2.8-3.1,4.5-3.7C173.8,17,173.3,17,173.1,16.9
	z M174.7,19.7c0-0.2,0-0.3,0-0.5c0,0,0,0,0,0s0,0,0,0c0-0.1,0-0.3,0-0.4c-1,2.8-3,4.6-4.8,6.4c1.8-0.6,3.1-2.2,4.2-3.9
	C174.3,20.8,174.6,20.2,174.7,19.7z M186.9,20.2C186.9,20.2,186.9,20.2,186.9,20.2c-2.7,1.9-4.6,5-6.2,8.2c1.7-2.4,3.7-4.5,5.8-6.3
	c1.3-1.5,2.6-3.1,4.1-4C189.4,18.6,188.1,19.4,186.9,20.2C186.9,20.2,186.9,20.2,186.9,20.2z M190.5,19.4c-4.1,4.1-8,8.5-11.1,13.8
	c2.9-3,5.7-6.1,8.4-9.5c0,0,0,0,0,0c0.7-1,1.5-1.9,2.2-2.9c0,0,0,0.1-0.1,0.1c0.6-0.8,1.1-1.6,1.6-2.5
	C191.1,18.8,190.8,19.1,190.5,19.4z M190.8,21c-3.1,4.6-6.8,8.4-10.4,12.4c4.7-2.6,8.6-7.8,11-13.6C191.3,20.2,191.1,20.6,190.8,21z
	 M191.7,16.5c-3.4-1.6-6.4,2.5-8.7,5.1l0,0c-3,4.1-5.8,8.8-7.7,13.8c4.3-7.1,7.9-16.5,15.5-18.6l0,0
	C191.1,16.7,191.5,16.6,191.7,16.5C191.8,16.5,191.8,16.5,191.7,16.5z M190,27.8L190,27.8c0.9-1.1,1.7-2.3,2.4-3.7c0,0,0,0,0,0l0,0
	c0.7-1.8,1.4-4.1,0.8-6.1c-1.4,5.1-4.2,9.7-7.5,13.3c-2.2,2.3-4.8,3.6-7.3,5c0.9-0.1,1.8-0.2,2.6-0.5c0,0-0.1,0-0.1,0
	C184.3,34.3,187.5,31.1,190,27.8z M197.4,33.5c-2.3-0.5-3.8,2.3-4.9,4.4c0.7-0.4,1.4-0.7,2.1-1.2l0,0
	C195.7,35.8,196.6,34.6,197.4,33.5C197.4,33.5,197.4,33.5,197.4,33.5z M193.3,39c1.6-0.6,3.1-1.9,4-3.8c0,0,0,0,0,0
	c0.2-0.3,0.3-0.7,0.4-1.1c-1.5,2.3-3.3,4.1-5.6,5.2C192.4,39.2,192.8,39.1,193.3,39z M191.7,37.7c1.6-2.1,3.1-5.5,5.7-4.9
	c-2.8-2.1-5.2,2.1-5.9,5.2L191.7,37.7z M190.1,44.6c-0.6-0.4-1.4-0.2-2,0.2l0,0c0,0,0,0,0,0l0,0c-0.4,0.3-0.6,0.6-0.9,1
	c0.9-0.7,2-1.2,3.1-0.9C190.2,44.7,190.1,44.6,190.1,44.6z M190.5,45.6c-1-0.3-2,0.1-3,0.7c0.7-0.1,1.4,0,2-0.2l0,0
	C189.9,45.9,190.2,45.7,190.5,45.6z M188.3,47.4c0.4,0.2,0.9,0.2,1.4,0c0,0,0,0,0,0c0.3-0.2,0.5-0.6,0.7-0.9
	c-0.8,0.4-1.8,0.5-2.8,0.5C187.8,47.1,188.1,47.3,188.3,47.4z M242.1,23.5c-0.2-0.5-0.5-0.9-0.8-1.3h0c-0.3-0.4-0.7-0.7-1-1
	c0,0,0,0,0,0s0,0,0,0c-0.7-0.5-1.5-0.8-2.3-0.9c-4.1-0.3-7.9,2.7-10.7,6.3l0,0c-1.8,2.4-2.8,4.6-4.3,7.6l0,0v0l0,0l0,0c0,0,0,0,0,0
	l0,0l-0.1,0.1c3.1-4.6,7.6-7.9,12.1-10.2c1.8-1.1,3.9-1.8,5.9-1.1l0,0c0.4,0.2,0.8,0.4,1.2,0.6L242.1,23.5z M242.9,26.7
	c-0.1-0.7-0.2-1.4-0.4-2v0c-0.4-0.2-0.9-0.5-1.3-0.7v0c-2.1-0.8-4.4,0-6.3,1.2c-5.8,2.9-11.3,8.6-13.8,15.8c0.8-1.3,1.7-2.4,2.5-3.8
	c1.3-1.4,2.6-2.9,4-4.1c1.1-1.5,2.6-2.3,4-3.2c1.9-1.4,4-2.9,6.3-3.1C239.6,26.4,241.3,26.2,242.9,26.7
	C242.9,26.8,242.9,26.7,242.9,26.7z M242.8,27.6c-2.4-0.6-5,0.2-7.3,1.2c-4,2.4-7.8,5.4-10.9,9.4c0,0,0,0,0,0c0,0,0,0,0,0.1
	c0,0,0,0,0,0c-2.3,2.9-4.2,6.4-4.8,10.4c1-3.7,4.1-5.4,6.1-8c4.5-4.7,10-10,16.1-10.1l0-0.1c0.5-0.8,1-1.7,1-2.8L242.8,27.6z
	 M244.6,33.3c-0.5-0.6-1.1-1-1.8-1.2h0c-3.4-0.9-6.8,1.2-9.6,3.3c-3.9,3.1-7.7,7.3-10.6,11.8c4.7-4.3,9.9-7.7,15.2-10.6
	c1.3-0.6,2.4-1.4,3.7-1.9c1.1-0.4,2.3-0.7,3.4-1C244.8,33.5,244.7,33.4,244.6,33.3z M244.9,34.9c-0.2,0.1-0.4,0.1-0.5,0.2
	c0,0,0,0,0,0l0,0c-8.2,2.6-16.1,8.3-22.4,15.5c6.3-3.7,20.4-7.4,23.1-15.7C245.1,34.8,245,34.9,244.9,34.9z M246.7,39.7
	c-0.3-0.3-0.7-0.5-0.9-1c-0.2-0.1-0.4-0.2-0.6-0.3c-0.4,0.7-0.9,1.3-1.4,1.8c1-0.4,2-0.6,3-0.4L246.7,39.7z M248.4,42.6
	c0-0.4-0.1-0.6-0.3-1l0,0c-0.2-0.4-0.4-0.7-0.5-0.9c-3.2-0.2-6.1,1.4-8.6,3.9c1.1-0.7,2.2-0.9,3.4-1.2c1.6-0.4,3.3-1.1,5-0.7
	c0.3,0,0.7,0.1,1,0.1L248.4,42.6z M248.1,44.9c0.2-0.4,0.3-0.8,0.3-1.3c-3.6-0.1-7.1,1.3-10.5,2.6c3-0.3,6.1-0.5,9,0.6l0.1,0
	C247.4,46.2,247.8,45.5,248.1,44.9z M248.4,49.9c0-0.2,0-0.3-0.1-0.4c0,0,0,0,0,0c-0.4-1.2-1.6-1.5-2.5-1.9c0,0,0,0,0,0
	c-2.7-0.8-5.5-0.8-8.2-0.5c-5.9,0.2-11.3,3.9-16.7,6.6C230.1,52.5,239.2,49.5,248.4,49.9z M228.7,55.8c4,0.3,7.9-0.3,11.8-1.6
	c0,0,0,0,0,0l0,0c0,0,0,0,0,0l0,0c2.8-1.1,5.1-2.2,7.7-3.7c-8.7-0.1-17.2,2.9-25.7,4.4C224.5,55.3,226.6,55.6,228.7,55.8z
	 M247.3,52.5c0.3-0.4,0.6-0.8,0.8-1.2c-5,3.3-10.1,5.5-15.8,6c4.4,2.1,9-0.2,13-2.9c0.3-0.5,0.9-0.5,1.2-1
	C246.7,53.2,247,52.8,247.3,52.5z M248,57.6c-0.8-1-1.6-1.5-2.5-2c-1,0.8-2.1,1.3-3.2,1.9c1.9-0.3,4,0,5.9,0.4
	C248.2,57.8,248.1,57.7,248,57.6z M248.7,60.2c0-0.4-0.2-0.9,0-1.2c0-0.1-0.1-0.2-0.1-0.2c-2.9-0.8-5.9,0-8.9,0.2
	c-0.1,0.1-0.1,0.1-0.2,0.1c3,0.4,6.1,0.7,9.1,1.4C248.7,60.3,248.7,60.2,248.7,60.2z M247.2,63.8c0.7-0.7,1.2-1.6,1.4-2.7
	c-2.4-0.1-4.8-0.1-7.1-0.3c1.8,0.8,3.5,1.8,4.9,3.5C246.7,64.2,247,64,247.2,63.8z M246.8,67.5c-0.1-1.9-1.4-2.9-2.6-3.8l0,0
	c-1.8-1.3-3.9-2.3-5.9-3l0,0c-3-1-6.2-1.4-9.3-1.8c-1.7-0.4-3.5-0.5-5.2-0.9c4.5,3,9.7,4,14.4,6.3c2.7,1.1,5.3,2.8,8.1,3.8l0,0
	c0.1,0.1,0.3,0.1,0.4,0.2l0.1-0.2C246.8,68,246.8,67.8,246.8,67.5z M246,71.2c0.1,0,0.2,0,0.4-0.1c0,0,0-0.1,0-0.1
	c0.2-0.5,0.5-1.1,0.5-1.7c-2.2-0.3-4.1-1.2-6.3-2.1c-2.9-1.1-6-2-8.9-3.3l0,0c-3.4-0.9-6.7-2.5-9.7-4.5c6,5.7,13.1,11.2,20.8,11.8
	c0.5,0.1,1,0.2,1.6,0.2C244.9,71.5,245.5,71.4,246,71.2z M244.7,73c0.3-0.2,0.7-0.4,1-0.7c-6.1,0.6-12-1.9-17.3-5.6l0,0
	c-1.9-1.4-3.5-2.6-5.2-4.1c2.3,3.6,5.4,6.4,8.7,8.4c2.9,1.8,5.9,3.2,9.2,3c0.4,0.2,1-0.1,1.4-0.1l0,0C243.3,73.6,244,73.4,244.7,73z
	 M243.3,78.2C243.3,78.2,243.3,78.1,243.3,78.2C243.3,78.1,243.3,78.2,243.3,78.2z M243,78.6c0,0,0.2,0,0.2,0c0-0.2,0.1-0.3,0.1-0.5
	v0.1c0.1-0.6,0.2-1.1,0.2-1.7l0,0c0-0.5-0.1-1.1-0.2-1.5c-2.3,0.6-4.4,0-6.6-0.9c-3.1-0.3-5.7-2.5-8.2-4.7c-1.6-1.3-3.2-2.7-4.6-4.4
	C228.3,72.7,235.7,76.6,243,78.6z M238.3,83L238.3,83c0.3,0.1,0.7,0.2,1,0.3c1.4-0.8,2.6-2.1,3.4-3.7c0,0,0,0,0,0
	c-6.9-1.1-13.9-4.4-18.6-11c3.3,6.5,7.9,12.4,14,14.4l0,0C238.2,83,238.2,83,238.3,83z M227,77.5c2.3,2.8,5.1,5.1,8.1,6.3v0
	c0.3,0.1,0.7,0.2,1,0.2v0c0.7,0.1,1.4,0.1,2-0.1c-3.5-0.3-6.5-3.1-9.1-5.7c-0.2-0.2-0.5-0.4-0.5-0.7c-4-4.6-6.7-10.8-9.3-16.8
	C220.4,67.1,223.3,72.8,227,77.5z M217.9,57.4c0-0.1,0-0.1,0-0.2C217.9,57.3,217.9,57.4,217.9,57.4z M189.8,62L189.8,62
	C189.8,62,189.8,62,189.8,62C189.8,62,189.8,62,189.8,62z M117.4,110.8c-0.1,1.9-0.2,3.9-0.2,5.9c2-8.7,4.3-17.3,8.4-24.9
	c2-4.6,3.5-10,6.3-13.9c5.2-9.3,11.5-18.3,12.9-30.1c-4,15.1-12.6,26.4-19.6,39.5C121.9,94.2,117.8,102.3,117.4,110.8z M114.6,127.4
	c1.1-5.3,0.8-11,1.4-16.3c0.6-8.5,4.4-15.8,7.7-23c5.3-10.2,11.9-20,16.9-30.5l0,0c0.9-1.9,1.8-4.3,2.6-6.7
	c-2.5,6.7-6.5,11.9-10.3,17.5c-5.5,8.1-11.2,16.2-15.7,25.3C112,104.6,112.3,115.4,114.6,127.4z M162.1,108.6
	c-0.1-0.4-0.3-0.7-0.5-1c0,0,0,0,0,0c-3.5,1.9-6.3,6.1-8.1,10.2C156,114.5,159,111.2,162.1,108.6
	C162.1,108.6,162.1,108.6,162.1,108.6z M162,109.5c-2.6,2.4-5.1,5-7.4,7.9c0.4-0.2,0.9-0.7,1.4-0.9c0.6-0.3,1.1-0.7,1.7-1.1v0
	c1.7-1.5,4-3.3,4.5-6.1C162.1,109.4,162,109.4,162,109.5z M163.6,111c-0.2-0.3-0.4-0.5-0.5-0.7c-1.4,4.3-5.1,6.9-8.5,8.3
	c-0.5,0.4-0.8,0.8-1.2,1.2c3.7-1.1,7.7-3.1,10-7.1l0,0c0.2-0.4,0.3-0.9,0.4-1.3C163.7,111.2,163.6,111.1,163.6,111z M152.6,120.7
	c0.8,0.1,1.7,0.3,2.6,0.3v0c1.3-0.1,2.3-0.3,3.7-0.7l0,0c0,0,0,0,0,0v0h0l0,0c2.7-1,5.8-4.2,5.3-8.1c-2.2,5.3-7.3,7.3-11.6,8.5
	C152.5,120.7,152.6,120.7,152.6,120.7z M152.1,119.1L152.1,119.1c2.4-4.6,4.8-9.8,9-12c-0.3-0.2-0.6-0.3-0.8-0.4
	c-2.6-0.5-4.2,2.6-5.5,4.9C153.5,114,153.3,116.7,152.1,119.1C152.1,119.2,152.1,119.1,152.1,119.1z M185.7,103.3
	c-0.3-1-0.9-2-1.6-2.5c0,0,0,0,0,0c0,0,0,0,0,0c0,0,0,0,0,0c-0.5-0.3-1.1-0.7-1.7-0.8c-0.2,0-0.5,0-0.7,0
	c-5.9,0.9-9.5,8.1-10.9,14.9c2.8-6.9,8.6-12.7,15-11.5C185.7,103.4,185.7,103.3,185.7,103.3z M189.6,109.4c-0.9-1.8-2.8-2-4.3-2l0,0
	c-4,0.2-7.8,3.7-9.9,7.8c3.8-4.3,9.2-7.5,14.3-5.6L189.6,109.4z M191,113.6c0-1.1-0.4-2.2-0.9-3.1c-0.2-0.1-0.4-0.2-0.7-0.3v0
	c-6.3-1.3-12.8,3.7-16.2,10.2C178.1,115.5,184.7,110.6,191,113.6C191,113.6,191,113.6,191,113.6z M191,114.4c-4.1-2.2-9.4,1-13,3.5
	c0,0,0,0,0,0l0,0l0,0c-2.4,1.8-4.6,4.2-6.7,6.7c5.6-4.6,12.3-9.7,19-6.2C190.7,117.1,190.9,115.8,191,114.4z M193,123.4
	c0-0.7-0.2-1.2-0.5-1.8c0,0,0,0,0,0c-0.4-0.9-0.9-1.6-1.7-1.9c-0.7-0.4-1.5-0.7-2.1-1.1c-5.2-1.8-10.2,1.8-14.5,5.3
	c5.8-2,13.2-4,18.8-0.3C193,123.6,193,123.5,193,123.4z M193,124.4c-0.8-0.5-1.6-0.9-2.5-1.2v0c-1.4-0.4-2.9-0.3-4.3-0.4v0
	c-4.8,0.2-10,1.1-14.3,3.9c7.1,0,14.1-1.8,21.1-2.1L193,124.4z M193,125.5c-6.5,1-13,2.4-19.5,2.7c2.8,0.5,5.5,1.1,8.3,1
	C185.6,128.9,189.7,128.1,193,125.5z M191.4,129.5c0.4-0.5,0.8-1.2,1.1-1.8c0-0.1,0.1-0.3,0.2-0.4c0-0.3,0.1-0.6,0.2-0.8
	c0,0,0,0,0,0l0,0c-5.9,4.7-13.2,4.2-19.8,2.7C178.8,132,186,134.1,191.4,129.5z M192.3,135.6c-0.4-1.8-1.4-2.8-2.7-3.3
	c-5.7,2.8-12.2,1.8-17.7-1.3c4.6,3.9,10.4,5,15.9,4.7C189.3,135.6,190.8,135.7,192.3,135.6C192.3,135.6,192.3,135.6,192.3,135.6z
	 M192,138.3c0.3-0.7,0.5-1.3,0.5-2c-5.4,0.8-10.9,1-16-1.4c0.2,0.2,0.5,0.3,0.7,0.5l-0.1,0c3.4,2.4,7.2,3.8,11.1,3.8l0,0
	C189.4,139.1,190.8,139.1,192,138.3z M177,135.3C177.1,135.3,177.1,135.3,177,135.3C177.1,135.3,177.1,135.3,177,135.3L177,135.3z
	 M173.1,134.7c4.3,6.1,13.3,13.2,18.4,4.6c-7.4,3.3-15.2-1.9-20.9-7.6C171.4,132.6,172.3,133.7,173.1,134.7z M168.8,125.3
	c3-3.9,4.2-9.5,7-13.5c2.7-3.2,5.9-5.9,9.7-5.6c0.1-0.2,0.3-0.4,0.4-0.6c0-0.2,0-0.4,0-0.6c0,0,0-0.1,0-0.1c0-0.3,0-0.5-0.1-0.8
	c-2.7-0.5-5.4,0.5-7.7,2.2l0,0c-0.9,0.8-2,1.7-2.9,2.9l0,0C171.6,113.6,170.7,119.5,168.8,125.3
	C168.8,125.3,168.8,125.3,168.8,125.3z M166.7,146.6c1.8,0.7,3.7,1.6,5.2,2.9c-0.1-0.1-0.2-0.3-0.3-0.4c0,0,0,0,0,0
	C170.3,147.4,168.4,147,166.7,146.6C166.7,146.6,166.7,146.6,166.7,146.6z M171.6,150.4c-1-1.1-2.4-2-3.7-2.4c0,0,0,0,0,0
	c-0.8-0.2-1.6-0.2-2.3-0.5c1.9,2.5,4.4,4.6,7.2,5.2c0,0,0,0,0,0C172.5,151.8,172.1,151,171.6,150.4z M173.1,150.8
	c0.1,0.3,0.2,0.7,0.3,1.1c0.4-3.4-2.1-5.4-4.4-6v0c-1.4-0.5-2.9-0.7-4.4-0.9C167.8,145.8,171.7,146.6,173.1,150.8z M172.8,153.3
	c-2.9-0.4-5.5-2.2-7.4-4.8c1.5,2.2,3.2,4.2,5.5,5c0,0,0,0,0,0c0,0,0,0,0.1,0c0,0,0,0,0,0c0.4,0.1,0.8,0.2,1.2,0.2c0,0-0.1,0-0.1,0
	c0.1,0,0.2,0,0.3,0.1C172.5,153.6,172.7,153.5,172.8,153.3z M166.8,152.3c1.2,1,2.7,1.9,4.1,2c0,0,0,0,0,0v0c0,0,0,0,0.1,0
	c0,0,0,0,0,0c0,0,0,0,0,0c0.1,0,0.2,0,0.2,0c-0.3-0.1-0.6-0.2-0.8-0.3c0,0,0,0,0.1,0c-2.4-0.6-4.3-2.5-5.7-4.8c0,0,0,0,0,0.1
	c0,0,0,0,0,0c0.4,1,1.1,1.7,1.6,2.6C166.4,152,166.6,152.1,166.8,152.3z M106.4,205.3L106.4,205.3c0,0,0,0.1,0,0.1
	C106.4,205.3,106.4,205.3,106.4,205.3z M163.1,271.3c-0.1-12-0.2-24.4-4.7-35.3c-2.4-5.9-6.1-10.7-9.4-15.7
	c7.9,15.3,12.1,34.7,14.1,52.4C163.2,272.3,163.2,271.8,163.1,271.3z M164,299.6c-3.2-15.7-2.6-32.9-6.7-48.3l0,0
	c-2.1-9.4-4.8-18.9-8.9-27.2c-3-6.4-7-12.4-9.8-19c1.4,5.3,4,9.9,6.3,14.7c3,6.1,6,13,8.1,19.5c4.1,11.8,4.4,25.3,5.5,38.2
	c0.7,8.4,2.9,16.4,5.9,23.9C164.3,300.7,164.1,300.1,164,299.6z M170.5,321.4c-2.6-5-4.6-10.3-6.5-15.7c-2.6-6.9-5.3-13.9-6.4-21.4
	c-1.7-10.1-1.4-20.4-2.9-30.5c-1.8-11.8-6.2-22.8-11.1-33l0,0c-2.9-5.9-5.8-12.1-6.9-19c-0.1,16.2,10.4,24.6,13.6,38.7
	c1.8,11.1-0.5,21.2-0.4,32.2c0.3,9.1,1.5,18.6,4.9,26.8c2.2,4.4,5.4,7.9,8.2,11.5c2.8,3.2,5.1,7.4,7.8,11
	C170.7,321.9,170.6,321.6,170.5,321.4z M165.3,329.5c-0.1,0-0.1-0.1-0.2-0.1C165.2,329.4,165.2,329.5,165.3,329.5z M136.8,319.8
	l0.5,0c-0.1,0-0.3-0.1-0.5-0.1C136.8,319.7,136.8,319.8,136.8,319.8z M83.3,225.2c2.1-24.4,2.8-48.3,3.8-72.3
	c-0.7,2.3-1.2,4.7-1.2,7.1c-0.8,8.7-0.8,17.5-1.3,26.2c-0.7,13.1-1,26.1-1.4,39.3L83.3,225.2z M117.5,310c-3.6-2.5-6.3-5.8-9.4-9.1
	c-3.8-4-7.5-8.5-10.7-13.3c-7.8-10.8-12.7-24.5-14.2-39c-0.2,11.2,2.7,19.9,6.6,29.7C94.7,293.8,105.4,304.6,117.5,310L117.5,310z
	 M118.9,313.2c-3.2-2.2-7-3.4-10.1-5.8c-9-6.2-16.4-16.6-20.2-28.5c-2.3-6.8-5.3-13.6-5.9-21c-1-14-0.6-28.1-0.2-42.1
	c0.3-18.5,1.8-37,3-55.5c-4,13.8-2.7,29-3.9,43.3c-0.3,8-1.6,15.8-2.3,23.8c-0.4,9.3,0.3,19.2,1,28.4c1.1,17.9,6.2,31.5,16.6,43.9
	c0,0,0,0,0,0c0,0,0,0,0,0c4,5.3,9.3,9.9,15,11.4l0,0c0,0,0,0,0,0c0,0,0,0-0.1,0c2.5,0.8,5,1.6,7.5,2.5L118.9,313.2z M128.2,315.5
	c0.1,0.1,0.2,0.1,0.3,0.2c0.2,0,0.4,0.1,0.6,0.1C128.7,315.8,128.4,315.7,128.2,315.5z M92,302.4c13.6,17.4,19.1,22.3,38.6,17.8
	c-10.4-1-21.4-2.7-30.6-9.6c-3.3-2.8-5.7-6.4-8.8-9.4C91.5,301.7,91.8,302.1,92,302.4z M86.1,290.7c2.8,5.6,7.3,9.1,11,13.6
	c6.5,8.2,15.8,10.5,24.5,12.3c-6.5-2.3-13.2-3.8-18.8-8.5c-9.5-9.1-17.8-21.1-21.5-35.7c-2.8-13.2-3.2-26.8-3.8-40.5
	c0-9.7,2.1-19,2.3-28.5c0.6-5.6,0.7-11.4,0.8-17.1c0.4-6.9,1.4-13.2,2.3-20c0.6-3,1.6-5.8,2.2-8.8l0,0l0.3-1.6
	c-1,4.1-2.7,7.7-3.6,11.9c-2.2,11.6-3.2,22.5-4.7,34.5c-2.7,21-4.5,42.1,0.4,62.8l0-0.1c0,0,0,0,0,0c0,0,0,0,0,0l0,0
	C79.6,273.9,81.2,283.5,86.1,290.7z M71.1,216.5c-1.3,15.6-1.2,31.1,2.6,46.3c2.5,9.5,4.9,21.4,10.7,29.2
	c-4.3-6.5-6.1-14.5-7.8-22.8l0,0.1c0,0,0,0,0,0v0l0,0c0,0,0,0,0-0.1c0,0,0,0,0,0c0,0,0,0,0,0c-0.1-0.3-0.2-0.8-0.3-1.1c0,0,0,0,0,0
	c0,0,0,0,0,0c0,0,0,0,0,0c0,0,0,0,0,0c0,0,0-0.1,0-0.1l0,0c-3.6-15.3-4.6-30.2-3.4-46.2c1.1-9.6,2.1-19.2,3.2-28.7
	c1.2-8.7,2-17.6,3.8-26.1c1.6-6.2,3.7-12.4,5.9-18.3c-2.5,7-5.4,13.9-7.9,20.9C73.6,183.5,72,201.1,71.1,216.5z"/>
<g id="dedoColor">
	<path class="frenchDedoColor" d="M290,212.9c-0.8,3.3-1.5,6.6-2.6,9.8c-2.2,6.3-5.3,12.1-9.2,17.4c-4.2,5.7-9.6,10.4-14.7,15.3
		c-5.1,5-10.2,9.9-15.3,14.9c-6.9,6.7-13.8,13.3-20.7,20c-6.1,5.9-12.1,11.9-18.2,17.8c-4,4-8,8-12,11.9c-0.2,0.2-0.4,0.6-0.9,0.6
		c-0.2-0.4,0.1-0.5,0.3-0.7c8.9-9,17.8-18,26.6-27c7.3-7.4,14.6-14.9,21.8-22.3c5.1-5.2,10.2-10.5,15.3-15.8
		c4.9-5.2,10.1-10.3,14.4-16.1c4.8-6.7,8.3-14.1,9.7-22.3c0.1-0.4,0.2-0.8,0-1.4c-1.2,0.9-1.9,2.1-2.8,3.1
		c-4.4,5.1-8.6,10.3-13.2,15.2c-3.7,3.9-8.3,6.1-13.8,6.6c-13.9,1.2-26.2-9.5-27.7-22.9c-0.9-8.1,1.9-14.7,8.1-20
		c4.9-4.2,9.6-8.5,14.6-12.6c8.9-7.4,18-14.7,27.9-20.8c3.2-1.9,6.5-3.7,10.1-4.8c1.9-0.6,3.8-0.8,5.7-0.8c6.1,0,11.5,3,14.1,8.8
		c2.2,5,1.7,10-0.4,14.9c-0.5,1.1-0.4,2,0.1,3c2.9,6.3,6.8,12,11.8,16.8c3.4,3.3,7.3,5.6,11.7,7.4c4.8,2,9.7,3.6,14.1,6.5
		c5.5,3.8,9.3,9,12,15.1c1.4,3.3,2.4,6.8,2.3,10.5c0,1.7-0.3,3.3-0.8,4.9c-0.3,1.1-0.1,1.7,0.7,2.5c9,9,18,17.9,26.9,26.9
		c0.2,0.2,0.4,0.3,0.5,0.5c1.2,1.6,2.4,2.5,4.5,1.4c1-0.5,2.1-0.1,2.9,0.8c12.8,12.8,25.5,25.6,38.3,38.3c1.2,1.2,1.5,2.5,0.9,4.1
		c-1.3,3.4-3.5,6.1-5.9,8.7c-2.7,2.8-5.5,5.4-8.9,7.3c-0.6,0.3-1.3,0.6-2,0.9c-1.6,0.6-2.9,0.3-4.1-1c-9.5-9.6-19.2-19.2-28.8-28.8
		c-3-3-6-6-9-8.9c-1.4-1.4-1.4-2.9-0.8-4.5c0.4-0.9,0.2-1.5-0.5-2.2c-6.2-6.2-12.4-12.4-18.6-18.6c-3.5-3.5-7-7-10.4-10.5
		c-0.6-0.6-1.1-0.7-2-0.5c-6.6,2.1-12.9,1-18.9-2c-8.1-4-14.1-10.3-19.2-17.4c-4.4-6.1-7.6-12.7-10.3-19.6
		C292.2,219.8,291.2,216.4,290,212.9z M302.9,178.2c-0.9,4-1.2,7.9-0.9,12c0,0.4,0.2,0.9-0.2,1.1c-0.5,0.2-0.7-0.4-0.9-0.7
		c-3.7-6-5.5-10.8-7.7-17.5c-0.1-0.3-0.1-0.9-0.6-0.9c-0.5,0-0.5,0.5-0.6,0.9c-2.4,5.9-3.3,12.1-3.2,18.4c0.1,7.1,1.2,14,3.1,20.8
		c3.8,13.2,9.7,25.2,19,35.5c4.9,5.4,10.5,9.8,17.6,12c3.8,1.2,7.6,1.5,11.5,0.4c0.6-0.2,1.1-0.4,0.9-1.2c-0.3-1.5,0.1-2.9,0.9-4.2
		c2.1-3.8,5.2-6.7,8.9-8.8c0.6-0.3,0.9-0.7,0.9-1.4c-0.2-3-0.3-6-1.1-8.9c-0.6-2-1.2-4.1-2.6-5.8c-1.8-2.2-3.9-3.9-6.2-5.6
		c-4.3-3.2-9-5.6-14-7.5c-7.2-2.8-13-7.1-17.1-13.7c-0.4-0.7-0.7-1.4-0.8-2.2c0.3,0.2,0.4,0.4,0.5,0.6c1.6,2.6,3.5,5,5.7,7.1
		c3.7,3.5,8.3,5.3,12.9,7c5,1.9,9.9,4,14.5,6.9c5.2,3.3,9.1,7.5,10.4,13.8c0.5,2.5,1,5,1.1,7.6c0,0.5-0.1,1.3,0.6,1.3
		c0.5,0,0.5-0.7,0.5-1.2c0.6-2.7,0.3-5.5-0.4-8.1c-2.1-7.8-6.7-13.9-13.4-18.4c-3.1-2.1-6.7-3.3-10.2-4.6
		c-10.8-3.9-18.7-11.2-24-21.3C305.8,187.2,304.2,182.7,302.9,178.2z M356.4,254.5c0.1-0.1,0.2-0.2,0.2-0.2c0.4,0.4,0.8,0.7,1.2,1.1
		c4.3,4.7,9,9,13.5,13.6c2.8,2.9,5.7,5.7,8.5,8.6c1.1,1.1,2.2,2.2,3.4,3.3c1.2,1,1.7-0.4,2.4-0.8c0.8-0.5-0.1-1-0.4-1.3
		c-2.5-2.5-5-5-7.5-7.6c-7.5-7.5-15-15-22.4-22.5c-1-1-1.9-1.1-3.1-0.5c-3.4,1.8-6,4.6-8,7.8c-0.6,0.9-1.1,2.1,0,3.2
		c2.2,2.2,4.4,4.4,6.6,6.7c4.9,4.9,9.8,9.8,14.7,14.7c3.1,3.1,6.2,6.2,9.3,9.3c0.5,0.5,0.9,0.6,1.3-0.1c1.3-1.9,2.8-3.6,4.5-5.1
		c0.6-0.5,0.7-1,0.1-1.6c-1.2-1.3-2.4-2.7-3.5-4.1c-5.6-6.6-11.2-13.2-16.8-19.8C359,257.5,357.7,256,356.4,254.5z M235.4,226.8
		c0.9,7.3,14.9,9.8,20.2,9.1c10.3-1.3,23.6-20.9,30.3-28.9c2-2.4,1.3-7.3-0.2-5.4C273.4,216.6,260.8,242.4,235.4,226.8z
		 M391.4,281.5c-0.4-0.2-0.6-0.1-0.8,0c-5.5,3.2-9.8,7.5-13.1,13c-0.5,0.9-0.1,1.4,0.5,2c11.3,11.3,22.7,22.7,34,34
		c0.4,0.4,0.7,1.2,1.4,0.5c0.6-0.6-0.2-1-0.5-1.3c-2.5-2.5-5-5-7.5-7.6c-8.5-8.5-17-17-25.6-25.5c-1-1-1.2-1.8-0.4-2.9
		c0.2-0.3,0.4-0.7,0.6-1c2.1-2.8,4.3-5.5,6.9-7.7C388.4,283.7,389.8,282.6,391.4,281.5z"/>
	<path class="frenchDedoColor" d="M143.4,269.2c21.4-23.2,66.2-78.8,92.5-91.3c6-2.9,12.4-4.4,19.1-4.8c4.6-0.3-12.8,11.8-13.9,12.2
		c-7.6,2.5-15.1,7.9-20.9,13.4C192.4,224.9,132.4,281.1,143.4,269.2z"/>
	<path class="frenchDedoColor" d="M345.1,234.1c-1.8-2.6-4.1-4.6-6.8-6.1c-3.9-2.2-8.1-3.9-12.4-5.2c-9.8-2.9-16.2-9.4-19.9-18.7
		c-0.5-1.3-1-2.5-1.3-4c0.6,0.1,0.7,0.6,0.9,0.9c2.1,3.8,4.6,7.2,7.5,10.3c3.7,3.9,8.2,6.6,13.2,8.3c4.8,1.6,9.5,3.5,13.5,6.7
		C342.4,228.3,344.4,230.7,345.1,234.1z"/>
</g>
</svg>
