<?xml version="1.0" encoding="utf-8"?>
<!-- Generator: Adobe Illustrator 16.0.0, SVG Export Plug-In . SVG Version: 6.00 Build 0)  -->
<!DOCTYPE svg PUBLIC "-//W3C//DTD SVG 1.1//EN" "http://www.w3.org/Graphics/SVG/1.1/DTD/svg11.dtd">
<svg version="1.1" id="Capa_1" xmlns="http://www.w3.org/2000/svg" xmlns:xlink="http://www.w3.org/1999/xlink" x="0px" y="0px"
	 width="500px" height="500px" viewBox="0 0 500 500" style="enable-background:new 0 0 500 500;" xml:space="preserve">
<style type="text/css">
<![CDATA[
	:root {
  		--time: 1s;
	}
	.manicureFnd{fill-rule:evenodd;clip-rule:evenodd;fill:#000;opacity:0;}

	.manicureDedo{fill:none;stroke:#FFF;stroke-width:5;stroke-dashoffset:0;opacity:0;
		animation: manicureAni 1s forwards linear calc(var(--time) + 0s);
		stroke-dasharray:350px;
	}
	@keyframes manicureAni{
		0%{opacity:1;stroke-dashoffset:350px;
		}100%{opacity:1;stroke-dashoffset:0px;}}

	.manicureCirculo{fill:none;stroke:#FFF;stroke-width:2;stroke-dashoffset:0;opacity:0;
		animation: manicureAniCirculo 1s forwards linear calc(var(--time) + 1s);
		stroke-dasharray:710px;
	}
	@keyframes manicureAniCirculo{
		0%{opacity:1;stroke-dashoffset:710px;
		}100%{opacity:1;stroke-dashoffset:0px;}}	

	.manicureFlor{fill-rule:evenodd;clip-rule:evenodd;fill:#FFF;opacity:0;
		transform-origin: 80% 50%;
		transform: scale(0.1, 0.1);
		animation: manicureAniColor 1.5s forwards linear calc(var(--time) + 2s);
	}
	@keyframes manicureAniColor{
		0%{opacity:0.5;transform: scale(0.1, 0.1);
		}85%{opacity:0.5;transform: scale(1.1, 1.1);
		}100%{opacity:1;transform: scale(1, 1);}}

	.manicureFndTxt{fill-rule:evenodd;clip-rule:evenodd;fill:#FFF;opacity:0;
		transform: translateX(200%);
		animation: manicureAnifndTxt 2s forwards calc(var(--time) + 2.5s);
	}
	@keyframes manicureAnifndTxt{
		0%{opacity:1;transform: translateX(200%)
		}50%{opacity:1;transform: translateX(-10%)
		}100%{opacity:0.5;transform: translateX(0%)
	}}
	
	.manicureTxt{fill-rule:evenodd;clip-rule:evenodd;fill:#000;opacity:0;
		transform: translateX(-200%);
		animation: manicureAniTxt 1.5s forwards calc(var(--time) + 3s);
	}
	@keyframes manicureAniTxt{
		0%{opacity:1;transform: translateX(-200%)
		}75%{opacity:1;transform: translateX(10%)
		}100%{opacity:1;transform: translateX(0%)
	}}


]]>
</style>
<rect id="fnd" class="manicureFnd" width="500" height="500"/>
<path id="fndTxt" class="manicureFndTxt" d="M9.7,375h480.6c4.7,0,8.5,3.8,8.5,8.5v103c0,4.7-3.8,8.5-8.5,8.5H9.7c-4.7,0-8.5-3.8-8.5-8.5v-103
	C1.2,378.8,5,375,9.7,375"/>
<path id="txt" class="manicureTxt" d="M390.6,441.3c0,0.6,0.4,1,1.1,1h30.6c0.8,0,1.2-0.4,1.2-1.2c0-4.3-1.6-8-4.7-11.1
	c-3.2-3.1-7.1-4.6-12-4.6s-8.7,1.7-11.8,5.1C392.1,433.8,390.6,437.5,390.6,441.3 M419.7,458.5c0.9-0.6,1.5-1.2,2-1.6
	c0.5-0.4,0.8-0.6,1.1-0.4c0.3,0.1,0.6,0.4,1,0.9c0.4,0.5,0.3,1-0.4,1.5c-1.9,1.7-4.2,3.1-6.7,4.3c-2.5,1.2-5.8,1.8-9.7,1.8
	c-5.7,0-10.3-2-13.8-5.9c-3.5-3.9-5.2-9-5.2-15.1c0-6.1,1.7-11.2,5.2-15.1c3.5-3.9,8-5.9,13.7-5.9s10.2,1.8,13.8,5.3
	c3.6,3.6,5.3,7.8,5.3,12.8v1.2c0,1.6-0.8,2.4-2.4,2.4h-31.8c-0.9,0-1.3,0.4-1.2,1.2c0.3,4.7,1.9,8.6,4.8,11.8
	c2.9,3.2,6.8,4.8,11.9,4.8C412.3,462.5,416.4,461.2,419.7,458.5z M376.5,425.4c-6.8,0-12.4,2.7-17,8c-1.3,1.5-2.4,3-3.2,4.5v22.6
	c0,0.8,0.4,1.2,1.2,1.2h6.5c0.8,0,1.2,0.4,1.2,1.2s-0.4,1.2-1.2,1.2h-17c-0.8,0-1.2-0.4-1.2-1.2s0.4-1.2,1.2-1.2h5.7
	c0.8,0,1.2-0.4,1.2-1.2v-33.1c0-0.8-0.4-1.2-1.2-1.2H347c-0.8,0-1.2-0.4-1.2-1.2c0-0.8,0.4-1.2,1.2-1.2h8.1c0.8,0,1.2,0.4,1.2,1.2
	v6.4c0,1.3,0.6,1.4,1.7,0.1c2-2.3,4.6-4.2,7.8-5.9c3.2-1.7,6.8-2.5,10.7-2.5h4c0.8,0,1.2,0.4,1.2,1.2v10.1c0,0.8-0.4,1.2-1.2,1.2
	c-0.8,0-1.2-0.4-1.2-1.2v-7.7c0-0.8-0.4-1.2-1.2-1.2H376.5z M292.5,423.7h8.1c0.8,0,1.2,0.4,1.2,1.2v23.8c0,4.6,1.2,8,3.6,10.3
	c2.4,2.3,5.6,3.4,9.7,3.4c4.1,0,7.9-1.8,11.5-5.4c1.6-1.7,3-3.5,4.3-5.5v-24.2c0-0.8-0.4-1.2-1.2-1.2H324c-0.8,0-1.2-0.4-1.2-1.2
	c0-0.8,0.4-1.2,1.2-1.2h8.1c0.8,0,1.2,0.4,1.2,1.2v35.5c0,0.8,0.4,1.2,1.2,1.2h5.7c0.8,0,1.2,0.4,1.2,1.2s-0.4,1.2-1.2,1.2h-8.1
	c-0.8,0-1.2-0.4-1.2-1.2v-4.5c0-0.5-0.1-0.9-0.3-1.1c-0.2-0.2-0.5-0.1-1,0.3c-4.4,4.9-9.1,7.3-14.2,7.3c-5.1,0-9.1-1.4-11.8-4.2
	c-2.8-2.8-4.2-6.8-4.2-12v-21.4c0-0.8-0.4-1.2-1.2-1.2h-5.7c-0.8,0-1.2-0.4-1.2-1.2C291.3,424.1,291.7,423.7,292.5,423.7z
	 M283.3,433.8c-4.4-5.7-9.5-8.5-15.3-8.5c-4.4,0-8,1.7-11,5.2c-2.9,3.5-4.4,8-4.4,13.6c0,5.5,1.5,10,4.6,13.4c3.1,3.4,7.1,5,12.1,5
	c5,0,9.1-1.3,12.4-4c0.9-0.6,1.5-1.2,2-1.6c0.5-0.4,0.9-0.6,1.1-0.4c0.3,0.1,0.5,0.4,0.8,0.7c0.3,0.3,0.4,0.6,0.4,0.8
	c0,0.2-0.2,0.6-0.7,1.1c-1.8,1.6-3.9,2.9-6.5,4.1c-2.6,1.2-5.8,1.8-9.7,1.8c-5.7,0-10.3-2-13.8-5.9c-3.5-3.9-5.2-9-5.2-15.1
	c0-6.2,1.7-11.2,5.1-15.1c3.4-3.9,7.7-5.9,12.9-5.9c5.2,0,9.8,2,13.9,6.1c0.9,0.8,1.3,0.5,1.3-0.8V425c0-0.8,0.4-1.2,1.2-1.2
	c0.8,0,1.2,0.4,1.2,1.2v12.9c0,0.8-0.4,1.2-1.2,1.2c-0.8,0-1.2-0.4-1.2-1.2V433.8z M233,416.3c-0.6-0.6-0.9-1.4-0.9-2.3
	c0-0.9,0.3-1.7,0.9-2.3c0.6-0.6,1.4-0.9,2.3-0.9c0.9,0,1.7,0.3,2.3,0.9c0.6,0.6,0.9,1.4,0.9,2.3c0,0.9-0.3,1.7-0.9,2.3
	c-0.6,0.6-1.4,0.9-2.3,0.9C234.4,417.3,233.6,417,233,416.3z M227.6,464.1c-0.8,0-1.2-0.4-1.2-1.2s0.4-1.2,1.2-1.2h5.7
	c0.8,0,1.2-0.4,1.2-1.2v-33.1c0-0.8-0.4-1.2-1.2-1.2h-5.7c-0.8,0-1.2-0.4-1.2-1.2c0-0.8,0.4-1.2,1.2-1.2h8.1c0.8,0,1.2,0.4,1.2,1.2
	v35.5c0,0.8,0.4,1.2,1.2,1.2h5.7c0.8,0,1.2,0.4,1.2,1.2s-0.4,1.2-1.2,1.2H227.6z M173.6,461.7h5.7c0.8,0,1.2-0.4,1.2-1.2v-33.1
	c0-0.8-0.4-1.2-1.2-1.2h-5.7c-0.8,0-1.2-0.4-1.2-1.2c0-0.8,0.4-1.2,1.2-1.2h8.1c0.8,0,1.2,0.4,1.2,1.2v4.5c0,0.5,0.1,0.9,0.3,1.1
	c0.2,0.2,0.5,0.1,1-0.3c4.4-4.9,9.1-7.4,14.2-7.4c5.1,0,9.1,1.4,11.8,4.2c2.8,2.8,4.2,6.8,4.2,12v21.4c0,0.8,0.4,1.2,1.2,1.2h5.7
	c0.8,0,1.2,0.4,1.2,1.2s-0.4,1.2-1.2,1.2h-15.3c-0.8,0-1.2-0.4-1.2-1.2s0.4-1.2,1.2-1.2h4.8c0.8,0,1.2-0.4,1.2-1.2v-21.4
	c0-4.6-1.2-8-3.6-10.3c-2.4-2.3-5.6-3.4-9.7-3.4c-4.1,0-8,1.8-11.6,5.5c-1.6,1.6-3,3.4-4.2,5.4v24.2c0,0.8,0.4,1.2,1.2,1.2h4.8
	c0.8,0,1.2,0.4,1.2,1.2s-0.4,1.2-1.2,1.2h-15.3c-0.8,0-1.2-0.4-1.2-1.2S172.8,461.7,173.6,461.7z M144.7,422.9
	c4.5,0,8.2,1.3,10.9,3.8c2.7,2.6,4.1,5.7,4.1,9.5v24.2c0,0.8,0.4,1.2,1.2,1.2h5.7c0.8,0,1.2,0.4,1.2,1.2s-0.4,1.2-1.2,1.2h-8.1
	c-0.8,0-1.2-0.4-1.2-1.2v-4.5c0-0.5-0.1-0.9-0.3-1.1c-0.2-0.2-0.5-0.1-1,0.3c-1.5,1.8-3.5,3.5-6.1,5c-2.6,1.5-5.3,2.3-8.1,2.3
	c-5,0-8.8-1.1-11.4-3.4c-2.6-2.2-3.9-5.1-3.9-8.7c0-3.6,1.5-6.5,4.4-8.8c3-2.3,6.9-3.4,11.7-3.4h13.3c0.8,0,1.2-0.4,1.2-1.2v-3.2
	c0-3.1-1.2-5.7-3.6-7.8c-2.4-2.1-5.3-3.1-8.7-3.1s-6.3,0.5-8.5,1.4c-2.2,0.9-3.8,1.8-4.6,2.5c-0.9,0.7-1.6,0.7-2,0.1
	c-0.5-0.6-0.4-1.2,0.2-1.6C133.9,424.5,138.8,422.9,144.7,422.9z M157.3,444.3c0-0.8-0.4-1.2-1.2-1.2h-13.3c-4.7,0-8.1,0.9-10.4,2.7
	c-2.2,1.8-3.4,4.2-3.4,7c0,2.8,1,5.1,3.1,7c2.1,1.8,5.2,2.7,9.4,2.7c5.2,0,9.8-2.6,13.8-7.9c0.7-0.9,1.3-1.9,1.9-3V444.3z
	 M50.7,461.7h5.7c0.8,0,1.2-0.4,1.2-1.2v-49.3c0-0.8-0.4-1.2-1.2-1.2h-5.7c-0.8,0-1.2-0.4-1.2-1.2c0-0.8,0.4-1.2,1.2-1.2h8.9
	c1,0,1.6,0.4,2,1.2l22.6,50.1c0.5,1.1,1.1,1.1,1.6,0l22.6-50.1c0.4-0.8,1-1.2,2-1.2h8.9c0.8,0,1.2,0.4,1.2,1.2
	c0,0.8-0.4,1.2-1.2,1.2h-5.7c-0.8,0-1.2,0.4-1.2,1.2v49.3c0,0.8,0.4,1.2,1.2,1.2h5.7c0.8,0,1.2,0.4,1.2,1.2s-0.4,1.2-1.2,1.2H104
	c-0.8,0-1.2-0.4-1.2-1.2s0.4-1.2,1.2-1.2h4.8c0.8,0,1.2-0.4,1.2-1.2v-47.3c0-0.5-0.1-0.8-0.3-0.6c-0.1,0-0.2,0.1-0.3,0.2l-22.6,50.1
	c-0.4,0.8-1,1.2-1.8,1.2c-0.8,0-1.3-0.4-1.8-1.2l-22.6-50.1c-0.2-0.3-0.4-0.4-0.5-0.2c-0.1,0.2-0.2,0.4-0.2,0.6v47.3
	c0,0.8,0.4,1.2,1.2,1.2h4.8c0.8,0,1.2,0.4,1.2,1.2s-0.4,1.2-1.2,1.2H50.7c-0.8,0-1.2-0.4-1.2-1.2S49.9,461.7,50.7,461.7z"/>
<path class="manicureDedo" d="M115.8,98.9L257,238.7c-8.3,9.8-25.2,12.9-37,4.9l-11.1-11.4l-33.7-34.7c-9.2-14.4-5-25.7,3.8-36"/>
<path class="manicureDedo" d="M117.3,191.1l33.9,34.3c19.6,16.5,38.5,15.2,57.9,6.4"/>
<path class="manicureDedo" d="M214.8,196.4c15.5,6.7,30.9,9.2,46,6"/>
<path class="manicureDedo" d="M235.1,216.4c16-0.8,23.1-6.3,25.8-14"/>
<polyline class="manicureDedo" points="321.8,116.7 280,149.7 316.8,185.3 323.9,176.7 "/>
<line class="manicureDedo" x1="298.4" y1="167.5" x2="260.8" y2="202.4"/>
<line class="manicureDedo" x1="190.5" y1="202.1" x2="206.3" y2="217.8"/>
<line class="manicureDedo" x1="210.5" y1="222.1" x2="214.2" y2="225.4"/>
<path id="flor" class="manicureFlor" d="M402.7,152.8c-0.8-17,7-32.7,14.5-47.3l-0.8,5.2v0l0,0l-0.2,1.7v0h0c-3.2,22-6.3,44-10.9,65.7
	l-0.1-1.1v0c-0.1-0.7-0.1-1.4-0.2-2.2h0v-0.2l-0.2-2.2h0v-0.1l-0.2-2.1h0v-0.1l-0.2-2.1h0V168l-0.2-2.1l0,0v0
	C403.4,161.5,403,157.2,402.7,152.8 M397.8,195.8c0.6-3.5,2.6-6.4,4.6-9.2c-0.7,1.7-1.5,3.3-2.2,5v0h0c-0.3,0.7-0.6,1.4-0.9,2.1v0h0
	c-0.5,1.1-1,2.3-1.5,3.4C397.7,196.7,397.7,196.2,397.8,195.8z M397.7,201.7c0.2-0.4,0.5-0.8,0.7-1.2v0h0l0.2-0.4V200h0l0.2-0.4
	v-0.1h0.1l0.2-0.3V199h0.1c0.3-0.6,0.6-1.1,0.9-1.7v0h0l0.2-0.5v0h0l0.2-0.5v0l0,0c0.4-0.8,0.8-1.7,1.2-2.5v-0.1h0l0.2-0.4v0h0
	c0.2-0.4,0.3-0.7,0.5-1.1v-0.1h0.1l0.2-0.4v0h0c0.2-0.4,0.3-0.7,0.5-1.1v-0.1h0c0.4-1,0.8-2,1.2-3.1v-0.1h0l0.2-0.6v-0.1h0l0.2-0.6
	v-0.1h0l0.2-0.6v-0.2h0.1l0.2-0.6v-0.2h0.1c0.4-1.2,0.8-2.5,1.1-3.7v-0.1h0c0.2-0.5,0.3-1.1,0.4-1.6v-0.1h0l0.2-0.8v-0.2h0
	c0.4-1.6,0.8-3.1,1.2-4.7v-0.1h0c0.2-0.7,0.3-1.4,0.5-2.1v-0.1h0l0.2-1.1v-0.1h0c0.2-0.8,0.3-1.5,0.5-2.3v-0.1h0
	c0.2-0.8,0.3-1.7,0.5-2.5v-0.1h0c0.3-1.9,0.7-3.8,0.9-5.7v0h0l0.2-1.6v-0.1h0c0.2-1.7,0.5-3.4,0.7-5v0c0.2-1.6,0.4-3.2,0.6-4.8
	c1-8.5,2.6-16.9,3.9-25.4V122h0l0.2-1.4v0h0l0.2-1.6v-0.1h0l0.2-1.5v-0.1h0c0.2-1.1,0.3-2.3,0.5-3.4v-0.2h0c0.1-0.6,0.1-1.2,0.2-1.7
	v-0.4h0c0.1-0.6,0.1-1.1,0.2-1.7V109h0.1c0.1-0.6,0.1-1.1,0.2-1.7v-0.4h0c0.1-0.6,0.1-1.2,0.2-1.8c0.2,2.2,0.3,4.4,0.5,6.6h0v0.1
	c0.1,0.6,0.1,1.2,0.2,1.8h0.1v0.6c0.1,0.5,0.1,1,0.2,1.6h0v0.1l0.1,0.6c0,0.2,0.1,0.4,0.1,0.7c0,0,0,0,0,0c0.1,1.1,0.1,2.3,0.2,3.4
	h0v0.5c0.1,1.7,0.3,3.3,0.5,5h0v0.1c0.1,0.7,0.1,1.4,0.2,2h0v0.1l0.2,2h0v0c1.7,14.2,3.8,28.5-0.8,42.3c-3.7,9.4-9.8,18.1-16.9,25.3
	c-0.3,0.2-0.7,0.5-1,0.7c0,0,0,0,0.1-0.1c-1.8,1.2-3.4,2.4-5.2,3.5C397.5,202,397.6,201.8,397.7,201.7z M391.4,103.8
	c-0.1-0.5-0.3-1-0.5-1.6l0,0v0l-0.2-0.5h-0.1v-0.2l-0.2-0.5h-0.1V101l-0.2-0.6h0v0c-0.2-0.6-0.5-1.1-0.7-1.7h0v0l-0.2-0.5h0v-0.1
	c-1.6-3.4-3.4-6.8-4.4-10.4c-0.5-3.4-0.9-6.9-1.4-10.4h0v-0.1c-0.1-1-0.3-2-0.5-3h0v0c-0.1-0.4-0.1-0.8-0.2-1.2h0v-0.1
	c-0.2-1.1-0.4-2.2-0.7-3.2h0v-0.1l-0.2-0.8h0v-0.1c-0.1-0.3-0.1-0.6-0.2-0.8h0v-0.1c-0.4-1.4-0.9-2.9-1.4-4.3h0v0
	c-0.2-0.4-0.3-0.8-0.5-1.2l0,0v0l-0.2-0.5h0v-0.1l-0.2-0.4h-0.1v-0.1l-0.2-0.4H379v-0.1l-0.2-0.4h-0.1v-0.1l-0.2-0.4h-0.1v-0.1
	c-0.2-0.3-0.3-0.6-0.5-0.9l0,0l0,0c-0.1-0.2-0.3-0.5-0.4-0.7h-0.1V58c-0.6-0.9-1.2-1.8-1.8-2.7c4.5,4.4,6.6,10.4,9.5,15.9
	c1.3,2.6,2.5,5.4,3.1,8.3c0-0.1,0-0.2-0.1-0.3c1.4,5.9,1.8,12,2.5,18h0v0c0.1,1.3,0.3,2.5,0.5,3.8h0v0.2c0.1,0.5,0.1,1,0.2,1.5h0
	v0.2c0.1,0.5,0.1,1,0.2,1.4C391.6,104.2,391.5,104,391.4,103.8z M393.3,101.6c-0.4-2.2-0.5-4.4-0.7-6.5h0V95c0-0.4-0.1-0.9-0.1-1.3
	c-0.3-2.1-0.5-4.3-0.8-6.5h0V87c-0.1-0.5-0.1-1-0.2-1.6h0v-0.1c-0.1-0.4-0.1-0.9-0.2-1.3h0v-0.2c-0.1-0.8-0.3-1.6-0.4-2.4h0v-0.2
	l-0.2-0.8h-0.1v-0.3c-0.1-0.3-0.1-0.6-0.2-0.9h0v-0.1c-0.1-0.3-0.1-0.6-0.2-0.8h0v-0.1c-0.2-0.8-0.5-1.6-0.7-2.3h0v0l-0.2-0.5h-0.1
	v-0.2c-0.1-0.2-0.1-0.3-0.2-0.5h0v-0.1l-0.1-0.4h-0.1V74l-0.1-0.2h-0.1v-0.3l-0.2-0.4h-0.1v-0.1l-0.2-0.3h-0.1v-0.2
	c-0.2-0.3-0.3-0.7-0.5-1c0,0,0,0,0,0c-0.3-0.7-0.7-1.3-1-2c0,0,0,0,0,0.1c0-0.1-0.1-0.1-0.1-0.2c-1.6-2.8-3-5.7-4.6-8.5h0v0
	c-0.6-1-1.2-1.9-1.9-2.9h0v0l-0.2-0.2h-0.1v-0.1c-0.3-0.4-0.6-0.8-0.9-1.1h0v0c-0.1-0.1-0.2-0.3-0.4-0.4c0,0,0,0,0.1,0.1
	c0,0-0.1-0.1-0.1-0.1c0,0,0,0,0,0c-0.2-0.2-0.4-0.4-0.5-0.6c0,0,0.1,0.1,0.1,0.1c-0.7-0.7-1.3-1.5-2-2.2c0,0,0,0,0,0
	c0,0-0.1-0.1-0.1-0.1c0,0,0,0,0,0c-0.8-1-1.8-1.8-2.7-2.8c0,0,0,0,0.1,0.1c0,0-0.1-0.1-0.1-0.1c0,0,0,0,0,0l-0.2-0.2h0v0l-0.2-0.2
	h-0.1v-0.1l-0.1-0.2h-0.1v-0.1l-0.1-0.1H372v-0.1l-0.1-0.1h-0.1v-0.1l-0.1-0.1h-0.1v-0.1l-0.1-0.1h-0.1v-0.1
	c-1.3-1.2-2.7-2.2-4.1-3.2c1.5,0.9,2.9,2,4.3,3.1h0v0c0.4,0.3,0.8,0.6,1.2,0.8c0,0-0.1,0-0.1,0c0.6,0.4,1.2,0.8,1.8,1.2
	c11.7,6.9,15.2,20.3,18.3,32.7c0-0.1,0-0.2-0.1-0.3C394,89,393.6,95.4,393.3,101.6z M386.6,141.1c-0.1,0-0.1-0.1-0.2-0.1
	C386.5,141,386.6,141.1,386.6,141.1C386.7,141.1,386.7,141.1,386.6,141.1C386.7,141.1,386.7,141.2,386.6,141.1
	C386.7,141.1,386.6,141.1,386.6,141.1z M387.7,141.8c-14.5-9.4-26.5-25.4-23.8-43.5c0.1-1.9,0-3.8-0.2-5.6h0v-0.6
	c-0.2-2.5-0.5-4.9-0.6-7.4c0.5,1.2,1.2,2.3,1.7,3.5c0-0.1,0-0.1-0.1-0.2c0.2,0.6,0.5,1.2,0.8,1.7c0,0,0,0,0-0.1
	c0.4,0.9,0.9,1.9,1.3,2.8h0v0l0.2,0.5h0v0c2.1,4.2,4.2,8.3,4.4,13c0,0,0,0,0,0c0,0.5,0.1,0.9,0.1,1.4h0.1v0.6
	c0.1,0.5,0.1,0.9,0.2,1.4h0.1v0.4c0.1,0.8,0.3,1.6,0.4,2.4h0v0.2c0.1,0.3,0.1,0.5,0.2,0.8h0.1v0.2l0.2,0.7h0.1v0.2
	c0.1,0.6,0.3,1.1,0.5,1.7l0,0v0l0.2,0.7h0v0.1l0.2,0.7h0v0.1l0.2,0.7h0v0c0.2,0.6,0.5,1.3,0.7,1.9h0v0c0.2,0.4,0.3,0.8,0.5,1.2l0,0
	v0l0.2,0.5h0v0.1c0.3,0.7,0.6,1.4,1,2.1h0v0l0.2,0.5h0v0c0.2,0.5,0.5,0.9,0.7,1.4h0v0c0.4,0.7,0.8,1.4,1.2,2.2h0v0.1l0.2,0.4l0,0v0
	c0.5,0.8,0.9,1.6,1.4,2.4h0v0c0.7,1.1,1.4,2.2,2.2,3.3h0v0l0.5,0.7h0v0c0.9,1.4,1.9,2.7,2.9,4.1h0v0c0.7,1,1.4,2,2.2,2.9
	C387.8,141.9,387.7,141.8,387.7,141.8z M373.1,105.8c0-0.3,0-0.6-0.1-0.9H373v-0.5c-0.1-0.4-0.1-0.8-0.2-1.2h0V103
	c-0.1-0.7-0.3-1.3-0.5-1.9l0,0v0c-0.1-0.2-0.1-0.5-0.2-0.7h0v-0.1c-0.1-0.2-0.1-0.4-0.2-0.7h0v-0.1c-0.3-0.8-0.6-1.6-0.9-2.3h0v-0.1
	c-2.6-5.8-6.6-11.2-8.4-17.2c0.7,1.2,1.5,2.4,2.3,3.6h0v0c3.8,5.4,8.2,10.6,10.3,16.9c1.6,5.9,3,11.8,4.8,17.6h0v0
	c0.8,2.7,1.7,5.3,2.6,7.9h0v0c0.2,0.6,0.5,1.3,0.7,1.9h0v0c0.2,0.4,0.3,0.8,0.5,1.2h0v0c0.2,0.4,0.3,0.8,0.5,1.2h0v0
	c0.2,0.6,0.5,1.1,0.7,1.7h0l0,0c0.9,2.1,2,4.2,3.1,6.2h0v0.1l0.2,0.4h0v0c0.7,1.2,1.4,2.4,2.1,3.5
	C382.5,131.3,374.6,119.7,373.1,105.8z M354.2,146.5C354.2,146.5,354.2,146.5,354.2,146.5C354.2,146.5,354.2,146.5,354.2,146.5
	C354.2,146.5,354.2,146.5,354.2,146.5z M367,209.4c-0.2-0.4-0.5-0.7-0.7-1.1h0v0c-0.5-0.6-0.9-1.3-1.4-1.9h0v0
	c-4.2-5.1-9.7-9.2-12.2-15.7c-2.1-4.5-1.6-9.5-1.4-14.3c-0.3-10,1.2-19.9,2.9-29.7c0,0,0,0,0,0c0,0,0,0,0,0c0,0,0,0,0,0
	c0.2-2,0.5-4.1,1-6.1c0,0.5,0,1.1,0,1.6h0v1c0,0.9,0.1,1.9,0.2,2.8h0.1v0.9c0.1,1.5,0.3,2.9,0.4,4.4h0v0.4c0.1,0.5,0.1,1,0.2,1.5h0
	v0.3c0.1,0.5,0.1,0.9,0.2,1.4h0.1v0.3l0.2,1.3h0v0.2c0.2,1.4,0.5,2.7,0.7,4.1h0v0.1l0.2,1.1h0v0.2l0.2,1.2h0v0l0.2,1.2h0v0l0.2,1.2
	h0v0c0.2,1.1,0.5,2.2,0.7,3.4h0v0c0.2,0.7,0.3,1.4,0.5,2.1h0v0c0.5,2.1,1,4.1,1.4,6.2l0,0v0c2.5,10.7,5.2,21.4,6.4,32.4
	C367.3,210,367.1,209.7,367,209.4z M367.4,189.7c0,0.1,0,0.1,0,0.2C367.4,189.9,367.4,189.8,367.4,189.7c-0.1,1.4-0.2,2.7-0.3,4.1
	c0,0,0,0,0,0c0,0,0,0,0,0c-0.5-1.8-0.9-3.7-1.3-5.5c-0.2-0.9-0.4-1.8-0.7-2.7h0v0l-0.2-0.9h0v0c-1.9-7.3-3.9-14.6-5.3-22
	c0,0.1,0,0.2,0.1,0.2c-1.4-6.3-2.4-12.7-2.7-19.1c0.1,0.4,0.3,0.7,0.4,1.1h0.1v0.2c0.8,1.9,2,3.6,2.9,5.4c0,0,0,0,0-0.1
	c0,0,0,0.1,0.1,0.1c4.4,7.2,6.3,15.3,5.9,23.7C366.7,179.3,368.1,184.5,367.4,189.7z M345.5,270.6L345.5,270.6L345.5,270.6
	L345.5,270.6z M345.3,272.7c-0.1,0.1-0.1,0.3-0.2,0.4c0,0,0,0,0-0.1c-0.6,1.1-1.1,2.4-2.3,3c0.4-1.1,1.2-2,2-2.9c0,0,0,0,0,0
	C345,273,345.2,272.9,345.3,272.7z M342.7,274.7c0.6-1.2,1.7-2.2,2.4-3.4c0,0.3-0.1,0.6-0.2,0.9c0,0,0,0,0,0c0,0.1-0.1,0.2,0,0.3
	c0,0,0,0.1-0.1,0.1c0,0,0,0,0,0c-0.9,1-2,2.1-2.3,3.5C342.4,275.6,342.4,275.2,342.7,274.7z M351,257.2
	C351,257.2,351.1,257.2,351,257.2C351.1,257.2,351.1,257.2,351,257.2C351.1,257.2,351.1,257.2,351,257.2
	C351.1,257.2,351.1,257.2,351,257.2c0.1,0,0.2,0,0.2-0.1c0,0,0,0,0,0c0,0,0.1,0,0.1,0c-0.2,0.2-0.4,0.5-0.6,0.7
	c-1.7,2.6-4.7,4.1-7.7,4.2C345.7,260.4,347.8,257.9,351,257.2z M347.3,250.7C347.3,250.7,347.3,250.8,347.3,250.7
	C347.3,250.7,347.3,250.7,347.3,250.7C347.3,250.7,347.3,250.7,347.3,250.7c0-0.1,0-0.2,0-0.2c0,0,0,0.1,0,0.1c0,0,0-0.1,0-0.1
	c0.5,2.2,0.6,4.9-0.4,7c0,0.1-0.1,0.1-0.1,0.2c-0.6,0.7-1.4,1.3-2.2,1.9c0.4-0.6,0.7-1.2,1.1-1.8l0.1-0.1l0,0l0,0
	c0.1-0.2,0.2-0.3,0.2-0.5v0h0c0.3-0.7,0.5-1.4,0.7-2.1v0h0C347.1,253.6,347.2,252.1,347.3,250.7z M344.2,254.5
	c0.7-1.2,1.5-2.4,2.3-3.5c-0.1,4.1-1.9,8.5-5.3,10.9C341.2,259.1,342.8,256.7,344.2,254.5z M340.4,261.8c-0.1-0.1-0.1-0.3-0.2-0.4
	c0-0.1-0.1-0.2-0.1-0.2c0,0,0,0,0,0c-1.5-3.9,1.7-7.4,2.1-11.2v-0.1h0c0-0.1,0-0.3,0-0.4c0,0.1,0.1,0.2,0.2,0.3c0,0,0,0,0,0
	c0.9,1.5,0.6,3.3,0.3,4.9c0,0,0,0,0,0c-0.1,0.4-0.1,0.7-0.1,1.1c-0.7,1.2-1.4,2.5-1.8,3.9v0.4h-0.1c-0.1,0.2-0.1,0.4-0.1,0.6v0.6
	h-0.1C340.5,261.4,340.4,261.6,340.4,261.8z M355.5,214.1L355.5,214.1z M353.7,215.7c0.4-0.3,0.9-0.7,1.3-1
	c-0.1,0.8-0.5,1.6-0.9,2.3c0,0,0,0,0-0.1c-1.1,2.4-3.2,3.9-5.3,5.3c0.5-0.8,0.8-1.6,1.2-2.4c0,0,0,0,0,0c0.2-0.3,0.3-0.6,0.5-0.9
	c0,0,0,0,0,0c0,0,0-0.1,0-0.1c0,0,0,0,0,0C351.3,217.5,352.5,216.5,353.7,215.7z M348.8,218.8c0-0.2,0.1-0.3,0.1-0.5
	c0.6-1.9,2.8-2.7,4.2-4c-0.1,0.3-0.2,0.6-0.3,0.9c0,0,0,0,0-0.1c0,0.2-0.2,0.3-0.2,0.5c-0.3,0.2-0.5,0.4-0.8,0.6v0h0
	c-0.1,0.1-0.1,0.1-0.2,0.2v0h0c-0.4,0.4-0.8,0.9-1.2,1.4v0.1h0c-0.2,0.2-0.3,0.5-0.4,0.7v0h0c-0.4,0.6-0.7,1.3-0.9,1.9v0h0
	c-0.2,0.4-0.3,0.8-0.5,1.3c0,0,0,0,0-0.1c0,0,0,0.1-0.1,0.1C348.5,220.9,348.6,219.9,348.8,218.8
	C348.8,218.8,348.8,218.8,348.8,218.8z M344.5,214.5c0,0.8-0.1,1.5-0.1,2.3c0.1,0.9-0.5,1.6-1,2.2
	C343.1,217.4,343.7,215.8,344.5,214.5z M342.9,218.9c-0.3-0.5-0.4-1-0.4-1.5c0-0.7,0.3-1.4,0.8-2
	C342.8,216.5,342.7,217.7,342.9,218.9z M341.3,201.9C341.3,201.9,341.3,201.9,341.3,201.9C341.3,201.9,341.3,201.9,341.3,201.9
	l0.3-0.3v0h0l0.2-0.2v0h0l0.2-0.2v0h0c0.7-0.7,1.3-1.6,1.9-2.4v0h0c0.4-0.5,0.8-1.1,1.1-1.6c-1,3.1-2.1,6.8-5.7,7.4
	C339.9,203.7,340.5,202.7,341.3,201.9C341.2,202,341.2,202,341.3,201.9C341.2,202,341.2,201.9,341.3,201.9z M339.8,191.4
	c1,4.1,2.2,8.8-1.2,12.1c-0.1,0.1-0.2,0.2-0.2,0.2c0-1.3,0-2.5-0.2-3.8h0v-0.2c-0.1-0.5-0.2-1-0.3-1.5c0-0.3-0.1-0.5-0.1-0.8
	c0,0,0,0,0,0c0,0,0,0,0-0.1c-0.3-2.1,1-3.7,1.8-5.5v-0.1h0C339.7,191.7,339.8,191.5,339.8,191.4z M336.6,204.7
	c-4.5-1.6-7-1.1-8.9-6.3c3.2,0.5,5.6,2.5,7.8,4.8c0,0,0,0-0.1-0.1c0.2,0.2,0.4,0.3,0.5,0.5c0,0,0,0-0.1-0.1c0.4,0.4,0.8,0.8,1,1.3
	C336.8,204.8,336.7,204.7,336.6,204.7z M333.6,200.3c-1.3-1.2-2.1-2.8-3.2-4.2c-0.6-0.9-0.8-1.9-0.6-2.9c0,0,0,0,0,0.1
	c0,0,0-0.1,0-0.1c0,0,0,0,0,0c0-0.1,0.1-0.3,0.1-0.4c0.1,0.1,0.2,0.2,0.3,0.2c0,0,0,0,0,0c0.3,0.2,0.6,0.4,0.9,0.5c0,0-0.1,0-0.1,0
	c0.6,0.3,1.1,0.6,1.6,1.1c0,0-0.1,0-0.1-0.1c1.6,1.3,3.4,2.5,3.9,4.5c0.1,0.2,0.1,0.4,0.2,0.6c0.5,1.1,0.7,2.3,1,3.5h0v0
	c0.1,0.3,0.1,0.6,0.2,0.9h0v0c0,0.1,0.1,0.2,0.1,0.3c0,0-0.1,0.1-0.1,0.1h0h0c-0.1,0-0.2,0-0.2,0.1c-0.2-0.6-0.6-1.1-0.9-1.5h0v0
	C335.6,202.1,334.5,201.3,333.6,200.3z M328.4,213.2c-0.1-1,0-2.1,0.3-3c0,1.3-0.3,2.7,0.1,4C328.6,213.9,328.5,213.6,328.4,213.2z
	 M329,213c0-1.3,0.1-2.5,0.2-3.8c0,0.1,0.1,0.2,0.1,0.3c0.2,0.4,0.4,0.7,0.5,1.1c0,0,0,0,0-0.1c0.5,1.4,0.6,2.9-0.3,4.1
	C329.1,214.2,329,213.6,329,213z M323.3,243.4c0.2,0.4,0.2,0.9,0.2,1.3c0,0,0,0,0,0c0,0,0,0,0,0c0,0,0,0,0,0
	c-0.1,0.5-0.3,1.1-0.7,1.3c0.6-0.9,0.6-2,0.4-3.1C323.2,243.1,323.3,243.3,323.3,243.4z M322.1,244.6c0.1-0.7,0.3-1.5,0.5-2.2
	c0.1,1.1,0.6,2.4-0.3,3.3C322.1,245.4,322.1,245,322.1,244.6z M310.1,234.3c-0.4-1.1-1-2.2-1.4-3.3c0.7,0,1.4,0.4,1.9,0.8
	c0,0,0,0,0,0c0.2,0.2,0.5,0.4,0.7,0.6h0v0c0.1,0,0.2,0.1,0.2,0.1c0,0,0,0,0,0c0,0,0,0,0,0c0,0,0,0,0,0c3,2.1,4,5.9,4.7,9.3
	C312.7,241,311.3,237.2,310.1,234.3z M315.9,242.3c-0.3-0.1-0.6-0.1-0.9-0.2c0,0,0,0,0,0c0,0,0,0-0.1,0c-0.2,0-0.3-0.1-0.5-0.1h0
	c-0.3-0.1-0.6-0.3-0.9-0.3c0,0,0.1,0,0.1,0c-2.7-0.4-5.3-1.7-6.5-4.4c0,0,0-0.1,0-0.1c0,0,0,0,0,0c-0.7-1.2-1.2-2.5-2.3-3.4
	c0.4,0,0.8,0,1.2,0.1c0,0,0,0,0,0c0.8,0.4,1.3,1.2,2.1,1.6c0.9,0.5,1.9,0.9,2.3,1.9v0c0,0,0,0,0,0c0.4,0.5,0.8,1.1,1.2,1.7h0v0
	c0.9,1.2,1.8,2.4,3.3,2.8c0,0,0,0,0,0c0.4,0.1,0.8,0.2,1.2,0.3c0,0,0,0.1,0,0.1C316.2,242.3,316.1,242.3,315.9,242.3z M321.8,234.1
	c0.1-0.2,0.1-0.4,0.3-0.6c0.6-0.8,1.4-1.4,2-2.3c-0.1,1.8,0.2,3.6-0.7,5.2c-0.7,2.7-2.5,4.9-5.4,5.5c0,0,0,0,0,0
	c-0.1,0-0.2,0.1-0.4,0.1c0.2-0.3,0.4-0.6,0.7-0.8c0,0,0,0,0,0c0,0,0,0,0.1-0.1c0.4-0.4,0.8-0.9,1.1-1.3v0h0c0.2-0.2,0.3-0.5,0.5-0.7
	v0h0c0.8-1.2,1.4-2.5,1.7-3.9V235h0C321.7,234.7,321.7,234.4,321.8,234.1z M320.3,228.3C320.3,228.3,320.3,228.2,320.3,228.3
	C320.3,228.2,320.3,228.3,320.3,228.3C320.3,228.3,320.3,228.3,320.3,228.3z M317.1,241.5c0-0.2,0-0.3,0-0.5h0v-0.1
	c-0.1-1.6-0.4-3.1,0-4.7c0.8-2.7,2.1-5.3,3.2-7.8c0,0,0-0.1,0.1-0.1C321.7,233.5,321,237.6,317.1,241.5z M311.7,252.4
	C311.7,252.4,311.7,252.4,311.7,252.4C311.7,252.4,311.7,252.4,311.7,252.4c-0.7-0.5-1.4-1.2-1.5-2.1c0,0,0,0,0,0
	c-0.2-0.9-0.2-1.8,0-2.7c0,0.3,0,0.7,0.1,1h0.1v0.5c0.1,0.3,0.1,0.5,0.2,0.7h0v0.1c0.1,0.2,0.1,0.4,0.2,0.6h0v0
	c0.1,0.1,0.1,0.3,0.2,0.4h0v0.1c0.1,0.1,0.1,0.3,0.2,0.4h0v0.1C311.4,251.9,311.6,252.2,311.7,252.4
	C311.7,252.4,311.7,252.4,311.7,252.4z M311.9,251.8c-0.9-1.3-1.1-2.9-1.2-4.5c0,0.1,0.1,0.1,0.1,0.2
	C311.6,248.7,312.3,250.3,311.9,251.8z M317.5,288.9c0,0.1,0,0.1,0,0.2c0,0,0,0,0,0C317.5,289,317.5,289,317.5,288.9z M367.4,279.5
	c0,0.1-0.1,0.1-0.1,0.2c0.5-0.8,1-1.6,1.5-2.4v0h0l0.5-0.7v0h0l0.5-0.7v0h0c0.4-0.6,0.7-1.1,1-1.7c0,0,0,0,0,0
	c0.1-0.2,0.3-0.5,0.4-0.7v-0.1h0c0.3-0.6,0.6-1.1,0.9-1.7v0h0l0.2-0.5v0h0l0.2-0.4v0h0l0.2-0.4v0h0c0.9-1.8,1.8-3.6,2.9-5.3
	c0,0.1-0.1,0.1-0.1,0.2c0.5-0.7,0.9-1.4,1.4-2.2c0,0,0,0,0,0c0.4-0.6,0.7-1.1,1.1-1.7c0,0.1-0.1,0.1-0.1,0.2c0.3-0.5,0.7-1.1,1-1.6
	c0,0.1-0.1,0.1-0.1,0.2c0.2-0.3,0.4-0.6,0.5-0.9c0,0,0,0.1-0.1,0.1c12.1-17.1,24.7-34.2,41.4-47c0,0,0,0,0,0c0,0,0.1-0.1,0.1-0.1
	c0,0,0,0-0.1,0c3.8-2.4,7.8-4.6,11.7-6.8c-0.3,0.3-0.7,0.5-1,0.8c-0.4,0.3-0.9,0.7-1.3,1v0h0c-0.5,0.4-1,0.8-1.4,1.2v0h0
	c-0.6,0.5-1.1,0.9-1.7,1.4v0h0c-1.1,0.9-2.1,1.9-3.1,2.9v0h0l-0.2,0.2v0h0l-0.2,0.2v0h0l-0.2,0.2v0h0l-0.2,0.2v0h0l-0.2,0.2v0h0
	l-0.2,0.2v0h0c-1,1-1.9,2-2.9,3.1v0h0c-0.4,0.5-0.8,0.9-1.2,1.4v0h0c-0.3,0.4-0.7,0.8-1,1.3c0,0,0,0,0,0.1c0,0,0,0,0,0
	c-0.2,0.3-0.4,0.5-0.6,0.8c0,0,0,0,0,0c-0.5,0.6-1,1.3-1.5,1.9c0-0.1,0.1-0.1,0.1-0.2c-0.2,0.2-0.4,0.5-0.6,0.7v0h0
	c-0.2,0.3-0.5,0.6-0.7,0.9v0.1h-0.1c-0.2,0.3-0.4,0.6-0.7,0.9v0.1h-0.1c-3.5,4.7-6.3,9.8-9.7,14.6c0,0,0.1-0.1,0.1-0.1
	c0,0.1-0.1,0.1-0.1,0.2c0,0,0,0,0,0c-0.1,0.1-0.1,0.1-0.2,0.2c0,0,0-0.1,0.1-0.1c0,0.1-0.1,0.1-0.1,0.2c0,0,0-0.1,0.1-0.1
	c0,0-0.1,0.1-0.1,0.1c0,0,0,0,0,0c0,0.1-0.1,0.1-0.1,0.2c0-0.1,0.1-0.1,0.1-0.2c-9,11.1-19.1,21.2-28.9,31.7v0h0l-0.2,0.2v0h0
	c-0.8,0.9-1.6,1.7-2.4,2.6v0.1H372l-0.2,0.2v0h0l-0.2,0.2v0h0l-0.2,0.2l0,0l0,0c-0.7,0.8-1.4,1.6-2.2,2.4v0h0l-0.2,0.2v0h0
	c-0.5,0.6-1.1,1.2-1.6,1.8C367.3,279.7,367.4,279.6,367.4,279.5z M436.3,204c-0.5,0.5-0.9,1-1.4,1.4v0h0l-0.2,0.2v0h0
	c-0.3,0.3-0.6,0.7-0.9,1v0.2h-0.2l-0.1,0.1v0.1h-0.1l-0.1,0.1v0.1h-0.1l-0.1,0.2v0.1h-0.1l-0.2,0.2v0.1h-0.1l-0.2,0.2v0h0l-0.7,0.8
	v0.2h-0.1l-0.1,0.1v0.1h-0.1l-0.1,0.2v0.1h-0.1l-0.2,0.2v0h0c-0.3,0.4-0.6,0.7-0.9,1.1v0.1H430l-0.2,0.2v0h0c-0.4,0.5-0.8,1-1.2,1.4
	v0h0c-0.2,0.3-0.5,0.6-0.7,0.9v0.1h0c-0.2,0.3-0.5,0.6-0.7,0.9v0.1h-0.1l-0.2,0.2v0h0l-0.2,0.3v0.2h-0.1l-0.1,0.1v0.1h-0.1l-0.2,0.2
	v0h0l-0.2,0.3v0.2h-0.1l-0.1,0.1v0.1h-0.1l-0.2,0.2v0h0l-0.2,0.3v0.2h-0.1l-0.1,0.2v0.1h0l-0.2,0.3v0.2h-0.2l-0.1,0.1v0.1h-0.1
	l-0.2,0.2v0h0l-0.2,0.3v0.1H424l-0.1,0.2v0h0l-0.4,0.7v0.1h0l-0.4,0.6v0.1h-0.1c-0.5,0.7-0.9,1.4-1.4,2.1v0h0l-0.2,0.3v0.1h-0.1
	l-0.1,0.2v0h0l-0.2,0.4v0.1h-0.1l-0.2,0.3v0.2h-0.1l-0.1,0.2v0h0L420,225v0.1h-0.1l-0.2,0.3v0.2h-0.1l-0.1,0.2v0h0l-0.2,0.4v0.1
	h-0.1l-0.2,0.3v0.2h-0.1l-0.1,0.2v0.3h-0.1l-0.1,0.2v0.1h0l-0.2,0.3v0.1h-0.1l-0.2,0.3v0.2H418l-0.4,0.7v0h0l-0.2,0.4v0.1h0
	l-0.2,0.4v0.1h-0.1c-0.6,1-1.1,2.1-1.6,3.2v0.2h-0.1l-0.1,0.3v0.2h-0.1l-0.1,0.3v0.2h-0.1l-0.2,0.3v0.1h-0.1l-0.2,0.4v0.1h-0.1
	l-0.2,0.4v0.3h-0.1l-0.1,0.2v0.3h-0.1l-0.1,0.3v0.2h-0.1l-0.1,0.3v0.2h-0.1l-0.2,0.4v0.3h-0.1l-0.1,0.2v0.2H413l-0.1,0.3v0.2h-0.1
	l-0.2,0.4v0.1h0c-0.2,0.4-0.3,0.7-0.5,1.1v0.1h0l-0.3,0.7c0-0.1,0.1-0.1,0.1-0.2c-1,2.5-2.2,4.8-3.4,7.2v0h0l-0.2,0.5v0h0l-0.2,0.5
	v0h0l-0.2,0.5v0h0l-0.2,0.5v0h0c-0.4,0.8-0.8,1.7-1.2,2.5v0.1h-0.1l-0.2,0.4v0.1h0l-0.2,0.4v0h0c-0.2,0.4-0.3,0.7-0.5,1.1
	c0-0.1,0.1-0.2,0.1-0.2c-5.9,13.6-16.9,24.6-27.7,34.5c-9.1,6.8-21,6.8-31.9,7.3v0h-0.1l-1,0c0.3-0.1,0.5-0.2,0.8-0.3v0h0.1l0.6-0.2
	v0h0.1l0.4-0.1v-0.1h0.2l0.5-0.2V296h0.1l0.6-0.2v0h0l0.5-0.2v-0.1h0.1c0.4-0.2,0.7-0.3,1.1-0.5v0h0c0.3-0.1,0.6-0.3,1-0.5v0h0.1
	l0.4-0.2v0h0.1l0.4-0.2v0h0.1l0.4-0.2v0h0c0.4-0.2,0.8-0.4,1.2-0.6v-0.1h0.1l0.3-0.2v0h0.1c0.9-0.5,1.7-1,2.6-1.6v-0.1h0.1l0.6-0.4
	v-0.1h0.1l0.6-0.4v0h0.1c1-0.7,1.9-1.4,2.8-2.2v0h0l0.2-0.2v-0.1h0.1c0.4-0.3,0.8-0.6,1.1-0.9v0h0l0.2-0.2v-0.1h0.1
	c0.5-0.5,1.1-0.9,1.6-1.4v0h0c2.4-2.2,4.7-4.5,7-6.9v0h0l0.2-0.2v0h0c2.8-3,5.4-6,8.1-9c3.3-3.2,6.5-6.5,9.6-9.9v0h0l0.2-0.2v0h0
	l0.2-0.2v0h0c0.8-0.9,1.6-1.8,2.4-2.6v0h0c0.6-0.7,1.3-1.4,1.9-2.2v0h0c0.6-0.6,1.1-1.3,1.7-1.9v0h0l1.4-1.7v0h0
	c1.9-2.1,3.7-4.3,5.5-6.5v0h0l1.2-1.4v0h0l1.3-1.6c0.6-0.9,1.2-1.8,1.8-2.7v0h0l0.5-0.7v0h0c3.6-5.7,7.1-11.5,11.4-16.7
	c0,0,0.1-0.1,0.1-0.1c0,0,0,0,0,0c5.1-6.4,11.3-11.9,17.8-16.8C436.6,203.7,436.4,203.9,436.3,204z M299.8,323.1L299.8,323.1
	L299.8,323.1c1.9-3.3,5.1-7.7,5.5-8.7c0,0,0,0,0,0c2.5-4.2,4.6-8.7,6.7-13.2h0v0c0.9-1.8,1.7-3.7,2.6-5.5h0v0l0.1-0.3
	c1-5,1.9-10.1,2.4-15.3c0-0.1,0-0.1,0-0.2c0,0,0,0,0,0.1c1.2-14.8,0.8-13.5-3.6-23.2v0l0,0c-0.5-1.1-1.1-2.4-1.7-3.9
	c-0.1,0-0.2-0.1-0.3-0.2c0,0,0,0,0,0c0,0-0.1,0-0.1-0.1c0,0,0,0,0,0c0,0,0,0-0.1,0c0,0,0,0,0,0c-0.2-0.1-0.4-0.2-0.5-0.4v0h0
	c-0.1-0.1-0.1-0.1-0.2-0.2v-0.1h-0.1c-0.1-0.1-0.1-0.1-0.2-0.2v0h0c-0.2-0.2-0.3-0.4-0.5-0.7v0h0c-0.2-0.5-0.4-0.9-0.5-1.5v-0.2h0
	c0-0.4,0-0.8,0-1.2h0V248c0-0.2,0.1-0.4,0.1-0.7c0.2-0.5,0.3-1.4,0.6-1.6h0v0c0.2-0.1,0.4,0,0.6,0.6c0,0,0,0,0,0c0,0,0,0,0,0.1
	c0,0,0,0,0,0c0.4,0.5,0.8,1.1,1.1,1.7v0.1h0c0.7,1.4,0.9,3,0.5,4.6c1.3,3.8,3.4,7.1,5.1,10.8c0-0.3-0.1-0.5-0.1-0.8v-0.2h0
	c-0.5-5.7,0.1-11.3-0.6-17c0,0,0,0.1,0,0.1c0-0.2-0.1-0.4-0.1-0.7v-0.2h0c-0.1-0.6-0.1-1.2-0.1-1.8c-0.5-0.1-1-0.2-1.5-0.4
	c0,0,0,0,0.1,0c-1.4-0.3-3-0.6-4.4-1.2v0h0c-1.6-0.6-3-1.5-3.8-3.1v0h0c-0.1-0.1-0.2-0.3-0.2-0.5v0h0c0-0.1-0.1-0.2-0.1-0.3
	c0,0,0,0,0,0c-0.1-0.2-0.3-0.5-0.4-0.7v0h0c-0.4-0.9-0.8-1.7-1.5-2.4c-0.1-0.2-0.5-0.4-0.7-0.7v0h0c-0.1-0.2-0.1-0.3,0.1-0.4
	c0.2,0,0.4,0,0.6,0h0.1c2.1,0,2.3,1.5,4.4,2.1c0,0,0,0-0.1,0l0.1,0v0h0c0.3,0.1,0.6,0.3,0.9,0.5c-0.4-0.9-0.8-1.8-1.1-2.7v0h0
	c-0.2-0.6-0.5-1.1-0.7-1.7v0h0c-0.1-0.3-0.2-0.6-0.4-0.9v0c-0.2-0.3,0.2-0.5,0.5-0.4c0,0,0,0,0.1,0c0,0,0,0,0,0c0.1,0,0.1,0,0.2,0
	c0,0,0,0,0,0c0.1,0,0.3,0,0.4,0v0h0.1c0.2,0,0.4,0.1,0.6,0.2v0h0c0.6,0.3,1.2,0.8,1.8,1.3c0,0,0,0,0,0c0,0,0,0,0.1,0c0,0,0,0,0,0
	c0,0,0,0,0.1,0c0.2,0.1,0.4,0.2,0.5,0.4v0h0l0.2,0.2v0.1h0.1c0.5,0.4,1,0.9,1.4,1.4v0.1h0.1c0.2,0.3,0.5,0.6,0.7,0.9v0h0
	c0.5,0.7,0.9,1.5,1.2,2.4v0h0c0.1,0.2,0.1,0.4,0.2,0.6c0-0.6,0.1-1.2,0.2-1.8h0V236c0.2-1,0.5-2,0.9-2.9h0V233c0.8-2,1.9-3.9,3-5.7
	l0,0h0.2c0.7,0.4,1,4.9,1.2,5.5c0.8-0.9,1.8-1.7,2.5-2.8c0.1-0.3,0.4-0.5,0.6-0.4v0h0c0.1,0.1,0.1,0.2,0.1,0.5c0,0.8,0,1.6-0.1,2.4
	h0v0.1c-0.1,0.6-0.1,1.2-0.2,1.9h0v0.1c-0.1,0.4-0.1,0.8-0.2,1.1h0v0.1c-0.3,1.3-0.8,2.5-1.4,3.5h0v0c-0.2,0.3-0.4,0.6-0.7,0.9h0v0
	c-0.1,0.1-0.1,0.1-0.2,0.2h0v0c-0.1,0.1-0.1,0.1-0.2,0.2h0v0c-0.1,0.1-0.2,0.1-0.2,0.2h0v0c-0.2,0.2-0.4,0.3-0.6,0.5h-0.1v0.1
	c-0.4,0.3-0.9,0.5-1.4,0.7h-0.1v0c-0.2,0.1-0.5,0.2-0.8,0.2h-0.2v0c-0.1,0-0.3,0.1-0.4,0.1c-0.2,0-0.3,0.1-0.5,0.2
	c0.1,0.5,0.1,0.9,0.2,1.4v0.6h0.1c0.1,0.5,0.1,1,0.2,1.5v1.1h0.1c0.1,0.6,0.1,1.2,0.1,1.8v0.6h0c0.1,1.5,0.2,3,0.2,4.4v0.4h0
	c0.1,1.8,0.1,3.6,0.2,5.4c0.5-1.7,1-3.5,1.5-5.2h0v0c0.9-2.9,1.7-5.8,2.2-8.8c-0.6-1-0.5-2.7,0-3.9h0v0c0.1-0.2,0.1-0.3,0.2-0.5h0
	v-0.1c0.1-0.2,0.2-0.3,0.3-0.4c0.5-0.2,1,2.2,1.2,2.7c0,0,0,0,0,0c0.1,0.4,0.1,0.8,0,1.2h0v0c-0.2,0.6-0.6,1.2-1.2,1.5c0,0,0,0,0,0
	c0,0,0,0,0,0c0,0,0,0,0,0c-1.5,5.1-2.7,10.4-3.9,15.6l0.1,1.1v0.5h0c0.3,4.6,0.3,9.3,0,13.9h0v0.5c-0.1,0.9-0.1,1.9-0.2,2.8h0v0.2
	c-0.1,0.7-0.1,1.5-0.2,2.2h0v0.1c-0.1,0.5-0.1,1-0.2,1.6h0v0.3c-0.1,0.4-0.1,0.9-0.2,1.3h0v0.3c-0.1,0.6-0.2,1.3-0.3,1.9
	c6.3-16.1,12.4-32.8,14.7-50c-0.1-4.2-0.9-8.3-1.7-12.4v-0.1h0c-0.1-0.4-0.2-0.9-0.2-1.3v-0.2h0c-0.1-0.4-0.1-0.9-0.2-1.3v-0.2h0
	c-0.2-1.2-0.3-2.3-0.5-3.5v-1.1h-0.1c-0.1-1-0.1-2-0.1-3c0,0,0,0,0,0.1c0-0.2,0-0.3,0-0.5c-0.2-0.1-0.4-0.2-0.5-0.4v0h0
	c-0.2-0.1-0.3-0.3-0.5-0.5v0h0c-1.5-1.8-0.7-4.6,0.5-6.6c0-0.3,0.3-0.4,0.4-0.2c0,0,0,0,0,0c0.4,1,1,2,1.2,3
	c0.2,0.4,0.3,0.8,0.3,1.2v0.6c0,0.4-0.1,0.8-0.2,1.1h0v0c-0.2,0.5-0.4,1-0.7,1.5c0,0.3,0,0.7,0,1c0,0,0,0,0-0.1c0,0.2,0,0.4,0,0.5
	c0,0,0,0,0-0.1c0.4,6.1,1.9,12.2,2.8,18.3v0.1h0c0.1,0.6,0.2,1.3,0.3,1.9c2.3-10.5,3.8-21.2,4.1-31.9c-3-1.6-7.2-0.9-8.9-4.4
	l-0.1-0.2v0h0c-0.5-0.8-0.9-1.7-1.4-2.4c-0.2-0.2-0.4-0.4-0.5-0.7v-0.3c0-0.1,0.1-0.1,0.2-0.2h0.1v0c0,0,0.1,0,0.1,0
	c0.6,0.2,1.2,0.3,1.8,0.5v0h0l0.7,0.2v0h0.1l0.6,0.2v0h0.1c0.2,0.1,0.4,0.1,0.6,0.2v0h0.1c0.2,0.1,0.5,0.2,0.7,0.3
	c-0.1-0.1-0.2-0.3-0.3-0.4c-0.4-0.6-0.9-1.1-1.3-1.7v0h0c-0.3-0.5-0.5-1-0.7-1.5v-0.2H329c-0.2-0.6-0.2-1.3,0-2
	c0-0.2,0.1-0.4,0.3-0.6h0v0c0.2-0.3,0.6-0.5,0.9-0.2c0,0,0,0-0.1-0.1c1.1,0.7,2.2,1.4,3.2,2.2v0h0c0.5,0.4,1,0.8,1.4,1.2v0h0
	l0.2,0.2v0h0l0.2,0.2v0h0c0.3,0.3,0.5,0.6,0.7,0.9v0.1h0.1l0.2,0.2v0h0c0.3,0.4,0.5,0.8,0.7,1.2v0l0,0c0.3,0.7,0.6,1.4,0.8,2.2
	c-0.5-1.8-0.7-3.6-0.4-5.4h0.1v-0.3c0.2-0.9,0.6-1.7,1.2-2.5c0.5-0.6,0.5-2.5,1.4-2.5c0.2,0.5,0.4,1.1,0.6,1.7v0h0
	c0.3,0.9,0.5,1.8,0.7,2.8v0.1h0c0.1,0.4,0.2,0.8,0.2,1.2v0.2h0c0.2,1.3,0.2,2.5,0,3.6h-0.1v0.4c0,0.2-0.1,0.4-0.2,0.5
	c1.3-1.2,2.1-2.9,3.3-4.3h0v0c0.3-0.3,0.6-0.7,0.9-0.9h0.1v-0.1l0.2-0.2h0.1v0c0.1-0.1,0.3-0.2,0.4-0.3c0.7-0.1,0.9,0.2,0.8,0.6h0v0
	c-0.2,0.8-1.3,2.2-1.4,2.8c-0.2,1-0.6,2-1,2.9h0v0c-0.1,0.2-0.2,0.3-0.2,0.5h0v0c-1.1,2-2.7,3.6-5,3.8h0v0c-0.1,0-0.3,0-0.4,0
	c-0.2,0.2-0.5,0.2-0.7,0c0,0.7-0.1,1.4-0.1,2.1h0v0.6c-0.1,1.2-0.1,2.3-0.2,3.5h0v0.5c-0.1,1-0.1,2.1-0.2,3.1h0v0
	c-0.1,0.8-0.1,1.6-0.2,2.4h0v0.3c-0.1,0.6-0.1,1.2-0.2,1.9h-0.1v0.5c-0.1,0.6-0.1,1.3-0.2,1.9h0v0.2c-0.1,1.2-0.3,2.4-0.5,3.6h0v0.1
	l-0.2,1.3h0v0.3c-0.1,0.5-0.1,0.9-0.2,1.4h0v0.2l-0.2,1.2h0v0.3c-0.3,1.8-0.6,3.5-1,5.3h0v0l-0.2,0.9h-0.1v0.3l-0.2,0.9h0v0.2
	l-0.2,1h0v0.1l-0.2,0.8h-0.1v0.2l-0.2,1h0v0.1c-0.1,0.5-0.2,1-0.4,1.5c0.4-0.9,0.8-1.7,1.2-2.6h0.1v-0.2l0.1-0.3h0.1v-0.2l0.2-0.3
	h0.1v-0.1l0.2-0.3h0.1V239l0.2-0.4h0v0c0.1-0.2,0.3-0.5,0.4-0.7c0,0,0,0.1-0.1,0.1c0-0.1,0.1-0.2,0.2-0.2c0,0-0.1,0.1-0.1,0.1
	c1.9-2.4,2.4-5.4,3.6-8.1h0v0c0.1-0.2,0.2-0.3,0.3-0.5c0,0,0,0,0,0c0,0,0-0.1,0-0.1c0,0,0,0,0,0c1.2-3.1,2.4-6.2,3.1-9.4
	c-0.5-0.3-0.8-0.9-1-1.5v0h0c-0.1-0.6-0.1-1.3,0-1.9h0v0l0-0.1c0.3-1.1,1.4-1.8,2.1-2.6c0.1-0.2,0.3-0.5,0.5-0.6h0.1v0
	c0.1,0,0.2,0,0.3,0.2c0.1,0.5,0.2,1.1,0.2,1.6v0.4h0c0,0.8-0.1,1.7-0.1,2.5c-0.1,0.9-0.8,1.5-1.4,2.2c0,0,0,0,0,0
	c-0.1,0.1-0.2,0.1-0.3,0.2c-0.1,0.7-0.3,1.4-0.5,2.2h0v0c-0.5,2-1.2,4-1.9,6h0v0c-0.2,0.6-0.5,1.3-0.7,1.9l0,0v0
	c-0.5,1.2-1,2.5-1.4,3.7c0.3-0.4,0.6-0.7,0.9-1.1h0v0c0.4-0.5,0.8-0.9,1.2-1.4h0v0c0.4-0.5,0.8-0.9,1.2-1.4h0v0
	c1.2-1.4,2.4-2.8,3.6-4.2c0.8-1,2.2-1.9,2.2-3.3c0,0,0,0,0,0l0-0.4v-0.7h0c0-0.5,0-1,0-1.4h0v-0.1c0-0.4,0.1-0.7,0.2-1.1h0.1v-0.2
	c0.1-0.3,0.2-0.7,0.4-1h0.1v-0.1c0.1-0.2,0.3-0.4,0.5-0.6h0v0c0.1-0.2,0.3-0.3,0.4-0.5h0v0c0.1-0.1,0.1-0.1,0.2-0.2h0v0
	c0.3-0.2,0.6-0.5,0.9-0.7h0v0l0.4-0.2c1.8-0.7,3.3-4.1,2.2,0.2c4.2-4,1.5,1.7,0.3,3.5c0,0,0,0,0,0c0,0,0,0,0,0.1c0,0,0,0,0,0
	c0,0.1-0.1,0.2-0.1,0.2c0,0,0,0,0-0.1c-0.3,0.6-0.8,1.1-1.3,1.6h0v0l-0.2,0.2h0v0c-0.8,0.7-1.8,1.3-2.7,2c0,0-0.1,0.1-0.1,0.1
	c0,0,0,0,0,0c-0.3,0.1-0.5,0.6-0.8,0.5c-10.1,12.9-15.8,18.5-18.8,35.5l-0.4,1.4h0v0l-0.5,1.6h0v0.1l-0.2,0.7h-0.1v0.2l-0.2,0.8h0
	v0.1l-0.2,0.7h0v0.1l-0.2,0.6h-0.1v0.2l-0.2,0.7h0v0.1l-0.2,0.6h0v0.2l-0.5,1.5h0v0l-0.2,0.7h0v0.1c-0.6,1.9-1.2,3.8-1.9,5.7h-0.1
	v0.2l-0.2,0.5h-0.1v0.2l-0.2,0.6h0v0.1l-0.2,0.6h0v0.1l-0.2,0.6h0v0.1l-0.2,0.6h0v0c-0.2,0.6-0.5,1.3-0.7,1.9h0v0.1l-0.2,0.6h0v0
	c-0.5,1.3-0.9,2.5-1.4,3.8h0v0l-0.5,1.2h0v0.1l-0.5,1.1h0v0.1l-0.2,0.4h-0.1v0.2l-0.2,0.5h0v0.1l-0.2,0.4h-0.1v0.2l-0.2,0.5h0v0.1
	L319,290H319v0.2l-0.2,0.6h0v0l-0.2,0.5h0v0.1l-0.5,1.1h0v0.1c-0.5,1.1-0.9,2.2-1.4,3.3h0v0l-0.2,0.5h0v0.1l-0.2,0.4h-0.1v0.1
	l-0.7,1.5h0v0l-0.2,0.4h0v0.1l-0.2,0.4h-0.1v0.1l-0.2,0.4h-0.1v0.2c-0.2,0.5-0.5,1-0.7,1.5h0v0l-0.2,0.5h0v0l-0.2,0.4h0v0.1
	l-0.2,0.4h0v0.1l-0.2,0.4h0v0.1c-0.3,0.6-0.6,1.2-0.9,1.8c7.9-7.8,15.2-16.4,20.2-26.4c0,0,0,0,0,0.1c1.6-2.7,2.8-5.5,4.2-8.3h0.1
	v-0.2l0.2-0.3h0.1v-0.2l0.2-0.3h0.1v-0.1l0.2-0.3h0.1v-0.1l0.2-0.4h0v-0.1l0.2-0.4h0v0c0.2-0.4,0.5-0.8,0.7-1.2c0,0,0,0,0,0
	c0,0,0-0.1,0.1-0.1c0,0,0,0,0,0.1c0.8-1.3,1.5-2.7,2.1-4.1c-0.7-0.8-1.2-1.9-1.3-2.9V260h0c0-0.2,0-0.4,0-0.6c0,0,0,0.1,0,0.1
	c0-0.3-0.1-0.6,0-1h0.1v-1c0.1-0.3,0.1-0.6,0.2-1h0v-0.1c0.5-2,1.6-3.9,1.9-5.9c0.2-0.6-0.1-3.5,1.1-2.5c0,0.1,0,0.1,0.1,0.2
	c0,0,0,0,0,0c0.6,1.1,1,2.1,1.2,3.3v0.1h0c0.1,0.8,0.1,1.5-0.1,2.3c0.5-0.7,2.4-4.2,3.4-4.7h0.1v0c0.1,0,0.2-0.1,0.3,0
	c0.1,0.2,0.1,0.3,0.2,0.5v0h0c0.1,0.2,0.2,0.5,0.2,0.7v0h0c0.1,0.3,0.2,0.6,0.2,0.9v0.1h0c0.1,0.5,0.2,1,0.2,1.5c0,0,0,0,0,0
	l0.1,0.6v0.4h0c0,0.6,0.1,1.1,0,1.7h0v0.4c0,0.3-0.1,0.6-0.2,0.8H348v0.3c0,0.1-0.1,0.2-0.1,0.3l0.4-0.1c0.4-0.1,0.8-0.3,1.3-0.4
	c0.9-0.3,1.8-0.6,2.7-1c0,0,0,0,0,0c0.4-0.1,0.7-0.7,1.1-0.5c0.1,0,0.1,0.1,0.2,0.1v0h0c0.5,0.7-2,2.5-2.3,3.3c-0.6,0.7-1.3,1.4-2,2
	h-0.1v0c-0.4,0.3-0.9,0.7-1.4,0.9h0v0c-0.1,0.1-0.3,0.2-0.4,0.2h0v0c-0.4,0.2-0.8,0.3-1.2,0.5h-0.2v0.1c-0.3,0.1-0.6,0.1-0.8,0.2
	l-0.1,0h0v0c-1.2,0.2-2.5,0-3.5,0.8c0,0,0,0,0.1,0c-0.1,0.1-0.2,0.2-0.4,0.3c-1.8,3.8-3.6,7.7-5.5,11.5h-0.1v0.1l-0.2,0.3h-0.1v0.1
	l-0.2,0.3H335v0.1l-0.2,0.3h-0.1v0.1l-0.2,0.3h-0.1v0.1l-0.2,0.4h-0.1v0.1l-0.2,0.4h0v0.1l-0.2,0.4h0v0.1l-0.2,0.4h0v0.1l-0.2,0.4h0
	v0c-0.2,0.3-0.3,0.6-0.5,0.9c0,0,0,0,0,0c-0.3,0.6-0.6,1.2-0.9,1.7h0v0.1l-0.2,0.4h0v0.1l-0.2,0.4h0v0l-0.4,0.7H331v0.2l-0.2,0.3
	h-0.1v0.1l-0.2,0.4h0v0.1l-0.4,0.7H330v0.2l-0.2,0.3h-0.1v0.1l-0.2,0.4h0v0l-0.4,0.7h0v0.1c-0.2,0.4-0.5,0.8-0.7,1.1h0v0l-0.4,0.7h0
	v0l-0.4,0.7h0v0l-0.1,0.2h-0.1v0.2l-0.2,0.3h0v0l-0.1,0.2h-0.1v0.1l-0.2,0.3l0,0v0l-0.2,0.2h-0.1v0.1l-0.1,0.1h-0.1v0.2l-0.2,0.3h0
	v0l-0.1,0.2h-0.1v0.1l-0.1,0.1h-0.2v0.2l-0.2,0.3h0v0l-0.1,0.2h-0.1v0.1l-0.5,0.6h0v0l-0.2,0.2H324v0.1c-0.3,0.3-0.5,0.7-0.8,1
	c7.2-5.1,14-11.3,19-18.6c-0.3-0.9-0.1-1.8,0.3-2.6h0v-0.1c0.1-0.1,0.2-0.3,0.2-0.4h0v0c0.1-0.2,0.3-0.5,0.5-0.7h0v0
	c0.7-0.9,1.5-1.8,2.1-2.7c0,0,0,0,0,0c0.3-0.1,0.3,0.3,0.2,0.5c0,0,0,0,0-0.1c0,0.1,0,0.1,0,0.2c0,0,0,0,0,0c0,0.3,0,0.7-0.1,1
	c0,0,0.1-0.1,0.1-0.1c0,0,0,0,0,0.1c0.2-0.2,0.5-0.7,0.7-0.3h0c-0.1,0.8-0.5,1.5-0.8,2.2c-0.1,0.1-0.1,0.3-0.2,0.4h0v0
	c-0.2,0.4-0.4,0.8-0.7,1.2h0v0c-0.5,0.6-1.1,1.2-1.9,1.5c-0.2,0.3-0.3,0.6-0.5,0.9h0v0c-0.1,0.2-0.3,0.5-0.5,0.7h0v0
	c-0.2,0.2-0.3,0.5-0.5,0.7h0v0c-0.5,0.6-0.9,1.3-1.4,1.9h0v0c-0.4,0.5-0.8,0.9-1.2,1.4h0v0c-0.7,0.8-1.4,1.6-2.1,2.4h0v0
	c-1.2,1.3-2.4,2.6-3.6,3.9c0,0,0,0,0.1-0.1c-0.1,0.1-0.2,0.2-0.3,0.3c0,0,0,0,0,0l-0.3,0.3h0v0l-0.2,0.2h0v0l-0.2,0.2h0v0l-0.2,0.2
	l0,0l0,0c-0.7,0.7-1.4,1.3-2.1,1.9h0v0c-1.7,1.4-3.5,2.8-5.3,4.1h0v0c-1.1,0.8-2.2,1.6-3.3,2.4c-0.3,0.4-0.7,0.8-1,1.2h0v0
	c-1,1.1-2.1,2.2-3.2,3.2c0,0,0,0,0,0c-2.4,2.2-4.5,4.7-6.6,7.2c-0.2,0.5-0.4,0.9-0.7,1.4h-0.1v0.1l-0.2,0.3h-0.1v0.1l-0.2,0.4h0v0.1
	l-0.2,0.4h0v0c-0.2,0.4-0.4,0.8-0.7,1.2h0v0.1c-0.6,1-1.3,2-1.9,3h0v0c-0.5,0.8-1.1,1.7-1.6,2.6c0.1-0.1,0.1-0.2,0.2-0.2
	c16.1-12.1,29.7-27,42.7-42.2c0,0.1-0.1,0.1-0.1,0.1c0.1-0.1,0.1-0.1,0.2-0.2c0,0,0,0,0,0c5.3-6.8,11.2-13.8,14-22c0,0,0,0.1,0,0.1
	c3.2-9.1,6.7-18.3,7.1-28c0,0,0,0,0,0c0-0.1,0-0.2,0-0.2c0,0,0,0.1,0,0.1c0-0.1,0-0.3,0-0.4c0,0.1,0,0.2,0,0.3
	c0.1-1.9,0.2-3.7,0.1-5.6c0,0,0,0,0,0.1c0-0.1,0-0.2,0-0.3c0,0,0,0.1,0,0.1c0-0.2-0.1-0.4-0.1-0.5c0,0,0,0,0,0c0,0,0-0.1,0-0.1
	c-0.7-8.7-6.9-14.5-12.5-20.5l-0.2-0.2v0h0l-0.2-0.2v0h0c-0.2-0.2-0.3-0.4-0.5-0.6V199h-0.1l-0.1-0.1v-0.1h-0.1l-0.2-0.2v0h0
	l-0.2-0.3v-0.2h-0.1l-0.1-0.1v-0.1h-0.1l-0.2-0.2v0h0l-0.2-0.3v-0.1h-0.1l-0.1-0.2v0h0c-0.3-0.4-0.5-0.8-0.7-1.2v0h0l-0.2-0.4v-0.1
	h0l-0.2-0.4v-0.1h-0.1l-0.2-0.4v-0.1h-0.1c-0.1-0.1-0.1-0.2-0.2-0.4v-0.1h-0.1l-0.2-0.4v-0.1h0l-0.2-0.5v-0.2h-0.1l-0.2-0.4v-0.1h0
	c-0.2-0.4-0.3-0.9-0.4-1.3v-0.1h0c-0.1-0.2-0.1-0.4-0.2-0.6v-0.3h-0.1c-0.1-0.2-0.1-0.4-0.2-0.6v-0.4h-0.1c-0.1-0.2-0.1-0.4-0.1-0.6
	V188h0c-0.2-0.9-0.3-1.8-0.5-2.7v-0.4h0c-0.1-0.7-0.1-1.3-0.2-2v-0.1h0c-0.2-2.4-0.1-4.8,0-7.2h0v-0.3c0.1-1.2,0.1-2.3,0.2-3.5v0
	c0.3-3.3,0.6-6.5,0.8-9.7c0,0,0,0,0,0c0,0,0-0.1,0-0.1c0,0,0,0,0,0c0,0,0-0.1,0-0.1c0,0,0,0,0,0c0-0.4,0.1-0.7,0.1-1.1h0v-0.1
	c0.1-0.5,0.1-1.1,0.2-1.6h0v-0.1c0.1-0.5,0.2-1,0.2-1.5l0,0v0c0.1-0.9,0.3-1.8,0.5-2.6h0v-0.1c1-5.3,2.3-10.5,3.2-15.7
	c0.4-4.1,0.3-7.8,0.8-7v0h0c0.3,0.4,0.8,2.1,1.7,5.6c0,0,0,0,0-0.1c1.5,6.5,5.4,12,8.1,17.9v0.1h0l0.2,0.5v0h0
	c0.3,0.8,0.7,1.6,1,2.4v0h0c0.2,0.4,0.3,0.9,0.5,1.3c0.1,0.3,0.2,0.6,0.3,0.8v0h0c0.1,0.3,0.2,0.6,0.2,0.9v0.1h0
	c0.1,0.3,0.2,0.7,0.2,1v0.2h0c0.1,0.4,0.1,0.8,0.2,1.2v0.2h0c0.1,0.6,0.2,1.2,0.2,1.8v0.1h0c0.3,2.9,0.2,5.8,0.3,8.7
	c0.3,2.8,0.8,5.5,1.1,8.3v0.2h0c0.2,2,0.2,3.9,0,5.9c0,0,0-0.1,0-0.1c0,0,0,0.1,0,0.1c0,0.1,0,0.2,0,0.2c0,0,0,0,0,0
	c0,0.1,0,0.2,0,0.2c0,0,0,0,0-0.1c-0.6,8.5,0.3,16.4,0.9,24.3v0.2h0c0.1,0.9,0.2,1.8,0.2,2.8v0.1h0c0.1,1.2,0.2,2.4,0.2,3.6v1.2h0.1
	c0.1,2.3,0.1,4.6,0,7h-0.1v1.5c-0.1,0.8-0.1,1.7-0.2,2.5h0v0.3c-0.1,0.5-0.1,1.1-0.2,1.6h0v0.3c0,0.3-0.1,0.6-0.1,0.9h-0.1v0.6
	c0,0.3-0.1,0.6-0.1,0.8h-0.1v0.5c0,0.2-0.1,0.5-0.1,0.7h-0.1v0.4c-0.1,0.3-0.1,0.7-0.2,1h0v0c-0.1,0.5-0.3,1.1-0.4,1.6h-0.1v0.2
	l-0.1,0.5h-0.1v0.3l-0.1,0.4h-0.1v0.4l-0.1,0.3h-0.1v0.4l-0.1,0.3h-0.1v0.4l-0.1,0.3h-0.1v0.4l-0.1,0.4h-0.1v0.2h0
	c-0.3,0.7-0.6,1.5-0.9,2.2c12.4-21.6,20-45.6,25.3-69.9c0.9-6.7,5.8-23.6,1-28.3c0,0,0.1,0.1,0.1,0.1c-0.1-0.1-0.1-0.1-0.2-0.2
	c0,0,0.1,0.1,0.1,0.1c-0.3-0.4-0.6-0.7-1-1.1c0.1,0.1,0.1,0.2,0.2,0.2c-2-2-3.8-4.1-6-5.8c-0.2-0.1-0.4-0.2-0.6-0.4v0h0
	c-0.2-0.1-0.5-0.3-0.7-0.5v0h0c-0.2-0.2-0.5-0.3-0.7-0.5v0h0l-0.2-0.2v-0.1h-0.1c-0.2-0.2-0.4-0.3-0.6-0.5v0h0
	c-0.4-0.3-0.8-0.6-1.2-0.9v0h0c-0.6-0.5-1.1-0.9-1.7-1.4v0h0l-0.2-0.2v0h0c-2.4-2.2-4.7-4.6-7.1-6.9c0,0,0,0.1,0.1,0.1
	c0,0,0-0.1-0.1-0.1c0,0,0,0,0,0c0-0.1-0.1-0.1-0.1-0.2l0,0c-0.4-0.4-0.8-0.9-1.2-1.3v0h0l-0.2-0.2v0h0c-0.3-0.4-0.7-0.8-1-1.1v0h0
	c-0.3-0.4-0.6-0.8-0.9-1.2l0,0l0,0c-0.2-0.2-0.3-0.4-0.5-0.7V127h0c-0.1-0.2-0.3-0.4-0.4-0.6v-0.1h-0.1c-0.6-0.9-1.1-1.7-1.6-2.6v0
	h0l-0.2-0.4v-0.1h0c-0.5-1-1-1.9-1.4-2.8v0h0c-0.2-0.4-0.3-0.8-0.5-1.1v-0.1h0c-0.5-1.2-0.8-2.4-1.2-3.5v-0.1h0
	c-0.1-0.3-0.2-0.6-0.2-0.9v-0.1h0c-0.3-1.2-0.5-2.4-0.7-3.6v0l0,0c-0.1-0.6-0.2-1.2-0.2-1.8V109h0c-1.2-11.3,1.3-22.6-3.5-35
	c-0.2-1.3,0.6-0.8,1.6,0.2v0h0c0.2,0.2,0.5,0.5,0.7,0.7v0h0c0.9,0.9,1.8,2,2.1,2.2c1.7,2.2,3.3,4.4,4.9,6.6v0h0
	c0.8,1.2,1.6,2.4,2.4,3.5v0.1h0l0.4,0.7v0h0c0.7,1.2,1.5,2.4,2.1,3.6v0h0l0.2,0.4v0.1h0c0.4,0.7,0.8,1.4,1.2,2.2v0h0l0.2,0.5v0h0
	l0.2,0.5v0h0l0.2,0.5v0h0l0.2,0.5v0h0c0.6,1.2,1.2,2.5,1.7,3.8v0h0c0.2,0.4,0.3,0.8,0.5,1.2v0h0l0.2,0.6v0.1h0
	c0.3,0.9,0.6,1.8,0.9,2.8v0.1h0l0.2,0.7v0.1h0c0.1,0.3,0.2,0.5,0.2,0.8v0.2h0c0.2,0.9,0.5,1.8,0.7,2.7v0.2h0c0.1,0.3,0.1,0.7,0.2,1
	v0.2h0c0.1,0.4,0.1,0.7,0.2,1.1v0.1h0c0.1,0.4,0.1,0.9,0.2,1.3c2.3,12.5,9,23.2,14.5,34.5c0.9-16.9-0.2-34-7.2-49.7c0,0,0,0,0,0
	c-0.1-0.1-0.1-0.3-0.2-0.4c-0.1-0.2-0.2-0.4-0.4-0.6v0h0l-0.2-0.4v-0.1h-0.1c-0.6-1.1-1.2-2.2-1.6-3.3v0h0c-0.1-0.2-0.2-0.4-0.2-0.6
	v-0.1h-0.1c-0.3-0.9-0.6-1.9-0.9-2.8v0h0c-0.1-0.3-0.2-0.6-0.2-0.9v-0.1h0c-0.1-0.3-0.1-0.6-0.2-0.9v0h0c-0.2-0.8-0.3-1.6-0.5-2.4v0
	l0,0c-0.1-0.5-0.2-1-0.2-1.4l0,0c-0.1-0.5-0.2-1.1-0.2-1.6v-0.1h0c-0.7-4.7-1.1-9.4-2.4-14c-2-6.4-5.7-12.1-9.6-17.5
	c-1.1-1-2.3-2-3.4-3.1v0h0l-0.2-0.2v0h0l-0.2-0.2v0h0c-0.7-0.7-1.3-1.4-1.9-2.1v0h0c-0.6-0.7-1.2-1.5-1.7-2.3v-0.1h0l-0.2-0.3V42
	h-0.1c-0.2-0.4-0.4-0.9-0.6-1.3c0,0,0,0,0-0.1c0,0,0,0,0,0c-0.1-0.2-0.2-0.4-0.2-0.7c0,0,0,0,0,0c0-0.1-0.1-0.2-0.1-0.3c0,0,0,0,0,0
	c-1.3-4.9,1,0.1,2.2,1c0,0,0,0-0.1-0.1c0.2,0.1,0.3,0.3,0.5,0.4c0,0,0,0-0.1-0.1c0.5,0.4,0.9,0.9,1.4,1.2c0,0-0.1-0.1-0.1-0.1
	c0.2,0.2,0.4,0.3,0.7,0.4c0,0,0,0,0,0c1.1,0.7,2.2,1.3,3.3,2v0h0c0.2,0.1,0.5,0.3,0.7,0.5v0h0c0.2,0.1,0.3,0.2,0.4,0.3
	c0,0-0.1-0.1-0.1-0.1c1.1,0.8,2.2,1.6,3.4,2.4c0,0,0,0,0,0c0.3,0.2,0.6,0.3,0.9,0.5v0h0c0.2,0.1,0.5,0.3,0.7,0.4v0.1h0.1
	c0.8,0.5,1.6,1.1,2.3,1.7v0h0c0.4,0.3,0.8,0.6,1.2,1v0h0c1.2,1,2.3,2.1,3.4,3.3v0h0c0.4,0.5,0.8,0.9,1.2,1.4v0h0
	c0.5,0.6,1,1.2,1.4,1.9v0h0c0.8,1.1,1.5,2.2,2.1,3.3v0h0c0.5,0.9,1,1.7,1.4,2.6v0h0l0.2,0.5v0h0c0.4,0.9,0.8,1.7,1.2,2.6v0h0
	c0.2,0.4,0.3,0.8,0.5,1.2v0.1h0c0.2,0.4,0.3,0.8,0.5,1.2v0h0c0.5,1.4,1,2.9,1.4,4.3v0l0,0c1.1,3.9,1.9,7.9,2.4,11.9V86h0
	c0.3,2.2,0.4,4.4,0.5,6.5v0.9h0c0,0.8,0,1.6,0,2.4h0v0.4c0,0.7-0.1,1.5-0.1,2.2c-0.1,1.1-0.2,2.2-0.2,3.4c-0.2,3.6-0.3,7.3,0.2,10.9
	c0,0,0-0.1,0-0.1c0,0.1,0,0.1,0,0.2l0.1,0.8v0h0c0.1,0.5,0.2,1,0.2,1.5v0.5h0.1l0.2,1.2v0.8h0.1l0.1,1v0.9h0.1l0.1,1v0.9h0.1
	l0.1,1.2v0.7h0.1c0.1,0.6,0.1,1.2,0.2,1.7v0.2h0c0.1,0.9,0.2,1.8,0.2,2.8v1.3h0.1c0.1,0.9,0.1,1.8,0.1,2.7v2.9h0.1
	c0.1,3.8,0.1,7.5,0,11.3h-0.1v2.9c-0.1,2.2-0.2,4.5-0.4,6.7h0v0.6c0,0.5-0.1,1.1-0.1,1.6h-0.1v1l-0.1,1.4h-0.1v0.9
	c-0.1,0.5-0.1,1-0.2,1.5h-0.1v0.6c-0.1,0.5-0.1,1-0.2,1.5h0v0.4c-0.1,1.1-0.3,2.2-0.4,3.2h0v0.2l-0.2,1.2h-0.1v0.4l-0.2,1.1h-0.1
	v0.5l-0.2,1h-0.1v0.5l-0.2,1h-0.1v0.4l-0.2,1h-0.1v0.3l-0.2,1.1h0v0.2l-0.2,1.2h0v0c-0.2,0.8-0.3,1.6-0.5,2.4h0v0l-0.2,0.9h0v0.2
	l-0.2,1h0v0.2l-0.2,0.8h-0.1v0.3l-0.1,0.7h-0.1v0.4l-0.2,0.8h-0.1v0.3L392,187h-0.1v0.3l-0.2,0.9h0v0.1l-0.2,0.8h0v0.2l-0.2,0.8h0
	v0.2c-0.4,1.5-0.8,3.1-1.2,4.6h0v0l-0.2,0.7h-0.1v0.2l-0.2,0.7h0v0.1l-0.2,0.6h-0.1v0.3l-0.2,0.7h0v0.2l-0.2,0.6h-0.1v0.3l-0.2,0.7
	h0v0.2l-0.2,0.6h-0.1v0.3l-0.2,0.7h0v0.1l-0.2,0.6h-0.1v0.2l-0.2,0.8h0v0l-0.2,0.7h0v0.1c-0.3,1-0.6,2-1,3h0v0l-0.2,0.7h0v0
	l-0.2,0.7h0v0.1l-0.2,0.7h0v0.1l-0.2,0.7h0v0.1l-0.2,0.7h0v0.1l-0.2,0.7h0v0.1l-0.2,0.7h0v0l-0.2,0.7h0v0l-0.2,0.5h-0.1v0.2
	l-0.2,0.5H384v0.2l-0.2,0.5h-0.1v0.2l-0.2,0.6h0v0.1l-0.2,0.6h0v0.1l-0.2,0.7h0v0l-0.5,1.5c0.2-0.3,0.5-0.7,0.8-1h0v0
	c0.2-0.3,0.5-0.6,0.7-0.9h0v0c3.3-4.3,7.1-8.3,9.7-13.2c0,0,0,0,0,0.1c1.5-2.8,1.9-6,2.8-9h0v0c0.1-0.2,0.2-0.5,0.2-0.7h0v0
	c0.1-0.2,0.1-0.4,0.2-0.6c1.4-2.8,3.5-5.1,4.7-8c0,0,0,0,0,0c1-2.3,1.1-5,1.1-7.5c-0.2-5.2-0.9-10.4-1.4-15.6v0h0
	c-0.1-0.7-0.2-1.4-0.2-2.2v-0.2h0c-0.1-0.7-0.2-1.5-0.2-2.2v-0.2h0c-0.1-0.9-0.2-1.9-0.2-2.8v-1h-0.1c-0.1-1.7-0.1-3.4-0.1-5.1
	c0,0,0,0,0,0.1c0-0.1,0-0.2,0-0.3c0,0,0,0,0,0c0-0.4,0.1-0.8,0.1-1.2h0.1v-0.5c0-0.4,0.1-0.8,0.1-1.2h0.1v-0.7l0.1-0.8h0.1V143
	l0.1-0.8h0.1v-0.6l0.2-0.9h0.1v-0.4c0.2-0.8,0.3-1.5,0.5-2.3h0v0l0.2-0.9h0V137l0.2-0.6h0.1V136l0.2-0.6h0.1v-0.3l0.2-0.6h0.1v-0.3
	l0.2-0.7h0v-0.2l0.2-0.5h0.1v-0.3l0.2-0.7h0v-0.1c0.2-0.5,0.3-1,0.5-1.5l0,0l0,0l0.2-0.7h0v0l0.2-0.7h0v0l0.2-0.7h0v0l0.2-0.5h0.1
	v-0.2l0.2-0.5h0.1v-0.2l0.2-0.5h0.1v-0.1l0.2-0.6h0v-0.1l0.2-0.6l0,0l0.2-0.5h0.1V124l0.2-0.6h0v-0.1c0.3-0.8,0.6-1.6,0.9-2.3h0
	v-0.1l0.5-1.1h0v0l0.2-0.5h0v-0.1l0.5-1.1h0v0l0.2-0.5h0v-0.1l0.2-0.4h0.1V117l0.5-1h0v0l0.2-0.5h0v-0.1c0.3-0.6,0.6-1.2,0.8-1.8
	c0.1-0.3,0.2-0.5,0.3-0.7h0v0l0.2-0.5h0v0l0.2-0.5h0v0l0.2-0.5l0,0c1.5-2.8,3.2-5.5,4.3-8.4c0.7-2,1-4.1,1.4-6.2h0v-0.1
	c0.2-1,0.4-1.9,0.7-2.8h0v0c0.1-0.2,0.2-0.5,0.2-0.7h0v0c0.1-0.3,0.2-0.5,0.3-0.8c0,0,0,0,0,0.1c0-0.1,0.1-0.2,0.1-0.3c0,0,0,0,0,0
	c0,0,0,0,0-0.1c0,0,0,0,0,0c0.1-0.2,0.1-0.6,0.4-0.5c0.3,0.1,0.2,0.4,0.2,0.6l0.1,1.2v0.1h0l0.2,1.9v0.5h0.1l0.2,1.6V98h0.1l0.2,1.5
	v0.9h0.1l0.1,1.4v0.8h0.1l0.2,1.6v0.8h0.1l0.2,1.7v0.5h0l0.2,2.2v0.2h0l0.2,2.5v0.1h0c0.1,0.9,0.2,1.9,0.2,2.8v0.3h0l0.2,2.7v0.4h0
	l0.2,2.8v0.3h0l0.2,3v0.4h0l0.2,3v0.1h0l0.2,2.3l0.3,2.5v0l0,0l0.2,1.9v0h0c0.2,1.3,0.3,2.6,0.5,3.9v0.1h0c0.1,0.7,0.2,1.3,0.2,2
	v0.1h0c0.2,1.6,0.3,3.3,0.5,4.9v0.4h0c0.1,1.1,0.2,2.2,0.2,3.3v0.1h0c0.2,3,0.2,5.9,0,8.9h0v0.8c0,0.8-0.1,1.5-0.2,2.3h-0.1v0.6
	c-0.1,0.6-0.1,1.2-0.2,1.8h0v0.2c-0.1,0.4-0.1,0.9-0.2,1.3h0v0.3c-0.1,0.3-0.1,0.6-0.2,0.9h-0.1v0.4c-0.1,0.3-0.1,0.5-0.2,0.8h-0.1
	v0.4c-0.2,0.9-0.4,1.8-0.7,2.8h0v0.1l-0.2,0.6h-0.1v0.2l-0.2,0.5h-0.1v0.3l-0.2,0.5h-0.1v0.3l-0.2,0.5h-0.1v0.2l-0.2,0.5h-0.1v0.1
	l-0.2,0.6h0v0c-0.2,0.5-0.5,1.1-0.7,1.6h0v0.1l-0.2,0.4h0v0.1l-0.2,0.4h-0.1v0.1l-0.2,0.4h-0.1v0.1l-0.2,0.3H420v0.1l-0.2,0.4h-0.1
	v0.1l-0.2,0.4h0v0.1l-0.2,0.4h0v0l-0.1,0.2h-0.1v0.2l-0.2,0.3h-0.1v0.1l-0.2,0.4h0v0c-0.1,0.2-0.2,0.4-0.3,0.6l-0.4,0.6h0v0
	c-0.4,0.6-0.8,1.3-1.2,1.9l-0.5,0.7h0v0c-0.9,1.4-1.9,2.9-2.8,4.3h-0.1v0.1l-0.4,0.6h0v0.1l-0.5,0.7h0v0c-0.2,0.3-0.5,0.6-0.7,0.9h0
	v0.1c-0.5,0.6-0.9,1.3-1.4,1.9h0v0c-0.3,0.4-0.6,0.8-0.9,1.2h0v0l-0.2,0.2H409v0.1l-0.1,0.2h-0.1v0.1c-0.2,0.3-0.5,0.6-0.7,0.8l0,0
	l-0.2,0.2h0v0l-0.2,0.2h-0.1v0.1l-0.2,0.2h-0.1v0.1l-0.1,0.2h-0.1v0.1c-0.7,0.8-1.5,1.6-2.2,2.3h-0.1v0.1l-0.1,0.1h-0.1v0.1
	l-0.1,0.1h-0.1v0.1l-0.1,0.1h-0.1v0.1l-0.2,0.2h-0.1v0.1l-0.2,0.2h0v0c-0.2,0.2-0.4,0.3-0.5,0.5h-0.2v0.2l-0.1,0.1h-0.1v0.1
	l-0.1,0.1h-0.1v0.1l-0.2,0.2h0v0c-0.4,0.3-0.8,0.6-1.2,0.9c-7.3,5.1-13.1,11.8-18.6,18.8c-1.8,3.2-3.4,6.7-4.7,10.2c0,0,0-0.1,0-0.1
	c-0.2,0.5-0.5,1.1-0.7,1.6h0v0l-0.2,0.4h0v0.1l-0.2,0.4h-0.1v0.2c-0.2,0.3-0.3,0.7-0.5,1h0v0l-0.2,0.5h0v0.1l-0.2,0.4h0v0.1
	l-0.2,0.4h-0.1v0.1c-0.8,1.6-1.5,3.1-2.3,4.7h0v0.1l-0.2,0.4h0v0.1l-0.2,0.4h0v0c-0.4,0.7-0.8,1.4-1.2,2.1h0v0.1l-0.2,0.4h0v0
	c-0.6,1.1-1.3,2.2-1.9,3.3h0v0l-0.7,1.2h0v0l-0.7,1.1h0v0.1l-0.7,1.1h0v0c-1,1.7-2.1,3.3-3.1,5h0v0l-1.2,1.9l0,0v0l-1.1,1.7
	c0,0,0,0.1-0.1,0.1c0,0,0,0,0.1-0.1c-0.3,0.5-0.5,0.9-0.8,1.4h0v0.1c-0.2,0.4-0.4,0.8-0.7,1.2h0v0.1c-0.2,0.4-0.5,0.8-0.7,1.1h0v0.1
	c-0.2,0.4-0.5,0.8-0.7,1.1h0v0c-0.5,0.7-0.9,1.4-1.4,2.1h0v0.1l-0.4,0.7h0v0.1l-0.5,0.7h0v0l-0.5,0.7h0v0c-0.6,0.9-1.3,1.8-1.9,2.6
	h0v0l-0.7,0.9h0v0l-0.7,0.9h0v0c-1.2,1.6-2.5,3.2-3.8,4.8h0v0c-1.5,1.8-3,3.5-4.5,5.3h0v0c-1.6,1.8-3.2,3.5-4.8,5.3h0v0
	c-1.1,1.2-2.2,2.4-3.4,3.6h0v0c-2.4,2.6-4.9,5.2-7.3,7.7c0.2-0.1,0.4-0.2,0.6-0.2l0.7-0.3h0v0c0.7-0.3,1.4-0.6,2.2-1
	c8.4-3.6,17.6-6.5,24.9-11.9c8.4-10.7,15.6-22.3,23.4-33.5h0v0c1.4-2,2.8-4,4.3-6h0v0l0.7-1h0v0c0.8-1,1.6-2.1,2.4-3.1h0v0
	c0.3-0.4,0.6-0.8,0.9-1.2h0v0c0.3-0.4,0.6-0.8,0.9-1.2h0v0c0.5-0.7,1.1-1.3,1.6-1.9c0,0.1-0.1,0.1-0.1,0.2c3.2-3.9,6.3-8,9.6-11.9h0
	v0c0.4-0.5,0.8-1,1.2-1.4h0v0c0.5-0.6,0.9-1.1,1.4-1.7h0v0c1.5-1.8,3.1-3.6,4.8-5.2h0v0l0.2-0.2h0v0l0.2-0.2h0v0l0.2-0.2h0v0
	l0.2-0.2h0v0l0.2-0.2h0l0.5-0.4c0,0-0.1,0.1-0.1,0.1c1.6-1.6,3.2-3.1,4.9-4.5h0v0c0.4-0.3,0.8-0.6,1.2-0.9h0v0
	c0.3-0.2,0.6-0.5,0.9-0.7h0v0c0.3-0.2,0.6-0.5,1-0.7h0v0c0.2-0.2,0.5-0.3,0.7-0.5h0v0l0.7-0.4h0.1v0l0.6-0.4h0.1v0l0.7-0.4h0v0
	l0.7-0.4h0v0c0.4-0.2,0.8-0.5,1.2-0.7h0v0c0.4-0.2,0.8-0.5,1.2-0.7h0v0c0.6-0.3,1.1-0.6,1.7-0.9l0,0v0c2-1.1,4.1-2.1,6.2-3.1l0,0
	l0,0c3.5-1.6,7.2-3,10.8-4.3h0v0c0.7-0.2,1.4-0.5,2.1-0.7c0,0,0,0,0,0c0,0,0,0,0,0c0,0,0.1,0,0.1,0c0,0,0,0,0.1,0c0,0,0.1,0,0.1,0
	v0.4c0,0-0.1,0-0.1,0c-0.1,0-0.1,0-0.2,0.1c-2.1,1.2-3.9,3.1-5.7,4.8c-10.7,10.8-19.4,23.1-24.9,37.3c-1.9,4.3-3.8,8.6-5.8,12.8h0v0
	l-0.2,0.5h0v0c-0.5,1-0.9,1.9-1.4,2.9h0v0l-0.2,0.5h0v0c-0.8,1.6-1.7,3.2-2.6,4.8h0v0c-0.2,0.4-0.5,0.8-0.7,1.2h0v0
	c-0.4,0.6-0.8,1.3-1.2,1.9h0v0l-0.5,0.7h0v0l-0.5,0.7h0v0l-0.5,0.7h0v0c-0.4,0.6-0.8,1.1-1.2,1.7h0v0c-0.2,0.3-0.5,0.6-0.7,0.9h0v0
	c-0.3,0.4-0.6,0.8-0.9,1.2h0v0l-0.2,0.2h-0.1v0.1c-0.3,0.4-0.6,0.8-0.9,1.1h0v0c-0.8,1-1.7,1.9-2.6,2.9h0v0l-0.2,0.2h0v0l-0.2,0.2
	l0,0l0,0c-0.5,0.5-1,1-1.5,1.5c-3.2,4-6.7,8-10.7,11.3h0v0c-1.7,1.3-3.4,2.6-5.3,3.6h0v0l-0.4,0.2h-0.1v0l-0.4,0.2h-0.1v0l-0.4,0.2
	h-0.1v0c-0.3,0.2-0.6,0.3-1,0.4h0v0c-0.4,0.2-0.8,0.3-1.1,0.5h-0.1v0c-0.2,0.1-0.4,0.1-0.6,0.2h-0.1v0.1c-0.4,0.1-0.8,0.3-1.2,0.4
	c-0.6,0.2-1.3,0.3-1.9,0.5h0v0c-0.7,0.2-1.4,0.3-2,0.5h-0.1v0c-0.8,0.2-1.6,0.3-2.3,0.5h-0.1v0c-0.5,0.1-0.9,0.2-1.4,0.2h-0.1v0
	c-1.1,0.2-2.2,0.3-3.3,0.5h-0.1v0c-0.6,0.1-1.2,0.2-1.8,0.2h-0.1v0c-9.3,1.1-18.7,1.5-27.4,5.4c0.1,0,0.2-0.1,0.2-0.1
	c-6.6,2.5-11.2,8-16.3,12.7h0v0c-0.7,0.7-1.4,1.3-2.1,1.9h0v0c-0.4,0.4-0.9,0.7-1.3,1.1c0,0,0.1-0.1,0.1-0.1
	c-2.8,2.2-5.6,4.4-8.4,6.7c0,0,0.1,0,0.1-0.1c-0.3,0.3-0.7,0.5-1,0.7c0,0,0,0,0.1,0c-0.1,0.1-0.3,0.1-0.4,0.2c0.1,0,0.2-0.1,0.3-0.1
	c-0.3,0.2-0.6,0.3-0.9,0.3c0,0,0,0,0,0c0,0,0,0-0.1,0c0,0-0.1,0-0.1,0c-0.7,0-1.4-0.4-1.3-1.3c0.4-0.9,1.1-1.7,1.9-2.4L299.8,323.1z
	"/>
<path id="circulo" class="manicureCirculo" d="M278.5,333.6c-17,5.8-35.2,8.9-54.1,8.9c-92.7,0-167.9-75.2-167.9-167.9
	c0-92.7,75.2-167.9,167.9-167.9c46.4,0,88.4,18.8,118.8,49.3"/>
</svg>
