<?xml version="1.0" encoding="utf-8"?>
<!-- Generator: Adobe Illustrator 16.0.0, SVG Export Plug-In . SVG Version: 6.00 Build 0)  -->
<!DOCTYPE svg PUBLIC "-//W3C//DTD SVG 1.1//EN" "http://www.w3.org/Graphics/SVG/1.1/DTD/svg11.dtd">
<svg version="1.1" id="Capa_1" xmlns="http://www.w3.org/2000/svg" xmlns:xlink="http://www.w3.org/1999/xlink" x="0px" y="0px"
	 width="500px" height="500px" viewBox="0 0 500 500" style="enable-background:new 0 0 500 500;" xml:space="preserve">
<style type="text/css">
<![CDATA[
	:root {
  		--time: 1s;
	}
	.pedicureFnd{fill-rule:evenodd;clip-rule:evenodd;fill:#000;opacity:0;}

	.pedicurePie{fill:none;stroke:#FFF;stroke-width:6;stroke-dashoffset:0;opacity:0;	animation: pedicureAniPie 1.5s forwards calc(var(--time) + 0s);
		stroke-dasharray:315px;}
	@keyframes pedicureAniPie{0%{stroke-dashoffset:315px;opacity:1;
		}100%{stroke-dashoffset:0px;opacity:1;}}

	.pedicureFlor1{fill:none;stroke:#FFF;stroke-width:6;stroke-dashoffset:0;opacity:0;
		animation: pedicureAniF1 1s forwards calc(var(--time) + 1.5s);
		stroke-dasharray:95px;}
	@keyframes pedicureAniF1{0%{stroke-dashoffset:95px;opacity:1;
		}100%{stroke-dashoffset:0px;opacity:1;}}
	
	.pedicureFlor2{fill:none;stroke:#FFF;stroke-width:6;stroke-dashoffset:0;opacity:0;
		animation: pedicureAniF2 1s forwards calc(var(--time) + 2s);
		stroke-dasharray:145px;}
	@keyframes pedicureAniF2{0%{stroke-dashoffset:145px;opacity:1;
		}100%{stroke-dashoffset:0px;opacity:1;}}

	.pedicureFlor3{fill:none;stroke:#FFF;stroke-width:6;stroke-dashoffset:0;opacity:0;
		animation: pedicureAniF3 1s forwards calc(var(--time) + 2.5s);
		stroke-dasharray:95px;}
	@keyframes pedicureAniF3{0%{stroke-dashoffset:95px;opacity:1;
		}100%{stroke-dashoffset:0px;opacity:1;}}

	.pedicureLatona1{fill:none;stroke:#FFF;stroke-width:6;stroke-dashoffset:0;opacity:0;
		animation: pedicureAniLatona1 1s forwards calc(var(--time) + 3s);
		stroke-dasharray:305px;}
	@keyframes pedicureAniLatona1{0%{stroke-dashoffset:305px;opacity:1;
		}100%{stroke-dashoffset:0px;opacity:1;}}

	.pedicureLatona2{fill:none;stroke:#FFF;stroke-width:6;stroke-dashoffset:0;opacity:0;
		animation: pedicureAniLatona2 1s forwards calc(var(--time) + 4s);
		stroke-dasharray:275px;}
	@keyframes pedicureAniLatona2{0%{stroke-dashoffset:275px;opacity:1;
		}100%{stroke-dashoffset:0px;opacity:1;}}

	.pedicureRecuadro{fill:none;stroke:#FFF;stroke-width:2stroke-dashoffset:0;;opacity:0;
		animation: pedicureAniRecuadro 1s forwards calc(var(--time) + 4s);
		stroke-dasharray:535px;}
	@keyframes pedicureAniRecuadro{0%{stroke-dashoffset:535px;opacity:1;
		}100%{stroke-dashoffset:0px;opacity:1;}}
	
	.pedicureFlor{fill-rule:evenodd;clip-rule:evenodd;fill:#FFF;opacity:0;
		animation: pedicureAniFlor 1.5s forwards linear calc(var(--time) + 4s);
	}
	@keyframes pedicureAniFlor{
		0%{opacity:0;
		}85%{opacity:0.5;
		}100%{opacity:1;}}

	.pedicureFndTxt{fill-rule:evenodd;clip-rule:evenodd;fill:#FFF;opacity:0;
		transform: translateX(200%);
		animation: pedicureAniFndTxt 2s forwards calc(var(--time) + 3s);
	}
	@keyframes pedicureAniFndTxt{
		0%{opacity:1;transform: translateX(200%)
		}50%{opacity:1;transform: translateX(-10%)
		}100%{opacity:0.5;transform: translateX(0%)
	}}

	.pedicureTxt{fill:#000;opacity:0;
		transform: translateX(-200%);
		animation: pedicureAniTxt 1.5s forwards calc(var(--time) + 3s);
	}
	@keyframes pedicureAniTxt{
		0%{opacity:1;transform: translateX(-200%)
		}75%{opacity:1;transform: translateX(10%)
		}100%{opacity:1;transform: translateX(0%)
	}}

]]>
</style>
<rect id="fnd" class="pedicureFnd" width="500" height="500"/>
<g id="pies">
	<path class="pedicureFlor3" d="M184.6,196.5c-9.6-4.3-19.3-6.1-29-5.6c0.7,26,17.3,38.5,42,44.3"/>
	<path class="pedicureFlor1" d="M212.8,196.4c9.6-4.3,19.1-6,28.8-5.5c-0.7,26-19.5,38.5-44.1,44.3"/>
	<path class="pedicureLatona1" d="M146.5,237.1l8.7,62.3c0.6,4.6-0.4,4.6,3.6,6.4c55.7,23.9,116.4,18.8,157.1,0.4c3.9-1.8,3.4-0.9,4.1-5l10.3-63
		"/>
	<path class="pedicureLatona2" d="M163.9,218.2c-6.8,3.7-21.6,13.3-16.3,22.3c23.4,40.2,160.1,32.8,181.6,0.5c8.3-12.5-27.3-25.8-34.4-27.8
		 M253.9,208.7c-4.4-0.3-11.3-0.9-15.5-1.1"/>
	<path class="pedicureFlor2" d="M197.4,172.5c-18.1,19-17.3,40,0.1,62.7C218.1,212.6,219.2,191.7,197.4,172.5z"/>
	<path class="pedicurePie" d="M277.6,121c-1.6,24.5-9.3,49.9-19.2,73.3c-7.8,15.7-2,34.9-19.8,44.4c-7.7,4.2-8.5,13.7,2.1,13.6l15.1-0.1
		c5.1,0,8.6-2.4,12.6-6c12.3-11,16.5-26.2,26.4-33.1c19.5-13.8,21.7-27.8,10.5-42.1c-3.2-4-1.4-7.4-0.4-12.7l6.7-36.6"/>
</g>
<path id="recuadro" class="pedicureRecuadro" d="M90.6,245.4V67.7h171.1 M365.6,146.1v196.6H90.6v-60.4 M326.6,67.7h39v32.8"/>
<path id="fndTxt" class="pedicureFndTxt" d="M11.1,372.8h477.7c4.7,0,8.5,3.8,8.5,8.5v102.4c0,4.7-3.8,8.5-8.5,8.5H11.1c-4.7,0-8.5-3.8-8.5-8.5
	V381.3C2.6,376.6,6.5,372.8,11.1,372.8"/>
<g id="txt">
	<g>
		<path class="pedicureTxt" d="M89.8,437.7c-0.8,0-1.2,0.4-1.2,1.2v17.7c0,0.8,0.4,1.2,1.2,1.2h6.4c0.8,0,1.2,0.4,1.2,1.2
			c0,0.8-0.4,1.2-1.2,1.2H79.4c-0.8,0-1.2-0.4-1.2-1.2c0-0.8,0.4-1.2,1.2-1.2H85c0.8,0,1.2-0.4,1.2-1.2v-49c0-0.8-0.4-1.2-1.2-1.2
			h-5.6c-0.8,0-1.2-0.4-1.2-1.2c0-0.8,0.4-1.2,1.2-1.2h26.9c5.3,0,9.3,1.4,12,4.3c2.7,2.9,4.1,7.1,4.1,12.6c0,5.5-1.4,9.7-4.1,12.6
			c-2.7,2.9-6.7,4.3-12,4.3H89.8z M106.3,435.3c9.1,0,13.7-4.8,13.7-14.5c0-9.6-4.6-14.5-13.7-14.5H89.8c-0.8,0-1.2,0.4-1.2,1.2
			v26.5c0,0.8,0.4,1.2,1.2,1.2H106.3z"/>
	</g>
	<g>
		<path class="pedicureTxt" d="M159.9,454.6c0.9-0.6,1.5-1.2,2-1.6c0.5-0.4,0.8-0.6,1.1-0.4c0.3,0.1,0.6,0.4,1,0.9s0.3,1-0.4,1.5
			c-1.9,1.7-4.1,3.1-6.7,4.3c-2.5,1.2-5.7,1.8-9.6,1.8c-5.7,0-10.2-2-13.7-5.9c-3.5-3.9-5.2-8.9-5.2-15c0-6.1,1.7-11.1,5.2-15
			c3.5-3.9,8-5.9,13.6-5.9c5.6,0,10.2,1.8,13.7,5.3c3.5,3.5,5.3,7.8,5.3,12.8v1.2c0,1.6-0.8,2.4-2.4,2.4h-31.6
			c-0.9,0-1.3,0.4-1.2,1.2c0.3,4.7,1.9,8.6,4.8,11.7c2.9,3.2,6.8,4.7,11.8,4.7C152.5,458.6,156.6,457.2,159.9,454.6z M131,437.5
			c0,0.6,0.4,1,1.1,1h30.4c0.8,0,1.2-0.4,1.2-1.2c0-4.3-1.6-8-4.7-11c-3.1-3.1-7.1-4.6-11.9-4.6c-4.8,0-8.7,1.7-11.7,5.1
			C132.4,430.1,131,433.7,131,437.5z"/>
		<path class="pedicureTxt" d="M207.5,407.6c0-0.8-0.4-1.2-1.2-1.2h-6.4c-0.8,0-1.2-0.4-1.2-1.2c0-0.8,0.4-1.2,1.2-1.2h8.8
			c0.8,0,1.2,0.4,1.2,1.2v51.4c0,0.8,0.4,1.2,1.2,1.2h5.6c0.8,0,1.2,0.4,1.2,1.2c0,0.8-0.4,1.2-1.2,1.2h-8c-0.8,0-1.2-0.4-1.2-1.2
			v-4.5c0-0.5-0.1-0.9-0.3-1.1c-0.2-0.2-0.5-0.1-1,0.3c-1.3,1.8-3.3,3.4-5.9,5c-2.6,1.6-5.4,2.3-8.4,2.3c-5.7,0-10.1-1.9-13.3-5.6
			c-3.2-3.7-4.8-8.8-4.8-15.2c0-6.4,1.9-11.4,5.7-14.9c3.8-3.5,9.1-5.3,15.9-5.3h10.8c0.8,0,1.2-0.4,1.2-1.2V407.6z M207.5,423.7
			c0-0.8-0.4-1.2-1.2-1.2h-10.8c-6.1,0-10.8,1.5-14.2,4.5c-3.4,3-5.1,7.4-5.1,13.2s1.4,10.3,4.2,13.6s6.5,4.9,10.9,4.9
			c4.5,0,8.5-1.8,12.1-5.4c1.5-1.5,2.9-3.3,4.1-5.5V423.7z"/>
		<path class="pedicureTxt" d="M223.4,459c0-0.8,0.4-1.2,1.2-1.2h5.6c0.8,0,1.2-0.4,1.2-1.2v-32.9c0-0.8-0.4-1.2-1.2-1.2h-5.6
			c-0.8,0-1.2-0.4-1.2-1.2c0-0.8,0.4-1.2,1.2-1.2h8c0.8,0,1.2,0.4,1.2,1.2v35.3c0,0.8,0.4,1.2,1.2,1.2h5.6c0.8,0,1.2,0.4,1.2,1.2
			c0,0.8-0.4,1.2-1.2,1.2h-16.1C223.8,460.2,223.4,459.8,223.4,459z M229.9,412.7c-0.6-0.6-0.9-1.4-0.9-2.3s0.3-1.7,0.9-2.3
			c0.6-0.6,1.4-0.9,2.3-0.9c0.9,0,1.7,0.3,2.3,0.9c0.6,0.6,0.9,1.4,0.9,2.3s-0.3,1.7-0.9,2.3c-0.6,0.6-1.4,0.9-2.3,0.9
			C231.3,413.6,230.5,413.3,229.9,412.7z"/>
	</g>
	<g>
		<path class="pedicureTxt" d="M279.9,430.1c-4.3-5.6-9.4-8.4-15.3-8.4c-4.3,0-8,1.7-10.9,5.1c-2.9,3.5-4.3,8-4.3,13.5
			c0,5.5,1.5,9.9,4.6,13.3c3.1,3.3,7.1,5,12,5c4.9,0,9-1.3,12.4-4c0.9-0.6,1.5-1.2,2-1.6c0.5-0.4,0.9-0.6,1.1-0.4
			c0.3,0.1,0.5,0.4,0.8,0.7c0.3,0.3,0.4,0.6,0.4,0.8c0,0.2-0.2,0.6-0.7,1.1c-1.8,1.6-3.9,2.9-6.5,4.1c-2.5,1.2-5.8,1.8-9.7,1.8
			c-5.7,0-10.2-1.9-13.7-5.8c-3.5-3.9-5.2-8.9-5.2-15.1s1.7-11.2,5.1-15.1s7.6-5.8,12.8-5.8c5.2,0,9.8,2,13.8,6
			c0.9,0.8,1.3,0.5,1.3-0.8v-3.2c0-0.8,0.4-1.2,1.2-1.2c0.8,0,1.2,0.4,1.2,1.2v12.8c0,0.8-0.4,1.2-1.2,1.2c-0.8,0-1.2-0.4-1.2-1.2
			V430.1z"/>
		<path class="pedicureTxt" d="M289.1,420h8c0.8,0,1.2,0.4,1.2,1.2v23.7c0,4.6,1.2,8,3.5,10.2s5.6,3.4,9.6,3.4c4.1,0,7.9-1.8,11.5-5.4
			c1.6-1.7,3-3.5,4.3-5.5v-24.1c0-0.8-0.4-1.2-1.2-1.2h-5.6c-0.8,0-1.2-0.4-1.2-1.2c0-0.8,0.4-1.2,1.2-1.2h8c0.8,0,1.2,0.4,1.2,1.2
			v35.3c0,0.8,0.4,1.2,1.2,1.2h5.6c0.8,0,1.2,0.4,1.2,1.2c0,0.8-0.4,1.2-1.2,1.2h-8c-0.8,0-1.2-0.4-1.2-1.2v-4.5
			c0-0.5-0.1-0.9-0.3-1.1c-0.2-0.2-0.5-0.1-1,0.3c-4.3,4.9-9,7.3-14.1,7.3c-5.1,0-9-1.4-11.8-4.1c-2.8-2.8-4.1-6.7-4.1-11.9v-21.3
			c0-0.8-0.4-1.2-1.2-1.2h-5.6c-0.8,0-1.2-0.4-1.2-1.2C287.9,420.4,288.3,420,289.1,420z"/>
		<path class="pedicureTxt" d="M372.6,421.6c-6.7,0-12.4,2.6-16.9,7.9c-1.3,1.5-2.4,3-3.2,4.5v22.5c0,0.8,0.4,1.2,1.2,1.2h6.4
			c0.8,0,1.2,0.4,1.2,1.2c0,0.8-0.4,1.2-1.2,1.2h-16.9c-0.8,0-1.2-0.4-1.2-1.2c0-0.8,0.4-1.2,1.2-1.2h5.6c0.8,0,1.2-0.4,1.2-1.2
			v-32.9c0-0.8-0.4-1.2-1.2-1.2h-5.6c-0.8,0-1.2-0.4-1.2-1.2c0-0.8,0.4-1.2,1.2-1.2h8c0.8,0,1.2,0.4,1.2,1.2v6.3
			c0,1.3,0.6,1.4,1.7,0.1c2-2.2,4.6-4.2,7.7-5.9c3.2-1.7,6.7-2.5,10.6-2.5h3.9c0.8,0,1.2,0.4,1.2,1.2v10c0,0.8-0.4,1.2-1.2,1.2
			s-1.2-0.4-1.2-1.2v-7.6c0-0.8-0.4-1.2-1.2-1.2H372.6z"/>
		<path class="pedicureTxt" d="M415.5,454.6c0.9-0.6,1.5-1.2,2-1.6c0.5-0.4,0.8-0.6,1.1-0.4c0.3,0.1,0.6,0.4,1,0.9c0.4,0.5,0.3,1-0.4,1.5
			c-1.9,1.7-4.1,3.1-6.7,4.3c-2.5,1.2-5.7,1.8-9.6,1.8c-5.7,0-10.2-2-13.7-5.9c-3.5-3.9-5.2-8.9-5.2-15c0-6.1,1.7-11.1,5.2-15
			c3.5-3.9,8-5.9,13.6-5.9c5.6,0,10.2,1.8,13.7,5.3s5.3,7.8,5.3,12.8v1.2c0,1.6-0.8,2.4-2.4,2.4h-31.6c-0.9,0-1.3,0.4-1.2,1.2
			c0.3,4.7,1.9,8.6,4.8,11.7c2.9,3.2,6.8,4.7,11.8,4.7S412.3,457.2,415.5,454.6z M386.6,437.5c0,0.6,0.4,1,1.1,1h30.4
			c0.8,0,1.2-0.4,1.2-1.2c0-4.3-1.6-8-4.7-11c-3.1-3.1-7.1-4.6-11.9-4.6c-4.8,0-8.7,1.7-11.7,5.1
			C388.1,430.1,386.6,433.7,386.6,437.5z"/>
	</g>
</g>
<path id="flor" class="pedicureFlor" d="M302.4,76.8C302.4,76.9,302.5,76.9,302.4,76.8c-0.3,0.1-0.6,0.1-0.9,0.2v0h0c-0.3,0.1-0.7,0.1-1,0.2
	v0h-0.1c-0.3,0.1-0.6,0.1-0.9,0.2c0,0,0.1,0,0.1,0c-1.7,0.2-3.4,0.4-5.1,0.2C297,76.7,299.9,76.1,302.4,76.8 M310.3,62.2
	c0.4-0.1,0.8-0.2,1.1-0.2c-2.7,1.8-6.2,2.5-9.5,2.2c0.7-0.2,1.5-0.4,2.2-0.5c0,0-0.1,0-0.1,0c0.6-0.1,1.1-0.2,1.7-0.3v0h0.2l0.7-0.1
	V63h0.3l0.8-0.2v0h0.1l0.8-0.2v0h0.1c0.6-0.2,1.3-0.3,1.9-0.5C310.4,62.1,310.4,62.1,310.3,62.2z M304.8,60.3c0.4,0,0.9,0,1.3,0
	c-1.6,0.5-3.2,1-4.7,1.6v0h-0.1c-0.5,0.2-0.9,0.4-1.4,0.6v0h0c-0.2,0.1-0.4,0.2-0.6,0.3c0.5-1,0.9-2,1.4-3c0.3,0.1,0.6,0.2,0.9,0.2
	h0.6v0.1C302.9,60.2,303.8,60.2,304.8,60.3z M308,47.7C308,47.7,308,47.7,308,47.7c0.3,0.1,0.6,0.2,0.9,0.3h0.1v0
	c0.3,0.1,0.6,0.1,1,0.2h0.1v0c0.4,0,0.8,0.1,1.2,0.1c-0.3,0.1-0.7,0.2-1,0.3v0h-0.1l-0.6,0.2v0h-0.1l-0.5,0.2v0H309l-0.5,0.2v0h-0.1
	l-0.5,0.2v0h-0.1l-0.3,0.1v0.1h-0.2l-0.4,0.1v0.1h-0.2l-0.5,0.2v0h-0.1c-0.3,0.1-0.7,0.3-1,0.4c0.5-1,1-2.1,1.5-3.1
	C307.1,47.5,307.6,47.5,308,47.7z M308.5,44.1c-0.1,0.1-0.2,0.1-0.3,0.1c0.4-0.8,0.8-1.5,1.2-2.3c1.3,0.1,2.6,0.4,3.9,0.6
	c-0.3,0.1-0.7,0.2-1,0.3v0h-0.1c-0.8,0.2-1.6,0.5-2.4,0.8v0h-0.1C309.2,43.7,308.8,43.9,308.5,44.1z M328.7,24.3
	c-2.6,2.6-6.5,4.1-10.2,4.4c0.6-0.2,1.3-0.4,1.9-0.6v0h0C323.2,27,325.8,25.4,328.7,24.3z M308.6,32.9c-0.1-0.1-0.1-0.3-0.2-0.4h0v0
	c-0.3-0.7-0.7-1.3-1.1-1.9c1.3,1.1,2.5,2.3,3.8,3.4l0,0v0l0.2,0.1c-0.4,0.8-0.9,1.6-1.3,2.5c-0.3-0.7-0.5-1.5-0.8-2.2v0
	C309.1,33.9,308.9,33.4,308.6,32.9z M306,41.1l-0.3-0.7v0c-0.3-0.6-0.5-1.2-0.8-1.7c1,0.7,1.7,1.8,2.9,2.3c-0.3,0.7-0.7,1.3-1,2
	c-0.1-0.4-0.3-0.7-0.4-1.1h0v0C306.2,41.6,306.1,41.4,306,41.1C306,41.1,306,41.1,306,41.1z M298.2,44.6c0,0,0.1,0.1,0.1,0.1
	c-1.6-2.5-3.6-4.9-4.4-7.8c3.1,2.1,4.4,5.8,6,9.2h0v0c0.3,0.5,0.5,1,0.8,1.5C299.8,46.6,299,45.6,298.2,44.6z M301.2,53
	c0.1,0.1,0.3,0.1,0.4,0.1c-0.6,1.1-1.1,2.3-1.6,3.4c-0.1-0.3-0.2-0.5-0.3-0.8h0v-0.1l-0.1-0.4h-0.1v-0.2l-0.2-0.5h0v0l-0.2-0.4h0
	v-0.1l-0.1-0.3h-0.1v-0.1l-0.1-0.3h-0.1v-0.2c-0.5-1.1-1.1-2.1-1.6-3.2h0v0l-0.2-0.4h0v0c-0.2-0.3-0.4-0.7-0.6-1h0v0
	c-0.3-0.6-0.7-1.2-1.1-1.7c0.2,0.2,0.4,0.4,0.6,0.7c0,0,0,0,0-0.1c0.1,0.2,0.3,0.4,0.5,0.5h0v0l0.2,0.2h0.1v0.1l0.1,0.2h0.1v0.1
	C298,50,299.7,51.5,301.2,53z M292.9,47.2C292.9,47.2,292.9,47.2,292.9,47.2c-0.3-0.8-0.6-1.6-0.8-2.5c3.1,3.3,5,7.6,6.8,11.8
	c0,0,0,0,0,0c0,0,0,0,0,0c0,0,0,0,0,0c0,0,0,0,0,0c-0.5-0.7-1-1.4-1.5-2h0v0c-0.4-0.5-0.7-1-1.1-1.5c0,0,0,0,0,0
	C295,51.1,293.8,49.2,292.9,47.2z M297.9,58.8c0.3,0.1,0.6,0.3,0.9,0.5c-0.4,0.8-0.8,1.7-1.1,2.5c-0.1-0.4-0.3-0.8-0.4-1.2h0v0
	c-0.2-0.5-0.4-1-0.6-1.4h0v0c-0.3-0.7-0.6-1.3-1-2c0.3,0.3,0.6,0.5,0.9,0.7h0v0c0.3,0.2,0.6,0.4,0.8,0.6l0,0v0
	C297.5,58.5,297.7,58.7,297.9,58.8z M289.7,52.6c-0.1-0.3-0.2-0.6-0.3-0.9c1,0.7,1.9,1.5,2.7,2.5c0,0,0,0,0-0.1
	c1.6,2,2.6,4.4,3.7,6.8c0,0,0-0.1-0.1-0.1c0.5,1,0.7,2.1,1,3.1c0,0.1-0.1,0.2-0.2,0.3c-0.1-0.2-0.2-0.4-0.3-0.6h0v-0.1
	c-0.3-0.6-0.7-1.1-1.1-1.6c0,0,0,0,0,0C292.9,59,291.1,55.9,289.7,52.6z M287.3,58.1c2.1,1.6,3.4,4,5,6c0,0,0,0,0,0
	c0,0,0.1,0.1,0.1,0.1c0,0,0,0,0,0c0.9,1.2,1.6,2.5,1.9,3.9c-0.5-0.7-1-1.3-1.5-1.9h0v0C290.7,63.6,288.3,61.2,287.3,58.1z M293.4,71
	c-0.3,0.7-0.6,1.4-1,2.1c-0.1-0.5-0.3-0.9-0.4-1.3h-0.1v-0.2c-0.1-0.2-0.1-0.3-0.2-0.5h0v-0.1c-0.5-1.1-1.1-2.2-1.6-3.3
	c0.4,0.5,0.9,1,1.4,1.5l0,0C292.1,69.9,292.7,70.5,293.4,71z M285.8,64.5c0-0.1-0.1-0.1-0.1-0.2c2.2,2.7,4,5.8,5.3,9
	c-1.9-2.9-4.1-5.7-5.3-8.9C285.7,64.4,285.7,64.4,285.8,64.5z M288.6,77.9c0.4,0.1,0.9,0.3,1.3,0.6c-0.5,1-1,2-1.5,2.9
	c-0.2-0.8-0.5-1.7-0.9-2.5v0c-0.1-0.1-0.1-0.3-0.2-0.4h0v-0.1c-0.1-0.1-0.1-0.2-0.2-0.4h0V78c-0.1-0.1-0.1-0.2-0.2-0.3h0v-0.1
	c-0.1-0.1-0.1-0.2-0.2-0.3h0v0c-0.1-0.2-0.2-0.3-0.3-0.5C287.1,77.1,287.8,77.6,288.6,77.9z M280.8,79.7c-0.1-0.1-0.1-0.3-0.2-0.4
	c0.8,0.3,1.4,0.9,2,1.4c0,0,0,0,0,0c0,0,0.1,0.1,0.1,0.1c0,0,0,0,0,0c0.9,1.2,1.8,2.4,2.6,3.6C283.7,83,282,81.5,280.8,79.7z
	 M285.2,82.1c0.3,0.2,0.6,0.5,1,0.7c0,0,0,0,0,0c0,0,0.1,0,0.1,0.1c0,0,0,0,0,0c0.1,0.1,0.3,0.1,0.4,0.2c0,0,0,0,0,0
	c0,0,0.1,0,0.1,0.1c0,0,0,0-0.1,0c0.2,0.2,0.4,0.3,0.7,0.5c0,0-0.1-0.1-0.1-0.1c0,0,0.1,0.1,0.1,0.1c0,0,0,0,0,0c0,0,0,0,0,0
	c0,0,0,0,0,0c-0.2,0.4-0.4,0.7-0.6,1.1c-0.1-0.1-0.1-0.3-0.2-0.4h0v0C286.1,83.6,285.6,82.9,285.2,82.1z M316.4,30.2
	C316.4,30.2,316.4,30.2,316.4,30.2C316.4,30.2,316.4,30.2,316.4,30.2C316.4,30.2,316.4,30.2,316.4,30.2z M289.8,74.2
	c0.6,0.3,1,0.9,1.5,1.2c-0.1,0.2-0.2,0.4-0.3,0.7C290.7,75.5,290.3,74.8,289.8,74.2z M293.3,76.1C293.3,76.1,293.3,76.1,293.3,76.1
	C293.3,76.1,293.3,76.1,293.3,76.1C293.3,76.1,293.3,76.1,293.3,76.1z M284.9,78.3c-0.7-1.1-1.5-2.2-2-3.5c0.4,0.2,0.7,0.5,1.1,0.9
	c0,0,0,0,0,0c0,0,0.1,0.1,0.1,0.1c0,0,0,0,0,0c0.4,0.4,0.7,0.8,0.9,1.3c0,0,0,0,0-0.1c0.8,1.2,1.4,2.6,1.9,4
	C286.2,80,285.5,79.2,284.9,78.3z M293.3,63.4c0.8,0.8,1.7,1.4,2.6,2.1c-0.2,0.5-0.5,1.1-0.7,1.6c-0.1-0.3-0.2-0.5-0.3-0.8h0v0
	c-0.1-0.1-0.1-0.3-0.2-0.4h0v-0.1c-0.2-0.5-0.5-1.1-0.8-1.6h0v0C293.6,64,293.5,63.7,293.3,63.4z M299.7,42c0.2,0.2,0.5,0.5,0.7,0.7
	h0.1v0.1l0.1,0.1h0.1V43l0.2,0.2h0v0l0.2,0.2h0v0c0.4,0.4,0.8,0.7,1.3,1v0c0.5,0.4,0.9,0.7,1.4,1h0v0c0.4,0.3,0.8,0.6,1.2,0.8
	c-0.6,1.3-1.3,2.5-1.9,3.8c0-0.2-0.1-0.3-0.1-0.5h0v-0.1c-0.1-0.2-0.1-0.4-0.2-0.6h0v-0.1c-0.1-0.2-0.1-0.3-0.2-0.5h0v-0.1l-0.1-0.3
	h-0.1v-0.3l-0.1-0.3h-0.1v-0.2l-0.2-0.4h0v-0.1c-0.3-0.8-0.7-1.5-1-2.2v0l-0.2-0.4h0v0l-0.2-0.4h0v0l-0.2-0.4h0v0
	C300.1,42.8,299.9,42.4,299.7,42z M313.3,30.5c-0.1-0.2-0.1-0.3-0.2-0.5h0v-0.1c-0.1-0.3-0.3-0.6-0.4-1h0v0c-0.5-1-1-2-1.5-3
	c0.8,0.9,1.3,2,2.1,2.8h0v0c0.2,0.2,0.4,0.4,0.6,0.5C313.7,29.7,313.5,30.1,313.3,30.5z M319.3,30.5c-1.8,0.9-3.7,1.7-5.5,2.7
	c0.4-0.8,0.9-1.7,1.3-2.5c0.2,0,0.3,0.1,0.5,0.1h1.3C317.6,30.7,318.4,30.6,319.3,30.5z M315.2,35.5c0.3,0.1,0.6,0.1,0.8,0.2h0.1v0
	c0.6,0.1,1.2,0.2,1.8,0.2h0.5c0.2,0,0.5,0,0.8-0.1c-0.6,0.2-1.2,0.4-1.8,0.7v0h-0.1l-0.4,0.1v0.1h-0.2l-0.5,0.2v0h-0.1L316,37v0.1
	h-0.2l-0.5,0.2v0h0l-0.4,0.2v0.1h-0.1l-0.3,0.1v0.1h-0.2l-0.4,0.2v0h-0.1l-0.4,0.2v0.1h-0.1l-0.9,0.4v0h0l-0.4,0.2v0h-0.1l-1.3,0.6
	c0.7-1.5,1.5-3,2.3-4.4C313.6,35.2,314.4,35.3,315.2,35.5z M303.5,53.5c0.2,0.1,0.4,0.1,0.7,0.1h0.1v0c0.4,0.1,0.8,0.1,1.2,0.2h0v0
	c0.9,0.1,1.8,0.2,2.8,0.4c-1.1,0.3-2.1,0.7-3.2,1.1v0h0c-1.1,0.4-2.2,1-3.2,1.6C302.4,55.7,303,54.6,303.5,53.5z M302.7,65.9
	c-0.7,0.3-1.5,0.6-2.2,0.9v0h-0.1c-0.6,0.3-1.2,0.5-1.8,0.8v0h0l-0.4,0.2v0h0l-0.4,0.2v0h0c-0.4,0.2-0.8,0.4-1.2,0.6
	c0.5-1.1,1-2.1,1.4-3.2C299.6,65.6,301.2,65.7,302.7,65.9z M297.8,71.4c-0.9,0.3-1.9,0.6-2.8,1c0.2-0.4,0.4-0.8,0.5-1.2
	c0.1,0,0.2-0.1,0.3-0.2C296.5,71.2,297.1,71.2,297.8,71.4z M304.6,72.1c-2.5,0.8-5.2,1.1-7.8,1.5C299.3,72.7,301.9,71.5,304.6,72.1z
	 M304.8,73.1c-0.8,0.7-1.9,0.9-2.9,1.2c0.1,0,0.1,0,0.2,0c-0.1,0-0.2,0-0.2,0.1c0,0,0,0,0,0c-1.9,0.4-3.8,0.6-5.8,0.5
	c0.7-0.1,1.4-0.2,2.1-0.4v0h0.1c0.2,0,0.4-0.1,0.7-0.1c0,0-0.1,0-0.1,0c0.6-0.1,1.1-0.2,1.7-0.3h0c0.7-0.1,1.4-0.3,2.1-0.4v0h0
	c0.3-0.1,0.5-0.1,0.8-0.2v0h0.1C304,73.4,304.4,73.3,304.8,73.1z M301.7,78.1c-1.4,0.9-3.2,1.1-4.9,1.1c0,0,0,0,0,0
	c-0.1,0-0.2,0-0.2,0c0.1,0,0.1,0,0.2,0c-0.9,0-1.7-0.2-2.6-0.5c0.3,0,0.6,0.1,0.9,0.1v-0.1h2.8c0.5,0,0.9-0.1,1.4-0.2v0h0.2
	C300.2,78.4,300.9,78.2,301.7,78.1z M295.9,80.8c-0.2,0-0.4,0.1-0.6,0.2v0h0l-0.6,0.2v0.1h-0.2l-0.6,0.2v0h-0.1l-0.5,0.2v0.1H293
	l-0.4,0.1v0.1h-0.2l-0.4,0.1V82h-0.2c-0.5,0.2-1.1,0.4-1.6,0.6c0.6-1.1,1.1-2.3,1.7-3.4c0.3,0.2,0.6,0.4,0.9,0.6h0v0
	c0.1,0.1,0.3,0.1,0.4,0.2h0v0c0.3,0.2,0.6,0.3,1,0.4h0.1v0c0.2,0.1,0.4,0.1,0.6,0.2h0v0C295.2,80.7,295.6,80.8,295.9,80.8z
	 M279.4,79.5c0-0.1,0-0.1,0-0.2c0.1,0.2,0.2,0.4,0.3,0.6h0.1v0.1c0.1,0.1,0.1,0.2,0.2,0.3h0v0l0.1,0.2h0.1v0.2
	c0.1,0.1,0.1,0.2,0.2,0.3h0v0l0.1,0.2h0.1v0.1c0.2,0.3,0.4,0.5,0.6,0.7h0v0l0.2,0.2h0v0l0.2,0.2h0v0l0.2,0.2h0v0l0.2,0.2h0v0
	c0.3,0.3,0.6,0.5,0.9,0.8c-0.2-0.1-0.5-0.2-0.7-0.4c0,0,0,0,0.1,0c0,0-0.1,0-0.1-0.1c0,0,0,0,0,0c-1-0.7-1.9-1.5-2.6-2.6
	c0,0,0,0,0,0c0,0,0-0.1-0.1-0.1c0,0,0,0,0,0.1C279.5,80.4,279.4,80,279.4,79.5z M281.3,74.6c0.1-0.1,0.2-0.2,0.3-0.3l0.1,0.2h0v0
	c0.1,0.2,0.1,0.4,0.2,0.6h0v0c0.1,0.1,0.1,0.3,0.2,0.4h0v0.1c0.2,0.5,0.5,1.1,0.8,1.6h0v0c0.9,1.4,1.9,2.7,2.9,4
	C283.8,79.7,280.6,77.5,281.3,74.6z M281.5,69.9C281.5,69.9,281.5,69.9,281.5,69.9c0.2,0.2,0.4,0.4,0.6,0.7h0v0l0.2,0.2h0v0l0.2,0.2
	h0v0l0.2,0.2h0v0l0.2,0.2h0v0l0.2,0.2h0v0c0.4,0.4,0.8,0.7,1.2,1h0v0c0.3,0.3,0.7,0.5,1,0.8h0v0c1.5,1.1,3,2.2,4.3,3.4
	C286.6,75.6,282.3,73.5,281.5,69.9z M283.2,69.6c0.5,0.3,0.8,0.6,1.3,0.9c0,0,0,0-0.1-0.1c1.2,0.9,2.1,2.1,3.1,3.2
	c-0.5-0.6-1.2-1-1.8-1.5h0v0c-1.2-0.9-2.4-1.7-3.2-2.9C282.7,69.4,283,69.5,283.2,69.6z M284.1,63.5c0-0.1,0-0.2,0.1-0.3
	c0.1,0.3,0.2,0.6,0.2,0.9h0v0.1c0.1,0.2,0.1,0.4,0.2,0.6h0v0c0.1,0.3,0.3,0.7,0.4,1l0,0v0c0.1,0.1,0.1,0.3,0.2,0.4h0v0l0.2,0.4h0
	v0.1l0.2,0.4h0V67c0.9,1.6,1.9,3.2,3,4.7c-0.5-0.5-1.1-1-1.6-1.6c0,0,0,0,0,0C285.6,68.3,283.6,66.2,284.1,63.5z M284,63
	C284,63,284,63,284,63C284,63,284,63,284,63z M286,58.1c0.1-0.1,0.1-0.2,0.2-0.3c0,0.1,0.1,0.2,0.1,0.3h0v0.1
	c0.1,0.2,0.1,0.4,0.2,0.5h0v0.1l0.1,0.4h0.1v0.2l0.1,0.2h0.1v0.2c0.1,0.1,0.1,0.3,0.2,0.4h0v0c0.1,0.1,0.1,0.3,0.2,0.4h0v0
	c0.2,0.4,0.4,0.7,0.6,1h0v0c0.1,0.2,0.3,0.4,0.4,0.6h0v0l0.1,0.2h0.1v0.1c0.1,0.2,0.2,0.3,0.4,0.5h0v0.1c1.6,2.1,3.5,4.1,5.1,6.2
	c0,0.1-0.1,0.1-0.1,0.2c-3.2-2.5-5.7-5.7-7.6-9.2c0,0,0,0.1,0.1,0.1C286.2,59.8,285.8,59,286,58.1z M287.4,51.2
	c0.2-0.3,0.4-0.3,0.7-0.1c0.1,0.3,0.2,0.6,0.3,0.8h0v0.1c0.1,0.2,0.1,0.3,0.2,0.5h0v0.1c0.1,0.2,0.1,0.3,0.2,0.5h0v0.1
	c0.2,0.6,0.5,1.2,0.8,1.8h0v0.1l0.2,0.3h0v0.1l0.2,0.3h0V56l0.2,0.3h0v0l0.2,0.4h0v0c1.2,2.2,2.6,4.2,4,6.2
	c-1.1-1.1-2.3-2.2-3.3-3.4c0,0,0.1,0.1,0.1,0.1c-0.2-0.3-0.4-0.6-0.7-0.8h0v0c-0.4-0.4-0.7-0.9-1.1-1.3c0,0,0.1,0.1,0.1,0.1
	C288.3,55.9,286.5,53.4,287.4,51.2z M287.6,51C287.6,51.1,287.6,51,287.6,51C287.6,51.1,287.6,51.1,287.6,51
	C287.6,51.1,287.6,51.1,287.6,51z M287.6,51C287.6,51,287.6,51,287.6,51C287.6,51,287.6,51,287.6,51z M290.2,44.6
	c0.2-0.2,0.4-0.4,0.6-0.4c0.1,0.3,0.1,0.6,0.2,0.9h0v0.1c0.1,0.2,0.1,0.4,0.2,0.5h0.1v0.2c0.2,0.6,0.4,1.1,0.6,1.7h0v0l0.2,0.4h0
	v0.1c0.4,0.8,0.8,1.6,1.2,2.4h0v0c0.3,0.6,0.7,1.1,1,1.7h0v0c0.6,0.9,1.3,1.9,2,2.7c0,0,0,0,0,0c0.8,1,1.4,2.1,2.3,3.1
	c-0.6-0.3-1-0.6-1.5-1c-0.2-0.2-0.4-0.3-0.6-0.4c0,0,0,0,0,0C293.8,53.5,288.4,49.1,290.2,44.6z M291.8,37.6c0.3-0.3,0.6-0.7,1-0.9
	c0.1,0.2,0.1,0.4,0.2,0.6h0v0.1l0.1,0.4h0.1V38l0.1,0.4h0.1v0.2c0.1,0.1,0.1,0.3,0.2,0.4h0v0.1l0.1,0.3h0.1v0.1
	c0.3,0.7,0.7,1.3,1,1.9h0v0c0.1,0.2,0.2,0.4,0.4,0.6h0.1v0.1l0.2,0.3v0c0.1,0.2,0.3,0.4,0.4,0.6h0c0.6,0.9,1.2,1.7,1.8,2.5h0v0
	c1.2,1.5,2.4,3,3.5,4.4v0c0,0,0,0.1,0.1,0.1c0,0,0,0,0,0c0.3,0.3,0.5,0.7,0.5,1.2c0-0.1,0-0.1,0-0.2c0,0.1,0,0.2,0,0.3
	C298.2,47.8,291,43.5,291.8,37.6z M294.5,31.8c0.2,0.4,0.5,0.8,0.7,1.1h0.1V33l0.2,0.3h0v0l0.1,0.2h0.1v0.1c0.1,0.2,0.3,0.4,0.4,0.5
	h0v0l0.1,0.2h0.1v0.1c0.1,0.2,0.3,0.3,0.4,0.5h0v0c0.4,0.5,0.8,1,1.3,1.5h0v0l0.2,0.2h0v0l0.2,0.2h0v0l0.2,0.2h0v0.1l0.2,0.2h0.1
	v0.1c1,1.1,2.1,2.1,3.1,3.1h0v0c1.4,1.3,2.8,2.6,4.1,4c-0.1,0.1-0.1,0.2-0.1,0.3C301,41.8,296.1,37.4,294.5,31.8z M295.7,31.5
	c4.6,1.4,7.4,6.2,9.4,10.3c-2.5-2.3-5.1-4.7-7.4-7.3c0,0,0,0,0.1,0.1c0,0-0.1-0.1-0.1-0.1c0,0,0,0,0,0
	C296.9,33.6,296.3,32.5,295.7,31.5C295.6,31.5,295.6,31.5,295.7,31.5z M298.4,25.8c0-0.1,0-0.2,0-0.3c0.2,0.4,0.3,0.8,0.5,1.2h0.1
	v0.2l0.1,0.3h0.1v0.1l0.1,0.3h0.1v0.1l0.2,0.3h0V28l0.2,0.4h0v0c0.4,0.6,0.8,1.3,1.2,1.9h0v0c0.1,0.2,0.3,0.4,0.4,0.6h0v0l0.2,0.2
	h0.1v0.1c0.2,0.3,0.4,0.5,0.6,0.8h0v0.1c0.2,0.3,0.4,0.5,0.6,0.8l0,0v0c0.4,0.5,0.8,1,1.2,1.5h0v0c0.6,0.6,1.1,1.3,1.7,1.9
	c0.9,1,1.9,2,2.8,3.1c0,0,0,0,0,0c-0.1-0.1-0.2-0.1-0.3-0.2c0,0,0,0,0.1,0c-0.1-0.1-0.1-0.1-0.2-0.2c0,0,0,0,0.1,0
	c-0.4-0.3-0.7-0.6-1.1-1h-0.1v-0.1l-0.2-0.1h0v0c-0.3-0.2-0.5-0.4-0.8-0.6h-0.1V37l-0.2-0.2h0c-0.4-0.3-0.8-0.6-1.3-0.9
	c0.1,0,0.1,0.1,0.2,0.2C301.7,33.5,298.5,30.1,298.4,25.8z M300.3,25.3c1.2,0.6,2.1,1.6,3,2.6c0,0,0,0,0,0c2.4,3,4.6,6.2,5.7,9.8
	c-2.5-2.4-4.6-5.1-6.7-7.8c0,0,0,0,0,0c0,0,0,0-0.1-0.1c0,0,0,0,0,0c-1.2-1.6-2.1-3.3-2.9-5.1C299.7,25,300,25.2,300.3,25.3z
	 M301.8,18.8c0-0.1,0-0.1,0-0.2c0.1,0.2,0.2,0.5,0.3,0.7c0,0,0-0.1-0.1-0.1c0.1,0.5,0.3,0.9,0.5,1.3h0v0.1c0,0.1,0.1,0.2,0.2,0.3
	h0.1v0.1c0.6,1.2,1.4,2.4,2.3,3.5h0v0c0.3,0.3,0.6,0.7,0.8,1h0v0c0.6,0.8,1.3,1.5,1.9,2.3C304.9,25.5,302.2,22.7,301.8,18.8z
	 M305.6,20.5c3,3.2,5.1,7.3,7,11.2c0,0,0,0,0,0.1c-0.8-0.7-1.7-1.4-2.3-2.3c0,0,0,0,0,0c-0.1-0.2-0.2-0.3-0.4-0.5h0v0
	c-0.2-0.3-0.4-0.5-0.6-0.8h0v0c-0.2-0.3-0.4-0.5-0.6-0.8h0v0c-1-1.2-2-2.4-3-3.6c0,0,0,0,0,0c-1.2-1.5-2.2-3.2-2.8-5
	c0.7,0.3,1.3,0.8,1.9,1.3h0v0C305.1,20.1,305.3,20.3,305.6,20.5z M306.8,13.2C306.8,13.2,306.8,13.2,306.8,13.2
	C306.8,13.2,306.8,13.2,306.8,13.2z M306.8,13.1C306.8,13.1,306.8,13.2,306.8,13.1C306.8,13.2,306.8,13.1,306.8,13.1z M307,12.8
	c0.1-0.2,0.3-0.3,0.5-0.3c0,0.1,0,0.2,0,0.2c0,0.2,0.1,0.4,0.1,0.6h0v0.1c0.1,0.3,0.1,0.5,0.2,0.8h0v0.1c0.1,0.2,0.1,0.5,0.2,0.7h0
	v0c0.1,0.4,0.3,0.8,0.4,1.2h0v0c0.1,0.3,0.2,0.7,0.4,1h0v0.1c0.4,1.1,0.9,2.2,1.5,3.3h0v0l0.2,0.4h0v0c0.6,1.2,1.1,2.3,1.7,3.4
	C309.2,21.6,306.2,17.1,307,12.8z M312.7,19.1C312.7,19.1,312.7,19.1,312.7,19.1c1.1,2.5,1.7,5.2,1.9,7.9c-1.6-3.2-3.2-6.5-4.6-9.7
	c0,0,0,0,0,0c-0.6-1.5-1.3-3.1-1.5-4.7C310.7,14.2,311.8,16.7,312.7,19.1z M318.6,6.6c0,0,0.1-0.1,0.1-0.1c-0.2,0.3-0.3,0.7-0.4,1
	v0.1h0c-0.3,0.7-0.5,1.5-0.6,2.3v0h0c-0.1,0.5-0.2,0.9-0.2,1.4v0.1h0c-0.4,3.7,0.1,7.6-0.8,11.2C315.7,17.3,315,11.1,318.6,6.6z
	 M318.9,13.5c-0.2,0.9-0.4,1.9-0.6,2.8c-0.1-3.1,0.1-6.1,1.2-9C319.9,9.4,319.3,11.5,318.9,13.5z M323.4,14.9
	c0.2-0.1,0.3-0.1,0.5-0.2c-1.5,2.3-2.8,4.6-4.4,6.8C320.4,19.2,321.2,16.4,323.4,14.9z M324.2,18.9c-0.4,0.6-0.9,1.2-1.4,1.7
	c0,0,0,0,0,0c-0.1,0-0.1,0.1-0.2,0.2c0,0,0.1-0.1,0.1-0.1c-0.9,0.8-1.8,1.6-2.7,2.4c1.6-2.8,3.3-5.5,5-8.3
	C325.2,16.2,324.6,17.7,324.2,18.9z M329,22.9C329,22.9,329,23,329,22.9c-0.9,0.4-1.9,0.8-2.8,1.2v0h0c-1.8,0.8-3.7,1.6-5.6,2.3
	C323.2,25.2,326.1,21.9,329,22.9z M328.5,30c0.1,0.1,0.2,0.2,0.4,0.3c-1.6,0.5-3.3,0.6-5,1v0h-0.1c-0.4,0.1-0.8,0.2-1.2,0.3
	c0.1,0,0.1,0,0.2,0c-0.3,0-0.5,0.1-0.8,0.1v0h-0.1c-0.3,0.1-0.6,0.1-0.9,0.2v0h0c-1.2,0.3-2.5,0.6-3.7,0.8c2.4-1.3,4.9-2.4,7.6-3.1
	l0,0c0,0,0,0,0.1,0c0,0,0,0,0,0c1.3-0.4,2.6-0.4,3.7,0.5C328.6,30,328.6,30,328.5,30z M325.7,33.8c-2.5,0.9-5.2,0.8-7.8,1
	c0,0,0,0,0,0c-0.8,0-1.6-0.2-2.4-0.4c0.6,0,1.2-0.1,1.7-0.2v0h0.3c1.5-0.3,3-0.8,4.5-1.1c-0.1,0-0.1,0-0.2,0c2-0.5,4.1-0.8,6.1-1.2
	v0h0.1c0.3-0.1,0.6-0.1,0.9-0.2C328.2,32.8,326.9,33.4,325.7,33.8z M325.6,36.9L325.6,36.9c-1.9,0.5-3.8,1-5.7,1.4c0,0,0,0,0.1,0
	c-1.8,0.3-3.6,0.9-5.3,1.3C318,38.6,322.1,34.8,325.6,36.9z M324.9,39.1c-0.3,0.3-0.7,0.5-1.1,0.8c0,0,0,0,0.1,0
	c-0.1,0-0.1,0.1-0.2,0.1c0,0,0,0,0.1,0c-1.8,0.9-3.7,1.6-5.7,1.6c0,0,0.1,0,0.1,0c-0.1,0-0.2,0-0.3,0c0.1,0,0.1,0,0.2,0
	c-1.1-0.1-2.3-0.1-3.4-0.1c0,0,0,0,0,0c-0.6,0-1.2-0.1-1.8-0.2c0.2,0,0.5-0.1,0.7-0.1v0h0.1c0.3-0.1,0.5-0.1,0.8-0.2v0h0.1
	c0.2-0.1,0.5-0.1,0.7-0.2v0h0.1l0.7-0.2v0h0c1.2-0.3,2.4-0.7,3.6-0.9c0,0,0,0-0.1,0c2-0.4,4-1,6-1.5
	C325.4,38.4,325.2,38.8,324.9,39.1z M322.7,42.9c-0.5,0.1-0.9,0.2-1.4,0.3c0,0,0,0,0.1,0c-4.1,0.8-8.1,1.7-12.2,2.1
	c2-1,4.1-1.7,6.3-2.3c0,0,0,0-0.1,0c1.4-0.4,2.8-0.4,4.2-0.5v0h0.4c0.3,0,0.7-0.1,1-0.2c0,0-0.1,0-0.1,0c0.1,0,0.2,0,0.3,0
	c0,0,0,0-0.1,0C321.6,42.4,322.2,42.6,322.7,42.9z M321.5,45c-2.9,1.3-6.1,2.1-9.3,2.1c0,0,0,0,0,0c-1.4,0-2.9-0.1-4.2-0.6
	c0.6-0.1,1.3-0.2,1.9-0.2v0h0.3c0.4-0.1,0.8-0.1,1.1-0.2v0h0.3c0.4-0.1,0.8-0.1,1.2-0.2v0h0.2c0.4-0.1,0.7-0.1,1.1-0.2v0h0.1
	c0.7-0.1,1.5-0.3,2.2-0.4v0h0.1l0.9-0.2v0h0.1l0.9-0.2v0h0.1l0.9-0.2v0h0.1l1-0.2v0h0c0.6-0.1,1.1-0.2,1.7-0.4c0,0,0,0,0,0
	c0,0,0.1,0,0.1,0c0,0,0,0,0,0c0.2,0,0.4-0.1,0.6-0.1C322.6,44.3,322.1,44.7,321.5,45z M320.6,48.9c-0.1,0-0.1,0-0.2,0
	C320.4,48.9,320.4,48.9,320.6,48.9L320,49c-1,0.2-2,0.4-2.9,0.7c0,0,0.1,0,0.1,0c-1.5,0.3-3,0.5-4.5,0.6v0h0
	c-0.6,0.1-1.2,0.1-1.8,0.2v0h-0.3c-0.6,0.1-1.3,0.2-1.9,0.3c0.8-0.2,1.7-0.5,2.6-0.9v0h0C314.3,48.6,317.7,47,320.6,48.9z M320,50.7
	c-4.2,3.5-10.2,2.2-15.2,1.7c0.8-0.1,1.6-0.2,2.5-0.3v0h0.1c0.6-0.1,1.2-0.1,1.8-0.2v0h0.1c0.5-0.1,1.1-0.1,1.6-0.2v0h0.2
	c0.9-0.1,1.8-0.2,2.7-0.4v0h0.3c0.3,0,0.6-0.1,0.9-0.1v-0.1h0.4L316,51v-0.1h0.5l0.5-0.1v-0.1h0.5l0.5-0.1v-0.1h0.5l0.6-0.1v-0.1
	h0.3c0.3-0.1,0.6-0.2,0.9-0.2c0,0,0,0-0.1,0c0.1,0,0.2,0,0.3-0.1C320.4,50.2,320.2,50.5,320,50.7z M315.6,55.3l-1.1,0.2v0h-0.1
	c-0.3,0.1-0.7,0.1-1,0.2v0h-0.3c-0.3,0.1-0.7,0.1-1,0.2v0h-0.1c-0.2,0-0.5,0.1-0.7,0.2c0,0,0,0,0,0c-0.4,0.1-0.7,0.1-1.1,0.2v0h-0.2
	c-0.3,0.1-0.6,0.1-0.8,0.2v0h-0.1l-0.8,0.2v0h-0.1l-0.8,0.2v0h0c-1.5,0.4-3,0.8-4.6,1c0.4-0.3,0.8-0.5,1.2-0.8c0,0,0,0,0,0
	c0.1,0,0.1-0.1,0.2-0.1c0,0,0,0,0,0l0.4-0.2v0h0C307.9,55.6,312.8,52.8,315.6,55.3z M313.9,57.6c-3.5,1.6-7.5,1.7-11.3,1.5
	c0.1,0,0.2-0.1,0.3-0.1c0,0,0,0,0,0c0,0,0.1,0,0.1,0c0,0,0,0,0,0c0.4-0.1,0.7-0.1,1.1-0.2v0h0.1c0.2,0,0.5-0.1,0.7-0.1v-0.1h0.3
	c0.2-0.1,0.5-0.1,0.7-0.2v0h0.2c0.3-0.1,0.6-0.1,0.8-0.2v0h0c1.9-0.5,3.8-1,5.8-1.4c0,0,0,0,0,0c0.9-0.2,1.8-0.3,2.8-0.4
	C315.1,57,314.5,57.3,313.9,57.6z M311.8,60.8c0,0-0.1-0.1-0.1-0.1C311.7,60.7,311.8,60.8,311.8,60.8c-0.6,0.1-1.1,0.2-1.7,0.3v0
	H310l-0.7,0.2v0h-0.2l-0.9,0.2v0h0l-0.8,0.2v0h-0.1l-1.3,0.3c0,0,0,0,0,0c-0.9,0.2-1.8,0.3-2.7,0.6c2.6-0.8,5.6-2.9,8.3-1.9
	c0,0-0.1-0.1-0.1-0.1C311.6,60.7,311.7,60.7,311.8,60.8z M310.1,66.2c0,0,0.1,0,0.1,0c-0.1,0-0.2,0-0.4,0.1
	C309.9,66.3,310,66.3,310.1,66.2c-3.3,0.9-6.5,1.6-9.8,2.1c2.4-1,4.8-2.4,7.5-2.3c-0.1,0-0.1,0-0.2,0l0.3,0h0.1v0l0.6,0
	c-0.1,0-0.1,0-0.2,0C309,66,309.6,66,310.1,66.2z M309.7,68.3c-1.1,0.8-2.4,1.2-3.7,1.5c0,0,0,0,0,0c-2.5,0.5-5.1,0.6-7.6,0.3
	c0.6,0,1.1-0.1,1.7-0.2v0h0.2c0.8-0.1,1.7-0.3,2.5-0.4v0h0c0.8-0.1,1.5-0.3,2.3-0.4c0,0,0,0,0,0c0.1,0,0.2,0,0.3-0.1
	c0,0-0.1,0-0.1,0c1.6-0.4,3.2-0.9,4.9-1.2c0,0,0,0,0,0c0,0,0,0,0,0c0,0,0,0,0,0c0,0,0,0,0,0C310.1,68,309.9,68.1,309.7,68.3z
	 M300.7,82.1C300.7,82.1,300.7,82.1,300.7,82.1c-2.1,0.3-4.3-0.1-6.3,0.4C296.4,82.1,298.6,81.4,300.7,82.1z M293.8,83.8
	c1.6-0.5,3.2-0.4,4.8-0.5v0h0.9c0.4,0,0.8,0,1.1-0.1c-0.4,0.3-0.8,0.4-1.2,0.6c0,0,0,0,0,0C297.6,84.1,295.7,84.1,293.8,83.8z
	 M295,87.3C295.1,87.3,295.1,87.3,295,87.3c-0.3,0-0.8-0.1-1.2-0.2h0v0c-1-0.2-2.1-0.3-3.1-0.4h-0.2v0c-0.4,0-0.9-0.1-1.4-0.1
	c0,0,0,0,0.1,0c0,0-0.1,0-0.1,0c0,0,0,0,0,0c-0.3,0-0.5-0.1-0.8-0.2c0-0.1,0.1-0.2,0.1-0.2C290.6,85.5,293.1,86.2,295,87.3z
	 M290.8,87.8C290.8,87.8,290.8,87.8,290.8,87.8c-0.1,0-0.2-0.1-0.3-0.1c1.3,0.1,2.5,0.3,3.8,0.6C293.2,88.4,292,88.1,290.8,87.8z
	 M399,108c-2.3-0.8-4.6-1.4-6.8-2.5c2.2,0.4,4.4,0.7,6.5,1.5c0,0,0,0,0,0c0.9,0.4,1.9,0.7,2.5,1.6c-0.7-0.1-1.3-0.3-1.9-0.5
	c0,0,0,0,0,0c0,0-0.1,0-0.1,0c0,0,0.1,0,0.1,0C399.2,108.1,399.1,108.1,399,108c0.1,0,0.1,0,0.1,0C399.1,108,399,108,399,108
	C399,108,399,108,399,108z M403.2,103.3C403.2,103.3,403.2,103.3,403.2,103.3c-0.1,0-0.3-0.1-0.4-0.1h-0.2v-0.1
	c-0.3-0.1-0.6-0.1-0.9-0.2h-0.1v0c-1.1-0.1-2.1-0.2-3.2-0.5c2.8-0.1,5.7,0.3,8.2,1.4C405.4,103.6,404.3,103.6,403.2,103.3z
	 M419,94.3c0.7,0.3,1.3,0.8,1.8,1.3c-3.2-0.7-6.3-1.7-9.4-2.6c1.2,0,2.3,0.1,3.4,0.3c-0.1,0-0.2-0.1-0.3-0.1
	C415.9,93.8,417.6,93.5,419,94.3C418.9,94.3,418.9,94.3,419,94.3c0,0,0.1,0,0.2,0.1C419.1,94.4,419,94.4,419,94.3z M426.8,78.7
	c-2,0.1-3.9-0.2-5.9,0.2c0.9-0.7,1.7-1.5,2.6-2.2c0.5,0.6,1.1,0.9,1.8,1.2l0,0c0.8,0.3,1.7,0.5,2.4,0.9
	C427.4,78.7,427.1,78.7,426.8,78.7C426.8,78.7,426.8,78.7,426.8,78.7z M425.7,71.7C425.7,71.8,425.8,71.8,425.7,71.7
	C425.8,71.8,425.7,71.7,425.7,71.7C425.7,71.7,425.7,71.7,425.7,71.7z M425.7,71.7C425.7,71.7,425.7,71.6,425.7,71.7
	C425.7,71.6,425.7,71.7,425.7,71.7C425.7,71.7,425.7,71.7,425.7,71.7z M426,72.2c-0.4,0.4-0.8,0.8-1.3,1.2c0.1-0.1,0.1-0.1,0.2-0.2
	c-0.1,0-0.1,0.1-0.2,0.1l0-0.3h0v-0.2v-0.2c0-1.1-0.2-2.2-0.3-3.3C424.9,70.3,425.4,71.2,426,72.2z M425.6,71.4
	c0,0.1,0.1,0.1,0.1,0.2C425.6,71.5,425.6,71.5,425.6,71.4z M420.1,58.9c0.9,1.2,1.4,2.6,1.8,4.1c0,0,0-0.1,0-0.1
	c0.9,3,1.1,6.1,1.5,9.2c0-0.1-0.1-0.1-0.1-0.2c0,0,0,0.1,0,0.1c-1.4-3.5-2.8-7-3.3-10.7c0,0,0,0.1,0,0.1
	C419.9,60.5,419.9,59.7,420.1,58.9z M413.5,77c0-0.5-0.1-1.1-0.1-1.6c0.1,0.3,0.3,0.7,0.4,1h0.1v0.1l0.1,0.3h0.1v0.1
	c0.4,0.7,0.8,1.5,1.2,2.2h0v0c0.3,0.5,0.6,0.9,0.9,1.4c-0.9,0.7-1.8,1.5-2.7,2.2c0.1-0.6,0.1-1.1,0.1-1.7v-0.7h0c0-0.4,0-0.7,0-1h0
	v-0.2C413.6,78.4,413.5,77.7,413.5,77z M407.1,83.7c0-0.7-0.1-1.4-0.1-2c0.1,0.3,0.2,0.5,0.3,0.8h0v0c0.1,0.1,0.1,0.3,0.2,0.4h0v0.1
	l0.2,0.4h0v0.1c0.3,0.5,0.5,0.9,0.8,1.4h0v0c0.3,0.4,0.6,0.8,0.8,1.2c-1,0.8-1.9,1.6-2.9,2.4c0.1-0.2,0.1-0.4,0.2-0.6v-0.2h0
	c0.1-0.3,0.1-0.7,0.2-1v0l0,0C407.1,85.7,407.1,84.7,407.1,83.7z M397.7,83.1c0-0.3,0-0.7,0.1-1c3.1,2.7,2.3,7.9,1.9,11.6
	C398.7,90.3,398.1,86.7,397.7,83.1C397.7,83.2,397.7,83.2,397.7,83.1C397.7,83.1,397.7,83.1,397.7,83.1
	C397.7,83.1,397.7,83.1,397.7,83.1z M391.7,100.9c-0.6,0.5-1.3,1-1.9,1.5c0.2-0.6,0.3-1.3,0.4-2v0h0c0.1-0.8,0.2-1.6,0.1-2.4
	c0.2,0.5,0.5,1,0.7,1.5l0,0v0l0.2,0.4h0v0l0.2,0.4h0v0L391.7,100.9z M386.4,103.5c0.3,0.3,0.2,0.8,0.6,1.1c-0.1,0.1-0.2,0.2-0.3,0.3
	C386.7,104.4,386.5,104,386.4,103.5z M395.5,96.9c0-0.1,0.1-0.3,0.1-0.4v0h0c0.1-0.3,0.1-0.6,0.2-0.9v-0.3h0.1
	c0.1-0.4,0.1-0.9,0.2-1.3c0.4,0.8,0.8,1.6,1.2,2.4c-0.7,0.6-1.4,1.2-2.2,1.8C395.3,97.7,395.4,97.3,395.5,96.9z M402,88.5
	c0.2,0.4,0.3,0.7,0.5,1h0v0c0.3,0.5,0.6,1,0.9,1.5c-0.7,0.6-1.3,1.1-2,1.7c0.1-0.3,0.2-0.7,0.2-1v-0.1h0
	C401.9,90.6,402.1,89.6,402,88.5z M418.8,75.3c0-0.5-0.1-0.9-0.1-1.4h0v-0.4c0-0.4-0.1-0.9-0.1-1.3h-0.1v-0.6c0-0.4-0.1-0.8-0.2-1.3
	h-0.1V70c-0.1-0.6-0.2-1.2-0.3-1.8c0.3,0.8,0.7,1.5,1.1,2.2h0v0c1,1.7,2.3,3.2,3.6,4.8c-1.3,1.2-2.6,2.3-3.9,3.3
	C418.9,77.4,418.8,76.4,418.8,75.3z M429.5,74.2c-0.9,0.1-1.8,0.1-2.7,0.3v0h-0.2c-0.2,0.1-0.5,0.1-0.7,0.2c0.7-0.6,1.3-1.2,2-1.8
	c0,0.2,0.1,0.4,0.3,0.6h0v0C428.4,73.9,429,74,429.5,74.2z M411.5,88.5c0.4,0.4,0.8,0.7,1.3,1.1v0c0.5,0.4,1,0.7,1.5,1
	c-0.6-0.1-1.1-0.1-1.7-0.2h-0.7v0c-1.3-0.1-2.5-0.1-3.8,0v0h-0.5c-0.2,0-0.4,0-0.6,0.1c1.1-1,2.2-1.9,3.3-2.8c0.1,0,0.2,0.1,0.3,0.1
	c0.1,0.1,0.2,0.3,0.4,0.4l0,0v0C411.2,88.2,411.4,88.4,411.5,88.5z M407.4,94.9c0.4,0.2,0.7,0.5,1.1,0.7c-0.6-0.1-1.2-0.2-1.7-0.2
	h-1.1v0c-0.6,0-1.1,0-1.7,0v0h-0.4c-0.7,0-1.4,0.1-2.1,0.2v0h-0.1l-0.4,0c1.1-1,2.3-1.9,3.4-2.9C405.3,93.5,406.4,94.2,407.4,94.9z
	 M413.1,99.2c0.7,0.4,1.3,0.8,1.7,1.5c-4-1-8-2.1-11.9-3.5C406.4,96.8,410.2,97.1,413.1,99.2z M401.4,99.5c0.5,0.3,1,0.5,1.5,0.7
	c-0.3-0.1-0.7-0.1-1-0.2h-0.4V100c-0.4-0.1-0.8-0.1-1.2-0.1H400v0c-0.7-0.1-1.4-0.1-2.1-0.1v0.1h-1.2c-0.3,0-0.6,0.1-0.9,0.1
	c0.9-0.8,1.8-1.5,2.7-2.3c0.1,0.1,0.2,0.2,0.3,0.3h0v0C399.7,98.5,400.6,99,401.4,99.5z M395.4,104.6c-0.4-0.1-0.8-0.1-1.2-0.2h-0.1
	v0c-0.4-0.1-0.7-0.1-1.1-0.2h-0.3v0c-0.3,0-0.6-0.1-0.9-0.1c0,0,0,0,0,0c-0.2,0-0.5-0.1-0.8-0.1c0.5-0.4,1-0.9,1.6-1.3
	c0.2,0.1,0.3,0.2,0.5,0.3c0.2,0.2,0.3,0.3,0.5,0.5h0v0C394.3,103.8,394.9,104.2,395.4,104.6z M388.9,106.5c0.1,0.2,0.3,0.3,0.5,0.5
	c-0.5-0.2-1-0.3-1.5-0.4c0.2-0.2,0.4-0.3,0.6-0.5C388.6,106.2,388.7,106.4,388.9,106.5z M395.5,111.2c0.2,0.2,0.5,0.4,0.7,0.7
	c-2.7-1.2-5.3-2.6-8-3.9c0,0,0,0,0,0c-0.2-0.1-0.4-0.3-0.6-0.4C390.5,108.4,393.1,109.6,395.5,111.2z M380.8,98.2
	c0.1-0.3,0.1-0.6,0.3-0.8c0,0.2,0.1,0.4,0.1,0.5h0v0c0,0.2,0.1,0.4,0.2,0.6h0.1v0.2l0.1,0.4h0.1v0.3l0.1,0.3h0.1v0.3
	c0.1,0.2,0.1,0.4,0.2,0.5h0v0c0.1,0.3,0.3,0.7,0.4,1h0v0l0.2,0.4h0v0.1l0.2,0.3h0.1v0.1l0.1,0.3h0.1v0.1l0.1,0.3h0.1v0.1l0.1,0.3
	h0.1v0.1c0.2,0.5,0.5,0.9,0.8,1.4c0,0,0-0.1,0-0.1c0,0,0,0.1,0.1,0.1c0,0,0,0,0,0c0,0.1,0.1,0.2,0.1,0.3c-0.2-0.2-0.3-0.4-0.5-0.6
	c0,0,0,0,0,0c0,0-0.1-0.1-0.1-0.1c0,0,0,0,0,0C382.6,102.9,380.7,100.8,380.8,98.2z M382.7,98c1.5,2.1,2.1,4.6,2.6,7.1
	c-1.1-2-2-4.1-2.8-6.2c0,0,0,0.1,0,0.1c-0.1-0.5-0.2-1.1-0.3-1.6C382.4,97.6,382.6,97.8,382.7,98z M385.3,93.3
	c0.1-0.1,0.1-0.2,0.2-0.4c0,0.3,0,0.7,0.1,1h0.1v0.5c0,0.2,0.1,0.5,0.1,0.7h0.1v0.5c0.3,1.4,0.8,2.9,1.1,4.3c0,0,0,0,0-0.1
	c0.1,0.5,0.3,1,0.4,1.5c0,0,0-0.1,0-0.1c0.1,0.4,0.2,0.7,0.3,1.1C386.1,99.7,384.5,96.4,385.3,93.3z M387.3,93.3
	c0.3,0.5,0.6,1,0.9,1.6c0,0,0-0.1-0.1-0.1c0,0.1,0,0.1,0.1,0.2c0.7,1.8,0.8,3.7,0.6,5.6c0-0.1,0-0.1,0-0.2c-0.1,0.5-0.2,1-0.3,1.5
	c-0.1-0.3-0.1-0.5-0.2-0.8c0,0,0,0.1,0,0.1c0-0.1-0.1-0.2-0.1-0.3c0,0,0,0.1,0,0.1l-0.1-0.6h0v0c-0.1-0.4-0.2-0.8-0.3-1.2
	c0,0,0,0.1,0,0.1c-0.5-2.1-1.1-4.3-1.1-6.5C387,93,387.1,93.2,387.3,93.3z M390.3,88c0.1-0.2,0.3-0.4,0.5-0.4c0,0.5,0,0.9,0,1.4h0.1
	v0.9c0.1,0.6,0.1,1.2,0.2,1.8h0v0.1c0.1,0.5,0.1,0.9,0.2,1.4h0v0c0.1,0.4,0.1,0.8,0.2,1.2h0v0c0.1,0.7,0.2,1.4,0.3,2.1
	C390.4,94,389.1,90.8,390.3,88z M393.1,89.2c1.6,3,0.7,6.4,0,9.5c0,0-0.1-0.1-0.1-0.1c0-0.7-0.1-1.3-0.2-2h0v-0.1
	c-0.1-0.5-0.1-0.9-0.2-1.4h0v0c-0.4-2.4-1-4.9-0.9-7.4c0,0,0,0,0,0.1c0,0,0-0.1,0-0.1C392.5,87.9,392.8,88.7,393.1,89.2z M396,82.6
	c0.2-0.3,0.4-0.6,0.7-0.8c0,1.7,0.1,3.4,0.3,5h0V87c0.2,1.1,0.4,2.1,0.6,3.2h0v0.1c0.3,1.2,0.6,2.4,0.9,3.6c-0.5-0.6-0.9-1.3-1.3-2
	c0,0,0,0,0,0.1C395.8,89.3,394.8,85.6,396,82.6z M401.7,76.3c0.1-0.1,0.1-0.2,0.2-0.2c0,0.3,0,0.6,0,1h0.1v1.3c0,0.5,0.1,1,0.2,1.5
	h0v0.1c0.1,0.3,0.1,0.6,0.2,1h0v0.1c0.6,2.7,1.6,5.3,2.1,7.9C402,85.3,400.2,80.5,401.7,76.3z M403.5,76.6c1.8,3.4,2.1,7.5,1.9,11.3
	c-1.2-3.8-2.6-7.8-2.5-11.8C403.1,76.2,403.3,76.4,403.5,76.6z M407.5,71c0.2-0.3,0.4-0.6,0.7-0.8c-0.2,0.9-0.2,1.9-0.1,2.8
	c0,0,0,0,0,0c0,0.2,0,0.3,0,0.5h0v0.1c0.1,0.5,0.1,0.9,0.2,1.4h0V75c0.3,1.4,0.6,2.9,1,4.3l0,0v0c0.4,1.5,0.9,3,1.4,4.6
	c-0.4-0.4-0.7-0.9-1-1.5c0,0,0,0,0,0C408,79.1,406.1,74.8,407.5,71z M410.5,72.5c1,3.4,1.4,7.1,1.2,10.7c-1-3.5-2.2-6.9-2.5-10.5
	l0,0c-0.1-0.6-0.1-1.3,0-1.9c0,0,0,0,0,0c0-0.1,0.1-0.3,0.1-0.4C409.9,70.9,410.3,71.7,410.5,72.5z M413.5,64.7
	c0.1-0.1,0.2-0.3,0.4-0.4c0,0.2,0,0.5-0.1,0.7v1.7c0,0.6,0.1,1.2,0.2,1.7h0v0.2c0.1,0.3,0.1,0.7,0.2,1h0v0.1
	c0.1,0.3,0.1,0.6,0.2,0.9h0v0c0.1,0.3,0.1,0.5,0.2,0.8h0v0c0.2,0.7,0.4,1.4,0.6,2.1h0v0c0.3,0.8,0.6,1.7,0.8,2.5l0,0v0l0.5,1.3
	c-0.3-0.4-0.6-0.8-0.9-1.3c0,0,0,0,0,0C414,72.8,412.1,68.5,413.5,64.7z M415.3,65c1.6,3.9,2.1,8.2,2.4,12.4
	c-0.2-0.4-0.3-0.8-0.5-1.2c0,0,0,0,0,0c-1.3-3.7-2.7-7.7-2.4-11.7C415.1,64.7,415.2,64.9,415.3,65z M417.5,61c0-0.9,0.2-2,1-2.5
	c0,0.8,0,1.5,0.1,2.2h0V61c0.1,0.7,0.2,1.3,0.4,2h0v0c0.2,0.7,0.4,1.4,0.6,2.1c0.5,1.5,1.1,3,1.6,4.6c0,0,0-0.1,0-0.1
	c0.2,0.4,0.3,0.8,0.5,1.3C419.4,68.1,417.7,64.6,417.5,61z M423.7,54.1c0,0,0.1-0.1,0.1-0.1c-0.1,0.9-0.1,1.7,0,2.6h0.1v0.6
	c0,0.4,0.1,0.7,0.2,1.1h0v0.2c0.1,0.3,0.1,0.6,0.2,0.9h0v0.1c0.1,0.2,0.1,0.5,0.2,0.7h0v0.1c0.1,0.5,0.3,0.9,0.4,1.4h0v0.1l0.2,0.6
	h0v0.1c0.5,1.6,1.1,3.2,1.7,4.8c0,0,0,0,0,0c0.3,0.8,0.6,1.7,0.8,2.5c-1.6-2.2-2.8-4.8-3.5-7.4c0,0,0,0.1,0,0.1
	C423.6,59.6,422.2,56.8,423.7,54.1z M425.9,55.8c1.3,2.2,1.4,4.8,1.5,7.3v0c0,0.7,0.1,1.4,0.2,2h0v0.4c0.1,0.5,0.2,1,0.3,1.6
	c-0.1-0.4-0.3-0.7-0.4-1.1c0,0,0,0,0,0c-1.1-3.2-2.2-6.4-2.7-9.8c0,0,0,0.1,0,0.1c-0.1-0.7-0.1-1.5,0-2.2
	C425.2,54.6,425.6,55.2,425.9,55.8z M430.1,50.7c0.3-0.9,0.6-1.9,1.2-2.7c0,0.2-0.1,0.4-0.1,0.6h0v0.2h-0.1
	c-0.1,0.4-0.1,0.7-0.2,1.1v0.8h-0.1c-0.1,1.1,0,2.2,0,3.3h0v0.6c0,0.4,0.1,0.7,0.1,1.1c0,0,0,0,0-0.1c0,0,0,0.1,0,0.1c0,0,0,0,0,0
	c0.3,3.7,0.4,7.4,0.1,11.1c0,0.1-0.1,0.1-0.1,0.2C429.1,61.8,428.5,56,430.1,50.7c0,0.1,0,0.1-0.1,0.2
	C430.1,50.8,430.1,50.7,430.1,50.7C430.1,50.6,430.1,50.6,430.1,50.7z M434.4,56c-0.1,2-0.4,3.9-1,5.8c0,0,0,0,0,0
	c0,0.1-0.1,0.2-0.1,0.3c0-0.1,0-0.2,0.1-0.3c-0.3,1-0.7,2-1.1,3c0.1-0.7,0.1-1.4,0.1-2.1v-1.5c0-1.2-0.1-2.4-0.2-3.6h0v-0.4
	c-0.1-0.7-0.1-1.5-0.2-2.2c0,0,0,0.1,0,0.1c-0.1-2.3-0.3-4.7,0.3-6.9C434.9,49.9,434.5,53.3,434.4,56z M443.2,47.8
	c0.1-0.1,0.3-0.2,0.4-0.3c-0.3,0.3-0.5,0.6-0.7,0.9v0.1h-0.1l-0.1,0.2v0h0c-0.1,0.2-0.3,0.4-0.4,0.6v0.1h0c-0.1,0.2-0.3,0.4-0.4,0.6
	v0.1h0c-0.5,0.8-1,1.6-1.4,2.5v0h0l-0.2,0.4v0h0l-0.2,0.4v0h0l-0.2,0.4v0h0l-0.2,0.4h0c-0.3,0.6-0.6,1.2-0.8,1.9v0h0
	c-0.7,1.7-1.4,3.3-2.1,5c0.3-1,0.7-2,1-3c0,0,0,0,0,0.1C438.5,54.3,439.9,50.4,443.2,47.8z M440.2,56.8c-0.5,0.7-1,1.3-1.5,1.9
	c0.1-0.2,0.2-0.5,0.3-0.7c0,0,0-0.1,0-0.1c0,0,0,0,0,0.1c1.6-3.4,3.1-7.1,5.6-10C444.1,51.3,441.9,54.1,440.2,56.8z M449.5,57.8
	C449.5,57.8,449.5,57.8,449.5,57.8c-0.4,0.2-0.8,0.4-1.2,0.6v0h-0.1l-0.3,0.2v0h-0.1l-0.3,0.2v0h-0.1l-0.3,0.2v0H447l-0.3,0.2v0
	h-0.1l-0.4,0.2v0h0l-0.4,0.2v0h0c-0.6,0.3-1.2,0.7-1.9,1v0h0l-0.4,0.2v0l0,0c-2.3,1.3-4.5,2.6-6.8,3.8c1-0.9,2-1.8,3.1-2.8v0h0
	c0.4-0.3,0.7-0.6,1.1-1c-0.1,0.1-0.2,0.1-0.2,0.2c1.4-1.2,2.7-2.5,4.3-3.3c0,0,0,0-0.1,0c0.1,0,0.2-0.1,0.2-0.1
	c-0.1,0-0.1,0.1-0.2,0.1C446.2,57.3,448.5,56.1,449.5,57.8z M444.3,63.5c-3.2,1.5-6.6,2.5-9.9,3.6c0.1-0.1,0.1-0.1,0.2-0.2
	c0.4-0.2,0.8-0.4,1.2-0.6v0h0l0.4-0.2v0h0l0.4-0.2v0h0l0.4-0.2v0h0l0.4-0.2v0h0c1.4-0.7,2.8-1.5,4.2-2.3h0c2.6-1.5,5.2-3,7.8-4.2
	C448.6,61.2,446.3,62.4,444.3,63.5z M445.2,70.3c-0.9,0-1.9,0-2.8,0v0h-6.1c-0.8,0-1.6,0-2.4,0C437.6,69.3,441.6,68.9,445.2,70.3z
	 M441.1,73.1C441.1,73.1,441.2,73.1,441.1,73.1c0,0-0.1,0-0.2,0c0,0,0,0,0.1,0c-0.9,0-1.8-0.1-2.7-0.1c0.1,0,0.2,0,0.3,0
	c-0.1,0-0.3,0-0.4,0c0,0,0.1,0,0.1,0c-2.5-0.1-5.1-0.3-7.4-1.4c0.9,0.1,1.8,0.1,2.6,0.2h3.3v0c2.8,0,5.7-0.1,8.5-0.1
	C444.4,73.1,442.6,73.2,441.1,73.1z M441.5,77.6C441.5,77.6,441.5,77.6,441.5,77.6c-3.2-0.1-6.4-0.5-9.6-0.8h-0.1v0
	c-1-0.1-2.1-0.2-3.1-0.3c0.3,0,0.7-0.1,1-0.1v0h0C433.7,75.8,438.5,74.6,441.5,77.6z M435.3,79.1c-2.2-0.4-4.4-0.8-6.5-1.5
	c1.7,0.1,3.4,0.3,5.2,0.5h0.2v0l2.1,0.2h0.4v0c0.7,0.1,1.4,0.1,2.1,0.2h0.2v0c0.8,0.1,1.6,0.1,2.4,0.2c-0.4,0.4-0.8,0.6-1.3,0.7
	c0.1,0,0.1,0,0.2-0.1C438.6,79.7,436.9,79.5,435.3,79.1z M435.4,84.6C435.4,84.6,435.4,84.6,435.4,84.6c-3-0.8-6-1.7-9-2.5h-0.1v0
	c-0.5-0.1-0.9-0.3-1.4-0.4h0v0c-0.7-0.2-1.5-0.4-2.2-0.6c1.2,0,2.5,0.1,3.8,0c-0.1,0-0.2,0-0.3,0c0.1,0,0.2,0,0.4,0c0,0,0,0,0,0
	c0.3,0,0.6,0,0.9,0c-0.1,0-0.2,0-0.3,0C430,81.4,434.4,81.2,435.4,84.6z M419.9,81.5c4.1,0.8,8.1,2.1,12.1,3.2h0v0l1.4,0.4h0v0
	c0.5,0.1,1,0.3,1.6,0.4C429.8,87.7,424.6,83.3,419.9,81.5z M419.9,81.5C419.9,81.5,419.9,81.5,419.9,81.5
	C419.9,81.5,419.9,81.5,419.9,81.5z M418.7,81.8c0,0,0.1,0,0.1,0C418.8,81.8,418.8,81.8,418.7,81.8L418.7,81.8z M428.8,90
	c-0.2,0-0.5-0.1-0.7-0.1c0,0,0,0,0,0c0,0-0.1,0-0.1,0c0,0,0,0,0,0c-0.4-0.1-0.8-0.1-1.1-0.2c0,0,0,0,0,0c-4.1-0.7-8.1-1.7-12.1-2.7
	C419.6,86.5,425.1,86.5,428.8,90z M423.2,92.5c-0.6-0.1-1.1-0.2-1.7-0.4c0,0,0,0,0,0c-0.1,0-0.1,0-0.2,0c0,0,0.1,0,0.1,0
	c-3.3-1.1-6.7-2.2-9.3-4.5c0,0,0,0,0,0c0,0-0.1-0.1-0.1-0.1c0,0,0,0,0,0c0,0-0.1-0.1-0.1-0.1c0,0,0,0,0.1,0c0.7,0.2,1.4,0.5,2.1,0.7
	h0.1v0c0.5,0.1,1,0.3,1.4,0.4h0v0c0.3,0.1,0.5,0.1,0.8,0.2h0v0c2,0.5,4,0.9,6,1.2h0v0c1.7,0.3,3.4,0.6,5.1,0.9c0,0,0,0,0,0
	c0.1,0,0.3,0,0.4,0.1c0,0,0,0,0,0c0.3,0.1,0.6,0.1,0.9,0.2C427.8,92.8,425,92.9,423.2,92.5z M416,96.9c-1.9-0.7-3.8-1.5-5.6-2.4
	c0,0,0,0,0,0c-0.4-0.2-0.8-0.5-1.2-0.7c0.7,0.2,1.3,0.4,2,0.6h0v0c0.5,0.1,0.9,0.3,1.4,0.4h0.1v0c1,0.3,2.1,0.6,3.1,0.8h0v0
	c0.6,0.1,1.1,0.3,1.7,0.4h0.2v0l0.8,0.2h0.1v0l0.9,0.2h0.1v0c0.5,0.1,0.9,0.2,1.4,0.3C419.5,97.8,417.5,97.1,416,96.9z M411.2,102
	c-2.8-0.8-5.3-2.4-7.9-3.7c0.6,0.2,1.2,0.4,1.8,0.6h0.1v0l0.5,0.2h0.1v0l0.5,0.2h0.1v0l0.6,0.2h0v0c1.4,0.4,2.9,0.9,4.3,1.2h0v0
	c1.1,0.3,2.2,0.6,3.3,0.9C413.8,102.5,412.4,102.2,411.2,102z M405.4,105.8c-3,0-5.9-1.3-8.6-2.5c0.5,0.1,1.1,0.3,1.6,0.4h0.1v0
	c1.3,0.2,2.5,0.4,3.8,0.6c0,0-0.1,0-0.1,0c0.4,0.1,0.8,0.2,1.2,0.3h0.1v0c0.3,0.1,0.7,0.1,1,0.2h0v0c1.1,0.2,2.2,0.3,3.2,0.5
	C407.1,105.5,406.3,105.7,405.4,105.8z M397.5,109.8c-2.5-0.7-4.9-2-6.8-3.7c0.5,0.2,0.9,0.5,1.4,0.7h0.1v0.1l0.4,0.1h0.1v0
	c0.3,0.1,0.7,0.3,1,0.4h0.1v0c1.7,0.7,3.5,1.2,5.2,1.8c0,0,0,0-0.1,0c0.1,0,0.2,0.1,0.3,0.1c0,0,0,0,0,0c0.7,0.2,1.4,0.4,2.2,0.6
	C400.5,110.8,398.7,110,397.5,109.8z M389.5,110c-0.1-0.1-0.2-0.3-0.4-0.4c0.7,0.4,1.3,0.7,2,1h0.1v0.1l0.3,0.2h0.1v0.1l0.3,0.2h0.1
	v0.1l0.3,0.2h0.1v0l0.3,0.2h0.1v0l0.3,0.2h0.1v0l0.4,0.2h0.1v0l0.4,0.2h0v0c0.7,0.3,1.4,0.7,2.1,1
	C393.8,113.4,391.3,111.5,389.5,110z M319.3,147.5c21.9-13,43.5-26.5,64.7-40.5c-0.5-0.7-1.1-1.4-1.6-2.1v0h0
	c-0.6-0.8-1.2-1.7-1.7-2.6v-0.1h-0.1c-0.1-0.1-0.1-0.2-0.2-0.3v-0.1h-0.1c-0.1-0.1-0.1-0.2-0.2-0.4v-0.1h0c-0.2-0.4-0.3-0.7-0.4-1.1
	V100h0c-0.1-0.3-0.1-0.5-0.2-0.8V99h0c0-0.2,0-0.3,0-0.5c-0.2-1.5,0.7-2.5,1.8-2.7h0.2v0c0.1,0,0.3,0,0.4,0v0h0.1
	c0.3,0.1,0.6,0.2,0.9,0.4v0h0c0.3,0.2,0.5,0.5,0.8,0.9c-0.4-0.9-0.4-2.1-0.2-3.2h0v0c0.1-0.4,0.2-0.9,0.4-1.2h0v0
	c0.7-1.4,1.9-2.2,3.6-1.1v0h0.1c0.1,0.1,0.3,0.2,0.4,0.3c-0.1-0.4-0.2-0.8-0.2-1.3v-0.1h0c0-0.1,0-0.3,0-0.4h0v-0.5
	c0-0.4,0.1-0.8,0.2-1.1h0v-0.1c0.1-0.5,0.3-1,0.6-1.4h0.1V87c0.1-0.2,0.3-0.4,0.4-0.5h0v0c0.1-0.1,0.1-0.1,0.2-0.2h0v0
	c0.3-0.3,0.6-0.5,0.9-0.6h0.1v0c0.4-0.1,0.9-0.2,1.5,0v0.1h0.2c0.3,0.1,0.5,0.2,0.8,0.4v0h0c0.3,0.2,0.6,0.4,0.8,0.6
	c-0.4-1.2-0.3-2.6,0.1-3.8h0v-0.1c0.3-1,0.9-1.9,1.6-2.4h0.1v0c0.2-0.2,0.4-0.3,0.7-0.4h0.2v-0.1c0.7-0.2,1.6-0.1,2.5,0.4v0.1h0.1
	c0.2,0.1,0.4,0.3,0.7,0.5c0-0.2-0.1-0.4-0.1-0.6v-0.2h0c-0.1-0.6-0.1-1.2,0-1.9h0v-0.2c0.1-0.7,0.3-1.5,0.6-2.1h0v-0.1
	c0.1-0.1,0.1-0.2,0.2-0.3h0v-0.1c0.1-0.2,0.2-0.4,0.4-0.6h0v-0.1c0-0.1,0.1-0.1,0.1-0.2h0.1v-0.1c0.2-0.2,0.5-0.4,0.7-0.5h0.1v0
	c0.4-0.2,0.9-0.2,1.5,0v0.1h0.2c0.2,0.1,0.4,0.2,0.7,0.4v0h0c0.1,0,0.1,0.1,0.2,0.1v0.1h0.1c0.2,0.2,0.5,0.4,0.7,0.7
	c-0.7-2.5,0.3-5.5,1.9-6.8h0v0c0.6-0.5,1.3-0.7,2.1-0.6v0h0c0.2,0,0.4,0.1,0.6,0.2v0h0c0.5,0.2,1,0.6,1.4,1.3v0h0
	c0.2,0.3,0.5,0.7,0.7,1.1c-0.5-1-0.5-2.6-0.3-4.1h0v-0.2c0.1-0.3,0.1-0.6,0.2-0.9h0v0c0.1-0.2,0.1-0.4,0.2-0.6h0v0
	c0.1-0.3,0.2-0.6,0.4-0.8h0V64c0.3-0.4,0.6-0.8,1-1h0.1v0c0.4-0.2,0.8-0.2,1.3,0V63h0.2c0.2,0.1,0.4,0.2,0.7,0.4v0h0
	c0.1,0.1,0.1,0.1,0.2,0.2v0h0l0.2,0.1v0.1h0.1c0.1,0.1,0.2,0.2,0.4,0.4c-0.1-0.2-0.2-0.4-0.2-0.6v0h0c-0.1-0.3-0.2-0.7-0.2-1v-0.4h0
	c0-0.3,0-0.6,0-0.8h0v-0.2c0.1-1,0.4-2,0.8-2.8h0v0c0.1-0.2,0.3-0.4,0.4-0.6h0v0c0.2-0.3,0.5-0.5,0.7-0.6h0.1v0
	c0.2-0.1,0.3-0.1,0.5-0.2h0.7c0.3,0.1,0.6,0.2,0.9,0.4v0.1h0.1c0.2,0.1,0.4,0.3,0.7,0.5c0-0.4,0-0.9,0.1-1.4h0v-0.1
	c0-0.5,0.1-0.9,0.2-1.4h0v0c0.1-0.4,0.2-0.8,0.4-1.2h0v0c0.1-0.1,0.1-0.3,0.2-0.4l0,0v0c0.3-0.4,0.6-0.8,1-1h0.1v-0.1
	c0.1,0,0.1-0.1,0.2-0.1c0,0-0.1,0-0.1,0.1c0.1,0,0.1-0.1,0.2-0.1c0,0,0,0,0,0c0.2-0.1,0.4-0.2,0.6-0.2h0.4v-0.1c0.1,0,0.3,0,0.4,0v0
	h0.1c0.2,0,0.3,0.1,0.5,0.2v0h0.1c0.1,0.1,0.2,0.1,0.3,0.2v0h0c0.7,0.5,1.2,1.2,1.6,1.9l0.1-0.4l0,0v0c0.1-0.3,0.1-0.7,0.2-1h0v-0.2
	c0.1-0.3,0.1-0.6,0.2-0.8h0v-0.1c0.1-0.3,0.2-0.7,0.3-1c0,0,0,0,0,0.1c0-0.1,0-0.2,0.1-0.2c0,0,0,0,0,0c1-4.3,3.2-5.2,5.1-4.2v0h0
	c1,0.5,1.9,1.5,2.5,2.7v0h0c0.6,1.1,0.9,2.5,0.9,4c0.6-1.3,1.2-2.4,1.8-3.3h0v0c0.4-0.6,0.8-1.2,1.2-1.7h0v0c0.3-0.4,0.7-0.7,1-1h0
	v0l0.2-0.2h0v0c0.3-0.2,0.6-0.4,0.8-0.6h0v0c0.4-0.3,0.8-0.5,1.2-0.6h0v0c0.3-0.1,0.5-0.2,0.8-0.2h0.3v0c0.2,0,0.4,0,0.6,0v0h0
	c0.5,0.1,0.9,0.3,1.2,0.6v0c0.2,0.2,0.3,0.4,0.4,0.6v0.1h0c0.6,1.1,0.5,2.9-0.4,5.2h0v0c-0.2,0.5-0.5,1.1-0.8,1.7h0v0
	c-0.4,0.7-0.9,1.5-1.4,2.3h0v0c-0.2,0.3-0.4,0.6-0.7,0.9c0.4-0.2,0.8-0.4,1.2-0.5h0.1v0c0.4-0.2,0.8-0.3,1.2-0.4h0.1v0
	c0.3-0.1,0.5-0.1,0.7-0.2h0.1v0c0.4-0.1,0.8-0.2,1.2-0.2h0.5v0c0.2,0,0.4,0,0.6,0v0h0.2c0.5,0.1,1,0.2,1.3,0.4v0h0.1
	c0.7,0.4,1.1,1.1,1.1,2V58c0,1.2-0.7,2.8-2,4.2v0l-0.2,0.2h0v0l-0.2,0.2h0v0l-0.2,0.2h0v0l-0.2,0.2h0v0c-0.4,0.3-0.8,0.7-1.2,1h0v0
	c-0.4,0.3-0.8,0.6-1.2,0.8h0v0c-0.6,0.4-1.3,0.7-2.1,1h0v0c-0.3,0.1-0.7,0.3-1,0.4h0v0c-0.2,0.1-0.4,0.1-0.6,0.2h0v0
	c-0.4,0.1-0.9,0.3-1.3,0.4c0.2,0,0.5,0,0.7,0v0h0.3c0.4,0,0.8,0.1,1.1,0.1v0.1h0.4c0.5,0.1,0.9,0.2,1.3,0.4v0h0.1
	c0.1,0,0.2,0.1,0.3,0.1v0.1h0.2c1.1,0.5,1.8,1.3,2.1,2v0.3h0.1c0.1,0.2,0.1,0.3,0.1,0.5v0.1h0c0,0.1,0,0.3,0,0.4h0v0.2
	c0,0.2-0.1,0.5-0.2,0.7h0v0.1c-0.1,0.3-0.3,0.7-0.6,1h0v0c-0.1,0.1-0.1,0.1-0.2,0.2h0v0c-0.2,0.2-0.5,0.4-0.8,0.6h0v0
	c-0.1,0.1-0.2,0.1-0.3,0.2h-0.1v0.1c-0.1,0.1-0.2,0.1-0.3,0.2H445v0c-0.6,0.3-1.3,0.5-2.2,0.6h-0.6V75c-0.4,0-0.8,0.1-1.2,0.1
	c0.2,0.2,0.4,0.3,0.6,0.5v0h0c0.3,0.3,0.6,0.6,0.8,0.8v0h0c0.2,0.2,0.3,0.4,0.4,0.6v0h0c1,2-1,3.3-3.6,3.8h0v0
	c-1.2,0.2-2.6,0.2-3.8,0v0h0c-0.5-0.1-1-0.2-1.4-0.4c0.5,0.2,1,0.4,1.4,0.8v0h0c0.1,0.1,0.1,0.1,0.2,0.2v0h0
	c0.1,0.1,0.1,0.1,0.2,0.2v0h0c0.5,0.5,0.8,1.2,1,1.8v0.1h0c0.1,0.3,0.2,0.6,0.2,0.9v0.7c-0.1,1.1-0.7,2-2.1,2.4h0v0l-0.2,0
	c-0.3,0.1-0.6,0.1-0.9,0.2h-0.4v0c-0.6,0.1-1.3,0.1-1.9,0v0h-0.4c-0.9-0.1-1.8-0.3-2.7-0.6h0c-3.2-1-6.3-3-9.4-4.2
	c0,0,0.1,0,0.1,0.1c-0.7-0.4-1.4-0.6-2.1-0.9l-0.3,0.2c-1.2,0.9-2.3,1.9-3.5,2.8c0.2,0,0.4-0.1,0.6-0.1h0.2v0c0.5-0.1,1-0.1,1.4-0.2
	h0v0c1.5-0.1,3-0.1,4.4,0v0h0.3c0.9,0.1,1.7,0.2,2.5,0.4v0h0.1c2.7,0.6,4.8,1.7,6.2,2.9v0h0c0.1,0.1,0.1,0.1,0.2,0.2v0h0
	c0.1,0.1,0.1,0.1,0.2,0.2v0h0c0.1,0.1,0.1,0.1,0.2,0.2v0h0c0.6,0.7,1,1.5,1,2.1v0.3c0,0.5-0.2,0.9-0.6,1.3h0v0
	c-0.6,0.6-1.5,1-2.8,1.2h-0.1v0c-1.1,0.2-2.5,0.2-4.2,0.1c0,0,0,0,0,0c-0.4-0.1-0.9-0.2-1.3-0.3c0.2,0.2,0.4,0.3,0.5,0.5v0.1h0.1
	l0.1,0.2v0.1h0.1c0.1,0.1,0.1,0.1,0.2,0.2h0c0.3,0.4,0.5,0.9,0.6,1.2V96h0.1c0,0.3,0,0.6,0,0.8h0v0c0,0.1-0.1,0.3-0.2,0.4h0v0.1
	c-0.4,0.7-1.3,1.3-2.3,1.6h0v0c-0.2,0.1-0.5,0.1-0.8,0.2h-0.1v0c-1.5,0.3-3.2,0.2-4.4-0.4c0.2,0.2,0.3,0.3,0.5,0.5v0.1h0.1
	c0.1,0.1,0.1,0.1,0.1,0.2v0h0c0.3,0.4,0.5,0.9,0.6,1.3v0.4h0.1c0,0.1,0,0.3,0,0.4h0v0c0,0.1-0.1,0.3-0.1,0.4h-0.1v0.1
	c-0.1,0.2-0.2,0.3-0.4,0.5h0v0c-0.4,0.3-0.9,0.6-1.4,0.8h0v0c-1.1,0.4-2.4,0.4-3.6,0.2v0h0c-0.5-0.1-1.1-0.3-1.5-0.6
	c0.2,0.3,0.4,0.5,0.5,0.7v0h0c0.1,0.1,0.1,0.3,0.2,0.4v0h0c0.3,0.8,0.2,1.4-0.1,1.9h-0.1v0.1c-0.4,0.5-1.1,0.9-1.9,1.2h0v0
	c-0.2,0.1-0.5,0.1-0.7,0.2h-0.1v0c-0.4,0.1-0.8,0.1-1.3,0.2h-0.2v0c-0.5,0-1,0-1.5,0v0h-0.3c-0.4,0-0.8-0.1-1.2-0.2v0h-0.1
	c-0.2-0.1-0.4-0.1-0.6-0.2c0.1,0.1,0.2,0.3,0.2,0.4v0h0c0.1,0.1,0.1,0.3,0.2,0.4v0h0c0.3,0.7,0.2,1.2,0,1.7h0v0
	c-0.4,0.6-1.1,1-2.1,1.2h0v0c-1.2,0.2-2.7,0.1-3.7-0.4c0.6,0.6,1.1,1.5,0.9,2.3h0v0c-0.1,0.4-0.4,0.7-0.9,0.8l0,0c0,0,0,0-0.1,0
	c0,0,0,0,0,0c-0.9,0.2-1.7,0.2-2.6,0v0h-0.2c-0.4-0.1-0.9-0.2-1.3-0.4v0h-0.1c-0.5-0.2-1.1-0.5-1.6-0.8v0h0
	c-0.4-0.3-0.8-0.5-1.2-0.8v0h0c-0.3-0.2-0.5-0.4-0.8-0.6c-1.2-1-2.4-2.1-3.4-3.1l-1.8,1.2h0v0l-0.6,0.4h0v0l-0.6,0.4h0v0l-0.6,0.4h0
	v0l-0.6,0.4h0v0l-0.6,0.4h0v0l-0.6,0.4h0v0l-0.6,0.4l0,0c-2,1.3-4,2.6-6,4h-0.1v0l-0.6,0.4h-0.1v0l-0.6,0.4h0v0l-0.6,0.4h0v0
	L371,118h0v0l-0.6,0.4h0v0l-0.6,0.4h0v0l-0.6,0.4h0v0l-0.6,0.4c-1.8,1.2-3.6,2.4-5.4,3.6h0v0l-3.5,2.3h0v0l-0.6,0.4h0v0l-2.2,1.5
	h-0.1v0l-0.6,0.4h0v0l-0.6,0.4h0v0l-1,0.6h-0.1v0.1l-0.6,0.4h-0.1v0l-0.6,0.4H353v0l-0.6,0.4h0v0l-0.6,0.4h0l-0.3,0.2h-0.1v0.1
	l-0.6,0.4h-0.1v0l-0.6,0.4h0v0l-0.6,0.4h0v0l-1,0.6h-0.1v0.1l-0.6,0.4h-0.1v0l-0.6,0.4h0v0l-0.6,0.4h0v0l-0.3,0.2h-0.1v0.1l-0.6,0.4
	h-0.1v0l-0.6,0.4h0v0l-0.6,0.4l0,0v0l-1,0.6h-0.1v0l-0.6,0.4h0v0l-2.3,1.4h0v0c-1.7,1-3.3,2.1-5,3.1h0v0l-1.6,1h0v0l-1,0.6h-0.1v0
	l-0.6,0.4h0v0l-0.3,0.2h-0.1v0.1l-0.6,0.3h-0.1v0l-0.6,0.4h0v0l-0.3,0.2h-0.1v0.1l-0.6,0.4h0v0l-0.3,0.2h-0.1v0.1l-0.2,0.1h0v0
	l-0.3,0.2h-0.1v0l-0.6,0.4h0v0l-0.3,0.2h-0.1v0.1l-0.6,0.3h-0.1v0l-0.3,0.2H326v0.1l-0.2,0.1h0l-0.3,0.2h-0.1v0.1l-0.6,0.4h0v0
	l-0.3,0.2h-0.1v0.1l-0.6,0.4h0v0l-0.3,0.2h-0.1v0.1l-0.6,0.3h-0.1v0l-0.3,0.2h-0.1v0.1l-0.2,0.1h0v0l-0.3,0.2h-0.1v0.1l-0.6,0.4h0v0
	l-0.3,0.2h-0.1v0.1l-0.6,0.4h0v0l-0.3,0.2h-0.1v0.1l-0.6,0.4h0v0l-0.4,0.2L319.3,147.5z M272.6,108.7l0.1-0.1
	c4.5-7.4,9.2-14.6,13.2-22.3c-1.3-0.7-2.7-1.2-4-2v0h0c-0.2-0.1-0.4-0.2-0.6-0.4v0h-0.1c-0.2-0.1-0.4-0.3-0.6-0.4v0h0
	c-0.3-0.2-0.6-0.5-0.8-0.7v-0.1h-0.1l-0.1-0.1v-0.1h-0.1c0-0.1-0.1-0.1-0.1-0.2v0h0c-0.1-0.1-0.2-0.3-0.3-0.5
	c-0.4-0.5-0.7-1.1-0.7-1.8v-0.3c0-0.5,0.2-0.9,0.4-1.3c0.3-0.3,0.6-0.6,1.1-0.6h0.2v0c0.3,0,0.6,0.1,1,0.2c-0.7-1-1.2-2.6-0.8-3.8h0
	v-0.1c0.2-0.5,0.5-0.9,1-1.2h0v0c0.1-0.1,0.3-0.1,0.4-0.1c-0.2-0.2-0.4-0.4-0.6-0.6v-0.1h0c-0.2-0.2-0.3-0.4-0.4-0.6v0h0
	c-0.7-1.4-0.4-2.9,0.6-3.6h0v0c0.1-0.1,0.2-0.1,0.4-0.2h0.1v0c0.5-0.2,1.2-0.1,1.9,0.2v0h0c0.2,0.1,0.5,0.3,0.7,0.4
	c-0.4-0.4-0.7-0.9-1-1.5v0h0c-0.2-0.4-0.3-0.9-0.4-1.3v-0.1h0c-0.2-1-0.2-2,0-2.7h0v-0.1c0.1-0.3,0.2-0.5,0.4-0.7h0v0
	c0.1-0.1,0.1-0.1,0.2-0.2h0v0c0.1-0.1,0.3-0.2,0.5-0.2h0.4c0.2,0,0.4,0.1,0.5,0.2v0h0.1c0.1,0,0.2,0.1,0.3,0.2v0h0.1
	c0.2,0.1,0.4,0.3,0.7,0.5c-1.3-1.5-2.2-5.6-0.2-6.1h0.1v0c0.2,0,0.4-0.1,0.6,0v0.1h0.4c0.1,0,0.2,0.1,0.4,0.1
	c-0.1-0.1-0.2-0.3-0.3-0.4v-0.1h0c-0.8-1.4-1.2-3.4-0.8-4.8h0V51c0.1-0.5,0.4-0.9,0.8-1.2h0.1v0c0.1-0.1,0.3-0.1,0.4-0.2h0.8
	c0.2,0,0.4,0.1,0.6,0.2v0h0.1c0.1,0,0.2,0.1,0.4,0.2v0.1h0.1c0.2,0.1,0.3,0.2,0.5,0.3c-0.5-0.5-0.8-1.3-1-2.1v0h0
	c-0.1-0.4-0.2-0.8-0.2-1.3v-0.2h0c0-0.2,0-0.4,0-0.6h0v-0.3c0.1-0.6,0.2-1.2,0.4-1.6h0v-0.1c0.1-0.2,0.2-0.4,0.4-0.6h0v0
	c0.2-0.2,0.4-0.3,0.7-0.4h0.6v-0.1c0.1,0,0.3,0,0.4,0.1h0c0.1,0,0.3,0.1,0.4,0.1v0.1h0.2c0.2,0.1,0.5,0.2,0.7,0.4
	c-0.3-0.2-0.5-0.5-0.7-0.8v0h0c-0.1-0.2-0.3-0.4-0.4-0.6v0h0c-0.1-0.1-0.1-0.2-0.2-0.4v-0.1h0c-0.1-0.1-0.1-0.3-0.2-0.4v0h0
	c-0.1-0.2-0.1-0.4-0.2-0.5v-0.1h0c-0.2-0.7-0.4-1.3-0.4-2v-0.5h0l0-0.2v0c0-0.4,0.1-0.7,0.2-1h0V37c0.1-0.3,0.2-0.5,0.4-0.7h0.1
	v-0.1c0.2-0.2,0.3-0.4,0.6-0.5h0.1v0c0.1-0.1,0.2-0.1,0.3-0.2h0.1v0c0.3-0.1,0.6-0.2,0.9-0.2h0.3c0.3,0,0.6,0.1,0.9,0.1
	c-0.3-0.4-0.5-0.8-0.7-1.1v0h0c-0.1-0.1-0.1-0.3-0.2-0.4v0h0c-0.2-0.5-0.3-0.9-0.4-1.3v-0.1h0c-0.1-0.4,0-0.7,0-1h0v0
	c0.1-0.7,0.5-1.2,1.2-1.4h0.1v0c0.7-0.2,1.7-0.1,2.9,0.4v0h0.1c0.1,0.1,0.3,0.1,0.4,0.2c-0.1-0.2-0.2-0.4-0.3-0.6v0h0
	c-0.7-1.7-1-3.9-0.6-5.4h0v0c0.2-0.5,0.4-0.9,0.7-1.2h0.1V23c0.1,0,0.1-0.1,0.2-0.1h0v0c0.2-0.1,0.4-0.2,0.6-0.2h0.6
	c0.4,0,0.8,0.2,1.3,0.4v0h0c0.1,0.1,0.3,0.1,0.4,0.2v0h0c0.2,0.1,0.4,0.2,0.6,0.3c-0.1-0.2-0.3-0.5-0.4-0.7v0h0
	c-0.1-0.1-0.1-0.3-0.2-0.4v0h0c-0.3-0.6-0.5-1.2-0.6-1.8v-0.1h0c-0.2-1.1-0.2-2,0-2.7h0v0c0-0.1,0.1-0.3,0.2-0.4h0v-0.1
	c0.2-0.3,0.5-0.6,0.8-0.7h0.1v0c0.2-0.1,0.4-0.2,0.7-0.2h0.5c0.3,0,0.6,0.1,0.9,0.2v0h0c0.1,0,0.3,0.1,0.4,0.2v0h0.1
	c0.1,0,0.2,0.1,0.3,0.2V17h0.1c0.3,0.2,0.6,0.4,0.9,0.6v0h0c0.5,0.3,0.9,0.7,1.4,1.2c-1.2-2.7-1.4-4.7-1.1-6h0v-0.1
	c0.2-0.9,0.8-1.4,1.4-1.6h0v0c0.9-0.3,2,0,3.1,0.8v0h0c0.6,0.4,1.1,1,1.7,1.7v0h0c0.3,0.4,0.6,0.8,0.8,1.2v0h0
	c0.2,0.4,0.4,0.8,0.6,1.2v0c0.2,0.4,0.3,0.8,0.4,1.2c-0.2-1.4-0.2-2.7-0.1-3.9h0v-0.2c0-0.4,0.1-0.8,0.2-1.2h0v-0.1
	c0.1-0.5,0.2-1.1,0.4-1.6h0v-0.1c0.1-0.2,0.1-0.4,0.2-0.6h0V9.6c0.1-0.3,0.3-0.7,0.4-1h0v0c0.1-0.1,0.1-0.3,0.2-0.4h0v0
	c0.1-0.1,0.1-0.2,0.2-0.4h0v0c0.7-1.3,1.6-2.3,2.5-2.9h0v0c0.3-0.2,0.6-0.3,0.9-0.4h1.2c0.2,0.1,0.4,0.2,0.6,0.4v0
	c0.2,0.2,0.3,0.3,0.4,0.6v0.1h0c0.1,0.1,0.1,0.3,0.2,0.4v0h0c0.1,0.2,0.1,0.5,0.2,0.7v0.1h0c0.2,1,0.2,2.4,0,4.2h0v0.2
	c-0.1,0.4-0.1,0.8-0.2,1.3v0c-0.1,0.3-0.1,0.7-0.2,1v0c-0.1,0.3-0.1,0.5-0.2,0.8h0v0.1c-0.1,0.3-0.1,0.5-0.2,0.8
	c0.4-0.3,0.7-0.6,1-0.9h0v0c0.8-0.6,1.5-1,2.1-1.2h0v0c0.3-0.1,0.6-0.2,0.8-0.2h0.4c0.2,0,0.4,0.1,0.6,0.2v0h0
	c0.4,0.2,0.6,0.5,0.8,1v0h0c0.1,0.3,0.2,0.6,0.2,1v0c0,0.1,0,0.3,0,0.4h0v0.1c0,0.4-0.1,0.9-0.2,1.3h0v0c-0.2,0.7-0.4,1.5-0.8,2.3
	c-0.7,1.3-1.6,2.7-2.9,4h0v0l-0.2,0.2h0v0l-0.2,0.2h0v0c-0.7,0.6-1.4,1.2-2.2,1.7c1.7-0.9,3.4-2.3,5.2-3.2h0.1v-0.1
	c0.1-0.1,0.2-0.1,0.3-0.2h0.1v0c0.3-0.1,0.7-0.3,1-0.4h0.2v-0.1c0.3-0.1,0.5-0.1,0.8-0.1h0.5v0c0.2,0,0.3,0,0.4,0l0.2,0.1v0h0
	c0.2,0.1,0.3,0.1,0.4,0.2v0h0.1c0.1,0.1,0.2,0.1,0.3,0.2v0h0c0.3,0.2,0.5,0.4,0.6,0.6v0h0c0.4,0.7,0.4,1.5,0,2.3h0v0
	c-0.1,0.1-0.1,0.3-0.2,0.4h0v0c-0.1,0.2-0.3,0.4-0.4,0.6c-0.6,0.7-1.3,1.4-2.1,1.9h0v0c-0.3,0.2-0.5,0.3-0.8,0.4h-0.1v0
	c-0.1,0.1-0.3,0.1-0.4,0.2c0.5,0,0.9,0.1,1.3,0.2v0.1h0.3c0.4,0.1,0.7,0.2,1,0.4v0h0.1c0.2,0.1,0.4,0.3,0.6,0.4v0h0
	c0.2,0.2,0.3,0.4,0.4,0.5V30h0c0.2,0.5,0.2,1.1,0,1.7h0v0.1c0,0.1-0.1,0.2-0.2,0.4h0v0.1c-0.3,0.6-0.8,1.1-1.5,1.6h0v0
	c-0.3,0.2-0.7,0.4-1,0.6h0v0c-0.3,0.2-0.7,0.3-1,0.4h0v0c-0.3,0.1-0.6,0.2-0.8,0.2c0.2,0.1,0.3,0.1,0.4,0.2v0h0.1
	c0.1,0.1,0.2,0.1,0.4,0.2c0.3,0.2,0.5,0.4,0.6,0.6v0h0c0.6,0.8,0.5,1.8,0,2.7h0v0c-0.1,0.2-0.2,0.4-0.4,0.6h0v0
	c-0.4,0.5-0.9,1-1.5,1.4h0v0c-0.7,0.5-1.5,0.8-2.2,0.9c0.6,0.2,1.1,0.5,1.4,0.7v0.1h0c0.1,0.1,0.1,0.1,0.2,0.2v0
	c0.3,0.5,0.2,1.1-0.2,1.7h0v0.1c-0.8,1.2-2.8,2.3-4.1,2.6c0.2,0.1,0.4,0.2,0.6,0.3v0.1h0.1c0.1,0.1,0.2,0.1,0.3,0.2v0h0.1
	c0.3,0.2,0.6,0.5,0.8,0.7v0.1h0.1c0,0.1,0.1,0.1,0.1,0.2v0h0c0.6,1.3-0.5,2.9-2.1,4h0v0c-0.5,0.3-1,0.6-1.5,0.8h0v0
	c-0.9,0.4-1.8,0.6-2.6,0.6c0.3,0.3,0.6,0.6,0.7,0.9v0h0c0.1,0.2,0.2,0.4,0.2,0.6v0.3h0c0,0.1,0,0.3,0,0.4l0,0v0
	c-0.2,0.7-0.7,1.3-1.4,1.9h0v0c-0.2,0.1-0.4,0.3-0.6,0.4h0v0c-0.9,0.5-2,0.9-2.8,1.1c0.1,0,0.2,0.1,0.3,0.1v0h0.1
	c0.1,0,0.2,0.1,0.3,0.1v0.1h0.1c0.9,0.6,1.1,1.3,0.7,2.1h0v0c-0.1,0.1-0.1,0.3-0.2,0.4v0c-0.4,0.7-1.2,1.4-2.1,1.9
	c-0.3,0.2-0.7,0.3-1,0.4h-0.1v0c-0.1,0-0.3,0.1-0.4,0.1c0.1,0,0.3,0.1,0.4,0.1v0h0.1c0.2,0.1,0.4,0.1,0.6,0.2v0h0.1
	c3.1,1.2,0.9,3.9-1.7,5.2h-0.1v0c-0.1,0.1-0.3,0.1-0.4,0.2h0v0c-0.5,0.2-0.9,0.3-1.3,0.4h-0.1v0c-0.1,0-0.3,0-0.4,0
	c0.3,0.3,0.5,0.6,0.6,0.9v0h0c0,0.2,0,0.4,0,0.6h0v0.1c-0.1,0.6-0.5,1.1-1,1.6h0v0c-0.7,0.7-1.7,1.2-2.4,1.4
	c0.1,0.2,0.2,0.3,0.3,0.5v0h0c0.1,0.2,0.2,0.4,0.2,0.6V77h0c0.1,0.7-0.3,1.5-0.9,2.1h0v0c-0.1,0.1-0.1,0.1-0.2,0.2h0v0
	c-0.6,0.6-1.5,1.1-2.3,1.2h-0.1v0c-0.1,0-0.3,0.1-0.4,0.1c5.8,3.2-3.7,5.4-6.7,4.5c0.5,0.1,1.1,0.3,1.5,0.7v0h0
	c0.3,0.2,0.6,0.4,0.8,0.6v0h0c0.4,0.3,0.6,0.7,0.8,1v0h0c0.1,0.2,0.2,0.4,0.2,0.6v0.3c-0.1,0.6-0.6,1.1-1.9,1.4
	c-0.1,0-0.3,0-0.4,0.1h-1.6c-0.4,0-0.7-0.1-1-0.2v0h-0.2c-0.4-0.1-0.9-0.2-1.3-0.4v0h-0.1c-0.3-0.1-0.7-0.3-1-0.4v0h0
	c-0.3-0.1-0.6-0.3-0.8-0.4v0h0c-0.5-0.2-0.9-0.5-1.4-0.8c-0.4,0.7-0.7,1.4-1.1,2h-0.1v0.1l-0.2,0.3h0v0.1l-0.2,0.3h0v0l-0.2,0.4h0v0
	l-0.1,0.2h-0.1v0.2l-0.1,0.2h-0.1v0.1l-0.2,0.3h-0.1V92l-0.2,0.3h0v0.1l-0.2,0.4h0v0l-0.1,0.2h-0.1v0.2l-0.1,0.2h-0.1v0.1l-0.2,0.3
	h0v0.1l-0.2,0.3h0v0l-0.1,0.2h-0.1v0.2l-0.1,0.2h-0.1v0.1l-0.2,0.3h0v0.1l-0.2,0.4h0v0l-0.4,0.6h-0.1v0.1l-0.2,0.3h0v0l-0.6,1h0v0.1
	c-1,1.7-2.1,3.5-3.1,5.2h0v0l-0.6,1h0v0l-1.7,2.7h0v0l-1,1.6h-2.2L272.6,108.7z M229.7,179c1.5-2.3,3-4.6,4.6-6.9
	c-0.1,0.1-0.1,0.2-0.2,0.3c0.1-0.1,0.2-0.2,0.2-0.4c0,0,0,0.1-0.1,0.1c0.9-1.4,1.8-2.9,2.7-4.3c-0.1,0.1-0.1,0.2-0.2,0.3
	c0.1-0.2,0.2-0.4,0.3-0.5c0,0,0,0,0,0.1c3.8-6.4,7.6-12.9,11.4-19.3h0v0l2.7-4.6h0v0c1.1-1.9,2.2-3.8,3.3-5.6h0v0l0.6-1h0v0l0.6-1h0
	v0l0.6-1h0v0l0.6-1h0v0l0.6-1h0v0l0.6-1h0v0l0.6-1h0v0l0.6-1h0v0l0.6-1h0v0c0.5-0.9,1.1-1.8,1.6-2.7h0v0l0.6-1h0v0l1.6-2.7v0.2
	c0,1.4,0,2.8-0.1,4.3l-1.8,2.8c0.1-0.1,0.1-0.2,0.2-0.3c-2.3,3.9-4.6,7.8-6.8,11.7l0,0v0c-1.2,2-2.4,4-3.6,6.1v0
	c-0.9,1.5-1.8,3.1-2.7,4.6h0v0l-0.6,1h0v0c-1.9,3.1-3.7,6.3-5.6,9.4h0v0l-0.6,1h0v0c-0.8,1.3-1.5,2.5-2.3,3.8h0v0
	c-0.6,0.9-1.1,1.8-1.7,2.7h0v0l-1,1.7h0v0l-1,1.7h0v0l-1,1.6h0v0l-2.6,4C231.7,178.8,230.7,178.9,229.7,179z M134.9,247.8l-2.6,1.1
	h0v0l-1.4,0.6h0v0l-1,0.4h-0.1v0l-1.4,0.6h0v0l-1,0.4h-0.1v0l-1.4,0.6h0v0l-1,0.4h0v0c-2.8,1.1-5.5,2.2-8.3,3.3h-0.1v0l-1,0.4h-0.1
	v0l-1,0.4h0v0l-1,0.4h0v0l-1.6,0.6h-0.1v0l-1,0.4h0v0c-1.5,0.6-2.9,1.1-4.4,1.7l-0.6,0.2h-0.1v0l-1.6,0.6h-0.1v0l-1.6,0.6h0v0
	l-0.5,0.2h-0.1v0l-1.6,0.6h0v0l-0.5,0.2h-0.1v0l-1.6,0.6h0v0c-0.9,0.3-1.8,0.6-2.7,1c-3.5,0.6-36.3,13.5-43.7,12.6v0h0
	c-0.3,0-0.6-0.1-0.8-0.2v0h0c-0.6-0.3-0.8-0.8-0.4-1.6c28.7-8.3,57-18.4,84.6-30.1L134.9,247.8z M119.5,308L119.5,308L119.5,308
	c-0.3-0.1-0.5-0.1-0.6-0.2v0h0c-0.3-0.2-0.5-0.4-0.6-0.6c0-0.1,0-0.2,0.2-0.4h0v0c0.5-0.7,1.9-2,3.8-3.7h0v0
	c3.3-3,7.9-7.1,11.4-10.3l5.9-5.5l0.6,3.9l-2.5,2.3c-5.3,4.9-10.1,9.2-13.6,12.2h0v0c-0.8,0.7-1.5,1.3-2.1,1.8c0,0-0.1,0.1-0.2,0.1
	h0v0c-0.1,0.1-0.2,0.1-0.3,0.2h-0.1v0c-0.2,0.1-0.3,0.1-0.5,0.2h-0.1v0C120.2,308.1,119.8,308.1,119.5,308z"/>
</svg>
