<?xml version="1.0" encoding="utf-8"?>
<!-- Generator: Adobe Illustrator 16.0.0, SVG Export Plug-In . SVG Version: 6.00 Build 0)  -->
<!DOCTYPE svg PUBLIC "-//W3C//DTD SVG 1.1//EN" "http://www.w3.org/Graphics/SVG/1.1/DTD/svg11.dtd">
<svg version="1.1" id="Capa_1" xmlns="http://www.w3.org/2000/svg" xmlns:xlink="http://www.w3.org/1999/xlink" x="0px" y="0px"
	 width="122.4px" height="122.4px" viewBox="0 0 122.4 122.4" style="enable-background:new 0 0 122.4 122.4;" xml:space="preserve"
	>
<style type="text/css">
<![CDATA[
	.st0{fill:none;stroke:#000000;stroke-width:1.1999;stroke-linecap:round;stroke-linejoin:round;stroke-miterlimit:22.9256;}
	.st1{fill-rule:evenodd;clip-rule:evenodd;}
	.st2{fill:none;stroke:#000000;stroke-width:0.5669;stroke-linecap:round;stroke-linejoin:round;stroke-miterlimit:22.9256;}
]]>
</style>
<path class="st1" d="M95.6,108c0,0.2,0.1,0.2,0.3,0.2h7.5c0.2,0,0.3-0.1,0.3-0.3c0-1.1-0.4-2-1.2-2.7s-1.7-1.1-2.9-1.1
	s-2.1,0.4-2.9,1.2S95.6,107.1,95.6,108 M102.7,112.2c0.2-0.2,0.4-0.3,0.5-0.4c0.1-0.1,0.2-0.1,0.3-0.1c0.1,0,0.1,0.1,0.2,0.2
	s0.1,0.2-0.1,0.4c-0.5,0.4-1,0.8-1.6,1.1c-0.6,0.3-1.4,0.4-2.4,0.4c-1.4,0-2.5-0.5-3.4-1.4c-0.9-1-1.3-2.2-1.3-3.7
	c0-1.5,0.4-2.7,1.3-3.7s2-1.4,3.3-1.4s2.5,0.4,3.4,1.3c0.9,0.9,1.3,1.9,1.3,3.1v0.3c0,0.4-0.2,0.6-0.6,0.6h-7.8
	c-0.2,0-0.3,0.1-0.3,0.3c0.1,1.1,0.5,2.1,1.2,2.9c0.7,0.8,1.7,1.2,2.9,1.2S101.9,112.9,102.7,112.2z M92.2,104.1c-1.7,0-3,0.7-4.2,2
	c-0.3,0.4-0.6,0.7-0.8,1.1v5.5c0,0.2,0.1,0.3,0.3,0.3h1.6c0.2,0,0.3,0.1,0.3,0.3s-0.1,0.3-0.3,0.3H85c-0.2,0-0.3-0.1-0.3-0.3
	s0.1-0.3,0.3-0.3h1.4c0.2,0,0.3-0.1,0.3-0.3v-8.1c0-0.2-0.1-0.3-0.3-0.3H85c-0.2,0-0.3-0.1-0.3-0.3c0-0.2,0.1-0.3,0.3-0.3h2
	c0.2,0,0.3,0.1,0.3,0.3v1.6c0,0.3,0.1,0.3,0.4,0c0.5-0.6,1.1-1,1.9-1.5c0.8-0.4,1.7-0.6,2.6-0.6h1c0.2,0,0.3,0.1,0.3,0.3v2.5
	c0,0.2-0.1,0.3-0.3,0.3c-0.2,0-0.3-0.1-0.3-0.3v-1.9c0-0.2-0.1-0.3-0.3-0.3H92.2z M71.6,103.7h2c0.2,0,0.3,0.1,0.3,0.3v5.8
	c0,1.1,0.3,2,0.9,2.5c0.6,0.6,1.4,0.8,2.4,0.8s1.9-0.4,2.8-1.3c0.4-0.4,0.7-0.9,1-1.3v-5.9c0-0.2-0.1-0.3-0.3-0.3h-1.4
	c-0.2,0-0.3-0.1-0.3-0.3c0-0.2,0.1-0.3,0.3-0.3h2c0.2,0,0.3,0.1,0.3,0.3v8.7c0,0.2,0.1,0.3,0.3,0.3h1.4c0.2,0,0.3,0.1,0.3,0.3
	s-0.1,0.3-0.3,0.3h-2c-0.2,0-0.3-0.1-0.3-0.3v-1.1c0-0.1,0-0.2-0.1-0.3c-0.1-0.1-0.1,0-0.2,0.1c-1.1,1.2-2.2,1.8-3.5,1.8
	c-1.3,0-2.2-0.3-2.9-1c-0.7-0.7-1-1.7-1-2.9v-5.2c0-0.2-0.1-0.3-0.3-0.3h-1.4c-0.2,0-0.3-0.1-0.3-0.3
	C71.3,103.8,71.4,103.7,71.6,103.7z M69.3,106.2c-1.1-1.4-2.3-2.1-3.8-2.1c-1.1,0-2,0.4-2.7,1.3c-0.7,0.9-1.1,2-1.1,3.3
	c0,1.4,0.4,2.4,1.1,3.3c0.8,0.8,1.7,1.2,3,1.2c1.2,0,2.2-0.3,3-1c0.2-0.2,0.4-0.3,0.5-0.4c0.1-0.1,0.2-0.1,0.3-0.1
	c0.1,0,0.1,0.1,0.2,0.2C70,112,70,112,70,112.1s-0.1,0.1-0.2,0.3c-0.4,0.4-1,0.7-1.6,1c-0.6,0.3-1.4,0.4-2.4,0.4
	c-1.4,0-2.5-0.5-3.4-1.4s-1.3-2.2-1.3-3.7c0-1.5,0.4-2.8,1.2-3.7c0.8-1,1.9-1.4,3.2-1.4c1.3,0,2.4,0.5,3.4,1.5
	c0.2,0.2,0.3,0.1,0.3-0.2V104c0-0.2,0.1-0.3,0.3-0.3c0.2,0,0.3,0.1,0.3,0.3v3.2c0,0.2-0.1,0.3-0.3,0.3c-0.2,0-0.3-0.1-0.3-0.3V106.2
	z M57,101.9c-0.2-0.2-0.2-0.3-0.2-0.6c0-0.2,0.1-0.4,0.2-0.6c0.2-0.2,0.3-0.2,0.6-0.2s0.4,0.1,0.6,0.2c0.2,0.2,0.2,0.3,0.2,0.6
	c0,0.2-0.1,0.4-0.2,0.6c-0.2,0.2-0.3,0.2-0.6,0.2S57.2,102.1,57,101.9z M55.7,113.6c-0.2,0-0.3-0.1-0.3-0.3s0.1-0.3,0.3-0.3h1.4
	c0.2,0,0.3-0.1,0.3-0.3v-8.1c0-0.2-0.1-0.3-0.3-0.3h-1.4c-0.2,0-0.3-0.1-0.3-0.3c0-0.2,0.1-0.3,0.3-0.3h2c0.2,0,0.3,0.1,0.3,0.3v8.7
	c0,0.2,0.1,0.3,0.3,0.3h1.4c0.2,0,0.3,0.1,0.3,0.3s-0.1,0.3-0.3,0.3H55.7z M42.5,113h1.4c0.2,0,0.3-0.1,0.3-0.3v-8.1
	c0-0.2-0.1-0.3-0.3-0.3h-1.4c-0.2,0-0.3-0.1-0.3-0.3c0-0.2,0.1-0.3,0.3-0.3h2c0.2,0,0.3,0.1,0.3,0.3v1.1c0,0.1,0,0.2,0.1,0.3
	s0.1,0,0.2-0.1c1.1-1.2,2.2-1.8,3.5-1.8s2.2,0.3,2.9,1c0.7,0.7,1,1.7,1,2.9v5.2c0,0.2,0.1,0.3,0.3,0.3h1.4c0.2,0,0.3,0.1,0.3,0.3
	s-0.1,0.3-0.3,0.3h-3.8c-0.2,0-0.3-0.1-0.3-0.3s0.1-0.3,0.3-0.3h1.2c0.2,0,0.3-0.1,0.3-0.3v-5.2c0-1.1-0.3-2-0.9-2.5
	c-0.6-0.6-1.4-0.8-2.4-0.8c-1,0-2,0.4-2.8,1.3c-0.4,0.4-0.7,0.8-1,1.3v5.9c0,0.2,0.1,0.3,0.3,0.3h1.2c0.2,0,0.3,0.1,0.3,0.3
	s-0.1,0.3-0.3,0.3h-3.8c-0.2,0-0.3-0.1-0.3-0.3S42.3,113,42.5,113z M35.4,103.5c1.1,0,2,0.3,2.7,0.9c0.7,0.6,1,1.4,1,2.3v5.9
	c0,0.2,0.1,0.3,0.3,0.3h1.4c0.2,0,0.3,0.1,0.3,0.3s-0.1,0.3-0.3,0.3h-2c-0.2,0-0.3-0.1-0.3-0.3v-1.1c0-0.1,0-0.2-0.1-0.3
	c-0.1-0.1-0.1,0-0.2,0.1c-0.4,0.4-0.9,0.9-1.5,1.2s-1.3,0.6-2,0.6c-1.2,0-2.2-0.3-2.8-0.8s-0.9-1.3-0.9-2.1s0.4-1.6,1.1-2.1
	s1.7-0.8,2.9-0.8h3.3c0.2,0,0.3-0.1,0.3-0.3v-0.8c0-0.8-0.3-1.4-0.9-1.9c-0.6-0.5-1.3-0.8-2.1-0.8s-1.5,0.1-2.1,0.3
	c-0.5,0.2-0.9,0.4-1.1,0.6c-0.2,0.2-0.4,0.2-0.5,0c-0.1-0.2-0.1-0.3,0-0.4C32.8,103.9,34,103.5,35.4,103.5z M38.5,108.8
	c0-0.2-0.1-0.3-0.3-0.3h-3.3c-1.1,0-2,0.2-2.5,0.7c-0.5,0.4-0.8,1-0.8,1.7s0.3,1.3,0.8,1.7c0.5,0.4,1.3,0.7,2.3,0.7
	c1.3,0,2.4-0.6,3.4-1.9c0.2-0.2,0.3-0.5,0.5-0.7V108.8z M12.4,113h1.4c0.2,0,0.3-0.1,0.3-0.3v-12.1c0-0.2-0.1-0.3-0.3-0.3h-1.4
	c-0.2,0-0.3-0.1-0.3-0.3c0-0.2,0.1-0.3,0.3-0.3h2.2c0.2,0,0.4,0.1,0.5,0.3l5.5,12.3c0.1,0.3,0.3,0.3,0.4,0l5.5-12.3
	c0.1-0.2,0.3-0.3,0.5-0.3h2.2c0.2,0,0.3,0.1,0.3,0.3c0,0.2-0.1,0.3-0.3,0.3h-1.4c-0.2,0-0.3,0.1-0.3,0.3v12.1c0,0.2,0.1,0.3,0.3,0.3
	h1.4c0.2,0,0.3,0.1,0.3,0.3s-0.1,0.3-0.3,0.3h-3.8c-0.2,0-0.3-0.1-0.3-0.3s0.1-0.3,0.3-0.3h1.2c0.2,0,0.3-0.1,0.3-0.3v-11.6
	c0-0.1,0-0.2-0.1-0.2c0,0-0.1,0-0.1,0.1l-5.5,12.3c-0.1,0.2-0.3,0.3-0.4,0.3c-0.2,0-0.3-0.1-0.4-0.3l-5.5-12.3
	c-0.1-0.1-0.1-0.1-0.1-0.1c0,0,0,0.1,0,0.2v11.6c0,0.2,0.1,0.3,0.3,0.3h1.2c0.2,0,0.3,0.1,0.3,0.3s-0.1,0.3-0.3,0.3h-3.8
	c-0.2,0-0.3-0.1-0.3-0.3S12.2,113,12.4,113z"/>
<path class="st2" d="M68.2,81.7c-4.2,1.4-8.6,2.2-13.3,2.2c-22.7,0-41.1-18.4-41.1-41.1S32.2,1.6,54.9,1.6
	c11.4,0,21.6,4.6,29.1,12.1"/>
<path class="st0" d="M28.4,24.2l34.6,34.2c-2,2.4-6.2,3.2-9,1.2l-2.7-2.8l-8.3-8.5c-2.3-3.5-1.2-6.3,0.9-8.8"/>
<path class="st0" d="M28.7,46.8l8.3,8.4c4.8,4,9.4,3.7,14.2,1.6"/>
<path class="st0" d="M52.6,48.1c3.8,1.6,7.6,2.3,11.3,1.5"/>
<path class="st0" d="M57.5,53c3.9-0.2,5.6-1.5,6.3-3.4"/>
<polyline class="st0" points="78.8,28.6 68.5,36.6 77.6,45.4 79.3,43.3 "/>
<line class="st0" x1="73.1" y1="41" x2="63.9" y2="49.5"/>
<line class="st0" x1="46.6" y1="49.5" x2="50.5" y2="53.3"/>
<line class="st0" x1="51.5" y1="54.4" x2="52.4" y2="55.2"/>
<path class="st1" d="M98.6,37.4c-0.2-4.2,1.7-8,3.6-11.6l-0.2,1.3v0l0,0l-0.1,0.4v0h0c-0.8,5.4-1.5,10.8-2.7,16.1l0-0.3v0
	c0-0.2,0-0.4-0.1-0.5h0v-0.1l-0.1-0.5h0v0L99,41.7h0v0l-0.1-0.5h0v0l-0.1-0.5l0,0v0C98.8,39.5,98.6,38.5,98.6,37.4 M97.4,47.9
	c0.2-0.8,0.6-1.6,1.1-2.3c-0.2,0.4-0.4,0.8-0.5,1.2v0h0c-0.1,0.2-0.2,0.3-0.2,0.5v0h0c-0.1,0.3-0.2,0.6-0.4,0.8
	C97.4,48.1,97.4,48,97.4,47.9z M97.4,49.4c0.1-0.1,0.1-0.2,0.2-0.3v0h0l0.1-0.1v0h0l0-0.1v0h0l0-0.1v0h0c0.1-0.1,0.1-0.3,0.2-0.4v0
	h0l0.1-0.1v0h0l0.1-0.1v0l0,0c0.1-0.2,0.2-0.4,0.3-0.6v0h0l0-0.1v0h0c0-0.1,0.1-0.2,0.1-0.3v0h0l0-0.1v0h0c0-0.1,0.1-0.2,0.1-0.3v0
	h0c0.1-0.2,0.2-0.5,0.3-0.8v0h0l0.1-0.2v0h0l0-0.1v0h0l0-0.1v0h0l0-0.1v0h0c0.1-0.3,0.2-0.6,0.3-0.9v0h0c0-0.1,0.1-0.3,0.1-0.4v0h0
	l0.1-0.2v0h0c0.1-0.4,0.2-0.8,0.3-1.2v0h0c0-0.2,0.1-0.3,0.1-0.5v0h0l0.1-0.3v0h0c0-0.2,0.1-0.4,0.1-0.6v0h0c0-0.2,0.1-0.4,0.1-0.6
	v0h0c0.1-0.5,0.2-0.9,0.2-1.4v0h0l0.1-0.4v0h0c0.1-0.4,0.1-0.8,0.2-1.2v0c0.1-0.4,0.1-0.8,0.2-1.2c0.3-2.1,0.6-4.1,1-6.2v0h0
	l0.1-0.3v0h0l0.1-0.4v0h0l0.1-0.4v0h0c0-0.3,0.1-0.6,0.1-0.8v0h0c0-0.1,0-0.3,0.1-0.4v-0.1h0c0-0.1,0-0.3,0-0.4v-0.2h0
	c0-0.1,0-0.3,0-0.4v-0.1h0c0-0.1,0-0.3,0-0.4c0.1,0.5,0.1,1.1,0.1,1.6h0v0c0,0.2,0,0.3,0,0.5h0v0.1c0,0.1,0,0.3,0.1,0.4h0v0l0,0.1
	c0,0.1,0,0.1,0,0.2c0,0,0,0,0,0c0,0.3,0,0.6,0.1,0.8h0v0.1c0,0.4,0.1,0.8,0.1,1.2h0v0c0,0.2,0,0.3,0.1,0.5h0v0l0.1,0.5h0v0
	c0.4,3.5,0.9,7-0.2,10.4c-0.9,2.3-2.4,4.4-4.1,6.2c-0.1,0.1-0.2,0.1-0.2,0.2c0,0,0,0,0,0c-0.4,0.3-0.8,0.6-1.3,0.9
	C97.3,49.5,97.3,49.4,97.4,49.4z M95.8,25.4c0-0.1-0.1-0.3-0.1-0.4l0,0v0l0-0.1h0v-0.1l0-0.1h0v0l-0.1-0.1h0v0
	c-0.1-0.1-0.1-0.3-0.2-0.4h0v0L95.3,24h0v0c-0.4-0.8-0.8-1.7-1.1-2.6c-0.1-0.8-0.2-1.7-0.3-2.5h0v0c0-0.2-0.1-0.5-0.1-0.7h0v0
	c0-0.1,0-0.2-0.1-0.3h0v0c-0.1-0.3-0.1-0.5-0.2-0.8h0v0l-0.1-0.2h0v0c0-0.1,0-0.1-0.1-0.2h0v0c-0.1-0.4-0.2-0.7-0.3-1h0v0
	c0-0.1-0.1-0.2-0.1-0.3l0,0v0l-0.1-0.1h0v0l0-0.1h0v0l0-0.1h0v0l0-0.1h0v0l0-0.1h0v0c0-0.1-0.1-0.1-0.1-0.2l0,0l0,0
	c0-0.1-0.1-0.1-0.1-0.2h0v0c-0.1-0.2-0.3-0.4-0.4-0.7c1.1,1.1,1.6,2.5,2.3,3.9c0.3,0.6,0.6,1.3,0.8,2c0,0,0,0,0-0.1
	c0.3,1.5,0.5,2.9,0.6,4.4h0v0c0,0.3,0.1,0.6,0.1,0.9h0v0c0,0.1,0,0.2,0.1,0.4h0v0c0,0.1,0,0.2,0.1,0.4
	C95.9,25.5,95.8,25.5,95.8,25.4z M96.3,24.9c-0.1-0.5-0.1-1.1-0.2-1.6h0v0c0-0.1,0-0.2,0-0.3c-0.1-0.5-0.1-1.1-0.2-1.6h0v0
	c0-0.1,0-0.3-0.1-0.4h0v0c0-0.1,0-0.2,0-0.3h0v-0.1c0-0.2-0.1-0.4-0.1-0.6h0v0l0-0.2h0v-0.1c0-0.1,0-0.1-0.1-0.2h0v0
	c0-0.1,0-0.1-0.1-0.2h0v0c-0.1-0.2-0.1-0.4-0.2-0.6h0v0l0-0.1h0v-0.1c0,0,0-0.1,0-0.1h0v0l0-0.1h0v-0.1l0-0.1h0V18l0-0.1h0v0l0-0.1
	h0v0c0-0.1-0.1-0.2-0.1-0.2c0,0,0,0,0,0c-0.1-0.2-0.2-0.3-0.3-0.5c0,0,0,0,0,0c0,0,0,0,0,0c-0.4-0.7-0.7-1.4-1.1-2.1h0v0
	c-0.1-0.2-0.3-0.5-0.5-0.7h0v0l0-0.1h0v0c-0.1-0.1-0.2-0.2-0.2-0.3h0v0c0,0-0.1-0.1-0.1-0.1c0,0,0,0,0,0c0,0,0,0,0,0c0,0,0,0,0,0
	c0,0-0.1-0.1-0.1-0.1c0,0,0,0,0,0c-0.2-0.2-0.3-0.4-0.5-0.5c0,0,0,0,0,0c0,0,0,0,0,0c0,0,0,0,0,0c-0.2-0.2-0.4-0.5-0.6-0.7
	c0,0,0,0,0,0c0,0,0,0,0,0c0,0,0,0,0,0l0-0.1h0v0l0,0h0v0l0,0h0v0l0,0h0v0l0,0h0v0l0,0h0v0l0,0h0v0c-0.3-0.3-0.7-0.5-1-0.8
	c0.4,0.2,0.7,0.5,1.1,0.8h0v0c0.1,0.1,0.2,0.1,0.3,0.2c0,0,0,0,0,0c0.1,0.1,0.3,0.2,0.4,0.3c2.9,1.7,3.7,5,4.5,8c0,0,0,0,0-0.1
	C96.5,21.8,96.4,23.4,96.3,24.9z M94.6,34.5C94.6,34.5,94.6,34.5,94.6,34.5C94.6,34.5,94.6,34.5,94.6,34.5
	C94.7,34.6,94.7,34.6,94.6,34.5C94.7,34.6,94.7,34.6,94.6,34.5C94.7,34.6,94.7,34.5,94.6,34.5z M94.9,34.7
	c-3.5-2.3-6.5-6.2-5.8-10.6c0-0.5,0-0.9,0-1.4h0v-0.1c0-0.6-0.1-1.2-0.2-1.8c0.1,0.3,0.3,0.6,0.4,0.9c0,0,0,0,0,0
	c0.1,0.1,0.1,0.3,0.2,0.4c0,0,0,0,0,0c0.1,0.2,0.2,0.5,0.3,0.7h0v0l0.1,0.1h0v0c0.5,1,1,2,1.1,3.2c0,0,0,0,0,0c0,0.1,0,0.2,0,0.3h0
	v0.1c0,0.1,0,0.2,0,0.3h0v0.1c0,0.2,0.1,0.4,0.1,0.6h0v0c0,0.1,0,0.1,0,0.2h0v0.1l0,0.2h0V28c0,0.1,0.1,0.3,0.1,0.4l0,0v0l0.1,0.2h0
	v0l0.1,0.2h0v0l0.1,0.2h0v0c0.1,0.2,0.1,0.3,0.2,0.5h0v0c0,0.1,0.1,0.2,0.1,0.3l0,0v0l0.1,0.1h0v0c0.1,0.2,0.2,0.3,0.2,0.5h0v0
	l0.1,0.1h0v0c0.1,0.1,0.1,0.2,0.2,0.3h0v0c0.1,0.2,0.2,0.4,0.3,0.5h0v0l0.1,0.1l0,0v0c0.1,0.2,0.2,0.4,0.3,0.6h0v0
	c0.2,0.3,0.3,0.5,0.5,0.8h0v0l0.1,0.2h0v0c0.2,0.3,0.5,0.7,0.7,1h0v0C94.6,34.3,94.8,34.5,94.9,34.7C94.9,34.7,94.9,34.7,94.9,34.7z
	 M91.3,25.9c0-0.1,0-0.1,0-0.2h0v-0.1c0-0.1,0-0.2,0-0.3h0v-0.1c0-0.2-0.1-0.3-0.1-0.5l0,0v0c0-0.1,0-0.1-0.1-0.2h0v0
	c0-0.1,0-0.1-0.1-0.2h0v0c-0.1-0.2-0.1-0.4-0.2-0.6h0v0c-0.6-1.4-1.6-2.7-2-4.2c0.2,0.3,0.4,0.6,0.6,0.9h0v0c0.9,1.3,2,2.6,2.5,4.1
	c0.4,1.4,0.7,2.9,1.2,4.3h0v0c0.2,0.7,0.4,1.3,0.6,1.9h0v0c0.1,0.2,0.1,0.3,0.2,0.5h0v0c0,0.1,0.1,0.2,0.1,0.3h0v0
	c0,0.1,0.1,0.2,0.1,0.3h0v0c0.1,0.1,0.1,0.3,0.2,0.4h0l0,0c0.2,0.5,0.5,1,0.8,1.5h0v0l0.1,0.1h0v0c0.2,0.3,0.3,0.6,0.5,0.9
	C93.6,32.1,91.7,29.3,91.3,25.9z M86.7,35.9C86.7,35.9,86.7,35.9,86.7,35.9C86.7,35.9,86.7,35.9,86.7,35.9
	C86.7,35.9,86.7,35.9,86.7,35.9z M89.8,51.3c-0.1-0.1-0.1-0.2-0.2-0.3h0v0c-0.1-0.2-0.2-0.3-0.3-0.5h0v0c-1-1.3-2.4-2.2-3-3.8
	c-0.5-1.1-0.4-2.3-0.3-3.5c-0.1-2.4,0.3-4.9,0.7-7.3c0,0,0,0,0,0c0,0,0,0,0,0c0,0,0,0,0,0c0.1-0.5,0.1-1,0.2-1.5c0,0.1,0,0.3,0,0.4
	h0v0.3c0,0.2,0,0.5,0,0.7h0V36c0,0.4,0.1,0.7,0.1,1.1h0v0.1c0,0.1,0,0.3,0,0.4h0v0.1c0,0.1,0,0.2,0,0.3h0V38l0,0.3h0v0.1
	c0.1,0.3,0.1,0.7,0.2,1h0v0l0,0.3h0v0.1l0.1,0.3h0v0l0.1,0.3h0v0l0.1,0.3h0v0c0.1,0.3,0.1,0.5,0.2,0.8h0v0c0,0.2,0.1,0.3,0.1,0.5h0
	v0c0.1,0.5,0.2,1,0.4,1.5l0,0v0c0.6,2.6,1.3,5.3,1.6,7.9C89.9,51.4,89.9,51.3,89.8,51.3z M89.9,46.4C89.9,46.5,89.9,46.5,89.9,46.4
	C89.9,46.5,89.9,46.5,89.9,46.4c0,0.3-0.1,0.7-0.1,1c0,0,0,0,0,0c0,0,0,0,0,0c-0.1-0.5-0.2-0.9-0.3-1.4c-0.1-0.2-0.1-0.4-0.2-0.6h0
	v0l-0.1-0.2h0v0c-0.5-1.8-1-3.6-1.3-5.4c0,0,0,0,0,0.1c-0.3-1.5-0.6-3.1-0.7-4.7c0,0.1,0.1,0.2,0.1,0.3h0v0c0.2,0.5,0.5,0.9,0.7,1.3
	c0,0,0,0,0,0c0,0,0,0,0,0c1.1,1.8,1.5,3.8,1.4,5.8C89.8,43.9,90.1,45.2,89.9,46.4z M84.6,66.2L84.6,66.2L84.6,66.2L84.6,66.2z
	 M84.5,66.8c0,0,0,0.1,0,0.1C84.5,66.9,84.5,66.8,84.5,66.8c-0.2,0.4-0.3,0.7-0.6,0.8c0.1-0.3,0.3-0.5,0.5-0.7c0,0,0,0,0,0
	C84.5,66.8,84.5,66.8,84.5,66.8z M83.9,67.3c0.2-0.3,0.4-0.5,0.6-0.8c0,0.1,0,0.2,0,0.2c0,0,0,0,0,0c0,0,0,0,0,0.1c0,0,0,0,0,0
	c0,0,0,0,0,0c-0.2,0.3-0.5,0.5-0.6,0.9C83.8,67.5,83.8,67.4,83.9,67.3z M85.9,63C85.9,63,85.9,63,85.9,63C85.9,63,85.9,63,85.9,63
	C85.9,63,85.9,63,85.9,63C85.9,63,85.9,63,85.9,63C86,63,86,62.9,85.9,63C86,62.9,86,62.9,85.9,63C86,62.9,86,62.9,85.9,63
	c0,0,0,0.1-0.1,0.2c-0.4,0.6-1.1,1-1.9,1C84.6,63.7,85.1,63.1,85.9,63z M85,61.4C85,61.4,85,61.4,85,61.4C85,61.4,85,61.4,85,61.4
	C85,61.4,85,61.4,85,61.4C85,61.4,85,61.3,85,61.4C85,61.3,85,61.3,85,61.4C85,61.3,85,61.3,85,61.4c0.1,0.5,0.1,1.1-0.1,1.6
	c0,0,0,0,0,0c-0.1,0.2-0.4,0.3-0.5,0.5c0.1-0.1,0.2-0.3,0.3-0.4l0,0l0,0l0,0c0,0,0-0.1,0.1-0.1v0h0c0.1-0.2,0.1-0.3,0.2-0.5v0h0
	C85,62.1,85,61.7,85,61.4z M84.3,62.3c0.2-0.3,0.4-0.6,0.6-0.9c0,1-0.5,2.1-1.3,2.7C83.5,63.4,83.9,62.8,84.3,62.3z M83.3,64.1
	c0,0,0-0.1,0-0.1c0,0,0,0,0-0.1c0,0,0,0,0,0c-0.4-0.9,0.4-1.8,0.5-2.7v0h0c0,0,0-0.1,0-0.1c0,0,0,0,0,0.1c0,0,0,0,0,0
	c0.2,0.4,0.1,0.8,0.1,1.2c0,0,0,0,0,0c0,0.1,0,0.2,0,0.3c-0.2,0.3-0.3,0.6-0.4,1v0.1h0c0,0.1,0,0.1,0,0.2v0.1h0
	C83.3,64,83.3,64,83.3,64.1z M87,52.4L87,52.4z M86.6,52.8c0.1-0.1,0.2-0.2,0.3-0.3c0,0.2-0.1,0.4-0.2,0.6c0,0,0,0,0,0
	c-0.3,0.6-0.8,1-1.3,1.3c0.1-0.2,0.2-0.4,0.3-0.6c0,0,0,0,0,0c0-0.1,0.1-0.1,0.1-0.2c0,0,0,0,0,0c0,0,0,0,0,0c0,0,0,0,0,0
	C86,53.3,86.3,53,86.6,52.8z M85.4,53.6c0,0,0-0.1,0-0.1c0.1-0.5,0.7-0.7,1-1c0,0.1,0,0.1-0.1,0.2c0,0,0,0,0,0c0,0,0,0.1-0.1,0.1
	c-0.1,0-0.1,0.1-0.2,0.1v0h0c0,0,0,0-0.1,0v0h0c-0.1,0.1-0.2,0.2-0.3,0.3v0h0c0,0.1-0.1,0.1-0.1,0.2v0h0c-0.1,0.1-0.2,0.3-0.2,0.5v0
	h0c0,0.1-0.1,0.2-0.1,0.3c0,0,0,0,0,0c0,0,0,0,0,0C85.3,54.1,85.3,53.8,85.4,53.6C85.4,53.6,85.4,53.6,85.4,53.6z M84.3,52.5
	c0,0.2,0,0.4,0,0.6c0,0.2-0.1,0.4-0.3,0.5C84,53.2,84.1,52.8,84.3,52.5z M83.9,53.6c-0.1-0.1-0.1-0.2-0.1-0.4c0-0.2,0.1-0.3,0.2-0.5
	C83.9,53,83.9,53.3,83.9,53.6z M83.5,49.4C83.5,49.4,83.5,49.4,83.5,49.4C83.5,49.4,83.5,49.4,83.5,49.4L83.5,49.4L83.5,49.4
	L83.5,49.4l0.1-0.1v0h0l0.1-0.1v0h0c0.2-0.2,0.3-0.4,0.5-0.6v0h0c0.1-0.1,0.2-0.3,0.3-0.4c-0.2,0.8-0.5,1.7-1.4,1.8
	C83.2,49.9,83.3,49.6,83.5,49.4C83.5,49.4,83.5,49.4,83.5,49.4C83.5,49.4,83.5,49.4,83.5,49.4z M83.2,46.8c0.3,1,0.5,2.2-0.3,3
	c0,0,0,0-0.1,0.1c0-0.3,0-0.6,0-0.9h0v-0.1c0-0.1,0-0.3-0.1-0.4c0-0.1,0-0.1,0-0.2c0,0,0,0,0,0c0,0,0,0,0,0
	c-0.1-0.5,0.2-0.9,0.4-1.3v0h0C83.2,46.9,83.2,46.9,83.2,46.8z M82.4,50.1c-1.1-0.4-1.7-0.3-2.2-1.5c0.8,0.1,1.4,0.6,1.9,1.2
	c0,0,0,0,0,0c0,0,0.1,0.1,0.1,0.1c0,0,0,0,0,0C82.4,49.9,82.5,50,82.4,50.1C82.5,50.1,82.4,50.1,82.4,50.1z M81.7,49
	c-0.3-0.3-0.5-0.7-0.8-1c-0.1-0.2-0.2-0.5-0.2-0.7c0,0,0,0,0,0c0,0,0,0,0,0c0,0,0,0,0,0c0,0,0-0.1,0-0.1c0,0,0,0,0.1,0.1
	c0,0,0,0,0,0c0.1,0.1,0.1,0.1,0.2,0.1c0,0,0,0,0,0c0.1,0.1,0.3,0.2,0.4,0.3c0,0,0,0,0,0c0.4,0.3,0.8,0.6,0.9,1.1c0,0,0,0.1,0.1,0.1
	c0.1,0.3,0.2,0.6,0.2,0.9h0v0c0,0.1,0,0.2,0.1,0.2h0v0c0,0,0,0.1,0,0.1c0,0,0,0,0,0h0h0c0,0,0,0-0.1,0c-0.1-0.1-0.1-0.3-0.2-0.4h0v0
	C82.2,49.5,81.9,49.3,81.7,49z M80.4,52.2c0-0.2,0-0.5,0.1-0.7c0,0.3-0.1,0.7,0,1C80.4,52.4,80.4,52.3,80.4,52.2z M80.5,52.1
	c0-0.3,0-0.6,0-0.9c0,0,0,0.1,0,0.1c0,0.1,0.1,0.2,0.1,0.3c0,0,0,0,0,0c0.1,0.3,0.1,0.7-0.1,1C80.6,52.4,80.5,52.3,80.5,52.1z
	 M79.1,59.6c0,0.1,0.1,0.2,0,0.3c0,0,0,0,0,0c0,0,0,0,0,0c0,0,0,0,0,0c0,0.1-0.1,0.3-0.2,0.3c0.1-0.2,0.1-0.5,0.1-0.7
	C79.1,59.5,79.1,59.6,79.1,59.6z M78.9,59.9c0-0.2,0.1-0.4,0.1-0.5c0,0.3,0.1,0.6-0.1,0.8C78.9,60.1,78.9,60,78.9,59.9z M75.9,57.3
	c-0.1-0.3-0.2-0.5-0.3-0.8c0.2,0,0.3,0.1,0.5,0.2c0,0,0,0,0,0c0.1,0.1,0.1,0.1,0.2,0.2h0v0c0,0,0,0,0.1,0c0,0,0,0,0,0c0,0,0,0,0,0
	c0,0,0,0,0,0c0.7,0.5,1,1.4,1.2,2.3C76.5,59,76.2,58.1,75.9,57.3z M77.3,59.3c-0.1,0-0.1,0-0.2-0.1c0,0,0,0,0,0c0,0,0,0,0,0
	c0,0-0.1,0-0.1,0h0c-0.1,0-0.2-0.1-0.2-0.1c0,0,0,0,0,0c-0.7-0.1-1.3-0.4-1.6-1.1c0,0,0,0,0,0c0,0,0,0,0,0c-0.2-0.3-0.3-0.6-0.6-0.8
	c0.1,0,0.2,0,0.3,0c0,0,0,0,0,0c0.2,0.1,0.3,0.3,0.5,0.4c0.2,0.1,0.5,0.2,0.6,0.5v0c0,0,0,0,0,0c0.1,0.1,0.2,0.3,0.3,0.4h0v0
	c0.2,0.3,0.5,0.6,0.8,0.7c0,0,0,0,0,0C77.2,59.2,77.3,59.3,77.3,59.3C77.4,59.3,77.4,59.3,77.3,59.3C77.4,59.3,77.4,59.3,77.3,59.3z
	 M78.8,57.3c0,0,0-0.1,0.1-0.1c0.1-0.2,0.3-0.3,0.5-0.6c0,0.4,0.1,0.9-0.2,1.3c-0.2,0.7-0.6,1.2-1.3,1.3c0,0,0,0,0,0
	c0,0-0.1,0-0.1,0c0-0.1,0.1-0.1,0.2-0.2c0,0,0,0,0,0c0,0,0,0,0,0c0.1-0.1,0.2-0.2,0.3-0.3v0h0c0-0.1,0.1-0.1,0.1-0.2v0h0
	c0.2-0.3,0.3-0.6,0.4-1v0h0C78.8,57.5,78.8,57.4,78.8,57.3z M78.4,55.9C78.4,55.9,78.4,55.9,78.4,55.9
	C78.4,55.9,78.4,55.9,78.4,55.9C78.4,55.9,78.4,55.9,78.4,55.9z M77.6,59.1c0,0,0-0.1,0-0.1h0v0c0-0.4-0.1-0.8,0-1.1
	c0.2-0.7,0.5-1.3,0.8-1.9c0,0,0,0,0,0C78.7,57.2,78.6,58.2,77.6,59.1z M76.3,61.8C76.3,61.8,76.3,61.8,76.3,61.8
	C76.3,61.8,76.3,61.8,76.3,61.8c-0.2-0.1-0.3-0.3-0.4-0.5c0,0,0,0,0,0c0-0.2-0.1-0.4,0-0.7c0,0.1,0,0.2,0,0.2h0V61
	c0,0.1,0,0.1,0,0.2h0v0c0,0,0,0.1,0.1,0.1h0v0c0,0,0,0.1,0,0.1h0v0c0,0,0,0.1,0,0.1h0v0C76.2,61.7,76.3,61.7,76.3,61.8
	C76.3,61.8,76.3,61.8,76.3,61.8z M76.4,61.6c-0.2-0.3-0.3-0.7-0.3-1.1c0,0,0,0,0,0C76.3,60.9,76.5,61.3,76.4,61.6z M77.7,70.7
	C77.7,70.7,77.7,70.8,77.7,70.7C77.7,70.8,77.7,70.8,77.7,70.7C77.7,70.8,77.7,70.7,77.7,70.7z M89.9,68.4
	C89.9,68.4,89.9,68.4,89.9,68.4c0.1-0.2,0.2-0.3,0.4-0.5v0h0l0.1-0.2v0h0l0.1-0.2v0h0c0.1-0.1,0.2-0.3,0.3-0.4c0,0,0,0,0,0
	c0-0.1,0.1-0.1,0.1-0.2v0h0c0.1-0.1,0.2-0.3,0.2-0.4v0h0l0.1-0.1v0h0l0.1-0.1v0h0l0.1-0.1v0h0c0.2-0.4,0.4-0.9,0.7-1.3c0,0,0,0,0,0
	c0.1-0.2,0.2-0.4,0.3-0.5c0,0,0,0,0,0c0.1-0.1,0.2-0.3,0.3-0.4c0,0,0,0,0,0c0.1-0.1,0.2-0.3,0.2-0.4c0,0,0,0,0,0
	c0-0.1,0.1-0.1,0.1-0.2c0,0,0,0,0,0c3-4.2,6-8.4,10.1-11.5c0,0,0,0,0,0c0,0,0,0,0,0c0,0,0,0,0,0c0.9-0.6,1.9-1.1,2.9-1.7
	c-0.1,0.1-0.2,0.1-0.3,0.2c-0.1,0.1-0.2,0.2-0.3,0.3v0h0c-0.1,0.1-0.2,0.2-0.4,0.3v0h0c-0.1,0.1-0.3,0.2-0.4,0.3v0h0
	c-0.3,0.2-0.5,0.5-0.8,0.7v0h0l-0.1,0.1v0h0l-0.1,0.1v0h0l-0.1,0.1v0h0l-0.1,0.1v0h0l-0.1,0.1v0h0l-0.1,0.1v0h0
	c-0.2,0.2-0.5,0.5-0.7,0.8v0h0c-0.1,0.1-0.2,0.2-0.3,0.3v0h0c-0.1,0.1-0.2,0.2-0.3,0.3c0,0,0,0,0,0c0,0,0,0,0,0
	c0,0.1-0.1,0.1-0.1,0.2c0,0,0,0,0,0c-0.1,0.2-0.2,0.3-0.4,0.5c0,0,0,0,0,0c0,0.1-0.1,0.1-0.1,0.2v0h0c-0.1,0.1-0.1,0.1-0.2,0.2v0h0
	c-0.1,0.1-0.1,0.1-0.2,0.2v0h0c-0.8,1.2-1.5,2.4-2.4,3.6c0,0,0,0,0,0c0,0,0,0,0,0c0,0,0,0,0,0c0,0,0,0,0,0.1c0,0,0,0,0,0
	c0,0,0,0,0,0c0,0,0,0,0,0c0,0,0,0,0,0c0,0,0,0,0,0c0,0,0,0,0,0c0,0,0,0,0,0c-2.2,2.7-4.7,5.2-7.1,7.8v0h0l-0.1,0.1v0h0
	c-0.2,0.2-0.4,0.4-0.6,0.6v0h0l0,0v0h0l0,0.1v0h0l-0.1,0.1l0,0l0,0c-0.2,0.2-0.4,0.4-0.5,0.6v0h0L90.3,68v0h0
	C90.2,68.2,90,68.3,89.9,68.4C89.9,68.5,89.9,68.4,89.9,68.4z M106.8,49.9c-0.1,0.1-0.2,0.2-0.3,0.4v0h0l-0.1,0.1v0h0
	c-0.1,0.1-0.2,0.2-0.2,0.3v0h0l0,0v0h0l0,0v0h0l0,0v0h0l0,0v0h0l0,0.1v0h0l-0.2,0.2v0h0l0,0v0h0l0,0v0h0l0,0v0h0
	c-0.1,0.1-0.2,0.2-0.2,0.3v0h0l0,0v0h0c-0.1,0.1-0.2,0.2-0.3,0.4v0h0c-0.1,0.1-0.1,0.1-0.2,0.2v0h0c-0.1,0.1-0.1,0.1-0.2,0.2v0h0
	l0,0.1v0h0l-0.1,0.1v0h0l0,0v0h0l0,0.1v0h0l-0.1,0.1v0h0l0,0v0h0l0,0.1v0h0l-0.1,0.1v0h0l0,0v0h0l0,0.1v0.1h0l0,0v0h0l0,0.1v0h0
	l-0.1,0.1v0h0l0,0v0h0l-0.1,0.2v0h0l-0.1,0.2v0h0c-0.1,0.2-0.2,0.3-0.3,0.5v0h0l-0.1,0.1v0h0l0,0.1v0h0l-0.1,0.1v0h0l0,0.1v0h0l0,0
	v0h0l-0.1,0.1v0h0l0,0.1v0.1h0l0,0v0h0l-0.1,0.1v0h0l0,0.1v0h0l0,0.1v0.1h0l0,0v0h0l0,0.1v0h0l0,0.1v0h0l-0.1,0.2v0h0l-0.1,0.1v0h0
	l0,0.1v0h0c-0.1,0.3-0.3,0.5-0.4,0.8v0h0l0,0.1v0h0l0,0.1v0h0l0,0.1v0h0l0,0.1v0h0l0,0.1v0.1h0l0,0.1v0.1h0l0,0.1v0.1h0l0,0.1v0h0
	l0,0.1v0.1h0l0,0.1v0.1h0l0,0.1v0h0l0,0.1v0h0c0,0.1-0.1,0.2-0.1,0.3v0h0l-0.1,0.2c0,0,0,0,0-0.1c-0.2,0.6-0.5,1.2-0.8,1.8v0h0
	L99.9,61v0h0l-0.1,0.1v0h0l-0.1,0.1v0h0l-0.1,0.1v0h0c-0.1,0.2-0.2,0.4-0.3,0.6v0h0l0,0.1v0h0l0,0.1v0h0c0,0.1-0.1,0.2-0.1,0.3
	c0,0,0,0,0-0.1c-1.5,3.3-4.1,6-6.8,8.5c-2.2,1.7-5.1,1.7-7.8,1.8v0h0l-0.2,0c0.1,0,0.1,0,0.2-0.1v0h0l0.2-0.1v0h0l0.1,0v0H85l0.1,0
	v0h0l0.1-0.1v0h0l0.1,0v0h0c0.1,0,0.2-0.1,0.3-0.1v0h0c0.1,0,0.2-0.1,0.2-0.1v0h0l0.1-0.1v0h0l0.1-0.1v0h0l0.1-0.1v0h0
	c0.1-0.1,0.2-0.1,0.3-0.2v0h0l0.1,0v0h0c0.2-0.1,0.4-0.3,0.6-0.4v0h0l0.2-0.1v0h0l0.2-0.1v0h0c0.2-0.2,0.5-0.3,0.7-0.5v0h0l0.1,0v0
	h0c0.1-0.1,0.2-0.2,0.3-0.2v0h0l0.1,0v0h0c0.1-0.1,0.3-0.2,0.4-0.3v0h0c0.6-0.5,1.2-1.1,1.7-1.7v0h0l0.1-0.1v0h0
	c0.7-0.7,1.3-1.5,2-2.2c0.8-0.8,1.6-1.6,2.4-2.4v0h0l0-0.1v0h0l0.1-0.1v0h0c0.2-0.2,0.4-0.4,0.6-0.6v0h0c0.2-0.2,0.3-0.4,0.5-0.5v0
	h0c0.1-0.2,0.3-0.3,0.4-0.5v0h0l0.3-0.4v0h0c0.5-0.5,0.9-1.1,1.3-1.6v0h0l0.3-0.3v0h0l0.3-0.4c0.1-0.2,0.3-0.4,0.4-0.7v0h0l0.1-0.2
	v0h0c0.9-1.4,1.7-2.8,2.8-4.1c0,0,0,0,0,0c0,0,0,0,0,0c1.2-1.6,2.8-2.9,4.3-4.1C106.9,49.9,106.8,49.9,106.8,49.9z M73.4,79.1
	L73.4,79.1L73.4,79.1c0.5-0.8,1.3-1.9,1.4-2.1c0,0,0,0,0,0c0.6-1,1.1-2.1,1.6-3.2h0v0c0.2-0.5,0.4-0.9,0.6-1.3h0v0l0-0.1
	c0.2-1.2,0.5-2.5,0.6-3.7c0,0,0,0,0,0c0,0,0,0,0,0c0.3-3.6,0.2-3.3-0.9-5.7v0l0,0c-0.1-0.3-0.3-0.6-0.4-1c0,0-0.1,0-0.1,0
	c0,0,0,0,0,0c0,0,0,0,0,0c0,0,0,0,0,0c0,0,0,0,0,0c0,0,0,0,0,0c0,0-0.1-0.1-0.1-0.1v0h0c0,0,0,0,0,0v0h0c0,0,0,0,0-0.1v0h0
	c0-0.1-0.1-0.1-0.1-0.2v0h0c-0.1-0.1-0.1-0.2-0.1-0.4v-0.1h0c0-0.1,0-0.2,0-0.3h0v0c0-0.1,0-0.1,0-0.2c0-0.1,0.1-0.3,0.1-0.4h0v0
	c0,0,0.1,0,0.2,0.2c0,0,0,0,0,0c0,0,0,0,0,0c0,0,0,0,0,0c0.1,0.1,0.2,0.3,0.3,0.4v0h0c0.2,0.4,0.2,0.7,0.1,1.1
	c0.3,0.9,0.8,1.8,1.3,2.6c0-0.1,0-0.1,0-0.2v-0.1h0c-0.1-1.4,0-2.8-0.2-4.2c0,0,0,0,0,0c0-0.1,0-0.1,0-0.2v0h0c0-0.1,0-0.3,0-0.4
	c-0.1,0-0.2-0.1-0.4-0.1c0,0,0,0,0,0c-0.4-0.1-0.7-0.2-1.1-0.3v0h0c-0.4-0.2-0.7-0.4-0.9-0.8v0h0c0,0,0-0.1-0.1-0.1v0h0
	c0,0,0,0,0-0.1c0,0,0,0,0,0c0-0.1-0.1-0.1-0.1-0.2v0h0c-0.1-0.2-0.2-0.4-0.4-0.6c0,0-0.1-0.1-0.2-0.2v0h0c0,0,0-0.1,0-0.1
	c0.1,0,0.1,0,0.1,0h0c0.5,0,0.6,0.4,1.1,0.5c0,0,0,0,0,0l0,0v0h0c0.1,0,0.1,0.1,0.2,0.1c-0.1-0.2-0.2-0.4-0.3-0.7v0h0
	c-0.1-0.1-0.1-0.3-0.2-0.4v0h0c0-0.1-0.1-0.1-0.1-0.2v0c0-0.1,0.1-0.1,0.1-0.1c0,0,0,0,0,0c0,0,0,0,0,0c0,0,0,0,0,0c0,0,0,0,0,0
	c0,0,0.1,0,0.1,0v0h0c0.1,0,0.1,0,0.2,0.1v0h0c0.2,0.1,0.3,0.2,0.4,0.3c0,0,0,0,0,0c0,0,0,0,0,0c0,0,0,0,0,0c0,0,0,0,0,0
	c0,0,0.1,0.1,0.1,0.1v0h0l0.1,0v0h0c0.1,0.1,0.2,0.2,0.3,0.3v0h0c0.1,0.1,0.1,0.1,0.2,0.2v0h0c0.1,0.2,0.2,0.4,0.3,0.6v0h0
	c0,0,0,0.1,0.1,0.1c0-0.1,0-0.3,0.1-0.4h0v0c0.1-0.2,0.1-0.5,0.2-0.7h0v0c0.2-0.5,0.5-0.9,0.7-1.4l0,0h0c0.2,0.1,0.2,1.2,0.3,1.4
	c0.2-0.2,0.4-0.4,0.6-0.7c0-0.1,0.1-0.1,0.1-0.1v0h0c0,0,0,0.1,0,0.1c0,0.2,0,0.4,0,0.6h0v0c0,0.2,0,0.3-0.1,0.5h0v0
	c0,0.1,0,0.2-0.1,0.3h0v0c-0.1,0.3-0.2,0.6-0.3,0.9h0v0c-0.1,0.1-0.1,0.2-0.2,0.2h0v0c0,0,0,0,0,0.1h0v0c0,0,0,0,0,0h0v0
	c0,0,0,0-0.1,0.1h0v0c0,0-0.1,0.1-0.2,0.1h0v0c-0.1,0.1-0.2,0.1-0.3,0.2h0v0c-0.1,0-0.1,0-0.2,0.1h0v0c0,0-0.1,0-0.1,0
	c0,0-0.1,0-0.1,0.1c0,0.1,0,0.2,0,0.3v0.2h0c0,0.1,0,0.2,0,0.4v0.3h0c0,0.1,0,0.3,0,0.4v0.1h0c0,0.4,0,0.7,0,1.1v0.1h0
	c0,0.4,0,0.9,0,1.3c0.1-0.4,0.2-0.8,0.4-1.3h0v0c0.2-0.7,0.4-1.4,0.5-2.2c-0.2-0.2-0.1-0.7,0-1h0v0c0,0,0-0.1,0-0.1h0v0
	c0,0,0-0.1,0.1-0.1c0.1,0,0.3,0.5,0.3,0.7c0,0,0,0,0,0c0,0.1,0,0.2,0,0.3h0v0c0,0.2-0.1,0.3-0.3,0.4c0,0,0,0,0,0c0,0,0,0,0,0
	c0,0,0,0,0,0c-0.4,1.2-0.7,2.5-1,3.8l0,0.3v0.1h0c0.1,1.1,0.1,2.3,0,3.4h0v0.1c0,0.2,0,0.5-0.1,0.7h0v0.1c0,0.2,0,0.4-0.1,0.5h0v0
	c0,0.1,0,0.3,0,0.4h0v0.1c0,0.1,0,0.2,0,0.3h0v0.1c0,0.2,0,0.3-0.1,0.5c1.5-4,3-8,3.6-12.2c0-1-0.2-2-0.4-3v0h0c0-0.1,0-0.2-0.1-0.3
	v0h0c0-0.1,0-0.2-0.1-0.3v0h0c0-0.3-0.1-0.6-0.1-0.9v-0.3h0c0-0.2,0-0.5,0-0.7c0,0,0,0,0,0c0,0,0-0.1,0-0.1c0,0-0.1-0.1-0.1-0.1v0h0
	c0,0-0.1-0.1-0.1-0.1v0h0c-0.4-0.4-0.2-1.1,0.1-1.6c0-0.1,0.1-0.1,0.1,0c0,0,0,0,0,0c0.1,0.3,0.2,0.5,0.3,0.7c0,0.1,0.1,0.2,0.1,0.3
	v0.2c0,0.1,0,0.2-0.1,0.3h0v0c0,0.1-0.1,0.2-0.2,0.4c0,0.1,0,0.2,0,0.2c0,0,0,0,0,0c0,0,0,0.1,0,0.1c0,0,0,0,0,0
	c0.1,1.5,0.5,3,0.7,4.5v0h0c0,0.2,0,0.3,0.1,0.5c0.6-2.6,0.9-5.2,1-7.8c-0.7-0.4-1.8-0.2-2.2-1.1l0,0v0h0c-0.1-0.2-0.2-0.4-0.3-0.6
	c0,0-0.1-0.1-0.1-0.2v-0.1c0,0,0,0,0,0h0v0c0,0,0,0,0,0c0.1,0,0.3,0.1,0.4,0.1v0h0l0.2,0.1v0h0l0.1,0v0h0c0,0,0.1,0,0.1,0v0h0
	c0.1,0,0.1,0,0.2,0.1c0,0,0-0.1-0.1-0.1c-0.1-0.1-0.2-0.3-0.3-0.4v0h0c-0.1-0.1-0.1-0.2-0.2-0.4v0h0c0-0.2,0-0.3,0-0.5
	c0,0,0-0.1,0.1-0.2h0v0c0.1-0.1,0.1-0.1,0.2-0.1c0,0,0,0,0,0c0.3,0.2,0.5,0.4,0.8,0.5v0h0c0.1,0.1,0.2,0.2,0.3,0.3v0h0l0.1,0.1v0h0
	l0.1,0.1v0h0c0.1,0.1,0.1,0.1,0.2,0.2v0h0l0,0.1v0h0c0.1,0.1,0.1,0.2,0.2,0.3v0l0,0c0.1,0.2,0.1,0.3,0.2,0.5
	c-0.1-0.4-0.2-0.9-0.1-1.3h0v-0.1c0.1-0.2,0.1-0.4,0.3-0.6c0.1-0.2,0.1-0.6,0.3-0.6c0,0.1,0.1,0.3,0.1,0.4v0h0
	c0.1,0.2,0.1,0.4,0.2,0.7v0h0c0,0.1,0,0.2,0.1,0.3V48h0c0,0.3,0.1,0.6,0,0.9h0v0.1c0,0,0,0.1,0,0.1c0.3-0.3,0.5-0.7,0.8-1.1h0v0
	c0.1-0.1,0.1-0.2,0.2-0.2h0v0l0,0h0v0c0,0,0.1-0.1,0.1-0.1c0.2,0,0.2,0,0.2,0.1h0v0c-0.1,0.2-0.3,0.5-0.3,0.7
	c-0.1,0.2-0.1,0.5-0.3,0.7h0v0c0,0,0,0.1-0.1,0.1h0v0c-0.3,0.5-0.7,0.9-1.2,0.9h0v0c0,0-0.1,0-0.1,0c0,0-0.1,0.1-0.2,0
	c0,0.2,0,0.3,0,0.5h0v0.2c0,0.3,0,0.6,0,0.8h0v0.1c0,0.3,0,0.5-0.1,0.8h0v0c0,0.2,0,0.4-0.1,0.6h0v0.1c0,0.2,0,0.3,0,0.5h0v0.1
	c0,0.2,0,0.3-0.1,0.5h0v0.1c0,0.3-0.1,0.6-0.1,0.9h0v0l0,0.3h0v0.1c0,0.1,0,0.2,0,0.3h0v0.1l0,0.3h0v0.1c-0.1,0.4-0.1,0.9-0.2,1.3h0
	v0l0,0.2h0v0.1l0,0.2h0v0.1l-0.1,0.2h0v0l0,0.2h0v0.1l-0.1,0.2h0v0c0,0.1-0.1,0.3-0.1,0.4c0.1-0.2,0.2-0.4,0.3-0.6h0v0l0-0.1h0v0
	l0-0.1h0v0l0-0.1h0v0l0.1-0.1h0v0c0-0.1,0.1-0.1,0.1-0.2c0,0,0,0,0,0c0,0,0,0,0-0.1c0,0,0,0,0,0c0.5-0.6,0.6-1.3,0.9-2h0v0
	c0,0,0-0.1,0.1-0.1c0,0,0,0,0,0c0,0,0,0,0,0c0,0,0,0,0,0c0.3-0.8,0.6-1.5,0.8-2.3c-0.1-0.1-0.2-0.2-0.2-0.4v0h0c0-0.2,0-0.3,0-0.5h0
	v0l0,0c0.1-0.3,0.3-0.4,0.5-0.6c0,0,0.1-0.1,0.1-0.1h0v0c0,0,0,0,0.1,0c0,0.1,0,0.3,0,0.4v0.1h0c0,0.2,0,0.4,0,0.6
	c0,0.2-0.2,0.4-0.3,0.5c0,0,0,0,0,0c0,0,0,0-0.1,0c0,0.2-0.1,0.4-0.1,0.5h0v0c-0.1,0.5-0.3,1-0.5,1.5h0v0c-0.1,0.2-0.1,0.3-0.2,0.5
	l0,0v0c-0.1,0.3-0.2,0.6-0.3,0.9c0.1-0.1,0.1-0.2,0.2-0.3h0v0c0.1-0.1,0.2-0.2,0.3-0.3h0v0c0.1-0.1,0.2-0.2,0.3-0.3h0v0
	c0.3-0.3,0.6-0.7,0.9-1c0.2-0.2,0.5-0.5,0.5-0.8c0,0,0,0,0,0l0-0.1v-0.2h0c0-0.1,0-0.2,0-0.4h0v0c0-0.1,0-0.2,0-0.3h0v-0.1
	c0-0.1,0.1-0.2,0.1-0.2h0v0c0-0.1,0.1-0.1,0.1-0.2h0v0c0,0,0.1-0.1,0.1-0.1h0v0c0,0,0,0,0.1,0h0v0c0.1-0.1,0.1-0.1,0.2-0.2h0v0
	l0.1-0.1c0.4-0.2,0.8-1,0.5,0.1c1-1,0.4,0.4,0.1,0.9c0,0,0,0,0,0c0,0,0,0,0,0c0,0,0,0,0,0c0,0,0,0,0,0.1c0,0,0,0,0,0
	c-0.1,0.1-0.2,0.3-0.3,0.4h0v0L86.2,54h0v0c-0.2,0.2-0.4,0.3-0.7,0.5c0,0,0,0,0,0c0,0,0,0,0,0c-0.1,0-0.1,0.1-0.2,0.1
	c-2.5,3.1-3.9,4.5-4.6,8.7l-0.1,0.3h0v0l-0.1,0.4h0v0l0,0.2h0v0l-0.1,0.2h0v0l0,0.2h0v0l0,0.1h0v0.1l-0.1,0.2h0v0l0,0.2h0v0L80,65.6
	h0v0L80,65.8h0v0c-0.1,0.5-0.3,0.9-0.5,1.4h0v0l0,0.1h0v0l0,0.1h0v0l0,0.1h0v0l-0.1,0.1h0v0l-0.1,0.2h0v0c-0.1,0.2-0.1,0.3-0.2,0.5
	h0v0L79,68.8h0v0c-0.1,0.3-0.2,0.6-0.3,0.9h0v0L78.5,70h0v0l-0.1,0.3h0v0l0,0.1h0v0l-0.1,0.1h0v0l0,0.1h0v0l-0.1,0.1h0v0l0,0.1h0v0
	L78,71.2h0v0l0,0.1h0v0l-0.1,0.3h0v0c-0.1,0.3-0.2,0.5-0.4,0.8h0v0l0,0.1h0v0l0,0.1h0v0L77.2,73h0v0l0,0.1h0v0l0,0.1h0v0l0,0.1h0v0
	c-0.1,0.1-0.1,0.2-0.2,0.4h0v0l-0.1,0.1h0v0L76.7,74h0v0l0,0.1h0v0l0,0.1h0v0c-0.1,0.2-0.1,0.3-0.2,0.5c1.9-1.9,3.7-4,4.9-6.5
	c0,0,0,0,0,0c0.4-0.7,0.7-1.3,1-2h0v0l0-0.1h0v0l0-0.1h0v0l0-0.1h0v0l0-0.1h0v0l0.1-0.1h0v0c0.1-0.1,0.1-0.2,0.2-0.3c0,0,0,0,0,0
	c0,0,0,0,0,0c0,0,0,0,0,0c0.2-0.3,0.4-0.7,0.5-1c-0.2-0.2-0.3-0.5-0.3-0.7v0h0c0,0,0-0.1,0-0.1c0,0,0,0,0,0c0-0.1,0-0.2,0-0.2h0
	v-0.2c0-0.1,0-0.2,0.1-0.2h0v0c0.1-0.5,0.4-1,0.5-1.5c0-0.1,0-0.9,0.3-0.6c0,0,0,0,0,0c0,0,0,0,0,0c0.1,0.3,0.3,0.5,0.3,0.8v0h0
	c0,0.2,0,0.4,0,0.6c0.1-0.2,0.6-1,0.8-1.2h0v0c0,0,0,0,0.1,0c0,0,0,0.1,0,0.1v0h0c0,0.1,0,0.1,0.1,0.2v0h0c0,0.1,0,0.1,0.1,0.2v0h0
	c0,0.1,0,0.2,0,0.4c0,0,0,0,0,0l0,0.1v0.1h0c0,0.1,0,0.3,0,0.4h0v0.1c0,0.1,0,0.1,0,0.2h0v0.1c0,0,0,0.1,0,0.1l0.1,0
	c0.1,0,0.2-0.1,0.3-0.1c0.2-0.1,0.5-0.1,0.7-0.2c0,0,0,0,0,0c0.1,0,0.2-0.2,0.3-0.1c0,0,0,0,0,0v0h0c0.1,0.2-0.5,0.6-0.6,0.8
	c-0.1,0.2-0.3,0.3-0.5,0.5h0v0c-0.1,0.1-0.2,0.2-0.3,0.2h0v0c0,0-0.1,0-0.1,0.1h0v0c-0.1,0-0.2,0.1-0.3,0.1h0v0c-0.1,0-0.1,0-0.2,0
	l0,0h0v0c-0.3,0.1-0.6,0-0.9,0.2c0,0,0,0,0,0c0,0-0.1,0.1-0.1,0.1c-0.5,0.9-0.9,1.9-1.3,2.8h0v0l0,0.1h0v0l0,0.1h0v0l0,0.1h0v0
	l0,0.1h0v0l0,0.1h0v0l0,0.1h0v0l0,0.1h0v0l-0.1,0.1h0v0l-0.1,0.1h0v0c0,0.1-0.1,0.1-0.1,0.2c0,0,0,0,0,0c-0.1,0.1-0.1,0.3-0.2,0.4h0
	v0l-0.1,0.1h0v0l-0.1,0.1h0v0L81,69.5h0v0l0,0.1h0v0l-0.1,0.1h0v0l-0.1,0.2h0v0l0,0.1h0v0l-0.1,0.1h0v0l-0.1,0.2h0v0
	c-0.1,0.1-0.1,0.2-0.2,0.3h0v0l-0.1,0.2h0v0l-0.1,0.2h0v0l0,0h0v0L80,71.1h0v0l0,0h0v0l-0.1,0.1l0,0v0l0,0.1h0v0l0,0h0v0l-0.1,0.1h0
	v0l0,0h0v0l0,0h0v0.1l0,0.1h0v0l0,0h0v0L79.4,72h0v0l0,0.1h0v0c-0.1,0.1-0.1,0.2-0.2,0.2c1.8-1.2,3.4-2.8,4.6-4.6
	c-0.1-0.2,0-0.4,0.1-0.6h0v0c0,0,0-0.1,0.1-0.1h0v0c0-0.1,0.1-0.1,0.1-0.2h0v0c0.2-0.2,0.4-0.4,0.5-0.7c0,0,0,0,0,0
	c0.1,0,0.1,0.1,0.1,0.1c0,0,0,0,0,0c0,0,0,0,0,0.1c0,0,0,0,0,0c0,0.1,0,0.2,0,0.2c0,0,0,0,0,0c0,0,0,0,0,0c0,0,0.1-0.2,0.2-0.1h0
	c0,0.2-0.1,0.4-0.2,0.5c0,0,0,0.1,0,0.1h0v0c0,0.1-0.1,0.2-0.2,0.3h0v0c-0.1,0.2-0.3,0.3-0.5,0.4c0,0.1-0.1,0.1-0.1,0.2h0v0
	c0,0.1-0.1,0.1-0.1,0.2h0v0c0,0.1-0.1,0.1-0.1,0.2h0v0c-0.1,0.2-0.2,0.3-0.3,0.5h0v0c-0.1,0.1-0.2,0.2-0.3,0.3h0v0
	c-0.2,0.2-0.3,0.4-0.5,0.6h0v0c-0.3,0.3-0.6,0.6-0.9,0.9c0,0,0,0,0,0c0,0,0,0-0.1,0.1c0,0,0,0,0,0l-0.1,0.1h0v0l-0.1,0.1h0v0
	l-0.1,0.1h0v0L81.1,71l0,0l0,0c-0.2,0.2-0.3,0.3-0.5,0.5h0v0c-0.4,0.4-0.9,0.7-1.3,1h0v0c-0.3,0.2-0.5,0.4-0.8,0.6
	c-0.1,0.1-0.2,0.2-0.3,0.3h0v0c-0.2,0.3-0.5,0.5-0.8,0.8c0,0,0,0,0,0c-0.6,0.5-1.1,1.2-1.6,1.8c-0.1,0.1-0.1,0.2-0.2,0.3h0v0l0,0.1
	h0v0l0,0.1h0v0l-0.1,0.1h0v0c-0.1,0.1-0.1,0.2-0.2,0.3h0v0c-0.2,0.3-0.3,0.5-0.5,0.7h0v0c-0.1,0.2-0.3,0.4-0.4,0.6c0,0,0,0,0.1-0.1
	c3.9-3,7.3-6.6,10.5-10.3c0,0,0,0,0,0c0,0,0,0,0,0c0,0,0,0,0,0c1.3-1.7,2.7-3.4,3.4-5.4c0,0,0,0,0,0c0.8-2.2,1.6-4.5,1.7-6.9
	c0,0,0,0,0,0c0,0,0,0,0-0.1c0,0,0,0,0,0c0,0,0-0.1,0-0.1c0,0,0,0,0,0.1c0-0.5,0-0.9,0-1.4c0,0,0,0,0,0c0,0,0-0.1,0-0.1c0,0,0,0,0,0
	c0,0,0-0.1,0-0.1c0,0,0,0,0,0c0,0,0,0,0,0c-0.2-2.1-1.7-3.5-3-5L87,49v0h0L87,48.9v0h0c0,0-0.1-0.1-0.1-0.1v0h0l0,0v0h0l0-0.1v0h0
	l-0.1-0.1v0h0l0,0v0h0l0-0.1v0h0l-0.1-0.1v0h0l0-0.1v0h0c-0.1-0.1-0.1-0.2-0.2-0.3v0h0l-0.1-0.1v0h0l0-0.1v0h0l0-0.1v0h0
	c0,0,0-0.1,0-0.1v0h0l0-0.1v0h0l-0.1-0.1v-0.1h0l0-0.1v0h0c0-0.1-0.1-0.2-0.1-0.3v0h0c0-0.1,0-0.1,0-0.2v-0.1h0c0,0,0-0.1,0-0.1
	v-0.1h0c0-0.1,0-0.1,0-0.2v0h0c0-0.2-0.1-0.4-0.1-0.7v-0.1h0c0-0.2,0-0.3,0-0.5v0h0c0-0.6,0-1.2,0-1.8h0v-0.1c0-0.3,0-0.6,0.1-0.9v0
	c0.1-0.8,0.1-1.6,0.2-2.4c0,0,0,0,0,0c0,0,0,0,0,0c0,0,0,0,0,0c0,0,0,0,0,0c0,0,0,0,0,0c0-0.1,0-0.2,0-0.3h0v0c0-0.1,0-0.3,0.1-0.4
	h0v0c0-0.1,0-0.3,0.1-0.4l0,0v0c0-0.2,0.1-0.4,0.1-0.6h0v0c0.2-1.3,0.6-2.6,0.8-3.8c0.1-1,0.1-1.9,0.2-1.7v0h0
	c0.1,0.1,0.2,0.5,0.4,1.4c0,0,0,0,0,0c0.4,1.6,1.3,2.9,2,4.4v0h0l0.1,0.1v0h0c0.1,0.2,0.2,0.4,0.2,0.6v0h0c0,0.1,0.1,0.2,0.1,0.3
	c0,0.1,0,0.1,0.1,0.2v0h0c0,0.1,0,0.1,0.1,0.2v0h0c0,0.1,0,0.2,0.1,0.3v0h0c0,0.1,0,0.2,0.1,0.3v0.1h0c0,0.1,0,0.3,0.1,0.4v0h0
	c0.1,0.7,0.1,1.4,0.1,2.1c0.1,0.7,0.2,1.4,0.3,2v0.1h0c0,0.5,0.1,1,0,1.5c0,0,0,0,0,0c0,0,0,0,0,0c0,0,0,0,0,0.1c0,0,0,0,0,0
	c0,0,0,0,0,0.1c0,0,0,0,0,0c-0.2,2.1,0.1,4,0.2,5.9v0h0c0,0.2,0,0.5,0.1,0.7v0h0c0,0.3,0,0.6,0.1,0.9v0.3h0c0,0.6,0,1.1,0,1.7h0v0.4
	c0,0.2,0,0.4-0.1,0.6h0V57c0,0.1,0,0.3,0,0.4h0v0.1c0,0.1,0,0.1,0,0.2h0v0.1c0,0.1,0,0.1,0,0.2h0v0.1c0,0.1,0,0.1,0,0.2h0v0.1
	c0,0.1,0,0.2-0.1,0.2h0v0c0,0.1-0.1,0.3-0.1,0.4h0v0.1l0,0.1h0v0.1l0,0.1h0v0.1l0,0.1h0v0.1l0,0.1h0v0.1l0,0.1h0v0.1l0,0.1h0v0.1h0
	c-0.1,0.2-0.1,0.4-0.2,0.5c3-5.3,4.9-11.2,6.2-17.1c0.2-1.6,1.4-5.8,0.2-6.9c0,0,0,0,0,0c0,0,0,0,0-0.1c0,0,0,0,0,0
	c-0.1-0.1-0.2-0.2-0.2-0.3c0,0,0,0,0.1,0.1c-0.5-0.5-0.9-1-1.5-1.4c0,0-0.1-0.1-0.1-0.1v0h0c-0.1,0-0.1-0.1-0.2-0.1v0h0
	c-0.1,0-0.1-0.1-0.2-0.1v0h0l-0.1,0v0h0c-0.1,0-0.1-0.1-0.2-0.1v0h0c-0.1-0.1-0.2-0.2-0.3-0.2v0h0c-0.1-0.1-0.3-0.2-0.4-0.4v0h0
	L92.9,34v0h0c-0.6-0.5-1.2-1.1-1.7-1.7c0,0,0,0,0,0c0,0,0,0,0,0c0,0,0,0,0,0c0,0,0,0,0,0l0,0c-0.1-0.1-0.2-0.2-0.3-0.3v0h0l0-0.1v0
	h0c-0.1-0.1-0.2-0.2-0.2-0.3v0h0c-0.1-0.1-0.2-0.2-0.2-0.3l0,0l0,0c0-0.1-0.1-0.1-0.1-0.2v0h0c0-0.1-0.1-0.1-0.1-0.2v0h0
	c-0.1-0.2-0.3-0.4-0.4-0.6v0h0l-0.1-0.1v0h0c-0.1-0.2-0.2-0.5-0.3-0.7v0h0c0-0.1-0.1-0.2-0.1-0.3v0h0c-0.1-0.3-0.2-0.6-0.3-0.9v0h0
	c0-0.1,0-0.1-0.1-0.2v0h0c-0.1-0.3-0.1-0.6-0.2-0.9v0l0,0c0-0.1,0-0.3-0.1-0.4v0h0c-0.3-2.8,0.3-5.5-0.9-8.6c0-0.3,0.1-0.2,0.4,0v0
	h0c0.1,0.1,0.1,0.1,0.2,0.2v0h0c0.2,0.2,0.4,0.5,0.5,0.5c0.4,0.5,0.8,1.1,1.2,1.6v0h0c0.2,0.3,0.4,0.6,0.6,0.9v0h0l0.1,0.2v0h0
	c0.2,0.3,0.4,0.6,0.5,0.9v0h0l0.1,0.1v0h0c0.1,0.2,0.2,0.4,0.3,0.5v0h0l0.1,0.1v0h0l0.1,0.1v0h0l0.1,0.1v0h0l0.1,0.1v0h0
	c0.1,0.3,0.3,0.6,0.4,0.9v0h0c0,0.1,0.1,0.2,0.1,0.3v0h0l0.1,0.2v0h0c0.1,0.2,0.2,0.4,0.2,0.7v0h0l0,0.2v0h0c0,0.1,0,0.1,0.1,0.2v0
	h0c0.1,0.2,0.1,0.4,0.2,0.7v0h0c0,0.1,0,0.2,0.1,0.2v0h0c0,0.1,0,0.2,0,0.3v0h0c0,0.1,0,0.2,0.1,0.3c0.6,3.1,2.2,5.7,3.5,8.4
	c0.2-4.1,0-8.3-1.8-12.2c0,0,0,0,0,0c0,0,0-0.1-0.1-0.1c0,0-0.1-0.1-0.1-0.1v0h0l-0.1-0.1v0h0c-0.2-0.3-0.3-0.5-0.4-0.8v0h0
	c0,0,0-0.1-0.1-0.1v0h0c-0.1-0.2-0.2-0.5-0.2-0.7v0h0c0-0.1,0-0.1-0.1-0.2v0h0c0-0.1,0-0.2-0.1-0.2v0h0c0-0.2-0.1-0.4-0.1-0.6v0l0,0
	c0-0.1,0-0.2-0.1-0.4l0,0c0-0.1,0-0.3-0.1-0.4v0h0c-0.2-1.1-0.3-2.3-0.6-3.4c-0.5-1.6-1.4-3-2.4-4.3c-0.3-0.2-0.6-0.5-0.8-0.8v0h0
	l-0.1-0.1v0h0l-0.1-0.1v0h0c-0.2-0.2-0.3-0.3-0.5-0.5v0h0c-0.1-0.2-0.3-0.4-0.4-0.6v0h0l0-0.1v0h0c-0.1-0.1-0.1-0.2-0.2-0.3
	c0,0,0,0,0,0c0,0,0,0,0,0c0-0.1,0-0.1-0.1-0.2c0,0,0,0,0,0c0,0,0,0,0-0.1c0,0,0,0,0,0c-0.3-1.2,0.3,0,0.5,0.3c0,0,0,0,0,0
	c0,0,0.1,0.1,0.1,0.1c0,0,0,0,0,0c0.1,0.1,0.2,0.2,0.3,0.3c0,0,0,0,0,0c0.1,0,0.1,0.1,0.2,0.1c0,0,0,0,0,0c0.3,0.2,0.5,0.3,0.8,0.5
	v0h0c0.1,0,0.1,0.1,0.2,0.1v0h0c0,0,0.1,0.1,0.1,0.1c0,0,0,0,0,0c0.3,0.2,0.5,0.4,0.8,0.6c0,0,0,0,0,0c0.1,0,0.1,0.1,0.2,0.1v0h0
	c0.1,0,0.1,0.1,0.2,0.1v0h0c0.2,0.1,0.4,0.3,0.6,0.4v0h0c0.1,0.1,0.2,0.2,0.3,0.2v0h0c0.3,0.3,0.6,0.5,0.8,0.8v0h0
	c0.1,0.1,0.2,0.2,0.3,0.3v0h0c0.1,0.1,0.2,0.3,0.3,0.5v0h0c0.2,0.3,0.4,0.5,0.5,0.8v0h0c0.1,0.2,0.2,0.4,0.3,0.6v0h0l0.1,0.1v0h0
	c0.1,0.2,0.2,0.4,0.3,0.6v0h0c0,0.1,0.1,0.2,0.1,0.3v0h0c0,0.1,0.1,0.2,0.1,0.3v0h0c0.1,0.3,0.2,0.7,0.4,1.1v0l0,0
	c0.3,1,0.5,1.9,0.6,2.9v0h0c0.1,0.5,0.1,1.1,0.1,1.6v0.2h0c0,0.2,0,0.4,0,0.6h0v0.1c0,0.2,0,0.4,0,0.5c0,0.3,0,0.5-0.1,0.8
	c-0.1,0.9-0.1,1.8,0,2.7c0,0,0,0,0,0c0,0,0,0,0,0l0,0.2v0h0c0,0.1,0,0.2,0.1,0.4v0.1h0l0,0.3v0.2h0l0,0.2v0.2h0l0,0.2v0.2h0l0,0.3
	v0.2h0c0,0.1,0,0.3,0,0.4v0h0c0,0.2,0,0.5,0.1,0.7v0.3h0c0,0.2,0,0.4,0,0.7V33h0c0,0.9,0,1.8,0,2.8h0v0.7c0,0.5-0.1,1.1-0.1,1.6h0
	v0.1c0,0.1,0,0.3,0,0.4h0v0.2l0,0.3h0v0.2c0,0.1,0,0.2,0,0.4h0v0.1c0,0.1,0,0.3,0,0.4h0v0.1c0,0.3-0.1,0.5-0.1,0.8h0v0.1l0,0.3h0
	v0.1l0,0.3h0V42l0,0.2h0v0.1l0,0.2h0v0.1l0,0.2h0V43l0,0.3h0v0l-0.1,0.3h0v0c0,0.2-0.1,0.4-0.1,0.6h0v0l0,0.2h0v0.1l0,0.2h0v0l0,0.2
	h0v0.1l0,0.2h0v0.1l0,0.2h0v0.1l0,0.2h0v0.1l0,0.2h0v0l0,0.2h0v0l0,0.2h0v0c-0.1,0.4-0.2,0.8-0.3,1.1h0v0l0,0.2h0v0.1l0,0.2h0v0
	l0,0.1h0v0.1l0,0.2h0v0l0,0.1h0v0.1l0,0.2h0v0l0,0.1h0v0.1L95,49.4h0v0l0,0.2h0v0l-0.1,0.2h0v0L94.8,50h0v0
	c-0.1,0.2-0.2,0.5-0.2,0.7h0v0l-0.1,0.2h0v0l-0.1,0.2h0v0l-0.1,0.2h0v0l-0.1,0.2h0v0l-0.1,0.2h0v0l-0.1,0.2h0v0L94.2,52h0v0
	l-0.1,0.2h0v0l0,0.1h0v0.1l0,0.1h0v0l0,0.1h0v0l0,0.1h0v0l-0.1,0.1h0v0l-0.1,0.2h0v0l-0.1,0.4c0.1-0.1,0.1-0.2,0.2-0.3h0v0
	c0.1-0.1,0.1-0.1,0.2-0.2h0v0c0.8-1.1,1.7-2,2.4-3.2c0,0,0,0,0,0c0.4-0.7,0.5-1.5,0.7-2.2h0v0c0-0.1,0-0.1,0.1-0.2h0v0
	c0,0,0-0.1,0.1-0.1c0.3-0.7,0.9-1.3,1.1-2c0,0,0,0,0,0c0.2-0.6,0.3-1.2,0.3-1.8c0-1.3-0.2-2.5-0.4-3.8v0h0c0-0.2,0-0.4-0.1-0.5v-0.1
	h0c0-0.2,0-0.4-0.1-0.5v-0.1h0c0-0.2,0-0.5-0.1-0.7v-0.3h0c0-0.4,0-0.8,0-1.2c0,0,0,0,0,0c0,0,0,0,0-0.1c0,0,0,0,0,0
	c0-0.1,0-0.2,0-0.3h0v-0.1c0-0.1,0-0.2,0-0.3h0v-0.2l0-0.2h0V35l0-0.2h0v-0.1l0-0.2h0v-0.1c0-0.2,0.1-0.4,0.1-0.6h0v0l0.1-0.2h0v0
	l0-0.2h0v-0.1l0-0.1h0v-0.1l0-0.2h0v-0.1l0-0.2h0v0l0-0.1h0v-0.1l0-0.2h0v0c0-0.1,0.1-0.3,0.1-0.4l0,0l0,0l0.1-0.2h0v0l0.1-0.2h0v0
	l0.1-0.2h0v0l0-0.1h0v-0.1l0-0.1h0v0l0-0.1h0v0l0.1-0.1h0v0l0.1-0.2l0,0l0-0.1h0v0l0.1-0.1h0v0c0.1-0.2,0.2-0.4,0.2-0.6h0v0l0.1-0.3
	h0v0l0-0.1h0v0l0.1-0.3h0v0l0-0.1h0v0l0-0.1h0v0l0.1-0.3h0v0l0.1-0.1h0v0c0.1-0.1,0.1-0.3,0.2-0.4c0-0.1,0.1-0.1,0.1-0.2h0v0
	l0.1-0.1h0v0l0.1-0.1h0v0l0.1-0.1l0,0c0.4-0.7,0.8-1.3,1.1-2.1c0.2-0.5,0.2-1,0.4-1.5h0v0c0-0.2,0.1-0.5,0.2-0.7h0v0
	c0-0.1,0-0.1,0.1-0.2h0v0c0-0.1,0-0.1,0.1-0.2c0,0,0,0,0,0c0,0,0-0.1,0-0.1c0,0,0,0,0,0c0,0,0,0,0,0c0,0,0,0,0,0
	c0-0.1,0-0.1,0.1-0.1c0.1,0,0,0.1,0,0.2l0,0.3v0h0l0.1,0.5v0.1h0l0,0.4V24h0l0,0.4v0.2h0l0,0.3v0.2h0l0,0.4v0.2h0l0,0.4v0.1h0l0,0.5
	v0.1h0l0.1,0.6v0h0c0,0.2,0,0.5,0.1,0.7v0.1h0l0.1,0.7V29h0l0.1,0.7v0.1h0l0.1,0.7v0.1h0l0.1,0.7v0h0l0,0.6l0.1,0.6v0l0,0l0.1,0.5v0
	h0c0,0.3,0.1,0.6,0.1,1v0h0c0,0.2,0,0.3,0.1,0.5v0h0c0,0.4,0.1,0.8,0.1,1.2v0.1h0c0,0.3,0,0.5,0.1,0.8v0h0c0,0.7,0,1.5,0,2.2h0V39
	c0,0.2,0,0.4,0,0.6h0v0.1c0,0.1,0,0.3-0.1,0.4h0v0c0,0.1,0,0.2,0,0.3h0v0.1c0,0.1,0,0.2,0,0.2h0v0.1c0,0.1,0,0.1,0,0.2h0v0.1
	c0,0.2-0.1,0.5-0.2,0.7h0v0l0,0.1h0v0.1l0,0.1h0v0.1l0,0.1h0v0.1l0,0.1h0v0.1l0,0.1h0v0l-0.1,0.1h0v0c-0.1,0.1-0.1,0.3-0.2,0.4h0v0
	l0,0.1h0v0l0,0.1h0v0l0,0.1h0v0l0,0.1h0v0l0,0.1h0v0l0,0.1h0v0l-0.1,0.1h0v0l0,0.1h0v0l0,0.1h0v0l-0.1,0.1h0v0c0,0-0.1,0.1-0.1,0.1
	l-0.1,0.1h0v0c-0.1,0.2-0.2,0.3-0.3,0.5l-0.1,0.2h0v0c-0.2,0.4-0.5,0.7-0.7,1h0v0l-0.1,0.2h0v0l-0.1,0.2h0v0
	c-0.1,0.1-0.1,0.2-0.2,0.2h0v0c-0.1,0.2-0.2,0.3-0.3,0.5h0v0c-0.1,0.1-0.2,0.2-0.2,0.3h0v0l0,0.1h0v0l0,0h0v0
	c-0.1,0.1-0.1,0.1-0.2,0.2l0,0l-0.1,0.1h0v0l0,0.1h0v0l0,0h0v0l0,0h0v0c-0.2,0.2-0.4,0.4-0.6,0.6h0v0l0,0h0v0l0,0h0v0l0,0h0v0l0,0h0
	v0l-0.1,0h0v0c0,0-0.1,0.1-0.1,0.1h0v0l0,0h0v0l0,0h0v0l0,0h0v0c-0.1,0.1-0.2,0.2-0.3,0.2c-1.8,1.3-3.2,2.9-4.5,4.6
	c-0.4,0.8-0.8,1.6-1.2,2.5c0,0,0,0,0,0c-0.1,0.1-0.1,0.3-0.2,0.4h0v0l0,0.1h0v0l0,0.1h0v0c0,0.1-0.1,0.2-0.1,0.3h0v0L92,57.9h0v0
	l0,0.1h0v0l0,0.1h0v0c-0.2,0.4-0.4,0.8-0.6,1.1h0v0l-0.1,0.1h0v0l-0.1,0.1h0v0c-0.1,0.2-0.2,0.3-0.3,0.5h0v0l-0.1,0.1h0v0
	c-0.2,0.3-0.3,0.5-0.5,0.8h0v0l-0.2,0.3h0v0L90,61.6h0v0l-0.2,0.3h0v0c-0.3,0.4-0.5,0.8-0.8,1.2h0v0l-0.3,0.5l0,0v0L88.5,64
	c0,0,0,0,0,0c0,0,0,0,0,0c-0.1,0.1-0.1,0.2-0.2,0.3h0v0c-0.1,0.1-0.1,0.2-0.2,0.3h0v0c-0.1,0.1-0.1,0.2-0.2,0.3h0v0
	c-0.1,0.1-0.1,0.2-0.2,0.3h0v0c-0.1,0.2-0.2,0.4-0.3,0.5h0v0l-0.1,0.2h0v0l-0.1,0.2h0v0L87,66.3h0v0c-0.2,0.2-0.3,0.4-0.5,0.6h0v0
	l-0.2,0.2h0v0l-0.2,0.2h0v0c-0.3,0.4-0.6,0.8-0.9,1.2h0v0c-0.4,0.4-0.7,0.9-1.1,1.3h0v0c-0.4,0.4-0.8,0.9-1.2,1.3h0v0
	c-0.3,0.3-0.5,0.6-0.8,0.9h0v0c-0.6,0.6-1.2,1.3-1.8,1.9c0,0,0.1,0,0.1-0.1l0.2-0.1h0v0c0.2-0.1,0.4-0.2,0.5-0.2
	c2.1-0.9,4.3-1.6,6.1-2.9c2.1-2.6,3.8-5.5,5.7-8.2h0v0c0.3-0.5,0.7-1,1.1-1.5h0v0l0.2-0.2h0v0c0.2-0.3,0.4-0.5,0.6-0.8h0v0
	c0.1-0.1,0.2-0.2,0.2-0.3h0v0c0.1-0.1,0.2-0.2,0.2-0.3h0v0c0.1-0.2,0.3-0.3,0.4-0.5c0,0,0,0,0,0c0.8-1,1.6-1.9,2.3-2.9h0v0
	c0.1-0.1,0.2-0.2,0.3-0.4h0v0c0.1-0.1,0.2-0.3,0.3-0.4h0v0c0.4-0.4,0.8-0.9,1.2-1.3h0v0l0.1-0.1h0v0l0.1-0.1h0v0l0.1-0.1h0v0
	l0.1-0.1h0v0l0.1-0.1h0l0.1-0.1c0,0,0,0,0,0c0.4-0.4,0.8-0.8,1.2-1.1h0v0c0.1-0.1,0.2-0.2,0.3-0.2h0v0c0.1-0.1,0.2-0.1,0.2-0.2h0v0
	c0.1-0.1,0.2-0.1,0.2-0.2h0v0c0.1,0,0.1-0.1,0.2-0.1h0v0l0.2-0.1h0v0l0.2-0.1h0v0l0.2-0.1h0v0l0.2-0.1h0v0c0.1-0.1,0.2-0.1,0.3-0.2
	h0v0c0.1-0.1,0.2-0.1,0.3-0.2h0v0c0.1-0.1,0.3-0.2,0.4-0.2l0,0v0c0.5-0.3,1-0.5,1.5-0.8l0,0l0,0c0.9-0.4,1.8-0.7,2.6-1.1h0v0
	c0.2-0.1,0.3-0.1,0.5-0.2c0,0,0,0,0,0c0,0,0,0,0,0c0,0,0,0,0,0c0,0,0,0,0,0c0,0,0,0,0,0v0.1c0,0,0,0,0,0c0,0,0,0,0,0
	c-0.5,0.3-0.9,0.8-1.4,1.2c-2.6,2.6-4.8,5.7-6.1,9.1c-0.5,1-0.9,2.1-1.4,3.1h0v0l-0.1,0.1h0v0c-0.1,0.2-0.2,0.5-0.3,0.7h0v0
	l-0.1,0.1h0v0c-0.2,0.4-0.4,0.8-0.6,1.2h0v0c-0.1,0.1-0.1,0.2-0.2,0.3h0v0c-0.1,0.2-0.2,0.3-0.3,0.5h0v0l-0.1,0.2h0v0L98,65.6h0v0
	l-0.1,0.2h0v0c-0.1,0.1-0.2,0.3-0.3,0.4h0v0c-0.1,0.1-0.1,0.2-0.2,0.2h0v0c-0.1,0.1-0.2,0.2-0.2,0.3h0v0l0,0.1h0v0
	C97,66.9,97,67,96.9,67.1h0v0c-0.2,0.2-0.4,0.5-0.6,0.7h0v0l-0.1,0.1h0v0l-0.1,0.1l0,0l0,0c-0.1,0.1-0.2,0.2-0.4,0.4
	c-0.8,1-1.6,2-2.6,2.8h0v0c-0.4,0.3-0.8,0.6-1.3,0.9h0v0l-0.1,0.1h0v0L91.6,72h0v0l-0.1,0h0v0c-0.1,0-0.2,0.1-0.2,0.1h0v0
	c-0.1,0-0.2,0.1-0.3,0.1h0v0c0,0-0.1,0-0.1,0.1h0v0c-0.1,0-0.2,0.1-0.3,0.1c-0.2,0-0.3,0.1-0.5,0.1h0v0c-0.2,0-0.3,0.1-0.5,0.1h0v0
	c-0.2,0-0.4,0.1-0.6,0.1h0v0c-0.1,0-0.2,0-0.3,0.1h0v0c-0.3,0-0.5,0.1-0.8,0.1h0v0c-0.2,0-0.3,0-0.5,0.1h0v0
	c-2.3,0.3-4.6,0.4-6.7,1.3c0,0,0,0,0.1,0c-1.6,0.6-2.7,1.9-4,3.1h0v0c-0.2,0.2-0.3,0.3-0.5,0.5h0v0c-0.1,0.1-0.2,0.2-0.3,0.3
	c0,0,0,0,0,0c-0.7,0.5-1.4,1.1-2.1,1.6c0,0,0,0,0,0c-0.1,0.1-0.2,0.1-0.3,0.2c0,0,0,0,0,0c0,0-0.1,0-0.1,0c0,0,0,0,0.1,0
	c-0.1,0-0.1,0.1-0.2,0.1c0,0,0,0,0,0c0,0,0,0,0,0c0,0,0,0,0,0c-0.2,0-0.3-0.1-0.3-0.3C73,79.5,73.2,79.3,73.4,79.1L73.4,79.1z"/>
</svg>
