<?xml version="1.0" encoding="utf-8"?>
<!-- Generator: Adobe Illustrator 16.0.0, SVG Export Plug-In . SVG Version: 6.00 Build 0)  -->
<!DOCTYPE svg PUBLIC "-//W3C//DTD SVG 1.1//EN" "http://www.w3.org/Graphics/SVG/1.1/DTD/svg11.dtd">
<svg version="1.1" id="Capa_1" xmlns="http://www.w3.org/2000/svg" xmlns:xlink="http://www.w3.org/1999/xlink" x="0px" y="0px"
	 width="45px" height="45px" viewBox="0 0 45 45" style="enable-background:new 0 0 45 45;" xml:space="preserve">
<style type="text/css">
<![CDATA[
	.st0{fill:#FFFFFF;}
]]>
</style>
<path id="facebbok" class="st0" d="M21.8,7.3c-8.3,0-15.1,6.8-15.1,15.3c0,7.6,5.5,13.9,12.7,15.1V27h-3.8v-4.4h3.8v-3.4
	c0-3.8,2.3-5.9,5.7-5.9c1.7,0,3.4,0.3,3.4,0.3v3.8h-1.9c-1.9,0-2.5,1.2-2.5,2.4v2.9h4.2L27.7,27h-3.5v10.7
	c7.2-1.1,12.7-7.5,12.7-15.1C36.9,14.2,30.2,7.3,21.8,7.3"/>
</svg>
