<?xml version="1.0" encoding="utf-8"?>
<!-- Generator: Adobe Illustrator 16.0.0, SVG Export Plug-In . SVG Version: 6.00 Build 0)  -->
<!DOCTYPE svg PUBLIC "-//W3C//DTD SVG 1.1//EN" "http://www.w3.org/Graphics/SVG/1.1/DTD/svg11.dtd">
<svg version="1.1" id="Capa_1" xmlns="http://www.w3.org/2000/svg" xmlns:xlink="http://www.w3.org/1999/xlink" x="0px" y="0px"
	 width="45px" height="45px" viewBox="0 0 45 45" style="enable-background:new 0 0 45 45;" xml:space="preserve">
<style type="text/css">
<![CDATA[
	.st0{fill:#FFFFFF;}
]]>
</style>
<g id="instagran">
	<path class="st0" d="M22.9,18.9c1.5,0,2.7,1.2,2.7,2.7c0,1.5-1.2,2.7-2.7,2.7c-1.5,0-2.7-1.2-2.7-2.7
		C20.2,20.1,21.4,18.9,22.9,18.9"/>
	<path class="st0" d="M26.2,15h-6.8c-1,0-1.9,0.3-2.4,0.9c-0.5,0.5-0.9,1.4-0.9,2.4v6.8c0,1,0.3,1.9,0.9,2.5
		c0.6,0.6,1.4,0.9,2.4,0.9h6.7c1,0,1.9-0.3,2.4-0.9c0.6-0.5,0.9-1.4,0.9-2.4v-6.8c0-1-0.3-1.8-0.9-2.4C28.1,15.3,27.3,15,26.2,15
		 M22.9,25.8c-2.3,0-4.2-1.9-4.2-4.2s1.9-4.2,4.2-4.2c2.3,0,4.2,1.9,4.2,4.2S25.2,25.8,22.9,25.8z M27.2,18.3c-0.5,0-1-0.4-1-1
		c0-0.5,0.4-1,1-1c0.5,0,1,0.4,1,1C28.2,17.8,27.8,18.3,27.2,18.3z"/>
	<path class="st0" d="M23,6.4c-8.3,0-15.1,6.8-15.1,15.1S14.7,36.6,23,36.6s15.1-6.8,15.1-15.1C38.2,13.2,31.3,6.4,23,6.4 M31,25.1
		c0,1.4-0.5,2.6-1.4,3.5c-0.9,0.9-2.1,1.3-3.5,1.3h-6.6c-1.4,0-2.6-0.4-3.5-1.3c-0.9-0.9-1.4-2.1-1.4-3.5v-6.8
		c0-2.8,1.9-4.8,4.8-4.8h6.8c1.4,0,2.6,0.5,3.5,1.4c0.9,0.9,1.3,2,1.3,3.5V25.1z"/>
</g>
</svg>
